<svg width="118" height="32" viewBox="0 0 118 32" fill="none" xmlns="http://www.w3.org/2000/svg">
<path d="M0 16C0 7.16344 7.16344 0 16 0H118V32H16C7.16345 32 0 24.8366 0 16V16Z" fill="#0071BC"/>
<path d="M32.5795 12.2102V11.2727H39.125V12.2102H36.3807V20H35.3239V12.2102H32.5795ZM42.3295 20.1364C41.7386 20.1364 41.2202 19.9957 40.7741 19.7145C40.331 19.4332 39.9844 19.0398 39.7344 18.5341C39.4872 18.0284 39.3636 17.4375 39.3636 16.7614C39.3636 16.0795 39.4872 15.4844 39.7344 14.9759C39.9844 14.4673 40.331 14.0724 40.7741 13.7912C41.2202 13.5099 41.7386 13.3693 42.3295 13.3693C42.9205 13.3693 43.4375 13.5099 43.8807 13.7912C44.3267 14.0724 44.6733 14.4673 44.9205 14.9759C45.1705 15.4844 45.2955 16.0795 45.2955 16.7614C45.2955 17.4375 45.1705 18.0284 44.9205 18.5341C44.6733 19.0398 44.3267 19.4332 43.8807 19.7145C43.4375 19.9957 42.9205 20.1364 42.3295 20.1364ZM42.3295 19.233C42.7784 19.233 43.1477 19.1179 43.4375 18.8878C43.7273 18.6577 43.9418 18.3551 44.081 17.9801C44.2202 17.6051 44.2898 17.1989 44.2898 16.7614C44.2898 16.3239 44.2202 15.9162 44.081 15.5384C43.9418 15.1605 43.7273 14.8551 43.4375 14.6222C43.1477 14.3892 42.7784 14.2727 42.3295 14.2727C41.8807 14.2727 41.5114 14.3892 41.2216 14.6222C40.9318 14.8551 40.7173 15.1605 40.5781 15.5384C40.4389 15.9162 40.3693 16.3239 40.3693 16.7614C40.3693 17.1989 40.4389 17.6051 40.5781 17.9801C40.7173 18.3551 40.9318 18.6577 41.2216 18.8878C41.5114 19.1179 41.8807 19.233 42.3295 19.233ZM46.8306 22.4545V13.4545H47.8022V14.4943H47.9215C47.9954 14.3807 48.0977 14.2358 48.2283 14.0597C48.3619 13.8807 48.5522 13.7216 48.7994 13.5824C49.0494 13.4403 49.3874 13.3693 49.8136 13.3693C50.3647 13.3693 50.8505 13.5071 51.271 13.7827C51.6914 14.0582 52.0195 14.4489 52.2553 14.9545C52.4911 15.4602 52.609 16.0568 52.609 16.7443C52.609 17.4375 52.4911 18.0384 52.2553 18.5469C52.0195 19.0526 51.6928 19.4446 51.2752 19.723C50.8576 19.9986 50.3761 20.1364 49.8306 20.1364C49.4102 20.1364 49.0735 20.0668 48.8207 19.9276C48.5678 19.7855 48.3732 19.625 48.2369 19.446C48.1005 19.2642 47.9954 19.1136 47.9215 18.9943H47.8363V22.4545H46.8306ZM47.8192 16.7273C47.8192 17.2216 47.8917 17.6577 48.0366 18.0355C48.1815 18.4105 48.3931 18.7045 48.6715 18.9176C48.9499 19.1278 49.2908 19.233 49.6942 19.233C50.1147 19.233 50.4656 19.1222 50.7468 18.9006C51.0309 18.6761 51.244 18.375 51.386 17.9972C51.5309 17.6165 51.6033 17.1932 51.6033 16.7273C51.6033 16.267 51.5323 15.8523 51.3903 15.483C51.2511 15.1108 51.0394 14.8168 50.7553 14.6009C50.4741 14.3821 50.1204 14.2727 49.6942 14.2727C49.2852 14.2727 48.9414 14.3764 48.663 14.5838C48.3846 14.7884 48.1744 15.0753 48.0323 15.4446C47.8903 15.8111 47.8192 16.2386 47.8192 16.7273Z" fill="white"/>
<path d="M22 18L18 14L14 18" stroke="white" stroke-width="2" stroke-linecap="round" stroke-linejoin="round"/>
</svg>
