<svg width="118" height="32" viewBox="0 0 118 32" fill="none" xmlns="http://www.w3.org/2000/svg">
<path d="M0 16C0 7.16344 7.16344 0 16 0H118V32H16C7.16345 32 0 24.8366 0 16V16Z" fill="#FDA900"/>
<path d="M33.0568 20V11.2727H38.3239V12.2102H34.1136V15.1591H38.0511V16.0966H34.1136V19.0625H38.392V20H33.0568ZM40.0923 20V13.4545H41.0639V14.4773H41.1491C41.2855 14.1278 41.5057 13.8565 41.8097 13.6634C42.1136 13.4673 42.4787 13.3693 42.9048 13.3693C43.3366 13.3693 43.696 13.4673 43.983 13.6634C44.2727 13.8565 44.4986 14.1278 44.6605 14.4773H44.7287C44.8963 14.1392 45.1477 13.8707 45.483 13.6719C45.8182 13.4702 46.2202 13.3693 46.6889 13.3693C47.2741 13.3693 47.7528 13.5526 48.125 13.919C48.4972 14.2827 48.6832 14.8494 48.6832 15.6193V20H47.6776V15.6193C47.6776 15.1364 47.5455 14.7912 47.2812 14.5838C47.017 14.3764 46.706 14.2727 46.348 14.2727C45.8878 14.2727 45.5313 14.4119 45.2784 14.6903C45.0256 14.9659 44.8991 15.3153 44.8991 15.7386V20H43.8764V15.517C43.8764 15.1449 43.7557 14.8452 43.5142 14.6179C43.2727 14.3878 42.9616 14.2727 42.581 14.2727C42.3196 14.2727 42.0753 14.3423 41.848 14.4815C41.6236 14.6207 41.4418 14.8139 41.3026 15.0611C41.1662 15.3054 41.098 15.5881 41.098 15.9091V20H40.0923ZM52.4482 20.1534C52.0334 20.1534 51.657 20.0753 51.3189 19.919C50.9808 19.7599 50.7124 19.5312 50.5135 19.233C50.3146 18.9318 50.2152 18.5682 50.2152 18.142C50.2152 17.767 50.2891 17.4631 50.4368 17.2301C50.5845 16.9943 50.782 16.8097 51.0291 16.6761C51.2763 16.5426 51.549 16.4432 51.8473 16.3778C52.1484 16.3097 52.451 16.2557 52.755 16.2159C53.1527 16.1648 53.4751 16.1264 53.7223 16.1009C53.9723 16.0724 54.1541 16.0256 54.2678 15.9602C54.3842 15.8949 54.4425 15.7812 54.4425 15.6193V15.5852C54.4425 15.1648 54.3274 14.8381 54.0973 14.6051C53.87 14.3722 53.5249 14.2557 53.0618 14.2557C52.5817 14.2557 52.2053 14.3608 51.9325 14.571C51.6598 14.7812 51.468 15.0057 51.3572 15.2443L50.4027 14.9034C50.5732 14.5057 50.8004 14.196 51.0845 13.9744C51.3714 13.75 51.6839 13.5937 52.022 13.5057C52.3629 13.4148 52.6982 13.3693 53.0277 13.3693C53.2379 13.3693 53.4794 13.3949 53.7521 13.446C54.0277 13.4943 54.2933 13.5952 54.549 13.7486C54.8075 13.902 55.022 14.1335 55.1925 14.4432C55.3629 14.7528 55.4482 15.1676 55.4482 15.6875V20H54.4425V19.1136H54.3913C54.3232 19.2557 54.2095 19.4077 54.0504 19.5696C53.8913 19.7315 53.6797 19.8693 53.4155 19.983C53.1513 20.0966 52.8288 20.1534 52.4482 20.1534ZM52.6016 19.25C52.9993 19.25 53.3345 19.1719 53.6072 19.0156C53.8828 18.8594 54.0902 18.6577 54.2294 18.4105C54.3714 18.1634 54.4425 17.9034 54.4425 17.6307V16.7102C54.3999 16.7614 54.3061 16.8082 54.1612 16.8509C54.0192 16.8906 53.8544 16.9261 53.6669 16.9574C53.4822 16.9858 53.3018 17.0114 53.1257 17.0341C52.9524 17.054 52.8118 17.071 52.7038 17.0852C52.4425 17.1193 52.1982 17.1747 51.9709 17.2514C51.7464 17.3253 51.5646 17.4375 51.4254 17.5881C51.2891 17.7358 51.2209 17.9375 51.2209 18.1932C51.2209 18.5426 51.3501 18.8068 51.6087 18.9858C51.87 19.1619 52.201 19.25 52.6016 19.25ZM57.2837 20V13.4545H58.2894V20H57.2837ZM57.7951 12.3636C57.5991 12.3636 57.43 12.2969 57.288 12.1634C57.1488 12.0298 57.0792 11.8693 57.0792 11.6818C57.0792 11.4943 57.1488 11.3338 57.288 11.2003C57.43 11.0668 57.5991 11 57.7951 11C57.9911 11 58.1587 11.0668 58.2979 11.2003C58.44 11.3338 58.511 11.4943 58.511 11.6818C58.511 11.8693 58.44 12.0298 58.2979 12.1634C58.1587 12.2969 57.9911 12.3636 57.7951 12.3636ZM61.1371 11.2727V20H60.1314V11.2727H61.1371Z" fill="white"/>
<path d="M21.293 10C22.187 10 23.047 10.3533 23.6796 10.9873C24.313 11.62 24.667 12.4733 24.667 13.3667V18.6333C24.667 20.4933 23.1536 22 21.293 22H14.707C12.8463 22 11.3336 20.4933 11.3336 18.6333V13.3667C11.3336 11.5067 12.8396 10 14.707 10H21.293ZM22.047 13.4667C21.907 13.4593 21.7736 13.5067 21.673 13.6L18.667 16C18.2803 16.3207 17.7263 16.3207 17.3336 16L14.3336 13.6C14.1263 13.4467 13.8396 13.4667 13.667 13.6467C13.487 13.8267 13.467 14.1133 13.6196 14.3133L13.707 14.4L16.7403 16.7667C17.1136 17.06 17.5663 17.22 18.0403 17.22C18.513 17.22 18.9736 17.06 19.3463 16.7667L22.3536 14.36L22.407 14.3067C22.5663 14.1133 22.5663 13.8333 22.3996 13.64C22.307 13.5407 22.1796 13.48 22.047 13.4667Z" fill="white"/>
</svg>
