<svg width="118" height="32" viewBox="0 0 118 32" fill="none" xmlns="http://www.w3.org/2000/svg">
<path d="M0 16C0 7.16344 7.16344 0 16 0H118V32H16C7.16345 32 0 24.8366 0 16V16Z" fill="#45A4EB"/>
<path d="M32.5795 12.2102V11.2727H39.125V12.2102H36.3807V20H35.3239V12.2102H32.5795ZM41.3526 20L39.3583 13.4545H40.4151L41.8299 18.4659H41.8981L43.2958 13.4545H44.3697L45.7504 18.4489H45.8185L47.2333 13.4545H48.2901L46.2958 20H45.3072L43.8754 14.9716H43.7731L42.3413 20H41.3526ZM49.6197 20V13.4545H50.6254V20H49.6197ZM50.131 12.3636C49.935 12.3636 49.766 12.2969 49.6239 12.1634C49.4847 12.0298 49.4151 11.8693 49.4151 11.6818C49.4151 11.4943 49.4847 11.3338 49.6239 11.2003C49.766 11.0668 49.935 11 50.131 11C50.3271 11 50.4947 11.0668 50.6339 11.2003C50.7759 11.3338 50.8469 11.4943 50.8469 11.6818C50.8469 11.8693 50.7759 12.0298 50.6339 12.1634C50.4947 12.2969 50.3271 12.3636 50.131 12.3636ZM55.3139 13.4545V14.3068H51.9219V13.4545H55.3139ZM52.9105 11.8864H53.9162V18.125C53.9162 18.4091 53.9574 18.6222 54.0398 18.7642C54.125 18.9034 54.233 18.9972 54.3636 19.0455C54.4972 19.0909 54.6378 19.1136 54.7855 19.1136C54.8963 19.1136 54.9872 19.108 55.0582 19.0966C55.1293 19.0824 55.1861 19.071 55.2287 19.0625L55.4332 19.9659C55.3651 19.9915 55.2699 20.017 55.1477 20.0426C55.0256 20.071 54.8707 20.0852 54.6832 20.0852C54.3991 20.0852 54.1207 20.0241 53.848 19.902C53.5781 19.7798 53.3537 19.5938 53.1747 19.3438C52.9986 19.0938 52.9105 18.7784 52.9105 18.3977V11.8864ZM59.6733 13.4545V14.3068H56.2812V13.4545H59.6733ZM57.2699 11.8864H58.2756V18.125C58.2756 18.4091 58.3168 18.6222 58.3991 18.7642C58.4844 18.9034 58.5923 18.9972 58.723 19.0455C58.8565 19.0909 58.9972 19.1136 59.1449 19.1136C59.2557 19.1136 59.3466 19.108 59.4176 19.0966C59.4886 19.0824 59.5455 19.071 59.5881 19.0625L59.7926 19.9659C59.7244 19.9915 59.6293 20.017 59.5071 20.0426C59.3849 20.071 59.2301 20.0852 59.0426 20.0852C58.7585 20.0852 58.4801 20.0241 58.2074 19.902C57.9375 19.7798 57.7131 19.5938 57.5341 19.3438C57.358 19.0938 57.2699 18.7784 57.2699 18.3977V11.8864ZM63.8601 20.1364C63.2294 20.1364 62.6854 19.9972 62.228 19.7188C61.7734 19.4375 61.4226 19.0455 61.1754 18.5426C60.9311 18.0369 60.8089 17.4489 60.8089 16.7784C60.8089 16.108 60.9311 15.517 61.1754 15.0057C61.4226 14.4915 61.7663 14.0909 62.2067 13.804C62.6499 13.5142 63.1669 13.3693 63.7578 13.3693C64.0987 13.3693 64.4354 13.4261 64.7678 13.5398C65.1001 13.6534 65.4027 13.8381 65.6754 14.0938C65.9482 14.3466 66.1655 14.6818 66.3274 15.0994C66.4893 15.517 66.5703 16.0312 66.5703 16.642V17.0682H61.5249V16.1989H65.5476C65.5476 15.8295 65.4737 15.5 65.326 15.2102C65.1811 14.9205 64.9737 14.6918 64.7038 14.5241C64.4368 14.3565 64.1214 14.2727 63.7578 14.2727C63.3572 14.2727 63.0107 14.3722 62.718 14.571C62.4283 14.767 62.2053 15.0227 62.049 15.3381C61.8928 15.6534 61.8146 15.9915 61.8146 16.3523V16.9318C61.8146 17.4261 61.8999 17.8452 62.0703 18.1889C62.2436 18.5298 62.4837 18.7898 62.7905 18.9688C63.0973 19.1449 63.4538 19.233 63.8601 19.233C64.1243 19.233 64.3629 19.196 64.576 19.1222C64.7919 19.0455 64.978 18.9318 65.1342 18.7812C65.2905 18.6278 65.4112 18.4375 65.4964 18.2102L66.468 18.483C66.3658 18.8125 66.1939 19.1023 65.9524 19.3523C65.7109 19.5994 65.4126 19.7926 65.0575 19.9318C64.7024 20.0682 64.3033 20.1364 63.8601 20.1364ZM68.1001 20V13.4545H69.0717V14.4432H69.1399C69.2592 14.1193 69.4751 13.8565 69.7876 13.6548C70.1001 13.4531 70.4524 13.3523 70.8445 13.3523C70.9183 13.3523 71.0107 13.3537 71.1214 13.3565C71.2322 13.3594 71.3161 13.3636 71.3729 13.3693V14.392C71.3388 14.3835 71.2607 14.3707 71.1385 14.3537C71.0192 14.3338 70.8928 14.3239 70.7592 14.3239C70.4411 14.3239 70.157 14.3906 69.907 14.5241C69.6598 14.6548 69.4638 14.8366 69.3189 15.0696C69.1768 15.2997 69.1058 15.5625 69.1058 15.858V20H68.1001Z" fill="white"/>
<path d="M15.8944 22C14.2769 22 12.7691 21.5295 11.5 20.7178C12.5775 20.7875 14.479 20.6206 15.6618 19.4924C13.8825 19.4108 13.0801 18.0461 12.9755 17.463C13.1266 17.5213 13.8477 17.5913 14.2547 17.428C12.2079 16.9148 11.894 15.1187 11.9637 14.5705C12.3475 14.8387 12.9987 14.932 13.2546 14.9087C11.3474 13.5441 12.0335 11.4914 12.3708 11.0482C13.7394 12.9443 15.7906 14.0093 18.3282 14.0685C18.2803 13.8587 18.2551 13.6402 18.2551 13.4158C18.2551 11.8055 19.5567 10.5 21.1623 10.5C22.0013 10.5 22.7572 10.8564 23.2878 11.4264C23.8485 11.2951 24.6922 10.9875 25.1046 10.7216C24.8967 11.4681 24.2495 12.0907 23.858 12.3215C23.8612 12.3294 23.8548 12.3137 23.858 12.3215C24.2019 12.2695 25.1324 12.0907 25.5 11.8413C25.3182 12.2606 24.632 12.9579 24.0689 13.3482C24.1736 17.969 20.6382 22 15.8944 22Z" fill="white"/>
</svg>
