<svg width="118" height="32" viewBox="0 0 118 32" fill="none" xmlns="http://www.w3.org/2000/svg">
<path d="M0 16C0 7.16344 7.16344 0 16 0H118V32H16C7.16345 32 0 24.8366 0 16V16Z" fill="#0879E9"/>
<path d="M33.0568 20V11.2727H38.2898V12.2102H34.1136V15.1591H37.8977V16.0966H34.1136V20H33.0568ZM41.8896 20.1534C41.4748 20.1534 41.0984 20.0753 40.7603 19.919C40.4222 19.7599 40.1538 19.5312 39.9549 19.233C39.756 18.9318 39.6566 18.5682 39.6566 18.142C39.6566 17.767 39.7305 17.4631 39.8782 17.2301C40.0259 16.9943 40.2234 16.8097 40.4705 16.6761C40.7177 16.5426 40.9904 16.4432 41.2887 16.3778C41.5898 16.3097 41.8924 16.2557 42.1964 16.2159C42.5941 16.1648 42.9165 16.1264 43.1637 16.1009C43.4137 16.0724 43.5955 16.0256 43.7092 15.9602C43.8256 15.8949 43.8839 15.7812 43.8839 15.6193V15.5852C43.8839 15.1648 43.7688 14.8381 43.5387 14.6051C43.3114 14.3722 42.9663 14.2557 42.5032 14.2557C42.0231 14.2557 41.6467 14.3608 41.3739 14.571C41.1012 14.7812 40.9094 15.0057 40.7987 15.2443L39.8441 14.9034C40.0146 14.5057 40.2418 14.196 40.5259 13.9744C40.8129 13.75 41.1254 13.5937 41.4634 13.5057C41.8043 13.4148 42.1396 13.3693 42.4691 13.3693C42.6793 13.3693 42.9208 13.3949 43.1935 13.446C43.4691 13.4943 43.7347 13.5952 43.9904 13.7486C44.2489 13.902 44.4634 14.1335 44.6339 14.4432C44.8043 14.7528 44.8896 15.1676 44.8896 15.6875V20H43.8839V19.1136H43.8327C43.7646 19.2557 43.6509 19.4077 43.4918 19.5696C43.3327 19.7315 43.1211 19.8693 42.8569 19.983C42.5927 20.0966 42.2702 20.1534 41.8896 20.1534ZM42.043 19.25C42.4407 19.25 42.7759 19.1719 43.0487 19.0156C43.3242 18.8594 43.5316 18.6577 43.6708 18.4105C43.8129 18.1634 43.8839 17.9034 43.8839 17.6307V16.7102C43.8413 16.7614 43.7475 16.8082 43.6026 16.8509C43.4606 16.8906 43.2958 16.9261 43.1083 16.9574C42.9237 16.9858 42.7433 17.0114 42.5671 17.0341C42.3938 17.054 42.2532 17.071 42.1452 17.0852C41.8839 17.1193 41.6396 17.1747 41.4123 17.2514C41.1879 17.3253 41.006 17.4375 40.8668 17.5881C40.7305 17.7358 40.6623 17.9375 40.6623 18.1932C40.6623 18.5426 40.7915 18.8068 41.0501 18.9858C41.3114 19.1619 41.6424 19.25 42.043 19.25ZM49.3842 20.1364C48.7706 20.1364 48.2422 19.9915 47.799 19.7017C47.3558 19.4119 47.0149 19.0128 46.7763 18.5043C46.5376 17.9957 46.4183 17.4148 46.4183 16.7614C46.4183 16.0966 46.5405 15.5099 46.7848 15.0014C47.032 14.4901 47.3757 14.0909 47.8161 13.804C48.2592 13.5142 48.7763 13.3693 49.3672 13.3693C49.8274 13.3693 50.2422 13.4545 50.6115 13.625C50.9808 13.7955 51.2834 14.0341 51.5192 14.3409C51.755 14.6477 51.9013 15.0057 51.9581 15.4148H50.9524C50.8757 15.1165 50.7053 14.8523 50.4411 14.6222C50.1797 14.3892 49.8274 14.2727 49.3842 14.2727C48.9922 14.2727 48.6484 14.375 48.353 14.5795C48.0604 14.7812 47.8317 15.0668 47.6669 15.4361C47.505 15.8026 47.424 16.233 47.424 16.7273C47.424 17.233 47.5036 17.6733 47.6626 18.0483C47.8246 18.4233 48.0518 18.7145 48.3445 18.9219C48.6399 19.1293 48.9865 19.233 49.3842 19.233C49.6456 19.233 49.8828 19.1875 50.0959 19.0966C50.3089 19.0057 50.4893 18.875 50.6371 18.7045C50.7848 18.5341 50.8899 18.3295 50.9524 18.0909H51.9581C51.9013 18.4773 51.7607 18.8253 51.5362 19.1349C51.3146 19.4418 51.0206 19.6861 50.6541 19.8679C50.2905 20.0469 49.8672 20.1364 49.3842 20.1364ZM56.1726 20.1364C55.5419 20.1364 54.9979 19.9972 54.5405 19.7188C54.0859 19.4375 53.7351 19.0455 53.4879 18.5426C53.2436 18.0369 53.1214 17.4489 53.1214 16.7784C53.1214 16.108 53.2436 15.517 53.4879 15.0057C53.7351 14.4915 54.0788 14.0909 54.5192 13.804C54.9624 13.5142 55.4794 13.3693 56.0703 13.3693C56.4112 13.3693 56.7479 13.4261 57.0803 13.5398C57.4126 13.6534 57.7152 13.8381 57.9879 14.0938C58.2607 14.3466 58.478 14.6818 58.6399 15.0994C58.8018 15.517 58.8828 16.0312 58.8828 16.642V17.0682H53.8374V16.1989H57.8601C57.8601 15.8295 57.7862 15.5 57.6385 15.2102C57.4936 14.9205 57.2862 14.6918 57.0163 14.5241C56.7493 14.3565 56.4339 14.2727 56.0703 14.2727C55.6697 14.2727 55.3232 14.3722 55.0305 14.571C54.7408 14.767 54.5178 15.0227 54.3615 15.3381C54.2053 15.6534 54.1271 15.9915 54.1271 16.3523V16.9318C54.1271 17.4261 54.2124 17.8452 54.3828 18.1889C54.5561 18.5298 54.7962 18.7898 55.103 18.9688C55.4098 19.1449 55.7663 19.233 56.1726 19.233C56.4368 19.233 56.6754 19.196 56.8885 19.1222C57.1044 19.0455 57.2905 18.9318 57.4467 18.7812C57.603 18.6278 57.7237 18.4375 57.8089 18.2102L58.7805 18.483C58.6783 18.8125 58.5064 19.1023 58.2649 19.3523C58.0234 19.5994 57.7251 19.7926 57.37 19.9318C57.0149 20.0682 56.6158 20.1364 56.1726 20.1364ZM60.549 20V11.2727H61.5547V14.4943H61.6399C61.7138 14.3807 61.8161 14.2358 61.9467 14.0597C62.0803 13.8807 62.2706 13.7216 62.5178 13.5824C62.7678 13.4403 63.1058 13.3693 63.532 13.3693C64.0831 13.3693 64.5689 13.5071 64.9893 13.7827C65.4098 14.0582 65.7379 14.4489 65.9737 14.9545C66.2095 15.4602 66.3274 16.0568 66.3274 16.7443C66.3274 17.4375 66.2095 18.0384 65.9737 18.5469C65.7379 19.0526 65.4112 19.4446 64.9936 19.723C64.576 19.9986 64.0945 20.1364 63.549 20.1364C63.1286 20.1364 62.7919 20.0668 62.5391 19.9276C62.2862 19.7855 62.0916 19.625 61.9553 19.446C61.8189 19.2642 61.7138 19.1136 61.6399 18.9943H61.5206V20H60.549ZM61.5376 16.7273C61.5376 17.2216 61.6101 17.6577 61.755 18.0355C61.8999 18.4105 62.1115 18.7045 62.3899 18.9176C62.6683 19.1278 63.0092 19.233 63.4126 19.233C63.8331 19.233 64.1839 19.1222 64.4652 18.9006C64.7493 18.6761 64.9624 18.375 65.1044 17.9972C65.2493 17.6165 65.3217 17.1932 65.3217 16.7273C65.3217 16.267 65.2507 15.8523 65.1087 15.483C64.9695 15.1108 64.7578 14.8168 64.4737 14.6009C64.1925 14.3821 63.8388 14.2727 63.4126 14.2727C63.0036 14.2727 62.6598 14.3764 62.3814 14.5838C62.103 14.7884 61.8928 15.0753 61.7507 15.4446C61.6087 15.8111 61.5376 16.2386 61.5376 16.7273ZM70.5249 20.1364C69.9339 20.1364 69.4155 19.9957 68.9695 19.7145C68.5263 19.4332 68.1797 19.0398 67.9297 18.5341C67.6825 18.0284 67.5589 17.4375 67.5589 16.7614C67.5589 16.0795 67.6825 15.4844 67.9297 14.9759C68.1797 14.4673 68.5263 14.0724 68.9695 13.7912C69.4155 13.5099 69.9339 13.3693 70.5249 13.3693C71.1158 13.3693 71.6328 13.5099 72.076 13.7912C72.522 14.0724 72.8686 14.4673 73.1158 14.9759C73.3658 15.4844 73.4908 16.0795 73.4908 16.7614C73.4908 17.4375 73.3658 18.0284 73.1158 18.5341C72.8686 19.0398 72.522 19.4332 72.076 19.7145C71.6328 19.9957 71.1158 20.1364 70.5249 20.1364ZM70.5249 19.233C70.9737 19.233 71.343 19.1179 71.6328 18.8878C71.9226 18.6577 72.1371 18.3551 72.2763 17.9801C72.4155 17.6051 72.4851 17.1989 72.4851 16.7614C72.4851 16.3239 72.4155 15.9162 72.2763 15.5384C72.1371 15.1605 71.9226 14.8551 71.6328 14.6222C71.343 14.3892 70.9737 14.2727 70.5249 14.2727C70.076 14.2727 69.7067 14.3892 69.4169 14.6222C69.1271 14.8551 68.9126 15.1605 68.7734 15.5384C68.6342 15.9162 68.5646 16.3239 68.5646 16.7614C68.5646 17.1989 68.6342 17.6051 68.7734 17.9801C68.9126 18.3551 69.1271 18.6577 69.4169 18.8878C69.7067 19.1179 70.076 19.233 70.5249 19.233ZM77.685 20.1364C77.0941 20.1364 76.5756 19.9957 76.1296 19.7145C75.6864 19.4332 75.3398 19.0398 75.0898 18.5341C74.8427 18.0284 74.7191 17.4375 74.7191 16.7614C74.7191 16.0795 74.8427 15.4844 75.0898 14.9759C75.3398 14.4673 75.6864 14.0724 76.1296 13.7912C76.5756 13.5099 77.0941 13.3693 77.685 13.3693C78.2759 13.3693 78.793 13.5099 79.2362 13.7912C79.6822 14.0724 80.0288 14.4673 80.2759 14.9759C80.5259 15.4844 80.6509 16.0795 80.6509 16.7614C80.6509 17.4375 80.5259 18.0284 80.2759 18.5341C80.0288 19.0398 79.6822 19.4332 79.2362 19.7145C78.793 19.9957 78.2759 20.1364 77.685 20.1364ZM77.685 19.233C78.1339 19.233 78.5032 19.1179 78.793 18.8878C79.0827 18.6577 79.2972 18.3551 79.4364 17.9801C79.5756 17.6051 79.6452 17.1989 79.6452 16.7614C79.6452 16.3239 79.5756 15.9162 79.4364 15.5384C79.2972 15.1605 79.0827 14.8551 78.793 14.6222C78.5032 14.3892 78.1339 14.2727 77.685 14.2727C77.2362 14.2727 76.8668 14.3892 76.5771 14.6222C76.2873 14.8551 76.0728 15.1605 75.9336 15.5384C75.7944 15.9162 75.7248 16.3239 75.7248 16.7614C75.7248 17.1989 75.7944 17.6051 75.9336 17.9801C76.0728 18.3551 76.2873 18.6577 76.5771 18.8878C76.8668 19.1179 77.2362 19.233 77.685 19.233ZM83.1236 17.6136L83.1065 16.3693H83.3111L86.1747 13.4545H87.419L84.3679 16.5398H84.2827L83.1236 17.6136ZM82.1861 20V11.2727H83.1918V20H82.1861ZM86.3452 20L83.7884 16.7614L84.5043 16.0625L87.6236 20H86.3452Z" fill="white"/>
<circle cx="18" cy="16" r="7" fill="white"/>
<path d="M20.6069 18.1408L20.9178 16.165H18.9726V14.8835C18.9726 14.3429 19.2438 13.8155 20.1151 13.8155H21V12.1335C21 12.1335 20.1973 12 19.4301 12C17.8274 12 16.7808 12.9465 16.7808 14.6592V16.165H15V18.1408H16.7808V22.9172C17.1384 22.972 17.5041 23 17.8767 23C18.2493 23 18.6151 22.972 18.9726 22.9172V18.1408H20.6069Z" fill="#0879E9"/>
</svg>
