<svg width="20" height="20" viewBox="0 0 20 20" fill="none" xmlns="http://www.w3.org/2000/svg">
<path d="M17.3117 15C17.9361 15 18.4327 14.6071 18.8787 14.0576C19.7916 12.9328 18.2927 12.034 17.7211 11.5938C17.14 11.1463 16.4912 10.8928 15.8333 10.8333M15 9.16667C16.1506 9.16667 17.0833 8.23392 17.0833 7.08333C17.0833 5.93274 16.1506 5 15 5" stroke="white" stroke-width="1.25" stroke-linecap="round"/>
<path d="M2.68895 15C2.06453 15 1.56788 14.6071 1.12194 14.0576C0.20906 12.9328 1.70788 12.034 2.27952 11.5938C2.86063 11.1463 3.50947 10.8928 4.16732 10.8333M4.58399 9.16667C3.4334 9.16667 2.50065 8.23392 2.50065 7.08333C2.50065 5.93274 3.4334 5 4.58399 5" stroke="white" stroke-width="1.25" stroke-linecap="round"/>
<path d="M6.73715 12.593C5.88567 13.1195 3.65314 14.1946 5.0129 15.5398C5.67714 16.197 6.41692 16.667 7.347 16.667H12.6543C13.5844 16.667 14.3242 16.197 14.9884 15.5398C16.3482 14.1946 14.1157 13.1195 13.2642 12.593C11.2674 11.3583 8.73384 11.3583 6.73715 12.593Z" stroke="white" stroke-width="1.25" stroke-linecap="round" stroke-linejoin="round"/>
<path d="M12.9173 6.24967C12.9173 7.86051 11.6115 9.16634 10.0007 9.16634C8.38983 9.16634 7.08398 7.86051 7.08398 6.24967C7.08398 4.63884 8.38983 3.33301 10.0007 3.33301C11.6115 3.33301 12.9173 4.63884 12.9173 6.24967Z" stroke="white" stroke-width="1.25"/>
</svg>
