<svg width="20" height="20" viewBox="0 0 20 20" fill="none" xmlns="http://www.w3.org/2000/svg">
<path d="M2.63606 9.45776L3.33268 9.63192L3.7134 13.4168C3.92852 15.5553 4.03607 16.6246 4.75018 17.2704C5.46429 17.9163 6.53896 17.9163 8.68827 17.9163H11.3104C13.4598 17.9163 14.5344 17.9163 15.2485 17.2704C15.9626 16.6246 16.0702 15.5553 16.2853 13.4168L16.666 9.63192L17.3627 9.45776C17.9328 9.31526 18.3327 8.80301 18.3327 8.21536C18.3327 7.79746 18.1288 7.40586 17.7864 7.16621L10.9551 2.38429C10.3813 1.98258 9.61743 1.98258 9.0436 2.38429L2.21226 7.16621C1.86991 7.40586 1.66602 7.79746 1.66602 8.21536C1.66602 8.80301 2.06596 9.31526 2.63606 9.45776Z" stroke="white" stroke-width="1.25" stroke-linecap="round" stroke-linejoin="round"/>
<path d="M9.99935 14.1667C11.1499 14.1667 12.0827 13.2339 12.0827 12.0833C12.0827 10.9327 11.1499 10 9.99935 10C8.84876 10 7.91602 10.9327 7.91602 12.0833C7.91602 13.2339 8.84876 14.1667 9.99935 14.1667Z" stroke="white" stroke-width="1.25" stroke-linecap="round" stroke-linejoin="round"/>
</svg>
