<svg width="20" height="20" viewBox="0 0 20 20" fill="none" xmlns="http://www.w3.org/2000/svg">
<path d="M4.23326 12.7463C3.21802 13.3606 0.556162 14.6148 2.17742 16.1843C2.96938 16.951 3.85144 17.4993 4.96039 17.4993H11.2883C12.3973 17.4993 13.2793 16.951 14.0713 16.1843C15.6925 14.6148 13.0307 13.3606 12.0154 12.7463C9.63477 11.3059 6.61395 11.3059 4.23326 12.7463Z" stroke="white" stroke-width="1.25" stroke-linecap="round" stroke-linejoin="round"/>
<path d="M11.2507 5.83333C11.2507 7.67428 9.75823 9.16667 7.91732 9.16667C6.07637 9.16667 4.58398 7.67428 4.58398 5.83333C4.58398 3.99238 6.07637 2.5 7.91732 2.5C9.75823 2.5 11.2507 3.99238 11.2507 5.83333Z" stroke="white" stroke-width="1.25"/>
<path d="M14.166 4.16602H18.3327" stroke="white" stroke-width="1.25" stroke-linecap="round" stroke-linejoin="round"/>
<path d="M14.166 6.66602H18.3327" stroke="white" stroke-width="1.25" stroke-linecap="round" stroke-linejoin="round"/>
<path d="M16.666 9.16602H18.3327" stroke="white" stroke-width="1.25" stroke-linecap="round" stroke-linejoin="round"/>
</svg>
