<svg width="20" height="20" viewBox="0 0 20 20" fill="none" xmlns="http://www.w3.org/2000/svg">
<path d="M16.68 1.66699C15.7522 1.66699 15 3.90557 15 6.66699H16.68C17.4897 6.66699 17.8945 6.66699 18.1451 6.38745C18.3957 6.1079 18.3521 5.73977 18.2648 5.0035C18.0345 3.05985 17.4119 1.66699 16.68 1.66699Z" stroke="white" stroke-width="1.25"/>
<path d="M14.9993 6.71123V15.5375C14.9993 16.7973 14.9993 17.4271 14.6143 17.675C13.9853 18.0803 13.0128 17.2305 12.5236 16.9221C12.1194 16.6672 11.9174 16.5398 11.6931 16.5324C11.4508 16.5244 11.2451 16.6467 10.8084 16.9221L9.21602 17.9263C8.78643 18.1972 8.57168 18.3327 8.33268 18.3327C8.09369 18.3327 7.8789 18.1972 7.44935 17.9263L5.85696 16.9221C5.45281 16.6672 5.25073 16.5398 5.02646 16.5324C4.78412 16.5244 4.57846 16.6467 4.14174 16.9221C3.65264 17.2305 2.68007 18.0803 2.05097 17.675C1.66602 17.4271 1.66602 16.7973 1.66602 15.5375V6.71123C1.66602 4.33289 1.66602 3.14372 2.39825 2.40487C3.13048 1.66602 4.30899 1.66602 6.66602 1.66602H16.666" stroke="white" stroke-width="1.25" stroke-linecap="round" stroke-linejoin="round"/>
<path d="M5 5H11.6667" stroke="white" stroke-width="1.25" stroke-linecap="round" stroke-linejoin="round"/>
<path d="M6.66667 8.33301H5" stroke="white" stroke-width="1.25" stroke-linecap="round" stroke-linejoin="round"/>
<path d="M10.416 9.06315C9.72568 9.06315 9.16602 9.55282 9.16602 10.1569C9.16602 10.761 9.72568 11.2507 10.416 11.2507C11.1063 11.2507 11.666 11.7403 11.666 12.3444C11.666 12.9485 11.1063 13.4382 10.416 13.4382M10.416 9.06315C10.9603 9.06315 11.4233 9.36748 11.5948 9.79232M10.416 9.06315V8.33398M10.416 13.4382C9.87177 13.4382 9.40877 13.1338 9.23718 12.709M10.416 13.4382V14.1673" stroke="white" stroke-width="1.25" stroke-linecap="round"/>
</svg>
