<svg width="20" height="20" viewBox="0 0 20 20" fill="none" xmlns="http://www.w3.org/2000/svg">
<path d="M17.4522 14.0292C16.9053 10.7385 15.2027 8.28812 13.7225 6.84884C13.2917 6.43002 13.0764 6.22062 12.6007 6.02682C12.1249 5.83301 11.716 5.83301 10.8982 5.83301H9.10183C8.28401 5.83301 7.87508 5.83301 7.39935 6.02682C6.92361 6.22062 6.70826 6.43002 6.27753 6.84884C4.79735 8.28812 3.09467 10.7385 2.54772 14.0292C2.14077 16.4775 4.39939 18.333 6.9236 18.333H13.0764C15.6006 18.333 17.8592 16.4775 17.4522 14.0292Z" stroke="white" stroke-width="1.25" stroke-linecap="round" stroke-linejoin="round"/>
<path d="M6.04783 3.70174C5.87591 3.4515 5.62672 3.11184 6.14148 3.03439C6.67058 2.95477 7.21999 3.31697 7.75778 3.30952C8.24429 3.30279 8.49215 3.08701 8.75807 2.77892C9.03807 2.45449 9.47165 1.66602 10.0007 1.66602C10.5297 1.66602 10.9632 2.45449 11.2432 2.77892C11.5092 3.08701 11.757 3.30279 12.2435 3.30952C12.7813 3.31697 13.3307 2.95477 13.8598 3.03439C14.3746 3.11184 14.1254 3.4515 13.9535 3.70174L13.1761 4.83322C12.8436 5.31723 12.6773 5.55924 12.3293 5.69597C11.9814 5.83268 11.5317 5.83268 10.6325 5.83268H9.36882C8.46957 5.83268 8.0199 5.83268 7.67195 5.69597C7.324 5.55924 7.15773 5.31723 6.82519 4.83322L6.04783 3.70174Z" stroke="white" stroke-width="1.25" stroke-linejoin="round"/>
<path d="M11.3559 10.7651C11.1757 10.1 10.2587 9.49982 9.15799 9.94882C8.05724 10.3977 7.88239 11.8423 9.54741 11.9958C10.2999 12.0652 10.7906 11.9153 11.2397 12.3392C11.689 12.7631 11.7724 13.9419 10.6241 14.2596C9.47574 14.5772 8.33866 14.0809 8.21484 13.376M9.86841 9.16016V9.79382M9.86841 14.3573V14.9935" stroke="white" stroke-width="1.25" stroke-linecap="round" stroke-linejoin="round"/>
</svg>
