<svg width="20" height="20" viewBox="0 0 20 20" fill="none" xmlns="http://www.w3.org/2000/svg">
<path d="M17.084 8.75V16.25C17.084 16.6382 17.084 16.8324 17.0206 16.9856C16.936 17.1897 16.7737 17.352 16.5696 17.4366C16.4164 17.5 16.2222 17.5 15.834 17.5C15.4457 17.5 15.2516 17.5 15.0984 17.4366C14.8942 17.352 14.732 17.1897 14.6474 16.9856C14.584 16.8324 14.584 16.6382 14.584 16.25V8.75C14.584 8.36175 14.584 8.16758 14.6474 8.01443C14.732 7.81024 14.8942 7.64801 15.0984 7.56343C15.2516 7.5 15.4457 7.5 15.834 7.5C16.2222 7.5 16.4164 7.5 16.5696 7.56343C16.7737 7.64801 16.936 7.81024 17.0206 8.01443C17.084 8.16758 17.084 8.36175 17.084 8.75Z" stroke="white" stroke-width="1.25" stroke-linejoin="round"/>
<path d="M13.75 2.5H16.25V5" stroke="white" stroke-width="1.25" stroke-linecap="round" stroke-linejoin="round"/>
<path d="M15.8333 2.91699C15.8333 2.91699 12.5 7.08366 3.75 10.0003" stroke="white" stroke-width="1.25" stroke-linecap="round" stroke-linejoin="round"/>
<path d="M11.25 11.667V16.2503C11.25 16.6386 11.25 16.8327 11.1866 16.9859C11.102 17.1901 10.9397 17.3523 10.7356 17.4369C10.5824 17.5003 10.3882 17.5003 10 17.5003C9.61175 17.5003 9.41758 17.5003 9.26442 17.4369C9.06025 17.3523 8.898 17.1901 8.81342 16.9859C8.75 16.8327 8.75 16.6386 8.75 16.2503V11.667C8.75 11.2787 8.75 11.0846 8.81342 10.9314C8.898 10.7272 9.06025 10.565 9.26442 10.4804C9.41758 10.417 9.61175 10.417 10 10.417C10.3882 10.417 10.5824 10.417 10.7356 10.4804C10.9397 10.565 11.102 10.7272 11.1866 10.9314C11.25 11.0846 11.25 11.2787 11.25 11.667Z" stroke="white" stroke-width="1.25" stroke-linejoin="round"/>
<path d="M5.41602 13.75V16.25C5.41602 16.6382 5.41602 16.8324 5.35258 16.9856C5.26801 17.1897 5.10577 17.352 4.90158 17.4366C4.74844 17.5 4.5543 17.5 4.16602 17.5C3.77773 17.5 3.58359 17.5 3.43045 17.4366C3.22626 17.352 3.06402 17.1897 2.97945 16.9856C2.91602 16.8324 2.91602 16.6382 2.91602 16.25V13.75C2.91602 13.3617 2.91602 13.1676 2.97945 13.0144C3.06402 12.8103 3.22626 12.648 3.43045 12.5634C3.58359 12.5 3.77773 12.5 4.16602 12.5C4.5543 12.5 4.74844 12.5 4.90158 12.5634C5.10577 12.648 5.26801 12.8103 5.35258 13.0144C5.41602 13.1676 5.41602 13.3617 5.41602 13.75Z" stroke="white" stroke-width="1.25" stroke-linejoin="round"/>
</svg>
