<svg width="24" height="24" viewBox="0 0 24 24" fill="none" xmlns="http://www.w3.org/2000/svg">
<path d="M22.9469 10.1823L20.8756 19.3351C20.8345 19.5266 20.7279 19.6977 20.5742 19.8192C20.4205 19.9406 20.2293 20.0046 20.0335 20.0003H3.90051C3.7047 20.0046 3.5135 19.9406 3.35981 19.8192C3.20612 19.6977 3.09957 19.5266 3.05849 19.3351L1.05449 10.1823C1.02077 10.0277 1.03131 9.86666 1.08493 9.71773C1.13855 9.5688 1.23305 9.438 1.35762 9.34033C1.48252 9.24231 1.6326 9.1816 1.79052 9.16522C1.94844 9.14883 2.10778 9.17742 2.25015 9.24771L7.16753 11.6306L11.2429 4.42295C11.3163 4.29337 11.4228 4.18558 11.5515 4.11059C11.6802 4.0356 11.8265 3.99609 11.9754 3.99609C12.1244 3.99609 12.2707 4.0356 12.3994 4.11059C12.5281 4.18558 12.6346 4.29337 12.708 4.42295L16.7834 11.639L21.7344 9.23929C21.8778 9.16328 22.0401 9.13032 22.2018 9.14439C22.3635 9.15846 22.5176 9.21896 22.6457 9.31859C22.7738 9.41823 22.8704 9.55276 22.9238 9.706C22.9773 9.85924 22.9853 10.0247 22.9469 10.1823Z" fill="white"/>
</svg>
