<svg width="20" height="20" viewBox="0 0 20 20" fill="none" xmlns="http://www.w3.org/2000/svg">
<path d="M10.8327 18.3327C10.1508 18.3327 9.49952 18.0483 8.19677 17.4797C6.67629 16.816 5.5123 16.3079 4.70475 15.8327H1.66602M10.8327 18.3327C11.5145 18.3327 12.1658 18.0483 13.4686 17.4797C16.7113 16.0643 18.3327 15.3565 18.3327 14.166V5.41602M10.8327 18.3327V9.16602M3.33268 5.41602V7.91602" stroke="white" stroke-width="1.25" stroke-linecap="round" stroke-linejoin="round"/>
<path d="M7.77225 8.0755L5.33792 6.89756C4.00196 6.2511 3.33398 5.92787 3.33398 5.41602C3.33398 4.90416 4.00196 4.58093 5.33792 3.93447L7.77225 2.75653C9.27465 2.02952 10.0259 1.66602 10.834 1.66602C11.6421 1.66602 12.3933 2.02952 13.8957 2.75653L16.3301 3.93447C17.666 4.58093 18.334 4.90416 18.334 5.41602C18.334 5.92787 17.666 6.2511 16.3301 6.89756L13.8957 8.0755C12.3933 8.80252 11.6421 9.16602 10.834 9.16602C10.0259 9.16602 9.27465 8.80252 7.77225 8.0755Z" stroke="white" stroke-width="1.25" stroke-linecap="round" stroke-linejoin="round"/>
<path d="M15.1145 3.3457L6.55664 7.48672" stroke="white" stroke-width="1.25" stroke-linecap="round" stroke-linejoin="round"/>
<path d="M1.66602 10.834H4.16602" stroke="white" stroke-width="1.25" stroke-linecap="round" stroke-linejoin="round"/>
<path d="M1.66602 13.334H4.16602" stroke="white" stroke-width="1.25" stroke-linecap="round" stroke-linejoin="round"/>
</svg>
