<svg width="20" height="20" viewBox="0 0 20 20" fill="none" xmlns="http://www.w3.org/2000/svg">
<path d="M3.33398 15.5385V6.71221C3.33398 4.33387 3.33398 3.1447 4.06622 2.40585C4.79845 1.66699 5.97696 1.66699 8.33398 1.66699H11.6673C14.0243 1.66699 15.2028 1.66699 15.9351 2.40585C16.6673 3.1447 16.6673 4.33387 16.6673 6.71221V15.5385C16.6673 16.7982 16.6673 17.4281 16.2823 17.676C15.6532 18.0812 14.6807 17.2315 14.1916 16.9231C13.7874 16.6682 13.5854 16.5407 13.3611 16.5334C13.1187 16.5254 12.9131 16.6477 12.4764 16.9231L10.884 17.9273C10.4544 18.1982 10.2397 18.3337 10.0007 18.3337C9.76165 18.3337 9.5469 18.1982 9.11732 17.9273L7.52493 16.9231C7.12078 16.6682 6.9187 16.5407 6.69443 16.5334C6.45208 16.5254 6.24643 16.6477 5.80971 16.9231C5.32061 17.2315 4.34804 18.0812 3.71894 17.676C3.33398 17.4281 3.33398 16.7982 3.33398 15.5385Z" stroke="white" stroke-width="1.25" stroke-linecap="round" stroke-linejoin="round"/>
<path d="M13.3327 5H6.66602" stroke="white" stroke-width="1.25" stroke-linecap="round" stroke-linejoin="round"/>
<path d="M8.33268 8.33398H6.66602" stroke="white" stroke-width="1.25" stroke-linecap="round" stroke-linejoin="round"/>
<path d="M12.084 8.22917C11.3937 8.22917 10.834 8.71883 10.834 9.32292C10.834 9.927 11.3937 10.4167 12.084 10.4167C12.7743 10.4167 13.334 10.9063 13.334 11.5104C13.334 12.1145 12.7743 12.6042 12.084 12.6042M12.084 8.22917C12.6282 8.22917 13.0912 8.5335 13.2628 8.95833M12.084 8.22917V7.5M12.084 12.6042C11.5397 12.6042 11.0767 12.2998 10.9052 11.875M12.084 12.6042V13.3333" stroke="white" stroke-width="1.25" stroke-linecap="round"/>
</svg>
