<svg width="20" height="20" viewBox="0 0 20 20" fill="none" xmlns="http://www.w3.org/2000/svg">
<path d="M6.66602 13.3327H9.99931M6.66602 9.16602H13.3326" stroke="white" stroke-width="1.25" stroke-linecap="round"/>
<path d="M6.25065 2.91602C4.95415 2.95491 4.18116 3.09922 3.6463 3.63457C2.91406 4.36749 2.91406 5.5471 2.91406 7.90632V13.328C2.91406 15.6873 2.91406 16.8668 3.6463 17.5998C4.37853 18.3327 5.55705 18.3327 7.91406 18.3327H12.0807C14.4377 18.3327 15.6162 18.3327 16.3485 17.5998C17.0807 16.8668 17.0807 15.6873 17.0807 13.328V7.90632C17.0807 5.5471 17.0807 4.36749 16.3485 3.63458C15.8137 3.09922 15.0407 2.95491 13.7442 2.91602" stroke="white" stroke-width="1.25"/>
<path d="M6.24609 3.12435C6.24609 2.31893 6.89902 1.66602 7.70443 1.66602H12.2878C13.0932 1.66602 13.7461 2.31893 13.7461 3.12435C13.7461 3.92977 13.0932 4.58268 12.2878 4.58268H7.70443C6.89902 4.58268 6.24609 3.92977 6.24609 3.12435Z" stroke="white" stroke-width="1.25" stroke-linejoin="round"/>
</svg>
