<svg width="20" height="20" viewBox="0 0 20 20" fill="none" xmlns="http://www.w3.org/2000/svg">
<path d="M12.5159 7.86104L12.9558 8.74825C13.0158 8.87175 13.1758 8.99017 13.3108 9.01284L14.1082 9.14642C14.6181 9.23217 14.7381 9.60517 14.3706 9.97309L13.7507 10.5982C13.6457 10.704 13.5882 10.9082 13.6207 11.0543L13.7982 11.8281C13.9382 12.4406 13.6157 12.6775 13.0783 12.3574L12.3309 11.9113C12.1959 11.8307 11.9735 11.8307 11.836 11.9113L11.0886 12.3574C10.5536 12.6775 10.2286 12.4381 10.3686 11.8281L10.5461 11.0543C10.5786 10.9082 10.5211 10.704 10.4161 10.5982L9.79622 9.97309C9.43122 9.60517 9.54872 9.23217 10.0586 9.14642L10.8561 9.01284C10.9886 8.99017 11.1486 8.87175 11.2086 8.74825L11.6485 7.86104C11.8885 7.37965 12.2784 7.37965 12.5159 7.86104Z" stroke="white" stroke-width="1.25" stroke-linecap="round" stroke-linejoin="round"/>
<path d="M6.66602 14.166V17.0827" stroke="white" stroke-width="1.25" stroke-linecap="round" stroke-linejoin="round"/>
<path d="M6.66602 2.91602V5.83268" stroke="white" stroke-width="1.25" stroke-linecap="round" stroke-linejoin="round"/>
<path d="M18.3343 7.39847C18.2785 6.11341 18.1223 5.27683 17.6845 4.61505C17.4327 4.23432 17.12 3.90317 16.7603 3.63658C15.7882 2.91602 14.4168 2.91602 11.6741 2.91602H8.3285C5.58577 2.91602 4.21441 2.91602 3.24231 3.63658C2.88266 3.90317 2.56985 4.23432 2.31801 4.61505C1.88034 5.27676 1.72409 6.11322 1.66831 7.39804C1.65877 7.61775 1.84802 7.78581 2.05538 7.78581C3.2102 7.78581 4.14636 8.77685 4.14636 9.99935C4.14636 11.2218 3.2102 12.2128 2.05538 12.2128C1.84802 12.2128 1.65877 12.3809 1.66831 12.6007C1.72409 13.8855 1.88034 14.7219 2.31801 15.3837C2.56985 15.7643 2.88266 16.0955 3.24231 16.3621C4.21441 17.0827 5.58577 17.0827 8.32851 17.0827H11.6741C14.4168 17.0827 15.7882 17.0827 16.7603 16.3621C17.12 16.0955 17.4327 15.7643 17.6845 15.3837C18.1223 14.7218 18.2785 13.8853 18.3343 12.6003V7.39847Z" stroke="white" stroke-width="1.25" stroke-linejoin="round"/>
</svg>
