<svg width="20" height="20" viewBox="0 0 20 20" fill="none" xmlns="http://www.w3.org/2000/svg">
<path d="M9.99935 18.334L8.33268 13.334H1.66602L3.33268 18.334H9.99935ZM9.99935 18.334H13.3327" stroke="white" stroke-width="1.25" stroke-linecap="round" stroke-linejoin="round"/>
<path d="M10.0007 10.834V10.4173C10.0007 8.84598 10.0007 8.06029 9.51248 7.57214C9.02432 7.08398 8.23867 7.08398 6.66732 7.08398C5.09597 7.08398 4.31029 7.08398 3.82214 7.57214C3.33398 8.06029 3.33398 8.84598 3.33398 10.4173V10.834" stroke="white" stroke-width="1.25" stroke-linecap="round" stroke-linejoin="round"/>
<path d="M15.8333 10.8337C15.8333 11.7542 15.0872 12.5003 14.1667 12.5003C13.2462 12.5003 12.5 11.7542 12.5 10.8337C12.5 9.91316 13.2462 9.16699 14.1667 9.16699C15.0872 9.16699 15.8333 9.91316 15.8333 10.8337Z" stroke="white" stroke-width="1.25"/>
<path d="M8.33333 3.33366C8.33333 4.25413 7.58714 5.00033 6.66667 5.00033C5.74619 5.00033 5 4.25413 5 3.33366C5 2.41318 5.74619 1.66699 6.66667 1.66699C7.58714 1.66699 8.33333 2.41318 8.33333 3.33366Z" stroke="white" stroke-width="1.25"/>
<path d="M11.666 14.584H16.666C17.5865 14.584 18.3327 15.3302 18.3327 16.2507V16.6673C18.3327 17.5878 17.5865 18.334 16.666 18.334H15.8327" stroke="white" stroke-width="1.25" stroke-linecap="round"/>
</svg>
