<svg width="22" height="17" viewBox="0 0 22 17" fill="none" xmlns="http://www.w3.org/2000/svg">
<path d="M18.0642 11.5158C17.8831 11.4865 17.7036 11.448 17.5264 11.4006C15.6467 10.8293 13.7705 10.2487 11.8902 9.67907C11.1472 9.45445 10.8463 8.91364 10.7518 8.19427C10.6942 7.73985 10.5979 7.29003 10.527 6.83675C10.4653 6.44338 10.2388 6.22509 9.8601 6.11105C7.93142 5.52992 6.00677 4.93726 4.08039 4.34807C3.655 4.2179 3.2296 4.08946 2.80479 3.95872C2.15517 3.75829 1.82488 3.15642 2.01741 2.5056C2.18111 1.94923 2.35019 1.39439 2.52465 0.841096C2.7385 0.166081 3.3374 -0.144357 4.02045 0.0641371C7.16037 1.02214 10.2993 1.98206 13.4373 2.9439C15.9662 3.71682 18.4948 4.49033 21.0229 5.26441C21.6449 5.45505 21.9636 5.85936 21.9181 6.43532C21.9009 6.60601 21.848 6.7712 21.7631 6.92027C21.0867 8.14551 20.4044 9.36691 19.7162 10.5845C19.3727 11.1875 18.8285 11.4772 18.0642 11.5158Z" fill="#635F60"/>
<path d="M5.51571 10.353L3.22734 9.65441C2.98064 9.57839 2.73163 9.50985 2.48665 9.42749C1.73731 9.17465 1.33382 8.43455 1.55574 7.67775C1.85375 6.6537 2.17424 5.63657 2.49299 4.5918C2.56793 4.61023 2.63479 4.62347 2.69935 4.64306C5.00885 5.34956 7.31893 6.05548 9.62958 6.76083C9.77368 6.8046 9.83882 6.86738 9.86014 7.01713C9.9443 7.54816 10.04 8.07746 10.1362 8.60618C10.2919 9.45917 10.7795 10.0409 11.6049 10.3024C13.0056 10.747 14.4132 11.1663 15.8185 11.5977C15.8923 11.6201 15.9655 11.6438 16.041 11.6674C15.8987 12.3821 15.5568 12.9074 14.8104 13.0306C14.5552 13.0639 14.2958 13.0405 14.0507 12.9621C11.5052 12.1915 8.9644 11.4093 6.4201 10.6335C6.34632 10.6111 6.27139 10.5898 6.1832 10.5638C5.93476 11.2354 5.68806 11.8995 5.4425 12.5641C5.18715 13.2553 4.83785 13.5018 4.10004 13.5023H2.85037V13.7558C2.85037 14.3162 2.85498 14.8766 2.84749 15.437C2.84613 15.6407 2.76458 15.8357 2.62047 15.9798C2.47636 16.1239 2.28127 16.2055 2.0774 16.207C1.64624 16.2151 1.21277 16.2139 0.782769 16.207C0.679986 16.207 0.578214 16.1867 0.483297 16.1473C0.388381 16.1079 0.302192 16.0502 0.229673 15.9774C0.157155 15.9046 0.0997356 15.8182 0.0607176 15.7232C0.0216995 15.6282 0.00185019 15.5264 0.00230566 15.4237C-0.000768553 13.9147 -0.000768553 12.4057 0.00230566 10.8967C0.00230566 10.4527 0.333167 10.1181 0.798334 10.1019C1.21508 10.0875 1.63298 10.0875 2.04973 10.1019C2.53392 10.1186 2.84633 10.4527 2.84922 10.9365C2.85268 11.4825 2.84922 12.0308 2.84922 12.5745V12.8049C3.35819 12.8049 3.84526 12.8141 4.33175 12.7997C4.51448 12.7945 4.65282 12.6753 4.71911 12.499C4.98368 11.7906 5.24422 11.0851 5.51571 10.353ZM5.93015 7.68005C6.20625 7.68984 6.38437 7.48826 6.29733 7.26076C6.24498 7.14824 6.15032 7.0609 6.03391 7.01771C5.44423 6.82073 4.84822 6.64334 4.25278 6.46249C4.00493 6.38704 3.81702 6.46249 3.75592 6.65198C3.68732 6.86623 3.79108 7.03326 4.04989 7.11274C4.63053 7.29167 5.21156 7.46925 5.79297 7.64549C5.84772 7.6622 5.90364 7.67372 5.93015 7.68005Z" fill="#635F60"/>
</svg>
