<svg width="24" height="24" viewBox="0 0 24 24" fill="none" xmlns="http://www.w3.org/2000/svg">
<path d="M22.8653 4.96301C22.7906 5.19093 22.7409 5.42911 22.6372 5.64279C22.1467 6.65706 21.3198 7.16078 20.2004 7.1642C17.8052 7.17217 15.4056 7.1642 13.0076 7.1642C9.89921 7.1642 6.79028 7.1642 3.68079 7.1642C2.30529 7.1642 1.25314 6.30435 1.041 4.95617C0.968008 4.4912 1.01591 4.00629 1.01021 3.53164C1.01021 3.36867 1.01021 3.20513 1.01021 3.00798H22.5664C22.6657 3.00798 22.7655 3.00285 22.8647 3L22.8653 4.96301Z" fill="#635F60"/>
<path d="M6.64 18.9423C5.59696 18.1012 4.76783 17.0256 4.22034 15.8031C3.73916 14.7313 3.49077 13.5698 3.49154 12.3951C3.48641 11.2435 3.49154 10.0925 3.49154 8.94089V8.73462H20.3858V8.94659C20.3858 10.0908 20.3995 11.235 20.3824 12.3791C20.3448 14.9832 19.3291 17.1371 17.36 18.842C17.3337 18.8642 17.3029 18.883 17.2362 18.9337V18.6801C17.2362 17.8488 17.2408 17.0169 17.2362 16.1855C17.2174 13.6555 15.3053 11.4475 12.7978 11.0572C9.96354 10.6133 7.35626 12.4031 6.75292 15.2168C6.68908 15.5224 6.65528 15.8335 6.65198 16.1456C6.63772 16.9912 6.64628 17.8368 6.64571 18.683L6.64 18.9423Z" fill="#635F60"/>
<path d="M15.6878 17.9513C15.6878 18.5548 15.6838 19.1588 15.6912 19.7628C15.6979 19.8179 15.6852 19.8736 15.6552 19.9203C15.6253 19.967 15.5799 20.0018 15.527 20.0186C13.136 21.0906 10.7452 21.0906 8.35467 20.0186C8.22465 19.9616 8.18359 19.8893 8.18359 19.7468C8.18987 18.5816 8.18074 17.4163 8.18873 16.2516C8.19756 15.3519 8.52868 14.4851 9.12207 13.8084C9.71546 13.1316 10.5319 12.6897 11.4233 12.5626C13.4997 12.2692 15.442 13.7672 15.6433 15.863C15.7106 16.5519 15.6541 17.2533 15.6541 17.9485L15.6878 17.9513ZM9.53856 16.1849C9.53856 17.5103 10.6221 18.6055 11.9269 18.5958C12.4032 18.5993 12.8698 18.4614 13.2676 18.1997C13.6654 17.938 13.9766 17.5642 14.1616 17.1256C14.3466 16.6871 14.3972 16.2035 14.3069 15.7362C14.2166 15.2689 13.9895 14.8389 13.6545 14.5006C13.3194 14.1624 12.8914 13.9311 12.4246 13.8361C11.9579 13.7412 11.4735 13.7867 11.0327 13.9671C10.5919 14.1475 10.2146 14.4545 9.94862 14.8494C9.68264 15.2442 9.53992 15.709 9.53856 16.1849Z" fill="#635F60"/>
<path d="M11.9245 17.0374C11.8124 17.0368 11.7015 17.0139 11.5984 16.97C11.4953 16.9261 11.402 16.8621 11.3239 16.7817C11.2458 16.7013 11.1846 16.6061 11.1438 16.5018C11.103 16.3975 11.0834 16.2861 11.0862 16.1741C11.0942 15.9518 11.1891 15.7414 11.3505 15.5881C11.5119 15.4348 11.727 15.3508 11.9496 15.3541C12.1723 15.3574 12.3848 15.4477 12.5416 15.6057C12.6984 15.7636 12.787 15.9767 12.7885 16.1992C12.7878 16.3112 12.7648 16.4219 12.7209 16.525C12.6769 16.628 12.6128 16.7213 12.5324 16.7993C12.452 16.8774 12.3568 16.9386 12.2524 16.9795C12.1481 17.0203 12.0366 17.04 11.9245 17.0374Z" fill="#635F60"/>
</svg>
