<svg width="24" height="24" viewBox="0 0 24 24" fill="none" xmlns="http://www.w3.org/2000/svg">
<path d="M4.95153 5.52652V4.89547C4.41642 4.82946 4.15877 4.63143 4.06298 4.24263C3.96125 3.81555 4.24466 3.335 4.67935 3.31256C5.39415 3.27559 6.11225 3.28351 6.82771 3.31256C7.17322 3.32642 7.43615 3.66307 7.46918 4.02546C7.47722 4.19955 7.42912 4.37163 7.33196 4.51636C7.23479 4.66109 7.0937 4.77084 6.92944 4.82946C6.80656 4.86115 6.68194 4.88561 6.5562 4.90273V5.49681H12.8513C12.8704 5.2659 12.9012 5.0361 12.9438 4.80833C13.0623 4.30293 13.3463 3.85156 13.7509 3.52591C14.1554 3.20026 14.6573 3.01899 15.1767 3.01089C17.089 2.99637 19.0013 2.99637 20.9136 3.01089C22.1239 3.02277 23.1597 4.08091 23.1597 5.29152C23.1654 9.99405 23.1654 14.6961 23.1597 19.3978C23.1597 20.6097 22.1225 21.6553 20.9136 21.683C20.1869 21.6995 19.4602 21.691 18.7375 21.691C13.6678 21.691 8.59841 21.6921 3.5292 21.6943C2.48079 21.6943 1.69266 21.2705 1.23683 20.3239C1.09366 20.0195 1.01774 19.6879 1.0142 19.3516C0.998783 15.523 0.99592 11.6945 1.00561 7.8659C1.00475 7.26238 1.23761 6.68193 1.65543 6.24611C2.07325 5.81029 2.64363 5.5529 3.24711 5.52784C3.81063 5.50672 4.36754 5.52652 4.95153 5.52652ZM12.0863 8.05007C9.04742 8.05007 6.54958 10.534 6.54166 13.5731C6.53373 16.6122 9.02561 19.108 12.0658 19.1179C15.106 19.1278 17.625 16.6254 17.623 13.5804C17.621 10.5353 15.1311 8.05205 12.0896 8.05007H12.0863ZM18.024 7.4144C18.2955 7.4144 18.5677 7.42034 18.8392 7.4144C19.0386 7.40675 19.2277 7.32429 19.3689 7.18346C19.5101 7.04263 19.5929 6.8538 19.6009 6.65462C19.6141 6.26385 19.3063 5.88561 18.9013 5.86713C18.3187 5.84073 17.7327 5.84073 17.1493 5.86713C16.7338 5.88363 16.416 6.27111 16.4365 6.66783C16.4474 6.86678 16.533 7.05432 16.6761 7.19305C16.8192 7.33179 17.0094 7.41153 17.2088 7.41638C17.4856 7.41968 17.7558 7.4144 18.0273 7.4144H18.024Z" fill="#635F60"/>
<path d="M12.0777 10.8198C12.6259 10.8183 13.1622 10.9794 13.6187 11.2827C14.0752 11.586 14.4313 12.0179 14.6419 12.5236C14.8524 13.0294 14.908 13.5862 14.8016 14.1236C14.6951 14.6609 14.4314 15.1546 14.0438 15.542C13.6563 15.9294 13.1623 16.1932 12.6246 16.2998C12.0869 16.4065 11.5296 16.3512 11.0233 16.141C10.5171 15.9309 10.0846 15.5753 9.78085 15.1193C9.47707 14.6633 9.3156 14.1275 9.31691 13.5797C9.31586 13.2171 9.38655 12.8578 9.5249 12.5226C9.66325 12.1874 9.86655 11.8828 10.1231 11.6263C10.3797 11.3699 10.6844 11.1666 11.0198 11.0282C11.3553 10.8898 11.7148 10.819 12.0777 10.8198Z" fill="#635F60"/>
</svg>
