<svg width="24" height="24" viewBox="0 0 24 24" fill="none" xmlns="http://www.w3.org/2000/svg">
<path d="M12.0516 19.6435C10.0905 19.6435 8.12934 19.6435 6.16819 19.6435C4.93874 19.6454 3.74894 19.2105 2.81263 18.4169C1.87631 17.6234 1.25491 16.5232 1.0601 15.3143C1.02036 15.0574 1.00118 14.7977 1.00277 14.5378C0.999076 12.0641 0.999076 9.59043 1.00277 7.11676C1.00585 5.86888 1.46595 4.66498 2.29677 3.73086C3.12759 2.79675 4.27206 2.1966 5.51552 2.04297C5.72115 2.01668 5.9282 2.00295 6.13553 2.00184C10.096 1.99939 14.0565 1.99939 18.017 2.00184C19.2427 2.00697 20.4265 2.44646 21.3565 3.24162C22.2865 4.03678 22.9019 5.13566 23.0925 6.34151C23.1319 6.61408 23.1505 6.88926 23.1479 7.16464C23.1525 9.59985 23.1525 12.0346 23.1479 14.469C23.1479 17.0323 21.3464 19.1549 18.8059 19.5827C18.5326 19.6259 18.2562 19.6465 17.9794 19.6441C16.0043 19.6462 14.0284 19.646 12.0516 19.6435ZM2.47333 14.1879C2.55345 14.0694 2.59659 14.0099 2.63665 13.9473C3.14142 13.1432 3.63942 12.3348 4.15096 11.535C6.08684 8.50705 10.2526 8.24187 12.5681 10.9936C13.1357 11.6688 13.7108 12.3373 14.2803 13.0106C14.3175 13.0645 14.3503 13.1214 14.3783 13.1806C15.3077 11.8916 16.5231 11.2526 18.0349 11.2545C19.5468 11.2563 20.7591 11.9149 21.6632 13.1892C21.6682 13.0953 21.6718 13.0579 21.6718 13.021C21.6718 11.0605 21.6708 9.09999 21.6688 7.13947C21.6686 6.92501 21.648 6.71105 21.6071 6.50049C21.254 4.69219 19.7668 3.4707 17.9129 3.46886C14.0214 3.466 10.1297 3.466 6.23785 3.46886C5.99194 3.46531 5.74627 3.48587 5.50441 3.53024C3.68256 3.89239 2.47579 5.36493 2.4721 7.21804C2.4721 8.36669 2.4721 9.51555 2.4721 10.6646L2.47333 14.1879Z" fill="#635F60"/>
<path d="M12.0518 22.5842H8.08209C7.59766 22.5842 7.271 22.2804 7.27593 21.8378C7.27963 21.4081 7.60567 21.116 8.08209 21.116H16.0647C16.5485 21.116 16.8764 21.4229 16.8721 21.8611C16.8678 22.2908 16.5393 22.5836 16.0653 22.5842H12.0518Z" fill="#635F60"/>
<path d="M17.9807 7.15241C17.9798 7.58901 17.8488 8.01554 17.6044 8.37796C17.3599 8.74037 17.0129 9.02236 16.6073 9.18821C16.2018 9.35405 15.756 9.39628 15.3263 9.30955C14.8966 9.22281 14.5025 9.01102 14.1938 8.701C13.8851 8.39098 13.6758 7.99668 13.5923 7.56806C13.5088 7.13944 13.5549 6.69579 13.7248 6.2933C13.8947 5.89082 14.1808 5.54762 14.5467 5.30718C14.9126 5.06674 15.342 4.93988 15.7804 4.94267C16.0706 4.94348 16.3579 5.00131 16.6257 5.11287C16.8935 5.22443 17.1366 5.38752 17.341 5.5928C17.5454 5.79807 17.7071 6.0415 17.8168 6.30912C17.9266 6.57675 17.9823 6.86332 17.9807 7.15241Z" fill="#635F60"/>
</svg>
