<?xml version="1.0" encoding="UTF-8"?>
<svg xmlns="http://www.w3.org/2000/svg" version="1.1" width="300" height="300" viewBox="0 0 300 300"><rect x="0" y="0" width="300" height="300" fill="#ffffff"/><g transform="scale(12)"><g transform="translate(0,0)"><path fill-rule="evenodd" d="M9 0L9 1L11 1L11 2L9 2L9 3L8 3L8 5L9 5L9 6L8 6L8 7L9 7L9 9L8 9L8 8L5 8L5 9L4 9L4 13L2 13L2 12L3 12L3 10L2 10L2 12L1 12L1 9L2 9L2 8L0 8L0 12L1 12L1 13L0 13L0 17L1 17L1 13L2 13L2 14L3 14L3 15L2 15L2 17L3 17L3 15L4 15L4 17L8 17L8 20L9 20L9 23L8 23L8 25L9 25L9 24L10 24L10 25L14 25L14 23L15 23L15 22L16 22L16 25L17 25L17 24L18 24L18 23L17 23L17 22L19 22L19 21L21 21L21 16L22 16L22 17L23 17L23 15L24 15L24 16L25 16L25 14L24 14L24 13L25 13L25 10L24 10L24 9L22 9L22 8L20 8L20 9L19 9L19 10L18 10L18 11L17 11L17 10L16 10L16 9L15 9L15 8L17 8L17 0L16 0L16 2L15 2L15 0L14 0L14 1L12 1L12 0ZM12 2L12 4L11 4L11 7L10 7L10 6L9 6L9 7L10 7L10 8L11 8L11 10L10 10L10 9L9 9L9 10L7 10L7 9L5 9L5 10L7 10L7 11L6 11L6 12L5 12L5 14L4 14L4 15L5 15L5 16L7 16L7 15L6 15L6 14L7 14L7 13L8 13L8 15L9 15L9 16L8 16L8 17L10 17L10 18L9 18L9 19L12 19L12 21L11 21L11 20L10 20L10 21L11 21L11 23L10 23L10 24L12 24L12 23L13 23L13 22L12 22L12 21L14 21L14 22L15 22L15 20L16 20L16 16L19 16L19 13L18 13L18 12L20 12L20 14L22 14L22 15L23 15L23 13L24 13L24 11L23 11L23 10L22 10L22 12L21 12L21 10L20 10L20 11L18 11L18 12L17 12L17 11L16 11L16 12L17 12L17 14L16 14L16 16L15 16L15 17L14 17L14 16L13 16L13 17L12 17L12 15L13 15L13 14L12 14L12 13L13 13L13 12L14 12L14 11L15 11L15 10L14 10L14 8L15 8L15 7L16 7L16 4L14 4L14 2ZM9 3L9 5L10 5L10 3ZM12 4L12 5L13 5L13 6L12 6L12 9L13 9L13 8L14 8L14 7L15 7L15 5L14 5L14 4ZM13 6L13 7L14 7L14 6ZM9 10L9 11L8 11L8 12L9 12L9 15L11 15L11 12L12 12L12 11L13 11L13 10L11 10L11 11L10 11L10 10ZM9 11L9 12L10 12L10 11ZM6 12L6 13L7 13L7 12ZM17 14L17 15L18 15L18 14ZM20 15L20 16L21 16L21 15ZM10 16L10 17L11 17L11 16ZM17 17L17 20L20 20L20 17ZM12 18L12 19L14 19L14 20L15 20L15 18ZM18 18L18 19L19 19L19 18ZM24 18L24 19L25 19L25 18ZM22 20L22 21L23 21L23 22L21 22L21 23L19 23L19 24L21 24L21 25L22 25L22 24L21 24L21 23L23 23L23 22L24 22L24 25L25 25L25 20L24 20L24 21L23 21L23 20ZM16 21L16 22L17 22L17 21ZM0 0L0 7L7 7L7 0ZM1 1L1 6L6 6L6 1ZM2 2L2 5L5 5L5 2ZM18 0L18 7L25 7L25 0ZM19 1L19 6L24 6L24 1ZM20 2L20 5L23 5L23 2ZM0 18L0 25L7 25L7 18ZM1 19L1 24L6 24L6 19ZM2 20L2 23L5 23L5 20Z" fill="#000000"/></g></g></svg>
