<svg width="50" height="50" viewBox="0 0 50 50" fill="none" xmlns="http://www.w3.org/2000/svg">
<path d="M13.3398 12.2362V23.2714C13.3398 24.4042 14.2578 25.3222 15.3906 25.3222H20.3125L20.3027 12.2264H13.3398V12.2362Z" fill="#9766FF"/>
<path d="M25.5254 12.2174L25.5352 25.3131H30.5742C31.707 25.3131 32.625 24.3951 32.625 23.2623V12.2174H25.5254Z" fill="#9766FF"/>
<path d="M25.5293 12.2174H20.3047V25.3131H25.5293V12.2174Z" fill="#EBE3FF"/>
<path d="M12.0703 7.49082C12.5586 6.99277 13.2324 6.70957 13.9356 6.70957H16.1035L15.8105 6.40684C14.8145 5.44004 14.7949 3.84824 15.7617 2.86192C16.7285 1.86582 18.3203 1.84629 19.3066 2.81309C19.3164 2.82285 19.3359 2.84239 19.3457 2.85215L22.9199 6.40684L25.5371 3.77988C26.0059 3.31114 26.6406 3.0377 27.3047 3.0377C28.6914 3.0377 29.8145 4.16074 29.8145 5.54746C29.8145 5.93809 29.7266 6.32871 29.5508 6.67051H32.0117H32.0215C33.4766 6.67051 34.6582 7.85215 34.6582 9.30722L34.668 12.2174C34.668 12.5396 34.4043 12.8033 34.082 12.8033H33.2129V23.2623C33.2129 24.7174 32.0313 25.899 30.5762 25.899H15.4004C13.9453 25.899 12.7637 24.7174 12.7637 23.2623V12.8033H11.9043C11.582 12.8033 11.3184 12.5396 11.3184 12.2174L11.3086 9.35605C11.2988 8.65293 11.5723 7.9791 12.0703 7.49082ZM18.5156 3.68223C17.9883 3.16465 17.1484 3.16465 16.6211 3.69199C16.1035 4.21934 16.1035 5.05918 16.6309 5.58652L17.7246 6.6998H21.543L18.5156 3.68223ZM28.2617 4.6002C28.0078 4.34629 27.6758 4.20957 27.3145 4.20957C26.9629 4.20957 26.6211 4.34629 26.3672 4.6002L24.2871 6.68027L28.0957 6.64121L28.2617 6.47519C28.7793 5.96738 28.7793 5.12754 28.2617 4.6002ZM26.1133 24.7369H30.5664C31.377 24.7369 32.0313 24.0826 32.0313 23.2721V12.8033H26.1035L26.1133 24.7369ZM26.1133 11.6314H33.4961V9.30722C33.4961 8.49668 32.8418 7.84238 32.0313 7.84238L26.123 7.85215L26.1133 11.6314ZM20.8984 24.7369H24.9512L24.9414 12.8131H20.8887L20.8984 24.7369ZM20.8887 11.6314H24.9414V7.86191L20.8887 7.87168V11.6314ZM13.9258 23.2623C13.9258 24.0728 14.5801 24.7271 15.3906 24.7271H19.7266L19.7168 12.8033H13.9258V23.2623ZM12.4805 11.6314H19.7168V7.87168L13.9356 7.88144C13.125 7.88144 12.4707 8.54551 12.4707 9.35605L12.4805 11.6314Z" fill="#22215B"/>
<path d="M11.4043 30.4391L11.3555 30.5368L15.5059 32.7731C16.2773 32.0993 17.2832 31.6891 18.3867 31.6891H19.6855L16.2285 29.8141C14.666 28.9059 12.6836 29.1598 11.4043 30.4391Z" fill="#EBE3FF"/>
<path d="M6.55151 31.2981C7.27416 30.0286 8.99291 29.3059 10.2917 29.97L15.5066 32.7825C14.7644 33.4368 14.2468 34.3352 14.0808 35.3606L13.0066 34.7942L6.55151 31.2981Z" fill="#EBE3FF"/>
<path d="M5.77148 30.8878L14.082 35.3605C14.248 34.3351 14.7656 33.4366 15.5078 32.7823C16.2793 32.1085 17.2852 31.6984 18.3887 31.6984H19.6875H24.248C25.3027 31.6984 26.3379 31.464 27.2754 31.005L27.8809 30.712C31.1719 29.1202 35.0684 29.5011 37.9883 31.6984L39.4434 32.9972C40.2344 33.6905 48.9258 38.1339 48.9258 38.1339L42.9395 47.2941L34.1406 42.2648C33.4082 41.8546 32.5586 41.7472 31.748 41.9523L22.9492 43.5734C20.6934 43.9835 18.3691 43.6515 16.3184 42.6359L1.08398 32.1769C2.05078 30.5558 4.11132 29.9894 5.77148 30.8878Z" fill="#9766FF"/>
<path d="M0.575375 31.8647C1.70819 29.98 4.11053 29.3257 6.05389 30.3706L6.36639 30.5366C7.39178 29.2573 9.19843 28.7495 10.5656 29.4429C10.5656 29.4429 10.5754 29.4429 10.5754 29.4526L11.2297 29.8042C12.6945 28.5347 14.8234 28.3198 16.5129 29.2964L19.8332 31.103H24.2473C24.2473 31.103 24.2473 31.103 24.257 31.103C25.2043 31.103 26.1711 30.8784 27.0305 30.4683L27.6359 30.1753C31.132 28.4858 35.2433 28.8862 38.3488 31.2202C38.3586 31.23 38.3781 31.2397 38.3879 31.2495L39.843 32.5483C40.3703 33.0171 45.8683 35.9077 49.1984 37.6167C49.3449 37.6948 49.4523 37.8315 49.5012 37.9878C49.5402 38.144 49.5207 38.3198 49.423 38.4565L43.4367 47.6167C43.3293 47.7925 43.134 47.8804 42.9484 47.8804C42.8508 47.8804 42.7531 47.8511 42.6555 47.8022L33.8566 42.7729C33.2609 42.4409 32.5578 42.3433 31.8937 42.5093C31.884 42.5093 31.8742 42.519 31.8547 42.519L23.0461 44.1401C20.6828 44.5698 18.2023 44.2183 16.0441 43.1538C16.0148 43.144 15.9953 43.1245 15.9758 43.1147L0.741394 32.6558C0.487488 32.48 0.409359 32.1284 0.575375 31.8647ZM10.0285 30.4878C9.21796 30.0776 8.11444 30.3706 7.42108 31.103L13.7004 34.4819C13.8859 33.9155 14.1789 33.3882 14.5598 32.9194L10.0285 30.4878ZM15.9465 30.3218L15.9367 30.312C14.8039 29.6577 13.4269 29.7163 12.3625 30.4097L15.4387 32.0698C16.0539 31.6108 16.7668 31.3081 17.5187 31.1714L15.9465 30.3218ZM16.6008 42.1186C18.5148 43.0561 20.7316 43.3687 22.8312 42.9878L31.6203 41.3667C32.5773 41.1323 33.5734 41.269 34.4328 41.7476L42.7531 46.5034L48.0754 38.3589C45.8293 37.2065 39.7746 34.0718 39.0519 33.4272L37.6164 32.1479C34.8625 30.0874 31.2297 29.7358 28.134 31.2397L27.5285 31.5327C26.5129 32.021 25.3801 32.2847 24.2473 32.2847H24.2375H18.3781C17.4601 32.2847 16.5812 32.6167 15.8879 33.2222C15.2336 33.7983 14.8039 34.5796 14.6574 35.439L18.9933 35.2436C20.5265 35.1753 22.0793 35.2437 23.6027 35.4585C23.925 35.5073 24.1496 35.8003 24.1008 36.1226C24.0519 36.4448 23.759 36.6694 23.4367 36.6206C21.9816 36.4155 20.507 36.3472 19.0422 36.4155L14.0422 36.6401H14.0129C13.8664 36.6401 13.7199 36.5815 13.6125 36.4741C13.4953 36.3667 13.4269 36.2104 13.4269 36.0542C13.4269 35.937 13.4269 35.8198 13.4367 35.6929L5.47772 31.4058C4.25702 30.7417 2.77264 31.0347 1.88397 32.0308L16.6008 42.1186Z" fill="#22215B"/>
</svg>
