<svg width="46" height="46" viewBox="0 0 46 46" fill="none" xmlns="http://www.w3.org/2000/svg">
<g clip-path="url(#clip0_886_10196)">
<path d="M34.0503 14.4648V5.21094C34.0503 2.82903 35.9812 0.898438 38.3628 0.898438C40.7447 0.898438 42.6753 2.82903 42.6753 5.21094V12.668C42.6753 13.6605 41.8709 14.4648 40.8784 14.4648H34.0503Z" fill="#FF5E62"/>
<path d="M38.3629 0.898438H7.63672C5.25481 0.898438 3.32422 2.82903 3.32422 5.21094V38.4528C3.32422 39.4453 4.1286 40.2496 5.12109 40.2496H34.0504V5.21094C34.0504 2.82903 35.9814 0.898438 38.3629 0.898438Z" fill="#FFEDED"/>
<path d="M26.3242 45.1013L25.0022 41.929C24.5403 40.8207 24.3027 39.6313 24.3027 38.4304V31.4643C24.3027 30.4118 25.1559 29.5587 26.2084 29.5587C27.0286 29.5587 27.7568 30.0833 28.0162 30.8617L29.3705 34.924C29.6972 35.9046 30.615 36.5661 31.6489 36.5661C32.9755 36.5661 34.0504 35.4912 34.0504 34.1646V16.5945L36.7843 19.3231C39.0796 21.6145 40.3697 24.7246 40.3697 27.9678V37.5183C40.3697 40.1413 39.7864 42.7313 38.6626 45.1013" fill="#FFD3BF"/>
<path d="M12.9978 11.5H9.04468C8.54843 11.5 8.14624 11.0978 8.14624 10.6016V6.64844C8.14624 6.15219 8.54843 5.75 9.04468 5.75H12.9978C13.4937 5.75 13.8962 6.15219 13.8962 6.64844V10.6016C13.8962 11.0978 13.4937 11.5 12.9978 11.5Z" fill="#EDFAFF"/>
<path d="M12.9978 22.2812H9.04468C8.54843 22.2812 8.14624 21.8791 8.14624 21.3828V17.4297C8.14624 16.9334 8.54843 16.5312 9.04468 16.5312H12.9978C13.4937 16.5312 13.8962 16.9334 13.8962 17.4297V21.3828C13.8962 21.8791 13.4937 22.2812 12.9978 22.2812Z" fill="#EDFAFF"/>
<path d="M12.9978 33.0621H9.04468C8.54843 33.0621 8.14624 32.66 8.14624 32.1637V28.2109C8.14624 27.7147 8.54843 27.3125 9.04468 27.3125H12.9978C13.4937 27.3125 13.8962 27.7147 13.8962 28.2109V32.1637C13.8962 32.66 13.4937 33.0621 12.9978 33.0621Z" fill="#EDFAFF"/>
<path d="M38.3629 0H7.63672C4.76347 0 2.42578 2.33769 2.42578 5.21094V38.4528C2.42578 39.9391 3.63481 41.1481 5.12109 41.1481H16.9205C17.4167 41.1481 17.8189 40.7459 17.8189 40.2496C17.8189 39.7534 17.4167 39.3512 16.9205 39.3512H5.12109C4.62555 39.3512 4.22266 38.9483 4.22266 38.4528V5.21094C4.22266 3.32843 5.75421 1.79688 7.63672 1.79688H34.4312C33.6356 2.71216 33.152 3.90575 33.152 5.21094V34.1645C33.152 34.9934 32.4778 35.6676 31.6489 35.6676C31.001 35.6676 30.4279 35.2545 30.2226 34.64L28.8686 30.5774C28.4864 29.4305 27.4171 28.6602 26.2084 28.6602C24.6621 28.6602 23.4043 29.918 23.4043 31.4639V32.1637H18.7475C18.2513 32.1637 17.8491 32.5663 17.8491 33.0621C17.8491 33.5584 18.2513 33.9606 18.7475 33.9606H23.4043V38.4303C23.4043 39.7569 23.6629 41.0505 24.1732 42.2746L25.4949 45.4469C25.6388 45.7919 25.9726 46 26.3246 46C26.4397 46 26.5569 45.9779 26.6696 45.9309C27.1279 45.7399 27.3444 45.2139 27.1535 44.7559L25.8318 41.5836C25.4135 40.5795 25.2012 39.5186 25.2012 38.4307V31.4643C25.2012 30.9087 25.6528 30.457 26.2084 30.457C26.6425 30.457 27.0268 30.7336 27.164 31.1456L28.518 35.2082C28.9679 36.5576 30.2261 37.4645 31.6489 37.4645C33.4686 37.4645 34.9489 35.9842 34.9489 34.1645V18.7608L36.1495 19.959C38.2917 22.097 39.4712 24.9415 39.4712 27.9677V37.5182C39.4712 39.9921 38.9108 42.481 37.8509 44.7162C37.6382 45.1644 37.8295 45.7003 38.2776 45.913C38.7258 46.1256 39.2617 45.9347 39.4744 45.4862C40.6476 43.012 41.2681 40.2567 41.2681 37.5182V27.9677C41.2681 24.4607 39.9012 21.1649 37.4189 18.6871L34.9489 16.2217V15.3633H40.8786C42.3648 15.3633 43.5739 14.1543 43.5739 12.668V5.21094C43.5739 2.33769 41.2365 0 38.3629 0ZM41.777 12.668C41.777 13.1632 41.3741 13.5664 40.8786 13.5664H34.9489V5.21094C34.9489 3.32843 36.4804 1.79688 38.3629 1.79688C40.2454 1.79688 41.777 3.32843 41.777 5.21094V12.668Z" fill="#22215B"/>
<path d="M20.8438 39.3511C20.6072 39.3511 20.3756 39.4472 20.2085 39.6143C20.0415 39.7817 19.9453 40.0133 19.9453 40.2495C19.9453 40.4861 20.0415 40.7177 20.2085 40.8847C20.3756 41.0518 20.6072 41.1479 20.8438 41.1479C21.0799 41.1479 21.3116 41.0518 21.479 40.8847C21.646 40.7177 21.7422 40.4861 21.7422 40.2495C21.7422 40.0133 21.646 39.7817 21.479 39.6143C21.3116 39.4472 21.0799 39.3511 20.8438 39.3511Z" fill="#FF5E62"/>
<path d="M14.7942 6.64844C14.7942 5.6577 13.9881 4.85156 12.9973 4.85156H9.04419C8.0531 4.85156 7.24731 5.6577 7.24731 6.64844V10.6016C7.24731 11.5923 8.0531 12.3984 9.04419 12.3984H12.9973C13.9881 12.3984 14.7942 11.5923 14.7942 10.6016V6.64844ZM12.9973 10.6016H9.04419V6.64844H12.9973L12.9984 10.6016H12.9973Z" fill="#FF5E62"/>
<path d="M14.7942 17.4297C14.7942 16.4389 13.9881 15.6328 12.9973 15.6328H9.04419C8.0531 15.6328 7.24731 16.4389 7.24731 17.4297V21.3828C7.24731 22.3736 8.0531 23.1797 9.04419 23.1797H12.9973C13.9881 23.1797 14.7942 22.3736 14.7942 21.3828V17.4297ZM12.9973 21.3828H9.04419V17.4297H12.9973L12.9984 21.3828H12.9973Z" fill="#FF5E62"/>
<path d="M12.9973 26.4141H9.04419C8.0531 26.4141 7.24731 27.2198 7.24731 28.2109V32.1637C7.24731 33.1548 8.0531 33.9606 9.04419 33.9606H12.9973C13.9881 33.9606 14.7942 33.1548 14.7942 32.1637V28.2109C14.7942 27.2198 13.9881 26.4141 12.9973 26.4141ZM12.9973 32.1637H9.04419V28.2109H12.9973L12.9984 32.1637C12.9984 32.1637 12.998 32.1637 12.9973 32.1637Z" fill="#FF5E62"/>
<path d="M29.0493 12.3984C29.5456 12.3984 29.9478 11.9962 29.9478 11.5C29.9478 11.0038 29.5456 10.6016 29.0493 10.6016H22.8557C22.3595 10.6016 21.9573 11.0038 21.9573 11.5C21.9573 11.9962 22.3595 12.3984 22.8557 12.3984H29.0493Z" fill="#FF5E62"/>
<path d="M18.7478 12.3984C18.9843 12.3984 19.216 12.3023 19.383 12.1352C19.5501 11.9682 19.6462 11.7362 19.6462 11.5C19.6462 11.2638 19.5501 11.0318 19.383 10.8648C19.216 10.6977 18.9843 10.6016 18.7478 10.6016C18.5106 10.6016 18.2796 10.6977 18.1126 10.8648C17.9448 11.0318 17.8494 11.2638 17.8494 11.5C17.8494 11.7362 17.9448 11.9682 18.1126 12.1352C18.2796 12.3023 18.5106 12.3984 18.7478 12.3984Z" fill="#FF5E62"/>
<path d="M18.7473 23.1797H29.0495C29.5458 23.1797 29.9479 22.7775 29.9479 22.2812C29.9479 21.785 29.5458 21.3828 29.0495 21.3828H18.7473C18.2514 21.3828 17.8489 21.785 17.8489 22.2812C17.8489 22.7775 18.2514 23.1797 18.7473 23.1797Z" fill="#FF5E62"/>
</g>
<defs>
<clipPath id="clip0_886_10196">
<rect width="46" height="46" fill="white"/>
</clipPath>
</defs>
</svg>
