<svg width="45" height="41" viewBox="0 0 45 41" fill="none" xmlns="http://www.w3.org/2000/svg">
<path d="M4.72632 32C4.72632 31.7239 4.95018 31.5 5.22632 31.5H9.92197C10.1981 31.5 10.422 31.7239 10.422 32V39.5H4.72632V32Z" fill="#FFE27A" stroke="#22215B"/>
<path d="M5.18335 38H9.96596V40H5.18335V38Z" fill="#F9CF58"/>
<path d="M14.291 27.9999C14.291 27.7237 14.5149 27.4999 14.791 27.4999H19.4867C19.7628 27.4999 19.9867 27.7237 19.9867 27.9999V39.4999H14.291V27.9999Z" fill="#FFBA57" stroke="#22215B"/>
<path d="M14.748 38H19.5307V40H14.748V38Z" fill="#FFAC3E"/>
<path d="M23.8552 22C23.8552 21.7239 24.0791 21.5 24.3552 21.5H29.0509C29.327 21.5 29.5509 21.7239 29.5509 22V39.5H23.8552V22Z" fill="#98DB7C" stroke="#22215B"/>
<path d="M24.3123 38H29.0949V40H24.3123V38Z" fill="#82D361"/>
<path d="M33.4216 17.9998C33.4216 17.7236 33.6455 17.4998 33.9216 17.4998H38.6173C38.8934 17.4998 39.1173 17.7236 39.1173 17.9998V39.4998H33.4216V17.9998Z" fill="#47ABFF" stroke="#22215B"/>
<path d="M33.8787 38H38.6613V40H33.8787V38Z" fill="#6CC4FF"/>
<path d="M27.7285 5.27579C24.545 12.6836 12.2641 18.404 6.48541 20.3478C5.68437 20.6269 5.67395 21.8374 6.45413 22.0779C6.47451 22.0842 6.49666 22.0863 6.51796 22.085C21.3812 21.2171 29.7192 12.6909 32.153 8.35669C32.2096 8.25591 32.3365 8.22578 32.4345 8.28703L34.3354 9.47509C34.4776 9.56397 34.6595 9.44888 34.6401 9.28231L33.7013 1.23575C33.6869 1.11257 33.5651 1.03203 33.4461 1.06708L25.9111 3.28723C25.7589 3.33206 25.7174 3.52669 25.8397 3.62769C26.2564 3.97182 26.937 4.51455 27.6608 5.03778C27.7362 5.09224 27.7652 5.19038 27.7285 5.27579Z" fill="#FF4646" stroke="#22215B"/>
<rect width="44" height="1" rx="0.5" transform="matrix(1 0 0 -1 0.399902 41)" fill="#22215B"/>
</svg>
