<svg width="137" height="46" viewBox="0 0 137 46" fill="none" xmlns="http://www.w3.org/2000/svg">
<path d="M125.89 0.000148598H10.8987C10.4795 0.000148598 10.0654 0.000148597 9.64735 0.00243471C9.29741 0.00472083 8.95025 0.011362 8.59694 0.0169516C7.82939 0.0259838 7.06365 0.0935093 6.30637 0.218941C5.55015 0.347104 4.81762 0.588727 4.13355 0.935639C3.45032 1.28549 2.82603 1.74007 2.28334 2.28292C1.73779 2.82423 1.28304 3.44992 0.936565 4.13592C0.589132 4.82055 0.348222 5.5542 0.222153 6.31152C0.0948863 7.06789 0.0264028 7.83298 0.0173173 8.59992C0.00670975 8.95039 0.00558955 9.30201 0 9.65252V36.0735C0.00558955 36.4284 0.00670975 36.7722 0.0173173 37.1272C0.0264056 37.8942 0.0948891 38.6592 0.222153 39.4155C0.347874 40.1733 0.588799 40.9074 0.936565 41.5923C1.28288 42.276 1.7377 42.8992 2.28334 43.4375C2.82398 43.9828 3.44867 44.4377 4.13355 44.7848C4.81761 45.1327 5.55006 45.3757 6.30637 45.5059C7.06378 45.6303 7.82944 45.6978 8.59694 45.708C8.95025 45.7157 9.29741 45.7202 9.64735 45.7202C10.0654 45.7225 10.4796 45.7225 10.8987 45.7225H125.89C126.301 45.7225 126.719 45.7225 127.13 45.7202C127.478 45.7202 127.835 45.7157 128.183 45.708C128.949 45.6984 129.714 45.6308 130.469 45.5059C131.228 45.3748 131.963 45.1318 132.651 44.7848C133.335 44.4375 133.959 43.9826 134.499 43.4375C135.043 42.8971 135.499 42.2744 135.85 41.5923C136.195 40.9069 136.434 40.1729 136.557 39.4155C136.685 38.6591 136.756 37.8942 136.77 37.1272C136.774 36.7722 136.774 36.4284 136.774 36.0735C136.783 35.6582 136.783 35.2452 136.783 34.8232V10.9005C136.783 10.4819 136.783 10.0667 136.774 9.65252C136.774 9.30201 136.774 8.95039 136.77 8.59988C136.756 7.83287 136.685 7.06795 136.557 6.31148C136.433 5.55459 136.195 4.821 135.85 4.13587C135.144 2.76086 134.025 1.64161 132.651 0.935536C131.963 0.589472 131.228 0.347913 130.469 0.218838C129.714 0.0928538 128.949 0.0253048 128.183 0.0167915C127.835 0.0112134 127.478 0.00451508 127.13 0.00228612C126.719 0 126.301 0 125.89 0V0.000148598Z" fill="#A6A6A6"/>
<path d="M9.6521 44.722C9.30383 44.722 8.96398 44.7175 8.61844 44.7097C7.90264 44.7004 7.18851 44.6381 6.48191 44.5233C5.82304 44.4098 5.18477 44.1988 4.58816 43.897C3.99702 43.5978 3.45785 43.2054 2.99131 42.735C2.51801 42.2701 2.12397 41.7309 1.8248 41.1387C1.52234 40.5427 1.31301 39.9039 1.20412 39.2444C1.08653 38.5359 1.02291 37.8194 1.0138 37.1012C1.00656 36.8601 0.99707 36.0575 0.99707 36.0575V9.6522C0.99707 9.6522 1.00717 8.86187 1.01386 8.62968C1.02258 7.91262 1.08583 7.19726 1.20307 6.4898C1.31216 5.82856 1.52165 5.18788 1.82428 4.58992C2.12235 3.99818 2.5142 3.45856 2.98464 2.99198C3.45456 2.52098 3.99545 2.1266 4.5876 1.82324C5.18284 1.52248 5.8199 1.31289 6.47744 1.20149C7.18636 1.08554 7.90297 1.02286 8.62126 1.01396L9.65266 1H127.123L128.167 1.01452C128.879 1.02297 129.589 1.0851 130.291 1.20037C130.955 1.31317 131.599 1.52422 132.201 1.82659C133.387 2.43795 134.353 3.40518 134.961 4.59271C135.259 5.18654 135.466 5.822 135.573 6.47752C135.692 7.19079 135.758 7.91177 135.772 8.63471C135.775 8.95843 135.775 9.30615 135.775 9.6522C135.784 10.0808 135.784 10.4888 135.784 10.9002V34.8229C135.784 35.2381 135.784 35.6434 135.775 36.0519C135.775 36.4236 135.775 36.7641 135.771 37.1146C135.757 37.8246 135.692 38.5327 135.575 39.2332C135.469 39.8974 135.261 40.5413 134.958 41.1421C134.657 41.7279 134.265 42.2624 133.797 42.7261C133.33 43.1991 132.79 43.5937 132.198 43.8949C131.597 44.1989 130.955 44.4108 130.291 44.5233C129.585 44.6387 128.87 44.701 128.154 44.7097C127.82 44.7175 127.469 44.722 127.129 44.722L125.89 44.7243L9.6521 44.722Z" fill="black"/>
<path fill-rule="evenodd" clip-rule="evenodd" d="M85.3639 33.2338C83.4952 33.2338 82.1278 32.3096 81.9704 30.902L79.7959 30.9019C79.9332 33.4693 82.0586 35.0935 85.2064 35.0935C88.5709 35.0935 90.6862 33.4303 90.6862 30.7747C90.6862 28.6984 89.4762 27.5286 86.5638 26.8398L84.9999 26.4558C83.1704 26.0038 82.4225 25.4133 82.4225 24.4097C82.4225 23.1506 83.5934 22.2855 85.3047 22.2855C87.0159 22.2855 88.1869 23.1405 88.3152 24.5571H90.4596C90.3904 22.108 88.3342 20.4258 85.3348 20.4258C82.3042 20.4258 80.1699 22.108 80.1699 24.5571C80.1699 26.5351 81.3799 27.7541 83.9864 28.3837L85.826 28.8268C87.6656 29.2789 88.4425 29.9386 88.4425 31.0404C88.4425 32.3096 87.1544 33.2338 85.3639 33.2338ZM48.3551 31.0219H42.9445L41.6452 34.8586H39.3535L44.4783 20.6641H46.8593L51.9841 34.8586H49.6533L48.3551 31.0219ZM43.5037 29.2499H47.7925L45.6782 23.0234H45.6191L43.5037 29.2499ZM58.7323 34.9658C61.3298 34.9658 63.0511 32.8996 63.0511 29.6837C63.0511 26.4766 61.3198 24.4004 58.6932 24.4004C57.3417 24.3568 56.0756 25.0597 55.398 26.2299H55.3589V24.5086H53.3027V38.2811H55.427V33.1552H55.4761C56.1249 34.3328 57.3896 35.0361 58.7323 34.9658ZM60.8666 29.6837C60.8666 27.5884 59.7838 26.2109 58.1318 26.2109C56.5087 26.2109 55.417 27.6174 55.417 29.6837C55.417 31.7688 56.5087 33.1653 58.1318 33.1653C59.7838 33.1653 60.8666 31.7979 60.8666 29.6837ZM70.1229 34.9658C72.7205 34.9658 74.4418 32.8996 74.4418 29.6836C74.4418 26.4766 72.7104 24.4004 70.0838 24.4004C68.7323 24.3568 67.4662 25.0597 66.7886 26.2299H66.7495V24.5086H64.6934V38.2811H66.8176V33.1552H66.8668C67.5156 34.3328 68.7803 35.0361 70.1229 34.9658ZM72.2572 29.6837C72.2572 27.5884 71.1745 26.2109 69.5224 26.2109C67.8993 26.2109 66.8076 27.6174 66.8076 29.6837C66.8076 31.7688 67.8993 33.1653 69.5224 33.1653C71.1745 33.1653 72.2573 31.7979 72.2572 29.6837ZM95.2689 22.0586V24.5077H97.2369V26.1899H95.2689V31.8951C95.2689 32.7815 95.663 33.1945 96.5281 33.1945C96.7617 33.1904 96.9949 33.174 97.2268 33.1453V34.8175C96.8379 34.8902 96.4426 34.9231 96.0469 34.9157C93.9517 34.9157 93.1346 34.1288 93.1346 32.1217V26.1899H91.6299V24.5077H93.1346V22.0586H95.2689ZM103.287 24.3789C100.297 24.3789 98.3789 26.425 98.3789 29.6812C98.3789 32.9463 100.278 34.9834 103.287 34.9834C106.298 34.9834 108.196 32.9463 108.196 29.6812C108.196 26.425 106.288 24.3789 103.287 24.3789ZM106.032 29.6848C106.032 27.4511 105.008 26.1328 103.287 26.1328C101.565 26.1328 100.543 27.4612 100.543 29.6848C100.543 31.9274 101.565 33.2356 103.287 33.2356C105.008 33.2356 106.032 31.9274 106.032 29.6848ZM111.973 24.5085H109.947L109.947 34.8575H112.072V28.7191C112.001 28.0981 112.205 27.4772 112.631 27.0194C113.056 26.5617 113.661 26.3128 114.285 26.3381C114.608 26.3287 114.93 26.372 115.24 26.4665V24.4795C115.001 24.426 114.757 24.3994 114.512 24.4003C113.344 24.3557 112.305 25.1361 112.022 26.27H111.973V24.5085ZM125.034 31.8155C124.748 33.6942 122.918 34.9834 120.577 34.9834C117.567 34.9834 115.698 32.9663 115.698 29.7303C115.698 26.4842 117.577 24.3789 120.488 24.3789C123.351 24.3789 125.152 26.3458 125.152 29.4836V30.2114H117.843V30.3398C117.774 31.1102 118.04 31.8729 118.573 32.4337C119.106 32.9946 119.854 33.2995 120.627 33.2711C121.657 33.3677 122.629 32.7757 123.017 31.8155L125.034 31.8155ZM123.027 28.7287H117.854C117.852 28.03 118.129 27.3595 118.624 26.8663C119.119 26.3731 119.79 26.098 120.489 26.1021C121.182 26.0872 121.85 26.3622 122.332 26.8608C122.814 27.3594 123.066 28.0364 123.027 28.7287Z" fill="white"/>
<path fill-rule="evenodd" clip-rule="evenodd" d="M67.5507 9.64453H68.5665V16.8009H67.5507V9.64453ZM45.6468 10.9154C45.0251 10.2589 44.1418 9.9158 43.24 9.98052H40.7764V16.801H43.24C45.2716 16.801 46.4492 15.5485 46.4492 13.3695C46.5629 12.4726 46.2684 11.5719 45.6468 10.9154ZM43.1218 15.8368H41.8358V10.9447H43.1218C43.7628 10.9091 44.3862 11.1619 44.8215 11.6339C45.2568 12.1059 45.4583 12.7477 45.3711 13.3838C45.4652 14.0225 45.2665 14.6696 44.8301 15.1455C44.3938 15.6214 43.7663 15.8753 43.1218 15.8368ZM47.6452 14.2253C47.557 13.3027 47.9993 12.4099 48.7868 11.9212C49.5743 11.4325 50.5708 11.4325 51.3582 11.9212C52.1457 12.4099 52.5881 13.3027 52.4999 14.2253C52.5898 15.1489 52.1478 16.0435 51.3596 16.5332C50.5714 17.0229 49.5736 17.0229 48.7854 16.5332C47.9973 16.0435 47.5553 15.1489 47.6452 14.2253ZM50.0759 12.457C50.9555 12.457 51.4567 13.1095 51.4567 14.2252H51.4567C51.4567 15.3454 50.9555 15.9973 50.0759 15.9973C49.1929 15.9973 48.6962 15.3498 48.6962 14.2252C48.6962 13.1095 49.1929 12.457 50.0759 12.457ZM58.955 16.7995H57.9012L56.8375 13.0086H56.7571L55.6977 16.7995H54.654L53.2353 11.6523H54.2656L55.1876 15.5799H55.2635L56.3217 11.6523H57.2962L58.3545 15.5799H58.4348L59.3524 11.6523H60.3682L58.955 16.7995ZM62.5373 11.6552H61.5595L61.5595 16.8023H62.5753V13.7912C62.5388 13.4487 62.6538 13.1073 62.89 12.8566C63.1262 12.6059 63.4602 12.4708 63.8043 12.4869C64.5555 12.4869 64.915 12.8982 64.915 13.7254V16.8023H65.9308V13.4703C66.0052 12.967 65.8468 12.4572 65.5002 12.0848C65.1537 11.7123 64.6565 11.5177 64.1492 11.5559C63.494 11.5026 62.8772 11.8709 62.6132 12.4729H62.5373V11.6552ZM71.12 11.9212C70.3325 12.4099 69.89 13.3028 69.9782 14.2254C69.8884 15.149 70.3304 16.0436 71.1187 16.5333C71.9069 17.023 72.9047 17.023 73.6929 16.5333C74.4812 16.0436 74.9232 15.149 74.8334 14.2254C74.9216 13.3028 74.4791 12.4099 73.6916 11.9212C72.904 11.4325 71.9075 11.4325 71.12 11.9212ZM73.7868 14.2251C73.7868 13.1094 73.2855 12.4569 72.4059 12.4569C71.523 12.4569 71.0263 13.1094 71.0263 14.2251C71.0263 15.3498 71.523 15.9972 72.4059 15.9972C73.2856 15.9972 73.7868 15.3453 73.7868 14.2251ZM77.8166 13.809C76.5921 13.8849 75.9022 14.419 75.9022 15.3455C75.904 15.7848 76.0914 16.2029 76.4183 16.4964C76.7452 16.7899 77.181 16.9314 77.6179 16.8859C78.2413 16.9148 78.8319 16.606 79.164 16.0778H79.2443V16.8011H80.2222V13.2843C80.2222 12.1971 79.4944 11.5547 78.204 11.5547C77.0364 11.5547 76.2048 12.1217 76.1009 13.0058H77.0844C77.1971 12.6419 77.59 12.4337 78.1571 12.4337C78.8514 12.4337 79.2109 12.7407 79.2109 13.2843V13.7286L77.8166 13.809ZM79.21 14.9069V14.4766L77.9531 14.5569C77.2442 14.6044 76.9228 14.8455 76.9228 15.2992C76.9228 15.7625 77.3246 16.0321 77.8772 16.0321C78.2043 16.0652 78.5309 15.9641 78.7821 15.752C79.0334 15.5399 79.1878 15.2349 79.21 14.9069ZM83.6931 11.5684C82.3926 11.5684 81.5565 12.5988 81.5565 14.2252C81.5565 15.8555 82.3837 16.8858 83.6931 16.8857C84.3569 16.9102 84.9795 16.5643 85.3094 15.9877H85.3898V16.8009H86.3632V9.64453H85.3474V12.4715H85.2715C84.9648 11.89 84.3497 11.5382 83.6931 11.5684ZM82.6054 14.2246C82.6054 15.3163 83.12 15.9733 83.9807 15.9733C84.8368 15.9733 85.3659 15.3069 85.3659 14.2291C85.3659 13.1564 84.8312 12.4805 83.9807 12.4805C83.1256 12.4805 82.6054 13.1419 82.6054 14.2246H82.6054ZM91.7077 11.9212C90.9202 12.4099 90.4778 13.3027 90.5661 14.2253C90.4762 15.1489 90.9181 16.0435 91.7063 16.5332C92.4945 17.0229 93.4923 17.0229 94.2805 16.5332C95.0687 16.0435 95.5107 15.1489 95.4208 14.2253C95.509 13.3027 95.0666 12.4099 94.2791 11.9212C93.4917 11.4325 92.4952 11.4325 91.7077 11.9212ZM94.3776 14.2252C94.3776 13.1095 93.8764 12.457 92.9968 12.457C92.1138 12.457 91.6171 13.1095 91.6171 14.2252C91.6171 15.3498 92.1138 15.9973 92.9968 15.9973C93.8764 15.9973 94.3776 15.3454 94.3776 14.2252ZM97.761 11.6552H96.7831V16.8023H97.7989V13.7912C97.7625 13.4487 97.8774 13.1073 98.1137 12.8566C98.3499 12.6059 98.6838 12.4708 99.0279 12.4869C99.7792 12.4869 100.139 12.8982 100.139 13.7254V16.8023H101.154V13.4703C101.229 12.967 101.07 12.4572 100.724 12.0848C100.377 11.7123 99.8802 11.5177 99.3729 11.5559C98.7177 11.5026 98.1008 11.8709 97.8369 12.4729H97.761V11.6552ZM106.896 10.3711V11.676H108.012V12.5316H106.896V15.1783C106.896 15.7175 107.119 15.9535 107.624 15.9535C107.754 15.9531 107.883 15.9453 108.012 15.9301V16.7762C107.829 16.8089 107.644 16.8262 107.459 16.8281C106.329 16.8281 105.88 16.4307 105.88 15.4384V12.5316H105.062V11.676H105.88V10.3711H106.896ZM110.406 9.64453H109.399L109.399 16.8009H110.415V13.7948C110.384 13.4416 110.51 13.0926 110.76 12.841C111.01 12.5894 111.358 12.4609 111.711 12.4899C112.429 12.4899 112.812 12.9063 112.812 13.7284V16.8009H113.829V13.4778C113.896 12.9771 113.736 12.4725 113.394 12.1015C113.051 11.7304 112.56 11.5315 112.056 11.5589C111.391 11.505 110.763 11.8737 110.487 12.481H110.406V9.64453ZM119.75 15.4115C119.465 16.3824 118.526 17.0097 117.52 16.9006C116.833 16.9187 116.174 16.6342 115.716 16.1226C115.258 15.611 115.048 14.924 115.142 14.2439C115.051 13.5618 115.26 12.8737 115.715 12.3578C116.17 11.8419 116.827 11.5489 117.515 11.5548C118.947 11.5548 119.811 12.5332 119.811 14.1495V14.504H116.177V14.5609C116.145 14.9428 116.275 15.3206 116.536 15.6013C116.797 15.8821 117.164 16.0397 117.548 16.0354C118.045 16.0951 118.528 15.8486 118.772 15.4114L119.75 15.4115ZM118.778 13.7517H116.178C116.173 13.3967 116.312 13.055 116.563 12.804C116.814 12.5529 117.156 12.4138 117.511 12.4183C117.861 12.4103 118.198 12.5505 118.439 12.8044C118.681 13.0583 118.803 13.4024 118.778 13.7517Z" fill="white"/>
<path fill-rule="evenodd" clip-rule="evenodd" d="M26.4633 9.96875C26.5739 11.4138 26.1169 12.8452 25.1893 13.9587C24.2893 15.0781 22.9257 15.7228 21.4895 15.708C21.3981 14.3046 21.8684 12.9223 22.7968 11.8658C23.737 10.7949 25.0461 10.1176 26.4633 9.96875ZM31.0053 18.4597C29.3533 19.4754 28.3366 21.2666 28.3116 23.2058C28.314 25.3997 29.6279 27.3796 31.6485 28.2343C31.2599 29.4967 30.6741 30.6897 29.9129 31.7692C28.8905 33.2985 27.8186 34.7925 26.1173 34.8202C25.3082 34.8388 24.762 34.6062 24.1929 34.3637C23.5992 34.1108 22.9806 33.8473 22.0126 33.8473C20.986 33.8473 20.3397 34.1193 19.7163 34.3816C19.1777 34.6084 18.6561 34.8278 17.9211 34.8583C16.3009 34.9183 15.0627 33.2261 14.0032 31.7111C11.8855 28.6173 10.2366 22.9923 12.4472 19.1648C13.4853 17.2994 15.4263 16.1157 17.56 16.0467C18.479 16.0278 19.3607 16.382 20.1338 16.6925C20.725 16.93 21.2527 17.1419 21.6848 17.1419C22.0646 17.1419 22.5775 16.9384 23.1753 16.7011C24.1169 16.3274 25.2691 15.8701 26.4432 15.9934C28.2677 16.0504 29.9584 16.9645 31.0053 18.4597Z" fill="white"/>
</svg>
