<svg width="16" height="16" viewBox="0 0 16 16" fill="none" xmlns="http://www.w3.org/2000/svg">
<g id="arrow-right">
<path id="arrow-right_2" d="M14.4613 8.19451C14.4359 8.25585 14.3994 8.31111 14.3534 8.35711L9.68669 13.0238C9.58935 13.1211 9.46133 13.1704 9.33333 13.1704C9.20533 13.1704 9.07731 13.1218 8.97998 13.0238C8.78465 12.8284 8.78465 12.5118 8.97998 12.3164L12.7933 8.50311H2C1.724 8.50311 1.5 8.27911 1.5 8.00311C1.5 7.72711 1.724 7.50311 2 7.50311H12.7926L8.97933 3.68979C8.784 3.49446 8.784 3.17777 8.97933 2.98244C9.17466 2.7871 9.49135 2.7871 9.68669 2.98244L14.3534 7.6491C14.3994 7.6951 14.4359 7.75037 14.4613 7.8117C14.5119 7.93437 14.5119 8.07185 14.4613 8.19451Z" fill="#2DB0F6"/>
</g>
</svg>
