<svg width="16" height="17" viewBox="0 0 16 17" fill="none" xmlns="http://www.w3.org/2000/svg">
<path fill-rule="evenodd" clip-rule="evenodd" d="M11.332 4.83333H9.9987C9.6305 4.83333 9.33203 4.53486 9.33203 4.16667C9.33203 3.79848 9.6305 3.5 9.9987 3.5H11.332C11.7002 3.5 11.9987 3.79848 11.9987 4.16667C11.9987 4.53486 11.7002 4.83333 11.332 4.83333Z" fill="#667085"/>
<path fill-rule="evenodd" clip-rule="evenodd" d="M3.33203 1.16602C2.22746 1.16602 1.33203 2.06145 1.33203 3.16602V13.166C1.33203 14.2706 2.22746 15.166 3.33203 15.166H11.9987C13.1033 15.166 13.9987 14.2706 13.9987 13.166V3.16602C13.9987 2.06145 13.1033 1.16602 11.9987 1.16602H3.33203ZM2.66536 3.16602C2.66536 2.79783 2.96384 2.49935 3.33203 2.49935H11.9987C12.3669 2.49935 12.6654 2.79783 12.6654 3.16602V5.99935H2.66536V3.16602ZM3.66536 9.16602C3.66536 8.79782 3.96384 8.49935 4.33203 8.49935H4.9987C5.36688 8.49935 5.66536 8.79782 5.66536 9.16602C5.66536 9.53422 5.36688 9.83267 4.9987 9.83267H4.33203C3.96384 9.83267 3.66536 9.53422 3.66536 9.16602ZM6.66536 9.16602C6.66536 8.79782 6.96383 8.49935 7.33203 8.49935H7.9987C8.3669 8.49935 8.66536 8.79782 8.66536 9.16602C8.66536 9.53422 8.3669 9.83267 7.9987 9.83267H7.33203C6.96383 9.83267 6.66536 9.53422 6.66536 9.16602ZM9.66536 9.16602C9.66536 8.79782 9.96383 8.49935 10.332 8.49935H10.9987C11.3669 8.49935 11.6654 8.79782 11.6654 9.16602C11.6654 9.53422 11.3669 9.83267 10.9987 9.83267H10.332C9.96383 9.83267 9.66536 9.53422 9.66536 9.16602ZM4.33203 11.166C3.96384 11.166 3.66536 11.4645 3.66536 11.8327C3.66536 12.2009 3.96384 12.4993 4.33203 12.4993H4.9987C5.36688 12.4993 5.66536 12.2009 5.66536 11.8327C5.66536 11.4645 5.36688 11.166 4.9987 11.166H4.33203ZM7.33203 11.166C6.96383 11.166 6.66536 11.4645 6.66536 11.8327C6.66536 12.2009 6.96383 12.4993 7.33203 12.4993H7.9987C8.3669 12.4993 8.66536 12.2009 8.66536 11.8327C8.66536 11.4645 8.3669 11.166 7.9987 11.166H7.33203ZM10.332 11.166C9.96383 11.166 9.66536 11.4645 9.66536 11.8327C9.66536 12.2009 9.96383 12.4993 10.332 12.4993H10.9987C11.3669 12.4993 11.6654 12.2009 11.6654 11.8327C11.6654 11.4645 11.3669 11.166 10.9987 11.166H10.332Z" fill="#667085"/>
</svg>
