<svg width="41" height="40" viewBox="0 0 41 40" fill="none" xmlns="http://www.w3.org/2000/svg">
<path d="M14.2052 25.5651H32.1777C32.9106 25.5623 33.6257 25.3385 34.2296 24.9231C34.8334 24.5077 35.298 23.9198 35.5627 23.2363L38.9014 14.5188C39.1122 13.9698 39.1862 13.3778 39.117 12.7938C39.0478 12.2098 38.8375 11.6514 38.5043 11.1668C38.1711 10.6822 37.725 10.286 37.2044 10.0124C36.6839 9.73882 36.1045 9.59602 35.5164 9.59634H10.2289L9.19394 7.07009C8.91611 6.38813 8.441 5.80465 7.82946 5.39443C7.21792 4.98422 6.49783 4.76594 5.76145 4.76759H2.98145C2.68308 4.76759 2.39693 4.88611 2.18595 5.09709C1.97497 5.30807 1.85645 5.59422 1.85645 5.89259C1.85645 6.19096 1.97497 6.4771 2.18595 6.68808C2.39693 6.89906 2.68308 7.01759 2.98145 7.01759H5.7627C6.3577 7.01759 6.88645 7.37384 7.1127 7.92384L13.4564 23.4051C12.7105 23.5751 12.0443 23.993 11.5666 24.5906C11.0889 25.1881 10.828 25.93 10.8264 26.6951C10.8278 27.591 11.1843 28.4498 11.818 29.0832C12.4516 29.7166 13.3105 30.0728 14.2064 30.0738H14.2702C14.0789 30.5201 13.9714 31.0113 13.9714 31.5276C13.9714 33.5701 15.6327 35.2326 17.6752 35.2326C19.7177 35.2326 21.3789 33.5701 21.3789 31.5276C21.3789 31.0113 21.2714 30.5201 21.0802 30.0738H29.6502C29.4589 30.5201 29.3514 31.0113 29.3514 31.5276C29.3514 33.5701 31.0127 35.2326 33.0552 35.2326C35.0977 35.2326 36.7602 33.5701 36.7602 31.5276C36.7602 29.4851 35.0977 27.8226 33.0552 27.8226H14.2052C13.9058 27.8226 13.6187 27.7037 13.407 27.492C13.1954 27.2803 13.0764 26.9932 13.0764 26.6938C13.0764 26.3945 13.1954 26.1074 13.407 25.8957C13.6187 25.684 13.9058 25.5651 14.2052 25.5651ZM11.1502 11.8463H35.5164C35.9764 11.8463 36.3889 12.0638 36.6489 12.4426C36.9089 12.8213 36.9639 13.2838 36.8002 13.7138L33.4614 22.4313C33.3609 22.6904 33.1847 22.9132 32.9557 23.0706C32.7267 23.228 32.4556 23.3128 32.1777 23.3138H15.8489L11.1502 11.8463ZM19.1289 31.5276C19.1288 31.7187 19.091 31.9078 19.0177 32.0843C18.9444 32.2608 18.8371 32.4211 18.7019 32.5561C18.5667 32.6911 18.4062 32.7981 18.2296 32.8711C18.053 32.944 17.8638 32.9815 17.6727 32.9813C17.4816 32.9812 17.2925 32.9434 17.116 32.8701C16.9395 32.7968 16.7792 32.6895 16.6442 32.5543C16.5092 32.4191 16.4022 32.2586 16.3292 32.082C16.2563 31.9054 16.2188 31.7162 16.2189 31.5251C16.2193 31.1392 16.3729 30.7692 16.646 30.4966C16.9191 30.224 17.2893 30.071 17.6752 30.0713C18.0611 30.0717 18.431 30.2253 18.7037 30.4984C18.9763 30.7715 19.1293 31.1417 19.1289 31.5276ZM33.0539 32.9813C32.6681 32.9813 32.298 32.828 32.0251 32.5552C31.7522 32.2823 31.5989 31.9122 31.5989 31.5263C31.5989 31.1404 31.7522 30.7704 32.0251 30.4975C32.298 30.2246 32.6681 30.0713 33.0539 30.0713C33.4398 30.0713 33.8099 30.2246 34.0828 30.4975C34.3556 30.7704 34.5089 31.1404 34.5089 31.5263C34.5089 31.9122 34.3556 32.2823 34.0828 32.5552C33.8099 32.828 33.4398 32.9813 33.0539 32.9813Z" fill="#667085"/>
</svg>
