<svg width="18" height="18" viewBox="0 0 30 30" fill="none" xmlns="http://www.w3.org/2000/svg">
<rect opacity="0.2" x="0.5" y="0.5" width="29" height="29" rx="14.5" fill="#FF1B28" fill-opacity="0.1" stroke="#FF3030"/>
<path d="M15.7614 14.9995L18.9963 11.7646C19.2068 11.5542 19.2068 11.2139 18.9963 11.0035C18.7858 10.7931 18.4456 10.7931 18.2352 11.0035L15.0002 14.2385L11.7654 11.0035C11.5549 10.7931 11.2147 10.7931 11.0043 11.0035C10.7938 11.2139 10.7938 11.5542 11.0043 11.7646L14.2392 14.9995L11.0043 18.2345C10.7938 18.4449 10.7938 18.7851 11.0043 18.9955C11.1092 19.1005 11.2471 19.1532 11.3849 19.1532C11.5226 19.1532 11.6604 19.1005 11.7654 18.9955L15.0002 15.7606L18.2352 18.9955C18.3402 19.1005 18.4779 19.1532 18.6157 19.1532C18.7535 19.1532 18.8913 19.1005 18.9963 18.9955C19.2068 18.7851 19.2068 18.4449 18.9963 18.2345L15.7614 14.9995Z" fill="#FF3030" stroke="#FF3030" stroke-width="0.5"/>
</svg>
