<svg width="22" height="26" viewBox="0 0 22 26" fill="none" xmlns="http://www.w3.org/2000/svg">
<g clip-path="url(#clip0_2309_161)">
<path fill-rule="evenodd" clip-rule="evenodd" d="M2.00566 0C0.904874 0 0.0126953 0.923 0.0126953 2.06131V23.9342C0.0126953 25.0729 0.904874 25.9955 2.00566 25.9955H19.9883C21.0887 25.9955 21.9817 25.0729 21.9817 23.9342V8.25094L14.5555 0L2.00566 0Z" fill="#45B058"/>
<path d="M7.97724 17.5486C8.02674 17.6071 8.05503 17.6802 8.05503 17.7607C8.05503 17.9142 7.93481 18.0532 7.77885 18.0532C7.70813 18.0532 7.63035 18.0239 7.58085 17.9581C7.30506 17.6144 6.83795 17.3946 6.39953 17.3946C5.3667 17.3946 4.58178 18.214 4.58178 19.3771C4.58178 20.5329 5.3671 21.3592 6.39953 21.3592C6.84503 21.3592 7.28345 21.1618 7.58085 20.8031C7.62995 20.7446 7.70813 20.7084 7.77885 20.7084C7.94188 20.7084 8.05503 20.8543 8.05503 21.0082C8.05503 21.0814 8.02674 21.1545 7.97724 21.213C7.60913 21.6079 7.10706 21.9008 6.39992 21.9008C5.04181 21.9008 3.97363 20.8766 3.97363 19.3771C3.97363 17.8777 5.04181 16.8535 6.39992 16.8535C7.10706 16.8539 7.6162 17.1464 7.97724 17.5486ZM10.6495 21.9012C9.94938 21.9012 9.39742 21.6599 8.99435 21.2938C8.9307 21.2353 8.90242 21.1549 8.90242 21.0745C8.90242 20.9278 9.00849 20.7669 9.1782 20.7669C9.23478 20.7669 9.29842 20.7815 9.34792 20.8254C9.6732 21.1256 10.1258 21.3592 10.6707 21.3592C11.5126 21.3592 11.7813 20.8912 11.7813 20.5179C11.7813 19.2597 8.98728 19.9548 8.98728 18.2136C8.98728 17.4093 9.68028 16.8604 10.607 16.8604C11.2152 16.8604 11.7388 17.0501 12.1207 17.3796C12.1843 17.4381 12.2197 17.5185 12.2197 17.599C12.2197 17.7452 12.0995 17.8915 11.9435 17.8915C11.887 17.8915 11.8233 17.8695 11.7738 17.8257C11.4273 17.5332 10.996 17.4015 10.5642 17.4015C9.99849 17.4015 9.59503 17.716 9.59503 18.1771C9.59503 19.2744 12.389 18.6451 12.389 20.4667C12.3894 21.1768 11.9227 21.9012 10.6495 21.9012ZM17.3257 17.3292L15.6918 21.5278C15.614 21.7253 15.4227 21.8569 15.2251 21.8569H15.2109C15.0058 21.8569 14.8149 21.7253 14.7367 21.5278L13.1095 17.3292C13.0954 17.2927 13.0883 17.2561 13.0883 17.2122C13.0883 17.066 13.2152 16.8901 13.4065 16.8901C13.5267 16.8901 13.6399 16.9632 13.6894 17.0875L15.2172 21.1468L16.745 17.0875C16.7875 16.9705 16.9006 16.8901 17.0279 16.8901C17.2117 16.8901 17.3461 17.0436 17.3461 17.2122C17.3465 17.2488 17.3394 17.2927 17.3257 17.3292Z" fill="white"/>
<path fill-rule="evenodd" clip-rule="evenodd" d="M22 8.26964V8.67589H16.9715C16.9715 8.67589 14.4918 8.16402 14.5641 5.95117C14.5641 5.95117 14.6458 8.26964 16.9224 8.26964H22Z" fill="#349C42"/>
<path opacity="0.5" fill-rule="evenodd" clip-rule="evenodd" d="M14.5742 0.00195312V5.91736C14.5742 6.59011 15.0079 8.26995 16.9722 8.26995H22.0008L14.5742 0.00195312Z" fill="white"/>
</g>
<defs>
<clipPath id="clip0_2309_161">
<rect width="22" height="26" fill="white"/>
</clipPath>
</defs>
</svg>
