<svg width="74" height="74" viewBox="0 0 74 74" fill="none" xmlns="http://www.w3.org/2000/svg">
<path d="M0 37L4.08982 34.1193L0.555 30.5779L5.08089 28.4437L2.22 24.3407L7.04982 23.0325L4.95536 18.4934L9.93714 18.0507L8.65536 13.2143L13.6437 13.6371L13.2143 8.65536L18.0507 9.93714L18.4934 4.95536L23.0391 7.04982L24.3407 2.22L28.4437 5.08089L30.5779 0.555L34.1193 4.08982L37 0L39.8807 4.08982L43.4221 0.555L45.5562 5.08089L49.6593 2.22L50.9675 7.04982L55.5066 4.95536L55.9493 9.93714L60.7857 8.65536L60.3629 13.6437L65.3446 13.2143L64.0629 18.0507L69.0446 18.4934L66.9502 23.0391L71.78 24.3407L68.9191 28.4437L73.445 30.5779L69.9102 34.1193L74 37L69.9102 39.8807L73.445 43.4221L68.9191 45.5562L71.78 49.6593L66.9502 50.9675L69.0446 55.5066L64.0629 55.9493L65.3446 60.7857L60.3562 60.3629L60.7857 65.3446L55.9493 64.0629L55.5066 69.0446L50.9609 66.9502L49.6593 71.78L45.5562 68.9191L43.4221 73.445L39.8807 69.9102L37 74L34.1193 69.9102L30.5779 73.445L28.4437 68.9191L24.3407 71.78L23.0325 66.9502L18.4934 69.0446L18.0507 64.0629L13.2143 65.3446L13.6371 60.3562L8.65536 60.7857L9.93714 55.9493L4.95536 55.5066L7.04982 50.9609L2.22 49.6593L5.08089 45.5562L0.555 43.4221L4.08982 39.8807L0 37Z" fill="url(#paint0_linear_2003_5)"/>
<defs>
<linearGradient id="paint0_linear_2003_5" x1="37" y1="11.8929" x2="37" y2="79.7962" gradientUnits="userSpaceOnUse">
<stop stop-color="#FF545A"/>
<stop offset="1" stop-color="#C52127"/>
</linearGradient>
</defs>
</svg>
