<svg width="88" height="88" viewBox="0 0 88 88" fill="none" xmlns="http://www.w3.org/2000/svg">
<g clip-path="url(#clip0_2005_195)">
<path fill-rule="evenodd" clip-rule="evenodd" d="M24.0001 50.594C24.4781 50.8931 24.8884 51.1532 25.1045 51.2918C26.4174 52.1382 29.9336 53.8448 31.9718 55.8618C33.5273 57.4002 34.2297 59.1232 33.0265 60.807C31.9328 62.3374 29.8099 62.6953 27.2666 62.2402C21.793 61.2606 14.3109 56.6348 12.4114 54.6536C12.2042 54.4372 12.211 54.0947 12.4274 53.8875C12.6428 53.6811 12.9852 53.6879 13.1925 53.9043C15.0158 55.8051 22.2029 60.234 27.4576 61.1746C29.5115 61.5419 31.2624 61.4133 32.1456 60.1768C33.0178 58.9569 32.3382 57.7471 31.2105 56.632C29.2273 54.6686 25.7964 53.0256 24.5175 52.2021C23.7161 51.6855 20.6039 49.8014 20.3761 49.5757C20.0906 49.2932 20.2201 49.0057 20.2697 48.9145C20.3081 48.8438 20.522 48.5037 20.9837 48.6746C27.5678 51.1081 39.3555 50.2851 48.8519 45.8408C58.2648 41.4356 65.4375 33.4371 62.8655 21.4003C62.8035 21.1078 62.9903 20.8199 63.2819 20.7569C63.5743 20.695 63.8623 20.8817 63.9242 21.1742C66.6189 33.7862 59.1727 42.2065 49.3116 46.8216C41.0009 50.7113 30.9826 51.8721 24.0001 50.594Z" fill="#D02A30"/>
<path fill-rule="evenodd" clip-rule="evenodd" d="M63.4433 21.9298C62.8613 23.0662 62.318 24.2164 61.6473 25.3083C59.8611 28.2177 57.3889 30.8624 54.4375 32.6025C54.1788 32.7542 53.8473 32.6678 53.6954 32.4111C53.5437 32.1524 53.6302 31.8209 53.8869 31.669C56.689 30.0193 59.0294 27.5021 60.7238 24.7416C61.4908 23.4914 62.0895 22.1624 62.7737 20.8681C62.8086 20.8039 63.0887 20.2324 63.181 20.128C63.3944 19.8837 63.6388 19.9189 63.7498 19.9496C63.8428 19.9742 63.9484 20.0259 64.0458 20.1331C64.1252 20.2215 64.2366 20.4248 64.3277 20.7282C64.6226 21.6993 64.9853 24.0629 65.0859 24.4445C66.2385 28.8198 68.0453 32.6967 69.8454 36.826C69.9639 37.1005 69.8387 37.4203 69.565 37.5399C69.2914 37.6594 68.9726 37.5333 68.853 37.2597C67.0298 33.0783 65.2056 29.1496 64.0397 24.7211C63.9697 24.459 63.6619 22.986 63.4433 21.9298Z" fill="#D02A30"/>
</g>
<defs>
<clipPath id="clip0_2005_195">
<rect width="61.7206" height="61.7206" fill="white" transform="matrix(0.758972 -0.651124 -0.651124 -0.758972 40.1875 87.0312)"/>
</clipPath>
</defs>
</svg>
