<svg width="127" height="127" viewBox="0 0 127 127" fill="none" xmlns="http://www.w3.org/2000/svg">
<g filter="url(#filter0_i_2414_184)">
<rect width="127" height="127" rx="63.5" fill="url(#paint0_linear_2414_184)"/>
<g clip-path="url(#clip0_2414_184)">
<path d="M75.5264 73.8229L85.2825 64.3025C85.7964 63.8047 86.4726 63.5089 87.187 63.4694C87.9014 63.4299 88.6061 63.6493 89.1717 64.0874C89.7374 64.5255 90.1261 65.1529 90.2665 65.8545C90.407 66.5561 90.2897 67.2847 89.9363 67.9068L82.8948 80.1495L75.5264 73.8229Z" fill="#F4AA88"/>
<path d="M78.7657 70.6516L75.5264 73.8225L82.8948 80.1492C86.0505 74.6513 87.8147 71.5945 88.8337 69.8531C88.959 69.6086 89.0157 69.3347 88.9978 69.0606C88.98 68.7864 88.8882 68.5222 88.7322 68.2961C88.5762 68.0699 88.3619 67.8902 88.112 67.7761C87.8621 67.662 87.5859 67.6177 87.3128 67.6479L83.7769 68.165C81.8856 68.4433 80.1313 69.3138 78.7657 70.6516Z" fill="#F48C74"/>
<path d="M48.7744 66.3641V84.6141H51.1241C52.5917 84.5684 51.953 84.4848 66.6442 89.937C69.1925 90.8736 71.9486 91.0945 74.6135 90.5757C77.2785 90.057 79.7504 88.8183 81.7613 86.9942L99.0228 71.4208C99.7278 70.8042 100.171 69.9415 100.261 69.0092C100.351 68.0768 100.081 67.1453 99.5072 66.4052C98.9331 65.665 98.0979 65.1721 97.1725 65.0274C96.2471 64.8826 95.3013 65.0969 94.5287 65.6265L79.5941 75.5119C79.7757 75.0574 79.8652 74.5713 79.8575 74.0819C79.8497 73.5925 79.7448 73.1095 79.5488 72.661C79.3529 72.2125 79.0697 71.8074 78.7159 71.4691C78.3621 71.1309 77.9446 70.8664 77.4877 70.6908L60.2871 64.0904C58.9106 63.5588 57.4338 63.3371 55.9618 63.4409C54.4898 63.5447 53.0588 63.9716 51.7705 64.6911L48.7744 66.3641Z" fill="#F4CDA6"/>
<path d="M81.9901 81.6932L83.2067 80.6059C83.4244 80.3994 83.5575 80.1195 83.5803 79.8204C83.6031 79.5212 83.5138 79.2244 83.3299 78.9874C83.146 78.7504 82.8806 78.5902 82.5852 78.538C82.2898 78.4858 81.9855 78.5452 81.7315 78.7048C81.6175 78.7504 80.4008 79.5717 80.4692 79.5109C80.3065 79.6231 80.1731 79.773 80.0805 79.9477C79.9878 80.1224 79.9386 80.3169 79.9369 80.5146V80.796C79.9306 81.0365 79.9961 81.2734 80.1252 81.4765C80.2542 81.6796 80.4409 81.8395 80.6614 81.9359C80.8819 82.0322 81.1261 82.0606 81.3628 82.0174C81.5995 81.9742 81.8179 81.8613 81.9901 81.6932Z" fill="#F4CDA6"/>
<path d="M99.0228 71.4197L81.7613 86.993C79.7466 88.8108 77.2728 90.0424 74.608 90.5545C71.9432 91.0665 69.1891 90.8394 66.6442 89.8978L53.2761 84.9627C52.105 84.5217 51.5804 84.5901 48.7744 84.6358V78.6437C51.2154 78.6437 51.9454 78.484 53.2761 78.9707L66.6442 83.9134C69.1876 84.8545 71.9397 85.0836 74.6037 84.5757C77.2677 84.0678 79.7425 82.8423 81.7613 81.0314L98.7186 65.709C99.1633 66.03 99.5305 66.4466 99.7932 66.9281C100.056 67.4096 100.207 67.9439 100.236 68.4916C100.266 69.0393 100.172 69.5866 99.9618 70.0933C99.7517 70.6 99.4309 71.0532 99.0228 71.4197Z" fill="#F4AA88"/>
<path d="M47.3225 65.4355H28.7607V88.6359H48.7749V66.8955C48.7749 66.5096 48.6221 66.1394 48.35 65.8658C48.0778 65.5923 47.7084 65.4376 47.3225 65.4355Z" fill="#D1EBF6"/>
<path d="M40.6377 65.4355H31.6572V68.9411C31.6572 69.3856 31.8316 69.8124 32.1431 70.1295C32.4546 70.4467 32.8781 70.6288 33.3225 70.6368H38.9496C39.172 70.6368 39.3921 70.5929 39.5974 70.5076C39.8027 70.4223 39.9891 70.2972 40.146 70.1397C40.3029 69.9821 40.427 69.7951 40.5114 69.5894C40.5958 69.3837 40.6388 69.1634 40.6377 68.9411V65.4355Z" fill="#F9FFF6"/>
<path d="M28.7607 74.7578H48.7749V88.6202H28.7607V74.7578Z" fill="#A9C3F6"/>
<path d="M28.7607 85.625H48.7749V88.621H28.7607V85.625Z" fill="#86A0F6"/>
<path d="M47.3218 65.4355H44.2041V88.6359H48.7666V66.8955C48.7666 66.511 48.6149 66.1419 48.3444 65.8685C48.0738 65.5951 47.7064 65.4396 47.3218 65.4355Z" fill="#00987F"/>
<path d="M44.2041 74.7129H48.7742V88.6285H44.2041V74.7129Z" fill="#00987F"/>
<path d="M48.7744 80.834V88.6359H32.6611V84.8338C32.6611 83.775 33.0817 82.7596 33.8304 82.0109C34.5791 81.2622 35.5945 80.8416 36.6533 80.8416L48.7744 80.834Z" fill="#00987F"/>
<path d="M32.6611 85.625H48.7744V88.621H32.6611V85.625Z" fill="#00987F"/>
<path d="M79.8608 63.0927C83.5523 63.0927 86.5449 60.1002 86.5449 56.4087C86.5449 52.7172 83.5523 49.7246 79.8608 49.7246C76.1693 49.7246 73.1768 52.7172 73.1768 56.4087C73.1768 60.1002 76.1693 63.0927 79.8608 63.0927Z" fill="#4895EF"/>
<path d="M84.6439 51.7486C84.0311 51.0961 83.2934 50.5734 82.4747 50.2114C81.656 49.8495 80.773 49.6557 79.8779 49.6415C78.9829 49.6273 78.0941 49.793 77.2644 50.1288C76.4346 50.4647 75.6807 50.9637 75.0475 51.5964C74.4143 52.2292 73.9146 52.9826 73.5781 53.8121C73.2416 54.6416 73.0752 55.5302 73.0886 56.4253C73.1021 57.3203 73.2952 58.2036 73.6565 59.0225C74.0178 59.8415 74.54 60.5796 75.192 61.193L84.6439 51.7486Z" fill="white"/>
<path d="M53.3139 44.875C54.0683 44.1209 55.0913 43.6973 56.1579 43.6973C57.2245 43.6973 58.2475 44.1209 59.0019 44.875L65.6099 51.483C66.0175 51.8474 66.3467 52.2911 66.5771 52.7869C66.8075 53.2827 66.9345 53.8203 66.9502 54.3669C66.9658 54.9134 66.8699 55.4574 66.6683 55.9657C66.4667 56.4739 66.1635 56.9357 65.7774 57.3228C65.3913 57.71 64.9303 58.0144 64.4226 58.2173C63.9149 58.4203 63.3712 58.5177 62.8246 58.5035C62.278 58.4893 61.7401 58.3638 61.2436 58.1347C60.7472 57.9056 60.3026 57.5776 59.9372 57.1709L53.3292 50.5629C52.9538 50.1909 52.6557 49.7485 52.4517 49.261C52.2478 48.7735 52.1421 48.2506 52.1406 47.7221C52.1392 47.1937 52.2421 46.6702 52.4435 46.1816C52.6448 45.693 52.9406 45.249 53.3139 44.875Z" fill="#F4504C"/>
<path d="M56.6221 53.8693L62.31 48.1738L65.6102 51.474C66.0094 51.8406 66.3305 52.2841 66.5541 52.7778C66.7776 53.2716 66.8991 53.8054 66.9112 54.3473C66.9233 54.8892 66.8258 55.4279 66.6245 55.9312C66.4232 56.4344 66.1222 56.8918 65.7397 57.2758C65.3572 57.6598 64.9011 57.9626 64.3987 58.1659C63.8962 58.3693 63.3579 58.469 62.816 58.459C62.274 58.4491 61.7397 58.3298 61.2451 58.1082C60.7504 57.8866 60.3057 57.5673 59.9375 57.1696L56.6221 53.8693Z" fill="white"/>
<path d="M81.8075 32.6167L81.5262 30.1758L79.1841 30.9362C76.5649 31.7384 74.3083 33.4306 72.8045 35.7203C71.3007 38.0099 70.6443 40.7531 70.9488 43.4755L71.2301 45.9164L73.5722 45.2016C76.1992 44.3968 78.4613 42.6974 79.9657 40.3984C81.4701 38.0994 82.1218 35.3461 81.8075 32.6167Z" fill="#38C6A5"/>
<path d="M76.1423 78.6143C75.207 78.6143 75.9446 78.7588 59.8618 73.8085C59.6805 73.7408 59.5318 73.6066 59.446 73.4332C59.3602 73.2598 59.3438 73.0602 59.4 72.8751C59.4562 72.6899 59.5809 72.5332 59.7486 72.4368C59.9164 72.3403 60.1146 72.3115 60.3028 72.3561L75.2983 76.9718C76.0344 77.2259 76.8413 77.1772 77.5415 76.8364C78.2417 76.4955 78.7778 75.8905 79.0319 75.1544C79.286 74.4183 79.2373 73.6114 78.8965 72.9112C78.5556 72.211 77.9506 71.6749 77.2145 71.4207L60.0139 64.7975C58.7406 64.3058 57.3746 64.1006 56.013 64.1965C54.6514 64.2925 53.3277 64.6872 52.136 65.3526L49.1475 67.0255C48.9711 67.1264 48.7618 67.153 48.5657 67.0995C48.3696 67.046 48.2028 66.9168 48.1019 66.7404C48.0011 66.5639 47.9745 66.3546 48.028 66.1585C48.0815 65.9625 48.2106 65.7956 48.3871 65.6948L51.3831 64.0295C52.7629 63.2569 54.2961 62.7984 55.8734 62.6867C57.4508 62.575 59.0333 62.8128 60.5081 63.3831L77.762 70.0064C78.7302 70.3837 79.5361 71.0875 80.0403 71.9962C80.5445 72.9048 80.7153 73.961 80.5231 74.9822C80.3309 76.0035 79.7879 76.9254 78.988 77.5886C78.188 78.2519 77.1814 78.6147 76.1423 78.6143ZM71.23 46.6768C71.0918 46.6788 70.9556 46.6432 70.8361 46.5736C70.7167 46.5041 70.6184 46.4033 70.5519 46.2821C70.4855 46.1609 70.4533 46.0238 70.4589 45.8857C70.4645 45.7476 70.5076 45.6136 70.5837 45.4981L76.2412 37.0195C76.297 36.9365 76.3687 36.8654 76.452 36.8101C76.5354 36.7549 76.6289 36.7166 76.7271 36.6975C76.8252 36.6785 76.9262 36.679 77.0242 36.699C77.1222 36.719 77.2153 36.7581 77.2982 36.8142C77.4636 36.9269 77.578 37.1002 77.6164 37.2967C77.6548 37.4931 77.6143 37.6968 77.5035 37.8636L71.8612 46.3422C71.7914 46.4454 71.6974 46.5299 71.5873 46.5882C71.4773 46.6466 71.3546 46.677 71.23 46.6768Z" fill="#302D3D"/>
<path d="M78.2709 71.9067C78.1205 71.9061 77.9737 71.8609 77.849 71.7768C77.7243 71.6927 77.6273 71.5736 77.5704 71.4344C77.5134 71.2952 77.499 71.1423 77.5289 70.9949C77.5589 70.8475 77.6318 70.7123 77.7386 70.6064L84.7496 63.7627C85.3944 63.1354 86.244 62.7619 87.1421 62.7111C88.0403 62.6602 88.9266 62.9353 89.6381 63.4858C90.3495 64.0363 90.8383 64.8251 91.0146 65.7073C91.1908 66.5894 91.0426 67.5055 90.5973 68.2871L89.8368 69.5875C89.7869 69.6743 89.7204 69.7505 89.641 69.8117C89.5616 69.8728 89.471 69.9178 89.3742 69.9439C89.2775 69.97 89.1765 69.9768 89.0772 69.964C88.9778 69.9511 88.8819 69.9187 88.7951 69.8688C88.7082 69.8189 88.632 69.7523 88.5708 69.673C88.5097 69.5936 88.4648 69.5029 88.4386 69.4062C88.4125 69.3095 88.4057 69.2085 88.4186 69.1092C88.4315 69.0098 88.4638 68.9139 88.5137 68.827L89.2741 67.5267C89.6341 67.0649 89.7959 66.479 89.7239 65.8979C89.6519 65.3167 89.352 64.788 88.8901 64.428C88.4283 64.068 87.8424 63.9063 87.2612 63.9783C86.6801 64.0503 86.1514 64.3502 85.7914 64.812L78.7804 71.6558C78.6493 71.8021 78.4668 71.892 78.2709 71.9067Z" fill="#302D3D"/>
<path d="M66.3782 90.6135L53.0177 85.6708C51.9227 85.2754 51.4968 85.3515 48.7897 85.3971C48.5881 85.3971 48.3946 85.317 48.252 85.1744C48.1094 85.0317 48.0293 84.8383 48.0293 84.6367V66.3867C48.0282 66.2506 48.0636 66.1168 48.1318 65.9991C48.2 65.8814 48.2985 65.7841 48.4171 65.7175L51.4132 64.0522C52.7987 63.2764 54.3384 62.8162 55.9224 62.7045C57.5064 62.5927 59.0955 62.8322 60.5762 63.4058L77.7616 70.0062C78.5679 70.3152 79.2669 70.8522 79.7733 71.5516C80.2796 72.251 80.5715 73.0827 80.6132 73.9452L94.1106 64.9875C95.0452 64.3698 96.1789 64.1281 97.2842 64.3111C98.3895 64.494 99.3848 65.0879 100.071 65.9738C100.756 66.8597 101.082 67.9721 100.982 69.088C100.882 70.2039 100.365 71.2408 99.5323 71.9909L82.2709 87.5643C80.1533 89.4762 77.5524 90.7713 74.7505 91.3089C71.9486 91.8465 69.053 91.606 66.3782 90.6135ZM66.9105 89.1916C69.322 90.0803 71.9307 90.293 74.4544 89.8065C76.9781 89.3199 79.3207 88.1528 81.2291 86.4312L98.4906 70.8579C98.988 70.3527 99.2847 69.6837 99.3251 68.9758C99.3656 68.268 99.1471 67.5695 98.7105 67.0109C98.2738 66.4523 97.6488 66.0716 96.9521 65.94C96.2554 65.8083 95.5346 65.9347 94.9242 66.2954L80.0124 76.1656C79.8776 76.2541 79.7181 76.2974 79.5571 76.2893C79.396 76.2812 79.2417 76.2221 79.1164 76.1205C78.9911 76.0189 78.9014 75.8801 78.8602 75.7242C78.8189 75.5683 78.8283 75.4033 78.887 75.2531C79.0281 74.8938 79.0968 74.51 79.089 74.124C79.0812 73.738 78.9972 73.3574 78.8417 73.004C78.6862 72.6506 78.4623 72.3315 78.183 72.0649C77.9037 71.7984 77.5744 71.5898 77.2141 71.451L60.0135 64.805C58.7421 64.3117 57.3776 64.105 56.0172 64.1996C54.6568 64.2943 53.334 64.6879 52.1432 65.3525L49.5349 66.8049V83.861C53.2534 83.8002 51.147 83.3592 66.9105 89.1916Z" fill="#302D3D"/>
<path d="M48.7746 89.3969H28.7604C28.5587 89.3969 28.3653 89.3168 28.2227 89.1742C28.0801 89.0316 28 88.8382 28 88.6365V65.4362C28 65.2345 28.0801 65.0411 28.2227 64.8985C28.3653 64.7559 28.5587 64.6758 28.7604 64.6758H47.3222C47.9098 64.6778 48.4726 64.9126 48.8873 65.3288C49.3021 65.745 49.535 66.3086 49.535 66.8962V88.6365C49.535 88.8382 49.4549 89.0316 49.3123 89.1742C49.1697 89.3168 48.9763 89.3969 48.7746 89.3969ZM29.5208 87.8761H48.0142V66.8962C48.0142 66.712 47.9415 66.5352 47.812 66.4042C47.6824 66.2732 47.5064 66.1986 47.3222 66.1966H29.5208V87.8761Z" fill="#302D3D"/>
<path d="M48.7749 89.3969H44.2124C44.0107 89.3969 43.8173 89.3168 43.6747 89.1742C43.5321 89.0316 43.4519 88.8382 43.4519 88.6365C43.4519 88.4348 43.5321 88.2414 43.6747 88.0988C43.8173 87.9562 44.0107 87.8761 44.2124 87.8761H48.0144V66.8962C48.0145 66.712 47.9418 66.5352 47.8122 66.4042C47.6827 66.2732 47.5067 66.1986 47.3225 66.1966H44.9652V80.8346C44.9652 81.0363 44.8851 81.2297 44.7424 81.3723C44.5998 81.5149 44.4064 81.595 44.2048 81.595C44.0031 81.595 43.8097 81.5149 43.6671 81.3723C43.5245 81.2297 43.4443 81.0363 43.4443 80.8346V65.4362C43.4443 65.2345 43.5245 65.0411 43.6671 64.8985C43.8097 64.7559 44.0031 64.6758 44.2048 64.6758H47.3225C47.91 64.6778 48.4729 64.9126 48.8876 65.3288C49.3024 65.745 49.5353 66.3086 49.5353 66.8962V88.6365C49.5353 88.8382 49.4552 89.0316 49.3126 89.1742C49.1699 89.3168 48.9765 89.3969 48.7749 89.3969Z" fill="#302D3D"/>
<path d="M48.775 89.3958H32.6618C32.4601 89.3958 32.2667 89.3157 32.1241 89.1731C31.9815 89.0305 31.9014 88.837 31.9014 88.6354V84.8333C31.9034 83.5734 32.4047 82.3658 33.2956 81.4749C34.1864 80.5841 35.3941 80.0827 36.654 80.0807H48.775C48.9767 80.0807 49.1701 80.1608 49.3127 80.3034C49.4553 80.446 49.5354 80.6394 49.5354 80.8411V88.6354C49.5354 88.837 49.4553 89.0305 49.3127 89.1731C49.1701 89.3157 48.9767 89.3958 48.775 89.3958ZM33.4222 87.8749H48.0146V81.5939H36.654C35.7962 81.5959 34.9742 81.9381 34.3683 82.5454C33.7624 83.1527 33.4222 83.9755 33.4222 84.8333V87.8749ZM79.8608 63.8534C78.1364 63.855 76.4648 63.2586 75.131 62.1657C73.7971 61.0729 72.8835 59.5513 72.5459 57.8602C72.2083 56.1692 72.4676 54.4134 73.2796 52.8922C74.0916 51.3709 75.4061 50.1784 76.9989 49.5178C78.5917 48.8571 80.3644 48.7694 82.0147 49.2694C83.665 49.7694 85.0908 50.8263 86.0491 52.2599C87.0074 53.6935 87.4389 55.4151 87.27 57.1312C87.1011 58.8473 86.3423 60.4517 85.1229 61.671C84.4335 62.3644 83.6136 62.9143 82.7103 63.2889C81.8071 63.6635 80.8386 63.8554 79.8608 63.8534ZM79.8608 50.4853C78.8866 50.4844 77.9271 50.7239 77.0675 51.1825C76.2079 51.6411 75.4746 52.3046 74.9328 53.1143C74.3909 53.9241 74.0571 54.8549 73.961 55.8244C73.8649 56.794 74.0094 57.7723 74.3817 58.6726C74.754 59.573 75.3427 60.3676 76.0955 60.986C76.8483 61.6045 77.7421 62.0277 78.6975 62.2182C79.653 62.4087 80.6407 62.3606 81.5732 62.0781C82.5056 61.7956 83.354 61.2875 84.0431 60.5988C84.8679 59.7694 85.4291 58.7147 85.656 57.5672C85.8829 56.4197 85.7655 55.2308 85.3185 54.1499C84.8715 53.0689 84.1149 52.1443 83.1438 51.4923C82.1727 50.8402 81.0305 50.4899 79.8608 50.4853Z" fill="#302D3D"/>
<path d="M75.1918 61.9539C75.0773 61.9528 74.9644 61.9271 74.8608 61.8785C74.7572 61.83 74.6652 61.7597 74.591 61.6725C73.2062 60.2737 72.4317 58.3833 72.437 56.4149C72.4422 54.4465 73.2269 52.5604 74.6193 51.169C76.0116 49.7776 77.8984 48.9943 79.8668 48.9905C81.8352 48.9866 83.725 49.7625 85.1228 51.1484C85.2019 51.2191 85.2662 51.3048 85.3121 51.4005C85.358 51.4962 85.3845 51.6001 85.3901 51.706C85.3958 51.812 85.3805 51.9181 85.345 52.0181C85.3096 52.1181 85.2547 52.2102 85.1836 52.289L75.7317 61.7334C75.6606 61.8038 75.5763 61.8596 75.4837 61.8974C75.391 61.9353 75.2918 61.9545 75.1918 61.9539ZM79.8607 50.4868C78.746 50.4862 77.6538 50.8002 76.7095 51.3926C75.7652 51.9851 75.0073 52.8319 74.5228 53.8358C74.0383 54.8398 73.8469 55.96 73.9707 57.0679C74.0944 58.1757 74.5282 59.2261 75.2222 60.0985L83.5107 51.7719C82.4746 50.9428 81.1878 50.4897 79.8607 50.4868ZM62.7666 59.1099C61.4969 59.1072 60.2801 58.6013 59.3827 57.7031L52.7747 51.0951C51.8772 50.1977 51.373 48.9805 51.373 47.7113C51.373 46.4421 51.8772 45.2249 52.7747 44.3274C53.6721 43.43 54.8893 42.9258 56.1585 42.9258C57.4277 42.9258 58.6449 43.43 59.5424 44.3274L66.1504 50.9354C66.8153 51.6068 67.2671 52.4595 67.4493 53.3866C67.6315 54.3137 67.5359 55.274 67.1745 56.147C66.8131 57.02 66.202 57.7669 65.4179 58.294C64.6337 58.8211 63.7114 59.1049 62.7666 59.1099ZM56.1357 44.4567C55.4948 44.4657 54.8707 44.6629 54.341 45.0237C53.8113 45.3846 53.3993 45.8931 53.1562 46.4862C52.9132 47.0792 52.8498 47.7307 52.9739 48.3595C53.098 48.9883 53.4043 49.5667 53.8545 50.0229L60.4625 56.631C61.0834 57.1994 61.8996 57.5066 62.7412 57.4884C63.5828 57.4702 64.385 57.1281 64.9808 56.5333C65.5765 55.9386 65.9199 55.1369 65.9395 54.2954C65.9591 53.4538 65.6533 52.637 65.0858 52.0152L58.4778 45.4072C58.1711 45.0999 57.8056 44.8574 57.4033 44.6941C57.001 44.5308 56.5699 44.4501 56.1357 44.4567Z" fill="#302D3D"/>
<path d="M62.7665 59.1091C61.4969 59.1063 60.2801 58.6005 59.3827 57.7023L56.0825 54.4173C55.9408 54.2748 55.8613 54.0821 55.8613 53.8812C55.8613 53.6803 55.9408 53.4876 56.0825 53.3451L61.778 47.6496C61.9204 47.508 62.1132 47.4285 62.3141 47.4285C62.515 47.4285 62.7077 47.508 62.8502 47.6496L66.1504 50.9498C66.8101 51.6219 67.2574 52.4733 67.4367 53.3978C67.6159 54.3224 67.5191 55.2792 67.1583 56.1492C66.7976 57.0191 66.1888 57.7636 65.4078 58.2899C64.6268 58.8163 63.7083 59.1012 62.7665 59.1091ZM57.6945 53.8698L60.4548 56.6301C61.0757 57.1986 61.8919 57.5057 62.7336 57.4875C63.5752 57.4694 64.3774 57.1273 64.9731 56.5325C65.5689 55.9377 65.9123 55.1361 65.9318 54.2945C65.9514 53.4529 65.6456 52.6362 65.0782 52.0144L62.3103 49.2465L57.6945 53.8698ZM71.23 46.6763C71.0431 46.6776 70.8624 46.6102 70.7221 46.4867C70.5819 46.3633 70.4919 46.1926 70.4695 46.0071L70.1882 43.5662C69.8563 40.6617 70.5503 37.7327 72.15 35.2859C73.7497 32.8391 76.1545 31.0286 78.9482 30.1676L81.2979 29.4528C81.4045 29.4184 81.5175 29.4079 81.6286 29.4222C81.7398 29.4365 81.8464 29.4752 81.9408 29.5355C82.0353 29.5958 82.1153 29.6763 82.175 29.7711C82.2347 29.8659 82.2728 29.9727 82.2864 30.084L82.5678 32.5249C82.9007 35.4306 82.2063 38.3611 80.6049 40.8084C79.0035 43.2556 76.5961 45.0653 73.8002 45.9235C71.2832 46.6991 71.3896 46.6763 71.23 46.6763ZM80.8796 31.1714L79.4044 31.6048C76.9452 32.3592 74.8281 33.9514 73.4208 36.1046C72.0136 38.2579 71.4052 40.8361 71.7014 43.3913L71.8763 44.9121L73.3515 44.4559C75.8052 43.7051 77.9189 42.1194 79.3258 39.9735C80.7328 37.8276 81.3444 35.257 81.0545 32.7074L80.8796 31.1714Z" fill="#302D3D"/>
<path d="M63.5572 69.7698C63.6904 69.7646 63.8177 69.7136 63.9175 69.6253C64.0174 69.5371 64.0836 69.417 64.1051 69.2855C64.1266 69.1539 64.1019 69.019 64.0353 68.9036C63.9688 68.7882 63.8643 68.6993 63.7397 68.652L58.9035 66.789C57.9666 66.4314 56.9586 66.2995 55.9612 66.4038C54.9638 66.5082 54.005 66.8459 53.1623 67.3897C52.9282 67.5327 52.746 67.7468 52.6423 68.0007C52.5386 68.2546 52.5188 68.5351 52.586 68.8011C52.6531 69.067 52.8035 69.3045 53.0153 69.4788C53.2271 69.6532 53.4892 69.7551 53.7631 69.7698H63.5572Z" fill="white"/>
</g>
</g>
<defs>
<filter id="filter0_i_2414_184" x="0" y="-4" width="127" height="131" filterUnits="userSpaceOnUse" color-interpolation-filters="sRGB">
<feFlood flood-opacity="0" result="BackgroundImageFix"/>
<feBlend mode="normal" in="SourceGraphic" in2="BackgroundImageFix" result="shape"/>
<feColorMatrix in="SourceAlpha" type="matrix" values="0 0 0 0 0 0 0 0 0 0 0 0 0 0 0 0 0 0 127 0" result="hardAlpha"/>
<feOffset dy="-7"/>
<feGaussianBlur stdDeviation="2"/>
<feComposite in2="hardAlpha" operator="arithmetic" k2="-1" k3="1"/>
<feColorMatrix type="matrix" values="0 0 0 0 1 0 0 0 0 0.787448 0 0 0 0 0.658398 0 0 0 1 0"/>
<feBlend mode="normal" in2="shape" result="effect1_innerShadow_2414_184"/>
</filter>
<linearGradient id="paint0_linear_2414_184" x1="63.5" y1="0" x2="63.5" y2="127" gradientUnits="userSpaceOnUse">
<stop stop-color="white"/>
<stop offset="1" stop-color="#FFC6A5"/>
</linearGradient>
<clipPath id="clip0_2414_184">
<rect width="73" height="73" fill="white" transform="translate(28 24)"/>
</clipPath>
</defs>
</svg>
