<svg width="127" height="127" viewBox="0 0 127 127" fill="none" xmlns="http://www.w3.org/2000/svg">
<g filter="url(#filter0_i_2414_150)">
<rect width="127" height="127" rx="63.5" fill="url(#paint0_linear_2414_150)"/>
<path d="M102.03 69.3171V72.4605C102.03 73.4544 101.223 74.262 100.229 74.262H26.8139C25.82 74.262 25 73.4544 25 72.4605V69.3171C25 68.3232 25.8076 67.5156 26.8015 67.5156H100.204C101.21 67.5156 102.03 68.3232 102.03 69.3171ZM27.0873 76.722H99.9555V96.489H27.0873V76.722Z" fill="#3E6F7D"/>
<path d="M30.6904 91.6812V89.097C30.6904 88.4385 31.2247 87.8918 31.8956 87.8918H58.1977C58.8562 87.8918 59.4029 88.4261 59.4029 89.097V91.6812C59.4029 92.3397 58.8686 92.8864 58.1977 92.8864H31.8956C31.576 92.8864 31.2694 92.7594 31.0434 92.5334C30.8174 92.3074 30.6904 92.0008 30.6904 91.6812ZM66.1616 91.6812V81.543C66.1616 80.8846 66.6959 80.3379 67.3668 80.3379H95.135C95.7935 80.3379 96.3401 80.8721 96.3401 81.543V91.6812C96.3401 92.3397 95.8059 92.8864 95.135 92.8864H67.3668C66.6959 92.8864 66.1616 92.3521 66.1616 91.6812ZM30.6904 84.1273V81.543C30.6904 80.8846 31.2247 80.3379 31.8956 80.3379H58.1977C58.8562 80.3379 59.4029 80.8721 59.4029 81.543V84.1273C59.4029 84.7858 58.8686 85.3324 58.1977 85.3324H31.8956C31.2371 85.3324 30.6904 84.7858 30.6904 84.1273Z" fill="#0D4353"/>
<path d="M51.3198 59H46.6802C46.2363 60.8438 45.2339 63.1864 43 65H55C52.7661 63.1713 51.7637 60.8438 51.3198 59Z" fill="#0D4353"/>
<path d="M27.0869 74.2617H99.9551V76.7217H27.0869V74.2617Z" fill="#0D4353"/>
<path d="M71.9857 26.8667C71.9857 25.2836 70.698 24 69.1098 24H28.8759C27.2877 24 26 25.2836 26 26.8667V52.696H72V26.8667H71.9857ZM26 52.7103V56.1333C26 57.7164 27.2877 59 28.8759 59H69.1241C70.7123 59 72 57.7164 72 56.1333V52.7103H26Z" fill="#00987F"/>
<path d="M69 52.2678V27.7178C69 27.3158 68.6871 27 68.2888 27H29.7112C29.3129 27 29 27.3158 29 27.7178V52.2822C29 52.6842 29.3129 53 29.7112 53H68.2888C68.6871 53 69 52.6698 69 52.2678Z" fill="#F6F0F5"/>
<path d="M40 67.2991C40 67.6916 40.3227 68 40.7335 68H57.2665C57.6773 68 58 67.6916 58 67.2991C58 66.0234 56.9291 65 55.5941 65H42.3912C41.0709 65 40 66.0374 40 67.2991Z" fill="#00987F"/>
<path d="M46.5805 58.3523C46.9167 58.3523 47.1893 58.0798 47.1893 57.7436C47.1893 57.4073 46.9167 57.1348 46.5805 57.1348C46.2442 57.1348 45.9717 57.4073 45.9717 57.7436C45.9717 58.0798 46.2442 58.3523 46.5805 58.3523Z" fill="#F6F0F5"/>
<path d="M49.9105 58.3523C50.2468 58.3523 50.5193 58.0798 50.5193 57.7436C50.5193 57.4073 50.2468 57.1348 49.9105 57.1348C49.5743 57.1348 49.3018 57.4073 49.3018 57.7436C49.3018 58.0798 49.5743 58.3523 49.9105 58.3523Z" fill="#F6F0F5"/>
<path d="M53.2279 58.3523C53.5642 58.3523 53.8367 58.0798 53.8367 57.7436C53.8367 57.4073 53.5642 57.1348 53.2279 57.1348C52.8917 57.1348 52.6191 57.4073 52.6191 57.7436C52.6191 58.0798 52.8917 58.3523 53.2279 58.3523Z" fill="#F6F0F5"/>
<path d="M93.7805 58.3399V68.0681H75.7529V58.3399C75.7529 57.6814 76.2872 57.1348 76.9581 57.1348H92.5878C93.2463 57.1472 93.7805 57.6814 93.7805 58.3399Z" fill="#FF5F00"/>
<path d="M91.109 47.1205V59.4329H78.4238V47.1205C78.4238 46.9342 78.6475 46.8348 78.7841 46.959L79.7408 47.8163C79.8899 47.9529 80.126 47.9529 80.275 47.8163L81.3187 46.8845C81.4678 46.7478 81.7038 46.7478 81.8529 46.8845L82.8966 47.8163C83.0456 47.9529 83.2817 47.9529 83.4308 47.8163L84.4869 46.872C84.636 46.7354 84.872 46.7354 85.0211 46.872L86.0647 47.8038C86.2138 47.9405 86.4499 47.9405 86.599 47.8038L87.6426 46.872C87.7917 46.7354 88.0278 46.7354 88.1769 46.872L89.2205 47.8038C89.3696 47.9405 89.6056 47.9405 89.7547 47.8038L90.7238 46.9466C90.8853 46.8348 91.109 46.9217 91.109 47.1205Z" fill="white"/>
<path d="M88.2269 51.1576H81.319C80.9836 51.1576 80.7227 50.8842 80.7227 50.5612C80.7227 50.2382 80.996 49.9648 81.319 49.9648H88.2269C88.5624 49.9648 88.8233 50.2382 88.8233 50.5612C88.8233 50.8842 88.5499 51.1576 88.2269 51.1576ZM88.2269 54.1518H81.319C80.9836 54.1518 80.7227 53.8785 80.7227 53.5554C80.7227 53.2324 80.996 52.9591 81.319 52.9591H88.2269C88.5624 52.9591 88.8233 53.2324 88.8233 53.5554C88.8233 53.8785 88.5499 54.1518 88.2269 54.1518ZM88.2269 57.1336H81.319C81.1609 57.1336 81.0092 57.0708 80.8973 56.959C80.7855 56.8471 80.7227 56.6954 80.7227 56.5373C80.7227 56.3791 80.7855 56.2274 80.8973 56.1156C81.0092 56.0037 81.1609 55.9409 81.319 55.9409H88.2269C88.3851 55.9409 88.5368 56.0037 88.6486 56.1156C88.7604 56.2274 88.8233 56.3791 88.8233 56.5373C88.8233 56.6954 88.7604 56.8471 88.6486 56.959C88.5368 57.0708 88.3851 57.1336 88.2269 57.1336Z" fill="black" fill-opacity="0.36"/>
<path d="M91.395 60.0287H78.1384C77.8029 60.0287 77.542 59.7553 77.542 59.4323C77.542 59.1093 77.8153 58.8359 78.1384 58.8359H91.395C91.5532 58.8359 91.7049 58.8988 91.8167 59.0106C91.9286 59.1224 91.9914 59.2741 91.9914 59.4323C91.9914 59.5905 91.9286 59.7422 91.8167 59.854C91.7049 59.9658 91.5532 60.0287 91.395 60.0287Z" fill="#0D4353"/>
<path d="M82.9839 86.2552C82.9839 87.2118 82.2136 87.9946 81.257 87.9946C80.3003 87.9946 79.5176 87.2118 79.5176 86.2552C79.5176 85.2985 80.3003 84.5158 81.257 84.5158C82.2136 84.5033 82.9839 85.2861 82.9839 86.2552Z" fill="white"/>
<path d="M64.3737 49.7985H57.1359C56.8611 49.7985 56.5975 49.6893 56.4031 49.495C56.2088 49.3006 56.0996 49.037 56.0996 48.7622V44.6105C56.0996 44.3357 56.2088 44.0721 56.4031 43.8777C56.5975 43.6834 56.8611 43.5742 57.1359 43.5742H64.3737C64.6485 43.5742 64.9121 43.6834 65.1064 43.8777C65.3008 44.0721 65.41 44.3357 65.41 44.6105V48.7622C65.41 48.8983 65.3832 49.033 65.3311 49.1588C65.279 49.2845 65.2027 49.3988 65.1065 49.495C65.0102 49.5912 64.896 49.6676 64.7703 49.7196C64.6445 49.7717 64.5097 49.7985 64.3737 49.7985Z" fill="#FF5F00"/>
<path d="M50.8789 49.9271H33.441C32.7363 49.9271 32.165 49.3558 32.165 48.6512V31.2134C32.165 30.5088 32.7363 29.9375 33.441 29.9375H50.8787C51.5834 29.9375 52.1547 30.5088 52.1547 31.2134V48.6512C52.1547 49.3558 51.5835 49.9271 50.8789 49.9271Z" fill="#00987F" fill-opacity="0.15"/>
<path d="M63.6822 39.5806H57.7289C57.4705 39.5806 57.2228 39.478 57.0402 39.2953C56.8575 39.1127 56.7549 38.8649 56.7549 38.6066C56.7549 38.3483 56.8575 38.1005 57.0402 37.9179C57.2228 37.7352 57.4705 37.6326 57.7289 37.6326H63.6822C63.9406 37.6326 64.1883 37.7352 64.3709 37.9179C64.5536 38.1005 64.6562 38.3483 64.6562 38.6066C64.6562 38.8649 64.5536 39.1127 64.3709 39.2953C64.1883 39.478 63.9406 39.5806 63.6822 39.5806ZM63.6822 35.4265H57.7289C57.4705 35.4265 57.2228 35.3239 57.0402 35.1412C56.8575 34.9586 56.7549 34.7108 56.7549 34.4525C56.7549 34.1942 56.8575 33.9464 57.0402 33.7638C57.2228 33.5811 57.4705 33.4785 57.7289 33.4785H63.6822C63.9406 33.4785 64.1883 33.5811 64.3709 33.7638C64.5536 33.9464 64.6562 34.1942 64.6562 34.4525C64.6562 34.7108 64.5536 34.9586 64.3709 35.1412C64.1883 35.3239 63.9406 35.4265 63.6822 35.4265Z" fill="#98D2CD"/>
<path d="M52.1555 43.9836H46.5456V40.9062H52.1555V38.9583H46.5456V35.8809H52.1555V33.9329H46.5456V29.9375H44.5977V33.9329H39.724V29.9375H37.776V33.9329H32.166V35.8809H37.776V38.9583H32.166V40.9062H37.776V43.9836H32.166V45.9316H37.776V49.9271H39.724V45.9316H44.5977V49.9271H46.5456V45.9316H52.1555V43.9836ZM44.5977 43.9836H39.724V40.9062H44.5977V43.9836ZM44.5977 38.9583H39.724V35.8809H44.5977V38.9583Z" fill="#00987F" fill-opacity="0.26"/>
</g>
<defs>
<filter id="filter0_i_2414_150" x="0" y="-4" width="127" height="131" filterUnits="userSpaceOnUse" color-interpolation-filters="sRGB">
<feFlood flood-opacity="0" result="BackgroundImageFix"/>
<feBlend mode="normal" in="SourceGraphic" in2="BackgroundImageFix" result="shape"/>
<feColorMatrix in="SourceAlpha" type="matrix" values="0 0 0 0 0 0 0 0 0 0 0 0 0 0 0 0 0 0 127 0" result="hardAlpha"/>
<feOffset dy="-7"/>
<feGaussianBlur stdDeviation="2"/>
<feComposite in2="hardAlpha" operator="arithmetic" k2="-1" k3="1"/>
<feColorMatrix type="matrix" values="0 0 0 0 0 0 0 0 0 0.596078 0 0 0 0 0.498039 0 0 0 0.08 0"/>
<feBlend mode="normal" in2="shape" result="effect1_innerShadow_2414_150"/>
</filter>
<linearGradient id="paint0_linear_2414_150" x1="63.5" y1="0" x2="63.5" y2="127" gradientUnits="userSpaceOnUse">
<stop stop-color="white"/>
<stop offset="1" stop-color="#A8EBE0"/>
</linearGradient>
</defs>
</svg>
