<svg width="26" height="26" viewBox="0 0 26 26" fill="none" xmlns="http://www.w3.org/2000/svg">
<path d="M24.3337 3.66699H13.667V22.3337H24.3337C24.7024 22.3337 25.0004 22.0357 25.0004 21.667V4.33366C25.0004 3.96499 24.7024 3.66699 24.3337 3.66699Z" fill="#4CAF50"/>
<path d="M18.3337 7H23.0004V9H18.3337V7ZM18.3337 13.6667H23.0004V15.6667H18.3337V13.6667ZM18.3337 17H23.0004V19H18.3337V17ZM18.3337 10.3333H23.0004V12.3333H18.3337V10.3333ZM13.667 7H17.0004V9H13.667V7ZM13.667 13.6667H17.0004V15.6667H13.667V13.6667ZM13.667 17H17.0004V19H13.667V17ZM13.667 10.3333H17.0004V12.3333H13.667V10.3333Z" fill="white"/>
<path d="M15 25L1 22.3333V3.66667L15 1V25Z" fill="#2E7D32"/>
<path d="M9.75268 17.6663L8.14535 14.6257C8.08401 14.5117 8.02135 14.3037 7.95601 14.0003H7.93135C7.90068 14.1437 7.82868 14.361 7.71535 14.653L6.10135 17.6663H3.59668L6.57135 12.999L3.84935 8.33301H6.40735L7.74135 11.1303C7.84535 11.351 7.93868 11.6137 8.02135 11.9163H8.04801C8.10001 11.7357 8.19735 11.463 8.34068 11.103L9.82468 8.33301H12.168L9.36868 12.959L12.246 17.665H9.75268V17.6663Z" fill="white"/>
</svg>
