<svg width="470" height="350" viewBox="0 0 470 350" fill="none" xmlns="http://www.w3.org/2000/svg">
<path d="M1 1.00001C19.4433 41.3929 20.9996 113.231 58.3474 124.665C105.032 138.958 93.5051 144.551 120.017 223.472C146.53 302.394 164.685 326.008 234.712 322.279C304.739 318.551 306.468 325.386 321.453 349" stroke="url(#paint0_linear_2460_123)" stroke-opacity="0.4" stroke-linecap="round"/>
<path d="M5.61035 1.00001C24.0537 41.3929 25.6099 113.231 62.9577 124.665C109.642 138.958 98.1154 144.551 124.628 223.472C151.14 302.394 169.295 326.008 239.322 322.279C309.349 318.551 311.078 325.386 326.064 349" stroke="url(#paint1_linear_2460_123)" stroke-opacity="0.4" stroke-linecap="round"/>
<path d="M10.2217 1.00001C28.665 41.3929 30.2213 113.231 67.569 124.665C114.254 138.958 102.727 144.551 129.239 223.472C155.751 302.394 173.907 326.008 243.934 322.279C313.961 318.551 315.69 325.386 330.675 349" stroke="url(#paint2_linear_2460_123)" stroke-opacity="0.4" stroke-linecap="round"/>
<path d="M14.832 1.00001C33.2754 41.3929 34.8316 113.231 72.1794 124.665C118.864 138.958 107.337 144.551 133.849 223.472C160.362 302.394 178.517 326.008 248.544 322.279C318.571 318.551 320.3 325.386 335.285 349" stroke="url(#paint3_linear_2460_123)" stroke-opacity="0.4" stroke-linecap="round"/>
<path d="M19.4434 1.00001C37.8867 41.3929 39.4429 113.231 76.7907 124.665C123.475 138.958 111.948 144.551 138.461 223.472C164.973 302.394 183.128 326.008 253.155 322.279C323.182 318.551 324.911 325.386 339.897 349" stroke="url(#paint4_linear_2460_123)" stroke-opacity="0.4" stroke-linecap="round"/>
<path d="M24.0537 1.00001C42.4971 41.3929 44.0533 113.231 81.4011 124.665C128.086 138.958 116.559 144.551 143.071 223.472C169.583 302.394 187.739 326.008 257.766 322.279C327.793 318.551 329.522 325.386 344.507 349" stroke="url(#paint5_linear_2460_123)" stroke-opacity="0.4" stroke-linecap="round"/>
<path d="M28.665 1.00001C47.1084 41.3929 48.6646 113.231 86.0124 124.665C132.697 138.958 121.17 144.551 147.682 223.472C174.195 302.394 192.35 326.008 262.377 322.279C332.404 318.551 334.133 325.386 349.118 349" stroke="url(#paint6_linear_2460_123)" stroke-opacity="0.4" stroke-linecap="round"/>
<path d="M33.2754 1.00001C51.7187 41.3929 53.275 113.231 90.6227 124.665C137.307 138.958 125.78 144.551 152.293 223.472C178.805 302.394 196.96 326.008 266.987 322.279C337.014 318.551 338.743 325.386 353.729 349" stroke="url(#paint7_linear_2460_123)" stroke-opacity="0.4" stroke-linecap="round"/>
<path d="M37.8867 1.00001C56.3301 41.3929 57.8863 113.231 95.2341 124.665C141.919 138.958 130.392 144.551 156.904 223.472C183.416 302.394 201.572 326.008 271.599 322.279C341.626 318.551 343.355 325.386 358.34 349" stroke="url(#paint8_linear_2460_123)" stroke-opacity="0.4" stroke-linecap="round"/>
<path d="M42.4971 1.00001C60.9404 41.3929 62.4967 113.231 99.8444 124.665C146.529 138.958 135.002 144.551 161.514 223.472C188.027 302.394 206.182 326.008 276.209 322.279C346.236 318.551 347.965 325.386 362.95 349" stroke="url(#paint9_linear_2460_123)" stroke-opacity="0.4" stroke-linecap="round"/>
<path d="M47.1084 1.00001C65.5517 41.3929 67.108 113.231 104.456 124.665C151.14 138.958 139.613 144.551 166.126 223.472C192.638 302.394 210.793 326.008 280.82 322.279C350.847 318.551 352.576 325.386 367.562 349" stroke="url(#paint10_linear_2460_123)" stroke-opacity="0.4" stroke-linecap="round"/>
<path d="M51.7188 1.00001C70.1621 41.3929 71.7183 113.231 109.066 124.665C155.751 138.958 144.224 144.551 170.736 223.472C197.248 302.394 215.404 326.008 285.431 322.279C355.458 318.551 357.187 325.386 372.172 349" stroke="url(#paint11_linear_2460_123)" stroke-opacity="0.4" stroke-linecap="round"/>
<path d="M56.3301 1.00001C74.7734 41.3929 76.3297 113.231 113.677 124.665C160.362 138.958 148.835 144.551 175.347 223.472C201.86 302.394 220.015 326.008 290.042 322.279C360.069 318.551 361.798 325.386 376.783 349" stroke="url(#paint12_linear_2460_123)" stroke-opacity="0.4" stroke-linecap="round"/>
<path d="M60.9404 1.00001C79.3838 41.3929 80.94 113.231 118.288 124.665C164.972 138.958 153.445 144.551 179.958 223.472C206.47 302.394 224.625 326.008 294.652 322.279C364.679 318.551 366.408 325.386 381.394 349" stroke="url(#paint13_linear_2460_123)" stroke-opacity="0.4" stroke-linecap="round"/>
<path d="M65.5518 1.00001C83.9951 41.3929 85.5513 113.231 122.899 124.665C169.584 138.958 158.057 144.551 184.569 223.472C211.081 302.394 229.237 326.008 299.264 322.279C369.291 318.551 371.02 325.386 386.005 349" stroke="url(#paint14_linear_2460_123)" stroke-opacity="0.4" stroke-linecap="round"/>
<path d="M70.1621 1.00001C88.6055 41.3929 90.1617 113.231 127.509 124.665C174.194 138.958 162.667 144.551 189.179 223.472C215.692 302.394 233.847 326.008 303.874 322.279C373.901 318.551 375.63 325.386 390.615 349" stroke="url(#paint15_linear_2460_123)" stroke-opacity="0.4" stroke-linecap="round"/>
<path d="M74.7734 1.00001C93.2168 41.3929 94.773 113.231 132.121 124.665C178.805 138.958 167.278 144.551 193.791 223.472C220.303 302.394 238.458 326.008 308.485 322.279C378.512 318.551 380.241 325.386 395.227 349" stroke="url(#paint16_linear_2460_123)" stroke-opacity="0.4" stroke-linecap="round"/>
<path d="M79.3838 1.00001C97.8271 41.3929 99.3834 113.231 136.731 124.665C183.416 138.958 171.889 144.551 198.401 223.472C224.913 302.394 243.069 326.008 313.096 322.279C383.123 318.551 384.852 325.386 399.837 349" stroke="url(#paint17_linear_2460_123)" stroke-opacity="0.4" stroke-linecap="round"/>
<path d="M83.9951 1.00001C102.438 41.3929 103.995 113.231 141.342 124.665C188.027 138.958 176.5 144.551 203.012 223.472C229.525 302.394 247.68 326.008 317.707 322.279C387.734 318.551 389.463 325.386 404.448 349" stroke="url(#paint18_linear_2460_123)" stroke-opacity="0.4" stroke-linecap="round"/>
<path d="M88.6055 1.00001C107.049 41.3929 108.605 113.231 145.953 124.665C192.638 138.958 181.111 144.551 207.623 223.472C234.135 302.394 252.29 326.008 322.317 322.279C392.344 318.551 394.073 325.386 409.059 349" stroke="url(#paint19_linear_2460_123)" stroke-opacity="0.4" stroke-linecap="round"/>
<path d="M93.2168 1.00001C111.66 41.3929 113.216 113.231 150.564 124.665C197.249 138.958 185.722 144.551 212.234 223.472C238.746 302.394 256.902 326.008 326.929 322.279C396.956 318.551 398.685 325.386 413.67 349" stroke="url(#paint20_linear_2460_123)" stroke-opacity="0.4" stroke-linecap="round"/>
<path d="M97.8271 1.00001C116.27 41.3929 117.827 113.231 155.174 124.665C201.859 138.958 190.332 144.551 216.845 223.472C243.357 302.394 261.512 326.008 331.539 322.279C401.566 318.551 403.295 325.386 418.28 349" stroke="url(#paint21_linear_2460_123)" stroke-opacity="0.4" stroke-linecap="round"/>
<path d="M102.438 1.00001C120.882 41.3929 122.438 113.231 159.786 124.665C206.471 138.958 194.944 144.551 221.456 223.472C247.968 302.394 266.123 326.008 336.15 322.279C406.177 318.551 407.906 325.386 422.892 349" stroke="url(#paint22_linear_2460_123)" stroke-opacity="0.4" stroke-linecap="round"/>
<path d="M107.049 1.00001C125.492 41.3929 127.048 113.231 164.396 124.665C211.081 138.958 199.554 144.551 226.066 223.472C252.578 302.394 270.734 326.008 340.761 322.279C410.788 318.551 412.517 325.386 427.502 349" stroke="url(#paint23_linear_2460_123)" stroke-opacity="0.4" stroke-linecap="round"/>
<path d="M111.66 1.00001C130.103 41.3929 131.66 113.231 169.008 124.665C215.692 138.958 204.165 144.551 230.678 223.472C257.19 302.394 275.345 326.008 345.372 322.279C415.399 318.551 417.128 325.386 432.113 349" stroke="url(#paint24_linear_2460_123)" stroke-opacity="0.4" stroke-linecap="round"/>
<path d="M116.271 1.00001C134.714 41.3929 136.27 113.231 173.618 124.665C220.303 138.958 208.776 144.551 235.288 223.472C261.8 302.394 279.955 326.008 349.982 322.279C420.009 318.551 421.739 325.386 436.724 349" stroke="url(#paint25_linear_2460_123)" stroke-opacity="0.4" stroke-linecap="round"/>
<path d="M120.882 1.00001C139.325 41.3929 140.881 113.231 178.229 124.665C224.914 138.958 213.387 144.551 239.899 223.472C266.412 302.394 284.567 326.008 354.594 322.279C424.621 318.551 426.35 325.386 441.335 349" stroke="url(#paint26_linear_2460_123)" stroke-opacity="0.4" stroke-linecap="round"/>
<path d="M125.492 1.00001C143.936 41.3929 145.492 113.231 182.84 124.665C229.524 138.958 217.997 144.551 244.51 223.472C271.022 302.394 289.177 326.008 359.204 322.279C429.231 318.551 430.96 325.386 445.945 349" stroke="url(#paint27_linear_2460_123)" stroke-opacity="0.4" stroke-linecap="round"/>
<path d="M130.104 1.00001C148.547 41.3929 150.103 113.231 187.451 124.665C234.136 138.958 222.609 144.551 249.121 223.472C275.633 302.394 293.788 326.008 363.815 322.279C433.843 318.551 435.572 325.386 450.557 349" stroke="url(#paint28_linear_2460_123)" stroke-opacity="0.4" stroke-linecap="round"/>
<path d="M134.714 1.00001C153.157 41.3929 154.713 113.231 192.061 124.665C238.746 138.958 227.219 144.551 253.731 223.472C280.244 302.394 298.399 326.008 368.426 322.279C438.453 318.551 440.182 325.386 455.167 349" stroke="url(#paint29_linear_2460_123)" stroke-opacity="0.4" stroke-linecap="round"/>
<path d="M139.325 1.00001C157.769 41.3929 159.325 113.231 196.673 124.665C243.357 138.958 231.83 144.551 258.343 223.472C284.855 302.394 303.01 326.008 373.037 322.279C443.064 318.551 444.793 325.386 459.778 349" stroke="url(#paint30_linear_2460_123)" stroke-opacity="0.4" stroke-linecap="round"/>
<path d="M143.936 1.00001C162.379 41.3929 163.935 113.231 201.283 124.665C247.968 138.958 236.441 144.551 262.953 223.472C289.465 302.394 307.62 326.008 377.647 322.279C447.675 318.551 449.404 325.386 464.389 349" stroke="url(#paint31_linear_2460_123)" stroke-opacity="0.4" stroke-linecap="round"/>
<path d="M148.547 1.00001C166.99 41.3929 168.546 113.231 205.894 124.665C252.579 138.958 241.052 144.551 267.564 223.472C294.077 302.394 312.232 326.008 382.259 322.279C452.286 318.551 454.015 325.386 469 349" stroke="url(#paint32_linear_2460_123)" stroke-opacity="0.4" stroke-linecap="round"/>
<defs>
<linearGradient id="paint0_linear_2460_123" x1="329.234" y1="359.564" x2="-23.3121" y2="265.36" gradientUnits="userSpaceOnUse">
<stop stop-color="#2B314E" stop-opacity="0"/>
<stop offset="1" stop-color="#05E4F2"/>
</linearGradient>
<linearGradient id="paint1_linear_2460_123" x1="333.844" y1="359.564" x2="-18.7018" y2="265.36" gradientUnits="userSpaceOnUse">
<stop stop-color="#2B314E" stop-opacity="0"/>
<stop offset="1" stop-color="#05E4F2"/>
</linearGradient>
<linearGradient id="paint2_linear_2460_123" x1="338.456" y1="359.564" x2="-14.0905" y2="265.36" gradientUnits="userSpaceOnUse">
<stop stop-color="#2B314E" stop-opacity="0"/>
<stop offset="1" stop-color="#05E4F2"/>
</linearGradient>
<linearGradient id="paint3_linear_2460_123" x1="343.066" y1="359.564" x2="-9.4801" y2="265.36" gradientUnits="userSpaceOnUse">
<stop stop-color="#2B314E" stop-opacity="0"/>
<stop offset="1" stop-color="#05E4F2"/>
</linearGradient>
<linearGradient id="paint4_linear_2460_123" x1="347.677" y1="359.564" x2="-4.86877" y2="265.36" gradientUnits="userSpaceOnUse">
<stop stop-color="#2B314E" stop-opacity="0"/>
<stop offset="1" stop-color="#05E4F2"/>
</linearGradient>
<linearGradient id="paint5_linear_2460_123" x1="352.288" y1="359.564" x2="-0.258423" y2="265.36" gradientUnits="userSpaceOnUse">
<stop stop-color="#2B314E" stop-opacity="0"/>
<stop offset="1" stop-color="#05E4F2"/>
</linearGradient>
<linearGradient id="paint6_linear_2460_123" x1="356.899" y1="359.564" x2="4.35291" y2="265.36" gradientUnits="userSpaceOnUse">
<stop stop-color="#2B314E" stop-opacity="0"/>
<stop offset="1" stop-color="#05E4F2"/>
</linearGradient>
<linearGradient id="paint7_linear_2460_123" x1="361.509" y1="359.564" x2="8.96326" y2="265.36" gradientUnits="userSpaceOnUse">
<stop stop-color="#2B314E" stop-opacity="0"/>
<stop offset="1" stop-color="#05E4F2"/>
</linearGradient>
<linearGradient id="paint8_linear_2460_123" x1="366.121" y1="359.564" x2="13.5746" y2="265.36" gradientUnits="userSpaceOnUse">
<stop stop-color="#2B314E" stop-opacity="0"/>
<stop offset="1" stop-color="#05E4F2"/>
</linearGradient>
<linearGradient id="paint9_linear_2460_123" x1="370.731" y1="359.564" x2="18.1849" y2="265.36" gradientUnits="userSpaceOnUse">
<stop stop-color="#2B314E" stop-opacity="0"/>
<stop offset="1" stop-color="#05E4F2"/>
</linearGradient>
<linearGradient id="paint10_linear_2460_123" x1="375.342" y1="359.564" x2="22.7963" y2="265.36" gradientUnits="userSpaceOnUse">
<stop stop-color="#2B314E" stop-opacity="0"/>
<stop offset="1" stop-color="#05E4F2"/>
</linearGradient>
<linearGradient id="paint11_linear_2460_123" x1="379.953" y1="359.564" x2="27.4066" y2="265.36" gradientUnits="userSpaceOnUse">
<stop stop-color="#2B314E" stop-opacity="0"/>
<stop offset="1" stop-color="#05E4F2"/>
</linearGradient>
<linearGradient id="paint12_linear_2460_123" x1="384.564" y1="359.564" x2="32.0179" y2="265.36" gradientUnits="userSpaceOnUse">
<stop stop-color="#2B314E" stop-opacity="0"/>
<stop offset="1" stop-color="#05E4F2"/>
</linearGradient>
<linearGradient id="paint13_linear_2460_123" x1="389.174" y1="359.564" x2="36.6283" y2="265.36" gradientUnits="userSpaceOnUse">
<stop stop-color="#2B314E" stop-opacity="0"/>
<stop offset="1" stop-color="#05E4F2"/>
</linearGradient>
<linearGradient id="paint14_linear_2460_123" x1="393.786" y1="359.564" x2="41.2396" y2="265.36" gradientUnits="userSpaceOnUse">
<stop stop-color="#2B314E" stop-opacity="0"/>
<stop offset="1" stop-color="#05E4F2"/>
</linearGradient>
<linearGradient id="paint15_linear_2460_123" x1="398.396" y1="359.564" x2="45.85" y2="265.36" gradientUnits="userSpaceOnUse">
<stop stop-color="#2B314E" stop-opacity="0"/>
<stop offset="1" stop-color="#05E4F2"/>
</linearGradient>
<linearGradient id="paint16_linear_2460_123" x1="403.007" y1="359.564" x2="50.4613" y2="265.36" gradientUnits="userSpaceOnUse">
<stop stop-color="#2B314E" stop-opacity="0"/>
<stop offset="1" stop-color="#05E4F2"/>
</linearGradient>
<linearGradient id="paint17_linear_2460_123" x1="407.618" y1="359.564" x2="55.0717" y2="265.36" gradientUnits="userSpaceOnUse">
<stop stop-color="#2B314E" stop-opacity="0"/>
<stop offset="1" stop-color="#05E4F2"/>
</linearGradient>
<linearGradient id="paint18_linear_2460_123" x1="412.229" y1="359.564" x2="59.683" y2="265.36" gradientUnits="userSpaceOnUse">
<stop stop-color="#2B314E" stop-opacity="0"/>
<stop offset="1" stop-color="#05E4F2"/>
</linearGradient>
<linearGradient id="paint19_linear_2460_123" x1="416.839" y1="359.564" x2="64.2933" y2="265.36" gradientUnits="userSpaceOnUse">
<stop stop-color="#2B314E" stop-opacity="0"/>
<stop offset="1" stop-color="#05E4F2"/>
</linearGradient>
<linearGradient id="paint20_linear_2460_123" x1="421.451" y1="359.564" x2="68.9047" y2="265.36" gradientUnits="userSpaceOnUse">
<stop stop-color="#2B314E" stop-opacity="0"/>
<stop offset="1" stop-color="#05E4F2"/>
</linearGradient>
<linearGradient id="paint21_linear_2460_123" x1="426.061" y1="359.564" x2="73.515" y2="265.36" gradientUnits="userSpaceOnUse">
<stop stop-color="#2B314E" stop-opacity="0"/>
<stop offset="1" stop-color="#05E4F2"/>
</linearGradient>
<linearGradient id="paint22_linear_2460_123" x1="430.672" y1="359.564" x2="78.1263" y2="265.36" gradientUnits="userSpaceOnUse">
<stop stop-color="#2B314E" stop-opacity="0"/>
<stop offset="1" stop-color="#05E4F2"/>
</linearGradient>
<linearGradient id="paint23_linear_2460_123" x1="435.283" y1="359.564" x2="82.7367" y2="265.36" gradientUnits="userSpaceOnUse">
<stop stop-color="#2B314E" stop-opacity="0"/>
<stop offset="1" stop-color="#05E4F2"/>
</linearGradient>
<linearGradient id="paint24_linear_2460_123" x1="439.894" y1="359.564" x2="87.348" y2="265.36" gradientUnits="userSpaceOnUse">
<stop stop-color="#2B314E" stop-opacity="0"/>
<stop offset="1" stop-color="#05E4F2"/>
</linearGradient>
<linearGradient id="paint25_linear_2460_123" x1="444.505" y1="359.564" x2="91.9584" y2="265.36" gradientUnits="userSpaceOnUse">
<stop stop-color="#2B314E" stop-opacity="0"/>
<stop offset="1" stop-color="#05E4F2"/>
</linearGradient>
<linearGradient id="paint26_linear_2460_123" x1="449.116" y1="359.564" x2="96.5697" y2="265.36" gradientUnits="userSpaceOnUse">
<stop stop-color="#2B314E" stop-opacity="0"/>
<stop offset="1" stop-color="#05E4F2"/>
</linearGradient>
<linearGradient id="paint27_linear_2460_123" x1="453.726" y1="359.564" x2="101.18" y2="265.36" gradientUnits="userSpaceOnUse">
<stop stop-color="#2B314E" stop-opacity="0"/>
<stop offset="1" stop-color="#05E4F2"/>
</linearGradient>
<linearGradient id="paint28_linear_2460_123" x1="458.338" y1="359.564" x2="105.791" y2="265.36" gradientUnits="userSpaceOnUse">
<stop stop-color="#2B314E" stop-opacity="0"/>
<stop offset="1" stop-color="#05E4F2"/>
</linearGradient>
<linearGradient id="paint29_linear_2460_123" x1="462.948" y1="359.564" x2="110.402" y2="265.36" gradientUnits="userSpaceOnUse">
<stop stop-color="#2B314E" stop-opacity="0"/>
<stop offset="1" stop-color="#05E4F2"/>
</linearGradient>
<linearGradient id="paint30_linear_2460_123" x1="467.559" y1="359.564" x2="115.013" y2="265.36" gradientUnits="userSpaceOnUse">
<stop stop-color="#2B314E" stop-opacity="0"/>
<stop offset="1" stop-color="#05E4F2"/>
</linearGradient>
<linearGradient id="paint31_linear_2460_123" x1="472.17" y1="359.564" x2="119.623" y2="265.36" gradientUnits="userSpaceOnUse">
<stop stop-color="#2B314E" stop-opacity="0"/>
<stop offset="1" stop-color="#05E4F2"/>
</linearGradient>
<linearGradient id="paint32_linear_2460_123" x1="476.781" y1="359.564" x2="124.235" y2="265.36" gradientUnits="userSpaceOnUse">
<stop stop-color="#2B314E" stop-opacity="0"/>
<stop offset="1" stop-color="#05E4F2"/>
</linearGradient>
</defs>
</svg>
