<svg width="155" height="46" viewBox="0 0 155 46" fill="none" xmlns="http://www.w3.org/2000/svg">
<rect x="0.592773" width="154.313" height="45.7223" rx="5" fill="black"/>
<path fill-rule="evenodd" clip-rule="evenodd" d="M6.30904 0H149.191C152.348 0 154.907 2.55882 154.907 5.71529V40.007C154.907 43.1635 152.348 45.7223 149.191 45.7223H6.30904C3.15257 45.7223 0.59375 43.1635 0.59375 40.007V5.71529C0.59375 2.55882 3.15257 0 6.30904 0ZM153.992 5.71491C153.992 3.06347 151.842 0.914062 149.191 0.914062H6.30866C3.65722 0.914062 1.50781 3.06347 1.50781 5.71491V40.0066C1.50781 42.6581 3.65722 44.8075 6.30866 44.8075H149.191C151.842 44.8075 153.992 42.6581 153.992 40.0066V5.71491Z" fill="#A6A6A6"/>
<path fill-rule="evenodd" clip-rule="evenodd" d="M55.1629 26.3585V28.416H60.1009C60.0235 29.385 59.6207 30.2995 58.9579 31.0107C57.9589 32.0283 56.5764 32.5763 55.1515 32.5195C52.1213 32.5195 49.6648 30.0631 49.6648 27.0329C49.6648 24.0026 52.1213 21.5462 55.1515 21.5462C56.5435 21.5235 57.8877 22.0538 58.8893 23.0207L60.341 21.569C58.9749 20.1858 57.1069 19.4147 55.1629 19.4315C52.3955 19.3238 49.791 20.7388 48.3753 23.1191C46.9595 25.4994 46.9595 28.4635 48.3753 30.8437C49.791 33.224 52.3955 34.639 55.1629 34.5313C57.1424 34.6208 59.0639 33.8497 60.4324 32.4167C61.63 31.1009 62.2694 29.3713 62.2156 27.593C62.2193 27.1597 62.181 26.7271 62.1013 26.3013L55.1629 26.3585ZM67.8388 24.8603C65.1573 24.8666 62.988 27.0444 62.9922 29.7259C62.9964 32.4074 65.1725 34.5783 67.854 34.5762C70.5355 34.5741 72.7082 32.3998 72.7082 29.7183C72.727 28.4202 72.2181 27.17 71.2979 26.2542C70.3778 25.3384 69.1253 24.8353 67.8273 24.8603H67.8388ZM73.6465 29.7334C73.6381 27.0534 75.8016 24.8729 78.4816 24.8603C79.7796 24.8353 81.0321 25.3384 81.9522 26.2542C82.8724 27.17 83.3813 28.4202 83.3625 29.7183C83.3624 32.3983 81.1921 34.572 78.5121 34.5762C75.8321 34.5804 73.6549 32.4134 73.6465 29.7334ZM75.6153 30.9978C76.1373 32.0904 77.2741 32.7529 78.482 32.6684C79.2402 32.6509 79.9592 32.3278 80.4757 31.7725C80.9922 31.2172 81.2626 30.4768 81.2254 29.7194C81.2224 28.5085 80.4796 27.4224 79.3521 26.9807C78.2247 26.539 76.9418 26.8313 76.117 27.7179C75.2923 28.6045 75.0933 29.9052 75.6153 30.9978ZM64.9658 31.0057C65.4914 32.0977 66.6316 32.7569 67.8401 32.6676H67.8287C68.5869 32.65 69.3058 32.327 69.8224 31.7717C70.3389 31.2164 70.6093 30.476 70.5721 29.7185C70.5688 28.5067 69.8244 27.4202 68.6956 26.9794C67.5667 26.5387 66.2831 26.8334 65.4595 27.7224C64.636 28.6114 64.4401 29.9138 64.9658 31.0057ZM102.795 24.8594C104.69 24.9292 106.345 26.1616 106.956 27.9571L107.196 28.4714L100.692 31.1576C101.099 32.086 102.033 32.6708 103.047 32.6322C104.025 32.6347 104.932 32.1223 105.436 31.2834L107.093 32.4264C106.191 33.7769 104.671 34.5841 103.047 34.5754C101.756 34.5943 100.512 34.0874 99.6025 33.1712C98.6928 32.255 98.1947 31.0082 98.2228 29.7174C98.1438 28.456 98.5904 27.2183 99.4566 26.298C100.323 25.3777 101.531 24.8569 102.795 24.8594ZM100.326 29.5811C100.279 28.8668 100.522 28.1638 100.999 27.6305C101.477 27.0973 102.149 26.7785 102.864 26.7463C103.617 26.6966 104.328 27.1014 104.67 27.775L100.326 29.5811ZM97.1815 34.2921H95.0439V20.0039H97.1815V34.2921ZM91.5475 25.9477H91.4675C90.8159 25.2193 89.8844 24.8034 88.907 24.8047C86.3124 24.9305 84.2734 27.0708 84.2734 29.6684C84.2734 32.266 86.3124 34.4063 88.907 34.5321C89.8876 34.5486 90.8251 34.1301 91.4675 33.3891H91.536V34.0863C91.536 35.9495 90.5416 36.944 88.9413 36.944C87.8512 36.9185 86.8846 36.2365 86.4952 35.2179L84.632 35.9952C85.3494 37.7405 87.0544 38.8756 88.9413 38.8643C91.4446 38.8643 93.5135 37.3898 93.5135 33.8006V25.1476H91.5475V25.9477ZM89.0955 32.6674L89.0991 32.6677H89.0876L89.0955 32.6674ZM91.0216 31.7507C90.5311 32.3058 89.8355 32.6368 89.0955 32.6674C87.5688 32.531 86.3984 31.2518 86.3984 29.7186C86.3984 28.1843 87.5707 26.9042 89.0991 26.7695C89.8376 26.8074 90.5296 27.1419 91.0181 27.6971C91.5066 28.2523 91.7502 28.9813 91.6938 29.7186C91.7568 30.4594 91.5139 31.1937 91.0216 31.7507ZM116.968 20.0037H111.858V34.2919H113.996V28.8738H116.979C118.64 28.9931 120.228 28.1748 121.094 26.7534C121.961 25.332 121.961 23.5455 121.094 22.1241C120.228 20.7026 118.64 19.8844 116.979 20.0037H116.968ZM113.984 26.8616H116.968L117.013 26.8959C118.368 26.8959 119.465 25.7982 119.465 24.444C119.465 23.0899 118.368 21.9922 117.013 21.9922H113.984V26.8616ZM130.148 24.8039C128.557 24.7089 127.062 25.5665 126.341 26.9872L128.239 27.7759C128.621 27.0714 129.383 26.659 130.182 26.7243C130.73 26.6603 131.281 26.8191 131.711 27.1652C132.141 27.5112 132.414 28.0155 132.468 28.5646V28.7132C131.782 28.3497 131.016 28.1613 130.239 28.1645C128.193 28.1645 126.124 29.3076 126.124 31.3765C126.165 32.2678 126.565 33.1046 127.232 33.6967C127.899 34.2888 128.778 34.5857 129.668 34.5199C130.764 34.5987 131.816 34.0727 132.411 33.1483H132.48V34.2913H134.537V28.7932C134.537 26.2899 132.64 24.8382 130.205 24.8382L130.148 24.8039ZM128.215 31.4238C128.215 32.2811 129.186 32.6354 129.884 32.6354L129.941 32.6697C131.229 32.6383 132.296 31.6631 132.444 30.3836C131.851 30.0525 131.18 29.8867 130.501 29.9035C129.426 29.9035 128.215 30.2807 128.215 31.4238ZM142.035 25.1484L139.589 31.3438H139.52L136.982 25.1484H134.696L138.503 33.8128L136.331 38.6251H138.56L144.412 25.1484H142.035ZM124.959 34.2921H122.821V20.0039H124.959V34.2921Z" fill="white"/>
<path fill-rule="evenodd" clip-rule="evenodd" d="M79.7046 8.88294C78.3561 10.3104 78.3561 12.5421 79.7046 13.9695C81.0957 15.3529 83.3429 15.3529 84.734 13.9695C86.0883 12.5444 86.0883 10.3081 84.734 8.88294C84.0688 8.21282 83.1636 7.83594 82.2193 7.83594C81.275 7.83594 80.3698 8.21282 79.7046 8.88294ZM53.9398 13.9903C54.5265 13.3778 54.8364 12.5515 54.7971 11.7042C54.7972 11.5318 54.7819 11.3596 54.7514 11.1899H51.4251V12.0129H53.9055C53.8886 12.5312 53.6857 13.0262 53.334 13.4074C52.5505 14.1647 51.3884 14.3763 50.3883 13.9438C49.3881 13.5112 48.7465 12.5194 48.7618 11.4299C48.7369 10.7089 49.0068 10.0088 49.5094 9.4912C50.0119 8.97357 50.7037 8.68302 51.4251 8.68656C52.1428 8.64734 52.8372 8.94795 53.2997 9.49813L53.9055 8.89231C53.6129 8.55574 53.2447 8.29329 52.8311 8.12646C52.3868 7.93633 51.9083 7.83909 51.4251 7.8407C50.477 7.81957 49.5625 8.19199 48.8989 8.86945C47.8777 9.89743 47.5721 11.4375 48.1236 12.7775C48.6751 14.1175 49.9761 14.9963 51.4251 15.0077C52.3698 15.0413 53.2842 14.6714 53.9398 13.9903ZM56.9476 8.84977H60.0339V8.00391H56.0332V14.8623H60.0339V14.0164H56.9476V11.8446H59.7596V11.0216H56.9476V8.84977ZM63.78 14.8623H62.8998V8.84977H60.9795V8.00391H65.746V8.84977H63.78V14.8623ZM69.1084 8.00391V14.8623H69.9886V8.00391H69.1084ZM73.8972 14.8623H73.017V8.84977H71.0967V8.00391H75.8061V8.84977H73.8972V14.8623ZM80.3556 13.3969C81.3858 14.4229 83.0517 14.4229 84.0819 13.3969C85.0938 12.2815 85.0938 10.5802 84.0819 9.46479C83.0517 8.43882 81.3858 8.43882 80.3556 9.46479C79.3437 10.5802 79.3437 12.2815 80.3556 13.3969ZM86.9854 8.00391V14.8623H87.8769V9.2727L91.3633 14.8623H92.2777V8.00391H91.3976V13.342L88.0598 8.00391H86.9854Z" fill="white"/>
<path d="M79.7046 13.9695L79.6318 14.0383L79.6341 14.0405L79.7046 13.9695ZM79.7046 8.88294L79.6336 8.81247L79.6319 8.81427L79.7046 8.88294ZM84.734 13.9695L84.8046 14.0405L84.8065 14.0384L84.734 13.9695ZM84.734 8.88294L84.8065 8.81404L84.805 8.81249L84.734 8.88294ZM54.7971 11.7042L54.697 11.7042L54.6972 11.7089L54.7971 11.7042ZM53.9398 13.9903L54.0119 14.0597L54.012 14.0595L53.9398 13.9903ZM54.7514 11.1899L54.8498 11.1722L54.835 11.0899H54.7514V11.1899ZM51.4251 11.1899V11.0899H51.3251V11.1899H51.4251ZM51.4251 12.0129H51.3251V12.1129H51.4251V12.0129ZM53.9055 12.0129L54.0055 12.0161L54.0089 11.9129H53.9055V12.0129ZM53.334 13.4074L53.4036 13.4794L53.4075 13.4752L53.334 13.4074ZM50.3883 13.9438L50.3486 14.0356L50.3486 14.0356L50.3883 13.9438ZM48.7618 11.4299L48.8619 11.4313L48.8617 11.4264L48.7618 11.4299ZM51.4251 8.68656L51.4246 8.78674L51.4306 8.78641L51.4251 8.68656ZM53.2997 9.49813L53.2232 9.56248L53.2933 9.64594L53.3704 9.56884L53.2997 9.49813ZM53.9055 8.89231L53.9762 8.96302L54.0422 8.89707L53.981 8.82669L53.9055 8.89231ZM52.8311 8.12646L52.7917 8.21842L52.7937 8.2192L52.8311 8.12646ZM51.4251 7.8407L51.4229 7.9407L51.4254 7.9407L51.4251 7.8407ZM48.8989 8.86945L48.9699 8.93993L48.9704 8.93942L48.8989 8.86945ZM48.1236 12.7775L48.2161 12.7394L48.2161 12.7394L48.1236 12.7775ZM51.4251 15.0077L51.4287 14.9077L51.4259 14.9077L51.4251 15.0077ZM60.0339 8.84977V8.94977H60.1339V8.84977H60.0339ZM56.9476 8.84977V8.74977H56.8476V8.84977H56.9476ZM60.0339 8.00391H60.1339V7.90391H60.0339V8.00391ZM56.0332 8.00391V7.90391H55.9332V8.00391H56.0332ZM56.0332 14.8623H55.9332V14.9623H56.0332V14.8623ZM60.0339 14.8623V14.9623H60.1339V14.8623H60.0339ZM60.0339 14.0164H60.1339V13.9164H60.0339V14.0164ZM56.9476 14.0164H56.8476V14.1164H56.9476V14.0164ZM56.9476 11.8446V11.7446H56.8476V11.8446H56.9476ZM59.7596 11.8446V11.9446H59.8596V11.8446H59.7596ZM59.7596 11.0216H59.8596V10.9216H59.7596V11.0216ZM56.9476 11.0216H56.8476V11.1216H56.9476V11.0216ZM62.8998 14.8623H62.7998V14.9623H62.8998V14.8623ZM63.78 14.8623V14.9623H63.88V14.8623H63.78ZM62.8998 8.84977H62.9998V8.74977H62.8998V8.84977ZM60.9795 8.84977H60.8795V8.94977H60.9795V8.84977ZM60.9795 8.00391V7.90391H60.8795V8.00391H60.9795ZM65.746 8.00391H65.846V7.90391H65.746V8.00391ZM65.746 8.84977V8.94977H65.846V8.84977H65.746ZM63.78 8.84977V8.74977H63.68V8.84977H63.78ZM69.1084 14.8623H69.0084V14.9623H69.1084V14.8623ZM69.1084 8.00391V7.90391H69.0084V8.00391H69.1084ZM69.9886 14.8623V14.9623H70.0886V14.8623H69.9886ZM69.9886 8.00391H70.0886V7.90391H69.9886V8.00391ZM73.017 14.8623H72.917V14.9623H73.017V14.8623ZM73.8972 14.8623V14.9623H73.9972V14.8623H73.8972ZM73.017 8.84977H73.117V8.74977H73.017V8.84977ZM71.0967 8.84977H70.9967V8.94977H71.0967V8.84977ZM71.0967 8.00391V7.90391H70.9967V8.00391H71.0967ZM75.8061 8.00391H75.9061V7.90391H75.8061V8.00391ZM75.8061 8.84977V8.94977H75.9061V8.84977H75.8061ZM73.8972 8.84977V8.74977H73.7972V8.84977H73.8972ZM84.0819 13.3969L84.1526 13.4679L84.156 13.4641L84.0819 13.3969ZM80.3556 13.3969L80.2814 13.4642L80.285 13.4678L80.3556 13.3969ZM84.0819 9.46479L84.1561 9.39752L84.1525 9.39393L84.0819 9.46479ZM80.3556 9.46479L80.2849 9.39384L80.2815 9.3976L80.3556 9.46479ZM86.9854 14.8623H86.8854V14.9623H86.9854V14.8623ZM86.9854 8.00391V7.90391H86.8854V8.00391H86.9854ZM87.8769 14.8623V14.9623H87.9769V14.8623H87.8769ZM87.8769 9.2727L87.9618 9.21978L87.7769 8.92341V9.2727H87.8769ZM91.3633 14.8623L91.2784 14.9152L91.3078 14.9623H91.3633V14.8623ZM92.2777 14.8623V14.9623H92.3777V14.8623H92.2777ZM92.2777 8.00391H92.3777V7.90391H92.2777V8.00391ZM91.3976 8.00391V7.90391H91.2976V8.00391H91.3976ZM91.3976 13.342L91.3128 13.395L91.4976 13.6905V13.342H91.3976ZM88.0598 8.00391L88.1446 7.95089L88.1152 7.90391H88.0598V8.00391ZM79.7773 13.9009C78.4652 12.512 78.4652 10.3405 79.7773 8.95161L79.6319 8.81427C78.247 10.2802 78.247 12.5723 79.6319 14.0382L79.7773 13.9009ZM84.6635 13.8986C83.3114 15.2432 81.1272 15.2432 79.7751 13.8986L79.6341 14.0405C81.0642 15.4626 83.3744 15.4626 84.8045 14.0405L84.6635 13.8986ZM84.6615 8.95183C85.9791 10.3383 85.9791 12.5141 84.6615 13.9007L84.8065 14.0384C86.1974 12.5747 86.1974 10.2778 84.8065 8.81406L84.6615 8.95183ZM82.2193 7.93594C83.1369 7.93594 84.0166 8.30218 84.6631 8.95339L84.805 8.81249C84.121 8.12346 83.1902 7.73594 82.2193 7.73594V7.93594ZM79.7755 8.95339C80.422 8.30218 81.3017 7.93594 82.2193 7.93594V7.73594C81.2484 7.73594 80.3176 8.12346 79.6336 8.81249L79.7755 8.95339ZM54.6972 11.7089C54.7352 12.5288 54.4354 13.3284 53.8676 13.9212L54.012 14.0595C54.6177 13.4272 54.9375 12.5742 54.897 11.6996L54.6972 11.7089ZM54.653 11.2075C54.6824 11.3714 54.6972 11.5377 54.6971 11.7042L54.8971 11.7043C54.8972 11.5259 54.8814 11.3478 54.8498 11.1722L54.653 11.2075ZM51.4251 11.2899H54.7514V11.0899H51.4251V11.2899ZM51.5251 12.0129V11.1899H51.3251V12.0129H51.5251ZM53.9055 11.9129H51.4251V12.1129H53.9055V11.9129ZM53.4075 13.4752C53.7755 13.0764 53.9878 12.5585 54.0055 12.0161L53.8056 12.0096C53.7894 12.504 53.596 12.976 53.2605 13.3396L53.4075 13.4752ZM50.3486 14.0356C51.3858 14.4842 52.591 14.2647 53.4035 13.4793L53.2645 13.3355C52.5101 14.0647 51.391 14.2685 50.428 13.852L50.3486 14.0356ZM48.6618 11.4285C48.6459 12.5584 49.3114 13.587 50.3486 14.0356L50.428 13.852C49.4649 13.4355 48.847 12.4805 48.8618 11.4313L48.6618 11.4285ZM49.4376 9.42155C48.9161 9.9587 48.636 10.6851 48.6618 11.4333L48.8617 11.4264C48.8378 10.7326 49.0975 10.059 49.5811 9.56086L49.4376 9.42155ZM51.4256 8.58656C50.6769 8.58289 49.9591 8.88439 49.4376 9.42155L49.5811 9.56086C50.0647 9.06274 50.7304 8.78315 51.4246 8.78656L51.4256 8.58656ZM53.3763 9.43378C52.8935 8.85953 52.1687 8.54577 51.4196 8.58671L51.4306 8.78641C52.1169 8.74891 52.7809 9.03637 53.2232 9.56248L53.3763 9.43378ZM53.8348 8.8216L53.229 9.42742L53.3704 9.56884L53.9762 8.96302L53.8348 8.8216ZM52.7937 8.2192C53.1926 8.38013 53.5478 8.63328 53.8301 8.95792L53.981 8.82669C53.678 8.47821 53.2967 8.20646 52.8685 8.03372L52.7937 8.2192ZM51.4254 7.9407C51.895 7.93913 52.36 8.03363 52.7917 8.2184L52.8704 8.03453C52.4136 7.83903 51.9216 7.73904 51.4248 7.7407L51.4254 7.9407ZM48.9704 8.93942C49.6146 8.28172 50.5024 7.92016 51.4229 7.94067L51.4273 7.74072C50.4516 7.71898 49.5104 8.10226 48.8275 8.79947L48.9704 8.93942ZM48.2161 12.7394C47.6799 11.4366 47.977 9.93936 48.9699 8.93993L48.828 8.79897C47.7783 9.8555 47.4643 11.4383 48.0311 12.8155L48.2161 12.7394ZM51.4259 14.9077C50.0171 14.8966 48.7522 14.0422 48.2161 12.7394L48.0311 12.8155C48.5979 14.1927 49.9351 15.096 51.4243 15.1077L51.4259 14.9077ZM53.8678 13.921C53.2319 14.5816 52.345 14.9404 51.4287 14.9077L51.4215 15.1076C52.3947 15.1423 53.3366 14.7612 54.0119 14.0597L53.8678 13.921ZM60.0339 8.74977H56.9476V8.94977H60.0339V8.74977ZM59.9339 8.00391V8.84977H60.1339V8.00391H59.9339ZM56.0332 8.10391H60.0339V7.90391H56.0332V8.10391ZM56.1332 14.8623V8.00391H55.9332V14.8623H56.1332ZM60.0339 14.7623H56.0332V14.9623H60.0339V14.7623ZM59.9339 14.0164V14.8623H60.1339V14.0164H59.9339ZM56.9476 14.1164H60.0339V13.9164H56.9476V14.1164ZM56.8476 11.8446V14.0164H57.0476V11.8446H56.8476ZM59.7596 11.7446H56.9476V11.9446H59.7596V11.7446ZM59.6596 11.0216V11.8446H59.8596V11.0216H59.6596ZM56.9476 11.1216H59.7596V10.9216H56.9476V11.1216ZM56.8476 8.84977V11.0216H57.0476V8.84977H56.8476ZM62.8998 14.9623H63.78V14.7623H62.8998V14.9623ZM62.7998 8.84977V14.8623H62.9998V8.84977H62.7998ZM60.9795 8.94977H62.8998V8.74977H60.9795V8.94977ZM60.8795 8.00391V8.84977H61.0795V8.00391H60.8795ZM65.746 7.90391H60.9795V8.10391H65.746V7.90391ZM65.846 8.84977V8.00391H65.646V8.84977H65.846ZM63.78 8.94977H65.746V8.74977H63.78V8.94977ZM63.88 14.8623V8.84977H63.68V14.8623H63.88ZM69.2084 14.8623V8.00391H69.0084V14.8623H69.2084ZM69.9886 14.7623H69.1084V14.9623H69.9886V14.7623ZM69.8886 8.00391V14.8623H70.0886V8.00391H69.8886ZM69.1084 8.10391H69.9886V7.90391H69.1084V8.10391ZM73.017 14.9623H73.8972V14.7623H73.017V14.9623ZM72.917 8.84977V14.8623H73.117V8.84977H72.917ZM71.0967 8.94977H73.017V8.74977H71.0967V8.94977ZM70.9967 8.00391V8.84977H71.1967V8.00391H70.9967ZM75.8061 7.90391H71.0967V8.10391H75.8061V7.90391ZM75.9061 8.84977V8.00391H75.7061V8.84977H75.9061ZM73.8972 8.94977H75.8061V8.74977H73.8972V8.94977ZM73.9972 14.8623V8.84977H73.7972V14.8623H73.9972ZM84.0114 13.3261C83.0201 14.3132 81.4174 14.3132 80.4261 13.3261L80.285 13.4678C81.3543 14.5326 83.0832 14.5326 84.1525 13.4678L84.0114 13.3261ZM84.0079 9.53198C84.9851 10.6093 84.9851 12.2524 84.0079 13.3297L84.156 13.4641C85.2024 12.3105 85.2024 10.5511 84.156 9.3976L84.0079 9.53198ZM80.4261 9.53565C81.4174 8.54853 83.0201 8.54853 84.0114 9.53565L84.1525 9.39393C83.0832 8.32911 81.3543 8.32911 80.285 9.39393L80.4261 9.53565ZM80.4296 13.3297C79.4524 12.2524 79.4524 10.6093 80.4296 9.53198L80.2815 9.3976C79.2351 10.5511 79.2351 12.3105 80.2815 13.4641L80.4296 13.3297ZM87.0854 14.8623V8.00391H86.8854V14.8623H87.0854ZM87.8769 14.7623H86.9854V14.9623H87.8769V14.7623ZM87.7769 9.2727V14.8623H87.9769V9.2727H87.7769ZM91.4481 14.8093L87.9618 9.21978L87.7921 9.32562L91.2784 14.9152L91.4481 14.8093ZM92.2777 14.7623H91.3633V14.9623H92.2777V14.7623ZM92.1777 8.00391V14.8623H92.3777V8.00391H92.1777ZM91.3976 8.10391H92.2777V7.90391H91.3976V8.10391ZM91.4976 13.342V8.00391H91.2976V13.342H91.4976ZM87.975 8.05692L91.3128 13.395L91.4823 13.289L88.1446 7.95089L87.975 8.05692ZM86.9854 8.10391H88.0598V7.90391H86.9854V8.10391Z" fill="white"/>
<path d="M12.527 8.61908C12.1544 9.06614 11.9664 9.63845 12.0012 10.2194V35.5038C11.9664 36.0847 12.1544 36.657 12.527 37.1041L12.607 37.1841L26.7695 23.033V22.7016L12.607 8.53906L12.527 8.61908Z" fill="url(#paint0_linear_2426_135)"/>
<path d="M31.4541 27.7533L26.7676 23.0325V22.701L31.4541 17.9688L31.557 18.0259L37.1694 21.215C38.7697 22.1181 38.7697 23.604 37.1694 24.5185L31.5799 27.6962L31.4541 27.7533Z" fill="url(#paint1_linear_2426_135)"/>
<path d="M31.5916 27.687L26.7679 22.8633L12.5254 37.1058C13.1983 37.6973 14.197 37.7262 14.903 37.1744L31.603 27.687" fill="url(#paint2_linear_2426_135)"/>
<path d="M31.5903 18.0389L14.8903 8.55149C14.1843 7.99971 13.1856 8.02851 12.5127 8.62007L26.7666 22.8626L31.5903 18.0389Z" fill="url(#paint3_linear_2426_135)"/>
<path opacity="0.2" d="M31.4544 27.582L14.8915 37.0123C14.2137 37.519 13.2832 37.519 12.6054 37.0123L12.5254 37.0923L12.6054 37.1723C13.2819 37.6829 14.215 37.6829 14.8915 37.1723L31.5916 27.6849L31.4544 27.582Z" fill="black"/>
<path opacity="0.12" fill-rule="evenodd" clip-rule="evenodd" d="M31.4552 27.5841L37.1705 24.3493C37.7611 24.0577 38.1833 23.5089 38.3136 22.8633C38.2547 23.577 37.8187 24.2048 37.1705 24.5093L31.5581 27.687L31.4552 27.5841ZM11.9987 35.5663C12.0176 36.0692 12.2021 36.5542 12.527 36.944L12.607 37.0355L12.527 37.1155C12.1653 36.6815 11.9775 36.1296 11.9987 35.5663ZM11.9987 35.5663C11.9993 35.5493 12.0001 35.5322 12.0012 35.5152V35.3438C11.9967 35.4181 11.9959 35.4924 11.9987 35.5663Z" fill="black"/>
<path opacity="0.25" d="M14.8916 8.70971L37.1699 21.3748C37.7605 21.6663 38.1826 22.2151 38.3129 22.8608C38.254 22.147 37.818 21.5193 37.1699 21.2148L14.8916 8.54968C13.2914 7.64667 11.9883 8.40109 11.9883 10.23V10.4014C12.0226 8.56111 13.3028 7.8067 14.8916 8.70971V8.70971Z" fill="white"/>
<defs>
<linearGradient id="paint0_linear_2426_135" x1="20.5664" y1="-8.63993" x2="-2.11125" y2="-2.60876" gradientUnits="userSpaceOnUse">
<stop stop-color="#00A0FF"/>
<stop offset="0.01" stop-color="#00A1FF"/>
<stop offset="0.26" stop-color="#00BEFF"/>
<stop offset="0.51" stop-color="#00D2FF"/>
<stop offset="0.76" stop-color="#00DFFF"/>
<stop offset="1" stop-color="#00E3FF"/>
</linearGradient>
<linearGradient id="paint1_linear_2426_135" x1="39.2612" y1="11.2015" x2="11.6106" y2="11.2015" gradientUnits="userSpaceOnUse">
<stop stop-color="#FFE000"/>
<stop offset="0.41" stop-color="#FFBD00"/>
<stop offset="0.78" stop-color="#FFA500"/>
<stop offset="1" stop-color="#FF9C00"/>
</linearGradient>
<linearGradient id="paint2_linear_2426_135" x1="12.1069" y1="15.4649" x2="-6.10937" y2="46.1064" gradientUnits="userSpaceOnUse">
<stop stop-color="#FF3A44"/>
<stop offset="1" stop-color="#C31162"/>
</linearGradient>
<linearGradient id="paint3_linear_2426_135" x1="1.40219" y1="4.68339" x2="9.53309" y2="18.3663" gradientUnits="userSpaceOnUse">
<stop stop-color="#32A071"/>
<stop offset="0.07" stop-color="#2DA771"/>
<stop offset="0.48" stop-color="#15CF74"/>
<stop offset="0.8" stop-color="#06E775"/>
<stop offset="1" stop-color="#00F076"/>
</linearGradient>
</defs>
</svg>
