<svg width="20" height="20" viewBox="0 0 20 20" fill="none" xmlns="http://www.w3.org/2000/svg">
<path d="M16.68 1.6665C15.7522 1.6665 15 3.90508 15 6.6665H16.68C17.4897 6.6665 17.8945 6.6665 18.1451 6.38696C18.3957 6.10741 18.3521 5.73928 18.2648 5.00301C18.0345 3.05936 17.4119 1.6665 16.68 1.6665Z" stroke="#464C54" stroke-width="1.25"/>
<path d="M15 6.71172V15.538C15 16.7978 15 17.4276 14.615 17.6755C13.9859 18.0808 13.0134 17.231 12.5243 16.9226C12.1201 16.6677 11.9181 16.5403 11.6938 16.5329C11.4514 16.5249 11.2458 16.6472 10.8091 16.9226L9.21669 17.9268C8.7871 18.1977 8.57235 18.3332 8.33335 18.3332C8.09436 18.3332 7.87957 18.1977 7.45002 17.9268L5.85763 16.9226C5.45348 16.6677 5.2514 16.5403 5.02713 16.5329C4.78479 16.5249 4.57913 16.6472 4.14241 16.9226C3.65331 17.231 2.68075 18.0808 2.05165 17.6755C1.66669 17.4276 1.66669 16.7978 1.66669 15.538V6.71172C1.66669 4.33338 1.66669 3.14421 2.39892 2.40536C3.13115 1.6665 4.30966 1.6665 6.66669 1.6665H16.6667" stroke="#464C54" stroke-width="1.25" stroke-linecap="round" stroke-linejoin="round"/>
<path d="M5 5H11.6667" stroke="#464C54" stroke-width="1.25" stroke-linecap="round" stroke-linejoin="round"/>
<path d="M6.66667 8.3335H5" stroke="#464C54" stroke-width="1.25" stroke-linecap="round" stroke-linejoin="round"/>
<path d="M10.4167 9.06266C9.72635 9.06266 9.16669 9.55233 9.16669 10.1564C9.16669 10.7605 9.72635 11.2502 10.4167 11.2502C11.107 11.2502 11.6667 11.7398 11.6667 12.3439C11.6667 12.948 11.107 13.4377 10.4167 13.4377M10.4167 9.06266C10.9609 9.06266 11.4239 9.367 11.5955 9.79183M10.4167 9.06266V8.3335M10.4167 13.4377C9.87244 13.4377 9.40944 13.1333 9.23785 12.7085M10.4167 13.4377V14.1668" stroke="#464C54" stroke-width="1.25" stroke-linecap="round"/>
</svg>
