<svg width="16" height="16" viewBox="0 0 16 16" fill="none" xmlns="http://www.w3.org/2000/svg">
<path d="M2.66675 12.4312V5.37016C2.66675 3.46748 2.66675 2.51615 3.25253 1.92507C3.83832 1.33398 4.78113 1.33398 6.66675 1.33398H9.33341C11.219 1.33398 12.1618 1.33398 12.7476 1.92507C13.3334 2.51615 13.3334 3.46748 13.3334 5.37016V12.4312C13.3334 13.439 13.3334 13.9429 13.0254 14.1412C12.5221 14.4654 11.7441 13.7856 11.3528 13.5389C11.0295 13.3349 10.8679 13.233 10.6884 13.2271C10.4945 13.2207 10.33 13.3185 9.98068 13.5389L8.70675 14.3423C8.36308 14.5589 8.19128 14.6673 8.00008 14.6673C7.80888 14.6673 7.63708 14.5589 7.29341 14.3423L6.0195 13.5389C5.69618 13.3349 5.53452 13.233 5.3551 13.2271C5.16123 13.2207 4.9967 13.3185 4.64733 13.5389C4.25605 13.7856 3.47799 14.4654 2.97471 14.1412C2.66675 13.9429 2.66675 13.439 2.66675 12.4312Z" stroke="#4D4D4D" stroke-width="1.25" stroke-linecap="round" stroke-linejoin="round"/>
<path d="M10.6666 4H5.33325" stroke="#4D4D4D" stroke-width="1.25" stroke-linecap="round" stroke-linejoin="round"/>
<path d="M6.66659 6.66602H5.33325" stroke="#4D4D4D" stroke-width="1.25" stroke-linecap="round" stroke-linejoin="round"/>
<path d="M9.66675 6.58333C9.11448 6.58333 8.66675 6.97507 8.66675 7.45833C8.66675 7.9416 9.11448 8.33333 9.66675 8.33333C10.219 8.33333 10.6667 8.72507 10.6667 9.20833C10.6667 9.6916 10.219 10.0833 9.66675 10.0833M9.66675 6.58333C10.1021 6.58333 10.4725 6.8268 10.6098 7.16667M9.66675 6.58333V6M9.66675 10.0833C9.23135 10.0833 8.86095 9.83987 8.72368 9.5M9.66675 10.0833V10.6667" stroke="#4D4D4D" stroke-width="1.25" stroke-linecap="round"/>
</svg>
