<svg width="35" height="42" viewBox="0 0 35 42" fill="none" xmlns="http://www.w3.org/2000/svg">
<path d="M13.1664 7.11719C9.81317 7.30794 6.33851 8.62864 3.95341 10.9933C1.56831 13.3579 0.219648 16.4942 0 19.8456H6.74742C6.85699 18.1739 7.61888 17.07 8.8086 15.8905C9.99832 14.711 11.4937 13.6176 13.1664 13.5224V7.11719Z" fill="#FF5F00"/>
<path d="M12.666 13.0762C11.0027 13.3379 9.563 14.4387 8.45703 15.5352C7.33326 16.6493 6.52255 17.7571 6.29785 19.3457H0.545898C0.859487 16.3106 2.13909 13.4966 4.30566 11.3486C6.46584 9.20699 9.58157 7.94434 12.666 7.65723V13.0762Z" stroke="white" stroke-opacity="0.2"/>
<path d="M7.47266 33.0945C9.47939 34.1218 11.8993 34.5726 14.1534 34.5367C16.4075 34.5007 18.6183 33.9114 20.5912 32.8207C22.5642 31.73 24.2389 30.1712 25.4681 28.2814C26.6973 26.3916 27.2029 23.5973 27.4001 21.3516L20.9323 21.3655C20.8339 22.4858 20.3005 23.5786 19.6874 24.5213C19.0742 25.4639 18.4205 26.1452 17.4364 26.6893C16.4523 27.2334 15.3581 27.7389 14.2338 27.7568C13.1094 27.7748 9.66166 27.9941 7.47266 24.5542V33.0945Z" fill="#FF5F00"/>
<path d="M26.8457 21.8525C26.6185 23.966 26.1138 26.3715 25.0488 28.0088C23.8644 29.8297 22.2507 31.3317 20.3496 32.3828C18.4484 33.4339 16.3177 34.0025 14.1455 34.0371C12.0584 34.0704 9.83904 33.6702 7.97266 32.7812V26.0137C10.2795 28.4614 13.2693 28.2724 14.2422 28.2568C15.4991 28.2367 16.6872 27.6751 17.6787 27.127C18.7493 26.535 19.459 25.7893 20.1064 24.7939C20.6594 23.9438 21.1767 22.9357 21.3691 21.8643L26.8457 21.8525Z" stroke="white" stroke-opacity="0.2"/>
<path d="M0 20.6387H6.76112V41.2779C6.76112 41.2779 4.41284 41.1108 3.07108 40.6524C1.69629 40.1828 0 38.8964 0 38.8964V20.6387Z" fill="#FF5F00"/>
<path d="M6.26074 21.1387V40.7305C6.04467 40.7087 5.77723 40.68 5.48438 40.6416C4.82761 40.5554 4.07121 40.4283 3.47656 40.2559L3.23242 40.1797C2.60333 39.9648 1.87664 39.5517 1.28906 39.1768C0.999366 38.9919 0.750661 38.8216 0.575195 38.6973C0.548175 38.6781 0.523408 38.6594 0.5 38.6426V21.1387H6.26074Z" stroke="white" stroke-opacity="0.2"/>
<rect x="13.8789" y="7.11719" width="20.6392" height="6.40526" fill="#00987F"/>
<rect x="27.4004" width="20.6392" height="6.40526" transform="rotate(90 27.4004 0)" fill="#00987F"/>
</svg>
