<svg width="26" height="26" viewBox="0 0 26 26" fill="none" xmlns="http://www.w3.org/2000/svg">
<path d="M18.8509 0H2.81641V26H23.1837V4.33279L18.8509 0Z" fill="#E8E8E8"/>
<path d="M19.7245 12.8579C19.4121 12.3011 18.3326 12.1261 17.8374 12.0474C17.4471 11.9853 17.0485 11.9668 16.6537 11.9671C16.3437 11.9651 16.0383 11.9804 15.7367 11.9975C15.6256 12.005 15.5156 12.0146 15.4056 12.0241C15.293 11.9075 15.1841 11.787 15.0787 11.6637C14.4081 10.8699 13.8666 9.96965 13.4254 9.03414C13.5425 8.58213 13.6363 8.11039 13.6929 7.62047C13.7962 6.72629 13.8317 5.70726 13.4966 4.85477C13.381 4.56054 13.0725 4.20234 12.7166 4.38071C12.3075 4.58584 12.1924 5.167 12.159 5.57897C12.1322 5.91196 12.151 6.24581 12.2069 6.57322C12.2638 6.90287 12.3555 7.21587 12.4553 7.52845C12.5484 7.81505 12.6511 8.09941 12.763 8.38112C12.692 8.60288 12.6166 8.82078 12.5375 9.03311C12.3529 9.51703 12.1534 9.97677 11.9615 10.419C11.8603 10.6383 11.7612 10.8529 11.6643 11.0628C11.3576 11.7364 11.0247 12.3976 10.6511 13.0369C9.77958 13.3443 8.99749 13.7007 8.34798 14.1195C7.99955 14.3446 7.69178 14.5891 7.43545 14.8573C7.19345 15.1104 6.94751 15.439 6.92598 15.8026C6.91389 16.0079 6.99519 16.2072 7.16335 16.3289C7.39463 16.5017 7.70112 16.4902 7.96945 16.434C8.84844 16.2496 9.52343 15.494 10.0982 14.8572C10.4942 14.4186 10.9448 13.8616 11.4162 13.188C11.4172 13.1864 11.4183 13.1849 11.4194 13.1833C12.2279 12.9327 13.1078 12.721 14.0417 12.5655C14.4683 12.4947 14.9063 12.4368 15.353 12.3962C15.6671 12.6904 16.0065 12.9583 16.3768 13.182C16.6652 13.3595 16.972 13.5093 17.293 13.621C17.6177 13.7271 17.9443 13.8137 18.2816 13.8685C18.4519 13.8929 18.6261 13.9039 18.804 13.8972C19.2012 13.8822 19.7712 13.7299 19.8086 13.2481C19.8201 13.1006 19.7883 12.9713 19.7245 12.8579ZM10.2169 13.742C10.0309 14.0302 9.85153 14.2893 9.6825 14.5173C9.26856 15.0806 8.79579 15.7496 8.11129 15.9997C7.98129 16.0472 7.81012 16.0963 7.62969 16.0856C7.46898 16.0762 7.31051 16.0053 7.3178 15.8228C7.3214 15.7273 7.36814 15.6054 7.43983 15.4857C7.51829 15.3544 7.61545 15.234 7.72068 15.1233C7.94613 14.8864 8.23118 14.6569 8.55911 14.4443C9.06206 14.118 9.66252 13.8243 10.3318 13.5622C10.2933 13.6231 10.2549 13.6836 10.2169 13.742ZM12.5514 6.51628C12.4997 6.21494 12.4919 5.90939 12.5237 5.61559C12.5394 5.46869 12.5694 5.32531 12.6127 5.19093C12.6494 5.07688 12.7286 4.79851 12.855 4.76275C13.0634 4.70375 13.1275 5.15114 13.151 5.27772C13.2853 5.99772 13.167 6.79842 13.0059 7.5047C12.9802 7.61704 12.9517 7.72757 12.9224 7.83768C12.8725 7.70039 12.8249 7.56267 12.7811 7.42426C12.6868 7.12197 12.6005 6.81617 12.5514 6.51628ZM13.982 12.2001C13.1991 12.3271 12.4543 12.4933 11.7542 12.6896C11.8385 12.6661 12.2237 11.936 12.3096 11.7845C12.7145 11.0714 13.0457 10.323 13.2836 9.53796C13.7038 10.369 14.2138 11.164 14.8403 11.8717C14.8981 11.9359 14.9567 11.9994 15.0164 12.0621C14.6653 12.0999 14.3198 12.1459 13.982 12.2001ZM19.2769 13.203C19.2483 13.3578 18.9177 13.4463 18.7634 13.4706C18.3075 13.5423 17.8252 13.4849 17.3889 13.3384C17.0895 13.2379 16.8008 13.101 16.5265 12.9364C16.2538 12.7716 15.9986 12.5778 15.7602 12.3641C16.0542 12.3464 16.3519 12.3349 16.651 12.3405C16.9501 12.3435 17.2515 12.3586 17.5493 12.3975C18.1076 12.4597 18.7333 12.6514 19.1728 13.0137C19.2593 13.0851 19.2869 13.1483 19.2769 13.203Z" fill="#FB3449"/>
<path d="M19.5214 2.16644H2.81641V0H18.8509L19.5214 2.16644Z" fill="#FB3449"/>
<path d="M10.8775 20.6797C10.8775 21.1395 10.742 21.4945 10.4709 21.7449C10.1997 21.9954 9.81467 22.1206 9.31557 22.1206H9.00316V23.4856H7.8916V19.3711H9.31565C9.83533 19.3711 10.2256 19.4846 10.4864 19.7116C10.7472 19.9386 10.8775 20.2613 10.8775 20.6797ZM9.00325 21.2144H9.20589C9.37285 21.2144 9.5056 21.1676 9.60414 21.0737C9.70267 20.9799 9.75189 20.8504 9.75189 20.6853C9.75189 20.4076 9.59805 20.2688 9.29036 20.2688H9.00325V21.2144Z" fill="#09160C"/>
<path d="M15.0258 21.3411C15.0258 22.0277 14.8367 22.5568 14.4587 22.9283C14.0807 23.2998 13.5491 23.4856 12.8644 23.4856H11.5332V19.3711H12.9573C13.6177 19.3711 14.1275 19.5399 14.4868 19.8777C14.846 20.2154 15.0258 20.7032 15.0258 21.3411ZM13.8719 21.3805C13.8719 21.0034 13.7973 20.7239 13.6482 20.5418C13.4991 20.3599 13.2725 20.2689 12.9685 20.2689H12.6449V22.5737H12.8926C13.2304 22.5737 13.478 22.4757 13.6356 22.2796C13.7931 22.0836 13.8719 21.7839 13.8719 21.3805Z" fill="#09160C"/>
<path d="M16.8574 23.4856H15.7627V19.3711H18.1943V20.2632H16.8574V21.0484H18.0901V21.9405H16.8574V23.4856Z" fill="#09160C"/>
<path d="M18.8506 4.33279H23.1834L18.8506 0V4.33279Z" fill="#D1D3D3"/>
</svg>
