<svg width="26" height="26" viewBox="0 0 26 26" fill="none" xmlns="http://www.w3.org/2000/svg">
<path d="M18.2124 3.30762H7.78809V8.14154H18.2124V3.30762Z" fill="white"/>
<path d="M26 7.32738V16.1043C26 17.1143 25.1786 17.9358 24.1685 17.9358H19.3147V23.2433C19.3147 23.5476 19.0677 23.7946 18.7634 23.7946H7.23653C6.9322 23.7946 6.6852 23.5476 6.6852 23.2433V17.9358H1.83148C0.821438 17.9358 0 17.1143 0 16.1043V7.32738C0 6.3174 0.821438 5.49591 1.83148 5.49591H6.68525V2.75641C6.68525 2.45208 6.93225 2.20508 7.23658 2.20508H18.7635C19.0678 2.20508 19.3148 2.45208 19.3148 2.75641V5.49591H24.1686C25.1786 5.49591 26 6.31734 26 7.32738ZM24.8974 16.1043V7.32738C24.8974 6.92545 24.5705 6.59852 24.1685 6.59852H21.7322V8.69294C21.7322 8.99727 21.4852 9.24427 21.1809 9.24427H4.81904C4.51471 9.24427 4.26771 8.99727 4.26771 8.69294V6.59852H1.83148C1.42954 6.59852 1.10261 6.92545 1.10261 7.32738V16.1043C1.10261 16.5062 1.42954 16.8332 1.83148 16.8332H6.68525V15.4312H5.67963C5.3753 15.4312 5.1283 15.1842 5.1283 14.8799C5.1283 14.5755 5.3753 14.3285 5.67963 14.3285H7.23653H18.7634H20.3203C20.6247 14.3285 20.8717 14.5755 20.8717 14.8799C20.8717 15.1842 20.6247 15.4312 20.3203 15.4312H19.3147V16.8332H24.1685C24.5705 16.8331 24.8974 16.5062 24.8974 16.1043ZM20.6296 8.14166V6.59852H19.3147V8.14166H20.6296ZM18.2121 22.692V15.4312H7.78786V22.692H18.2121ZM18.2121 8.14166V3.30774H7.78786V8.14166H18.2121ZM6.68525 8.14166V6.59852H5.37037V8.14166H6.68525Z" fill="#00987F"/>
<path d="M24.8973 7.3275V16.1044C24.8973 16.5064 24.5704 16.8333 24.1684 16.8333H19.3147V15.4313H20.3203C20.6246 15.4313 20.8716 15.1843 20.8716 14.88C20.8716 14.5757 20.6246 14.3287 20.3203 14.3287H18.7634H7.23646H5.67956C5.37522 14.3287 5.12822 14.5757 5.12822 14.88C5.12822 15.1843 5.37522 15.4313 5.67956 15.4313H6.68518V16.8333H1.8314C1.42947 16.8333 1.10254 16.5064 1.10254 16.1044V7.3275C1.10254 6.92556 1.42947 6.59863 1.8314 6.59863H4.26768V8.69305C4.26768 8.99739 4.51468 9.24439 4.81902 9.24439H21.1809C21.4853 9.24439 21.7323 8.99739 21.7323 8.69305V6.59863H24.1686C24.5704 6.59863 24.8973 6.92556 24.8973 7.3275ZM4.18384 11.1343C4.18384 10.7528 3.87509 10.4435 3.49357 10.4435C3.11205 10.4435 2.8028 10.7528 2.8028 11.1343C2.8028 11.5158 3.11211 11.8251 3.49357 11.8251C3.87509 11.8251 4.18384 11.5158 4.18384 11.1343Z" fill="#00987F" fill-opacity="0.24"/>
<path d="M20.6293 6.59863H19.3145V8.14177H20.6293V6.59863Z" fill="white"/>
<path d="M18.2124 15.4316V22.6924H7.78809V15.4316H18.2124ZM16.285 17.3849C16.285 17.0801 16.0385 16.8336 15.7336 16.8336H10.2668C9.96193 16.8336 9.71549 17.0801 9.71549 17.3849C9.71549 17.6893 9.96193 17.9363 10.2668 17.9363H15.7337C16.0385 17.9363 16.285 17.6893 16.285 17.3849ZM13.3916 20.1762C13.3916 19.8719 13.1446 19.6249 12.8403 19.6249H10.2668C9.96188 19.6249 9.71544 19.8719 9.71544 20.1762C9.71544 20.4806 9.96188 20.7276 10.2668 20.7276H12.8403C13.1446 20.7276 13.3916 20.4806 13.3916 20.1762Z" fill="#00987F" fill-opacity="0.24"/>
<path d="M15.733 16.833C16.0379 16.833 16.2843 17.0794 16.2843 17.3843C16.2843 17.6887 16.0379 17.9357 15.733 17.9357H10.2662C9.96129 17.9357 9.71484 17.6887 9.71484 17.3843C9.71484 17.0794 9.96129 16.833 10.2662 16.833H15.733Z" fill="#00987F"/>
<path d="M12.8397 19.624C13.1441 19.624 13.3911 19.871 13.3911 20.1754C13.3911 20.4797 13.1441 20.7267 12.8397 20.7267H10.2662C9.96129 20.7267 9.71484 20.4797 9.71484 20.1754C9.71484 19.871 9.96129 19.624 10.2662 19.624H12.8397Z" fill="#00987F"/>
<path d="M6.685 6.59863H5.37012V8.14177H6.685V6.59863Z" fill="white"/>
<path d="M3.49351 10.4434C3.87503 10.4434 4.18378 10.7527 4.18378 11.1341C4.18378 11.5156 3.87503 11.8249 3.49351 11.8249C3.11199 11.8249 2.80273 11.5156 2.80273 11.1341C2.80273 10.7527 3.11199 10.4434 3.49351 10.4434Z" fill="#00987F"/>
</svg>
