<svg width="14" height="15" viewBox="0 0 14 15" fill="none" xmlns="http://www.w3.org/2000/svg">
<path fill-rule="evenodd" clip-rule="evenodd" d="M0 0.998698C0 0.630505 0.29848 0.332031 0.666667 0.332031H1.2923C2.21003 0.332031 3.01 0.956625 3.23258 1.84696L3.23566 1.85926L3.54544 3.33475H12.3456C12.5839 3.33914 12.8387 3.35158 13.0671 3.41186C13.3219 3.47907 13.5736 3.61314 13.7607 3.87054C13.9905 4.18681 14.0146 4.53916 13.9943 4.83518C13.9753 5.10971 13.9083 5.44278 13.8353 5.80475L13.8276 5.84337C13.5591 7.17693 13.2883 8.4802 12.6397 9.42686C12.3003 9.92226 11.8561 10.3265 11.2654 10.6007C10.6823 10.8713 9.991 10.9991 9.17547 10.9991H4.61935C4.23041 11.0105 3.87513 11.2734 3.73263 11.6653H10.6667L10.6656 11.6671L10.6651 11.668H10.6667C11.4951 11.668 12.1667 12.3395 12.1667 13.168C12.1667 13.9964 11.4951 14.668 10.6667 14.668C9.83827 14.668 9.16667 13.9964 9.16667 13.168C9.16667 13.1107 9.16987 13.0543 9.17613 12.9987H7.49053C7.4968 13.0543 7.5 13.1107 7.5 13.168C7.5 13.9964 6.8284 14.668 6 14.668C5.17157 14.668 4.5 13.9964 4.5 13.168C4.5 13.1107 4.50321 13.0543 4.50945 12.9987H3.27429C2.72923 12.9987 2.33333 12.5464 2.33333 12.0463C2.33333 11.145 2.82705 10.3401 3.56928 9.9374L1.93643 2.16015C1.85874 1.8688 1.5947 1.66536 1.2923 1.66536H0.666667C0.29848 1.66536 0 1.36688 0 0.998698ZM6 12.668C5.72387 12.668 5.5 12.8918 5.5 13.168C5.5 13.4441 5.72387 13.668 6 13.668C6.27613 13.668 6.5 13.4441 6.5 13.168C6.5 12.8918 6.27613 12.668 6 12.668ZM10.6667 12.668C10.3905 12.668 10.1667 12.8918 10.1667 13.168C10.1667 13.4441 10.3905 13.668 10.6667 13.668C10.9428 13.668 11.1667 13.4441 11.1667 13.168C11.1667 12.8918 10.9428 12.668 10.6667 12.668Z" fill="#0EC03B"/>
</svg>
