<svg width="108" height="108" viewBox="0 0 108 108" fill="none" xmlns="http://www.w3.org/2000/svg">
<rect width="108" height="108" rx="54" fill="url(#paint0_linear_2426_134)"/>
<path d="M47.1237 31.7637C41.4893 32.0842 35.6507 34.3034 31.643 38.2767C27.6353 42.2501 25.3691 47.5201 25 53.1515H36.3378C36.5219 50.3425 37.8022 48.4876 39.8013 46.5056C41.8004 44.5237 44.3132 42.6865 47.1237 42.5266V31.7637Z" fill="#FF5F00"/>
<path d="M37.5566 75.4136C40.9286 77.1398 44.9949 77.8973 48.7825 77.8369C52.5701 77.7764 56.2849 76.7863 59.6001 74.9535C62.9153 73.1207 65.7293 70.5014 67.7948 67.326C69.8603 64.1505 70.7098 59.4552 71.0412 55.6816L60.1732 55.7051C60.0079 57.5874 59.1116 59.4238 58.0813 61.0078C57.051 62.5917 55.9526 63.7365 54.2989 64.6507C52.6453 65.565 50.8068 66.4144 48.9175 66.4445C47.0282 66.4747 41.2349 66.8432 37.5566 61.0631V75.4136Z" fill="#FF5F00"/>
<path d="M25 54.4863H36.3609V89.1668C36.3609 89.1668 32.415 88.8861 30.1604 88.1159C27.8503 87.3267 25 85.1652 25 85.1652V54.4863Z" fill="#FF5F00"/>
<rect x="48.3193" y="31.7637" width="34.6805" height="10.7629" fill="#00987F"/>
<rect x="71.041" y="19.8047" width="34.6805" height="10.7629" transform="rotate(90 71.041 19.8047)" fill="#00987F"/>
<defs>
<linearGradient id="paint0_linear_2426_134" x1="54" y1="0" x2="54" y2="108" gradientUnits="userSpaceOnUse">
<stop stop-color="white"/>
<stop offset="0.756211" stop-color="#BEFFF4"/>
<stop offset="1" stop-color="#7CCEC1"/>
</linearGradient>
</defs>
</svg>
