<svg width="38" height="38" viewBox="0 0 38 38" fill="none" xmlns="http://www.w3.org/2000/svg">
<rect width="38" height="38" rx="5" fill="#029394" fill-opacity="0.1"/>
<g clip-path="url(#clip0_1863_131)">
<mask id="path-2-inside-1_1863_131" fill="white">
<path d="M11.2715 10.6611H17.0478C17.2512 10.6611 17.4546 10.7426 17.6173 10.9052L21.0342 14.3222V18.3899H13.2239C13.0206 18.3899 12.8172 18.3085 12.6545 18.1458L11.2715 16.7628"/>
</mask>
<path d="M11.2715 10.6611H17.0478C17.2512 10.6611 17.4546 10.7426 17.6173 10.9052L21.0342 14.3222V18.3899H13.2239C13.0206 18.3899 12.8172 18.3085 12.6545 18.1458L11.2715 16.7628" fill="#94DADA"/>
<path d="M17.6173 10.9052L18.3244 10.1981L18.3244 10.1981L17.6173 10.9052ZM21.0342 14.3222H22.0342V13.9079L21.7413 13.615L21.0342 14.3222ZM21.0342 18.3899V19.3899H22.0342V18.3899H21.0342ZM12.6545 18.1458L11.9474 18.8529L11.9474 18.8529L12.6545 18.1458ZM11.2715 11.6611H17.0478V9.66113H11.2715V11.6611ZM17.0478 11.6611C17.0154 11.6611 16.9851 11.6545 16.9596 11.6438C16.9339 11.6329 16.9178 11.62 16.9102 11.6123L18.3244 10.1981C17.9803 9.85406 17.525 9.66113 17.0478 9.66113V11.6611ZM16.9102 11.6123L20.3271 15.0293L21.7413 13.615L18.3244 10.1981L16.9102 11.6123ZM20.0342 14.3222V18.3899H22.0342V14.3222H20.0342ZM21.0342 17.3899H13.2239V19.3899H21.0342V17.3899ZM13.2239 17.3899C13.2564 17.3899 13.2867 17.3966 13.3121 17.4073C13.3379 17.4181 13.3539 17.4311 13.3616 17.4387L11.9474 18.8529C12.2915 19.197 12.7468 19.3899 13.2239 19.3899V17.3899ZM13.3616 17.4387L11.9786 16.0557L10.5644 17.4699L11.9474 18.8529L13.3616 17.4387Z" fill="#008788" mask="url(#path-2-inside-1_1863_131)"/>
<path d="M29.9828 31.0001H8.01668C7.56919 31.0001 7.20312 30.6341 7.20312 30.1866V27.7459C7.20312 27.2984 7.56919 26.9323 8.01668 26.9323H17.4541C17.6574 26.9323 17.8608 26.8509 18.0235 26.6882L19.5692 25.1425C19.7319 24.9799 19.9352 24.8984 20.1386 24.8984H29.9828C30.4303 24.8984 30.7963 25.2645 30.7963 25.712V30.1866C30.7963 30.6341 30.4303 31.0001 29.9828 31.0001V31.0001Z" fill="#94DADA"/>
<path d="M7.20312 11.2549C7.20312 10.7026 7.65084 10.2549 8.20312 10.2549H10.2709C10.8232 10.2549 11.2709 10.7026 11.2709 11.2549V15.7634C11.2709 16.3156 10.8232 16.7634 10.2709 16.7634H8.20313C7.65084 16.7634 7.20312 16.3156 7.20312 15.7634V11.2549Z" fill="#008788"/>
<path d="M16.1515 14.5723H26.7277C27.0372 14.5723 27.2913 14.8264 27.2913 15.1358V21.6443C27.2913 21.9537 27.0372 22.2079 26.7277 22.2079H16.1515C15.842 22.2079 15.5879 21.9537 15.5879 21.6443V15.1358C15.5879 14.8264 15.842 14.5723 16.1515 14.5723Z" fill="#94DADA" stroke="#008788" stroke-width="0.5"/>
<path d="M8.42383 10.2549H9.23739V13.9159H8.42383V10.2549Z" fill="white"/>
<path d="M8.42383 14.7285H9.23739V15.5421H8.42383V14.7285Z" fill="white"/>
<path d="M15.666 16.333H26.9993V18.333H15.666V16.333Z" fill="#CCEBEF"/>
<path d="M18.6744 29.7796H7.20312V28.9661H18.6744C18.7963 28.9661 18.8778 28.9253 18.959 28.8441L20.9117 26.8915C21.1556 26.6473 21.4404 26.5254 21.7658 26.5254H23.0675V27.3389H21.7658C21.6438 27.3389 21.5624 27.3797 21.4811 27.4609L19.5285 29.4136C19.2846 29.6577 18.9997 29.7796 18.6744 29.7796V29.7796Z" fill="#008788"/>
<path d="M15.5154 14.1457L15.4421 14.0724H15.3386H13.5547V12.9453H16.0486L18.6194 15.5162C18.8471 15.7439 18.8471 16.1552 18.6194 16.3829C18.3917 16.6107 17.9804 16.6107 17.7526 16.3829L15.5154 14.1457Z" fill="#94DADA" stroke="#008788" stroke-width="0.5"/>
</g>
<defs>
<clipPath id="clip0_1863_131">
<rect width="24" height="24" fill="white" transform="translate(7 7)"/>
</clipPath>
</defs>
</svg>
