<svg width="20" height="20" viewBox="0 0 20 20" fill="none" xmlns="http://www.w3.org/2000/svg">
<path d="M10.4166 18.3332H7.91665C5.16679 18.3332 3.79185 18.3332 2.93759 17.4339C2.08331 16.5347 2.08331 15.0874 2.08331 12.1928V7.80685C2.08331 4.91226 2.08331 3.46497 2.93759 2.56574C3.79185 1.6665 5.16679 1.6665 7.91665 1.6665H10.4166C13.1665 1.6665 14.5414 1.6665 15.3957 2.56574C16.25 3.46497 16.25 4.91226 16.25 7.80685V10.4165" stroke="#464C54" stroke-width="1.25" stroke-linecap="round" stroke-linejoin="round"/>
<path d="M18.3333 13.3335L15.8333 15.8335M15.8333 15.8335L13.3333 18.3335M15.8333 15.8335L18.3333 18.3335M15.8333 15.8335L13.3333 13.3335" stroke="#464C54" stroke-width="1.25" stroke-linecap="round"/>
<path d="M5.83331 1.6665L5.90181 2.0775C6.0681 3.0752 6.15124 3.57405 6.50092 3.87028C6.8506 4.1665 7.35633 4.1665 8.36781 4.1665H9.96548C10.977 4.1665 11.4827 4.1665 11.8324 3.87028C12.1821 3.57405 12.2652 3.0752 12.4315 2.0775L12.5 1.6665" stroke="#464C54" stroke-width="1.25" stroke-linecap="round" stroke-linejoin="round"/>
<path d="M5.83331 13.3332H9.16665M5.83331 9.1665H12.5" stroke="#464C54" stroke-width="1.25" stroke-linecap="round"/>
</svg>
