<svg width="16" height="16" viewBox="0 0 16 16" fill="none" xmlns="http://www.w3.org/2000/svg">
<g clip-path="url(#clip0_3224_138)">
<path fill-rule="evenodd" clip-rule="evenodd" d="M13.3668 0.842734C13.1798 0.820641 12.9891 0.815681 12.8029 0.842468H2.66732C1.6548 0.842468 0.833984 1.66327 0.833984 2.6758V14.3425C0.833984 14.5157 0.923711 14.6767 1.07112 14.7678C1.21852 14.8589 1.4026 14.8672 1.55759 14.7897L3.97344 13.5817L6.40232 15.0998C6.56445 15.2011 6.77018 15.2011 6.93232 15.0998L9.36118 13.5817L11.7771 14.7897C11.9321 14.8672 12.1161 14.8589 12.2635 14.7678C12.4109 14.6767 12.5007 14.5157 12.5007 14.3425V5.84245H14.6673C14.9435 5.84245 15.1673 5.61859 15.1673 5.34245V2.67578C15.1673 1.67423 14.3642 0.860254 13.3668 0.842734ZM13.3288 1.84247H13.334L13.3377 1.84245C13.7962 1.84443 14.1673 2.21676 14.1673 2.67578V4.84245H12.5007V2.67578C12.5007 2.21728 12.8709 1.84527 13.3288 1.84247ZM3.50065 6.6758C3.50065 6.39964 3.72451 6.17578 4.00065 6.17578H5.33398C5.61012 6.17578 5.83398 6.39964 5.83398 6.6758C5.83398 6.95193 5.61012 7.1758 5.33398 7.1758H4.00065C3.72451 7.1758 3.50065 6.95193 3.50065 6.6758ZM4.00065 3.50911C3.72451 3.50911 3.50065 3.73297 3.50065 4.00911C3.50065 4.28526 3.72451 4.50911 4.00065 4.50911H9.33398C9.61012 4.50911 9.83398 4.28526 9.83398 4.00911C9.83398 3.73297 9.61012 3.50911 9.33398 3.50911H4.00065ZM8.33398 6.17578C8.61018 6.17578 8.83398 6.39964 8.83398 6.6758V6.74153C9.21418 6.8486 9.54298 7.08147 9.75258 7.40227C9.90358 7.63347 9.83865 7.94333 9.60745 8.09433C9.37632 8.2454 9.06645 8.18047 8.91538 7.94927C8.81858 7.80107 8.61638 7.6758 8.35565 7.6758C8.18112 7.6758 8.02545 7.72133 7.92992 7.78313C7.84758 7.8364 7.83398 7.8798 7.83398 7.9258C7.83398 8.01227 7.85165 8.04727 7.85712 8.05667C7.86212 8.06527 7.87165 8.07827 7.90185 8.095C7.98205 8.1396 8.12785 8.1686 8.35065 8.17607C8.59478 8.1842 8.94898 8.21407 9.25205 8.38247C9.41352 8.4722 9.56638 8.60433 9.67592 8.79313C9.78505 8.98127 9.83398 9.19613 9.83398 9.4258C9.83398 9.8798 9.58538 10.2114 9.28125 10.4081C9.14312 10.4974 8.99065 10.5623 8.83398 10.6057V10.6758C8.83398 10.9519 8.61018 11.1758 8.33398 11.1758C8.05785 11.1758 7.83398 10.9519 7.83398 10.6758V10.6101C7.45385 10.5029 7.12505 10.2701 6.91545 9.94927C6.76445 9.71807 6.82938 9.40827 7.06058 9.2572C7.29172 9.10613 7.60158 9.17113 7.75265 9.40227C7.84945 9.55047 8.05158 9.6758 8.31238 9.6758C8.48692 9.6758 8.64258 9.6302 8.73812 9.56847C8.82045 9.5152 8.83398 9.47173 8.83398 9.4258C8.83398 9.33927 8.81638 9.30427 8.81092 9.29493C8.80592 9.28627 8.79638 9.27333 8.76618 9.25653C8.68598 9.21193 8.54018 9.18293 8.31732 9.17553C8.07325 9.16733 7.71905 9.13753 7.41598 8.96907C7.25452 8.87933 7.10165 8.74727 6.99212 8.5584C6.88298 8.37033 6.83398 8.1554 6.83398 7.9258C6.83398 7.47173 7.08265 7.1402 7.38678 6.94347C7.52485 6.85413 7.67738 6.78933 7.83398 6.74587V6.6758C7.83398 6.39964 8.05785 6.17578 8.33398 6.17578Z" fill="white"/>
</g>
<defs>
<clipPath id="clip0_3224_138">
<rect width="16" height="16" fill="white"/>
</clipPath>
</defs>
</svg>
