<svg width="15" height="15" viewBox="0 0 15 15" fill="none" xmlns="http://www.w3.org/2000/svg">
<path fill-rule="evenodd" clip-rule="evenodd" d="M12.5329 0.0185154C12.3458 -0.0035779 12.1551 -0.00853786 11.9689 0.0182488H1.83333C0.820813 0.0182488 0 0.839055 0 1.85158V13.5182C0 13.6915 0.0897267 13.8524 0.237133 13.9436C0.38454 14.0346 0.568613 14.043 0.723607 13.9654L3.13946 12.7575L5.56833 14.2756C5.73047 14.3769 5.9362 14.3769 6.09833 14.2756L8.5272 12.7575L10.9431 13.9654C11.0981 14.043 11.2821 14.0346 11.4295 13.9436C11.5769 13.8524 11.6667 13.6915 11.6667 13.5182V5.01823H13.8333C14.1095 5.01823 14.3333 4.79438 14.3333 4.51823V1.85156C14.3333 0.850015 13.5303 0.0360354 12.5329 0.0185154ZM12.4948 1.01825H12.5L12.5037 1.01824C12.9622 1.02021 13.3333 1.39254 13.3333 1.85156V4.01823H11.6667V1.85156C11.6667 1.39306 12.0369 1.02105 12.4948 1.01825ZM2.66667 5.85158C2.66667 5.57542 2.89053 5.35156 3.16667 5.35156H4.5C4.77614 5.35156 5 5.57542 5 5.85158C5 6.12771 4.77614 6.35158 4.5 6.35158H3.16667C2.89053 6.35158 2.66667 6.12771 2.66667 5.85158ZM3.16667 2.6849C2.89053 2.6849 2.66667 2.90876 2.66667 3.1849C2.66667 3.46104 2.89053 3.6849 3.16667 3.6849H8.5C8.77613 3.6849 9 3.46104 9 3.1849C9 2.90876 8.77613 2.6849 8.5 2.6849H3.16667ZM7.5 5.35156C7.7762 5.35156 8 5.57542 8 5.85158V5.91731C8.3802 6.02438 8.709 6.25725 8.9186 6.57805C9.0696 6.80925 9.00467 7.11912 8.77347 7.27012C8.54233 7.42118 8.23247 7.35625 8.0814 7.12505C7.9846 6.97685 7.7824 6.85158 7.52167 6.85158C7.34713 6.85158 7.19147 6.89711 7.09593 6.95891C7.0136 7.01218 7 7.05558 7 7.10158C7 7.18805 7.01767 7.22305 7.02313 7.23245C7.02813 7.24105 7.03767 7.25405 7.06787 7.27078C7.14807 7.31538 7.29387 7.34438 7.51667 7.35185C7.7608 7.35998 8.115 7.38985 8.41807 7.55825C8.57953 7.64798 8.7324 7.78011 8.84193 7.96891C8.95107 8.15705 9 8.37191 9 8.60158C9 9.05558 8.7514 9.38718 8.44727 9.58391C8.30913 9.67318 8.15667 9.73805 8 9.78151V9.85158C8 10.1277 7.7762 10.3516 7.5 10.3516C7.22387 10.3516 7 10.1277 7 9.85158V9.78585C6.61987 9.67871 6.29107 9.44585 6.08147 9.12505C5.93047 8.89385 5.9954 8.58405 6.2266 8.43298C6.45773 8.28191 6.7676 8.34691 6.91867 8.57805C7.01547 8.72625 7.2176 8.85158 7.4784 8.85158C7.65293 8.85158 7.8086 8.80598 7.90413 8.74425C7.98647 8.69098 8 8.64751 8 8.60158C8 8.51505 7.9824 8.48005 7.97693 8.47071C7.97193 8.46205 7.9624 8.44911 7.9322 8.43231C7.852 8.38771 7.7062 8.35871 7.48333 8.35131C7.23927 8.34311 6.88507 8.31331 6.582 8.14485C6.42053 8.05511 6.26767 7.92305 6.15813 7.73418C6.049 7.54611 6 7.33118 6 7.10158C6 6.64751 6.24867 6.31598 6.5528 6.11925C6.69087 6.02992 6.8434 5.96511 7 5.92165V5.85158C7 5.57542 7.22387 5.35156 7.5 5.35156Z" fill="#9E0DE8"/>
</svg>
