<svg width="16" height="17" viewBox="0 0 16 17" fill="none" xmlns="http://www.w3.org/2000/svg">
<path d="M1.59159 1.89472C1.75057 1.8066 1.94484 1.8117 2.09898 1.90804L4.76564 3.5747C4.91184 3.66608 5.00064 3.82631 5.00064 3.9987C5.00064 4.1711 4.91184 4.33134 4.76564 4.4227L2.09898 6.08937C1.94484 6.1857 1.75057 6.1908 1.59159 6.10269C1.43262 6.01458 1.33398 5.84713 1.33398 5.66537V2.33204C1.33398 2.15028 1.43262 1.98283 1.59159 1.89472Z" fill="#4A4A52"/>
<path d="M1.59159 10.5627C1.75057 10.4745 1.94484 10.4797 2.09898 10.576L4.76564 12.2427C4.91184 12.3341 5.00064 12.4943 5.00064 12.6667C5.00064 12.8391 4.91184 12.9993 4.76564 13.0907L2.09898 14.7573C1.94484 14.8537 1.75057 14.8588 1.59159 14.7707C1.43262 14.6825 1.33398 14.5151 1.33398 14.3333V11C1.33398 10.8183 1.43262 10.6508 1.59159 10.5627Z" fill="#4A4A52"/>
<path fill-rule="evenodd" clip-rule="evenodd" d="M6.5 4.00064C6.5 3.63246 6.79847 3.33398 7.16667 3.33398H13.8333C14.2015 3.33398 14.5 3.63246 14.5 4.00064C14.5 4.36884 14.2015 4.66731 13.8333 4.66731H7.16667C6.79847 4.66731 6.5 4.36883 6.5 4.00064Z" fill="#4A4A52"/>
<path fill-rule="evenodd" clip-rule="evenodd" d="M6.5 8.33269C6.5 7.96449 6.79847 7.66602 7.16667 7.66602H13.8333C14.2015 7.66602 14.5 7.96449 14.5 8.33269C14.5 8.70089 14.2015 8.99936 13.8333 8.99936H7.16667C6.79847 8.99936 6.5 8.70089 6.5 8.33269Z" fill="#4A4A52"/>
<path fill-rule="evenodd" clip-rule="evenodd" d="M6.5 12.6667C6.5 12.2985 6.79847 12 7.16667 12H13.8333C14.2015 12 14.5 12.2985 14.5 12.6667C14.5 13.0349 14.2015 13.3333 13.8333 13.3333H7.16667C6.79847 13.3333 6.5 13.0349 6.5 12.6667Z" fill="#4A4A52"/>
</svg>
