<svg width="35" height="34" viewBox="0 0 35 34" fill="none" xmlns="http://www.w3.org/2000/svg">
<g id="Group 1171275020">
<rect id="Rectangle 34624138" x="0.407227" width="34" height="34" rx="8" fill="#FF3030" fill-opacity="0.1"/>
<g id="Iconly/Bold/Setting">
<g id="Setting">
<path id="Vector" d="M18.6245 7C19.3807 7 20.0654 7.42 20.4435 8.04C20.6275 8.34 20.7501 8.71 20.7195 9.1C20.699 9.4 20.791 9.7 20.9545 9.98C21.4757 10.83 22.6305 11.15 23.5298 10.67C24.5416 10.09 25.819 10.44 26.4015 11.43L27.0863 12.61C27.679 13.6 27.352 14.87 26.33 15.44C25.4613 15.95 25.1548 17.08 25.676 17.94C25.8395 18.21 26.0234 18.44 26.3096 18.58C26.6673 18.77 26.9432 19.07 27.1374 19.37C27.5155 19.99 27.4848 20.75 27.1169 21.42L26.4015 22.62C26.0234 23.26 25.3183 23.66 24.5927 23.66C24.235 23.66 23.8364 23.56 23.5094 23.36C23.2437 23.19 22.9371 23.13 22.6101 23.13C21.5983 23.13 20.7501 23.96 20.7195 24.95C20.7195 26.1 19.7793 27 18.604 27H17.2142C16.0287 27 15.0885 26.1 15.0885 24.95C15.068 23.96 14.2198 23.13 13.2081 23.13C12.8708 23.13 12.5642 23.19 12.3088 23.36C11.9817 23.56 11.5729 23.66 11.2255 23.66C10.4897 23.66 9.78452 23.26 9.4064 22.62L8.70125 21.42C8.32312 20.77 8.30268 19.99 8.68081 19.37C8.84432 19.07 9.15091 18.77 9.49837 18.58C9.78452 18.44 9.96847 18.21 10.1422 17.94C10.6532 17.08 10.3466 15.95 9.47793 15.44C8.4662 14.87 8.13917 13.6 8.72169 12.61L9.4064 11.43C9.99913 10.44 11.2664 10.09 12.2883 10.67C13.1774 11.15 14.3322 10.83 14.8534 9.98C15.0169 9.7 15.1089 9.4 15.0885 9.1C15.068 8.71 15.1805 8.34 15.3746 8.04C15.7528 7.42 16.4375 7.02 17.1835 7H18.6245ZM17.9193 14.18C16.3148 14.18 15.0169 15.44 15.0169 17.01C15.0169 18.58 16.3148 19.83 17.9193 19.83C19.5238 19.83 20.791 18.58 20.791 17.01C20.791 15.44 19.5238 14.18 17.9193 14.18Z" fill="#FF3030"/>
</g>
</g>
</g>
</svg>
