<svg width="408" height="394" viewBox="0 0 408 394" fill="none" xmlns="http://www.w3.org/2000/svg">
<path d="M407 1.00001C391 46.5 389.65 127.421 357.25 140.301C316.75 156.401 326.75 162.701 303.75 251.601C280.75 340.501 265 367.101 204.25 362.901C143.5 358.701 142 366.4 129 393" stroke="url(#paint0_linear_2494_125)" stroke-opacity="0.4" stroke-linecap="round"/>
<path d="M403 1.00001C387 46.5 385.65 127.421 353.25 140.301C312.75 156.401 322.75 162.701 299.75 251.601C276.75 340.501 261 367.101 200.25 362.901C139.5 358.701 138 366.4 125 393" stroke="url(#paint1_linear_2494_125)" stroke-opacity="0.4" stroke-linecap="round"/>
<path d="M399 1.00001C383 46.5 381.65 127.421 349.25 140.301C308.75 156.401 318.75 162.701 295.75 251.601C272.75 340.501 257 367.101 196.25 362.901C135.5 358.701 134 366.4 121 393" stroke="url(#paint2_linear_2494_125)" stroke-opacity="0.4" stroke-linecap="round"/>
<path d="M395.001 1.00001C379.001 46.5 377.651 127.421 345.251 140.301C304.751 156.401 314.751 162.701 291.751 251.601C268.751 340.501 253.001 367.101 192.251 362.901C131.501 358.701 130.001 366.4 117.001 393" stroke="url(#paint3_linear_2494_125)" stroke-opacity="0.4" stroke-linecap="round"/>
<path d="M391 1.00001C375 46.5 373.65 127.421 341.25 140.301C300.75 156.401 310.75 162.701 287.75 251.601C264.75 340.501 249 367.101 188.25 362.901C127.5 358.701 126 366.4 113 393" stroke="url(#paint4_linear_2494_125)" stroke-opacity="0.4" stroke-linecap="round"/>
<path d="M387.001 1.00001C371.001 46.5 369.651 127.421 337.251 140.301C296.751 156.401 306.751 162.701 283.751 251.601C260.751 340.501 245.001 367.101 184.251 362.901C123.501 358.701 122.001 366.4 109.001 393" stroke="url(#paint5_linear_2494_125)" stroke-opacity="0.4" stroke-linecap="round"/>
<path d="M383 1.00001C367 46.5 365.65 127.421 333.25 140.301C292.75 156.401 302.75 162.701 279.75 251.601C256.75 340.501 241 367.101 180.25 362.901C119.5 358.701 118 366.4 105 393" stroke="url(#paint6_linear_2494_125)" stroke-opacity="0.4" stroke-linecap="round"/>
<path d="M379.001 1.00001C363.001 46.5 361.651 127.421 329.251 140.301C288.751 156.401 298.751 162.701 275.751 251.601C252.751 340.501 237.001 367.101 176.251 362.901C115.501 358.701 114.001 366.4 101.001 393" stroke="url(#paint7_linear_2494_125)" stroke-opacity="0.4" stroke-linecap="round"/>
<path d="M375 1.00001C359 46.5 357.65 127.421 325.25 140.301C284.75 156.401 294.75 162.701 271.75 251.601C248.75 340.501 233 367.101 172.25 362.901C111.5 358.701 110 366.4 97 393" stroke="url(#paint8_linear_2494_125)" stroke-opacity="0.4" stroke-linecap="round"/>
<path d="M371.001 1.00001C355.001 46.5 353.651 127.421 321.251 140.301C280.751 156.401 290.751 162.701 267.751 251.601C244.751 340.501 229.001 367.101 168.251 362.901C107.501 358.701 106.001 366.4 93.001 393" stroke="url(#paint9_linear_2494_125)" stroke-opacity="0.4" stroke-linecap="round"/>
<path d="M367 1.00001C351 46.5 349.65 127.421 317.25 140.301C276.75 156.401 286.75 162.701 263.75 251.601C240.75 340.501 225 367.101 164.25 362.901C103.5 358.701 102 366.4 89 393" stroke="url(#paint10_linear_2494_125)" stroke-opacity="0.4" stroke-linecap="round"/>
<path d="M363.001 1.00001C347.001 46.5 345.651 127.421 313.251 140.301C272.751 156.401 282.751 162.701 259.751 251.601C236.751 340.501 221.001 367.101 160.251 362.901C99.5009 358.701 98.0009 366.4 85.001 393" stroke="url(#paint11_linear_2494_125)" stroke-opacity="0.4" stroke-linecap="round"/>
<path d="M359 1.00001C343 46.5 341.65 127.421 309.25 140.301C268.75 156.401 278.75 162.701 255.75 251.601C232.75 340.501 217 367.101 156.25 362.901C95.4999 358.701 94 366.4 81 393" stroke="url(#paint12_linear_2494_125)" stroke-opacity="0.4" stroke-linecap="round"/>
<path d="M355.001 1.00001C339.001 46.5 337.651 127.421 305.251 140.301C264.751 156.401 274.751 162.701 251.751 251.601C228.751 340.501 213.001 367.101 152.251 362.901C91.5009 358.701 90.0009 366.4 77.001 393" stroke="url(#paint13_linear_2494_125)" stroke-opacity="0.4" stroke-linecap="round"/>
<path d="M351 1.00001C335 46.5 333.65 127.421 301.25 140.301C260.75 156.401 270.75 162.701 247.75 251.601C224.75 340.501 209 367.101 148.25 362.901C87.4999 358.701 86 366.4 73 393" stroke="url(#paint14_linear_2494_125)" stroke-opacity="0.4" stroke-linecap="round"/>
<path d="M347.001 1.00001C331.001 46.5 329.651 127.421 297.251 140.301C256.751 156.401 266.751 162.701 243.751 251.601C220.751 340.501 205.001 367.101 144.251 362.901C83.5009 358.701 82.0009 366.4 69.001 393" stroke="url(#paint15_linear_2494_125)" stroke-opacity="0.4" stroke-linecap="round"/>
<path d="M343 1.00001C327 46.5 325.65 127.421 293.25 140.301C252.75 156.401 262.75 162.701 239.75 251.601C216.75 340.501 201 367.101 140.25 362.901C79.4999 358.701 78 366.4 65 393" stroke="url(#paint16_linear_2494_125)" stroke-opacity="0.4" stroke-linecap="round"/>
<path d="M339.001 1.00001C323.001 46.5 321.651 127.421 289.251 140.301C248.751 156.401 258.751 162.701 235.751 251.601C212.751 340.501 197.001 367.101 136.251 362.901C75.5009 358.701 74.0009 366.4 61.001 393" stroke="url(#paint17_linear_2494_125)" stroke-opacity="0.4" stroke-linecap="round"/>
<path d="M335 1.00001C319 46.5 317.65 127.421 285.25 140.301C244.75 156.401 254.75 162.701 231.75 251.601C208.75 340.501 193 367.101 132.25 362.901C71.4999 358.701 70 366.4 57 393" stroke="url(#paint18_linear_2494_125)" stroke-opacity="0.4" stroke-linecap="round"/>
<path d="M331.001 1.00001C315.001 46.5 313.651 127.421 281.251 140.301C240.751 156.401 250.751 162.701 227.751 251.601C204.751 340.501 189.001 367.101 128.251 362.901C67.5009 358.701 66.0009 366.4 53.001 393" stroke="url(#paint19_linear_2494_125)" stroke-opacity="0.4" stroke-linecap="round"/>
<path d="M327 1.00001C311 46.5 309.65 127.421 277.25 140.301C236.75 156.401 246.75 162.701 223.75 251.601C200.75 340.501 185 367.101 124.25 362.901C63.4999 358.701 62 366.4 49 393" stroke="url(#paint20_linear_2494_125)" stroke-opacity="0.4" stroke-linecap="round"/>
<path d="M323 1.00001C307 46.5 305.65 127.421 273.25 140.301C232.75 156.401 242.75 162.701 219.75 251.601C196.75 340.501 181 367.101 120.25 362.901C59.4999 358.701 58 366.4 45 393" stroke="url(#paint21_linear_2494_125)" stroke-opacity="0.4" stroke-linecap="round"/>
<path d="M318.999 1.00001C302.999 46.5 301.649 127.421 269.249 140.301C228.749 156.401 238.749 162.701 215.749 251.601C192.749 340.501 176.999 367.101 116.249 362.901C55.4989 358.701 53.999 366.4 40.999 393" stroke="url(#paint22_linear_2494_125)" stroke-opacity="0.4" stroke-linecap="round"/>
<path d="M315 1.00001C299 46.5 297.65 127.421 265.25 140.301C224.75 156.401 234.75 162.701 211.75 251.601C188.75 340.501 173 367.101 112.25 362.901C51.4999 358.701 50 366.4 37 393" stroke="url(#paint23_linear_2494_125)" stroke-opacity="0.4" stroke-linecap="round"/>
<path d="M311 1.00001C295 46.5 293.65 127.421 261.25 140.301C220.75 156.401 230.75 162.701 207.75 251.601C184.75 340.501 169 367.101 108.25 362.901C47.4999 358.701 46 366.4 33 393" stroke="url(#paint24_linear_2494_125)" stroke-opacity="0.4" stroke-linecap="round"/>
<path d="M307 1.00001C291 46.5 289.65 127.421 257.25 140.301C216.75 156.401 226.75 162.701 203.75 251.601C180.75 340.501 165 367.101 104.25 362.901C43.4999 358.701 42 366.4 29 393" stroke="url(#paint25_linear_2494_125)" stroke-opacity="0.4" stroke-linecap="round"/>
<path d="M303 1.00001C287 46.5 285.65 127.421 253.25 140.301C212.75 156.401 222.75 162.701 199.75 251.601C176.75 340.501 161 367.101 100.25 362.901C39.4999 358.701 38 366.4 25 393" stroke="url(#paint26_linear_2494_125)" stroke-opacity="0.4" stroke-linecap="round"/>
<path d="M299 1.00001C283 46.5 281.65 127.421 249.25 140.301C208.75 156.401 218.75 162.701 195.75 251.601C172.75 340.501 157 367.101 96.2499 362.901C35.4999 358.701 34 366.4 21 393" stroke="url(#paint27_linear_2494_125)" stroke-opacity="0.4" stroke-linecap="round"/>
<path d="M295 1.00001C279 46.5 277.65 127.421 245.25 140.301C204.75 156.401 214.75 162.701 191.75 251.601C168.75 340.501 153 367.101 92.2499 362.901C31.4999 358.701 30 366.4 17 393" stroke="url(#paint28_linear_2494_125)" stroke-opacity="0.4" stroke-linecap="round"/>
<path d="M291 1.00001C275 46.5 273.65 127.421 241.25 140.301C200.75 156.401 210.75 162.701 187.75 251.601C164.75 340.501 149 367.101 88.2499 362.901C27.4999 358.701 26 366.4 13 393" stroke="url(#paint29_linear_2494_125)" stroke-opacity="0.4" stroke-linecap="round"/>
<path d="M287 1.00001C271 46.5 269.65 127.421 237.25 140.301C196.75 156.401 206.75 162.701 183.75 251.601C160.75 340.501 145 367.101 84.2499 362.901C23.4999 358.701 22 366.4 8.99998 393" stroke="url(#paint30_linear_2494_125)" stroke-opacity="0.4" stroke-linecap="round"/>
<path d="M283 1.00001C267 46.5 265.65 127.421 233.25 140.301C192.75 156.401 202.75 162.701 179.75 251.601C156.75 340.501 141 367.101 80.2499 362.901C19.4999 358.701 18 366.4 4.99998 393" stroke="url(#paint31_linear_2494_125)" stroke-opacity="0.4" stroke-linecap="round"/>
<path d="M279 1.00001C263 46.5 261.65 127.421 229.25 140.301C188.75 156.401 198.75 162.701 175.75 251.601C152.75 340.501 137 367.101 76.2499 362.901C15.4999 358.701 14 366.4 0.999977 393" stroke="url(#paint32_linear_2494_125)" stroke-opacity="0.4" stroke-linecap="round"/>
<defs>
<linearGradient id="paint0_linear_2494_125" x1="122.25" y1="404.9" x2="436.616" y2="340.206" gradientUnits="userSpaceOnUse">
<stop stop-color="#2B314E" stop-opacity="0"/>
<stop offset="1" stop-color="#05E4F2"/>
</linearGradient>
<linearGradient id="paint1_linear_2494_125" x1="118.25" y1="404.9" x2="432.616" y2="340.206" gradientUnits="userSpaceOnUse">
<stop stop-color="#2B314E" stop-opacity="0"/>
<stop offset="1" stop-color="#05E4F2"/>
</linearGradient>
<linearGradient id="paint2_linear_2494_125" x1="114.25" y1="404.9" x2="428.616" y2="340.206" gradientUnits="userSpaceOnUse">
<stop stop-color="#2B314E" stop-opacity="0"/>
<stop offset="1" stop-color="#05E4F2"/>
</linearGradient>
<linearGradient id="paint3_linear_2494_125" x1="110.251" y1="404.9" x2="424.617" y2="340.206" gradientUnits="userSpaceOnUse">
<stop stop-color="#2B314E" stop-opacity="0"/>
<stop offset="1" stop-color="#05E4F2"/>
</linearGradient>
<linearGradient id="paint4_linear_2494_125" x1="106.25" y1="404.9" x2="420.616" y2="340.206" gradientUnits="userSpaceOnUse">
<stop stop-color="#2B314E" stop-opacity="0"/>
<stop offset="1" stop-color="#05E4F2"/>
</linearGradient>
<linearGradient id="paint5_linear_2494_125" x1="102.251" y1="404.9" x2="416.617" y2="340.206" gradientUnits="userSpaceOnUse">
<stop stop-color="#2B314E" stop-opacity="0"/>
<stop offset="1" stop-color="#05E4F2"/>
</linearGradient>
<linearGradient id="paint6_linear_2494_125" x1="98.25" y1="404.9" x2="412.616" y2="340.206" gradientUnits="userSpaceOnUse">
<stop stop-color="#2B314E" stop-opacity="0"/>
<stop offset="1" stop-color="#05E4F2"/>
</linearGradient>
<linearGradient id="paint7_linear_2494_125" x1="94.2509" y1="404.9" x2="408.617" y2="340.206" gradientUnits="userSpaceOnUse">
<stop stop-color="#2B314E" stop-opacity="0"/>
<stop offset="1" stop-color="#05E4F2"/>
</linearGradient>
<linearGradient id="paint8_linear_2494_125" x1="90.25" y1="404.9" x2="404.616" y2="340.206" gradientUnits="userSpaceOnUse">
<stop stop-color="#2B314E" stop-opacity="0"/>
<stop offset="1" stop-color="#05E4F2"/>
</linearGradient>
<linearGradient id="paint9_linear_2494_125" x1="86.2509" y1="404.9" x2="400.617" y2="340.206" gradientUnits="userSpaceOnUse">
<stop stop-color="#2B314E" stop-opacity="0"/>
<stop offset="1" stop-color="#05E4F2"/>
</linearGradient>
<linearGradient id="paint10_linear_2494_125" x1="82.25" y1="404.9" x2="396.616" y2="340.206" gradientUnits="userSpaceOnUse">
<stop stop-color="#2B314E" stop-opacity="0"/>
<stop offset="1" stop-color="#05E4F2"/>
</linearGradient>
<linearGradient id="paint11_linear_2494_125" x1="78.2509" y1="404.9" x2="392.617" y2="340.206" gradientUnits="userSpaceOnUse">
<stop stop-color="#2B314E" stop-opacity="0"/>
<stop offset="1" stop-color="#05E4F2"/>
</linearGradient>
<linearGradient id="paint12_linear_2494_125" x1="74.25" y1="404.9" x2="388.616" y2="340.206" gradientUnits="userSpaceOnUse">
<stop stop-color="#2B314E" stop-opacity="0"/>
<stop offset="1" stop-color="#05E4F2"/>
</linearGradient>
<linearGradient id="paint13_linear_2494_125" x1="70.2509" y1="404.9" x2="384.617" y2="340.206" gradientUnits="userSpaceOnUse">
<stop stop-color="#2B314E" stop-opacity="0"/>
<stop offset="1" stop-color="#05E4F2"/>
</linearGradient>
<linearGradient id="paint14_linear_2494_125" x1="66.25" y1="404.9" x2="380.616" y2="340.206" gradientUnits="userSpaceOnUse">
<stop stop-color="#2B314E" stop-opacity="0"/>
<stop offset="1" stop-color="#05E4F2"/>
</linearGradient>
<linearGradient id="paint15_linear_2494_125" x1="62.2509" y1="404.9" x2="376.617" y2="340.206" gradientUnits="userSpaceOnUse">
<stop stop-color="#2B314E" stop-opacity="0"/>
<stop offset="1" stop-color="#05E4F2"/>
</linearGradient>
<linearGradient id="paint16_linear_2494_125" x1="58.25" y1="404.9" x2="372.616" y2="340.206" gradientUnits="userSpaceOnUse">
<stop stop-color="#2B314E" stop-opacity="0"/>
<stop offset="1" stop-color="#05E4F2"/>
</linearGradient>
<linearGradient id="paint17_linear_2494_125" x1="54.2509" y1="404.9" x2="368.617" y2="340.206" gradientUnits="userSpaceOnUse">
<stop stop-color="#2B314E" stop-opacity="0"/>
<stop offset="1" stop-color="#05E4F2"/>
</linearGradient>
<linearGradient id="paint18_linear_2494_125" x1="50.25" y1="404.9" x2="364.616" y2="340.206" gradientUnits="userSpaceOnUse">
<stop stop-color="#2B314E" stop-opacity="0"/>
<stop offset="1" stop-color="#05E4F2"/>
</linearGradient>
<linearGradient id="paint19_linear_2494_125" x1="46.2509" y1="404.9" x2="360.617" y2="340.206" gradientUnits="userSpaceOnUse">
<stop stop-color="#2B314E" stop-opacity="0"/>
<stop offset="1" stop-color="#05E4F2"/>
</linearGradient>
<linearGradient id="paint20_linear_2494_125" x1="42.25" y1="404.9" x2="356.616" y2="340.206" gradientUnits="userSpaceOnUse">
<stop stop-color="#2B314E" stop-opacity="0"/>
<stop offset="1" stop-color="#05E4F2"/>
</linearGradient>
<linearGradient id="paint21_linear_2494_125" x1="38.25" y1="404.9" x2="352.616" y2="340.206" gradientUnits="userSpaceOnUse">
<stop stop-color="#2B314E" stop-opacity="0"/>
<stop offset="1" stop-color="#05E4F2"/>
</linearGradient>
<linearGradient id="paint22_linear_2494_125" x1="34.249" y1="404.9" x2="348.615" y2="340.206" gradientUnits="userSpaceOnUse">
<stop stop-color="#2B314E" stop-opacity="0"/>
<stop offset="1" stop-color="#05E4F2"/>
</linearGradient>
<linearGradient id="paint23_linear_2494_125" x1="30.25" y1="404.9" x2="344.616" y2="340.206" gradientUnits="userSpaceOnUse">
<stop stop-color="#2B314E" stop-opacity="0"/>
<stop offset="1" stop-color="#05E4F2"/>
</linearGradient>
<linearGradient id="paint24_linear_2494_125" x1="26.25" y1="404.9" x2="340.616" y2="340.206" gradientUnits="userSpaceOnUse">
<stop stop-color="#2B314E" stop-opacity="0"/>
<stop offset="1" stop-color="#05E4F2"/>
</linearGradient>
<linearGradient id="paint25_linear_2494_125" x1="22.25" y1="404.9" x2="336.616" y2="340.206" gradientUnits="userSpaceOnUse">
<stop stop-color="#2B314E" stop-opacity="0"/>
<stop offset="1" stop-color="#05E4F2"/>
</linearGradient>
<linearGradient id="paint26_linear_2494_125" x1="18.25" y1="404.9" x2="332.616" y2="340.206" gradientUnits="userSpaceOnUse">
<stop stop-color="#2B314E" stop-opacity="0"/>
<stop offset="1" stop-color="#05E4F2"/>
</linearGradient>
<linearGradient id="paint27_linear_2494_125" x1="14.25" y1="404.9" x2="328.616" y2="340.206" gradientUnits="userSpaceOnUse">
<stop stop-color="#2B314E" stop-opacity="0"/>
<stop offset="1" stop-color="#05E4F2"/>
</linearGradient>
<linearGradient id="paint28_linear_2494_125" x1="10.25" y1="404.9" x2="324.616" y2="340.206" gradientUnits="userSpaceOnUse">
<stop stop-color="#2B314E" stop-opacity="0"/>
<stop offset="1" stop-color="#05E4F2"/>
</linearGradient>
<linearGradient id="paint29_linear_2494_125" x1="6.24996" y1="404.9" x2="320.616" y2="340.206" gradientUnits="userSpaceOnUse">
<stop stop-color="#2B314E" stop-opacity="0"/>
<stop offset="1" stop-color="#05E4F2"/>
</linearGradient>
<linearGradient id="paint30_linear_2494_125" x1="2.24996" y1="404.9" x2="316.616" y2="340.206" gradientUnits="userSpaceOnUse">
<stop stop-color="#2B314E" stop-opacity="0"/>
<stop offset="1" stop-color="#05E4F2"/>
</linearGradient>
<linearGradient id="paint31_linear_2494_125" x1="-1.75004" y1="404.9" x2="312.616" y2="340.206" gradientUnits="userSpaceOnUse">
<stop stop-color="#2B314E" stop-opacity="0"/>
<stop offset="1" stop-color="#05E4F2"/>
</linearGradient>
<linearGradient id="paint32_linear_2494_125" x1="-5.75004" y1="404.9" x2="308.616" y2="340.206" gradientUnits="userSpaceOnUse">
<stop stop-color="#2B314E" stop-opacity="0"/>
<stop offset="1" stop-color="#05E4F2"/>
</linearGradient>
</defs>
</svg>
