<svg width="16" height="17" viewBox="0 0 16 17" fill="none" xmlns="http://www.w3.org/2000/svg">
<path fill-rule="evenodd" clip-rule="evenodd" d="M1 1.9987C1 1.6305 1.29848 1.33203 1.66667 1.33203H2.2923C3.21003 1.33203 4.01 1.95662 4.23258 2.84696L4.23566 2.85926L4.54544 4.33475H13.3456C13.5839 4.33914 13.8387 4.35158 14.0671 4.41186C14.3219 4.47907 14.5736 4.61314 14.7607 4.87054C14.9905 5.18681 15.0146 5.53917 14.9943 5.83518C14.9753 6.10971 14.9083 6.44278 14.8353 6.80475L14.8276 6.84337C14.5591 8.17693 14.2883 9.4802 13.6397 10.4269C13.3003 10.9223 12.8561 11.3265 12.2654 11.6007C11.6823 11.8713 10.991 11.9991 10.1755 11.9991H5.61935C5.23041 12.0105 4.87513 12.2734 4.73263 12.6653H11.6667L11.6656 12.6671L11.6651 12.668H11.6667C12.4951 12.668 13.1667 13.3395 13.1667 14.168C13.1667 14.9964 12.4951 15.668 11.6667 15.668C10.8383 15.668 10.1667 14.9964 10.1667 14.168C10.1667 14.1107 10.1699 14.0543 10.1761 13.9987H8.49053C8.4968 14.0543 8.5 14.1107 8.5 14.168C8.5 14.9964 7.8284 15.668 7 15.668C6.17157 15.668 5.5 14.9964 5.5 14.168C5.5 14.1107 5.50321 14.0543 5.50945 13.9987H4.27429C3.72923 13.9987 3.33333 13.5464 3.33333 13.0463C3.33333 12.145 3.82705 11.3401 4.56928 10.9374L2.93643 3.16015C2.85874 2.8688 2.5947 2.66536 2.2923 2.66536H1.66667C1.29848 2.66536 1 2.36688 1 1.9987ZM7 13.668C6.72387 13.668 6.5 13.8918 6.5 14.168C6.5 14.4441 6.72387 14.668 7 14.668C7.27613 14.668 7.5 14.4441 7.5 14.168C7.5 13.8918 7.27613 13.668 7 13.668ZM11.6667 13.668C11.3905 13.668 11.1667 13.8918 11.1667 14.168C11.1667 14.4441 11.3905 14.668 11.6667 14.668C11.9428 14.668 12.1667 14.4441 12.1667 14.168C12.1667 13.8918 11.9428 13.668 11.6667 13.668Z" fill="#667085"/>
</svg>
