<svg width="32" height="32" viewBox="0 0 32 32" fill="none" xmlns="http://www.w3.org/2000/svg">
<g id="Add User">
<g id="Group 1000004227">
<path id="Vector" d="M29.9934 13.1429C29.9204 13.4366 29.8634 13.7304 29.7662 14.016C29.2548 15.5222 28.0046 16.4864 26.4784 16.5746C26.4418 16.5746 26.4053 16.5797 26.3688 16.5804C26.1993 16.5804 25.9538 16.5165 25.8756 16.6025C25.7207 16.7743 25.6564 17.0306 25.5578 17.2487C26.0692 17.2773 26.566 17.27 27.0475 17.3434C27.405 17.4071 27.7525 17.5185 28.0806 17.6746C28.4825 17.8546 28.6798 18.301 28.4949 18.6873C27.9886 19.747 27.4435 20.7905 26.4725 21.5154C25.1011 22.5383 23.4864 22.5325 22.118 21.5095C21.9119 21.3553 21.7753 21.414 21.7417 21.6732C21.7372 21.7189 21.736 21.7648 21.738 21.8106C21.738 23.5828 21.738 25.3546 21.738 27.1259C21.738 27.1883 21.7453 27.2507 21.7512 27.3462C22.0128 27.3462 22.2626 27.3425 22.5169 27.3462C23.0283 27.3558 23.3798 27.6943 23.3776 28.176C23.3754 28.6578 23.0123 29 22.5067 29C18.1682 29 13.8295 29 9.49048 29C8.97904 29 8.61884 28.6578 8.61373 28.1819C8.60861 27.7061 8.95639 27.358 9.46783 27.3484C9.72063 27.3433 9.97343 27.3484 10.2401 27.3484C10.246 27.239 10.254 27.1582 10.254 27.0782C10.254 25.3157 10.254 23.5532 10.2489 21.7907C10.2489 21.6578 10.167 21.5256 10.1283 21.4074C9.68994 21.6461 9.32463 21.8994 8.92278 22.0529C7.49659 22.5985 5.78108 22.0962 4.81664 20.8111C4.341 20.1796 3.95596 19.4753 3.56361 18.7843C3.32762 18.3679 3.50955 17.8817 3.9377 17.6673C4.58734 17.3488 5.30807 17.2051 6.02949 17.2502C6.16466 17.256 6.29982 17.2693 6.46787 17.2817C6.37069 17.0519 6.29836 16.8463 6.19534 16.6561C6.16835 16.6248 6.1345 16.6002 6.09647 16.5843C6.05844 16.5684 6.01726 16.5615 5.97615 16.5643C3.81933 16.7985 1.98764 14.9031 2.00006 12.6927C2.00372 12.0523 2.04317 11.4098 2.10382 10.7716C2.15131 10.2664 2.54219 9.98584 3.04779 10.049C3.83541 10.1489 4.52731 10.4801 5.16004 10.9493C5.2331 11.0037 5.30616 11.0595 5.37923 11.1131C5.38434 11.1175 5.39603 11.1131 5.4216 11.1131C5.46803 10.9044 5.50339 10.6933 5.52755 10.4808C5.52358 10.4364 5.50961 10.3935 5.4867 10.3553C5.46379 10.3171 5.43253 10.2847 5.3953 10.2605C4.38411 9.67153 3.76892 8.81012 3.60818 7.63954C3.4768 6.74924 3.6704 5.84122 4.15323 5.08322C4.54055 4.48406 4.95931 3.90603 5.40772 3.35159C5.75916 2.90509 6.26037 2.88747 6.67025 3.27815C7.74355 4.30626 8.13882 5.60388 8.13151 7.05793C8.12567 7.82534 7.87871 8.53694 7.60326 9.23458C6.142 12.9424 7.40234 17.1217 10.4096 19.6031C10.8297 19.9497 11.2272 20.3242 11.6393 20.6804C11.6901 20.7164 11.751 20.7352 11.8132 20.734C12.9072 20.734 14.0009 20.7328 15.0944 20.7303C15.1172 20.7249 15.1391 20.7163 15.1594 20.7046V17.3846C15.0674 17.4294 14.9804 17.4683 14.8957 17.5123C14.0642 17.9463 13.2306 18.3774 12.4028 18.8188C12.0689 18.9972 11.7452 19.0428 11.4296 18.8056C11.1139 18.5684 11.0489 18.2614 11.1154 17.8773C11.3346 16.6054 11.5304 15.3291 11.7481 14.0586C11.7637 13.9938 11.7607 13.9259 11.7395 13.8628C11.7183 13.7996 11.6797 13.7438 11.6283 13.7017C10.7172 12.8021 9.81196 11.8967 8.8994 10.9978C8.63272 10.7349 8.48075 10.4463 8.60715 10.0637C8.73355 9.68108 9.03603 9.51952 9.41084 9.46444C10.6617 9.27938 11.9133 9.09726 13.1612 8.89531C13.2266 8.87749 13.2876 8.84606 13.3402 8.80305C13.3929 8.76004 13.4359 8.70641 13.4666 8.64562C14.0467 7.38251 14.6168 6.11476 15.177 4.84235C15.3384 4.47517 15.5839 4.26147 15.9851 4.25486C16.3862 4.24825 16.6521 4.46268 16.818 4.84235C17.374 6.10692 17.9512 7.36195 18.5079 8.62579C18.5949 8.82187 18.7132 8.88429 18.9163 8.91293C20.1584 9.08991 21.4005 9.28011 22.6426 9.47178C23.002 9.52686 23.2745 9.69723 23.3915 10.0644C23.5084 10.4316 23.3717 10.7253 23.1123 10.9787C22.1954 11.8856 21.2858 12.797 20.3645 13.7025C20.3132 13.7446 20.2751 13.8006 20.2544 13.8638C20.2337 13.927 20.2313 13.9948 20.2475 14.0594C20.4667 15.3408 20.6647 16.6296 20.8839 17.9082C20.9482 18.2827 20.8613 18.5838 20.5624 18.8078C20.2636 19.0317 19.9568 19.0104 19.6382 18.8415C18.7517 18.3735 17.8637 17.9084 16.9743 17.4462C16.9356 17.4264 16.8954 17.411 16.834 17.3831V20.72C16.9115 20.7259 16.9904 20.7362 17.0686 20.7362C18.071 20.7362 19.0742 20.7362 20.0766 20.7362C20.1423 20.7402 20.208 20.7271 20.2672 20.698C20.3263 20.6689 20.377 20.6249 20.4141 20.5702C20.5664 20.3775 20.7455 20.2078 20.946 20.0665C23.2599 18.4868 24.5904 16.294 24.9565 13.5137C25.1457 12.0507 24.9531 10.5634 24.3975 9.19786C24.0702 8.37244 23.8218 7.53526 23.8802 6.63493C23.9635 5.36962 24.3559 4.23209 25.2787 3.32589C25.7404 2.87278 26.2285 2.89334 26.642 3.38978C27.2156 4.08008 27.7862 4.77919 28.1259 5.62077C28.8383 7.38325 28.2954 9.35208 26.5551 10.2818C26.5218 10.3022 26.4898 10.3248 26.4594 10.3493C26.4996 10.5983 26.5397 10.8465 26.5865 11.1322C26.7597 11.0073 26.9021 10.8987 27.0497 10.7988C27.6225 10.4088 28.2421 10.1379 28.9333 10.0446C29.4447 9.97776 29.8181 10.2649 29.897 10.779C29.9328 11.0132 29.9657 11.2482 30 11.4832L29.9934 13.1429ZM15.9909 24.0452C15.4634 24.0452 14.9359 24.0452 14.4084 24.0452C13.9057 24.0452 13.5316 24.4029 13.5316 24.8677C13.5336 24.978 13.5572 25.0867 13.6011 25.1878C13.645 25.2888 13.7083 25.3801 13.7873 25.4565C13.8664 25.5329 13.9597 25.5929 14.0619 25.633C14.1641 25.6731 14.2731 25.6926 14.3828 25.6902C15.4568 25.6995 16.5306 25.6995 17.6041 25.6902C17.7139 25.6924 17.823 25.6727 17.9252 25.6324C18.0274 25.5921 18.1206 25.5319 18.1996 25.4553C18.2786 25.3787 18.3418 25.2871 18.3856 25.1859C18.4293 25.0847 18.4528 24.9759 18.4546 24.8655C18.4546 24.3992 18.0805 24.0489 17.5778 24.046C17.0467 24.043 16.5191 24.0452 15.9909 24.0452Z" fill="white"/>
</g>
</g>
</svg>
