<svg width="32" height="32" viewBox="0 0 32 32" fill="none" xmlns="http://www.w3.org/2000/svg">
<g id="3 User">
<g id="Iconly/Bold/3-User">
<path id="Vector" d="M16.5081 15.0705C12.4153 15.0705 8.32249 15.0582 4.22992 15.0816C3.46047 15.0862 2.96507 14.6827 3.00192 13.8139C3.04471 12.8003 3.01231 11.7835 3.01182 10.7679C3.01083 9.2031 3.52082 7.83498 4.54502 6.67112C5.36813 5.73575 6.2051 4.81299 7.02796 3.87737C7.55453 3.27867 8.20278 3 8.99028 3.00076C14.1385 3.0058 19.2866 3.00681 24.4346 3C25.2963 2.99874 25.9762 3.32886 26.5082 4.01507C27.2175 4.92976 27.9385 5.83486 28.6552 6.7435C29.5535 7.88214 30.0037 9.18016 30 10.6423C29.997 11.7583 30.0007 12.8745 29.999 13.9904C29.9978 14.6885 29.6221 15.0698 28.9345 15.07C24.7922 15.071 20.6502 15.0705 16.5081 15.0705ZM12.9547 14.0923C12.9547 12.8488 12.953 11.6332 12.9562 10.4179C12.957 10.1771 12.9634 9.93496 12.9886 9.69588C13.1254 8.40619 13.5226 7.18761 13.9873 5.99021C14.247 5.3209 14.5342 4.66294 14.8218 3.96892C14.2688 3.96892 13.7388 3.979 13.2097 3.96362C13.0138 3.95807 12.9129 4.02793 12.8157 4.19639C11.6785 6.17128 11.075 8.29699 11.0619 10.5907C11.056 11.6466 11.0609 12.7022 11.0609 13.7581C11.0609 13.8656 11.0609 13.9728 11.0609 14.0923C11.701 14.0923 12.3087 14.0923 12.9547 14.0923ZM18.677 3.96892C19.0376 4.87226 19.3984 5.7292 19.7229 6.60026C20.2764 8.08691 20.615 9.61316 20.5374 11.2224C20.4963 12.075 20.5302 12.9315 20.5302 13.7861C20.5302 13.8835 20.5302 13.9811 20.5302 14.0855C21.176 14.0855 21.7906 14.0855 22.4544 14.0855C22.4225 12.4891 22.4579 10.9079 22.3426 9.33853C22.2061 7.4804 21.5856 5.75391 20.6363 4.15831C20.5854 4.07282 20.4649 3.98001 20.3741 3.97749C19.8129 3.96059 19.251 3.96892 18.677 3.96892ZM5.37926 16.8268C5.37926 19.9032 5.37728 22.9795 5.38 26.0559C5.38149 27.8233 6.60627 29.0653 8.34598 29.0678C9.9336 29.0701 11.5215 29.0683 13.1091 29.0683C13.2122 29.0683 13.3153 29.0683 13.4281 29.0683C13.4281 28.9094 13.4281 28.7992 13.4281 28.689C13.4291 27.0102 13.4106 25.3309 13.4363 23.6523C13.4635 21.8683 14.9193 20.4159 16.6674 20.3819C18.5125 20.3461 20.0286 21.8217 20.0514 23.71C20.0714 25.3788 20.0566 27.0478 20.0568 28.7165C20.0568 28.8242 20.0568 28.9319 20.0568 29.0683C20.181 29.0683 20.2772 29.0683 20.3734 29.0683C21.9511 29.0683 23.5291 29.0693 25.1068 29.0681C26.9009 29.0665 28.1047 27.8349 28.1052 25.9982C28.1064 22.952 28.1054 19.9058 28.1054 16.8596C28.1054 16.7529 28.1054 16.646 28.1054 16.5292C20.5183 16.5292 12.9681 16.5292 5.37901 16.5292C5.37926 16.6485 5.37926 16.7378 5.37926 16.8268Z" fill="white"/>
</g>
</g>
</svg>
