<svg width="32" height="32" viewBox="0 0 32 32" fill="none" xmlns="http://www.w3.org/2000/svg">
<g id="3 User">
<g id="Iconly/Bold/3-User">
<path id="3-Friends" d="M15.9322 19.3888C20.5071 19.3888 24.4135 20.1141 24.4135 23.0164C24.4135 25.9176 20.5322 26.6693 15.9322 26.6693C11.3573 26.6693 7.45095 25.944 7.45095 23.0428C7.45095 20.1405 11.3322 19.3888 15.9322 19.3888ZM23.2469 17.6411C24.9959 17.6087 26.8763 17.8488 27.5711 18.0194C29.0432 18.3088 30.0114 18.8996 30.4125 19.7581C30.7516 20.463 30.7516 21.2808 30.4125 21.9844C29.7989 23.3161 27.8206 23.7436 27.0518 23.8541C26.893 23.8781 26.7653 23.74 26.782 23.5803C27.1748 19.8902 24.0504 18.1406 23.2421 17.7384C23.2075 17.7204 23.2004 17.6927 23.2039 17.6759C23.2063 17.6639 23.2207 17.6447 23.2469 17.6411ZM8.7543 17.6416C8.78056 17.6452 8.79369 17.6644 8.79608 17.6752C8.79966 17.6932 8.7925 17.7196 8.75907 17.7389C7.94963 18.1411 4.82527 19.8907 5.21805 23.5796C5.23477 23.7405 5.10822 23.8774 4.94943 23.8546C4.18058 23.7441 2.20234 23.3166 1.58869 21.9849C1.24843 21.28 1.24843 20.4635 1.58869 19.7586C1.98983 18.9 2.95686 18.3092 4.4289 18.0186C5.12493 17.8493 7.00408 17.6092 8.7543 17.6416ZM15.9322 5.33594C19.047 5.33594 21.5446 7.84563 21.5446 10.9797C21.5446 14.1127 19.047 16.6247 15.9322 16.6247C12.8174 16.6247 10.3198 14.1127 10.3198 10.9797C10.3198 7.84563 12.8174 5.33594 15.9322 5.33594ZM23.5514 6.27713C26.5599 6.27713 28.9226 9.12425 28.1179 12.2956C27.5747 14.4306 25.6084 15.8488 23.4176 15.7911C23.198 15.7851 22.9819 15.7647 22.773 15.7287C22.6213 15.7023 22.5449 15.5306 22.6309 15.4033C23.4666 14.1664 23.943 12.6786 23.943 11.0816C23.943 9.41485 23.4224 7.861 22.5187 6.58694C22.49 6.54731 22.4685 6.48607 22.4972 6.44044C22.5211 6.40322 22.5652 6.384 22.607 6.3744C22.9114 6.31196 23.2242 6.27713 23.5514 6.27713ZM8.44807 6.27701C8.77519 6.27701 9.08798 6.31184 9.39361 6.37428C9.43421 6.38388 9.47957 6.4043 9.50345 6.44032C9.53091 6.48595 9.51061 6.54719 9.48196 6.58682C8.5782 7.86088 8.05767 9.41473 8.05767 11.0814C8.05767 12.6785 8.53403 14.1663 9.36974 15.4032C9.45569 15.5304 9.37929 15.7022 9.22766 15.7286C9.01754 15.7658 8.80265 15.785 8.58297 15.791C6.39222 15.8487 4.42592 14.4305 3.88271 12.2955C3.07685 9.12413 5.43951 6.27701 8.44807 6.27701Z" fill="white"/>
</g>
</g>
</svg>
