<svg width="32" height="32" viewBox="0 0 32 32" fill="none" xmlns="http://www.w3.org/2000/svg">
<g id="Add User">
<g id="Group 1000004228">
<path id="Vector" d="M16.7814 0C17.3835 0.124144 18.006 0.189864 18.5861 0.382166C22.0623 1.53192 24.2587 3.88904 24.9169 7.49571C25.7766 12.2108 22.8749 16.6418 18.2538 17.8573C13.3182 19.1555 8.17783 15.9967 7.11173 11.0115C6.01881 5.88832 9.35363 1.00208 14.5493 0.114405C14.7459 0.0811378 14.9409 0.0389472 15.1376 0H16.7814ZM21.2392 8.12049C21.1685 7.57766 20.8329 7.19468 20.3015 7.1103C19.6027 6.99995 18.8998 6.91069 18.2026 6.78574C18.1299 6.76818 18.0614 6.73613 18.0014 6.69151C17.9413 6.64689 17.8909 6.59063 17.8532 6.52609C17.5282 5.87697 17.2186 5.2173 16.9179 4.5552C16.7351 4.1495 16.4304 3.94584 15.9932 3.94502C15.556 3.94421 15.2505 4.14706 15.0661 4.55114C14.76 5.22244 14.4442 5.8886 14.1186 6.54962C14.0906 6.60447 14.0519 6.65314 14.0047 6.69273C13.9575 6.73232 13.9029 6.76202 13.8439 6.78006C13.1576 6.90014 12.468 7.00616 11.7751 7.09812C11.3501 7.15492 11.0219 7.32937 10.8715 7.74724C10.7212 8.16511 10.8471 8.51402 11.1519 8.82235C11.6589 9.33272 12.1497 9.85769 12.6616 10.364C12.7284 10.4239 12.7773 10.5011 12.803 10.587C12.8287 10.6729 12.8301 10.7642 12.8071 10.8508C12.6811 11.5811 12.5771 12.3114 12.4447 13.0319C12.3634 13.4668 12.4804 13.8198 12.8355 14.0713C13.1906 14.3228 13.5758 14.2855 13.9504 14.0762C14.5428 13.7459 15.1416 13.427 15.7275 13.0887C15.9152 12.9791 16.0525 12.9702 16.2492 13.083C16.8692 13.4441 17.4989 13.7897 18.1335 14.1257C18.2942 14.2129 18.4764 14.2527 18.6589 14.2405C18.8414 14.2284 19.0167 14.1646 19.1644 14.0568C19.312 13.949 19.4259 13.8016 19.4929 13.6316C19.5598 13.4616 19.5771 13.2762 19.5425 13.0968C19.4174 12.3495 19.3045 11.6006 19.172 10.8549C19.1499 10.7636 19.1534 10.668 19.1821 10.5786C19.2107 10.4891 19.2635 10.4093 19.3345 10.3478C19.8465 9.84228 20.3543 9.33272 20.837 8.80044C21.0068 8.60895 21.1043 8.3493 21.2351 8.12049H21.2392Z" fill="white"/>
<path id="Vector_2" d="M14.3271 19.9726C17.9756 20.3954 21.1154 19.4006 23.7709 16.8828C23.8197 16.964 23.8636 17.0281 23.9017 17.0954C25.5269 19.9726 27.1521 22.8498 28.7772 25.7271C29.0543 26.2139 29.021 26.7243 28.6285 27.0156C28.4124 27.175 28.1504 27.2604 27.8818 27.259C26.6483 27.1965 25.4164 27.0967 24.187 26.9872C23.9196 26.9628 23.7985 27.0237 23.6832 27.2655C23.1785 28.3203 22.6447 29.3662 22.1295 30.4186C21.9377 30.8105 21.6647 31.0799 21.2064 31.0961C20.7481 31.1123 20.4621 30.8575 20.2468 30.4762C18.3307 27.0781 16.412 23.6818 14.4905 20.2874C14.445 20.2006 14.4011 20.1114 14.3271 19.9726Z" fill="white"/>
<path id="Vector_3" d="M8.15992 16.8203C9.12469 17.7791 10.2528 18.5586 11.4915 19.1223C11.5946 19.1782 11.6792 19.2627 11.7353 19.3657C12.7315 21.1126 13.7188 22.8652 14.7174 24.6114C14.7551 24.6684 14.7744 24.7357 14.7727 24.804C14.7709 24.8723 14.7482 24.9385 14.7077 24.9935C13.6676 26.8327 12.6305 28.6732 11.5963 30.5151C11.385 30.8892 11.082 31.1107 10.6391 31.0896C10.2222 31.0693 9.95084 30.834 9.77289 30.4713C9.23334 29.3751 8.68566 28.2805 8.15992 27.1795C8.06323 26.9758 7.94784 26.9661 7.75932 26.9815C6.54045 27.0813 5.32159 27.1859 4.09378 27.2573C3.22432 27.3077 2.73191 26.5141 3.15282 25.7546C4.78231 22.8212 6.4164 19.8906 8.0551 16.9631C8.08679 16.925 8.11686 16.8852 8.15992 16.8203Z" fill="white"/>
</g>
</g>
</svg>
