<svg width="32" height="32" viewBox="0 0 32 32" fill="none" xmlns="http://www.w3.org/2000/svg">
<g id="Add User">
<path id="Vector" d="M8.40109 2H24.6267V3.34154H24.9757C26.14 3.34154 27.3045 3.34154 28.4693 3.34154C28.8685 3.34154 29.2782 3.36864 29.5659 3.67726C29.7493 3.87551 29.8581 4.13986 30 4.3738V8.59536C29.9768 8.65823 29.9583 8.72273 29.9446 8.78833C29.8582 9.46014 29.654 10.1114 29.3415 10.7121C28.3712 12.5228 26.8743 13.611 24.851 13.9767C24.6728 14.0091 24.6207 14.0818 24.6056 14.2655C24.5574 14.8332 24.529 15.4101 24.4004 15.9619C23.8065 18.5115 22.3293 20.3811 19.9738 21.5277C19.446 21.7861 18.8706 21.9566 18.2907 22.1773C18.5942 23.0906 18.905 24.0244 19.2144 24.9569C20.2384 24.9569 21.2301 24.9569 22.2224 24.9569C22.8525 24.9569 23.3117 25.2873 23.5182 25.8781C23.8569 26.8474 24.1932 27.8166 24.527 28.7859C24.5508 28.852 24.5653 28.926 24.5858 29H8.43408C8.46048 28.9154 8.47829 28.8487 8.50006 28.7832C8.81544 27.8717 9.13148 26.9608 9.44818 26.0506C9.73585 25.2212 10.108 24.9569 10.9908 24.9569H13.8134L14.7371 22.1674C10.6919 20.9402 8.60497 18.2155 8.3747 14.0316C8.12662 13.9767 7.8759 13.9318 7.63112 13.867C5.07905 13.1936 3.25869 11.1053 3.05481 8.47178C2.95386 7.16064 3.01984 5.83496 3.03765 4.51588C3.04491 3.9872 3.41241 3.55962 3.91781 3.42481C4.13945 3.36984 4.3671 3.34297 4.59542 3.34485C5.75467 3.33758 6.91326 3.34154 8.07251 3.34154H8.40241L8.40109 2ZM19.1794 15.4815C19.161 15.3658 19.155 15.2898 19.1372 15.2172C18.9597 14.5028 18.7875 13.7877 18.5962 13.0773C18.5679 12.9919 18.5623 12.9005 18.5802 12.8123C18.598 12.7241 18.6385 12.6421 18.6978 12.5744C19.2586 11.8435 19.8062 11.1027 20.3585 10.3645C20.4113 10.2938 20.4607 10.2197 20.536 10.1133C19.6433 10.1133 18.8106 10.1081 17.9773 10.1173C17.7958 10.1173 17.6982 10.0711 17.6223 9.89461C17.2997 9.14651 16.9625 8.40569 16.6241 7.66289C16.595 7.5968 16.5581 7.53666 16.5033 7.43688C16.1233 8.28277 15.7584 9.07911 15.4107 9.88205C15.3315 10.0644 15.2332 10.1213 15.0379 10.118C14.2838 10.1061 13.529 10.1127 12.7748 10.114C12.6937 10.114 12.6132 10.1233 12.4964 10.1305C13.1371 10.9896 13.7553 11.8058 14.359 12.6345C14.4324 12.7454 14.4614 12.8799 14.4402 13.0112C14.3267 13.5333 14.1842 14.0481 14.0548 14.5669C13.9823 14.8557 13.9156 15.1464 13.845 15.4425C13.867 15.4448 13.8891 15.4448 13.911 15.4425C14.4947 15.1227 15.0784 14.8026 15.6621 14.4823C15.9385 14.3309 16.217 14.0626 16.4934 14.064C16.7804 14.064 17.0694 14.3224 17.3511 14.4757C17.9516 14.8061 18.5474 15.1365 19.1768 15.4841L19.1794 15.4815ZM24.6306 6.07221V11.293C24.7151 11.2765 24.7837 11.2692 24.8484 11.2494C25.7787 10.9652 26.4404 10.3638 26.8983 9.51527C27.4882 8.42155 27.2539 7.23994 27.3081 6.07022L24.6306 6.07221ZM5.72366 6.07221C5.72366 6.63724 5.72762 7.18839 5.72366 7.73889C5.7164 8.5643 5.93677 9.31503 6.44415 9.97126C6.93043 10.6143 7.61475 11.0788 8.3912 11.293V6.07485L5.72366 6.07221Z" fill="white"/>
</g>
</svg>
