<svg width="32" height="32" viewBox="0 0 32 32" fill="none" xmlns="http://www.w3.org/2000/svg">
<g id="3 User">
<g id="Group 1000004225">
<path id="Vector" d="M15.9035 2.32813C17.1573 2.32734 18.399 2.57354 19.5576 3.05266C20.7163 3.53177 21.7691 4.23442 22.6561 5.12045C23.543 6.00649 24.2467 7.05855 24.7268 8.21654C25.207 9.37453 25.4542 10.6158 25.4545 11.8693C25.4673 17.1427 21.1482 21.4566 15.8906 21.4258C10.5964 21.3943 6.3405 17.1299 6.35502 11.8642C6.35773 9.33412 7.36493 6.90861 9.15531 5.12055C10.9457 3.33249 13.3728 2.32813 15.9035 2.32813Z" fill="white"/>
<path id="Vector_2" d="M15.9051 25.4737C14.8326 26.3659 13.7772 27.2435 12.7235 28.1203C12.2965 28.4745 11.8696 28.8263 11.4494 29.1866C10.9806 29.5895 10.458 29.7329 9.88335 29.4743C9.29245 29.2079 9.06702 28.7059 9.06787 28.0759C9.07129 25.6285 9.07129 23.1792 9.06787 20.7279V20.4453C13.6167 23.5682 18.1484 23.5785 22.7151 20.4598C22.7211 20.5324 22.7339 20.6186 22.7339 20.7048C22.7339 23.1755 22.7339 25.6462 22.7339 28.1168C22.7339 28.7204 22.5042 29.2028 21.9415 29.4649C21.3787 29.727 20.8681 29.6134 20.3993 29.2216C18.916 27.9785 17.4251 26.7398 15.9051 25.4737Z" fill="white"/>
</g>
</g>
</svg>
