<svg width="18" height="19" viewBox="0 0 18 19" fill="none" xmlns="http://www.w3.org/2000/svg">
<path opacity="0.5" fill-rule="evenodd" clip-rule="evenodd" d="M16.319 17.1929C16.3426 17.0292 16.3365 16.8613 16.3302 16.6855C16.3272 16.602 16.3241 16.5169 16.3241 16.4295C17.3275 16.299 17.8177 15.7837 17.821 14.8795C17.8263 13.3836 17.8288 11.8877 17.8196 10.3918C17.8149 9.61245 17.3585 9.08742 16.5989 8.94543C16.5174 8.93033 16.436 8.9159 16.342 8.89878C16.342 8.48653 16.341 8.07587 16.34 7.66634C16.3375 6.68283 16.3351 5.70582 16.3469 4.72898C16.3557 4.00342 16.1098 3.41409 15.5888 2.91127C14.8506 2.19844 14.1262 1.47102 13.4109 0.73511C12.9156 0.225336 12.3312 -0.00384763 11.6207 4.88258e-05C10.012 0.00871148 8.40336 0.00745905 6.79468 0.00620662C6.04136 0.00562679 5.28805 0.00504696 4.53483 0.00547603C3.09406 0.00616023 2.24241 0.865224 2.24195 2.3177L2.24176 4.35002C2.24176 5.73719 2.24167 7.12437 2.23991 8.51148C2.23972 8.64262 2.2747 8.77968 2.21022 8.90454C1.25327 9.07605 0.773168 9.53866 0.765747 10.354C0.75146 11.8992 0.75146 13.4447 0.766025 14.9899C0.773354 15.7609 1.30318 16.3096 2.06828 16.399C2.07959 16.4003 2.09138 16.4004 2.10344 16.4005C2.15159 16.4009 2.20354 16.4014 2.24213 16.4794C2.24213 16.6013 2.23972 16.7489 2.24241 16.8965C2.26403 18.0786 3.15938 18.9909 4.33833 18.994C7.6403 19.0025 10.9422 19.0014 14.244 18.9943C15.3069 18.9921 16.1678 18.2386 16.319 17.1929ZM15.2029 4.60464V8.90827H3.39483C3.3413 8.82274 3.34733 8.73642 3.35327 8.65283C3.35448 8.63622 3.35568 8.61973 3.35633 8.60335C3.3567 8.59377 3.35698 8.58424 3.35698 8.57476C3.35476 6.48613 3.35476 4.39767 3.35568 2.30905C3.35596 1.48001 3.71972 1.11867 4.55347 1.11833C5.65914 1.11793 6.7648 1.11783 7.87047 1.11784L11.4886 1.118H11.8533C11.8533 1.80487 11.8514 2.46749 11.8539 3.12993C11.8576 4.14101 12.3195 4.60328 13.3245 4.60446C13.6623 4.60493 14 4.60494 14.3418 4.60485L15.2029 4.60464ZM11.0091 15.2908L9.27598 15.2907C6.98987 15.2907 4.70358 15.291 2.41766 15.2904C1.9139 15.2902 1.87484 15.25 1.87466 14.7348C1.8742 13.3388 1.87364 11.9428 1.87503 10.5468C1.87531 10.1085 1.94999 10.0337 2.39382 10.0335C6.99089 10.0327 11.5879 10.0327 16.1849 10.0335C16.6338 10.0335 16.7085 10.1064 16.709 10.5416C16.7103 11.9622 16.7105 13.3829 16.7088 14.8037C16.7083 15.2298 16.6457 15.29 16.2087 15.2902L13.9017 15.2908H11.0091ZM4.65664 17.8972C3.65552 17.9088 3.21096 17.3133 3.3875 16.4195H15.195C15.3752 17.3037 14.9335 17.9089 13.9295 17.8972C10.8388 17.8611 7.74736 17.8613 4.65664 17.8972ZM12.9988 1.97671L14.5153 3.47838H12.9988V1.97671ZM6.11317 11.5113C5.92864 11.5113 5.78948 11.5685 5.68771 11.6861C5.62444 11.7587 5.58019 11.8604 5.5556 11.9894C5.52981 12.1244 5.51673 12.3685 5.51673 12.7143C5.51673 13.0602 5.53 13.3041 5.5556 13.4393C5.58 13.5679 5.62426 13.6697 5.68743 13.7421C5.78921 13.8598 5.92846 13.917 6.11298 13.917C6.42294 13.917 6.61164 13.7572 6.68966 13.4284C6.69643 13.3998 6.72194 13.3796 6.75135 13.3796H7.50198C7.5414 13.3796 7.57137 13.4152 7.56469 13.4541C7.49492 13.8544 7.32812 14.1662 7.06891 14.3808C6.80989 14.5952 6.48825 14.7041 6.11298 14.7041C5.69337 14.7041 5.33638 14.5639 5.05222 14.287C4.86955 14.1043 4.75525 13.9007 4.7123 13.6815C4.67092 13.4712 4.64986 13.1458 4.64986 12.7141C4.64986 12.2825 4.67092 11.9571 4.7123 11.7468C4.75525 11.5278 4.86936 11.3242 5.05175 11.142C5.33638 10.8645 5.69337 10.7242 6.11298 10.7242C6.48825 10.7242 6.80989 10.8329 7.06891 11.0475C7.32803 11.2623 7.49474 11.5741 7.56469 11.9743C7.56738 11.9898 7.56423 12.0049 7.5569 12.0173C7.54595 12.036 7.52573 12.0487 7.50207 12.0487H6.74625C6.73224 12.0487 6.71916 12.0442 6.70849 12.0363C6.6968 12.0276 6.68808 12.0149 6.68456 11.9999C6.60653 11.6711 6.4196 11.5113 6.11317 11.5113ZM9.92075 12.3311L9.46792 12.2619C9.33257 12.2427 9.22755 12.1997 9.15667 12.135C9.0985 12.0799 9.07011 12.0063 9.07011 11.9099C9.07011 11.7893 9.11205 11.6924 9.19842 11.6137C9.28507 11.5347 9.41569 11.4946 9.58667 11.4946C9.90831 11.4946 10.1546 11.5762 10.3188 11.7372C10.3437 11.7616 10.3835 11.7615 10.4083 11.737L10.8766 11.2741C10.902 11.249 10.9018 11.2078 10.8761 11.183C10.5601 10.878 10.1333 10.7234 9.60792 10.7234C9.18923 10.7234 8.8508 10.8354 8.60245 11.0563C8.35168 11.2788 8.22449 11.5752 8.22449 11.9365C8.22449 12.2721 8.32218 12.5379 8.51542 12.7274C8.69475 12.8994 8.95359 13.0107 9.28405 13.0584L9.73771 13.1276C9.88308 13.1469 9.98569 13.1843 10.0415 13.2372C10.108 13.3035 10.1402 13.3914 10.1402 13.5061C10.1402 13.6379 10.0924 13.7358 9.99404 13.8055C9.8905 13.8789 9.73381 13.9161 9.52795 13.9161C9.15342 13.9161 8.86249 13.815 8.66303 13.6155C8.63816 13.5907 8.5979 13.5907 8.57304 13.6155L8.09405 14.0945C8.06919 14.1194 8.06919 14.1596 8.09405 14.1845C8.28062 14.3714 8.49093 14.5061 8.71952 14.5855C8.94515 14.6637 9.21521 14.7034 9.52275 14.7034C9.94663 14.7034 10.3 14.5958 10.5728 14.384C10.8503 14.1682 10.9912 13.8674 10.9912 13.4901C10.9912 13.1223 10.8858 12.838 10.6787 12.6458C10.5104 12.4852 10.2551 12.3791 9.92075 12.3311ZM13.0658 13.0719L13.7267 10.9278C13.7585 10.8254 13.8531 10.7553 13.9605 10.7553H14.3478C14.5146 10.7553 14.6323 10.9185 14.5799 11.0768L13.4899 14.3653C13.4293 14.5482 13.2585 14.6715 13.0659 14.6715C12.8732 14.6715 12.7023 14.5478 12.6419 14.3648L11.5565 11.0765C11.5043 10.9183 11.6222 10.7553 11.7887 10.7553H12.1711C12.2785 10.7553 12.3733 10.8254 12.4049 10.9278L13.0658 13.0719Z" fill="#2E2E3E"/>
</svg>
