<svg width="15" height="19" viewBox="0 0 15 19" fill="none" xmlns="http://www.w3.org/2000/svg">
<path opacity="0.5" d="M11.254 10.7623C11.067 10.678 10.8708 10.6547 10.6857 10.6384C10.266 10.6028 9.85173 10.6627 9.42848 10.7321C9.34264 10.7462 9.29463 10.7351 9.2378 10.69C8.87002 10.3943 8.49273 10.0425 8.05099 9.58275C7.85335 9.37681 7.76752 9.20852 7.9129 8.9583C7.95005 8.89452 7.96769 8.82106 7.98483 8.74998C7.99127 8.72335 7.99772 8.69654 8.00535 8.66991C8.02418 8.60137 8.0442 8.53301 8.06439 8.46414C8.16312 8.1274 8.26524 7.77895 8.25812 7.34263C8.26321 7.23864 8.23539 7.03948 8.18908 6.84728C8.08933 6.42996 7.84793 6.19246 7.45113 6.12155C6.83584 6.01298 6.36696 6.27779 6.19697 6.82947C6.04514 7.32635 6.05634 7.8083 6.23022 8.26175C6.39121 8.67924 6.63278 9.03973 6.87028 9.36782L6.87859 9.37867C6.91846 9.43143 6.93848 9.46129 6.91863 9.51642C6.83279 9.75782 6.75204 10.0052 6.67401 10.2444C6.53745 10.6627 6.39613 11.0953 6.22378 11.5078C6.19511 11.5781 6.15626 11.619 6.08535 11.6536C5.58033 11.8948 5.04222 12.1523 4.50378 12.4171C4.25814 12.5379 3.94023 12.7082 3.65964 12.9545C3.38991 13.1949 3.26625 13.5001 3.32036 13.7922C3.37448 14.0844 3.59959 14.3251 3.93752 14.4528C4.08697 14.5088 4.2276 14.5326 4.35992 14.5326C4.74467 14.5326 5.05766 14.3312 5.30228 14.1358C5.83615 13.7086 6.28129 13.1301 6.70285 12.3153C6.74169 12.2393 6.78801 12.1971 6.86265 12.1698C7.47658 11.9484 8.16787 11.7635 9.03847 11.5877C9.09293 11.5765 9.12668 11.5915 9.18182 11.63C9.41321 11.7942 9.66292 11.9694 9.91925 12.1398C10.2278 12.3435 10.6468 12.5545 11.1512 12.3751C11.5093 12.2477 11.7183 11.965 11.7392 11.5793C11.7622 11.1686 11.6172 10.9243 11.254 10.7623ZM10.9588 11.5489C10.9532 11.6151 10.9208 11.643 10.8306 11.6602C10.7289 11.6778 10.6306 11.6559 10.5198 11.5903C10.4282 11.5382 10.3391 11.4826 10.236 11.4179L10.2321 11.4156C10.4504 11.4039 10.6521 11.4045 10.8506 11.4495C10.9364 11.4695 10.9656 11.4875 10.9588 11.5489ZM7.282 10.8897C7.36309 10.6467 7.44333 10.4062 7.52578 10.1582C7.81552 10.4688 8.06642 10.7138 8.32479 10.9384C7.91086 11.0356 7.53782 11.1338 7.16359 11.2446L7.282 10.8897ZM7.26707 8.40222L7.23484 8.51333C6.90217 8.00254 6.80599 7.58828 6.9132 7.14161C6.95765 6.95755 7.02516 6.89003 7.17038 6.88409C7.37564 6.87629 7.42993 6.9226 7.45758 7.13075C7.49762 7.42321 7.48506 7.66343 7.41822 7.88634C7.3675 8.05513 7.31831 8.22494 7.26707 8.40222ZM4.564 13.6974C4.48461 13.743 4.40217 13.7609 4.31853 13.7514C4.25678 13.7442 4.2103 13.703 4.19435 13.6414C4.18129 13.5907 4.19011 13.5206 4.25509 13.4737C4.64967 13.1944 5.08616 12.9878 5.4704 12.8215C5.2117 13.2044 4.91448 13.4915 4.564 13.6974ZM14.5788 15.2864V10.0377V8.89944V5.16223V5.12321C14.5788 4.99259 14.5805 4.86027 14.5822 4.72964C14.5907 4.00358 14.3447 3.41492 13.8239 2.91109C13.0859 2.19859 12.3616 1.47083 11.6457 0.734585C11.1503 0.22566 10.5668 -0.0033557 9.85597 3.71293e-05C7.49287 0.0136085 5.13145 0.00342996 2.77004 0.00512638C1.32809 0.00512638 0.476489 0.865209 0.476489 2.31734V4.06635C0.476489 5.54732 0.476489 7.02998 0.474792 8.51096C0.474792 8.52792 0.474793 8.54488 0.476489 8.56185V8.81122V10.0377V15.2864V16.5638C0.476489 16.6673 0.474793 16.781 0.476489 16.8963C0.498542 18.0787 1.39425 18.9914 2.57326 18.9931C5.87448 19.0016 9.17741 19.0016 12.4786 18.9948C13.4117 18.9914 14.1886 18.4112 14.4668 17.5613C14.4953 17.476 14.5164 17.3864 14.534 17.2952L14.5357 17.2965C14.5386 17.2813 14.541 17.2629 14.5435 17.2451C14.5464 17.2277 14.5508 17.2109 14.5533 17.1932C14.5644 17.114 14.5676 17.0334 14.5683 16.9518C14.5912 16.498 14.5788 15.8653 14.5788 15.8653V15.2864V15.2864ZM11.2335 1.97636C11.7305 2.46832 12.2327 2.96537 12.7501 3.47769H11.2335V1.97636ZM13.4558 16.5706V16.971C13.3811 17.5461 12.9401 17.9074 12.1648 17.8972C9.07393 17.8616 5.98136 17.8616 2.89049 17.8972C2.11353 17.9074 1.67246 17.5512 1.59782 16.9727C1.58764 16.9116 1.58425 16.8488 1.58425 16.7827C1.58425 16.7131 1.58764 16.6402 1.59782 16.5638H1.59952V16.5537V15.2898V10.0343V8.84006V4.06635H1.58934C1.59103 3.47939 1.59103 2.89412 1.59103 2.30886C1.59103 1.47931 1.95407 1.11798 2.7887 1.11798H10.0884C10.0884 1.80502 10.0867 2.46832 10.0884 3.12992C10.0918 4.14099 10.5549 4.60411 11.5592 4.60411C12.1767 4.60581 12.7942 4.60411 13.4371 4.60411V5.12321H13.4388V10.0326H13.441L13.4558 11.5928V15.2898V16.5706V16.5706Z" fill="#2E2E3E"/>
</svg>
