<svg width="20" height="19" viewBox="0 0 20 19" fill="none" xmlns="http://www.w3.org/2000/svg">
<path opacity="0.5" d="M19.1439 7.5131C19.1298 6.0255 17.9068 4.79449 16.4174 4.76928C16.2847 4.76722 16.1518 4.76756 16.0134 4.76808L15.8618 4.76859L15.8615 4.27427C15.8611 3.81511 15.8606 3.3604 15.863 2.9057C15.8641 2.66969 15.844 2.45203 15.8015 2.24003C15.5589 1.03492 14.2814 0.0123151 13.0117 0.00734096C10.4659 -0.00277878 8.23084 -0.00243574 6.17888 0.00837008C4.69226 0.01626 3.46524 1.23097 3.44363 2.71651C3.43677 3.19454 3.43849 3.68235 3.44003 4.1542C3.44089 4.35591 3.44158 4.55814 3.44158 4.76122C3.31778 4.77202 3.1926 4.77151 3.07189 4.77134C2.91517 4.77099 2.75365 4.77031 2.59418 4.79398C1.39785 4.97064 0.485645 5.81693 0.213697 7.00231C0.209582 7.0198 0.208553 7.03919 0.207696 7.05874C0.20701 7.07349 0.206667 7.08876 0.203238 7.10282L0.193464 7.1433C0.174431 7.22203 0.154541 7.3035 0.154541 7.38875V12.1109C0.154541 12.2747 0.18712 12.4349 0.219184 12.5699C0.225872 12.598 0.230501 12.627 0.235131 12.6558C0.241647 12.6953 0.248162 12.7347 0.258965 12.7726C0.605501 13.9887 1.68489 14.8139 2.94518 14.8264C3.06452 14.8278 3.18386 14.8271 3.30183 14.8271L3.43575 14.8268C3.44672 14.8466 3.44535 14.8689 3.44226 14.9022C3.44089 14.9166 3.43969 14.9305 3.43969 14.9444C3.44089 15.4727 3.44089 16.001 3.44089 16.5293L3.44106 17.175C3.4414 18.0901 3.88688 18.6891 4.76513 18.9558C4.77251 18.958 4.78022 18.9596 4.78725 18.9608C4.88808 18.9801 5.00776 18.9999 5.12933 18.9999H14.1307C14.2896 18.9999 14.409 18.9853 14.5175 18.9527C14.5448 18.9445 14.5734 18.9393 14.6017 18.9343C14.6388 18.9278 14.677 18.9208 14.7147 18.9076C15.3922 18.6675 15.8521 18.0306 15.8594 17.3231C15.8651 16.7745 15.8639 16.2168 15.8629 15.6773C15.8623 15.4442 15.862 15.2113 15.862 14.9782V14.8317C15.9825 14.8238 16.1027 14.8233 16.2195 14.823C16.3884 14.8223 16.563 14.8216 16.7344 14.7979C18.0729 14.612 19.131 13.4263 19.1436 12.0987C19.158 10.5742 19.158 9.03157 19.1439 7.5131ZM14.6655 11.8817V17.1985C14.6653 17.6054 14.47 17.8032 14.0686 17.8032C11.1225 17.8035 8.17631 17.8035 5.22998 17.8032C4.83681 17.8032 4.63739 17.6047 4.63739 17.2131L4.63705 11.8817H14.6655ZM4.63791 4.5981C4.63653 4.0187 4.63499 3.43913 4.63756 2.85956C4.64168 1.8999 5.33801 1.2025 6.29308 1.2013C8.52113 1.19855 10.7804 1.19855 13.0084 1.2013C13.9635 1.2025 14.6602 1.89956 14.665 2.85888C14.667 3.30106 14.6665 3.74307 14.666 4.19039L14.6655 4.76465H4.63928C4.63242 4.7511 4.63293 4.73429 4.63568 4.70564C4.63688 4.69261 4.63808 4.67992 4.63808 4.66757L4.63791 4.5981ZM15.8708 11.873L15.9294 11.8733C16.0059 11.8742 16.081 11.8749 16.1566 11.872C16.4896 11.8594 16.7492 11.5956 16.7475 11.2713C16.7458 10.9437 16.4892 10.6881 16.1506 10.6766C16.1199 10.6758 16.0895 10.6756 16.0587 10.6761L16.0198 10.6763C11.7742 10.6763 7.52885 10.6763 3.28331 10.6768L3.23942 10.6765C3.1722 10.6754 3.10327 10.6751 3.03554 10.689C2.73804 10.7502 2.52765 11.032 2.55663 11.3305C2.58612 11.6327 2.83355 11.8605 3.14511 11.8721C3.21661 11.8747 3.28828 11.874 3.36562 11.8735L3.43455 11.873V13.6124C2.67306 13.7287 2.18952 13.4764 1.91671 13.2426C1.54909 12.9275 1.34144 12.4517 1.34693 11.9373C1.35704 10.9852 1.35481 10.0175 1.35276 9.08149C1.35156 8.60569 1.35053 8.12972 1.35104 7.65409C1.35207 6.65978 2.04377 5.96529 3.03297 5.96495C5.23873 5.96426 7.44449 5.96409 9.65042 5.96409C11.8562 5.96409 14.0619 5.96444 16.2677 5.96495C17.2578 5.96529 17.9498 6.65927 17.951 7.65289C17.9527 9.08663 17.9532 10.5204 17.9508 11.9543C17.9493 12.9374 17.2598 13.6268 16.274 13.6309C16.1768 13.6311 16.0799 13.6311 15.9807 13.6311L15.8704 13.6309V11.873H15.8708ZM4.04257 7.17555C4.32532 7.17555 4.6079 7.17366 4.89048 7.17606C5.23101 7.1788 5.47793 7.41259 5.47827 7.72853C5.47861 8.04481 5.23238 8.28117 4.89219 8.28271C4.32069 8.28529 3.74919 8.28563 3.17786 8.28254C2.84178 8.28066 2.5947 8.03658 2.59933 7.72098C2.60379 7.41345 2.84864 7.17966 3.17614 7.17623C3.4649 7.17297 3.75382 7.17555 4.04257 7.17555ZM9.64716 13.0839C10.1204 13.0839 10.5938 13.0831 11.0671 13.0843C11.4273 13.0851 11.6765 13.3072 11.6816 13.629C11.6868 13.9589 11.4345 14.1911 11.0662 14.1914C10.1196 14.1925 9.17288 14.1926 8.22621 14.1913C7.87076 14.1908 7.62093 13.9595 7.6211 13.6371C7.62127 13.3151 7.87179 13.0851 8.22724 13.0841C8.70049 13.0829 9.17374 13.0839 9.64716 13.0839ZM9.65231 16.5553C9.17905 16.5553 8.70563 16.5564 8.23238 16.555C7.87436 16.554 7.62436 16.3286 7.62093 16.007C7.6175 15.6784 7.87059 15.448 8.23941 15.4478C9.17991 15.447 10.1204 15.4471 11.0609 15.4478C11.432 15.4482 11.6839 15.6756 11.6816 16.0049C11.6794 16.3339 11.4285 16.5547 11.0539 16.5553C10.5866 16.5559 10.1196 16.5553 9.65231 16.5553Z" fill="#2E2E3E"/>
</svg>
