<svg width="21" height="19" viewBox="0 0 21 19" fill="none" xmlns="http://www.w3.org/2000/svg">
<path opacity="0.5" fill-rule="evenodd" clip-rule="evenodd" d="M11.3792 0.0106151C11.5595 -0.0235842 11.746 0.0258166 11.8867 0.144885C12.0288 0.265223 12.1103 0.443828 12.1103 0.63257V2.53263H20.1377C20.4786 2.53263 20.7552 2.81638 20.7552 3.16599V15.8331C20.7552 16.1827 20.4786 16.4664 20.1377 16.4664H12.1103V18.3665C12.1103 18.554 12.0288 18.7338 11.8867 18.8542C11.7756 18.9492 11.6348 18.9999 11.4928 18.9999C11.4557 18.9999 11.4162 18.9961 11.3792 18.9885L1.49924 17.0884C1.20654 17.0327 0.995361 16.7704 0.995361 16.4664V2.53263C0.995361 2.22736 1.20654 1.96641 1.49924 1.91068L11.3792 0.0106151ZM19.5202 15.1997V3.79934H12.1103V5.06605H13.9628C14.3036 5.06605 14.5803 5.3498 14.5803 5.69941C14.5803 6.04902 14.3036 6.33276 13.9628 6.33276H12.1103V7.59947H13.9628C14.3036 7.59947 14.5803 7.88321 14.5803 8.23283C14.5803 8.58244 14.3036 8.86618 13.9628 8.86618H12.1103V10.1329H13.9628C14.3036 10.1329 14.5803 10.4166 14.5803 10.7662C14.5803 11.1159 14.3036 11.3996 13.9628 11.3996H12.1103V12.6663H13.9628C14.3036 12.6663 14.5803 12.9501 14.5803 13.2997C14.5803 13.6493 14.3036 13.933 13.9628 13.933H12.1103V15.1997H19.5202ZM10.8753 13.2997V10.7662V8.23283V5.69941V3.16599V1.39639L2.23035 3.05831V15.9407L10.8753 17.6027V15.8331V13.2997ZM17.6677 5.06605H16.4327C16.0919 5.06605 15.8153 5.3498 15.8153 5.69941C15.8153 6.04902 16.0919 6.33276 16.4327 6.33276H17.6677C18.0086 6.33276 18.2852 6.04902 18.2852 5.69941C18.2852 5.3498 18.0086 5.06605 17.6677 5.06605ZM16.4327 7.59947H17.6677C18.0086 7.59947 18.2852 7.88321 18.2852 8.23283C18.2852 8.58244 18.0086 8.86618 17.6677 8.86618H16.4327C16.0919 8.86618 15.8153 8.58244 15.8153 8.23283C15.8153 7.88321 16.0919 7.59947 16.4327 7.59947ZM17.6677 10.1329H16.4327C16.0919 10.1329 15.8153 10.4166 15.8153 10.7662C15.8153 11.1159 16.0919 11.3996 16.4327 11.3996H17.6677C18.0086 11.3996 18.2852 11.1159 18.2852 10.7662C18.2852 10.4166 18.0086 10.1329 17.6677 10.1329ZM16.4327 12.6663H17.6677C18.0086 12.6663 18.2852 12.9501 18.2852 13.2997C18.2852 13.6493 18.0086 13.933 17.6677 13.933H16.4327C16.0919 13.933 15.8153 13.6493 15.8153 13.2997C15.8153 12.9501 16.0919 12.6663 16.4327 12.6663ZM6.70649 8.35524L5.16591 6.54937C4.93867 6.28463 4.54966 6.25929 4.29402 6.48983C4.03713 6.72037 4.01118 7.12066 4.23596 7.38287L5.93424 9.37361L4.21255 11.6441C4.00382 11.9202 4.05198 12.3192 4.32122 12.5333C4.43484 12.6232 4.56821 12.6663 4.70033 12.6663C4.88311 12.6663 5.06593 12.5827 5.18695 12.4231L6.76284 10.3449L8.55843 12.4497C8.6807 12.5928 8.85113 12.6663 9.0228 12.6663C9.16728 12.6663 9.3118 12.6144 9.43036 12.5092C9.68721 12.2787 9.71316 11.8797 9.48838 11.6162L7.53508 9.32654L9.50942 6.7229C9.71936 6.4455 9.6712 6.04775 9.40196 5.83368C9.13272 5.61707 8.74495 5.66901 8.53502 5.94388L6.70649 8.35524Z" fill="#2E2E3E"/>
</svg>
