<svg width="22" height="22" viewBox="0 0 22 22" fill="none" xmlns="http://www.w3.org/2000/svg">
<g clip-path="url(#clip0_407_3752)">
<path d="M1.69124 6.06118L3.82139 6.85138C4.13941 6.96976 4.45743 7.08814 4.77429 7.20652C5.34904 7.42434 5.88851 7.3616 6.3985 7.00764C7.25137 6.41573 8.11118 5.83389 8.96 5.23606C9.3555 4.95728 9.75448 4.90578 10.2055 5.07743C11.4527 5.55096 12.7045 6.01265 13.9546 6.47848C13.9812 6.48795 14.0067 6.50097 14.05 6.51991C14.0321 6.58265 14.0182 6.64362 13.998 6.70163C13.4499 8.24532 12.9121 9.79197 12.3478 11.3292C12.0893 12.0341 12.0338 12.7166 12.4056 13.4482C12.183 13.3683 12.0008 13.3067 11.8274 13.2404L2.27755 9.67892C1.27781 9.30602 0.860922 8.39862 1.22115 7.37048C1.37149 6.94608 1.52703 6.51873 1.69124 6.06118ZM10.2899 6.18607C10.2234 6.12688 10.1558 6.02448 10.065 5.99311C9.92447 5.94458 9.81865 6.02508 9.76661 6.17068C9.61975 6.58502 9.46884 6.99935 9.32139 7.41369C9.26357 7.58297 9.26067 7.73805 9.45438 7.81914C9.60356 7.88189 9.72614 7.80198 9.80131 7.58949C9.94355 7.19587 10.0817 6.80048 10.2211 6.40567C10.2419 6.35477 10.2564 6.29795 10.2899 6.18607ZM11.5909 6.6673C11.5256 6.6081 11.4585 6.50926 11.3683 6.47788C11.2284 6.42994 11.122 6.50689 11.0699 6.65546C10.9242 7.06979 10.7727 7.48413 10.6282 7.89846C10.5541 8.10977 10.6021 8.2536 10.7571 8.30096C10.952 8.36015 11.0508 8.24946 11.111 8.07544C11.2474 7.68123 11.3879 7.2888 11.5256 6.89518C11.5446 6.83776 11.5579 6.78094 11.5909 6.67025V6.6673ZM12.2084 8.79816C12.2472 8.75673 12.3443 8.69162 12.3865 8.59987C12.475 8.4075 12.534 8.20211 12.6057 8.00205C12.6872 7.77416 12.7791 7.54924 12.8485 7.31839C12.8948 7.17219 12.8676 7.02954 12.7074 6.97213C12.571 6.92241 12.4403 6.9597 12.3854 7.10886C12.2194 7.55515 12.0558 8.00264 11.9072 8.45486C11.8459 8.64308 11.9621 8.79343 12.2084 8.80112V8.79816Z" fill="#0071BC"/>
<path d="M17.808 4.71687L15.4858 6.04984C15.1487 6.24339 14.8047 6.24458 14.445 6.10903C13.0949 5.60118 11.7401 5.10693 10.3929 4.59138C9.76669 4.35462 9.20235 4.42801 8.65825 4.81512C7.83429 5.39756 6.99472 5.95632 6.17192 6.53994C5.76254 6.82938 5.352 6.87792 4.88712 6.69798C3.7885 6.27476 2.68642 5.86931 1.5855 5.45912C1.28772 5.34784 1.24204 5.24899 1.35421 4.9412C1.74451 3.84084 2.13134 2.73989 2.52742 1.64191C3.0137 0.292951 4.30196 -0.323814 5.62376 0.167468C9.63736 1.65907 13.6494 3.15463 17.6599 4.65412C17.7068 4.67306 17.7577 4.69674 17.808 4.71687Z" fill="#0071BC"/>
<path d="M14.5699 6.6832C15.1938 6.83769 15.7101 6.54588 16.2224 6.22744C16.5115 6.04986 16.8081 5.8788 17.1094 5.72195C17.2013 5.67714 17.3057 5.66688 17.4043 5.69294C17.6859 5.78114 17.9629 5.8865 18.2358 6.00014C19.095 6.35825 19.5003 7.26387 19.1887 8.1612C18.7527 9.41722 18.3017 10.6679 17.8588 11.9204C17.6789 12.4253 17.5014 12.9314 17.3181 13.4351C16.9712 14.3821 16.0744 14.813 15.1498 14.478C14.6751 14.3064 14.201 14.1318 13.7309 13.9483C12.8636 13.6109 12.4282 12.6993 12.7363 11.8073C13.3146 10.1275 13.9217 8.45656 14.5167 6.78205C14.5321 6.74787 14.5499 6.71484 14.5699 6.6832ZM17.7749 9.36277C17.7588 9.19088 17.7339 9.01998 17.7003 8.85077C17.4529 7.82973 16.4861 7.35798 15.5875 7.81493C14.6098 8.31391 14.1258 9.6747 14.5618 10.6993C14.9145 11.528 15.7627 11.8683 16.5514 11.4634C17.3713 11.0426 17.7206 10.308 17.7749 9.36277ZM14.36 12.7366C14.4256 12.7365 14.4898 12.7166 14.5445 12.6793C14.5992 12.6421 14.642 12.5893 14.6675 12.5274C14.6931 12.4655 14.7003 12.3972 14.6883 12.3311C14.6763 12.2651 14.6455 12.2041 14.5999 12.1557C14.5542 12.1074 14.4957 12.0739 14.4316 12.0593C14.3675 12.0448 14.3007 12.0499 14.2393 12.0739C14.178 12.098 14.125 12.14 14.0868 12.1947C14.0486 12.2493 14.027 12.3143 14.0246 12.3815C14.0238 12.4272 14.0319 12.4726 14.0484 12.5151C14.0649 12.5576 14.0894 12.5964 14.1206 12.6291C14.1518 12.6619 14.189 12.688 14.2301 12.7059C14.2712 12.7239 14.3153 12.7333 14.36 12.7337V12.7366ZM15.676 13.2232C15.7211 13.223 15.7656 13.2136 15.8071 13.1955C15.8486 13.1775 15.8861 13.1511 15.9176 13.1181C15.949 13.085 15.9737 13.0459 15.9902 13.003C16.0067 12.96 16.0147 12.9142 16.0137 12.868C16.0137 12.7974 15.9931 12.7284 15.9545 12.6698C15.916 12.6112 15.8612 12.5657 15.7973 12.5391C15.7334 12.5125 15.6631 12.5061 15.5956 12.5206C15.5281 12.5351 15.4663 12.5698 15.4181 12.6205C15.37 12.6711 15.3377 12.7352 15.3254 12.8047C15.3131 12.8742 15.3213 12.9459 15.349 13.0106C15.3766 13.0753 15.4225 13.1301 15.4808 13.168C15.5391 13.2059 15.607 13.2251 15.676 13.2232Z" fill="#0071BC"/>
<path d="M0 17.469V13.37C0 13.0149 0.0618686 12.9521 0.418629 12.9515C0.5123 12.9515 0.60597 12.9515 0.699641 12.9515C0.882185 12.9531 1.05665 13.0288 1.1847 13.162C1.31275 13.2952 1.3839 13.475 1.38251 13.6618C1.38482 16.2023 1.38482 18.7426 1.38251 21.2826C1.38251 21.6893 1.10497 21.9763 0.706579 21.9929C0.569542 21.9988 0.432505 21.9988 0.295468 21.9929C0.0757456 21.9846 0.000571723 21.8976 0.000571723 21.6526C0.000571723 20.567 0.000571723 19.4819 0.000571723 18.3971L0 17.469Z" fill="#0071BC"/>
<path d="M1.91213 15.4192L4.85699 16.2372C4.39441 17.0659 4.39037 17.8792 4.85699 18.7173L1.90808 19.5347L1.91213 15.4192Z" fill="#0071BC"/>
<path d="M6.73681 19.2464C5.76772 19.2382 5.01431 18.445 5.0224 17.4417C5.0305 16.4852 5.81976 15.6944 6.76226 15.6997C7.73482 15.7051 8.49691 16.5095 8.48419 17.5228C8.47553 17.9885 8.28662 18.4316 7.95897 18.7548C7.63133 19.078 7.19174 19.2548 6.73681 19.2464ZM6.75474 18.4491C6.9421 18.449 7.12522 18.3921 7.28097 18.2854C7.43672 18.1788 7.5581 18.0273 7.62977 17.8501C7.70145 17.6729 7.7202 17.4779 7.68366 17.2898C7.64712 17.1017 7.55693 16.9289 7.42449 16.7932C7.29204 16.6576 7.12328 16.5651 6.93954 16.5276C6.7558 16.4901 6.56532 16.5092 6.39216 16.5824C6.21901 16.6557 6.07095 16.7799 5.9667 16.9392C5.86245 17.0986 5.80669 17.286 5.80646 17.4778C5.80783 17.7349 5.90816 17.9811 6.08568 18.1629C6.26321 18.3447 6.50361 18.4476 6.75474 18.4491Z" fill="#0071BC"/>
<path d="M19.8005 7.83504C19.8612 6.44761 19.1361 5.67161 17.8427 5.30404C18.2769 5.10161 18.6712 5.05011 19.0679 5.19099C19.9768 5.51476 20.8812 5.85155 21.7855 6.19131C22.0353 6.28542 22.0787 6.55296 21.8607 6.68318C21.1957 7.08035 20.521 7.45858 19.8496 7.84273C19.8387 7.84806 19.8225 7.83918 19.8005 7.83504Z" fill="#0071BC"/>
<path d="M10.7786 13.4043C10.6051 13.979 10.2582 14.1614 9.74413 13.9702C8.70951 13.587 7.67567 13.2019 6.64259 12.8148C6.15688 12.6331 5.99903 12.2181 6.23783 11.7162L10.7786 13.4043Z" fill="#0071BC"/>
<path d="M6.85706 15.1084L7.37745 13.6482L8.68248 14.1353L8.16556 15.5956L6.85706 15.1084Z" fill="#0071BC"/>
<path d="M16.2288 8.16187C16.5861 8.16187 16.8307 8.2986 17.014 8.55016C17.5963 9.34864 17.0718 10.8379 16.1311 11.0764C15.6263 11.2043 15.1643 10.9261 14.9868 10.3863C14.7011 9.5197 15.2296 8.42053 16.0408 8.19916C16.1166 8.17844 16.1952 8.16838 16.2288 8.16187ZM16.419 9.64163C16.4187 9.59663 16.4098 9.55212 16.3927 9.51064C16.3757 9.46916 16.3508 9.43153 16.3195 9.3999C16.2882 9.36827 16.2512 9.34325 16.2105 9.32628C16.1697 9.30931 16.1262 9.30072 16.0822 9.30099C16.0382 9.30126 15.9947 9.31039 15.9542 9.32787C15.9137 9.34534 15.877 9.37082 15.8461 9.40283C15.8152 9.43485 15.7907 9.47278 15.7741 9.51447C15.7576 9.55615 15.7492 9.60077 15.7494 9.64578C15.75 9.73667 15.7858 9.82362 15.8489 9.8875C15.9121 9.95139 15.9974 9.98697 16.0862 9.98642C16.175 9.98587 16.26 9.94923 16.3224 9.88457C16.3848 9.81991 16.4195 9.73253 16.419 9.64163Z" fill="#0071BC"/>
<path d="M6.76457 17.9164C6.70721 17.919 6.64992 17.9096 6.5962 17.8888C6.54247 17.8681 6.49343 17.8364 6.45202 17.7957C6.41061 17.7549 6.3777 17.706 6.3553 17.6519C6.33289 17.5978 6.32145 17.5396 6.32166 17.4808C6.32149 17.3623 6.36679 17.2485 6.4478 17.1639C6.52881 17.0794 6.63904 17.0307 6.75474 17.0286C6.86704 17.0287 6.97481 17.0739 7.05492 17.1545C7.13502 17.235 7.18108 17.3445 7.1832 17.4595C7.18727 17.5182 7.17944 17.5771 7.16021 17.6325C7.14097 17.6879 7.11075 17.7387 7.07144 17.7816C7.03213 17.8245 6.98458 17.8586 6.93177 17.8818C6.87896 17.905 6.82204 17.9168 6.76457 17.9164Z" fill="#0071BC"/>
</g>
<defs>
<clipPath id="clip0_407_3752">
<rect width="22" height="22" fill="white"/>
</clipPath>
</defs>
</svg>
