<svg width="194" height="42" viewBox="0 0 194 42" fill="none" xmlns="http://www.w3.org/2000/svg">
<path d="M48.1009 29V14.4545H54.1094C55.1984 14.4545 56.1383 14.6676 56.929 15.0938C57.7244 15.5152 58.3376 16.1046 58.7685 16.8622C59.1993 17.6151 59.4148 18.491 59.4148 19.4901C59.4148 20.4938 59.1946 21.3722 58.7543 22.125C58.3187 22.8731 57.696 23.4531 56.8864 23.8651C56.0767 24.277 55.1155 24.483 54.0028 24.483H50.2955V21.7131H53.3494C53.8797 21.7131 54.3224 21.6207 54.6776 21.4361C55.0374 21.2514 55.3097 20.9934 55.4943 20.6619C55.679 20.3258 55.7713 19.9351 55.7713 19.4901C55.7713 19.0402 55.679 18.652 55.4943 18.3253C55.3097 17.9938 55.0374 17.7382 54.6776 17.5582C54.3177 17.3783 53.875 17.2884 53.3494 17.2884H51.6165V29H48.1009ZM64.6207 22.7784V29H61.1477V14.4545H64.5071V20.0938H64.6278C64.8741 19.4214 65.2765 18.8958 65.8352 18.517C66.3987 18.1383 67.0876 17.9489 67.902 17.9489C68.669 17.9489 69.3366 18.1193 69.9048 18.4602C70.473 18.7964 70.9134 19.2723 71.2259 19.8878C71.5431 20.5033 71.6993 21.223 71.6946 22.0469V29H68.2216V22.7287C68.2263 22.1226 68.0748 21.6491 67.767 21.3082C67.4593 20.9673 67.026 20.7969 66.4673 20.7969C66.1027 20.7969 65.7808 20.8774 65.5014 21.0384C65.2268 21.1946 65.0114 21.4195 64.8551 21.7131C64.7036 22.0066 64.6255 22.3617 64.6207 22.7784ZM76.9379 29.1847C76.2418 29.1847 75.6239 29.0687 75.0842 28.8366C74.5491 28.5999 74.1254 28.2448 73.8129 27.7713C73.5051 27.2931 73.3512 26.6941 73.3512 25.9744C73.3512 25.3684 73.4577 24.857 73.6708 24.4403C73.8839 24.0237 74.1774 23.6851 74.5515 23.4247C74.9255 23.1643 75.3564 22.9678 75.8441 22.8352C76.3318 22.6979 76.8526 22.6056 77.4066 22.5582C78.0269 22.5014 78.5264 22.4422 78.9052 22.3807C79.284 22.3144 79.5586 22.2221 79.729 22.1037C79.9042 21.9806 79.9918 21.8078 79.9918 21.5852V21.5497C79.9918 21.1851 79.8664 20.9034 79.6154 20.7045C79.3645 20.5057 79.0259 20.4062 78.5998 20.4062C78.1405 20.4062 77.7712 20.5057 77.4918 20.7045C77.2125 20.9034 77.0349 21.178 76.9592 21.5284L73.756 21.4148C73.8507 20.7519 74.0946 20.16 74.4876 19.6392C74.8853 19.1136 75.4298 18.7017 76.1211 18.4034C76.8171 18.1004 77.6528 17.9489 78.6282 17.9489C79.3242 17.9489 79.9658 18.0317 80.5529 18.1974C81.14 18.3584 81.6514 18.5952 82.087 18.9077C82.5226 19.2154 82.8588 19.5942 83.0955 20.044C83.337 20.4938 83.4577 21.0076 83.4577 21.5852V29H80.1907V27.4801H80.1055C79.9113 27.8494 79.6628 28.1619 79.3597 28.4176C79.0614 28.6733 78.7087 28.8651 78.3015 28.9929C77.899 29.1207 77.4445 29.1847 76.9379 29.1847ZM78.0103 26.9119C78.3844 26.9119 78.7205 26.8362 79.0188 26.6847C79.3219 26.5331 79.5633 26.3248 79.7433 26.0597C79.9232 25.7898 80.0131 25.4773 80.0131 25.1222V24.0852C79.9137 24.1373 79.793 24.1847 79.6509 24.2273C79.5136 24.2699 79.3621 24.3101 79.1964 24.348C79.0307 24.3859 78.8602 24.419 78.685 24.4474C78.5098 24.4759 78.3417 24.5019 78.1808 24.5256C77.854 24.5777 77.5747 24.6581 77.3427 24.767C77.1154 24.8759 76.9402 25.018 76.8171 25.1932C76.6987 25.3636 76.6396 25.5672 76.6396 25.804C76.6396 26.1638 76.7674 26.4384 77.0231 26.6278C77.2835 26.8172 77.6126 26.9119 78.0103 26.9119ZM85.5813 29V18.0909H88.9549V20.0795H89.0685C89.2674 19.3598 89.5917 18.8248 90.0415 18.4744C90.4914 18.1193 91.0146 17.9418 91.6112 17.9418C91.7721 17.9418 91.9379 17.9536 92.1083 17.9773C92.2788 17.9962 92.4374 18.027 92.5842 18.0696V21.0881C92.4184 21.0312 92.2006 20.9863 91.9308 20.9531C91.6656 20.92 91.4289 20.9034 91.2205 20.9034C90.8086 20.9034 90.4369 20.9957 90.1055 21.1804C89.7788 21.3603 89.5207 21.6136 89.3313 21.9403C89.1467 22.2623 89.0543 22.6411 89.0543 23.0767V29H85.5813ZM93.9993 29V18.0909H97.3018V20.0938H97.4226C97.6499 19.4309 98.0334 18.9077 98.5732 18.5241C99.1129 18.1406 99.7569 17.9489 100.505 17.9489C101.263 17.9489 101.911 18.143 102.451 18.5312C102.991 18.9195 103.334 19.4403 103.481 20.0938H103.594C103.798 19.4451 104.196 18.9266 104.788 18.5384C105.379 18.1454 106.078 17.9489 106.883 17.9489C107.915 17.9489 108.753 18.2803 109.397 18.9432C110.041 19.6013 110.363 20.5057 110.363 21.6562V29H106.89V22.4517C106.89 21.9072 106.75 21.4929 106.471 21.2088C106.192 20.92 105.829 20.7756 105.384 20.7756C104.906 20.7756 104.53 20.9318 104.255 21.2443C103.985 21.5521 103.85 21.9664 103.85 22.4872V29H100.512V22.4162C100.512 21.9096 100.375 21.5095 100.1 21.2159C99.8255 20.9223 99.4633 20.7756 99.0135 20.7756C98.7105 20.7756 98.4429 20.849 98.2109 20.9957C97.9789 21.1378 97.7966 21.3414 97.6641 21.6065C97.5362 21.8717 97.4723 22.1842 97.4723 22.544V29H93.9993ZM115.59 29.1847C114.894 29.1847 114.276 29.0687 113.737 28.8366C113.201 28.5999 112.778 28.2448 112.465 27.7713C112.157 27.2931 112.004 26.6941 112.004 25.9744C112.004 25.3684 112.11 24.857 112.323 24.4403C112.536 24.0237 112.83 23.6851 113.204 23.4247C113.578 23.1643 114.009 22.9678 114.496 22.8352C114.984 22.6979 115.505 22.6056 116.059 22.5582C116.679 22.5014 117.179 22.4422 117.558 22.3807C117.936 22.3144 118.211 22.2221 118.381 22.1037C118.557 21.9806 118.644 21.8078 118.644 21.5852V21.5497C118.644 21.1851 118.519 20.9034 118.268 20.7045C118.017 20.5057 117.678 20.4062 117.252 20.4062C116.793 20.4062 116.424 20.5057 116.144 20.7045C115.865 20.9034 115.687 21.178 115.612 21.5284L112.408 21.4148C112.503 20.7519 112.747 20.16 113.14 19.6392C113.538 19.1136 114.082 18.7017 114.773 18.4034C115.469 18.1004 116.305 17.9489 117.281 17.9489C117.977 17.9489 118.618 18.0317 119.205 18.1974C119.792 18.3584 120.304 18.5952 120.739 18.9077C121.175 19.2154 121.511 19.5942 121.748 20.044C121.989 20.4938 122.11 21.0076 122.11 21.5852V29H118.843V27.4801H118.758C118.564 27.8494 118.315 28.1619 118.012 28.4176C117.714 28.6733 117.361 28.8651 116.954 28.9929C116.551 29.1207 116.097 29.1847 115.59 29.1847ZM116.663 26.9119C117.037 26.9119 117.373 26.8362 117.671 26.6847C117.974 26.5331 118.216 26.3248 118.396 26.0597C118.576 25.7898 118.665 25.4773 118.665 25.1222V24.0852C118.566 24.1373 118.445 24.1847 118.303 24.2273C118.166 24.2699 118.014 24.3101 117.849 24.348C117.683 24.3859 117.513 24.419 117.337 24.4474C117.162 24.4759 116.994 24.5019 116.833 24.5256C116.506 24.5777 116.227 24.6581 115.995 24.767C115.768 24.8759 115.593 25.018 115.469 25.1932C115.351 25.3636 115.292 25.5672 115.292 25.804C115.292 26.1638 115.42 26.4384 115.675 26.6278C115.936 26.8172 116.265 26.9119 116.663 26.9119ZM129.326 29.206C128.175 29.206 127.188 28.9692 126.364 28.4957C125.545 28.0223 124.915 27.3641 124.475 26.5213C124.035 25.6738 123.815 24.6937 123.815 23.581C123.815 22.4635 124.035 21.4834 124.475 20.6406C124.92 19.7931 125.552 19.1326 126.371 18.6591C127.195 18.1856 128.178 17.9489 129.319 17.9489C130.327 17.9489 131.206 18.1312 131.954 18.4957C132.707 18.8603 133.294 19.3764 133.715 20.044C134.141 20.7069 134.366 21.4858 134.39 22.3807H131.144C131.078 21.822 130.888 21.384 130.576 21.0668C130.268 20.7495 129.866 20.5909 129.369 20.5909C128.966 20.5909 128.613 20.7045 128.31 20.9318C128.007 21.1544 127.771 21.4858 127.6 21.9261C127.434 22.3617 127.352 22.9015 127.352 23.5455C127.352 24.1894 127.434 24.7339 127.6 25.179C127.771 25.6193 128.007 25.9531 128.31 26.1804C128.613 26.4029 128.966 26.5142 129.369 26.5142C129.691 26.5142 129.975 26.4455 130.221 26.3082C130.472 26.1709 130.678 25.9697 130.839 25.7045C131 25.4347 131.102 25.108 131.144 24.7244H134.39C134.357 25.6241 134.132 26.41 133.715 27.0824C133.303 27.7547 132.723 28.2779 131.975 28.652C131.232 29.0213 130.349 29.206 129.326 29.206ZM138.291 33.0909C137.874 33.0909 137.481 33.0578 137.112 32.9915C136.743 32.9299 136.425 32.8471 136.16 32.7429L136.927 30.2216C137.268 30.3352 137.576 30.4015 137.85 30.4205C138.13 30.4394 138.369 30.3944 138.568 30.2855C138.771 30.1813 138.928 29.9943 139.037 29.7244L139.172 29.3977L135.294 18.0909H138.93L140.94 25.875H141.054L143.092 18.0909H146.75L142.637 30.044C142.439 30.6406 142.157 31.1662 141.792 31.6207C141.432 32.08 140.966 32.4399 140.393 32.7003C139.825 32.9607 139.124 33.0909 138.291 33.0909ZM152.378 29V14.4545H158.387C159.476 14.4545 160.416 14.6676 161.206 15.0938C162.002 15.5152 162.615 16.1046 163.046 16.8622C163.477 17.6151 163.692 18.491 163.692 19.4901C163.692 20.4938 163.472 21.3722 163.032 22.125C162.596 22.8731 161.973 23.4531 161.164 23.8651C160.354 24.277 159.393 24.483 158.28 24.483H154.573V21.7131H157.627C158.157 21.7131 158.6 21.6207 158.955 21.4361C159.315 21.2514 159.587 20.9934 159.772 20.6619C159.956 20.3258 160.049 19.9351 160.049 19.4901C160.049 19.0402 159.956 18.652 159.772 18.3253C159.587 17.9938 159.315 17.7382 158.955 17.5582C158.595 17.3783 158.152 17.2884 157.627 17.2884H155.894V29H152.378ZM179.154 21.7273C179.154 23.3277 178.846 24.6842 178.23 25.7969C177.615 26.9096 176.782 27.7547 175.73 28.3324C174.684 28.91 173.51 29.1989 172.208 29.1989C170.901 29.1989 169.724 28.9077 168.678 28.3253C167.632 27.7429 166.801 26.8977 166.185 25.7898C165.574 24.6771 165.269 23.3229 165.269 21.7273C165.269 20.1269 165.574 18.7704 166.185 17.6577C166.801 16.545 167.632 15.6998 168.678 15.1222C169.724 14.5445 170.901 14.2557 172.208 14.2557C173.51 14.2557 174.684 14.5445 175.73 15.1222C176.782 15.6998 177.615 16.545 178.23 17.6577C178.846 18.7704 179.154 20.1269 179.154 21.7273ZM175.56 21.7273C175.56 20.7803 175.425 19.9801 175.155 19.3267C174.89 18.6733 174.507 18.1785 174.005 17.8423C173.507 17.5062 172.908 17.3381 172.208 17.3381C171.512 17.3381 170.913 17.5062 170.411 17.8423C169.909 18.1785 169.523 18.6733 169.253 19.3267C168.988 19.9801 168.855 20.7803 168.855 21.7273C168.855 22.6742 168.988 23.4744 169.253 24.1278C169.523 24.7812 169.909 25.276 170.411 25.6122C170.913 25.9484 171.512 26.1165 172.208 26.1165C172.908 26.1165 173.507 25.9484 174.005 25.6122C174.507 25.276 174.89 24.7812 175.155 24.1278C175.425 23.4744 175.56 22.6742 175.56 21.7273ZM189.069 18.8153C189.021 18.2945 188.81 17.8897 188.436 17.6009C188.067 17.3073 187.539 17.1605 186.853 17.1605C186.398 17.1605 186.019 17.2197 185.716 17.3381C185.413 17.4564 185.186 17.6198 185.034 17.8281C184.883 18.0317 184.805 18.2661 184.8 18.5312C184.791 18.7491 184.833 18.9408 184.928 19.1065C185.027 19.2723 185.169 19.419 185.354 19.5469C185.543 19.67 185.771 19.7789 186.036 19.8736C186.301 19.9683 186.599 20.0511 186.931 20.1222L188.181 20.4062C188.9 20.5625 189.535 20.7708 190.084 21.0312C190.638 21.2917 191.102 21.6018 191.476 21.9616C191.855 22.3215 192.141 22.7358 192.336 23.2045C192.53 23.6733 192.629 24.1989 192.634 24.7812C192.629 25.6998 192.397 26.4882 191.938 27.1463C191.479 27.8045 190.818 28.3087 189.956 28.6591C189.099 29.0095 188.065 29.1847 186.853 29.1847C185.636 29.1847 184.575 29.0024 183.671 28.6378C182.766 28.2732 182.063 27.7192 181.561 26.9759C181.06 26.2325 180.801 25.2926 180.787 24.1562H184.154C184.182 24.625 184.308 25.0156 184.53 25.3281C184.753 25.6406 185.058 25.8774 185.446 26.0384C185.839 26.1993 186.294 26.2798 186.81 26.2798C187.283 26.2798 187.686 26.2159 188.017 26.0881C188.354 25.9602 188.612 25.7827 188.792 25.5554C188.971 25.3281 189.064 25.0677 189.069 24.7741C189.064 24.4995 188.979 24.2652 188.813 24.071C188.647 23.8722 188.391 23.7017 188.046 23.5597C187.705 23.4129 187.269 23.2779 186.739 23.1548L185.219 22.7997C183.96 22.5109 182.968 22.0445 182.243 21.4006C181.519 20.7519 181.159 19.8759 181.164 18.7727C181.159 17.8731 181.4 17.0848 181.888 16.4077C182.376 15.7306 183.051 15.2027 183.912 14.8239C184.774 14.4451 185.757 14.2557 186.86 14.2557C187.987 14.2557 188.964 14.4474 189.793 14.831C190.626 15.2098 191.273 15.7424 191.732 16.429C192.191 17.1155 192.426 17.911 192.435 18.8153H189.069Z" fill="#131313"/>
<path d="M13.6488 7.30273C10.2956 7.49349 6.82093 8.81419 4.43583 11.1788C2.05073 13.5435 0.702069 16.6797 0.482422 20.0311H7.22984C7.33941 18.3594 8.1013 17.2555 9.29102 16.076C10.4807 14.8965 11.9762 13.8031 13.6488 13.708V7.30273Z" fill="#FF5F00"/>
<path d="M7.95508 33.2801C9.96182 34.3074 12.3817 34.7582 14.6358 34.7222C16.8899 34.6863 19.1007 34.097 21.0736 33.0063C23.0466 31.9155 24.7213 30.3567 25.9505 28.4669C27.1798 26.5771 27.6853 23.7829 27.8826 21.5371L21.4147 21.5511C21.3163 22.6713 20.7829 23.7642 20.1698 24.7068C19.5566 25.6495 18.903 26.3308 17.9188 26.8748C16.9347 27.4189 15.8406 27.9244 14.7162 27.9424C13.5918 27.9603 10.1441 28.1796 7.95508 24.7397V33.2801Z" fill="#FF5F00"/>
<path d="M0.482422 20.8252H7.24354V41.4644C7.24354 41.4644 4.89526 41.2973 3.55351 40.839C2.17871 40.3693 0.482422 39.0829 0.482422 39.0829V20.8252Z" fill="#FF5F00"/>
<rect x="14.3604" y="7.30273" width="20.6392" height="6.40526" fill="#00987F"/>
<rect x="27.8828" y="0.185547" width="20.6392" height="6.40526" transform="rotate(90 27.8828 0.185547)" fill="#00987F"/>
</svg>
