<svg width="629" height="410" viewBox="0 0 629 410" fill="none" xmlns="http://www.w3.org/2000/svg">
<g clip-path="url(#clip0_2438_405)">
<path d="M529.214 290.208V315.755H494.48V270.423H459.746V232.477H409.306V268.272H402.237V228.921H386.329V196.514H376.72V228.921H360.812V268.272H353.743V337.124H318.548V316.374L274.354 292.714V256.584H263.737V236.291L251.639 217.569L243.134 204.405V170.016H235.95V204.405L227.444 217.569L215.347 236.291V256.584H204.729V268.531H185.599V230.585H135.422V309.537L86.6257 309.668L64.0694 290.491L34.5293 290.57L34.9666 409.296C35.4225 408.508 579.656 409.455 579.656 409.154V290.208H529.214Z" fill="#C52127" fill-opacity="0.08"/>
<mask id="mask0_2438_405" style="mask-type:luminance" maskUnits="userSpaceOnUse" x="139" y="104" width="347" height="306">
<path d="M485.862 409.3H139.166L276.303 104.051H348.725L485.862 409.3Z" fill="white"/>
</mask>
<g mask="url(#mask0_2438_405)">
<path d="M485.862 104.051H139.166V106.25H485.862V104.051Z" fill="#CFD2FF"/>
</g>
<mask id="mask1_2438_405" style="mask-type:luminance" maskUnits="userSpaceOnUse" x="139" y="104" width="347" height="306">
<path d="M485.862 409.3H139.166L276.303 104.051H348.725L485.862 409.3Z" fill="white"/>
</mask>
<g mask="url(#mask1_2438_405)">
<path d="M485.862 106.246H139.166V112.647H485.862V106.246Z" fill="#D0D3FF"/>
</g>
<mask id="mask2_2438_405" style="mask-type:luminance" maskUnits="userSpaceOnUse" x="139" y="104" width="347" height="306">
<path d="M485.862 409.3H139.166L276.303 104.051H348.725L485.862 409.3Z" fill="white"/>
</mask>
<g mask="url(#mask2_2438_405)">
<path d="M485.862 112.648H139.166V119.05H485.862V112.648Z" fill="#D1D4FF"/>
</g>
<mask id="mask3_2438_405" style="mask-type:luminance" maskUnits="userSpaceOnUse" x="139" y="104" width="347" height="306">
<path d="M485.862 409.3H139.166L276.303 104.051H348.725L485.862 409.3Z" fill="white"/>
</mask>
<g mask="url(#mask3_2438_405)">
<path d="M485.862 119.051H139.166V125.452H485.862V119.051Z" fill="#D2D5FF"/>
</g>
<mask id="mask4_2438_405" style="mask-type:luminance" maskUnits="userSpaceOnUse" x="139" y="104" width="347" height="306">
<path d="M485.862 409.3H139.166L276.303 104.051H348.725L485.862 409.3Z" fill="white"/>
</mask>
<g mask="url(#mask4_2438_405)">
<path d="M485.862 125.453H139.166V131.854H485.862V125.453Z" fill="#D3D6FF"/>
</g>
<mask id="mask5_2438_405" style="mask-type:luminance" maskUnits="userSpaceOnUse" x="139" y="104" width="347" height="306">
<path d="M485.862 409.3H139.166L276.303 104.051H348.725L485.862 409.3Z" fill="white"/>
</mask>
<g mask="url(#mask5_2438_405)">
<path d="M485.862 131.855H139.166V138.257H485.862V131.855Z" fill="#D4D7FF"/>
</g>
<mask id="mask6_2438_405" style="mask-type:luminance" maskUnits="userSpaceOnUse" x="139" y="104" width="347" height="306">
<path d="M485.862 409.3H139.166L276.303 104.051H348.725L485.862 409.3Z" fill="white"/>
</mask>
<g mask="url(#mask6_2438_405)">
<path d="M485.862 138.254H139.166V144.655H485.862V138.254Z" fill="#D5D8FF"/>
</g>
<mask id="mask7_2438_405" style="mask-type:luminance" maskUnits="userSpaceOnUse" x="139" y="104" width="347" height="306">
<path d="M485.862 409.3H139.166L276.303 104.051H348.725L485.862 409.3Z" fill="white"/>
</mask>
<g mask="url(#mask7_2438_405)">
<path d="M485.862 144.656H139.166V151.057H485.862V144.656Z" fill="#D6D9FF"/>
</g>
<mask id="mask8_2438_405" style="mask-type:luminance" maskUnits="userSpaceOnUse" x="139" y="104" width="347" height="306">
<path d="M485.862 409.3H139.166L276.303 104.051H348.725L485.862 409.3Z" fill="white"/>
</mask>
<g mask="url(#mask8_2438_405)">
<path d="M485.862 151.059H139.166V157.46H485.862V151.059Z" fill="#D7DAFF"/>
</g>
<mask id="mask9_2438_405" style="mask-type:luminance" maskUnits="userSpaceOnUse" x="139" y="104" width="347" height="306">
<path d="M485.862 409.3H139.166L276.303 104.051H348.725L485.862 409.3Z" fill="white"/>
</mask>
<g mask="url(#mask9_2438_405)">
<path d="M485.862 157.457H139.166V163.858H485.862V157.457Z" fill="#D8DBFF"/>
</g>
<mask id="mask10_2438_405" style="mask-type:luminance" maskUnits="userSpaceOnUse" x="139" y="104" width="347" height="306">
<path d="M485.862 409.3H139.166L276.303 104.051H348.725L485.862 409.3Z" fill="white"/>
</mask>
<g mask="url(#mask10_2438_405)">
<path d="M485.862 163.859H139.166V170.261H485.862V163.859Z" fill="#D9DCFF"/>
</g>
<mask id="mask11_2438_405" style="mask-type:luminance" maskUnits="userSpaceOnUse" x="139" y="104" width="347" height="306">
<path d="M485.862 409.3H139.166L276.303 104.051H348.725L485.862 409.3Z" fill="white"/>
</mask>
<g mask="url(#mask11_2438_405)">
<path d="M485.862 170.262H139.166V176.663H485.862V170.262Z" fill="#DADDFF"/>
</g>
<mask id="mask12_2438_405" style="mask-type:luminance" maskUnits="userSpaceOnUse" x="139" y="104" width="347" height="306">
<path d="M485.862 409.3H139.166L276.303 104.051H348.725L485.862 409.3Z" fill="white"/>
</mask>
<g mask="url(#mask12_2438_405)">
<path d="M485.862 176.664H139.166V183.065H485.862V176.664Z" fill="#DBDDFF"/>
</g>
<mask id="mask13_2438_405" style="mask-type:luminance" maskUnits="userSpaceOnUse" x="139" y="104" width="347" height="306">
<path d="M485.862 409.3H139.166L276.303 104.051H348.725L485.862 409.3Z" fill="white"/>
</mask>
<g mask="url(#mask13_2438_405)">
<path d="M485.862 183.062H139.166V189.465H485.862V183.062Z" fill="#DCDEFF"/>
</g>
<mask id="mask14_2438_405" style="mask-type:luminance" maskUnits="userSpaceOnUse" x="139" y="104" width="347" height="306">
<path d="M485.862 409.3H139.166L276.303 104.051H348.725L485.862 409.3Z" fill="white"/>
</mask>
<g mask="url(#mask14_2438_405)">
<path d="M485.862 189.465H139.166V195.866H485.862V189.465Z" fill="#DDDFFF"/>
</g>
<mask id="mask15_2438_405" style="mask-type:luminance" maskUnits="userSpaceOnUse" x="139" y="104" width="347" height="306">
<path d="M485.862 409.3H139.166L276.303 104.051H348.725L485.862 409.3Z" fill="white"/>
</mask>
<g mask="url(#mask15_2438_405)">
<path d="M485.862 195.867H139.166V202.268H485.862V195.867Z" fill="#DEE0FF"/>
</g>
<mask id="mask16_2438_405" style="mask-type:luminance" maskUnits="userSpaceOnUse" x="139" y="104" width="347" height="306">
<path d="M485.862 409.3H139.166L276.303 104.051H348.725L485.862 409.3Z" fill="white"/>
</mask>
<g mask="url(#mask16_2438_405)">
<path d="M485.862 202.27H139.166V208.671H485.862V202.27Z" fill="#DFE1FF"/>
</g>
<mask id="mask17_2438_405" style="mask-type:luminance" maskUnits="userSpaceOnUse" x="139" y="104" width="347" height="306">
<path d="M485.862 409.3H139.166L276.303 104.051H348.725L485.862 409.3Z" fill="white"/>
</mask>
<g mask="url(#mask17_2438_405)">
<path d="M485.862 208.668H139.166V215.069H485.862V208.668Z" fill="#E0E2FF"/>
</g>
<mask id="mask18_2438_405" style="mask-type:luminance" maskUnits="userSpaceOnUse" x="139" y="104" width="347" height="306">
<path d="M485.862 409.3H139.166L276.303 104.051H348.725L485.862 409.3Z" fill="white"/>
</mask>
<g mask="url(#mask18_2438_405)">
<path d="M485.862 215.07H139.166V221.471H485.862V215.07Z" fill="#E1E3FF"/>
</g>
<mask id="mask19_2438_405" style="mask-type:luminance" maskUnits="userSpaceOnUse" x="139" y="104" width="347" height="306">
<path d="M485.862 409.3H139.166L276.303 104.051H348.725L485.862 409.3Z" fill="white"/>
</mask>
<g mask="url(#mask19_2438_405)">
<path d="M485.862 221.469H139.166V227.87H485.862V221.469Z" fill="#E2E4FF"/>
</g>
<mask id="mask20_2438_405" style="mask-type:luminance" maskUnits="userSpaceOnUse" x="139" y="104" width="347" height="306">
<path d="M485.862 409.3H139.166L276.303 104.051H348.725L485.862 409.3Z" fill="white"/>
</mask>
<g mask="url(#mask20_2438_405)">
<path d="M485.862 227.871H139.166V234.272H485.862V227.871Z" fill="#E3E5FF"/>
</g>
<mask id="mask21_2438_405" style="mask-type:luminance" maskUnits="userSpaceOnUse" x="139" y="104" width="347" height="306">
<path d="M485.862 409.3H139.166L276.303 104.051H348.725L485.862 409.3Z" fill="white"/>
</mask>
<g mask="url(#mask21_2438_405)">
<path d="M485.862 234.273H139.166V240.675H485.862V234.273Z" fill="#E4E6FF"/>
</g>
<mask id="mask22_2438_405" style="mask-type:luminance" maskUnits="userSpaceOnUse" x="139" y="104" width="347" height="306">
<path d="M485.862 409.3H139.166L276.303 104.051H348.725L485.862 409.3Z" fill="white"/>
</mask>
<g mask="url(#mask22_2438_405)">
<path d="M485.862 240.676H139.166V247.077H485.862V240.676Z" fill="#E5E7FF"/>
</g>
<mask id="mask23_2438_405" style="mask-type:luminance" maskUnits="userSpaceOnUse" x="139" y="104" width="347" height="306">
<path d="M485.862 409.3H139.166L276.303 104.051H348.725L485.862 409.3Z" fill="white"/>
</mask>
<g mask="url(#mask23_2438_405)">
<path d="M485.862 247.078H139.166V253.479H485.862V247.078Z" fill="#E6E8FF"/>
</g>
<mask id="mask24_2438_405" style="mask-type:luminance" maskUnits="userSpaceOnUse" x="139" y="104" width="347" height="306">
<path d="M485.862 409.3H139.166L276.303 104.051H348.725L485.862 409.3Z" fill="white"/>
</mask>
<g mask="url(#mask24_2438_405)">
<path d="M485.862 253.48H139.166V259.882H485.862V253.48Z" fill="#E8E9FF"/>
</g>
<mask id="mask25_2438_405" style="mask-type:luminance" maskUnits="userSpaceOnUse" x="139" y="104" width="347" height="306">
<path d="M485.862 409.3H139.166L276.303 104.051H348.725L485.862 409.3Z" fill="white"/>
</mask>
<g mask="url(#mask25_2438_405)">
<path d="M485.862 259.875H139.166V266.276H485.862V259.875Z" fill="#E9EAFF"/>
</g>
<mask id="mask26_2438_405" style="mask-type:luminance" maskUnits="userSpaceOnUse" x="139" y="104" width="347" height="306">
<path d="M485.862 409.3H139.166L276.303 104.051H348.725L485.862 409.3Z" fill="white"/>
</mask>
<g mask="url(#mask26_2438_405)">
<path d="M485.862 266.277H139.166V272.679H485.862V266.277Z" fill="#EAEBFF"/>
</g>
<mask id="mask27_2438_405" style="mask-type:luminance" maskUnits="userSpaceOnUse" x="139" y="104" width="347" height="306">
<path d="M485.862 409.3H139.166L276.303 104.051H348.725L485.862 409.3Z" fill="white"/>
</mask>
<g mask="url(#mask27_2438_405)">
<path d="M485.862 272.68H139.166V279.081H485.862V272.68Z" fill="#EBECFF"/>
</g>
<mask id="mask28_2438_405" style="mask-type:luminance" maskUnits="userSpaceOnUse" x="139" y="104" width="347" height="306">
<path d="M485.862 409.3H139.166L276.303 104.051H348.725L485.862 409.3Z" fill="white"/>
</mask>
<g mask="url(#mask28_2438_405)">
<path d="M485.862 279.082H139.166V285.483H485.862V279.082Z" fill="#ECEDFF"/>
</g>
<mask id="mask29_2438_405" style="mask-type:luminance" maskUnits="userSpaceOnUse" x="139" y="104" width="347" height="306">
<path d="M485.862 409.3H139.166L276.303 104.051H348.725L485.862 409.3Z" fill="white"/>
</mask>
<g mask="url(#mask29_2438_405)">
<path d="M485.862 285.484H139.166V291.886H485.862V285.484Z" fill="#EDEEFF"/>
</g>
<mask id="mask30_2438_405" style="mask-type:luminance" maskUnits="userSpaceOnUse" x="139" y="104" width="347" height="306">
<path d="M485.862 409.3H139.166L276.303 104.051H348.725L485.862 409.3Z" fill="white"/>
</mask>
<g mask="url(#mask30_2438_405)">
<path d="M485.862 291.887H139.166V298.288H485.862V291.887Z" fill="#EEEFFF"/>
</g>
<mask id="mask31_2438_405" style="mask-type:luminance" maskUnits="userSpaceOnUse" x="139" y="104" width="347" height="306">
<path d="M485.862 409.3H139.166L276.303 104.051H348.725L485.862 409.3Z" fill="white"/>
</mask>
<g mask="url(#mask31_2438_405)">
<path d="M485.862 298.289H139.166V304.69H485.862V298.289Z" fill="#EFF0FF"/>
</g>
<mask id="mask32_2438_405" style="mask-type:luminance" maskUnits="userSpaceOnUse" x="139" y="104" width="347" height="306">
<path d="M485.862 409.3H139.166L276.303 104.051H348.725L485.862 409.3Z" fill="white"/>
</mask>
<g mask="url(#mask32_2438_405)">
<path d="M485.862 304.684H139.166V311.085H485.862V304.684Z" fill="#F0F1FF"/>
</g>
<mask id="mask33_2438_405" style="mask-type:luminance" maskUnits="userSpaceOnUse" x="139" y="104" width="347" height="306">
<path d="M485.862 409.3H139.166L276.303 104.051H348.725L485.862 409.3Z" fill="white"/>
</mask>
<g mask="url(#mask33_2438_405)">
<path d="M485.862 311.086H139.166V317.487H485.862V311.086Z" fill="#F1F2FF"/>
</g>
<mask id="mask34_2438_405" style="mask-type:luminance" maskUnits="userSpaceOnUse" x="139" y="104" width="347" height="306">
<path d="M485.862 409.3H139.166L276.303 104.051H348.725L485.862 409.3Z" fill="white"/>
</mask>
<g mask="url(#mask34_2438_405)">
<path d="M485.862 317.488H139.166V323.889H485.862V317.488Z" fill="#F2F3FF"/>
</g>
<mask id="mask35_2438_405" style="mask-type:luminance" maskUnits="userSpaceOnUse" x="139" y="104" width="347" height="306">
<path d="M485.862 409.3H139.166L276.303 104.051H348.725L485.862 409.3Z" fill="white"/>
</mask>
<g mask="url(#mask35_2438_405)">
<path d="M485.862 323.891H139.166V330.292H485.862V323.891Z" fill="#F3F4FF"/>
</g>
<mask id="mask36_2438_405" style="mask-type:luminance" maskUnits="userSpaceOnUse" x="139" y="104" width="347" height="306">
<path d="M485.862 409.3H139.166L276.303 104.051H348.725L485.862 409.3Z" fill="white"/>
</mask>
<g mask="url(#mask36_2438_405)">
<path d="M485.862 330.293H139.166V336.694H485.862V330.293Z" fill="#F4F4FF"/>
</g>
<mask id="mask37_2438_405" style="mask-type:luminance" maskUnits="userSpaceOnUse" x="139" y="104" width="347" height="306">
<path d="M485.862 409.3H139.166L276.303 104.051H348.725L485.862 409.3Z" fill="white"/>
</mask>
<g mask="url(#mask37_2438_405)">
<path d="M485.862 336.695H139.166V343.096H485.862V336.695Z" fill="#F5F5FF"/>
</g>
<mask id="mask38_2438_405" style="mask-type:luminance" maskUnits="userSpaceOnUse" x="139" y="104" width="347" height="306">
<path d="M485.862 409.3H139.166L276.303 104.051H348.725L485.862 409.3Z" fill="white"/>
</mask>
<g mask="url(#mask38_2438_405)">
<path d="M485.862 343.094H139.166V349.495H485.862V343.094Z" fill="#F6F6FF"/>
</g>
<mask id="mask39_2438_405" style="mask-type:luminance" maskUnits="userSpaceOnUse" x="139" y="104" width="347" height="306">
<path d="M485.862 409.3H139.166L276.303 104.051H348.725L485.862 409.3Z" fill="white"/>
</mask>
<g mask="url(#mask39_2438_405)">
<path d="M485.862 349.496H139.166V355.897H485.862V349.496Z" fill="#F7F7FF"/>
</g>
<mask id="mask40_2438_405" style="mask-type:luminance" maskUnits="userSpaceOnUse" x="139" y="104" width="347" height="306">
<path d="M485.862 409.3H139.166L276.303 104.051H348.725L485.862 409.3Z" fill="white"/>
</mask>
<g mask="url(#mask40_2438_405)">
<path d="M485.862 355.898H139.166V362.3H485.862V355.898Z" fill="#F8F8FF"/>
</g>
<mask id="mask41_2438_405" style="mask-type:luminance" maskUnits="userSpaceOnUse" x="139" y="104" width="347" height="306">
<path d="M485.862 409.3H139.166L276.303 104.051H348.725L485.862 409.3Z" fill="white"/>
</mask>
<g mask="url(#mask41_2438_405)">
<path d="M485.862 362.297H139.166V368.698H485.862V362.297Z" fill="#F9F9FF"/>
</g>
<path d="M485.864 409.296H139.168L276.305 104.047H348.727L485.864 409.296Z" fill="url(#paint0_linear_2438_405)"/>
<path fill-rule="evenodd" clip-rule="evenodd" d="M485.862 368.699H139.166V375.1H485.862V368.699ZM485.862 375.101H139.166V381.502H485.862V375.101ZM139.166 381.502H485.862V387.901V387.904V394.302H139.166V387.904V387.901V381.502ZM139.166 394.303H485.862V400.704H139.166V394.303ZM485.862 400.704H139.166V407.106H485.862V400.704ZM139.166 407.106H485.862V409.297H139.166V407.106Z" fill="white"/>
<path d="M287.416 118.098H283.581C280.731 118.098 278.422 115.788 278.422 112.938V112.052C278.422 110.303 279.839 108.887 281.587 108.887H289.411C291.158 108.887 292.576 110.303 292.576 112.052V112.938C292.575 115.788 290.265 118.098 287.416 118.098ZM314.435 123.562H310.599C307.75 123.562 305.44 121.252 305.44 118.403V117.517C305.44 115.769 306.856 114.352 308.605 114.352H316.428C318.176 114.352 319.593 115.769 319.593 117.517V118.403C319.593 121.252 317.284 123.562 314.435 123.562ZM344.68 118.859L341.04 120.069C338.336 120.967 335.416 119.503 334.517 116.8L334.237 115.959C333.687 114.3 334.584 112.508 336.243 111.957L343.667 109.49C345.326 108.938 347.117 109.836 347.669 111.495L347.949 112.336C348.848 115.04 347.385 117.961 344.68 118.859Z" fill="#FFD461"/>
<path d="M351.176 6.17569C350.567 5.87942 349.833 6.11048 349.502 6.70177L336.152 30.5848L341.188 34.2015H341.433L351.808 7.79245C352.052 7.17134 351.777 6.46699 351.176 6.17569Z" fill="#C52127"/>
<path d="M351.067 6.14764C350.481 5.9259 349.814 6.1464 349.503 6.70291L336.152 30.5865L341.188 34.2033H341.433L341.734 33.4393L337.442 30.3561L350.792 6.4731C350.865 6.34391 350.962 6.24018 351.067 6.14764Z" fill="#931F26"/>
<path d="M352.468 9.28313C355.031 9.28313 357.109 7.20503 357.109 4.64157C357.109 2.0781 355.031 0 352.468 0C349.904 0 347.826 2.0781 347.826 4.64157C347.826 7.20503 349.904 9.28313 352.468 9.28313Z" fill="#FFD461"/>
<path d="M351.278 0.171875C349.932 0.984289 349.024 2.44701 349.024 4.13333C349.024 6.69665 351.102 8.77489 353.665 8.77489C354.079 8.77489 354.473 8.70347 354.855 8.6016C354.155 9.02396 353.344 9.28172 352.468 9.28172C349.904 9.28172 347.826 7.20348 347.826 4.64015C347.826 2.49048 349.294 0.69982 351.278 0.171875Z" fill="#EBC359"/>
<path d="M276.771 6.17569C277.38 5.87942 278.114 6.11048 278.444 6.70177L291.795 30.5848L286.759 34.2015H286.514L276.14 7.79245C275.895 7.17134 276.171 6.46699 276.771 6.17569Z" fill="#C52127"/>
<path d="M276.881 6.14764C277.467 5.9259 278.134 6.1464 278.445 6.70291L291.796 30.5865L286.76 34.2033H286.515L286.214 33.4393L290.506 30.3561L277.156 6.4731C277.083 6.34391 276.986 6.24018 276.881 6.14764Z" fill="#931F26"/>
<path d="M275.481 9.28313C278.045 9.28313 280.123 7.20503 280.123 4.64157C280.123 2.0781 278.045 0 275.481 0C272.918 0 270.84 2.0781 270.84 4.64157C270.84 7.20503 272.918 9.28313 275.481 9.28313Z" fill="#FFD461"/>
<path d="M276.671 0.171875C278.017 0.984289 278.925 2.44701 278.925 4.13333C278.925 6.69665 276.847 8.77489 274.283 8.77489C273.87 8.77489 273.476 8.70347 273.094 8.6016C273.793 9.02396 274.604 9.28172 275.481 9.28172C278.044 9.28172 280.122 7.20348 280.122 4.64015C280.122 2.49048 278.654 0.69982 276.671 0.171875Z" fill="#EBC359"/>
<path d="M313.522 118.099C336.617 118.099 355.339 109.83 355.339 99.6295C355.339 89.4292 336.617 81.1602 313.522 81.1602C290.427 81.1602 271.705 89.4292 271.705 99.6295C271.705 109.83 290.427 118.099 313.522 118.099Z" fill="#C52127"/>
<path d="M350.129 90.6992C352.258 92.9147 353.437 95.352 353.437 97.911C353.437 108.111 334.715 116.38 311.62 116.38C295.861 116.38 282.144 112.529 275.016 106.842C281.376 113.459 296.222 118.1 313.524 118.1C336.619 118.1 355.341 109.831 355.341 99.6308C355.341 96.3898 353.446 93.3464 350.129 90.6992Z" fill="#931F26"/>
<path d="M314.936 111.359C348.951 111.359 376.526 99.1797 376.526 84.1559C376.526 69.1322 348.951 56.9531 314.936 56.9531C280.921 56.9531 253.346 69.1322 253.346 84.1559C253.346 99.1797 280.921 111.359 314.936 111.359Z" fill="#C52127"/>
<path d="M356.923 64.2578C366.005 68.9969 371.491 75.1235 371.491 81.8185C371.491 96.8419 343.916 109.021 309.901 109.021C293.672 109.021 278.917 106.244 267.916 101.713C279.214 107.608 296.08 111.354 314.937 111.354C348.952 111.354 376.527 99.1749 376.527 84.1514C376.527 76.2968 368.978 69.2236 356.923 64.2578Z" fill="#931F26"/>
<path d="M233.411 65.7642L227.786 64.2344L227.32 70.1747L231.999 71.5672C231.999 71.5672 234.823 69.9399 234.823 69.848C234.823 69.7554 233.411 65.7642 233.411 65.7642Z" fill="#6A6CE6"/>
<path d="M400.204 64.5051L398.555 66.3392C396.885 63.4461 393.486 60.7219 388.665 58.2586C388.515 58.1797 388.355 58.1014 388.195 58.0226C388.044 57.9437 387.884 57.8648 387.715 57.789C380.342 54.1996 369.9 51.1934 357.443 49.0667C357.18 49.0177 356.907 48.9717 356.634 48.9282C356.361 48.8823 356.088 48.8357 355.815 48.7922C343.575 46.8034 329.48 45.6506 314.462 45.6047C314.151 45.6016 313.831 45.6016 313.52 45.6016C313.21 45.6016 312.89 45.6016 312.579 45.6047C297.561 45.6506 283.466 46.8034 271.226 48.7922C270.952 48.8357 270.68 48.8817 270.406 48.9251C270.133 48.9711 269.87 49.0171 269.596 49.0661C257.139 51.1928 246.707 54.199 239.335 57.7884C239.166 57.8642 239.005 57.9431 238.855 58.0219C238.694 58.1008 238.535 58.1791 238.384 58.258C231.482 61.7846 227.481 65.8467 227.321 70.1734C227.311 70.2628 227.311 70.3554 227.311 70.4448C227.311 70.5342 227.311 70.6268 227.321 70.7162C227.481 75.0435 231.473 79.1049 238.384 82.6291C238.535 82.7105 238.694 82.7894 238.855 82.8683C239.015 82.9472 239.165 83.0254 239.335 83.1018C246.717 86.6912 257.149 89.6974 269.596 91.8241C269.87 91.87 270.133 91.916 270.406 91.9626C270.68 92.0061 270.962 92.052 271.235 92.0955C283.465 94.0868 297.561 95.2371 312.578 95.2837C312.889 95.2862 313.209 95.2862 313.52 95.2862C313.83 95.2862 314.151 95.2862 314.461 95.2837C329.479 95.2377 343.574 94.0843 355.814 92.0955C356.087 92.052 356.36 92.0061 356.633 91.9601C356.907 91.9166 357.179 91.8707 357.443 91.8216C369.9 89.6974 380.332 86.6912 387.714 83.1018C387.883 83.026 388.034 82.9472 388.194 82.8683C388.354 82.7894 388.514 82.7105 388.665 82.6291C395.576 79.1049 399.568 75.0435 399.728 70.7162C399.738 70.6268 399.738 70.5342 399.738 70.4448C399.738 70.3554 399.738 70.2634 399.728 70.1734L400.204 64.5051Z" fill="#931F26"/>
<path d="M400.214 64.2332C400.214 64.3227 400.214 64.4152 400.205 64.5047C400.044 68.8319 396.052 72.8934 389.141 76.4176C388.99 76.4989 388.831 76.5778 388.671 76.6561C388.51 76.735 388.36 76.8132 388.19 76.8896C380.809 80.479 370.376 83.4846 357.919 85.6094C357.655 85.6585 357.383 85.7044 357.109 85.7479C356.836 85.7939 356.563 85.8398 356.29 85.8833C344.05 87.8721 329.955 89.0249 314.937 89.0709C314.627 89.0734 314.306 89.0734 313.996 89.0734C313.685 89.0734 313.365 89.0734 313.054 89.0709C298.036 89.0249 283.941 87.8746 271.71 85.8833C271.437 85.8398 271.154 85.7939 270.882 85.7504C270.608 85.7044 270.345 85.6585 270.072 85.6119C257.625 83.4846 247.192 80.479 239.811 76.8896C239.641 76.8139 239.49 76.735 239.33 76.6561C239.17 76.5772 239.011 76.4989 238.86 76.4176C231.949 72.8934 227.957 68.8319 227.796 64.5047C227.787 64.4152 227.787 64.3227 227.787 64.2332C227.787 64.1438 227.787 64.0512 227.796 63.9618C227.957 59.6345 231.958 55.5731 238.86 52.0464C239.011 51.9675 239.17 51.8893 239.33 51.8104C239.481 51.7315 239.641 51.6532 239.811 51.5768C247.183 47.9874 257.615 44.9813 270.072 42.8546C270.345 42.8055 270.608 42.7595 270.882 42.7136C271.155 42.6701 271.428 42.6241 271.701 42.5807C283.941 40.5919 298.036 39.4391 313.054 39.3931C313.365 39.3906 313.685 39.3906 313.996 39.3906C314.306 39.3906 314.626 39.3906 314.937 39.3931C329.955 39.4391 344.05 40.5925 356.29 42.5807C356.563 42.6241 356.836 42.6701 357.109 42.7167C357.382 42.7602 357.655 42.8061 357.919 42.8552C370.376 44.9819 380.818 47.9881 388.19 51.5775C388.36 51.6532 388.52 51.7321 388.671 51.811C388.831 51.8899 388.99 51.9681 389.141 52.047C396.043 55.5737 400.044 59.6351 400.205 63.9624C400.214 64.0512 400.214 64.1438 400.214 64.2332Z" fill="#C52127"/>
<path d="M314.936 39.3934V64.2336H313.053V39.3934C313.363 39.391 313.684 39.3909 313.994 39.3909C314.305 39.3903 314.625 39.3903 314.936 39.3934Z" fill="#7678F5"/>
<path d="M314.813 64.0992L314.003 64.2346H313.993L313.984 64.2371L313.184 64.37L313.052 64.3048L312.91 64.234L312.713 64.1334L312.374 63.9626H312.365L311.423 63.493L270.07 42.8559C270.344 42.8069 270.607 42.7609 270.88 42.715C271.154 42.6715 271.426 42.6255 271.699 42.582L313.052 63.2197L313.994 63.6893L314.003 63.6918L314.343 63.8626L314.54 63.9632L314.682 64.0365L314.813 64.0992Z" fill="#931F26"/>
<path d="M314.464 63.9991L313.993 64.2351L313.984 64.2376L313.522 64.4681L313.306 64.4327L313.061 64.3892H313.052L312.713 64.332L312.119 64.2345H312.11L310.491 63.9631L238.857 52.0477C239.008 51.9688 239.168 51.8905 239.328 51.8117C239.479 51.7328 239.639 51.6545 239.808 51.5781L311.423 63.4935L313.052 63.7618V63.7643L313.654 63.8618L313.993 63.919L314.247 63.9625L314.464 63.9991Z" fill="#931F26"/>
<path d="M313.996 63.9609V64.5038H227.796C227.787 64.4144 227.787 64.3218 227.787 64.2324C227.787 64.1429 227.787 64.0504 227.796 63.9609H313.996Z" fill="#931F26"/>
<path d="M314.464 64.4669L314.238 64.5048L313.993 64.5452L313.654 64.6023L313.061 64.6998L313.052 64.7023L311.432 64.9706L239.808 76.8891C239.639 76.8134 239.488 76.7345 239.328 76.6556C239.168 76.5767 239.008 76.4985 238.857 76.4171L310.472 64.5042L312.101 64.2327H312.11L312.713 64.1321L313.052 64.075L313.316 64.0315L313.522 63.9961L313.993 64.2321H314.003L314.464 64.4669Z" fill="#931F26"/>
<path d="M314.813 64.3685L314.691 64.4281L314.54 64.5039L314.343 64.6014L314.003 64.7753L313.994 64.7784L313.053 65.2479L271.709 85.8831C271.436 85.8397 271.153 85.7937 270.88 85.7502C270.607 85.7043 270.344 85.6583 270.07 85.6117L311.433 64.9709L312.365 64.5045L312.374 64.502L312.713 64.3312L312.91 64.2337L313.052 64.1629L313.184 64.0977L313.993 64.2331H314.003L314.813 64.3685Z" fill="#931F26"/>
<path d="M314.936 64.2344V89.072C314.625 89.0745 314.305 89.0745 313.994 89.0745C313.684 89.0745 313.363 89.0745 313.053 89.072V64.2344H314.936Z" fill="#931F26"/>
<path d="M357.919 85.608C357.655 85.6571 357.382 85.703 357.109 85.7465C356.835 85.7925 356.563 85.8384 356.289 85.8819L314.936 65.2411L314.004 64.7747L313.995 64.7722L313.656 64.6014L313.458 64.5039V64.5014L313.308 64.4312L313.186 64.3685L313.986 64.2355L313.995 64.2331H314.005L314.815 64.0977L314.937 64.1598L315.087 64.2331L315.285 64.3306L315.624 64.5045H315.633L316.566 64.9741L357.919 85.608Z" fill="#931F26"/>
<path d="M389.139 76.4152C388.989 76.4966 388.829 76.5755 388.669 76.6537C388.508 76.7326 388.358 76.8109 388.189 76.8873L316.564 64.9719L314.936 64.7004V64.698L314.343 64.6004L313.994 64.5433L313.75 64.5029L313.523 64.465L313.985 64.2346L313.994 64.2321L314.465 63.9961L314.682 64.034L314.936 64.0743L315.284 64.1315L315.877 64.2321H315.887L317.516 64.5035L389.139 76.4152Z" fill="#931F26"/>
<path d="M400.214 64.2324C400.214 64.3218 400.214 64.4144 400.205 64.5038H313.996V63.9609H400.205C400.214 64.0504 400.214 64.1429 400.214 64.2324Z" fill="#931F26"/>
<path d="M389.139 52.0477L317.497 63.9631L315.877 64.2345H315.868L315.284 64.332L314.936 64.3892H314.927L314.691 64.4302L314.465 64.4681L314.004 64.2345H313.994L313.523 63.9985L313.74 63.9631L313.994 63.9196L314.343 63.8625L314.936 63.765V63.7625L316.574 63.491L388.189 51.5781C388.358 51.6539 388.518 51.7328 388.669 51.8117C388.828 51.8905 388.989 51.9688 389.139 52.0477Z" fill="#931F26"/>
<path d="M357.919 42.8553L316.575 63.4905L315.633 63.9626H315.624L315.285 64.1334L315.087 64.234L314.937 64.3073L314.815 64.3694L314.005 64.234H313.995L313.186 64.0986L313.317 64.0334L313.458 63.9657V63.9632L313.656 63.8626L313.995 63.6942L314.004 63.6918L314.936 63.2253L356.289 42.582C356.563 42.6255 356.835 42.6715 357.109 42.7181C357.382 42.7603 357.655 42.8069 357.919 42.8553Z" fill="#931F26"/>
<path d="M313.524 73.0303C337.305 73.0303 356.583 68.465 356.583 62.8335C356.583 57.202 337.305 52.6367 313.524 52.6367C289.743 52.6367 270.465 57.202 270.465 62.8335C270.465 68.465 289.743 73.0303 313.524 73.0303Z" fill="#931F26"/>
<path d="M313.959 23.2969C291.332 23.2969 272.988 39.942 272.988 60.4741V61.5573C286.194 73.5411 343.315 74.1181 354.93 61.4132V60.4748C354.93 39.9414 336.587 23.2969 313.959 23.2969Z" fill="#FFDFE0"/>
<path d="M335.999 29.1445C336.702 29.4979 337.373 29.8886 338.014 30.3116C353.28 40.3916 347.397 64.2032 329.293 66.8367C310.359 69.5907 285.056 67.7156 273.066 61.6262C286.41 73.5453 343.337 74.0975 354.931 61.4163V60.4778C354.93 47.3096 347.379 35.7494 335.999 29.1445Z" fill="#FAC9CA"/>
<path d="M309.092 53.3136C320.159 47.39 326.365 37.4225 322.954 31.0506C319.543 24.6788 307.807 24.3153 296.741 30.239C285.674 36.1626 279.468 46.1301 282.879 52.502C286.289 58.8739 298.026 59.2373 309.092 53.3136Z" fill="#FAC9CA"/>
<path d="M315.79 31.3225C316.983 34.156 313.962 38.133 309.041 40.2056C304.121 42.2783 299.164 41.6615 297.971 38.8286C296.777 35.9951 299.798 32.0181 304.72 29.9455C309.641 27.8728 314.597 28.489 315.79 31.3225ZM294.81 36.4473C295.459 37.3038 294.943 38.787 293.658 39.759C292.372 40.7317 290.805 40.8255 290.157 39.969C289.509 39.1125 290.025 37.6293 291.31 36.6572C292.595 35.6846 294.162 35.5908 294.81 36.4473Z" fill="#FFDFE0"/>
<path d="M255.766 49.063C255.766 47.8009 257.812 46.7773 260.337 46.7773C262.862 46.7773 264.908 47.8009 264.908 49.063C264.908 50.3251 262.862 51.3487 260.337 51.3487C257.813 51.3487 255.766 50.3251 255.766 49.063Z" fill="white"/>
<path d="M256.535 49.0653C256.535 48.015 258.238 47.1641 260.338 47.1641C262.438 47.1641 264.14 48.015 264.14 49.0653C264.14 50.1156 262.438 50.9665 260.338 50.9665C258.238 50.9665 256.535 50.1156 256.535 49.0653Z" fill="#FFD461"/>
<path d="M263.46 47.9805C263.631 48.1966 263.732 48.4308 263.732 48.6774C263.732 49.7277 262.03 50.5786 259.93 50.5786C258.634 50.5786 257.493 50.2531 256.807 49.7587C257.363 50.4631 258.73 50.963 260.337 50.963C262.437 50.963 264.139 50.1121 264.139 49.0618C264.139 48.6593 263.886 48.2873 263.46 47.9805Z" fill="#EBD248"/>
<path d="M236.422 58.0229C236.422 56.6664 238.621 55.5664 241.334 55.5664C244.047 55.5664 246.247 56.6658 246.247 58.0229C246.247 59.3794 244.047 60.4794 241.334 60.4794C238.621 60.4788 236.422 59.3788 236.422 58.0229Z" fill="white"/>
<path d="M241.336 60.0661C243.593 60.0661 245.423 59.1515 245.423 58.0233C245.423 56.8951 243.593 55.9805 241.336 55.9805C239.08 55.9805 237.25 56.8951 237.25 58.0233C237.25 59.1515 239.08 60.0661 241.336 60.0661Z" fill="#FFD461"/>
<path d="M244.691 56.8594C244.875 57.0917 244.983 57.3432 244.983 57.6084C244.983 58.737 243.153 59.6519 240.897 59.6519C239.504 59.6519 238.278 59.3022 237.541 58.7705C238.139 59.5277 239.608 60.0649 241.335 60.0649C243.592 60.0649 245.421 59.15 245.421 58.0221C245.42 57.5886 245.148 57.1892 244.691 56.8594Z" fill="#EBD248"/>
<path d="M236.422 69.4431C236.422 67.9257 238.883 66.6953 241.917 66.6953C244.952 66.6953 247.413 67.9257 247.413 69.4431C247.413 70.9605 244.952 72.1909 241.917 72.1909C238.883 72.1909 236.422 70.9605 236.422 69.4431Z" fill="white"/>
<path d="M237.348 69.442C237.348 68.1799 239.394 67.1562 241.919 67.1562C244.444 67.1562 246.49 68.1799 246.49 69.442C246.49 70.7041 244.444 71.7277 241.919 71.7277C239.395 71.7277 237.348 70.7041 237.348 69.442Z" fill="#FFD461"/>
<path d="M245.672 68.1445C245.878 68.4048 246 68.6861 246 68.9824C246 70.2445 243.953 71.2681 241.428 71.2681C239.871 71.2681 238.499 70.8768 237.674 70.2824C238.343 71.1296 239.986 71.7302 241.919 71.7302C244.443 71.7302 246.49 70.7066 246.49 69.4445C246.49 68.9613 246.186 68.5141 245.672 68.1445Z" fill="#EBD248"/>
<path d="M263.003 82.1519C266.039 82.1519 268.499 80.9217 268.499 79.4041C268.499 77.8866 266.039 76.6562 263.003 76.6562C259.968 76.6562 257.508 77.8866 257.508 79.4041C257.508 80.9217 259.968 82.1519 263.003 82.1519Z" fill="white"/>
<path d="M258.432 79.399C258.432 78.1369 260.478 77.1133 263.003 77.1133C265.528 77.1133 267.574 78.1369 267.574 79.399C267.574 80.6611 265.528 81.6847 263.003 81.6847C260.478 81.6847 258.432 80.6611 258.432 79.399Z" fill="#FFD461"/>
<path d="M266.756 78.1016C266.962 78.3618 267.084 78.6432 267.084 78.9394C267.084 80.2015 265.037 81.2251 262.512 81.2251C260.955 81.2251 259.583 80.8338 258.758 80.2394C259.427 81.086 261.07 81.6872 263.002 81.6872C265.527 81.6872 267.574 80.6643 267.574 79.4016C267.574 78.9177 267.269 78.4705 266.756 78.1016Z" fill="#EBD248"/>
<path d="M289.602 83.908C289.602 82.3906 292.062 81.1602 295.097 81.1602C298.133 81.1602 300.593 82.3906 300.593 83.908C300.593 85.4253 298.133 86.6557 295.097 86.6557C292.062 86.6557 289.602 85.4253 289.602 83.908Z" fill="white"/>
<path d="M290.527 83.9107C290.527 82.6486 292.574 81.625 295.099 81.625C297.624 81.625 299.67 82.6486 299.67 83.9107C299.67 85.1728 297.624 86.1964 295.099 86.1964C292.574 86.1964 290.527 85.1734 290.527 83.9107Z" fill="#FFD461"/>
<path d="M298.852 82.6055C299.058 82.8657 299.178 83.1471 299.178 83.4433C299.178 84.7054 297.132 85.729 294.608 85.729C293.05 85.729 291.679 85.3377 290.854 84.7433C291.523 85.5905 293.166 86.1911 295.098 86.1911C297.623 86.1911 299.67 85.1682 299.67 83.9055C299.669 83.4216 299.365 82.975 298.852 82.6055Z" fill="#EBD248"/>
<path d="M323.912 83.447C323.912 81.9296 326.372 80.6992 329.408 80.6992C332.443 80.6992 334.903 81.9296 334.903 83.447C334.903 84.9644 332.442 86.1948 329.408 86.1948C326.373 86.1948 323.912 84.9644 323.912 83.447Z" fill="white"/>
<path d="M324.838 83.4458C324.838 82.1837 326.884 81.1602 329.409 81.1602C331.934 81.1602 333.981 82.1837 333.981 83.4458C333.981 84.7079 331.934 85.7315 329.409 85.7315C326.884 85.7315 324.838 84.7079 324.838 83.4458Z" fill="#FFD461"/>
<path d="M333.163 82.1445C333.368 82.4048 333.49 82.6861 333.49 82.9824C333.49 84.2451 331.443 85.2681 328.919 85.2681C327.361 85.2681 325.99 84.8768 325.164 84.2824C325.834 85.129 327.476 85.7302 329.409 85.7302C331.934 85.7302 333.98 84.7066 333.98 83.4445C333.979 82.9607 333.675 82.5135 333.163 82.1445Z" fill="#EBD248"/>
<path d="M363.121 81.3589C366.156 81.3589 368.616 80.1287 368.616 78.6111C368.616 77.0935 366.156 75.8633 363.121 75.8633C360.085 75.8633 357.625 77.0935 357.625 78.6111C357.625 80.1287 360.085 81.3589 363.121 81.3589Z" fill="white"/>
<path d="M358.549 78.6099C358.549 77.3478 360.595 76.3242 363.12 76.3242C365.645 76.3242 367.692 77.3478 367.692 78.6099C367.692 79.872 365.645 80.8956 363.12 80.8956C360.595 80.8956 358.549 79.8726 358.549 78.6099Z" fill="#FFD461"/>
<path d="M366.874 77.3086C367.079 77.5688 367.201 77.8502 367.201 78.1465C367.201 79.4086 365.154 80.4322 362.63 80.4322C361.072 80.4322 359.7 80.0409 358.875 79.4465C359.545 80.2937 361.187 80.8943 363.12 80.8943C365.644 80.8943 367.691 79.8707 367.691 78.6086C367.691 78.1254 367.386 77.6782 366.874 77.3086Z" fill="#EBD248"/>
<path d="M387.667 72.8393C390.703 72.8393 393.163 71.609 393.163 70.0914C393.163 68.5739 390.703 67.3438 387.667 67.3438C384.632 67.3438 382.172 68.5739 382.172 70.0914C382.172 71.609 384.632 72.8393 387.667 72.8393Z" fill="white"/>
<path d="M383.096 70.0865C383.096 68.8244 385.142 67.8008 387.667 67.8008C390.192 67.8008 392.238 68.8244 392.238 70.0865C392.238 71.3486 390.192 72.3722 387.667 72.3722C385.142 72.3722 383.096 71.3486 383.096 70.0865Z" fill="#FFD461"/>
<path d="M391.422 68.7891C391.628 69.0493 391.75 69.3307 391.75 69.6269C391.75 70.889 389.703 71.9126 387.178 71.9126C385.621 71.9126 384.249 71.5213 383.424 70.9269C384.093 71.7741 385.736 72.3747 387.668 72.3747C390.193 72.3747 392.24 71.3511 392.24 70.089C392.24 69.6052 391.935 69.1586 391.422 68.7891Z" fill="#EBD248"/>
<path d="M388.67 61.3232C391.502 61.3232 393.797 60.1753 393.797 58.7593C393.797 57.3432 391.502 56.1953 388.67 56.1953C385.839 56.1953 383.543 57.3432 383.543 58.7593C383.543 60.1753 385.839 61.3232 388.67 61.3232Z" fill="white"/>
<path d="M384.404 58.7573C384.404 57.5797 386.314 56.625 388.669 56.625C391.025 56.625 392.935 57.5797 392.935 58.7573C392.935 59.9349 391.025 60.8896 388.669 60.8896C386.314 60.8896 384.404 59.9349 384.404 58.7573Z" fill="#FFD461"/>
<path d="M392.172 57.5469C392.364 57.7897 392.477 58.0518 392.477 58.3289C392.477 59.5065 390.567 60.4611 388.212 60.4611C386.759 60.4611 385.479 60.0965 384.709 59.5413C385.333 60.3313 386.867 60.8922 388.669 60.8922C391.024 60.8922 392.934 59.9375 392.934 58.7599C392.934 58.3084 392.651 57.8916 392.172 57.5469Z" fill="#EBD248"/>
<path d="M363.938 49.3043C363.938 48.1502 365.808 47.2148 368.116 47.2148C370.423 47.2148 372.294 48.1502 372.294 49.3043C372.294 50.4583 370.423 51.3937 368.116 51.3937C365.808 51.3937 363.938 50.4583 363.938 49.3043Z" fill="white"/>
<path d="M364.641 49.3082C364.641 48.3486 366.197 47.5703 368.116 47.5703C370.036 47.5703 371.592 48.3486 371.592 49.3082C371.592 50.2678 370.036 51.0461 368.116 51.0461C366.197 51.0461 364.641 50.2678 364.641 49.3082Z" fill="#FFD461"/>
<path d="M370.971 48.3164C371.127 48.5139 371.219 48.7282 371.219 48.9537C371.219 49.9133 369.663 50.6915 367.743 50.6915C366.559 50.6915 365.516 50.394 364.889 49.9419C365.397 50.5859 366.647 51.0425 368.116 51.0425C370.036 51.0425 371.592 50.2642 371.592 49.3046C371.592 48.9369 371.361 48.5971 370.971 48.3164Z" fill="#EBD248"/>
<path d="M245.945 365.247L198.348 378.586L192.326 357.098L224.067 287.182L246.839 280.8L263.036 338.596L274.839 335.287L280.52 355.557L268.717 358.865L273.643 376.442L250.871 382.824L245.945 365.247ZM240.264 344.977L231.97 315.383L215.115 352.025L240.264 344.977ZM283.155 232.454C286.818 214.256 292.657 202.18 300.674 196.228C308.69 190.277 319.402 188.65 332.813 191.349C339.256 192.646 344.385 194.506 348.203 196.927C352.018 199.35 354.977 202.096 357.077 205.17C359.177 208.242 360.695 211.334 361.631 214.445C362.568 217.555 363.116 221.075 363.277 225.003C363.624 232.503 363.019 240.128 361.459 247.877C357.962 265.248 352.464 277.37 344.964 284.241C337.465 291.113 326.532 293.102 312.165 290.21C304.11 288.589 297.86 285.994 293.413 282.426C288.967 278.858 285.654 274.273 283.475 268.67C281.877 264.678 281.051 259.496 280.999 253.119C280.946 246.745 281.665 239.856 283.155 232.454ZM309.526 237.831C307.072 250.022 306.473 258.565 307.731 263.462C308.987 268.358 311.662 271.218 315.755 272.042C318.454 272.586 320.984 272.109 323.347 270.615C325.709 269.119 327.77 266.42 329.53 262.516C331.29 258.613 333.042 252.328 334.786 243.664C337.345 230.951 337.987 222.189 336.714 217.379C335.439 212.57 332.647 209.732 328.337 208.864C323.938 207.979 320.312 209.571 317.454 213.638C314.596 217.707 311.954 225.771 309.526 237.831ZM392.124 380.393L342.977 375.105L345.364 352.917L400.795 299.785L424.309 302.315L417.888 361.992L430.076 363.303L427.824 384.234L415.636 382.922L413.684 401.071L390.171 398.541L392.124 380.393ZM394.376 359.462L397.663 328.904L368.407 356.668L394.376 359.462Z" fill="#C52127"/>
<path d="M482.934 186.835L481.994 182.03C481.978 181.951 481.918 181.889 481.839 181.872L477.056 180.833C476.842 180.787 476.845 180.481 477.06 180.44L481.864 179.499C481.943 179.484 482.005 179.423 482.022 179.345L483.061 174.561C483.108 174.347 483.413 174.35 483.455 174.565L484.395 179.369C484.411 179.448 484.472 179.51 484.55 179.527L489.334 180.566C489.547 180.613 489.544 180.918 489.329 180.96L484.525 181.9C484.446 181.916 484.384 181.977 484.367 182.055L483.328 186.839C483.282 187.052 482.977 187.049 482.934 186.835ZM622.256 315.22L621.316 310.416C621.3 310.337 621.239 310.275 621.161 310.258L616.377 309.219C616.163 309.172 616.167 308.867 616.381 308.825L621.185 307.885C621.264 307.869 621.326 307.808 621.343 307.73L622.382 302.946C622.429 302.733 622.734 302.736 622.776 302.951L623.716 307.755C623.732 307.834 623.793 307.896 623.871 307.913L628.655 308.952C628.868 308.999 628.865 309.304 628.65 309.346L623.846 310.286C623.767 310.302 623.705 310.362 623.688 310.441L622.649 315.225C622.604 315.438 622.298 315.435 622.256 315.22ZM496.529 45.5261L495.588 40.7218C495.573 40.6429 495.512 40.5808 495.434 40.564L490.65 39.5249C490.436 39.4783 490.439 39.1727 490.654 39.1311L495.458 38.1908C495.537 38.1752 495.599 38.1144 495.616 38.0361L496.655 33.2523C496.702 33.0386 497.008 33.0417 497.049 33.2566L497.99 38.0609C498.005 38.1398 498.066 38.2019 498.144 38.2187L502.928 39.2578C503.142 39.3044 503.139 39.61 502.924 39.6516L498.119 40.592C498.04 40.6075 497.978 40.6684 497.962 40.7466L496.922 45.5304C496.876 45.7435 496.57 45.7404 496.529 45.5261ZM6.03738 295.789L5.09701 290.985C5.08148 290.906 5.02062 290.844 4.94236 290.827L0.15855 289.788C-0.0551128 289.742 -0.0520048 289.436 0.1629 289.394L4.9672 288.454C5.04608 288.439 5.10819 288.378 5.12496 288.299L6.16408 283.516C6.21067 283.302 6.51625 283.305 6.55787 283.52L7.49823 288.324C7.51376 288.403 7.57463 288.465 7.65289 288.482L12.4367 289.521C12.6504 289.568 12.6472 289.873 12.4323 289.915L7.62804 290.855C7.54916 290.871 7.48705 290.932 7.47028 291.01L6.43117 295.794C6.3852 296.007 6.07962 296.004 6.03738 295.789ZM151.927 221.058L150.987 216.254C150.971 216.175 150.91 216.113 150.832 216.096L146.048 215.057C145.835 215.011 145.838 214.705 146.053 214.663L150.857 213.723C150.936 213.708 150.998 213.647 151.015 213.568L152.054 208.785C152.1 208.571 152.406 208.574 152.448 208.789L153.388 213.593C153.404 213.672 153.464 213.734 153.543 213.751L158.327 214.79C158.54 214.837 158.537 215.142 158.322 215.184L153.518 216.124C153.439 216.14 153.377 216.201 153.36 216.279L152.321 221.063C152.274 221.276 151.969 221.273 151.927 221.058ZM121.87 91.8834L120.685 85.8313C120.666 85.7319 120.589 85.6536 120.49 85.6325L114.464 84.3232C114.195 84.2648 114.198 83.8797 114.469 83.8269L120.521 82.6419C120.62 82.6226 120.698 82.5456 120.719 82.4468L122.029 76.4202C122.087 76.1512 122.472 76.155 122.525 76.4251L123.71 82.4773C123.729 82.5766 123.806 82.6549 123.905 82.676L129.932 83.9853C130.201 84.0437 130.197 84.4288 129.927 84.4816L123.875 85.666C123.775 85.6853 123.697 85.7623 123.676 85.8611L122.367 91.8877C122.308 92.1573 121.923 92.1536 121.87 91.8834Z" fill="#FFD461"/>
<path d="M565.004 246.607C565.004 244.196 566.958 242.242 569.37 242.242C571.781 242.242 573.735 244.196 573.735 246.607C573.735 249.017 571.781 250.972 569.37 250.972C566.958 250.972 565.004 249.017 565.004 246.607ZM600.584 142.135C600.584 139.725 602.538 137.77 604.949 137.77C607.36 137.77 609.314 139.724 609.314 142.135C609.314 144.546 607.36 146.501 604.949 146.501C602.538 146.501 600.584 144.546 600.584 142.135ZM453.523 108.89C453.523 106.479 455.478 104.525 457.888 104.525C460.299 104.525 462.253 106.479 462.253 108.89C462.253 111.3 460.299 113.255 457.888 113.255C455.477 113.255 453.523 111.3 453.523 108.89ZM197.919 151.068C197.919 148.657 199.873 146.702 202.284 146.702C204.695 146.702 206.65 148.656 206.65 151.068C206.65 153.478 204.696 155.433 202.284 155.433C199.874 155.433 197.919 153.478 197.919 151.068ZM31.1465 169.859C31.1465 167.448 33.1011 165.493 35.5117 165.493C37.9222 165.493 39.8768 167.447 39.8768 169.859C39.8768 172.269 37.9228 174.224 35.5117 174.224C33.1005 174.224 31.1465 172.269 31.1465 169.859ZM187.96 20.1347C187.96 17.7242 189.914 15.7695 192.325 15.7695C194.735 15.7695 196.69 17.7235 196.69 20.1347C196.69 22.5459 194.736 24.4999 192.325 24.4999C189.914 24.4999 187.96 22.5452 187.96 20.1347Z" fill="#FFD0D2"/>
</g>
<defs>
<linearGradient id="paint0_linear_2438_405" x1="312.516" y1="104.047" x2="312.516" y2="409.296" gradientUnits="userSpaceOnUse">
<stop stop-color="#FFDADB"/>
<stop offset="1" stop-color="#FFF9F9" stop-opacity="0.58"/>
</linearGradient>
<clipPath id="clip0_2438_405">
<rect width="629" height="410" fill="white"/>
</clipPath>
</defs>
</svg>
