<svg width="681" height="594" viewBox="0 0 681 594" fill="none" xmlns="http://www.w3.org/2000/svg">
<path d="M515.846 36.2155L516.211 49.0836L111.137 61.8791L110.773 49.011C110.422 36.6608 120.533 26.3289 133.353 25.9231L492.011 14.5982C504.831 14.1924 515.496 23.8741 515.846 36.2155Z" fill="#FFD0D2"/>
<path fill-rule="evenodd" clip-rule="evenodd" d="M468.404 33.3498C468.629 35.6734 466.927 37.7398 464.603 37.9641C462.279 38.1887 460.213 36.4867 459.989 34.163C459.764 31.8391 461.466 29.7736 463.79 29.549C466.114 29.3241 468.179 31.0259 468.404 33.3498ZM482.43 32.9893C482.655 35.3132 480.953 37.3793 478.63 37.6039C476.305 37.8285 474.24 36.1264 474.015 33.8028C473.79 31.4789 475.492 29.4133 477.816 29.1888C480.14 28.9639 482.206 30.6654 482.43 32.9893ZM496.457 32.6291C496.681 34.953 494.979 37.0191 492.656 37.2437C490.331 37.4682 488.266 35.7662 488.041 33.4426C487.817 31.1187 489.518 29.0531 491.843 28.8285C494.166 28.6037 496.232 30.3052 496.457 32.6291Z" fill="#C52127"/>
<path d="M516.21 49.0859L522.161 260.394L522.525 273.262C522.876 285.612 512.765 295.944 499.945 296.35L141.287 307.675C128.467 308.08 117.802 298.399 117.452 286.057L117.087 273.189L111.137 61.8817L516.21 49.0859Z" fill="#F5EBEF"/>
<path opacity="0.5" d="M522.52 273.265C522.879 285.607 512.76 295.941 499.943 296.352L141.291 307.672C128.464 308.083 117.799 298.399 117.45 286.056L117.084 273.192L111.367 70.5859C175.304 75.6245 407.979 85.0031 517.144 82.2629L522.163 260.391L522.52 273.265Z" fill="#FFD0D2"/>
<path d="M82 533.111C82 506.804 668.579 505.077 679.838 535.247C690.704 564.364 573.878 601.026 517.658 591.462C461.438 581.898 393.911 572.124 339.444 572.5C284.976 572.876 82 549.357 82 533.111Z" fill="#FFC9CB" fill-opacity="0.32"/>
<path d="M611.292 66.0235C597.73 20.4941 551.5 -19.1369 539.182 9.92214C531.445 28.174 566.482 32.7525 583.32 59.0098C594.897 77.0635 616.416 83.2279 611.292 66.0235Z" fill="#FFD0D2" fill-opacity="0.4"/>
<path d="M573.18 62.3255C575.544 57.4489 571.385 50.5512 563.892 46.919C556.398 43.2868 548.407 44.2955 546.044 49.1721C543.68 54.0487 547.838 60.9464 555.332 64.5786C562.825 68.2109 570.816 67.2021 573.18 62.3255Z" fill="#FFD0D2" fill-opacity="0.4"/>
<path d="M87.3928 56.4702C91.5055 47.9854 84.2699 35.9839 71.2316 29.6641C58.1934 23.3443 44.2898 25.0994 40.1771 33.5842C36.0644 42.069 43.3001 54.0705 56.3383 60.3903C69.3766 66.71 83.2801 64.955 87.3928 56.4702Z" fill="#FFD0D2" fill-opacity="0.4"/>
<path d="M600.007 82.6113C602.84 76.4085 617.622 81.0672 612.981 88.7536C608.339 96.4402 598.545 85.8102 600.007 82.6113Z" fill="#FFD0D2" fill-opacity="0.4"/>
<path d="M34.273 491.48C15.372 491.48 0 476.101 0 457.199V136.626C0 117.729 15.372 102.354 34.273 102.354H572.526C591.428 102.354 606.8 117.729 606.8 136.626V457.2C606.8 476.101 591.428 491.48 572.526 491.48L34.273 491.48Z" fill="#E68184"/>
<path d="M593.445 136.655V457.199C593.445 468.766 584.059 478.091 572.552 478.091H34.2954C22.7281 478.091 13.3418 468.766 13.3418 457.199V136.655C13.3418 125.089 22.7281 115.701 34.2954 115.701H572.552C584.059 115.701 593.445 125.089 593.445 136.655Z" fill="#FFD0D2"/>
<path opacity="0.2" d="M504.163 112.387L56.0942 91.1398C40.0777 90.3816 26.4591 102.26 25.6788 117.685L24.8645 133.757L11.4471 397.671L10.6328 413.742C9.85192 429.157 22.1876 442.273 38.2041 443.032L486.272 464.279C502.288 465.037 515.907 453.159 516.688 437.734L517.502 421.662L530.919 157.748L531.734 141.676C532.514 126.262 520.178 113.146 504.163 112.387Z" fill="#FF8A8F"/>
<path d="M524.601 126.883L523.787 142.955L17.7314 118.964L18.5457 102.892C19.3263 87.4671 32.9447 75.5886 48.9614 76.3469L497.03 97.5943C513.046 98.3523 525.381 111.469 524.601 126.883Z" fill="#FA9598"/>
<path d="M523.786 142.956L510.368 406.869L509.554 422.941C508.773 438.367 495.155 450.245 479.138 449.487L31.0703 428.239C15.0538 427.481 2.71813 414.364 3.49898 398.95L4.31329 382.878L17.7307 118.965L523.786 142.956Z" fill="white"/>
<path opacity="0.25" d="M523.785 142.955L510.364 406.867L509.552 422.939C508.775 438.368 495.159 450.243 479.14 449.484L31.0693 428.234C15.0508 427.484 2.71998 414.367 3.49668 398.947L3.74694 394.054L412.173 413.421C428.192 414.18 441.808 402.304 442.594 386.875L443.407 370.803L455.157 139.705L523.785 142.955Z" fill="#FFD0D2"/>
<path opacity="0.25" fill-rule="evenodd" clip-rule="evenodd" d="M60.7852 98.5282C60.7852 102.113 57.8793 105.019 54.2948 105.019C50.7101 105.019 47.8037 102.113 47.8037 98.5282C47.8037 94.9429 50.7103 92.0371 54.2948 92.0371C57.8793 92.0374 60.7852 94.9429 60.7852 98.5282Z" fill="#931F26"/>
<path fill-rule="evenodd" clip-rule="evenodd" d="M59.3789 96.797C59.3789 100.381 56.4731 103.288 52.8886 103.288C49.3033 103.288 46.3975 100.382 46.3975 96.797C46.3975 93.2122 49.3033 90.3066 52.8886 90.3066C56.4731 90.3064 59.3789 93.2122 59.3789 96.797Z" fill="#C52127"/>
<path opacity="0.25" fill-rule="evenodd" clip-rule="evenodd" d="M82.2754 100.05C82.2754 103.634 79.3696 106.54 75.7851 106.54C72.2003 106.54 69.2939 103.634 69.2939 100.05C69.2939 96.4644 72.2006 93.5586 75.7851 93.5586C79.3696 93.5586 82.2754 96.4644 82.2754 100.05Z" fill="#931F26"/>
<path fill-rule="evenodd" clip-rule="evenodd" d="M80.8691 98.3185C80.8691 101.903 77.9633 104.81 74.3788 104.81C70.7935 104.81 67.8877 101.903 67.8877 98.3185C67.8877 94.7339 70.7935 91.8281 74.3788 91.8281C77.9633 91.8281 80.8691 94.7339 80.8691 98.3185Z" fill="#C52127"/>
<path opacity="0.25" fill-rule="evenodd" clip-rule="evenodd" d="M103.766 101.571C103.766 105.156 100.86 108.062 97.2753 108.062C93.6908 108.062 90.7842 105.156 90.7842 101.571C90.7842 97.9859 93.6908 95.0801 97.2753 95.0801C100.86 95.0801 103.766 97.9859 103.766 101.571Z" fill="#931F26"/>
<path fill-rule="evenodd" clip-rule="evenodd" d="M102.359 99.8399C102.359 103.424 99.4536 106.331 95.8691 106.331C92.2838 106.331 89.3779 103.424 89.3779 99.8399C89.3779 96.2552 92.2838 93.3496 95.8691 93.3496C99.4536 93.3496 102.359 96.2554 102.359 99.8399Z" fill="#C52127"/>
<path d="M548.852 147.328C549.578 147.799 550.677 148.269 550.717 148.477C550.757 148.685 541.92 166.347 541.168 166.708C540.417 167.069 536.333 166.421 536.556 164.868C536.778 163.316 548.852 147.328 548.852 147.328Z" fill="#D66D53"/>
<path d="M521.504 185.993C540.811 193.433 543.783 205.128 545.367 208.872C545.367 208.872 592.807 131.593 552.37 145.143C549.218 146.199 542.014 164.634 521.504 185.993Z" fill="#FF9C83"/>
<path d="M547.887 522.879L548.211 548.879L563.557 549.348L566.19 522.94L547.887 522.879Z" fill="#D7A28E"/>
<path d="M563.836 541.244C557.879 546.315 548.433 542.904 548.059 537.941C547.759 533.961 542.211 542.205 536.59 550.049C532.88 555.225 509.776 555.131 513.83 566.904C516.188 573.754 556.35 567.332 565.884 559.668C567.664 558.237 567.301 538.265 563.836 541.244Z" fill="#121212"/>
<path d="M565.889 559.666C556.346 567.33 516.192 573.75 513.831 566.899C513.555 566.111 513.407 565.378 513.367 564.687C534.165 571.199 560.845 560.066 562.818 556.328C564.111 553.891 564.607 546.287 564.806 541.008C567.348 542.168 567.481 558.379 565.889 559.666Z" fill="#1C2959"/>
<path d="M532.387 284.338H600.295L567.528 532.78C567.528 532.78 560.078 541.907 544.76 532.175L532.387 284.338Z" fill="#121535"/>
<path opacity="0.5" d="M564.967 397.35C559.765 392.296 536.741 392.168 544.899 396.079C553.057 399.99 567.442 399.755 564.967 397.35ZM560.917 401.197C552.081 399.993 543.049 405.326 548.488 406.244C553.926 407.161 564.284 401.656 560.917 401.197ZM600.29 284.342L583.307 413.155C579.882 380.738 563.867 313.732 556.609 284.342H600.29Z" fill="#3D3C3C"/>
<path d="M618.165 524.405L621.219 550.227L636.529 549.081L636.373 522.543L618.165 524.405Z" fill="#D7A28E"/>
<path d="M635.956 540.991C630.565 546.66 620.813 544.26 619.919 539.363C619.203 535.438 614.552 544.218 609.785 552.609C606.64 558.147 583.654 560.48 588.922 571.762C591.987 578.326 631.252 567.721 639.928 559.098C641.547 557.488 639.088 537.665 635.956 540.991Z" fill="#121212"/>
<path d="M639.932 559.098C631.247 567.722 591.989 578.324 588.921 571.759C588.564 571.004 588.34 570.291 588.228 569.608C609.594 573.899 634.957 560.025 636.527 556.101C637.557 553.542 637.251 545.927 636.894 540.656C639.545 541.543 641.38 557.65 639.932 559.098Z" fill="#1C2959"/>
<path d="M564.215 291.692L631.25 280.838L638.615 531.323C638.615 531.323 629.626 538.399 615.864 535.3L564.215 291.692Z" fill="#121535"/>
<path opacity="0.5" d="M638.62 531.324C638.62 531.324 635.857 534.341 630.118 535.299C636.836 472.871 619.098 328.236 613.267 283.75L631.249 280.834L638.62 531.324ZM595.241 399.621C599.433 393.702 622.046 389.372 614.739 394.707C607.432 400.042 593.246 402.437 595.241 399.621ZM599.925 402.665C608.393 399.867 618.246 403.461 613.067 405.356C607.888 407.251 596.699 403.73 599.925 402.665Z" fill="#3D3C3C"/>
<path d="M530.956 288.562C539.458 297.064 632.239 290.834 636.529 285.473C640.818 280.111 607.444 143.114 604.558 141.273C601.673 139.432 575.344 128.923 552.37 145.143C542.343 150.213 530.956 288.562 530.956 288.562Z" fill="#FF9C83"/>
<path opacity="0.5" d="M636.531 285.477C632.239 290.829 539.463 297.068 530.961 288.566C530.961 288.566 542.348 150.211 552.369 145.145C555.743 142.759 559.199 140.955 562.634 139.62C562.97 146.847 563.99 163.413 566.345 166.97C569.373 171.558 574.266 171.109 574.266 171.109C574.266 171.109 593.167 171.108 593.736 137.611C599.516 138.855 603.533 140.619 604.563 141.271C607.447 143.116 640.823 280.115 636.531 285.477Z" fill="#CD6A51"/>
<path d="M549.877 86.829C549.877 86.829 545.702 91.497 547.161 95.6352C548.62 99.7728 572.019 104.89 572.019 104.89L575.662 122.407C575.662 122.407 579.545 125.603 580.963 119.675C580.963 119.675 585.762 119.514 584.157 111.376C584.157 111.376 586.472 108.297 587.827 102.135C587.31 100.219 588.155 97.3157 585.995 93.2039C583.836 89.0922 561.026 83.1156 549.877 86.829Z" fill="#1C2959"/>
<path d="M566.946 113.845L565.102 139.758C565.102 139.758 578.435 145.664 583.437 134.154L578.897 109.221L566.946 113.845Z" fill="#D7A28E"/>
<path d="M575.54 119.068C575.54 119.068 575.563 136.012 565.094 138.776L566.234 125.211L575.54 119.068Z" fill="#CE9784"/>
<path d="M579.65 96.1233C579.588 97.5466 579.281 112.194 579.281 112.194L579.281 112.203C576.765 121.908 570.46 129.64 559.823 128.737C548.965 127.823 545.042 108.676 548.728 90.4271C557.921 86.0438 572.875 93.0738 572.875 93.0738C574.32 97.4929 577.361 102.394 579.65 96.1233Z" fill="#D7A28E"/>
<path d="M576.194 94.373C576.194 94.373 574.641 110.981 572.586 115.384C570.532 119.787 570.532 116.264 563.928 114.65C557.324 113.036 547.784 114.65 549.399 119.053C551.013 123.455 552.187 130.647 564.221 130.06C576.255 129.473 579.631 109.22 579.631 109.22L579.772 96.5418L576.194 94.373Z" fill="#1C2959"/>
<path d="M583.14 132.73C583.14 132.73 578.523 140.134 571.349 139.362C565.479 138.729 565.398 135.389 565.398 135.389C565.398 135.389 564.112 138.231 563.764 139.028C563.886 140.222 564.523 145.654 571.932 145.365C583.257 144.923 586.925 136.836 586.925 136.836L583.14 132.73Z" fill="#D66D53"/>
<path d="M590.02 99.085C590.02 99.085 594.965 76.6776 580.325 71.9528C565.684 67.2282 555.076 73.1156 555.076 73.1156L547.589 83.4355C547.589 83.4355 577.791 89.0488 590.02 99.085Z" fill="#EB962C"/>
<path opacity="0.5" d="M590.03 99.0968C577.787 89.0555 547.59 83.4378 547.59 83.4378L555.082 73.1168C555.082 73.1168 559.956 70.4094 567.661 70.1348C560.768 74.24 557.925 81.9884 560.349 83.2708C563.797 85.1094 584.105 91.6957 586.852 88.8975C588.914 86.8446 587.717 80.3883 587.022 76.7013C593.158 84.8626 590.03 99.0968 590.03 99.0968Z" fill="#D88225"/>
<path d="M569.855 84.063C569.855 84.063 572.832 73.5916 579.557 71.7247C579.557 71.7247 570.548 68.7154 562.392 70.3214C555.46 71.6863 551.624 82.4492 551.624 82.4492L569.855 84.063Z" fill="#EB962C"/>
<path d="M556.37 77.7532L569.673 79.1967C569.673 79.1967 574.251 69.487 580.27 71.9976L576.957 67.7427L568.004 66.8047L561.207 70.2969L556.413 76.8676L556.37 77.7532Z" fill="#D88225"/>
<path d="M562.006 70.2325C562.006 70.2325 570.311 71.073 571.894 71.2192C571.717 71.4972 569.223 75.9349 569.104 77.555L557.276 76.6616C557.276 76.6616 565.74 76.6087 566.88 75.6401C568.021 74.6715 569.042 73.888 567.785 72.6684C566.528 71.4482 562.006 70.2325 562.006 70.2325ZM562.987 69.8025C562.987 69.8025 571.819 70.8118 571.966 70.7439C572.113 70.6754 576.498 68.0066 576.415 67.9978C576.333 67.9892 568.274 67.0605 568.274 67.0605L562.987 69.8025Z" fill="#EB962C"/>
<path d="M572.117 87.2676C572.117 87.2676 590.683 95.594 591.052 98.4521C591.42 101.31 586.949 104.329 586.949 104.329L587.561 102.019C587.561 102.019 578.35 95.0439 573.873 93.1648C569.396 91.2859 572.117 87.2676 572.117 87.2676Z" fill="#D88225"/>
<path d="M577.873 109.009C576.078 106.529 577.781 99.2936 579.69 96.9015C580.976 95.291 585.722 95.4904 587.064 99.2095C588.472 103.11 585.1 107.772 581.336 109.494C580.102 110.059 578.565 109.965 577.873 109.009Z" fill="#D7A28E"/>
<path d="M580.171 104.044C580.462 102.288 584.821 99.4885 585.095 100.102C585.095 100.102 582.029 102.201 582.137 103.16C582.246 104.119 583.232 104.268 582.254 104.828C581.276 105.388 579.931 105.49 580.171 104.044Z" fill="#1C2959"/>
<path d="M540.552 85.4436C540.552 85.4436 540.234 82.8134 541.362 81.9672C542.489 81.1208 554.117 78.4815 566.085 81.8129C578.052 85.1443 576.653 92.9489 576.653 92.9489L576.195 94.3724L564.887 86.6337L540.552 85.4436Z" fill="#D88225"/>
<path d="M547.194 90.7404C547.194 90.7404 561.453 87.783 576.194 94.3732C576.194 94.3732 577.69 86.0794 566.127 82.9433C557.434 80.5855 542.779 80.4841 540.795 83.8372C538.811 87.1912 547.194 90.7404 547.194 90.7404Z" fill="#FEAA32"/>
<path d="M560.783 101.952C559.965 102.922 560.315 106.373 559.504 106.884C558.693 107.395 557.118 106.557 557.175 107.8C557.232 109.043 559.757 110.881 560.035 110.4C560.314 109.92 558.93 108.554 558.93 108.554C558.93 108.554 560.175 108.409 560.682 107.624C561.19 106.838 561.515 101.084 560.783 101.952ZM569.332 101.763C569.163 102.721 568.221 103.376 567.247 103.189C566.29 103.003 565.634 102.077 565.821 101.104C566.005 100.163 566.877 99.5354 567.822 99.6687C567.651 99.8219 567.51 100.03 567.466 100.282C567.355 100.853 567.742 101.408 568.313 101.518C568.718 101.578 569.11 101.431 569.33 101.128C569.379 101.322 569.372 101.544 569.332 101.763ZM558.513 93.9869C557.934 93.6021 557.299 93.427 556.64 93.2922C555.981 93.1651 555.279 93.0697 554.607 93.0061C553.255 92.8889 551.927 92.8554 550.571 93.3443C550.467 93.3798 550.122 92.9179 550.215 92.8256C550.782 92.2445 551.531 91.8142 552.325 91.5754C553.119 91.3301 553.954 91.2598 554.762 91.3267C555.574 91.3951 556.349 91.5821 557.108 91.92C557.857 92.2566 558.596 92.8028 559.005 93.558C559.076 93.6858 558.602 94.045 558.513 93.9869ZM554.941 100.207C554.772 101.166 553.829 101.821 552.856 101.633C551.899 101.447 551.242 100.522 551.43 99.5483C551.613 98.6075 552.485 97.9799 553.43 98.1134C553.26 98.2664 553.118 98.4744 553.075 98.7265C552.963 99.2973 553.35 99.852 553.922 99.9627C554.326 100.023 554.718 99.8753 554.939 99.5727C554.987 99.7662 554.981 99.9884 554.941 100.207ZM570.797 95.2745C570.219 94.8897 569.584 94.7141 568.924 94.5792C568.265 94.4524 567.564 94.357 566.892 94.2935C565.539 94.176 564.212 94.1425 562.856 94.6314C562.752 94.6672 562.406 94.205 562.5 94.113C563.067 93.5318 563.816 93.1013 564.609 92.8627C565.404 92.6174 566.239 92.5468 567.046 92.614C567.858 92.6827 568.634 92.8692 569.393 93.2076C570.141 93.544 570.88 94.0904 571.29 94.8453C571.361 94.9729 570.887 95.3324 570.797 95.2745Z" fill="#1C2959"/>
<path d="M556.148 120.17C556.83 120.301 557.483 120.217 558.143 120.085C558.8 119.946 559.484 119.762 560.128 119.561C561.42 119.144 562.656 118.66 563.717 117.683C563.799 117.61 564.296 117.902 564.246 118.023C563.949 118.779 563.425 119.466 562.787 119.994C562.15 120.528 561.407 120.917 560.637 121.168C559.861 121.42 559.074 121.549 558.244 121.531C557.423 121.511 556.53 121.294 555.86 120.757C555.745 120.667 556.043 120.152 556.148 120.17Z" fill="#F2F6F9"/>
<path d="M570.135 184.349C579.655 197.212 563.425 264.686 569.276 293.29C549.143 292.801 530.325 291.659 529.652 289.743C528.276 285.838 538.521 206.1 538.521 206.1C554.312 180.564 554.156 143.407 554.156 143.407C554.156 143.407 558.318 139.278 561.212 140.196C564.098 141.103 560.846 180.564 563.516 181.023C564.679 181.227 567.814 181.212 570.135 184.349Z" fill="#FEAA32"/>
<path d="M569.281 293.296C549.147 292.807 530.329 291.665 529.656 289.748C528.953 287.76 531.267 266.129 533.703 245.363C550.381 250.909 562.084 240.755 562.716 223.048C563.246 208.522 548.678 202.589 541.614 200.57C548.811 186.37 551.879 169.886 553.184 158.285C555.356 162.495 558.465 167.205 562.379 169.744C562.39 176.033 562.593 180.865 563.521 181.028C564.683 181.232 567.813 181.212 570.137 184.352C579.658 197.216 563.429 264.691 569.281 293.296Z" fill="#EB962C"/>
<path d="M639.534 285.471C638.424 290.146 627.821 291.119 618.412 292.74C614.752 293.372 600.847 293.658 585.138 293.525C579.195 264.283 577.882 204.225 582.103 188.424C582.848 185.635 587.045 183.755 590.052 182.308C595.016 173.907 595.862 137.688 595.862 137.688C597.167 136.098 604.425 140.237 604.425 140.237C596.861 198.455 625.527 212.905 625.527 212.905C625.527 212.905 631.361 245.52 635.505 267.036C635.94 269.298 639.532 269.444 639.594 272.311C639.627 273.824 637.357 275.7 637.569 277.013C638.42 282.28 640.78 280.224 639.534 285.471Z" fill="#FEAA32"/>
<path d="M639.539 285.477C638.427 290.146 627.825 291.125 618.416 292.746C614.757 293.378 600.852 293.663 585.143 293.531C579.199 264.284 577.884 204.23 582.105 188.429C582.737 186.044 597.126 191.967 600.296 217.656C602.02 231.632 598.507 242.203 604.695 248.391C608.528 252.224 622.035 247.708 631.444 245.394C631.944 248.095 632.443 250.838 632.953 253.539C621.913 260.654 604.012 268.636 609.761 268.81C617.774 269.034 632.453 263.764 628.783 266.516C625.114 269.268 597.07 272.245 604.328 275.232C611.576 278.208 624.42 279.105 617.998 280.839C611.576 282.571 589.332 280.961 598.731 285.548C607.468 289.809 629.099 288.902 639.834 282.408C639.956 283.051 639.895 283.958 639.539 285.477Z" fill="#EB962C"/>
<path d="M531.615 257.211C537.179 261.465 548.146 260.422 548.146 262.257C548.146 264.092 551.358 272.35 548.146 272.579C544.935 272.808 530.565 272.414 529.723 270.547C528.88 268.68 530.717 256.525 531.615 257.211ZM633.307 255.625C627.743 259.878 615.731 258.297 615.731 260.132C615.731 261.967 612.52 270.224 615.731 270.453C618.942 270.683 634.717 269.604 635.56 267.737C636.403 265.87 634.205 254.939 633.307 255.625Z" fill="#D88225"/>
<path d="M609.856 214.248L596.653 213.033C595.287 206.448 592.678 200.331 589.11 194.888L597.608 184.676C598.204 183.958 598.156 182.904 597.496 182.244L586.433 171.18C585.772 170.52 584.717 170.472 584 171.069L573.788 179.576C568.345 175.998 562.228 173.399 555.653 172.022L554.438 158.82C554.353 157.891 553.573 157.18 552.64 157.18H536.994C536.06 157.18 535.281 157.891 535.195 158.82L533.98 172.022C527.395 173.399 521.289 175.998 515.835 179.576L505.623 171.069C504.906 170.472 503.851 170.52 503.19 171.18L492.127 182.243C491.467 182.903 491.419 183.958 492.017 184.676L500.524 194.888C496.945 200.331 494.346 206.458 492.97 213.033L479.768 214.248C478.838 214.334 478.127 215.113 478.127 216.046V231.693C478.127 232.626 478.838 233.405 479.767 233.491L492.97 234.706C494.346 241.291 496.945 247.418 500.524 252.851L492.016 263.073C491.419 263.791 491.467 264.846 492.128 265.506L503.191 276.561C503.851 277.22 504.905 277.268 505.622 276.671L515.835 268.173C515.836 268.173 515.837 268.173 515.839 268.173C521.277 271.739 527.387 274.346 533.98 275.717L534.187 288.884C534.203 289.87 535.007 290.661 535.993 290.661H553.641C554.627 290.661 555.431 289.87 555.447 288.884L555.653 275.717C558.61 275.105 569.324 272.648 573.789 268.173L584.001 276.671C584.718 277.268 585.772 277.22 586.433 276.561L597.497 265.505C598.157 264.845 598.206 263.791 597.609 263.073L589.11 252.851C592.678 247.418 595.288 241.291 596.654 234.706L609.856 233.491C610.786 233.405 611.497 232.626 611.497 231.693V216.046C611.496 215.113 610.785 214.334 609.856 214.248ZM544.806 251.393C529.637 251.393 517.343 239.089 517.343 223.92C517.343 208.752 529.637 196.458 544.806 196.458C559.985 196.458 572.269 208.752 572.269 223.92C572.269 239.089 559.985 251.393 544.806 251.393Z" fill="#C52127"/>
<path d="M603.782 217.315L593.66 216.376L593.118 213.767C591.872 207.762 589.506 202.083 586.093 196.864L584.622 194.624L591.141 186.796C592.631 184.999 592.513 182.362 590.861 180.71L587.963 177.811C586.31 176.159 583.673 176.042 581.877 177.532L574.039 184.06L571.809 182.588C566.617 179.184 560.938 176.809 554.915 175.554L552.306 175.004L551.367 164.89C551.159 162.561 549.208 160.791 546.87 160.791H542.762C540.423 160.791 538.482 162.561 538.265 164.89L537.335 175.004L534.716 175.554C528.703 176.809 523.023 179.175 517.813 182.588L515.583 184.06L507.746 177.532C505.949 176.042 503.313 176.159 501.669 177.811L498.762 180.71C497.109 182.362 496.992 184.999 498.491 186.796L505.01 194.633L503.538 196.864C500.134 202.047 497.768 207.735 496.504 213.767L495.963 216.385L485.84 217.315C483.52 217.523 481.741 219.473 481.741 221.812V225.92C481.741 228.259 483.52 230.2 485.84 230.417L495.963 231.347L496.504 233.966C497.768 240.006 500.134 245.686 503.538 250.86L505.01 253.099L498.482 260.946C496.992 262.742 497.109 265.379 498.762 267.022L501.669 269.93C503.313 271.573 505.949 271.699 507.746 270.201L515.566 263.7L518.22 265.406C523.313 268.684 528.866 270.959 534.717 272.178L537.543 272.765L537.706 282.598C537.742 285.063 539.746 287.05 542.211 287.05H547.421C549.886 287.05 551.891 285.063 551.936 282.598L552.089 272.765L554.925 272.178C560.604 271.004 568.279 268.575 571.232 265.614L573.562 263.284L581.878 270.201C583.674 271.7 586.311 271.573 587.963 269.93L590.862 267.022C592.514 265.37 592.64 262.733 591.142 260.946L584.622 253.099L586.094 250.869C589.507 245.659 591.873 239.979 593.119 233.966L593.661 231.347L603.783 230.417C606.112 230.2 607.882 228.259 607.882 225.92V221.812C607.881 219.473 606.112 217.523 603.782 217.315ZM541.443 254.823C527.032 253.298 515.447 241.722 513.912 227.311C511.853 207.97 527.655 191.672 546.842 192.909C562.301 193.902 574.834 206.444 575.818 221.893C577.037 241.072 560.757 256.864 541.443 254.823Z" fill="#FFE0D8"/>
<path d="M542.675 243.505C533.544 242.538 526.204 235.204 525.232 226.073C523.927 213.819 533.939 203.493 546.096 204.276C555.89 204.906 563.831 212.852 564.454 222.64C565.226 234.792 554.912 244.798 542.675 243.505Z" fill="#C52127"/>
<path d="M542.672 243.507C536.836 242.888 531.734 239.669 528.567 235.037C531.149 236.782 534.167 237.924 537.412 238.273C549.65 239.564 559.96 229.559 559.192 217.409C558.957 213.798 557.736 210.448 555.79 207.613C560.701 210.936 564.059 216.414 564.452 222.642C565.229 234.793 554.91 244.798 542.672 243.507Z" fill="#C52127"/>
<path d="M544.806 187.523C524.713 187.523 508.413 203.814 508.413 223.916C508.413 244.019 524.713 260.319 544.806 260.319C564.909 260.319 581.209 244.019 581.209 223.916C581.209 203.813 564.909 187.523 544.806 187.523ZM544.806 251.389C529.637 251.389 517.343 239.085 517.343 223.916C517.343 208.748 529.637 196.453 544.806 196.453C559.985 196.453 572.269 208.748 572.269 223.916C572.269 239.085 559.985 251.389 544.806 251.389Z" fill="#C52127"/>
<path d="M647.292 189.382C629.177 193.174 621.379 203.644 619.442 206.722L619.268 206.406C619.268 206.406 602.897 178.352 604.426 140.236C604.426 140.236 632.256 167.577 647.292 189.382Z" fill="#FF9C83"/>
<path opacity="0.5" d="M634.737 193.678C635.125 192.414 635.155 191.201 634.737 190.059C631.577 181.425 613.472 152.963 606.795 142.596C613.819 149.681 634.9 171.414 647.296 189.387C642.383 190.416 638.224 191.935 634.737 193.678Z" fill="#CD6A51"/>
<path d="M614.9 150.213C614.25 150.863 613.218 151.589 613.218 151.818C613.218 152.048 625.757 169.021 626.598 169.25C627.439 169.48 631.491 167.951 630.956 166.345C630.42 164.739 614.9 150.213 614.9 150.213Z" fill="#D66D53"/>
<path d="M496.438 195.545C496.438 195.545 493.85 192.6 498.756 190.686C503.663 188.772 505.56 191.746 504.582 193.144C503.604 194.541 503.081 195.511 500.187 195.341C500.187 195.341 502.387 196.573 501.524 198.304C500.661 200.034 498.778 200.423 498.778 200.423C498.778 200.423 500.958 201.113 500.971 202.101C500.984 203.088 499.377 204.993 496.865 205.069C496.865 205.069 498.947 206.574 496.587 208.503C494.227 210.431 494.11 209.445 494.11 209.445L492.93 212.806C492.93 212.806 489.096 209.827 492.522 205.319C492.522 205.319 490.604 202.198 494.67 200.802C494.67 200.801 491.64 196.786 496.438 195.545Z" fill="#D7A28E"/>
<path d="M496.479 195.571C496.536 195.728 497.377 195.52 498.414 195.482C499.453 195.428 500.29 195.575 500.342 195.438C500.408 195.289 499.533 194.869 498.39 194.927C497.245 194.972 496.422 195.444 496.479 195.571ZM494.561 200.761C494.594 200.835 494.829 200.806 495.2 200.774C495.572 200.741 496.088 200.71 496.664 200.682C497.817 200.626 498.767 200.578 498.778 200.423C498.79 200.273 497.835 200.069 496.637 200.127C496.038 200.156 495.495 200.253 495.115 200.391C494.733 200.528 494.53 200.696 494.561 200.761ZM492.522 205.319C492.566 205.391 492.806 205.321 493.188 205.261C493.573 205.205 494.111 205.17 494.717 205.179C495.929 205.193 496.931 205.303 496.963 205.149C496.999 205.004 496.014 204.64 494.722 204.623C494.079 204.613 493.486 204.716 493.083 204.883C492.677 205.054 492.485 205.262 492.522 205.319Z" fill="#CE9784"/>
<path d="M655.925 231.463C651.512 238.497 586.714 278.582 586.714 278.582C586.714 278.582 579.26 284.22 577.78 282.057C576.405 280.032 577.701 279.621 578.346 279.089C577.509 279.648 574.465 281.381 573.369 279.439C572.284 277.528 574.134 275.784 574.968 275.124C573.921 275.812 570.296 277.947 569.149 275.681C567.969 273.364 571.918 270.892 572.527 270.494C571.967 270.809 567.474 273.287 566.425 270.915C565.773 269.448 572.07 263.319 576.513 260.486C576.399 259.551 572.376 253.675 575.284 253.403C578.182 253.131 584.762 257.697 584.762 257.697L626.5 220.513L618.466 206.464C620.297 203.322 627.737 192.595 645.713 188.191C654.475 201.037 659.438 225.867 655.925 231.463Z" fill="#D7A28E"/>
<path d="M655.924 231.465C655.101 232.778 652.166 235.244 647.947 238.385C655.178 221.494 644.662 201.909 637.054 191.09C639.627 189.973 642.501 188.988 645.717 188.195C654.475 201.036 659.437 225.868 655.924 231.465Z" fill="#CE9784"/>
<path d="M616.603 204.953C616.603 204.953 618.579 208.369 620.065 208.726C621.552 209.084 629.482 197.692 636.909 194.863C644.335 192.034 649.228 192.263 648.923 190.275C648.617 188.288 646.705 183.853 645.253 183.624C643.8 183.394 622.892 189.124 616.603 204.953Z" fill="#D66D53"/>
<path d="M627.439 221.358C627.329 221.469 627.518 221.588 627.917 221.706C628.68 222.426 633.316 224.586 634.035 223.952C634.372 223.654 634.022 222.971 633.241 222.356C635.889 222.476 638.499 222.341 638.784 221.66C639.398 220.192 631.504 217.296 627.439 221.358Z" fill="#CE9784"/>
<path d="M187.943 262.188L172.833 261.458L171.893 280.929L143.848 279.575L144.788 260.104L91.0283 257.507L91.9331 238.765L140.626 177.477L170.412 178.915L126.128 236.339L146.764 237.336L147.599 220.046L174.77 221.358L173.935 238.649L189.045 239.378L187.943 262.188ZM214.66 278.773C208.082 274.28 203.069 267.946 199.629 259.769C196.189 251.592 194.732 242.033 195.261 231.088C195.789 220.141 198.16 210.765 202.373 202.958C206.585 195.151 212.185 189.333 219.165 185.491C226.145 181.658 233.993 179.945 242.718 180.367C251.331 180.783 258.93 183.241 265.517 187.73C272.094 192.227 277.099 198.557 280.54 206.733C283.981 214.91 285.437 224.47 284.908 235.418C284.379 246.362 282.009 255.737 277.796 263.544C273.584 271.351 267.991 277.173 261.011 281.011C254.024 284.848 246.222 286.559 237.609 286.143C228.886 285.721 221.239 283.265 214.66 278.773ZM250.637 256.116C253.714 251.557 255.506 244.19 255.996 234.021C256.488 223.849 255.414 216.347 252.791 211.509C250.159 206.675 246.423 204.138 241.581 203.904C236.636 203.665 232.625 205.827 229.541 210.386C226.456 214.948 224.672 222.313 224.18 232.485C223.69 242.654 224.755 250.159 227.386 254.994C230.018 259.828 233.802 262.366 238.746 262.605C243.588 262.839 247.552 260.675 250.637 256.116Z" fill="#C52127"/>
<path d="M249.281 227.572L268.383 170.618C270.137 165.389 267.081 159.762 261.742 158.377C261.654 158.354 261.567 158.331 261.479 158.309C256.148 156.923 250.773 160.341 249.748 165.754L238.55 224.907L249.281 227.572ZM242.104 233.098C237.649 231.992 232.897 234.681 231.74 239.338C230.634 243.792 233.576 248.392 238.031 249.498C242.687 250.655 247.44 247.966 248.546 243.511C249.702 238.855 246.761 234.255 242.104 233.098Z" fill="#931F26"/>
<path d="M323.931 223.117H335.576C338.896 223.117 341.631 222.531 343.779 221.359C345.977 220.188 347.588 218.527 348.613 216.379C349.688 214.23 350.225 211.716 350.225 208.835C350.225 206.345 349.736 204.123 348.76 202.17C347.783 200.217 346.294 198.679 344.292 197.556C342.339 196.384 339.8 195.798 336.675 195.798C334.429 195.798 332.28 196.262 330.229 197.189C328.228 198.068 326.592 199.362 325.322 201.071C324.053 202.731 323.418 204.733 323.418 207.077H300.493C300.493 201.12 302.104 195.969 305.327 191.623C308.599 187.277 312.92 183.933 318.291 181.589C323.711 179.196 329.619 178 336.016 178C343.389 178 349.858 179.172 355.425 181.516C361.04 183.811 365.386 187.229 368.462 191.77C371.587 196.262 373.149 201.828 373.149 208.469C373.149 211.936 372.319 215.28 370.659 218.503C369.048 221.677 366.729 224.509 363.701 226.999C360.723 229.44 357.158 231.394 353.008 232.858C348.906 234.274 344.341 234.982 339.312 234.982H323.931V223.117ZM323.931 240.329V228.684H339.312C344.878 228.684 349.858 229.318 354.253 230.588C358.647 231.857 362.383 233.688 365.459 236.081C368.535 238.474 370.879 241.379 372.49 244.797C374.102 248.215 374.907 252.023 374.907 256.223C374.907 261.203 373.931 265.646 371.978 269.553C370.024 273.459 367.29 276.755 363.774 279.44C360.259 282.126 356.133 284.177 351.396 285.593C346.66 286.96 341.533 287.644 336.016 287.644C331.572 287.644 327.153 287.033 322.759 285.812C318.364 284.592 314.385 282.736 310.82 280.246C307.256 277.707 304.399 274.509 302.251 270.651C300.103 266.745 299.028 262.106 299.028 256.735H321.953C321.953 259.226 322.588 261.472 323.857 263.474C325.176 265.427 326.958 266.989 329.204 268.161C331.499 269.284 333.989 269.846 336.675 269.846C339.897 269.846 342.632 269.26 344.878 268.088C347.173 266.867 348.906 265.207 350.078 263.107C351.299 261.008 351.909 258.591 351.909 255.856C351.909 252.146 351.25 249.167 349.932 246.921C348.662 244.626 346.807 242.966 344.365 241.94C341.924 240.866 338.994 240.329 335.576 240.329H323.931Z" fill="#C52127"/>
<path d="M127.304 339.079L129.06 310.041L140.516 310.734C142.718 310.867 144.569 311.401 146.069 312.336C147.568 313.261 148.68 314.491 149.403 316.024C150.136 317.548 150.445 319.275 150.328 321.203C150.211 323.131 149.693 324.807 148.772 326.232C147.851 327.656 146.576 328.732 144.948 329.459C143.329 330.186 141.404 330.482 139.173 330.347L131.871 329.906L132.169 324.986L138.478 325.367C139.66 325.439 140.646 325.294 141.436 324.934C142.236 324.565 142.847 324.028 143.27 323.323C143.702 322.609 143.947 321.775 144.004 320.82C144.063 319.856 143.92 319.003 143.576 318.262C143.242 317.511 142.699 316.914 141.948 316.47C141.197 316.016 140.227 315.754 139.036 315.682L134.895 315.431L133.443 339.45L127.304 339.079ZM162.59 341.639C160.349 341.504 158.449 340.934 156.887 339.928C155.336 338.914 154.176 337.545 153.407 335.819C152.639 334.084 152.325 332.068 152.464 329.771C152.599 327.531 153.153 325.591 154.125 323.951C155.097 322.312 156.401 321.067 158.036 320.218C159.682 319.368 161.572 319.008 163.709 319.138C165.145 319.224 166.469 319.537 167.679 320.075C168.899 320.604 169.945 321.355 170.816 322.328C171.696 323.302 172.354 324.499 172.79 325.92C173.227 327.331 173.389 328.963 173.277 330.816L173.176 332.475L154.787 331.363L155.013 327.62L167.717 328.388C167.77 327.518 167.627 326.736 167.29 326.042C166.952 325.348 166.459 324.792 165.811 324.373C165.173 323.946 164.414 323.706 163.535 323.652C162.618 323.597 161.793 323.76 161.058 324.143C160.333 324.517 159.751 325.046 159.311 325.731C158.872 326.406 158.621 327.174 158.56 328.033L158.345 331.592C158.28 332.67 158.422 333.613 158.771 334.421C159.13 335.23 159.666 335.87 160.377 336.34C161.089 336.81 161.95 337.075 162.962 337.137C163.633 337.177 164.253 337.12 164.822 336.965C165.391 336.809 165.886 336.555 166.305 336.2C166.725 335.846 167.056 335.401 167.297 334.866L172.861 335.572C172.496 336.897 171.844 338.034 170.904 338.983C169.975 339.923 168.803 340.63 167.389 341.104C165.986 341.57 164.386 341.748 162.59 341.639ZM176.553 342.057L177.87 320.279L183.726 320.633L183.496 324.433L183.723 324.446C184.202 323.119 184.93 322.138 185.907 321.505C186.885 320.862 187.984 320.577 189.204 320.651C189.506 320.669 189.831 320.708 190.178 320.767C190.526 320.826 190.83 320.896 191.091 320.978L190.766 326.338C190.488 326.236 190.1 326.136 189.603 326.04C189.106 325.944 188.65 325.883 188.234 325.858C187.346 325.804 186.54 325.95 185.817 326.295C185.104 326.631 184.524 327.127 184.076 327.783C183.638 328.44 183.392 329.212 183.338 330.101L182.593 342.422L176.553 342.057ZM192.89 343.045L194.207 321.267L199.964 321.615L199.732 325.457L199.987 325.473C200.518 324.224 201.335 323.263 202.438 322.59C203.541 321.916 204.83 321.624 206.305 321.714C207.798 321.804 209.047 322.254 210.051 323.064C211.056 323.865 211.695 324.909 211.968 326.197L212.195 326.211C212.714 324.99 213.578 324.041 214.786 323.365C216.004 322.68 217.411 322.385 219.009 322.482C221.041 322.605 222.651 323.352 223.84 324.724C225.038 326.086 225.566 327.949 225.423 330.312L224.537 344.959L218.511 344.594L219.325 331.139C219.398 329.929 219.132 329.002 218.525 328.358C217.919 327.714 217.134 327.363 216.17 327.305C215.073 327.239 214.197 327.537 213.54 328.199C212.884 328.852 212.522 329.746 212.453 330.88L211.649 344.179L205.793 343.825L206.614 330.242C206.679 329.174 206.423 328.305 205.847 327.634C205.28 326.964 204.501 326.599 203.508 326.539C202.837 326.499 202.222 326.632 201.663 326.94C201.113 327.239 200.664 327.681 200.316 328.267C199.968 328.844 199.77 329.534 199.721 330.338L198.93 343.41L192.89 343.045ZM229.308 345.247L230.625 323.469L236.665 323.834L235.348 345.613L229.308 345.247ZM233.829 320.845C232.931 320.791 232.179 320.446 231.572 319.812C230.975 319.169 230.703 318.427 230.753 317.585C230.804 316.754 231.164 316.059 231.833 315.502C232.512 314.936 233.301 314.68 234.199 314.734C235.097 314.788 235.844 315.137 236.441 315.78C237.048 316.415 237.326 317.148 237.276 317.98C237.225 318.821 236.86 319.525 236.18 320.091C235.511 320.648 234.727 320.899 233.829 320.845ZM259.249 331.433L253.698 331.439C253.632 330.961 253.455 330.523 253.166 330.126C252.877 329.719 252.485 329.387 251.988 329.13C251.501 328.863 250.908 328.709 250.209 328.666C249.273 328.61 248.472 328.761 247.805 329.119C247.139 329.467 246.786 329.968 246.746 330.62C246.715 331.14 246.896 331.592 247.291 331.976C247.685 332.361 248.381 332.692 249.379 332.971L253.273 334.003C255.364 334.566 256.9 335.361 257.882 336.388C258.863 337.415 259.306 338.713 259.211 340.282C259.125 341.709 258.629 342.936 257.722 343.963C256.825 344.99 255.631 345.762 254.139 346.279C252.656 346.787 250.97 346.984 249.079 346.87C246.196 346.696 243.936 345.956 242.297 344.653C240.669 343.34 239.771 341.635 239.604 339.537L245.564 339.585C245.69 340.475 246.085 341.172 246.747 341.677C247.409 342.173 248.279 342.453 249.357 342.518C250.416 342.582 251.279 342.43 251.946 342.063C252.623 341.686 252.986 341.172 253.035 340.52C253.059 339.972 252.855 339.509 252.422 339.132C251.99 338.745 251.307 338.428 250.373 338.182L246.647 337.203C244.546 336.649 243.007 335.816 242.031 334.704C241.064 333.592 240.63 332.223 240.728 330.598C240.813 329.199 241.264 328.016 242.081 327.051C242.908 326.085 244.028 325.371 245.441 324.906C246.864 324.442 248.506 324.266 250.368 324.378C253.119 324.545 255.249 325.257 256.757 326.515C258.275 327.774 259.105 329.413 259.249 331.433ZM281.669 332.789L276.118 332.795C276.052 332.316 275.875 331.879 275.586 331.482C275.297 331.075 274.905 330.743 274.408 330.486C273.921 330.219 273.328 330.064 272.629 330.022C271.693 329.966 270.892 330.116 270.225 330.474C269.559 330.823 269.206 331.324 269.166 331.976C269.135 332.496 269.316 332.948 269.711 333.332C270.105 333.717 270.801 334.048 271.799 334.327L275.693 335.359C277.784 335.922 279.32 336.717 280.302 337.744C281.283 338.771 281.726 340.069 281.631 341.638C281.545 343.065 281.049 344.292 280.142 345.319C279.245 346.346 278.051 347.118 276.558 347.635C275.076 348.143 273.39 348.34 271.499 348.226C268.616 348.052 266.356 347.312 264.717 346.008C263.089 344.696 262.191 342.991 262.024 340.893L267.984 340.941C268.11 341.831 268.505 342.528 269.167 343.033C269.829 343.528 270.699 343.809 271.777 343.874C272.835 343.938 273.698 343.786 274.366 343.419C275.043 343.042 275.406 342.528 275.455 341.876C275.479 341.328 275.275 340.865 274.842 340.487C274.41 340.101 273.727 339.784 272.793 339.538L269.067 338.559C266.966 338.005 265.427 337.172 264.451 336.059C263.484 334.948 263.05 333.579 263.148 331.953C263.233 330.554 263.684 329.372 264.501 328.406C265.328 327.441 266.448 326.726 267.861 326.262C269.284 325.797 270.926 325.622 272.788 325.734C275.539 325.901 277.669 326.613 279.177 327.871C280.694 329.13 281.525 330.769 281.669 332.789ZM285.027 348.617L286.344 326.839L292.384 327.204L291.067 348.982L285.027 348.617ZM289.548 324.215C288.65 324.16 287.897 323.816 287.291 323.182C286.694 322.538 286.421 321.796 286.472 320.955C286.522 320.123 286.882 319.429 287.551 318.871C288.231 318.305 289.019 318.049 289.917 318.104C290.815 318.158 291.563 318.507 292.159 319.15C292.766 319.784 293.044 320.518 292.994 321.349C292.943 322.191 292.578 322.894 291.899 323.46C291.229 324.018 290.446 324.269 289.548 324.215ZM305.72 350.295C303.517 350.162 301.641 349.579 300.09 348.546C298.55 347.504 297.396 346.116 296.628 344.381C295.861 342.636 295.545 340.648 295.68 338.418C295.816 336.168 296.369 334.228 297.341 332.598C298.313 330.959 299.626 329.72 301.28 328.88C302.944 328.032 304.877 327.675 307.079 327.808C309.282 327.941 311.153 328.529 312.694 329.571C314.244 330.604 315.403 331.992 316.17 333.737C316.938 335.472 317.254 337.464 317.118 339.714C316.983 341.945 316.429 343.88 315.457 345.519C314.486 347.149 313.168 348.388 311.504 349.236C309.85 350.076 307.922 350.429 305.72 350.295ZM306.031 345.618C307.033 345.679 307.887 345.446 308.592 344.919C309.298 344.383 309.851 343.629 310.251 342.657C310.661 341.686 310.904 340.567 310.981 339.3C311.058 338.034 310.951 336.894 310.661 335.88C310.381 334.867 309.923 334.052 309.286 333.434C308.65 332.817 307.831 332.478 306.829 332.418C305.818 332.357 304.95 332.593 304.225 333.128C303.509 333.664 302.947 334.417 302.537 335.389C302.137 336.36 301.898 337.48 301.822 338.746C301.745 340.013 301.847 341.153 302.127 342.166C302.417 343.18 302.884 343.995 303.53 344.613C304.186 345.222 305.019 345.557 306.031 345.618ZM327.193 338.53L326.432 351.121L320.392 350.756L321.709 328.977L327.465 329.325L327.233 333.168L327.488 333.183C328.047 331.946 328.916 330.993 330.095 330.324C331.274 329.646 332.672 329.356 334.288 329.453C335.801 329.545 337.099 329.956 338.184 330.685C339.269 331.415 340.086 332.413 340.636 333.68C341.186 334.937 341.41 336.411 341.307 338.103L340.469 351.97L334.429 351.605L335.202 338.815C335.292 337.483 335.015 336.423 334.37 335.634C333.726 334.837 332.798 334.401 331.589 334.328C330.776 334.279 330.047 334.41 329.402 334.722C328.766 335.035 328.253 335.516 327.863 336.166C327.483 336.807 327.259 337.595 327.193 338.53ZM175.386 380.056L165.093 379.433L166.849 350.395L177.228 351.023C180.148 351.2 182.627 351.933 184.665 353.223C186.703 354.504 188.224 356.261 189.227 358.494C190.24 360.728 190.655 363.352 190.473 366.368C190.29 369.393 189.561 371.957 188.286 374.062C187.02 376.168 185.289 377.737 183.092 378.771C180.904 379.806 178.336 380.234 175.386 380.056ZM171.55 374.544L175.449 374.78C177.264 374.89 178.81 374.661 180.087 374.093C181.374 373.516 182.371 372.566 183.077 371.243C183.793 369.91 184.217 368.162 184.348 365.997C184.478 363.852 184.267 362.079 183.716 360.68C183.175 359.281 182.304 358.222 181.105 357.505C179.905 356.787 178.398 356.373 176.583 356.264L172.67 356.027L171.55 374.544ZM203.927 382.209C201.687 382.073 199.786 381.503 198.224 380.498C196.673 379.484 195.513 378.114 194.745 376.388C193.977 374.653 193.662 372.637 193.801 370.34C193.937 368.1 194.49 366.16 195.462 364.521C196.434 362.881 197.738 361.637 199.374 360.787C201.019 359.938 202.91 359.578 205.046 359.707C206.483 359.794 207.806 360.106 209.016 360.644C210.237 361.173 211.282 361.925 212.153 362.897C213.034 363.871 213.692 365.068 214.128 366.489C214.564 367.901 214.726 369.533 214.614 371.385L214.514 373.044L196.124 371.932L196.35 368.189L209.055 368.957C209.107 368.088 208.965 367.306 208.627 366.612C208.29 365.918 207.797 365.361 207.148 364.943C206.51 364.515 205.752 364.275 204.873 364.222C203.956 364.166 203.13 364.33 202.395 364.712C201.671 365.086 201.088 365.615 200.648 366.3C200.209 366.976 199.959 367.743 199.897 368.603L199.682 372.161C199.617 373.239 199.759 374.182 200.109 374.991C200.468 375.8 201.003 376.439 201.715 376.909C202.426 377.379 203.288 377.645 204.299 377.706C204.97 377.747 205.59 377.689 206.159 377.534C206.728 377.379 207.223 377.124 207.643 376.77C208.063 376.416 208.393 375.971 208.634 375.435L214.198 376.142C213.834 377.467 213.181 378.604 212.242 379.552C211.312 380.492 210.14 381.199 208.727 381.674C207.323 382.139 205.723 382.317 203.927 382.209ZM224.692 370.401L223.93 382.992L217.89 382.626L219.207 360.848L224.964 361.196L224.732 365.038L224.987 365.054C225.545 363.816 226.414 362.863 227.593 362.195C228.773 361.517 230.17 361.226 231.787 361.324C233.299 361.416 234.598 361.826 235.683 362.556C236.768 363.285 237.585 364.284 238.134 365.55C238.684 366.807 238.908 368.282 238.806 369.974L237.967 383.84L231.927 383.475L232.701 370.686C232.791 369.354 232.513 368.294 231.868 367.505C231.224 366.707 230.297 366.272 229.087 366.198C228.274 366.149 227.545 366.281 226.9 366.593C226.265 366.905 225.752 367.387 225.361 368.036C224.981 368.678 224.758 369.466 224.692 370.401ZM242.728 384.128L244.045 362.35L250.085 362.715L248.768 384.494L242.728 384.128ZM247.249 359.726C246.351 359.672 245.599 359.327 244.992 358.693C244.395 358.05 244.122 357.308 244.173 356.466C244.223 355.634 244.583 354.94 245.252 354.383C245.932 353.817 246.72 353.561 247.618 353.615C248.516 353.669 249.264 354.018 249.861 354.661C250.467 355.296 250.745 356.029 250.695 356.861C250.644 357.702 250.279 358.406 249.6 358.972C248.931 359.529 248.147 359.78 247.249 359.726ZM263.506 385.812C261.265 385.676 259.365 385.106 257.803 384.101C256.252 383.087 255.092 381.717 254.323 379.991C253.555 378.256 253.241 376.24 253.38 373.943C253.515 371.703 254.069 369.763 255.041 368.124C256.013 366.484 257.317 365.24 258.952 364.39C260.598 363.541 262.488 363.181 264.625 363.31C266.061 363.397 267.385 363.709 268.595 364.247C269.815 364.777 270.861 365.528 271.732 366.5C272.612 367.474 273.27 368.671 273.706 370.092C274.143 371.504 274.305 373.136 274.193 374.988L274.092 376.647L255.703 375.535L255.929 371.792L268.633 372.56C268.686 371.691 268.543 370.909 268.206 370.215C267.868 369.521 267.375 368.965 266.727 368.546C266.089 368.118 265.33 367.878 264.451 367.825C263.534 367.769 262.709 367.933 261.974 368.315C261.249 368.689 260.667 369.218 260.227 369.903C259.788 370.579 259.537 371.346 259.476 372.206L259.261 375.765C259.196 376.842 259.338 377.785 259.687 378.594C260.046 379.403 260.582 380.042 261.293 380.512C262.005 380.982 262.866 381.248 263.878 381.309C264.549 381.35 265.169 381.292 265.738 381.137C266.307 380.982 266.802 380.727 267.221 380.373C267.641 380.019 267.972 379.574 268.213 379.038L273.777 379.745C273.412 381.07 272.76 382.207 271.82 383.156C270.891 384.095 269.719 384.803 268.305 385.277C266.902 385.742 265.302 385.92 263.506 385.812ZM285.473 387.069C283.819 386.969 282.346 386.453 281.055 385.521C279.774 384.581 278.792 383.255 278.108 381.544C277.434 379.824 277.171 377.749 277.318 375.32C277.469 372.824 277.996 370.774 278.899 369.168C279.803 367.553 280.947 366.375 282.329 365.633C283.722 364.882 285.217 364.555 286.814 364.652C288.034 364.726 289.037 364.995 289.825 365.46C290.623 365.916 291.253 366.467 291.717 367.111C292.191 367.747 292.543 368.366 292.772 368.968L292.956 368.979L293.616 358.062L299.642 358.426L297.886 387.464L291.931 387.104L292.142 383.616L291.887 383.601C291.567 384.188 291.129 384.764 290.573 385.328C290.027 385.884 289.331 386.33 288.485 386.668C287.649 387.006 286.645 387.14 285.473 387.069ZM287.677 382.378C288.651 382.437 289.489 382.222 290.193 381.734C290.906 381.236 291.471 380.516 291.889 379.573C292.316 378.632 292.568 377.513 292.646 376.218C292.725 374.923 292.613 373.788 292.312 372.811C292.01 371.835 291.535 371.066 290.886 370.505C290.237 369.944 289.425 369.634 288.452 369.575C287.459 369.515 286.606 369.734 285.893 370.231C285.18 370.729 284.62 371.445 284.212 372.378C283.805 373.312 283.563 374.407 283.487 375.664C283.41 376.931 283.518 378.062 283.808 379.056C284.109 380.042 284.579 380.83 285.217 381.418C285.865 381.998 286.685 382.318 287.677 382.378Z" fill="#4D4D4D"/>
</svg>
