<svg width="781" height="435" viewBox="0 0 781 435" fill="none" xmlns="http://www.w3.org/2000/svg">
<g opacity="0.5">
<path fill-rule="evenodd" clip-rule="evenodd" d="M702.27 317.557C652.892 302.106 628.345 323.548 572.436 352.999C516.524 382.455 447.479 391.898 368.664 336.931C289.845 281.964 201.531 302.106 165.62 363.443C141.679 404.336 86.4726 428.186 0 435H780.893C761.398 367.004 735.194 327.855 702.27 317.557Z" fill="#FFCCCC"/>
<path fill-rule="evenodd" clip-rule="evenodd" d="M0 435.002C26.7223 354.577 79.0056 327.769 156.85 354.577C273.617 394.79 341.878 364.63 402.806 304.312C463.733 243.994 535.332 235.95 619.613 330.452C675.799 393.453 729.17 428.3 779.721 435.002H0Z" fill="#FFE9E9"/>
</g>
<path fill-rule="evenodd" clip-rule="evenodd" d="M204.12 109.598H579.597C584.045 109.598 587.655 113.205 587.655 117.655V371.465C587.655 375.914 584.045 379.522 579.597 379.522H204.12C199.67 379.522 196.062 375.914 196.062 371.465V117.655C196.062 113.205 199.67 109.598 204.12 109.598Z" fill="#FFCBCD"/>
<path fill-rule="evenodd" clip-rule="evenodd" d="M217.01 157.941H566.704C569.372 157.941 571.538 160.106 571.538 162.776V355.349C571.538 358.019 569.372 360.183 566.704 360.183H217.01C214.34 360.183 212.176 358.019 212.176 355.349V162.776C212.176 160.106 214.34 157.941 217.01 157.941Z" fill="white"/>
<path fill-rule="evenodd" clip-rule="evenodd" d="M204.12 109.598H579.597C584.045 109.598 587.655 113.205 587.655 117.655V141.827H196.062V117.655C196.062 113.205 199.67 109.598 204.12 109.598Z" fill="#FD787D"/>
<path d="M218.621 132.154C222.182 132.154 225.068 129.268 225.068 125.708C225.068 122.148 222.182 119.262 218.621 119.262C215.061 119.262 212.176 122.148 212.176 125.708C212.176 129.268 215.061 132.154 218.621 132.154ZM239.571 132.154C243.131 132.154 246.017 129.268 246.017 125.708C246.017 122.148 243.131 119.262 239.571 119.262C236.011 119.262 233.125 122.148 233.125 125.708C233.125 129.268 236.011 132.154 239.571 132.154ZM260.52 132.154C264.08 132.154 266.966 129.268 266.966 125.708C266.966 122.148 264.08 119.262 260.52 119.262C256.96 119.262 254.074 122.148 254.074 125.708C254.074 129.268 256.96 132.154 260.52 132.154Z" fill="white"/>
<path fill-rule="evenodd" clip-rule="evenodd" d="M341.101 290.891H434.567C438.125 290.891 441.013 293.776 441.013 297.337C441.013 300.896 438.125 303.783 434.567 303.783H341.101C337.538 303.783 334.655 300.896 334.655 297.337C334.655 293.776 337.538 290.891 341.101 290.891ZM316.928 319.897H458.739C462.297 319.897 465.185 322.783 465.185 326.343C465.185 329.903 462.297 332.789 458.739 332.789H316.928C313.366 332.789 310.482 329.903 310.482 326.343C310.482 322.783 313.366 319.897 316.928 319.897Z" fill="#FFCBCD" fill-opacity="0.43"/>
<path d="M604.975 195.543V261.185C604.975 264.152 607.381 266.557 610.346 266.557H680.285C683.25 266.557 685.656 264.152 685.656 261.185V195.543C685.656 192.577 683.25 190.172 680.285 190.172H610.346C607.381 190.172 604.975 192.577 604.975 195.543Z" fill="#FD787D"/>
<path d="M607.66 195.537C607.66 194.054 608.863 192.852 610.346 192.852H680.284C681.767 192.852 682.97 194.054 682.97 195.537V261.179C682.97 262.662 681.767 263.865 680.284 263.865H610.346C608.863 263.865 607.66 262.662 607.66 261.179V195.537Z" fill="white"/>
<path d="M651.132 238.283L665.923 250.546C666.955 251.404 668.489 251.26 669.348 250.226C670.203 249.191 670.062 247.657 669.026 246.799L654.239 234.537C653.203 233.679 651.669 233.822 650.814 234.857C649.955 235.891 650.096 237.425 651.132 238.283Z" fill="#FD787D"/>
<path d="M656.547 244.363L665.146 251.493C666.698 252.779 669.001 252.564 670.286 251.012C671.571 249.461 671.356 247.16 669.805 245.873L661.206 238.744C659.654 237.457 657.355 237.672 656.07 239.224C654.781 240.775 654.996 243.077 656.547 244.363ZM638.572 243.233C649.324 243.233 658.039 234.518 658.039 223.767C658.039 213.016 649.324 204.301 638.572 204.301C627.824 204.301 619.109 213.016 619.109 223.767C619.109 234.518 627.824 243.233 638.572 243.233Z" fill="#FFCBCD"/>
<path d="M638.573 238.359C630.507 238.359 623.971 231.823 623.971 223.759C623.971 215.696 630.507 209.16 638.573 209.16C646.635 209.16 653.171 215.696 653.171 223.759C653.171 231.823 646.635 238.359 638.573 238.359Z" fill="#F2FBFF"/>
<path d="M98.0273 191.508V257.15C98.0273 260.116 100.433 262.521 103.399 262.521H173.338C176.304 262.521 178.71 260.116 178.71 257.15V191.508C178.71 188.541 176.304 186.137 173.338 186.137H103.399C100.433 186.137 98.0273 188.541 98.0273 191.508Z" fill="#FD787D"/>
<path d="M100.715 191.506C100.715 190.023 101.918 188.82 103.401 188.82H173.34C174.823 188.82 176.025 190.023 176.025 191.506V257.147C176.025 258.63 174.823 259.833 173.34 259.833H103.401C101.918 259.833 100.715 258.63 100.715 257.147V191.506Z" fill="white"/>
<path d="M139.681 234.463H131.456C131.249 233.49 131.179 232.516 131.179 231.404C131.179 228.137 132.493 224.591 136.433 221.601L139.958 218.959C141.824 217.569 142.446 215.9 142.446 214.093C142.446 211.381 140.442 208.739 136.294 208.739C132.285 208.739 129.935 212.007 129.935 215.275C129.935 216.874 130.074 217.569 130.143 217.847L120.466 217.499C120.259 216.526 120.189 215.483 120.189 214.579C120.189 206.445 126.203 199.562 136.294 199.562C147.492 199.562 153.091 206.306 153.091 213.258C153.091 218.82 150.533 222.644 146.386 225.773L143.759 227.719C141.34 229.527 139.681 231.335 139.681 234.463ZM129.866 244.614C129.866 241.276 132.493 238.565 135.811 238.565C139.129 238.565 141.824 241.276 141.824 244.614C141.824 247.881 139.129 250.593 135.811 250.593C132.493 250.593 129.866 247.881 129.866 244.614Z" fill="#FFCBCD"/>
<path d="M353.186 0H417C421.659 0 425.432 3.77733 425.432 8.4356V72.2505C425.432 76.9087 421.659 80.6861 417 80.6861H353.186C348.527 80.6861 344.75 76.9087 344.75 72.2505V8.4356C344.75 3.77733 348.527 0 353.186 0Z" fill="#FD787D"/>
<path d="M353.181 2.68359C350.006 2.68359 347.432 5.25338 347.432 8.42908V72.2439C347.432 75.4196 350.006 77.9937 353.181 77.9937H416.996C420.168 77.9937 422.742 75.4196 422.742 72.2439V8.42908C422.742 5.25338 420.168 2.68359 416.996 2.68359H353.181Z" fill="white"/>
<path d="M385.626 66.9778C400.043 66.9778 411.732 55.2891 411.732 40.8717C411.732 26.4543 400.043 14.7656 385.626 14.7656C371.208 14.7656 359.52 26.4543 359.52 40.8717C359.52 55.2891 371.208 66.9778 385.626 66.9778Z" fill="#DB2721"/>
<path d="M397.375 30.0223C398.574 31.2385 398.561 33.198 397.345 34.397L390.5 41.1566L397.345 47.9163C398.561 49.1152 398.574 51.0748 397.375 52.2909C396.172 53.5071 394.212 53.5199 392.996 52.321L386.095 45.5055L379.189 52.321C377.973 53.5199 376.013 53.5071 374.815 52.2909C373.616 51.0748 373.628 49.1152 374.845 47.9163L381.69 41.1566L374.845 34.397C373.628 33.198 373.616 31.2385 374.815 30.0223C376.013 28.8062 377.973 28.7933 379.189 29.9923L386.095 36.8078L392.996 29.9923C394.212 28.7933 396.172 28.8062 397.375 30.0223Z" fill="white"/>
<path d="M332.658 242H295.658V228L319.658 186H339.658L315.658 228H332.658V213H350.658V228H357.658V242H350.658V256H332.658V242ZM380.217 256V201.5L368.717 205.5L363.717 194L382.217 186H398.217V256H380.217ZM421.244 241.5C434.977 242.5 444.644 243 450.244 243C451.777 243 452.977 242.567 453.844 241.7C454.777 240.767 455.244 239.533 455.244 238V229C448.777 230.333 443.111 231 438.244 231H431.244C426.711 231 423.077 229.633 420.344 226.9C417.611 224.167 416.244 220.533 416.244 216V203C416.244 196.933 417.777 192.433 420.844 189.5C423.911 186.5 428.711 185 435.244 185H454.244C460.777 185 465.577 186.5 468.644 189.5C471.711 192.433 473.244 196.933 473.244 203V238C473.244 244.533 471.711 249.333 468.644 252.4C465.577 255.467 460.777 257 454.244 257C445.111 257 434.111 256.333 421.244 255V241.5ZM443.244 217C447.044 217 451.044 216.667 455.244 216V205C455.244 201 453.244 199 449.244 199H440.244C436.244 199 434.244 201 434.244 205V213.5C434.244 214.5 434.577 215.333 435.244 216C435.911 216.667 436.744 217 437.744 217H443.244Z" fill="#C52127"/>
</svg>
