<svg width="681" height="594" viewBox="0 0 681 594" fill="none" xmlns="http://www.w3.org/2000/svg">
<path d="M515.846 36.2155L516.211 49.0836L111.137 61.8791L110.773 49.011C110.422 36.6608 120.533 26.3289 133.353 25.9231L492.011 14.5982C504.831 14.1924 515.496 23.8741 515.846 36.2155Z" fill="#FFD0D2"/>
<path fill-rule="evenodd" clip-rule="evenodd" d="M468.404 33.3498C468.629 35.6734 466.927 37.7398 464.603 37.9641C462.279 38.1887 460.213 36.4867 459.989 34.163C459.764 31.8391 461.466 29.7736 463.79 29.549C466.114 29.3241 468.179 31.0259 468.404 33.3498ZM482.43 32.9893C482.655 35.3132 480.953 37.3793 478.63 37.6039C476.305 37.8285 474.24 36.1264 474.015 33.8028C473.79 31.4789 475.492 29.4133 477.816 29.1888C480.14 28.9639 482.206 30.6654 482.43 32.9893ZM496.457 32.6291C496.681 34.953 494.979 37.0191 492.656 37.2437C490.331 37.4682 488.266 35.7662 488.041 33.4426C487.817 31.1187 489.518 29.0531 491.843 28.8285C494.166 28.6037 496.232 30.3052 496.457 32.6291Z" fill="#C52127"/>
<path d="M516.21 49.0859L522.161 260.394L522.525 273.262C522.876 285.612 512.765 295.944 499.945 296.35L141.287 307.675C128.467 308.08 117.802 298.399 117.452 286.057L117.087 273.189L111.137 61.8817L516.21 49.0859Z" fill="#F5EBEF"/>
<path opacity="0.5" d="M522.52 273.265C522.879 285.607 512.76 295.941 499.943 296.352L141.291 307.672C128.464 308.083 117.799 298.399 117.45 286.056L117.084 273.192L111.367 70.5859C175.304 75.6245 407.979 85.0031 517.144 82.2629L522.163 260.391L522.52 273.265Z" fill="#FFD0D2"/>
<path d="M82 533.111C82 506.804 668.579 505.077 679.838 535.247C690.704 564.364 573.878 601.026 517.658 591.462C461.438 581.898 393.911 572.124 339.444 572.5C284.976 572.876 82 549.357 82 533.111Z" fill="#FFC9CB" fill-opacity="0.32"/>
<path d="M611.292 66.0235C597.73 20.4941 551.5 -19.1369 539.182 9.92214C531.445 28.174 566.482 32.7525 583.32 59.0098C594.897 77.0635 616.416 83.2279 611.292 66.0235Z" fill="#FFD0D2" fill-opacity="0.4"/>
<path d="M573.18 62.3255C575.544 57.4489 571.385 50.5512 563.892 46.919C556.398 43.2868 548.407 44.2955 546.044 49.1721C543.68 54.0487 547.838 60.9464 555.332 64.5786C562.825 68.2109 570.816 67.2021 573.18 62.3255Z" fill="#FFD0D2" fill-opacity="0.4"/>
<path d="M87.3928 56.4702C91.5055 47.9854 84.2699 35.9839 71.2316 29.6641C58.1934 23.3443 44.2898 25.0994 40.1771 33.5842C36.0644 42.069 43.3001 54.0705 56.3383 60.3903C69.3766 66.71 83.2801 64.955 87.3928 56.4702Z" fill="#FFD0D2" fill-opacity="0.4"/>
<path d="M600.007 82.6113C602.84 76.4085 617.622 81.0672 612.981 88.7536C608.339 96.4402 598.545 85.8102 600.007 82.6113Z" fill="#FFD0D2" fill-opacity="0.4"/>
<path d="M34.273 491.48C15.372 491.48 0 476.101 0 457.199V136.626C0 117.729 15.372 102.354 34.273 102.354H572.526C591.428 102.354 606.8 117.729 606.8 136.626V457.2C606.8 476.101 591.428 491.48 572.526 491.48L34.273 491.48Z" fill="#E68184"/>
<path d="M593.445 136.655V457.199C593.445 468.766 584.059 478.091 572.552 478.091H34.2954C22.7281 478.091 13.3418 468.766 13.3418 457.199V136.655C13.3418 125.089 22.7281 115.701 34.2954 115.701H572.552C584.059 115.701 593.445 125.089 593.445 136.655Z" fill="#FFD0D2"/>
<path opacity="0.2" d="M504.163 112.387L56.0942 91.1398C40.0777 90.3816 26.4591 102.26 25.6788 117.685L24.8645 133.757L11.4471 397.671L10.6328 413.742C9.85192 429.157 22.1876 442.273 38.2041 443.032L486.272 464.279C502.288 465.037 515.907 453.159 516.688 437.734L517.502 421.662L530.919 157.748L531.734 141.676C532.514 126.262 520.178 113.146 504.163 112.387Z" fill="#FF8A8F"/>
<path d="M524.601 126.883L523.787 142.955L17.7314 118.964L18.5457 102.892C19.3263 87.4671 32.9447 75.5886 48.9614 76.3469L497.03 97.5943C513.046 98.3523 525.381 111.469 524.601 126.883Z" fill="#FA9598"/>
<path d="M523.786 142.956L510.368 406.869L509.554 422.941C508.773 438.367 495.155 450.245 479.138 449.487L31.0703 428.239C15.0538 427.481 2.71813 414.364 3.49898 398.95L4.31329 382.878L17.7307 118.965L523.786 142.956Z" fill="white"/>
<path opacity="0.25" d="M523.785 142.955L510.364 406.867L509.552 422.939C508.775 438.368 495.159 450.243 479.14 449.484L31.0693 428.234C15.0508 427.484 2.71998 414.367 3.49668 398.947L3.74694 394.054L412.173 413.421C428.192 414.18 441.808 402.304 442.594 386.875L443.407 370.803L455.157 139.705L523.785 142.955Z" fill="#FFD0D2"/>
<path opacity="0.25" fill-rule="evenodd" clip-rule="evenodd" d="M60.7852 98.5282C60.7852 102.113 57.8793 105.019 54.2948 105.019C50.7101 105.019 47.8037 102.113 47.8037 98.5282C47.8037 94.9429 50.7103 92.0371 54.2948 92.0371C57.8793 92.0374 60.7852 94.9429 60.7852 98.5282Z" fill="#931F26"/>
<path fill-rule="evenodd" clip-rule="evenodd" d="M59.3789 96.797C59.3789 100.381 56.4731 103.288 52.8886 103.288C49.3033 103.288 46.3975 100.382 46.3975 96.797C46.3975 93.2122 49.3033 90.3066 52.8886 90.3066C56.4731 90.3064 59.3789 93.2122 59.3789 96.797Z" fill="#C52127"/>
<path opacity="0.25" fill-rule="evenodd" clip-rule="evenodd" d="M82.2754 100.05C82.2754 103.634 79.3696 106.54 75.7851 106.54C72.2003 106.54 69.2939 103.634 69.2939 100.05C69.2939 96.4644 72.2006 93.5586 75.7851 93.5586C79.3696 93.5586 82.2754 96.4644 82.2754 100.05Z" fill="#931F26"/>
<path fill-rule="evenodd" clip-rule="evenodd" d="M80.8691 98.3185C80.8691 101.903 77.9633 104.81 74.3788 104.81C70.7935 104.81 67.8877 101.903 67.8877 98.3185C67.8877 94.7339 70.7935 91.8281 74.3788 91.8281C77.9633 91.8281 80.8691 94.7339 80.8691 98.3185Z" fill="#C52127"/>
<path opacity="0.25" fill-rule="evenodd" clip-rule="evenodd" d="M103.766 101.571C103.766 105.156 100.86 108.062 97.2753 108.062C93.6908 108.062 90.7842 105.156 90.7842 101.571C90.7842 97.9859 93.6908 95.0801 97.2753 95.0801C100.86 95.0801 103.766 97.9859 103.766 101.571Z" fill="#931F26"/>
<path fill-rule="evenodd" clip-rule="evenodd" d="M102.359 99.8399C102.359 103.424 99.4536 106.331 95.8691 106.331C92.2838 106.331 89.3779 103.424 89.3779 99.8399C89.3779 96.2552 92.2838 93.3496 95.8691 93.3496C99.4536 93.3496 102.359 96.2554 102.359 99.8399Z" fill="#C52127"/>
<path d="M548.852 147.328C549.578 147.799 550.677 148.269 550.717 148.477C550.757 148.685 541.92 166.347 541.168 166.708C540.417 167.069 536.333 166.421 536.556 164.868C536.778 163.316 548.852 147.328 548.852 147.328Z" fill="#D66D53"/>
<path d="M521.504 185.993C540.811 193.433 543.783 205.128 545.367 208.872C545.367 208.872 592.807 131.593 552.37 145.143C549.218 146.199 542.014 164.634 521.504 185.993Z" fill="#FF9C83"/>
<path d="M547.887 522.879L548.211 548.879L563.557 549.348L566.19 522.94L547.887 522.879Z" fill="#D7A28E"/>
<path d="M563.836 541.244C557.879 546.315 548.433 542.904 548.059 537.941C547.759 533.961 542.211 542.205 536.59 550.049C532.88 555.225 509.776 555.131 513.83 566.904C516.188 573.754 556.35 567.332 565.884 559.668C567.664 558.237 567.301 538.265 563.836 541.244Z" fill="#121212"/>
<path d="M565.889 559.666C556.346 567.33 516.192 573.75 513.831 566.899C513.555 566.111 513.407 565.378 513.367 564.687C534.165 571.199 560.845 560.066 562.818 556.328C564.111 553.891 564.607 546.287 564.806 541.008C567.348 542.168 567.481 558.379 565.889 559.666Z" fill="#1C2959"/>
<path d="M532.387 284.338H600.295L567.528 532.78C567.528 532.78 560.078 541.907 544.76 532.175L532.387 284.338Z" fill="#121535"/>
<path opacity="0.5" d="M564.967 397.35C559.765 392.296 536.741 392.168 544.899 396.079C553.057 399.99 567.442 399.755 564.967 397.35ZM560.917 401.197C552.081 399.993 543.049 405.326 548.488 406.244C553.926 407.161 564.284 401.656 560.917 401.197ZM600.29 284.342L583.307 413.155C579.882 380.738 563.867 313.732 556.609 284.342H600.29Z" fill="#3D3C3C"/>
<path d="M618.165 524.405L621.219 550.227L636.529 549.081L636.373 522.543L618.165 524.405Z" fill="#D7A28E"/>
<path d="M635.956 540.991C630.565 546.66 620.813 544.26 619.919 539.363C619.203 535.438 614.552 544.218 609.785 552.609C606.64 558.147 583.654 560.48 588.922 571.762C591.987 578.326 631.252 567.721 639.928 559.098C641.547 557.488 639.088 537.665 635.956 540.991Z" fill="#121212"/>
<path d="M639.932 559.098C631.247 567.722 591.989 578.324 588.921 571.759C588.564 571.004 588.34 570.291 588.228 569.608C609.594 573.899 634.957 560.025 636.527 556.101C637.557 553.542 637.251 545.927 636.894 540.656C639.545 541.543 641.38 557.65 639.932 559.098Z" fill="#1C2959"/>
<path d="M564.215 291.692L631.25 280.838L638.615 531.323C638.615 531.323 629.626 538.399 615.864 535.3L564.215 291.692Z" fill="#121535"/>
<path opacity="0.5" d="M638.62 531.324C638.62 531.324 635.857 534.341 630.118 535.299C636.836 472.871 619.098 328.236 613.267 283.75L631.249 280.834L638.62 531.324ZM595.241 399.621C599.433 393.702 622.046 389.372 614.739 394.707C607.432 400.042 593.246 402.437 595.241 399.621ZM599.925 402.665C608.393 399.867 618.246 403.461 613.067 405.356C607.888 407.251 596.699 403.73 599.925 402.665Z" fill="#3D3C3C"/>
<path d="M530.956 288.562C539.458 297.064 632.239 290.834 636.529 285.473C640.818 280.111 607.444 143.114 604.558 141.273C601.673 139.432 575.344 128.923 552.37 145.143C542.343 150.213 530.956 288.562 530.956 288.562Z" fill="#FF9C83"/>
<path opacity="0.5" d="M636.531 285.477C632.239 290.829 539.463 297.068 530.961 288.566C530.961 288.566 542.348 150.211 552.369 145.145C555.743 142.759 559.199 140.955 562.634 139.62C562.97 146.847 563.99 163.413 566.345 166.97C569.373 171.558 574.266 171.109 574.266 171.109C574.266 171.109 593.167 171.108 593.736 137.611C599.516 138.855 603.533 140.619 604.563 141.271C607.447 143.116 640.823 280.115 636.531 285.477Z" fill="#CD6A51"/>
<path d="M549.877 86.829C549.877 86.829 545.702 91.497 547.161 95.6352C548.62 99.7728 572.019 104.89 572.019 104.89L575.662 122.407C575.662 122.407 579.545 125.603 580.963 119.675C580.963 119.675 585.762 119.514 584.157 111.376C584.157 111.376 586.472 108.297 587.827 102.135C587.31 100.219 588.155 97.3157 585.995 93.2039C583.836 89.0922 561.026 83.1156 549.877 86.829Z" fill="#1C2959"/>
<path d="M566.946 113.845L565.102 139.758C565.102 139.758 578.435 145.664 583.437 134.154L578.897 109.221L566.946 113.845Z" fill="#D7A28E"/>
<path d="M575.54 119.068C575.54 119.068 575.563 136.012 565.094 138.776L566.234 125.211L575.54 119.068Z" fill="#CE9784"/>
<path d="M579.65 96.1233C579.588 97.5466 579.281 112.194 579.281 112.194L579.281 112.203C576.765 121.908 570.46 129.64 559.823 128.737C548.965 127.823 545.042 108.676 548.728 90.4271C557.921 86.0438 572.875 93.0738 572.875 93.0738C574.32 97.4929 577.361 102.394 579.65 96.1233Z" fill="#D7A28E"/>
<path d="M576.194 94.373C576.194 94.373 574.641 110.981 572.586 115.384C570.532 119.787 570.532 116.264 563.928 114.65C557.324 113.036 547.784 114.65 549.399 119.053C551.013 123.455 552.187 130.647 564.221 130.06C576.255 129.473 579.631 109.22 579.631 109.22L579.772 96.5418L576.194 94.373Z" fill="#1C2959"/>
<path d="M583.14 132.73C583.14 132.73 578.523 140.134 571.349 139.362C565.479 138.729 565.398 135.389 565.398 135.389C565.398 135.389 564.112 138.231 563.764 139.028C563.886 140.222 564.523 145.654 571.932 145.365C583.257 144.923 586.925 136.836 586.925 136.836L583.14 132.73Z" fill="#D66D53"/>
<path d="M590.02 99.085C590.02 99.085 594.965 76.6776 580.325 71.9528C565.684 67.2282 555.076 73.1156 555.076 73.1156L547.589 83.4355C547.589 83.4355 577.791 89.0488 590.02 99.085Z" fill="#EB962C"/>
<path opacity="0.5" d="M590.03 99.0968C577.787 89.0555 547.59 83.4378 547.59 83.4378L555.082 73.1168C555.082 73.1168 559.956 70.4094 567.661 70.1348C560.768 74.24 557.925 81.9884 560.349 83.2708C563.797 85.1094 584.105 91.6957 586.852 88.8975C588.914 86.8446 587.717 80.3883 587.022 76.7013C593.158 84.8626 590.03 99.0968 590.03 99.0968Z" fill="#D88225"/>
<path d="M569.855 84.063C569.855 84.063 572.832 73.5916 579.557 71.7247C579.557 71.7247 570.548 68.7154 562.392 70.3214C555.46 71.6863 551.624 82.4492 551.624 82.4492L569.855 84.063Z" fill="#EB962C"/>
<path d="M556.37 77.7532L569.673 79.1967C569.673 79.1967 574.251 69.487 580.27 71.9976L576.957 67.7427L568.004 66.8047L561.207 70.2969L556.413 76.8676L556.37 77.7532Z" fill="#D88225"/>
<path d="M562.006 70.2325C562.006 70.2325 570.311 71.073 571.894 71.2192C571.717 71.4972 569.223 75.9349 569.104 77.555L557.276 76.6616C557.276 76.6616 565.74 76.6087 566.88 75.6401C568.021 74.6715 569.042 73.888 567.785 72.6684C566.528 71.4482 562.006 70.2325 562.006 70.2325ZM562.987 69.8025C562.987 69.8025 571.819 70.8118 571.966 70.7439C572.113 70.6754 576.498 68.0066 576.415 67.9978C576.333 67.9892 568.274 67.0605 568.274 67.0605L562.987 69.8025Z" fill="#EB962C"/>
<path d="M572.117 87.2676C572.117 87.2676 590.683 95.594 591.052 98.4521C591.42 101.31 586.949 104.329 586.949 104.329L587.561 102.019C587.561 102.019 578.35 95.0439 573.873 93.1648C569.396 91.2859 572.117 87.2676 572.117 87.2676Z" fill="#D88225"/>
<path d="M577.873 109.009C576.078 106.529 577.781 99.2936 579.69 96.9015C580.976 95.291 585.722 95.4904 587.064 99.2095C588.472 103.11 585.1 107.772 581.336 109.494C580.102 110.059 578.565 109.965 577.873 109.009Z" fill="#D7A28E"/>
<path d="M580.171 104.044C580.462 102.288 584.821 99.4885 585.095 100.102C585.095 100.102 582.029 102.201 582.137 103.16C582.246 104.119 583.232 104.268 582.254 104.828C581.276 105.388 579.931 105.49 580.171 104.044Z" fill="#1C2959"/>
<path d="M540.552 85.4436C540.552 85.4436 540.234 82.8134 541.362 81.9672C542.489 81.1208 554.117 78.4815 566.085 81.8129C578.052 85.1443 576.653 92.9489 576.653 92.9489L576.195 94.3724L564.887 86.6337L540.552 85.4436Z" fill="#D88225"/>
<path d="M547.194 90.7404C547.194 90.7404 561.453 87.783 576.194 94.3732C576.194 94.3732 577.69 86.0794 566.127 82.9433C557.434 80.5855 542.779 80.4841 540.795 83.8372C538.811 87.1912 547.194 90.7404 547.194 90.7404Z" fill="#FEAA32"/>
<path d="M560.783 101.952C559.965 102.922 560.315 106.373 559.504 106.884C558.693 107.395 557.118 106.557 557.175 107.8C557.232 109.043 559.757 110.881 560.035 110.4C560.314 109.92 558.93 108.554 558.93 108.554C558.93 108.554 560.175 108.409 560.682 107.624C561.19 106.838 561.515 101.084 560.783 101.952ZM569.332 101.763C569.163 102.721 568.221 103.376 567.247 103.189C566.29 103.003 565.634 102.077 565.821 101.104C566.005 100.163 566.877 99.5354 567.822 99.6687C567.651 99.8219 567.51 100.03 567.466 100.282C567.355 100.853 567.742 101.408 568.313 101.518C568.718 101.578 569.11 101.431 569.33 101.128C569.379 101.322 569.372 101.544 569.332 101.763ZM558.513 93.9869C557.934 93.6021 557.299 93.427 556.64 93.2922C555.981 93.1651 555.279 93.0697 554.607 93.0061C553.255 92.8889 551.927 92.8554 550.571 93.3443C550.467 93.3798 550.122 92.9179 550.215 92.8256C550.782 92.2445 551.531 91.8142 552.325 91.5754C553.119 91.3301 553.954 91.2598 554.762 91.3267C555.574 91.3951 556.349 91.5821 557.108 91.92C557.857 92.2566 558.596 92.8028 559.005 93.558C559.076 93.6858 558.602 94.045 558.513 93.9869ZM554.941 100.207C554.772 101.166 553.829 101.821 552.856 101.633C551.899 101.447 551.242 100.522 551.43 99.5483C551.613 98.6075 552.485 97.9799 553.43 98.1134C553.26 98.2664 553.118 98.4744 553.075 98.7265C552.963 99.2973 553.35 99.852 553.922 99.9627C554.326 100.023 554.718 99.8753 554.939 99.5727C554.987 99.7662 554.981 99.9884 554.941 100.207ZM570.797 95.2745C570.219 94.8897 569.584 94.7141 568.924 94.5792C568.265 94.4524 567.564 94.357 566.892 94.2935C565.539 94.176 564.212 94.1425 562.856 94.6314C562.752 94.6672 562.406 94.205 562.5 94.113C563.067 93.5318 563.816 93.1013 564.609 92.8627C565.404 92.6174 566.239 92.5468 567.046 92.614C567.858 92.6827 568.634 92.8692 569.393 93.2076C570.141 93.544 570.88 94.0904 571.29 94.8453C571.361 94.9729 570.887 95.3324 570.797 95.2745Z" fill="#1C2959"/>
<path d="M556.148 120.17C556.83 120.301 557.483 120.217 558.143 120.085C558.8 119.946 559.484 119.762 560.128 119.561C561.42 119.144 562.656 118.66 563.717 117.683C563.799 117.61 564.296 117.902 564.246 118.023C563.949 118.779 563.425 119.466 562.787 119.994C562.15 120.528 561.407 120.917 560.637 121.168C559.861 121.42 559.074 121.549 558.244 121.531C557.423 121.511 556.53 121.294 555.86 120.757C555.745 120.667 556.043 120.152 556.148 120.17Z" fill="#F2F6F9"/>
<path d="M570.135 184.349C579.655 197.212 563.425 264.686 569.276 293.29C549.143 292.801 530.325 291.659 529.652 289.743C528.276 285.838 538.521 206.1 538.521 206.1C554.312 180.564 554.156 143.407 554.156 143.407C554.156 143.407 558.318 139.278 561.212 140.196C564.098 141.103 560.846 180.564 563.516 181.023C564.679 181.227 567.814 181.212 570.135 184.349Z" fill="#FEAA32"/>
<path d="M569.281 293.296C549.147 292.807 530.329 291.665 529.656 289.748C528.953 287.76 531.267 266.129 533.703 245.363C550.381 250.909 562.084 240.755 562.716 223.048C563.246 208.522 548.678 202.589 541.614 200.57C548.811 186.37 551.879 169.886 553.184 158.285C555.356 162.495 558.465 167.205 562.379 169.744C562.39 176.033 562.593 180.865 563.521 181.028C564.683 181.232 567.813 181.212 570.137 184.352C579.658 197.216 563.429 264.691 569.281 293.296Z" fill="#EB962C"/>
<path d="M639.534 285.471C638.424 290.146 627.821 291.119 618.412 292.74C614.752 293.372 600.847 293.658 585.138 293.525C579.195 264.283 577.882 204.225 582.103 188.424C582.848 185.635 587.045 183.755 590.052 182.308C595.016 173.907 595.862 137.688 595.862 137.688C597.167 136.098 604.425 140.237 604.425 140.237C596.861 198.455 625.527 212.905 625.527 212.905C625.527 212.905 631.361 245.52 635.505 267.036C635.94 269.298 639.532 269.444 639.594 272.311C639.627 273.824 637.357 275.7 637.569 277.013C638.42 282.28 640.78 280.224 639.534 285.471Z" fill="#FEAA32"/>
<path d="M639.539 285.477C638.427 290.146 627.825 291.125 618.416 292.746C614.757 293.378 600.852 293.663 585.143 293.531C579.199 264.284 577.884 204.23 582.105 188.429C582.737 186.044 597.126 191.967 600.296 217.656C602.02 231.632 598.507 242.203 604.695 248.391C608.528 252.224 622.035 247.708 631.444 245.394C631.944 248.095 632.443 250.838 632.953 253.539C621.913 260.654 604.012 268.636 609.761 268.81C617.774 269.034 632.453 263.764 628.783 266.516C625.114 269.268 597.07 272.245 604.328 275.232C611.576 278.208 624.42 279.105 617.998 280.839C611.576 282.571 589.332 280.961 598.731 285.548C607.468 289.809 629.099 288.902 639.834 282.408C639.956 283.051 639.895 283.958 639.539 285.477Z" fill="#EB962C"/>
<path d="M531.615 257.211C537.179 261.465 548.146 260.422 548.146 262.257C548.146 264.092 551.358 272.35 548.146 272.579C544.935 272.808 530.565 272.414 529.723 270.547C528.88 268.68 530.717 256.525 531.615 257.211ZM633.307 255.625C627.743 259.878 615.731 258.297 615.731 260.132C615.731 261.967 612.52 270.224 615.731 270.453C618.942 270.683 634.717 269.604 635.56 267.737C636.403 265.87 634.205 254.939 633.307 255.625Z" fill="#D88225"/>
<path d="M609.856 214.248L596.653 213.033C595.287 206.448 592.678 200.331 589.11 194.888L597.608 184.676C598.204 183.958 598.156 182.904 597.496 182.244L586.433 171.18C585.772 170.52 584.717 170.472 584 171.069L573.788 179.576C568.345 175.998 562.228 173.399 555.653 172.022L554.438 158.82C554.353 157.891 553.573 157.18 552.64 157.18H536.994C536.06 157.18 535.281 157.891 535.195 158.82L533.98 172.022C527.395 173.399 521.289 175.998 515.835 179.576L505.623 171.069C504.906 170.472 503.851 170.52 503.19 171.18L492.127 182.243C491.467 182.903 491.419 183.958 492.017 184.676L500.524 194.888C496.945 200.331 494.346 206.458 492.97 213.033L479.768 214.248C478.838 214.334 478.127 215.113 478.127 216.046V231.693C478.127 232.626 478.838 233.405 479.767 233.491L492.97 234.706C494.346 241.291 496.945 247.418 500.524 252.851L492.016 263.073C491.419 263.791 491.467 264.846 492.128 265.506L503.191 276.561C503.851 277.22 504.905 277.268 505.622 276.671L515.835 268.173C515.836 268.173 515.837 268.173 515.839 268.173C521.277 271.739 527.387 274.346 533.98 275.717L534.187 288.884C534.203 289.87 535.007 290.661 535.993 290.661H553.641C554.627 290.661 555.431 289.87 555.447 288.884L555.653 275.717C558.61 275.105 569.324 272.648 573.789 268.173L584.001 276.671C584.718 277.268 585.772 277.22 586.433 276.561L597.497 265.505C598.157 264.845 598.206 263.791 597.609 263.073L589.11 252.851C592.678 247.418 595.288 241.291 596.654 234.706L609.856 233.491C610.786 233.405 611.497 232.626 611.497 231.693V216.046C611.496 215.113 610.785 214.334 609.856 214.248ZM544.806 251.393C529.637 251.393 517.343 239.089 517.343 223.92C517.343 208.752 529.637 196.458 544.806 196.458C559.985 196.458 572.269 208.752 572.269 223.92C572.269 239.089 559.985 251.393 544.806 251.393Z" fill="#C52127"/>
<path d="M603.782 217.315L593.66 216.376L593.118 213.767C591.872 207.762 589.506 202.083 586.093 196.864L584.622 194.624L591.141 186.796C592.631 184.999 592.513 182.362 590.861 180.71L587.963 177.811C586.31 176.159 583.673 176.042 581.877 177.532L574.039 184.06L571.809 182.588C566.617 179.184 560.938 176.809 554.915 175.554L552.306 175.004L551.367 164.89C551.159 162.561 549.208 160.791 546.87 160.791H542.762C540.423 160.791 538.482 162.561 538.265 164.89L537.335 175.004L534.716 175.554C528.703 176.809 523.023 179.175 517.813 182.588L515.583 184.06L507.746 177.532C505.949 176.042 503.313 176.159 501.669 177.811L498.762 180.71C497.109 182.362 496.992 184.999 498.491 186.796L505.01 194.633L503.538 196.864C500.134 202.047 497.768 207.735 496.504 213.767L495.963 216.385L485.84 217.315C483.52 217.523 481.741 219.473 481.741 221.812V225.92C481.741 228.259 483.52 230.2 485.84 230.417L495.963 231.347L496.504 233.966C497.768 240.006 500.134 245.686 503.538 250.86L505.01 253.099L498.482 260.946C496.992 262.742 497.109 265.379 498.762 267.022L501.669 269.93C503.313 271.573 505.949 271.699 507.746 270.201L515.566 263.7L518.22 265.406C523.313 268.684 528.866 270.959 534.717 272.178L537.543 272.765L537.706 282.598C537.742 285.063 539.746 287.05 542.211 287.05H547.421C549.886 287.05 551.891 285.063 551.936 282.598L552.089 272.765L554.925 272.178C560.604 271.004 568.279 268.575 571.232 265.614L573.562 263.284L581.878 270.201C583.674 271.7 586.311 271.573 587.963 269.93L590.862 267.022C592.514 265.37 592.64 262.733 591.142 260.946L584.622 253.099L586.094 250.869C589.507 245.659 591.873 239.979 593.119 233.966L593.661 231.347L603.783 230.417C606.112 230.2 607.882 228.259 607.882 225.92V221.812C607.881 219.473 606.112 217.523 603.782 217.315ZM541.443 254.823C527.032 253.298 515.447 241.722 513.912 227.311C511.853 207.97 527.655 191.672 546.842 192.909C562.301 193.902 574.834 206.444 575.818 221.893C577.037 241.072 560.757 256.864 541.443 254.823Z" fill="#FFE0D8"/>
<path d="M542.675 243.505C533.544 242.538 526.204 235.204 525.232 226.073C523.927 213.819 533.939 203.493 546.096 204.276C555.89 204.906 563.831 212.852 564.454 222.64C565.226 234.792 554.912 244.798 542.675 243.505Z" fill="#C52127"/>
<path d="M542.672 243.507C536.836 242.888 531.734 239.669 528.567 235.037C531.149 236.782 534.167 237.924 537.412 238.273C549.65 239.564 559.96 229.559 559.192 217.409C558.957 213.798 557.736 210.448 555.79 207.613C560.701 210.936 564.059 216.414 564.452 222.642C565.229 234.793 554.91 244.798 542.672 243.507Z" fill="#C52127"/>
<path d="M544.806 187.523C524.713 187.523 508.413 203.814 508.413 223.916C508.413 244.019 524.713 260.319 544.806 260.319C564.909 260.319 581.209 244.019 581.209 223.916C581.209 203.813 564.909 187.523 544.806 187.523ZM544.806 251.389C529.637 251.389 517.343 239.085 517.343 223.916C517.343 208.748 529.637 196.453 544.806 196.453C559.985 196.453 572.269 208.748 572.269 223.916C572.269 239.085 559.985 251.389 544.806 251.389Z" fill="#C52127"/>
<path d="M647.292 189.382C629.177 193.174 621.379 203.644 619.442 206.722L619.268 206.406C619.268 206.406 602.897 178.352 604.426 140.236C604.426 140.236 632.256 167.577 647.292 189.382Z" fill="#FF9C83"/>
<path opacity="0.5" d="M634.737 193.678C635.125 192.414 635.155 191.201 634.737 190.059C631.577 181.425 613.472 152.963 606.795 142.596C613.819 149.681 634.9 171.414 647.296 189.387C642.383 190.416 638.224 191.935 634.737 193.678Z" fill="#CD6A51"/>
<path d="M614.9 150.213C614.25 150.863 613.218 151.589 613.218 151.818C613.218 152.048 625.757 169.021 626.598 169.25C627.439 169.48 631.491 167.951 630.956 166.345C630.42 164.739 614.9 150.213 614.9 150.213Z" fill="#D66D53"/>
<path d="M496.438 195.545C496.438 195.545 493.85 192.6 498.756 190.686C503.663 188.772 505.56 191.746 504.582 193.144C503.604 194.541 503.081 195.511 500.187 195.341C500.187 195.341 502.387 196.573 501.524 198.304C500.661 200.034 498.778 200.423 498.778 200.423C498.778 200.423 500.958 201.113 500.971 202.101C500.984 203.088 499.377 204.993 496.865 205.069C496.865 205.069 498.947 206.574 496.587 208.503C494.227 210.431 494.11 209.445 494.11 209.445L492.93 212.806C492.93 212.806 489.096 209.827 492.522 205.319C492.522 205.319 490.604 202.198 494.67 200.802C494.67 200.801 491.64 196.786 496.438 195.545Z" fill="#D7A28E"/>
<path d="M496.479 195.571C496.536 195.728 497.377 195.52 498.414 195.482C499.453 195.428 500.29 195.575 500.342 195.438C500.408 195.289 499.533 194.869 498.39 194.927C497.245 194.972 496.422 195.444 496.479 195.571ZM494.561 200.761C494.594 200.835 494.829 200.806 495.2 200.774C495.572 200.741 496.088 200.71 496.664 200.682C497.817 200.626 498.767 200.578 498.778 200.423C498.79 200.273 497.835 200.069 496.637 200.127C496.038 200.156 495.495 200.253 495.115 200.391C494.733 200.528 494.53 200.696 494.561 200.761ZM492.522 205.319C492.566 205.391 492.806 205.321 493.188 205.261C493.573 205.205 494.111 205.17 494.717 205.179C495.929 205.193 496.931 205.303 496.963 205.149C496.999 205.004 496.014 204.64 494.722 204.623C494.079 204.613 493.486 204.716 493.083 204.883C492.677 205.054 492.485 205.262 492.522 205.319Z" fill="#CE9784"/>
<path d="M655.925 231.463C651.512 238.497 586.714 278.582 586.714 278.582C586.714 278.582 579.26 284.22 577.78 282.057C576.405 280.032 577.701 279.621 578.346 279.089C577.509 279.648 574.465 281.381 573.369 279.439C572.284 277.528 574.134 275.784 574.968 275.124C573.921 275.812 570.296 277.947 569.149 275.681C567.969 273.364 571.918 270.892 572.527 270.494C571.967 270.809 567.474 273.287 566.425 270.915C565.773 269.448 572.07 263.319 576.513 260.486C576.399 259.551 572.376 253.675 575.284 253.403C578.182 253.131 584.762 257.697 584.762 257.697L626.5 220.513L618.466 206.464C620.297 203.322 627.737 192.595 645.713 188.191C654.475 201.037 659.438 225.867 655.925 231.463Z" fill="#D7A28E"/>
<path d="M655.924 231.465C655.101 232.778 652.166 235.244 647.947 238.385C655.178 221.494 644.662 201.909 637.054 191.09C639.627 189.973 642.501 188.988 645.717 188.195C654.475 201.036 659.437 225.868 655.924 231.465Z" fill="#CE9784"/>
<path d="M616.603 204.953C616.603 204.953 618.579 208.369 620.065 208.726C621.552 209.084 629.482 197.692 636.909 194.863C644.335 192.034 649.228 192.263 648.923 190.275C648.617 188.288 646.705 183.853 645.253 183.624C643.8 183.394 622.892 189.124 616.603 204.953Z" fill="#D66D53"/>
<path d="M627.439 221.358C627.329 221.469 627.518 221.588 627.917 221.706C628.68 222.426 633.316 224.586 634.035 223.952C634.372 223.654 634.022 222.971 633.241 222.356C635.889 222.476 638.499 222.341 638.784 221.66C639.398 220.192 631.504 217.296 627.439 221.358Z" fill="#CE9784"/>
<path d="M161.143 288.192C144.91 287.366 126.976 285.478 107.342 282.529L108.344 262.845C129.752 265.397 145.754 266.942 156.35 267.481C158.586 267.595 160.368 267.053 161.696 265.853C163.126 264.562 163.898 262.798 164.012 260.562L164.383 253.272C164.68 247.439 161.912 244.374 156.08 244.077L113.794 241.925L116.838 182.142L186.827 185.705L185.788 206.119L142.044 203.892L141.079 222.847L164.409 224.035C173.936 224.52 180.823 227.063 185.072 231.665C189.326 236.17 191.228 242.845 190.777 251.691L190.258 261.898C189.773 271.424 187.181 278.31 182.482 282.553C177.782 286.797 170.67 288.677 161.143 288.192ZM261.182 217.266C261.478 211.434 258.711 208.369 252.878 208.072L236.839 207.256C231.007 206.959 227.942 209.726 227.645 215.559L225.27 262.219C224.973 268.051 227.741 271.116 233.573 271.413L249.612 272.229C255.445 272.526 258.509 269.758 258.806 263.926L261.182 217.266ZM285.052 265.262C284.533 275.469 281.821 282.786 276.918 287.215C272.116 291.551 264.612 293.459 254.406 292.939L226.701 291.529C216.495 291.01 209.175 288.347 204.741 283.54C200.41 278.642 198.504 271.089 199.024 260.882L201.399 214.223C201.918 204.016 204.579 196.745 209.38 192.408C214.284 187.98 221.839 186.026 232.046 186.545L259.75 187.955C269.957 188.475 277.226 191.184 281.557 196.083C285.99 200.889 287.947 208.395 287.428 218.602L285.052 265.262ZM346.255 297.615C330.022 296.789 312.088 294.901 292.454 291.953L293.456 272.268C314.864 274.82 330.866 276.365 341.462 276.905C343.698 277.018 345.48 276.476 346.808 275.276C348.238 273.985 349.01 272.221 349.124 269.985L349.421 264.153C349.717 258.32 346.95 255.256 341.117 254.959L310.497 253.4L311.536 232.986L339.24 234.397C345.073 234.694 348.137 231.926 348.434 226.093L348.583 223.177C348.88 217.345 346.112 214.28 340.279 213.983L297.994 211.831L299.033 191.417L348.609 193.941C358.135 194.426 365.023 196.969 369.272 201.571C373.526 206.076 375.427 212.751 374.977 221.597C374.68 227.429 373.077 232.123 370.167 235.679C367.359 239.142 363.731 241.491 359.283 242.726C367.048 245.266 372.127 250.787 374.52 259.29C375.339 262.353 375.647 265.878 375.444 269.863L375.37 271.321C374.885 280.848 372.293 287.733 367.594 291.977C362.894 296.221 355.782 298.1 346.255 297.615Z" fill="black"/>
<path d="M195.858 340.498C193.923 340.451 192.246 340.107 190.826 339.467C189.405 338.826 188.317 337.864 187.561 336.581C186.805 335.298 186.45 333.681 186.497 331.728L186.801 319.15C186.806 318.924 186.885 318.741 187.037 318.6C187.189 318.46 187.382 318.392 187.616 318.398L191.73 318.497C191.964 318.503 192.159 318.58 192.315 318.727C192.471 318.875 192.546 319.062 192.54 319.288L192.238 331.835C192.206 333.172 192.511 334.182 193.154 334.865C193.796 335.549 194.724 335.905 195.936 335.935C197.126 335.963 198.064 335.652 198.75 335C199.436 334.349 199.795 333.355 199.827 332.018L200.13 319.471C200.135 319.245 200.219 319.062 200.382 318.922C200.545 318.782 200.733 318.714 200.946 318.719L205.091 318.819C205.303 318.825 205.488 318.901 205.644 319.049C205.8 319.197 205.875 319.384 205.869 319.61L205.566 332.188C205.519 334.141 205.087 335.739 204.27 336.984C203.453 338.229 202.325 339.138 200.886 339.709C199.447 340.281 197.771 340.544 195.858 340.498ZM210.406 340.54C210.172 340.535 209.982 340.453 209.837 340.295C209.692 340.137 209.622 339.956 209.627 339.75L210.11 319.712C210.116 319.486 210.194 319.303 210.347 319.162C210.499 319.022 210.692 318.954 210.926 318.96L214.306 319.042C214.667 319.05 214.926 319.134 215.082 319.292C215.238 319.45 215.336 319.571 215.376 319.654L222.871 331.68L223.152 320.026C223.158 319.8 223.237 319.617 223.389 319.477C223.541 319.337 223.734 319.269 223.968 319.275L227.795 319.367C228.029 319.372 228.218 319.449 228.363 319.597C228.509 319.744 228.579 319.931 228.573 320.157L228.091 340.165C228.086 340.391 228.006 340.579 227.854 340.73C227.701 340.88 227.508 340.953 227.274 340.947L223.862 340.865C223.522 340.856 223.274 340.768 223.119 340.6C222.963 340.432 222.865 340.316 222.824 340.254L215.318 328.659L215.048 339.881C215.043 340.087 214.964 340.265 214.812 340.415C214.659 340.566 214.466 340.638 214.232 340.632L210.406 340.54ZM233.333 341.093C233.098 341.087 232.909 341.006 232.764 340.848C232.619 340.69 232.549 340.509 232.554 340.303L233.037 320.265C233.043 320.039 233.121 319.855 233.274 319.715C233.426 319.575 233.619 319.507 233.853 319.513L242.144 319.713C244.227 319.763 245.995 320.13 247.446 320.813C248.897 321.495 250.001 322.468 250.757 323.73C251.514 324.993 251.902 326.539 251.922 328.37C251.921 329.275 251.913 330.066 251.897 330.745C251.88 331.423 251.85 332.204 251.808 333.087C251.677 334.996 251.219 336.569 250.434 337.804C249.649 339.04 248.532 339.944 247.082 340.515C245.633 341.087 243.866 341.347 241.783 341.297L233.333 341.093ZM238.382 336.773L241.731 336.854C242.645 336.876 243.408 336.755 244.021 336.492C244.633 336.229 245.101 335.804 245.423 335.215C245.746 334.626 245.929 333.85 245.974 332.884C246.031 332.289 246.07 331.755 246.092 331.283C246.114 330.81 246.126 330.338 246.127 329.865C246.127 329.392 246.113 328.867 246.085 328.29C246.076 326.892 245.723 325.86 245.027 325.196C244.33 324.531 243.281 324.182 241.878 324.148L238.689 324.071L238.382 336.773ZM256.164 341.643C255.93 341.638 255.741 341.556 255.596 341.398C255.45 341.241 255.38 341.059 255.385 340.853L255.869 320.815C255.874 320.589 255.953 320.406 256.105 320.265C256.257 320.125 256.45 320.058 256.685 320.063L271.576 320.422C271.81 320.428 271.999 320.505 272.145 320.652C272.29 320.8 272.36 320.987 272.355 321.213L272.285 324.11C272.279 324.337 272.2 324.52 272.048 324.66C271.896 324.8 271.703 324.868 271.469 324.862L261.297 324.617L261.197 328.779L270.667 329.007C270.901 329.013 271.09 329.094 271.236 329.252C271.38 329.41 271.451 329.602 271.445 329.828L271.38 332.51C271.375 332.716 271.297 332.894 271.144 333.044C270.992 333.194 270.798 333.267 270.564 333.262L261.094 333.033L260.991 337.319L271.418 337.57C271.652 337.576 271.841 337.652 271.987 337.799C272.132 337.947 272.202 338.134 272.197 338.36L272.127 341.258C272.122 341.464 272.043 341.642 271.891 341.792C271.738 341.943 271.545 342.015 271.311 342.009L256.164 341.644L256.164 341.643ZM276.54 342.135C276.306 342.129 276.116 342.047 275.972 341.89C275.826 341.732 275.756 341.551 275.761 341.345L276.244 321.306C276.25 321.08 276.329 320.897 276.481 320.757C276.633 320.617 276.826 320.549 277.06 320.555L285.733 320.764C288.497 320.83 290.651 321.495 292.195 322.755C293.738 324.016 294.483 325.766 294.429 328.006C294.394 329.466 294.003 330.69 293.256 331.68C292.508 332.669 291.534 333.407 290.331 333.892L294.517 341.581C294.577 341.706 294.607 341.82 294.604 341.922C294.6 342.087 294.527 342.234 294.386 342.364C294.245 342.495 294.089 342.558 293.919 342.553L289.678 342.451C289.274 342.441 288.979 342.337 288.792 342.137C288.605 341.937 288.471 341.754 288.39 341.587L284.919 334.717L281.666 334.639L281.501 341.483C281.496 341.689 281.412 341.866 281.249 342.017C281.086 342.167 280.887 342.239 280.653 342.234L276.54 342.135ZM281.772 330.262L285.439 330.35C286.438 330.374 287.193 330.156 287.704 329.695C288.215 329.234 288.48 328.603 288.5 327.802C288.519 327 288.295 326.347 287.829 325.842C287.363 325.338 286.608 325.073 285.567 325.048L281.899 324.959L281.772 330.262Z" fill="#4D4D4D"/>
<path d="M125.341 367.3C125.128 367.295 124.945 367.211 124.79 367.047C124.634 366.883 124.559 366.695 124.564 366.481L125.066 345.681C125.071 345.447 125.156 345.256 125.318 345.111C125.481 344.966 125.668 344.895 125.881 344.9L129.319 344.983C129.68 344.992 129.943 345.089 130.109 345.274C130.274 345.46 130.377 345.606 130.417 345.714L135.777 355.929L141.623 345.984C141.69 345.879 141.805 345.738 141.968 345.56C142.132 345.383 142.394 345.298 142.755 345.307L146.161 345.389C146.395 345.395 146.589 345.474 146.745 345.627C146.901 345.781 146.975 345.975 146.97 346.209L146.468 367.009C146.463 367.223 146.379 367.407 146.216 367.563C146.053 367.719 145.854 367.795 145.621 367.789L141.833 367.698C141.599 367.692 141.405 367.607 141.249 367.444C141.094 367.28 141.019 367.091 141.024 366.878L141.313 354.878L137.586 361.48C137.475 361.67 137.333 361.837 137.16 361.982C136.986 362.127 136.751 362.196 136.454 362.189L134.799 362.149C134.501 362.142 134.27 362.062 134.104 361.908C133.937 361.755 133.804 361.581 133.702 361.386L130.266 354.612L129.976 366.611C129.971 366.825 129.892 367.01 129.74 367.166C129.587 367.322 129.395 367.398 129.161 367.392L125.341 367.3ZM149.633 367.886C149.462 367.882 149.31 367.809 149.176 367.667C149.041 367.525 148.976 367.368 148.98 367.198C148.983 367.091 148.995 366.995 149.019 366.911L156.996 346.547C157.065 346.314 157.203 346.109 157.409 345.933C157.615 345.757 157.898 345.672 158.259 345.681L162.971 345.795C163.332 345.803 163.611 345.901 163.808 346.087C164.006 346.274 164.133 346.485 164.191 346.72L171.146 367.444C171.186 367.531 171.205 367.627 171.203 367.734C171.199 367.905 171.126 368.057 170.985 368.192C170.843 368.328 170.677 368.393 170.486 368.389L166.57 368.294C166.252 368.287 166.015 368.201 165.859 368.037C165.704 367.873 165.607 367.726 165.567 367.597L164.404 364.304L155.904 364.099L154.615 367.333C154.569 367.46 154.471 367.602 154.318 367.759C154.166 367.915 153.909 367.989 153.549 367.98L149.633 367.886ZM157.32 359.522L163.242 359.665L160.485 351.145L157.32 359.522ZM174.497 368.485C174.263 368.48 174.074 368.395 173.93 368.232C173.785 368.068 173.715 367.88 173.72 367.666L174.222 346.866C174.227 346.632 174.306 346.441 174.459 346.295C174.61 346.15 174.803 346.079 175.037 346.085L179.303 346.188C179.537 346.194 179.731 346.273 179.887 346.426C180.043 346.58 180.117 346.774 180.112 347.008L179.61 367.808C179.605 368.022 179.521 368.206 179.358 368.362C179.195 368.519 178.996 368.594 178.763 368.588L174.497 368.485ZM184.812 368.734C184.578 368.728 184.389 368.644 184.245 368.48C184.1 368.317 184.03 368.128 184.035 367.915L184.537 347.115C184.543 346.88 184.621 346.69 184.774 346.544C184.925 346.399 185.118 346.328 185.352 346.334L188.727 346.415C189.087 346.424 189.346 346.51 189.501 346.674C189.656 346.838 189.754 346.963 189.795 347.05L197.267 359.525L197.558 347.429C197.564 347.195 197.643 347.004 197.795 346.858C197.947 346.713 198.14 346.642 198.373 346.648L202.194 346.74C202.427 346.746 202.617 346.825 202.762 346.978C202.906 347.131 202.976 347.325 202.971 347.56L202.47 368.327C202.464 368.562 202.385 368.758 202.233 368.914C202.08 369.071 201.887 369.146 201.654 369.14L198.247 369.058C197.907 369.05 197.66 368.959 197.505 368.784C197.35 368.61 197.252 368.49 197.211 368.425L189.729 356.398L189.448 368.046C189.443 368.26 189.363 368.444 189.212 368.601C189.059 368.757 188.866 368.833 188.633 368.827L184.812 368.735L184.812 368.734ZM212.606 369.404C212.372 369.398 212.183 369.314 212.038 369.15C211.894 368.987 211.824 368.798 211.829 368.585L212.228 352.009L206.562 351.872C206.328 351.866 206.139 351.782 205.994 351.618C205.849 351.454 205.78 351.266 205.785 351.053L205.867 347.629C205.873 347.394 205.952 347.204 206.104 347.058C206.256 346.913 206.449 346.842 206.683 346.848L223.811 347.261C224.044 347.266 224.234 347.346 224.379 347.499C224.523 347.652 224.594 347.846 224.588 348.08L224.505 351.504C224.5 351.718 224.421 351.902 224.269 352.059C224.116 352.215 223.923 352.291 223.69 352.285L218.023 352.148L217.623 368.724C217.618 368.938 217.539 369.123 217.387 369.279C217.234 369.436 217.041 369.511 216.808 369.505L212.606 369.404ZM227.76 369.769C227.526 369.764 227.337 369.679 227.193 369.516C227.048 369.352 226.978 369.164 226.983 368.95L227.484 348.15C227.49 347.916 227.569 347.725 227.721 347.58C227.873 347.434 228.066 347.364 228.3 347.369L243.168 347.728C243.401 347.733 243.59 347.813 243.735 347.966C243.88 348.119 243.95 348.313 243.944 348.547L243.872 351.555C243.866 351.79 243.787 351.98 243.635 352.126C243.483 352.271 243.29 352.342 243.057 352.336L232.901 352.091L232.797 356.411L242.252 356.639C242.485 356.645 242.674 356.729 242.819 356.893C242.964 357.057 243.034 357.256 243.028 357.491L242.961 360.274C242.956 360.488 242.877 360.673 242.725 360.829C242.572 360.985 242.379 361.061 242.146 361.055L232.69 360.828L232.583 365.275L242.994 365.526C243.227 365.532 243.416 365.611 243.561 365.764C243.706 365.917 243.776 366.111 243.77 366.346L243.698 369.354C243.693 369.567 243.614 369.752 243.461 369.908C243.309 370.065 243.116 370.14 242.883 370.135L227.76 369.77L227.76 369.769ZM248.104 370.26C247.87 370.254 247.681 370.17 247.536 370.006C247.391 369.843 247.322 369.654 247.327 369.441L247.828 348.641C247.834 348.406 247.913 348.216 248.065 348.07C248.217 347.925 248.41 347.854 248.644 347.86L252.018 347.941C252.379 347.95 252.637 348.036 252.793 348.2C252.948 348.364 253.046 348.489 253.087 348.576L260.558 361.051L260.85 348.955C260.856 348.721 260.934 348.53 261.087 348.384C261.239 348.239 261.431 348.168 261.665 348.174L265.486 348.266C265.719 348.272 265.908 348.351 266.053 348.504C266.198 348.657 266.268 348.851 266.262 349.086L265.762 369.853C265.756 370.088 265.677 370.284 265.524 370.44C265.372 370.597 265.179 370.672 264.946 370.666L261.539 370.584C261.199 370.576 260.952 370.485 260.797 370.31C260.642 370.136 260.544 370.016 260.503 369.951L253.02 357.924L252.74 369.572C252.734 369.786 252.655 369.97 252.503 370.127C252.351 370.283 252.158 370.359 251.924 370.353L248.104 370.261L248.104 370.26ZM268.925 370.762C268.755 370.758 268.603 370.685 268.468 370.543C268.334 370.401 268.268 370.245 268.273 370.074C268.275 369.967 268.288 369.872 268.312 369.787L276.289 349.423C276.358 349.19 276.495 348.986 276.702 348.809C276.908 348.633 277.191 348.548 277.552 348.557L282.264 348.671C282.624 348.679 282.903 348.777 283.101 348.963C283.298 349.15 283.426 349.361 283.484 349.597L290.438 370.32C290.479 370.407 290.498 370.503 290.495 370.61C290.491 370.781 290.418 370.933 290.277 371.069C290.135 371.204 289.969 371.269 289.779 371.265L285.863 371.17C285.544 371.163 285.307 371.077 285.152 370.913C284.996 370.749 284.899 370.603 284.86 370.474L283.697 367.18L275.196 366.975L273.908 370.209C273.862 370.336 273.763 370.478 273.611 370.635C273.459 370.791 273.202 370.865 272.841 370.856L268.925 370.762ZM276.613 362.398L282.535 362.541L279.777 354.021L276.613 362.398ZM293.79 371.361C293.555 371.356 293.366 371.271 293.222 371.108C293.077 370.944 293.008 370.756 293.013 370.542L293.514 349.742C293.52 349.508 293.599 349.317 293.751 349.172C293.903 349.026 294.096 348.956 294.33 348.961L297.704 349.043C298.065 349.051 298.323 349.138 298.478 349.302C298.634 349.466 298.732 349.591 298.772 349.677L306.244 362.152L306.536 350.057C306.541 349.822 306.62 349.632 306.772 349.486C306.924 349.34 307.117 349.27 307.351 349.275L311.171 349.368C311.405 349.373 311.594 349.453 311.739 349.606C311.884 349.758 311.954 349.952 311.948 350.187L311.447 370.955C311.442 371.19 311.362 371.385 311.21 371.542C311.058 371.698 310.865 371.773 310.631 371.768L307.225 371.686C306.885 371.677 306.638 371.586 306.483 371.412C306.328 371.238 306.23 371.117 306.189 371.053L298.706 359.025L298.425 370.673C298.42 370.887 298.341 371.072 298.189 371.228C298.036 371.385 297.843 371.46 297.61 371.454L293.79 371.362L293.79 371.361ZM325.014 372.434C323.019 372.386 321.308 372.014 319.88 371.318C318.452 370.622 317.357 369.624 316.592 368.325C315.826 367.026 315.424 365.426 315.385 363.525C315.385 362.65 315.397 361.711 315.422 360.708C315.446 359.706 315.48 358.746 315.523 357.829C315.652 355.975 316.136 354.407 316.974 353.125C317.812 351.844 318.96 350.89 320.42 350.263C321.879 349.636 323.596 349.346 325.57 349.394C326.97 349.428 328.26 349.635 329.441 350.016C330.621 350.397 331.649 350.933 332.524 351.627C333.399 352.321 334.075 353.148 334.551 354.109C335.026 355.071 335.261 356.149 335.253 357.344C335.27 357.537 335.208 357.696 335.067 357.82C334.925 357.945 334.759 358.005 334.568 358L330.271 357.896C329.995 357.89 329.784 357.826 329.638 357.705C329.492 357.585 329.37 357.363 329.272 357.04C329.002 355.902 328.538 355.117 327.879 354.685C327.221 354.253 326.403 354.026 325.427 354.002C324.26 353.974 323.328 354.277 322.634 354.911C321.938 355.546 321.541 356.619 321.441 358.132C321.335 359.88 321.292 361.672 321.311 363.508C321.339 365.025 321.684 366.116 322.348 366.783C323.011 367.45 323.926 367.798 325.094 367.826C326.07 367.849 326.903 367.656 327.593 367.246C328.282 366.835 328.778 366.079 329.081 364.976C329.173 364.658 329.301 364.443 329.463 364.329C329.625 364.216 329.844 364.162 330.12 364.169L334.418 364.272C334.609 364.277 334.771 364.345 334.907 364.476C335.042 364.608 335.096 364.769 335.07 364.961C335.02 366.155 334.734 367.221 334.213 368.158C333.691 369.095 332.977 369.889 332.069 370.539C331.161 371.19 330.109 371.677 328.912 372C327.714 372.323 326.415 372.468 325.014 372.434ZM339.03 372.452C338.796 372.447 338.607 372.362 338.463 372.198C338.318 372.035 338.248 371.847 338.253 371.633L338.755 350.833C338.76 350.599 338.839 350.408 338.992 350.262C339.143 350.117 339.336 350.046 339.57 350.052L354.438 350.41C354.671 350.416 354.861 350.496 355.005 350.648C355.15 350.801 355.22 350.995 355.215 351.23L355.142 354.238C355.136 354.472 355.057 354.663 354.905 354.808C354.753 354.954 354.56 355.024 354.327 355.019L344.171 354.774L344.067 359.094L353.522 359.322C353.756 359.328 353.945 359.412 354.09 359.576C354.234 359.739 354.304 359.939 354.298 360.173L354.231 362.957C354.226 363.171 354.147 363.356 353.995 363.512C353.842 363.668 353.649 363.744 353.416 363.738L343.96 363.51L343.853 367.958L354.264 368.209C354.497 368.215 354.686 368.294 354.832 368.447C354.976 368.6 355.046 368.794 355.04 369.028L354.968 372.036C354.963 372.25 354.884 372.435 354.732 372.591C354.579 372.748 354.386 372.823 354.153 372.817L339.03 372.453L339.03 372.452Z" fill="#4D4D4D"/>
</svg>
