<svg width="648" height="556" viewBox="0 0 648 556" fill="none" xmlns="http://www.w3.org/2000/svg">
<path d="M44.6231 250.865L52.577 258.815C56.3164 262.522 62.3376 262.522 66.0447 258.815L73.9987 250.865C77.7058 247.157 77.7058 241.136 73.9987 237.429L66.0447 229.443C62.3376 225.736 56.3164 225.736 52.577 229.443L44.6231 237.429C40.9159 241.136 40.9159 247.157 44.6231 250.865ZM73.0582 150.805L78.1195 155.863C80.4983 158.223 84.3282 158.223 86.6875 155.863L91.7489 150.805C94.1082 148.446 94.1082 144.616 91.7489 142.256L86.6875 137.176C84.3282 134.816 80.4983 134.816 78.1195 137.176L73.0582 142.256C70.6988 144.616 70.6988 148.446 73.0582 150.805ZM14.643 185.442L19.1323 189.932C21.2428 192.026 24.6428 192.026 26.7372 189.932L31.2264 185.442C33.3208 183.348 33.3208 179.948 31.2264 177.857L26.7372 173.348C24.6428 171.254 21.246 171.254 19.1323 173.348L14.643 177.857C12.5487 179.948 12.5487 183.348 14.643 185.442Z" fill="#FFEAEA"/>
<path d="M268.503 127.141C304.601 127.141 333.864 98.8605 333.864 63.9748C333.864 29.0891 304.601 0.808594 268.503 0.808594C232.406 0.808594 203.143 29.0891 203.143 63.9748C203.143 98.8605 232.406 127.141 268.503 127.141Z" fill="#FEF0F1"/>
<path d="M299.198 78.8561L283.988 93.5552C283.943 93.5972 283.872 93.5972 283.826 93.5552L237.812 49.0861L253.022 34.387C253.068 34.345 253.139 34.345 253.184 34.387L299.198 78.8561Z" fill="#C52127"/>
<path d="M237.812 78.8561L253.022 93.5552C253.068 93.5972 253.139 93.5972 253.184 93.5552L299.198 49.0861L283.988 34.387C283.943 34.345 283.872 34.345 283.826 34.387L237.812 78.8561Z" fill="#C52127"/>
<path d="M253.663 246.52C253.663 246.52 262.486 307.304 278.52 321.411C278.52 321.411 206.912 332.581 180.62 322.4C154.327 312.22 199.643 260.278 199.643 260.278L253.663 246.52Z" fill="#030047"/>
<path d="M297.479 340.453C297.479 340.453 224.542 323.99 199.905 323.996C172.223 324.003 90.2818 339.571 90.2818 339.571L75.5859 536.629H297.479V340.453Z" fill="#F7666B"/>
<path opacity="0.4" d="M251.368 411.431C257.281 411.431 262.075 406.637 262.075 400.723C262.075 394.81 257.281 390.016 251.368 390.016C245.454 390.016 240.66 394.81 240.66 400.723C240.66 406.637 245.454 411.431 251.368 411.431Z" fill="white"/>
<path opacity="0.4" d="M235.389 438.726C238.3 438.726 240.66 436.366 240.66 433.455C240.66 430.544 238.3 428.184 235.389 428.184C232.477 428.184 230.117 430.544 230.117 433.455C230.117 436.366 232.477 438.726 235.389 438.726Z" fill="white"/>
<path opacity="0.4" d="M268.503 465.306C272.053 465.306 274.931 462.428 274.931 458.878C274.931 455.327 272.053 452.449 268.503 452.449C264.952 452.449 262.074 455.327 262.074 458.878C262.074 462.428 264.952 465.306 268.503 465.306Z" fill="white"/>
<path opacity="0.4" d="M264.237 375.962C267.787 375.962 270.665 373.084 270.665 369.534C270.665 365.984 267.787 363.105 264.237 363.105C260.687 363.105 257.809 365.984 257.809 369.534C257.809 373.084 260.687 375.962 264.237 375.962Z" fill="white"/>
<path opacity="0.4" d="M179.834 437.289C185.594 437.289 190.264 432.619 190.264 426.859C190.264 421.099 185.594 416.43 179.834 416.43C174.074 416.43 169.404 421.099 169.404 426.859C169.404 432.619 174.074 437.289 179.834 437.289Z" fill="white"/>
<path opacity="0.4" d="M236.554 514.972C244.735 514.972 251.367 508.34 251.367 500.16C251.367 491.979 244.735 485.348 236.554 485.348C228.374 485.348 221.742 491.979 221.742 500.16C221.742 508.34 228.374 514.972 236.554 514.972Z" fill="white"/>
<path opacity="0.4" d="M170.315 510.822C177.35 510.822 183.053 505.12 183.053 498.085C183.053 491.05 177.35 485.348 170.315 485.348C163.281 485.348 157.578 491.05 157.578 498.085C157.578 505.12 163.281 510.822 170.315 510.822Z" fill="white"/>
<path opacity="0.4" d="M134.085 382.482C140.577 382.482 145.84 377.219 145.84 370.727C145.84 364.235 140.577 358.973 134.085 358.973C127.593 358.973 122.33 364.235 122.33 370.727C122.33 377.219 127.593 382.482 134.085 382.482Z" fill="white"/>
<path opacity="0.4" d="M128.655 458.877C136.036 458.877 142.02 452.894 142.02 445.513C142.02 438.132 136.036 432.148 128.655 432.148C121.274 432.148 115.291 438.132 115.291 445.513C115.291 452.894 121.274 458.877 128.655 458.877Z" fill="white"/>
<path d="M210.984 296.995L212.813 326.888C212.813 326.888 237.367 381.334 205.034 384.537C172.701 387.74 156.079 377.827 154.398 367.76C152.72 357.695 161.718 328.258 161.718 328.258L162.785 275.793L210.984 296.995Z" fill="white"/>
<path d="M193.094 386.45C167.84 386.45 154.708 377.465 153.124 367.972C151.466 358.021 159.617 330.737 160.432 328.054L161.498 275.77C161.508 275.337 161.731 274.936 162.096 274.703C162.461 274.471 162.92 274.435 163.315 274.61L211.507 295.808C211.95 296.002 212.25 296.432 212.28 296.914L214.096 326.571C215.515 329.777 229.047 361.302 219.894 377.132C216.953 382.222 211.995 385.147 205.166 385.823C200.874 386.253 196.85 386.45 193.094 386.45ZM164.045 277.764L163.017 328.287C163.014 328.406 162.995 328.526 162.959 328.639C162.872 328.93 154.071 357.898 155.681 367.549C157.355 377.607 174.808 386.23 204.907 383.25C210.861 382.662 215.146 380.167 217.648 375.842C226.429 360.655 211.782 327.753 211.633 327.421C211.569 327.278 211.53 327.123 211.52 326.968L209.739 297.864L164.045 277.764Z" fill="#030047"/>
<path d="M140.594 217.318L224.209 179.539C225.608 180.767 252.308 209.613 254.738 258.174C256.429 291.984 241.025 305.186 216.2 304.527C186.614 303.738 162.859 284.207 152.869 256.348C148.515 244.202 145.426 230.954 140.594 217.318Z" fill="white"/>
<path d="M217.938 305.84C217.353 305.84 216.762 305.834 216.164 305.817C186.937 305.038 162.215 286.248 151.65 256.778C149.484 250.741 147.661 244.539 145.732 237.975C143.802 231.404 141.802 224.61 139.375 217.745C139.152 217.112 139.449 216.411 140.063 216.133L223.678 178.354C224.14 178.144 224.683 178.225 225.065 178.561C225.349 178.81 253.496 207.393 256.034 258.107C256.893 275.262 253.387 287.996 245.614 295.953C239.198 302.518 229.893 305.84 217.938 305.84ZM142.209 218.004C144.484 224.549 146.382 230.997 148.217 237.244C150.137 243.773 151.95 249.936 154.09 255.906C164.287 284.347 188.097 302.479 216.235 303.229C228.361 303.552 237.556 300.491 243.762 294.143C251.008 286.723 254.269 274.645 253.448 258.236C251.199 213.272 227.802 185.406 223.904 181.095L142.209 218.004Z" fill="#030047"/>
<path d="M110.863 335.828L102.628 476.533L68.2496 459.009L36.8927 443.021L24.582 436.754L64.1579 361.367C69.2515 351.697 77.729 344.238 87.9842 340.424L90.2821 339.577L110.863 335.828Z" fill="#F7666B"/>
<path opacity="0.4" d="M74.0173 445.52C74.0173 450.821 71.8066 455.604 68.2514 459.004L36.8945 443.015C38.1033 433.882 45.9086 426.855 55.3686 426.855C65.6755 426.855 74.0173 435.213 74.0173 445.52Z" fill="white"/>
<path opacity="0.4" d="M71.6326 402.613C76.9072 402.613 81.1832 398.337 81.1832 393.062C81.1832 387.788 76.9072 383.512 71.6326 383.512C66.358 383.512 62.082 387.788 62.082 393.062C62.082 398.337 66.358 402.613 71.6326 402.613Z" fill="white"/>
<path d="M102.625 477.826C102.425 477.826 102.221 477.777 102.037 477.683L23.9873 437.904C23.6803 437.746 23.4476 437.474 23.3409 437.141C23.2375 436.811 23.2698 436.453 23.4282 436.146L43.7962 397.358C44.1259 396.725 44.908 396.479 45.5447 396.815C46.1782 397.148 46.4206 397.931 46.0909 398.564L26.3337 436.188L101.449 474.471L106.083 395.322C106.125 394.608 106.723 394.062 107.454 394.104C108.168 394.146 108.711 394.76 108.672 395.471L103.918 476.601C103.892 477.037 103.65 477.431 103.268 477.648C103.071 477.767 102.848 477.826 102.625 477.826Z" fill="#030047"/>
<path d="M461.807 499.635C458.491 510.979 451.636 520.546 442.641 527.278C433.662 534.01 422.544 537.915 410.715 537.915H229.019L229.138 536.877H155.672C153.374 536.531 151.512 534.841 150.423 532.976C149.68 531.716 149.301 530.265 149.44 528.729C149.715 524.844 153.031 521.667 156.935 521.806H170.232L145.523 521.687C142.692 521.687 139.964 520.287 138.513 517.837C138.497 517.821 138.497 517.802 138.477 517.786C137.734 516.525 137.356 515.074 137.492 513.539C137.766 509.654 141.082 506.477 144.987 506.616H170.229L132.518 506.496C130.22 506.151 128.355 504.46 127.269 502.592C126.526 501.332 126.147 499.88 126.283 498.345C126.558 494.46 129.874 491.506 133.778 491.645L170.229 491.299H143.726C141.428 490.954 139.563 489.263 138.477 487.398C137.734 486.138 137.356 484.687 137.492 483.152C137.766 479.267 141.082 476.313 144.987 476.452L190.261 476.106L172.51 467.231C171.353 466.523 170.455 465.589 169.783 464.467C168.626 462.483 168.367 459.962 169.23 457.664C170.923 453.123 176.205 451.139 180.487 453.401L236.982 470.01V469.994L328.063 473.31L358.399 388.945L439.619 439.985C459.389 452.774 468.419 477.033 461.807 499.635Z" fill="white"/>
<path d="M410.711 539.211H229.018C228.65 539.211 228.297 539.052 228.052 538.778C227.9 538.606 227.796 538.396 227.751 538.176H155.668C155.603 538.176 155.538 538.173 155.477 538.164C153.053 537.798 150.745 536.108 149.301 533.636C148.389 532.087 147.992 530.352 148.147 528.619C148.302 526.431 149.275 524.46 150.736 523.012L145.51 522.986C142.158 522.986 139.059 521.283 137.417 518.539C137.394 518.51 137.375 518.477 137.355 518.445C136.444 516.894 136.043 515.158 136.198 513.423C136.353 511.231 137.326 509.26 138.79 507.809L132.51 507.789C132.446 507.789 132.384 507.783 132.323 507.776C129.899 507.411 127.591 505.718 126.147 503.245C125.235 501.7 124.834 499.965 124.99 498.229C125.316 493.659 129.262 490.185 133.819 490.353L139.113 490.301C138.444 489.658 137.847 488.901 137.352 488.051C136.441 486.507 136.043 484.768 136.198 483.035C136.521 478.465 140.403 474.991 145.028 475.159L184.853 474.855L171.928 468.391C170.528 467.541 169.465 466.465 168.67 465.137C167.284 462.758 167.044 459.8 168.017 457.212C168.948 454.713 170.913 452.732 173.405 451.782C175.868 450.845 178.618 450.993 180.971 452.196L237.127 468.705L327.167 471.982L357.183 388.509C357.315 388.141 357.61 387.85 357.978 387.724C358.35 387.594 358.76 387.643 359.09 387.853L440.31 438.893C460.426 451.911 469.77 477.04 463.05 500.01C459.715 511.416 452.928 521.208 443.416 528.329C433.914 535.442 422.605 539.211 410.711 539.211ZM230.408 536.622H410.715C422.039 536.622 432.812 533.034 441.865 526.244C450.924 519.463 457.388 510.136 460.565 499.273C466.964 477.392 458.063 453.459 438.917 441.068L359.074 390.894L329.281 473.743C329.09 474.273 328.577 474.619 328.014 474.6L237.121 471.29C236.953 471.31 236.781 471.297 236.613 471.248L180.115 454.639C180.031 454.613 179.953 454.581 179.875 454.542C178.156 453.634 176.126 453.508 174.32 454.196C172.523 454.881 171.107 456.307 170.435 458.113C169.73 459.985 169.901 462.115 170.89 463.811C171.469 464.778 172.222 465.537 173.176 466.122L190.829 474.942C191.365 475.211 191.646 475.809 191.511 476.394C191.375 476.975 190.858 477.392 190.26 477.395L144.986 477.741C141.683 477.628 139 480.039 138.774 483.236C138.664 484.451 138.945 485.653 139.582 486.736C140.616 488.51 142.194 489.722 143.819 490H170.221C170.936 490 171.514 490.576 171.517 491.29C171.521 492.004 170.949 492.583 170.234 492.592L133.784 492.938C130.52 492.822 127.798 495.239 127.569 498.436C127.459 499.651 127.74 500.853 128.377 501.933C129.411 503.707 130.991 504.919 132.617 505.2L170.225 505.32C170.939 505.323 171.517 505.902 171.517 506.616C171.514 507.33 170.939 507.909 170.221 507.909H144.976C141.822 507.799 139.007 510.362 138.774 513.629C138.664 514.848 138.929 516.002 139.559 517.091C139.563 517.094 139.566 517.097 139.566 517.101C139.585 517.126 139.601 517.152 139.618 517.178C140.791 519.163 143.05 520.394 145.513 520.394L170.228 520.514C170.942 520.517 171.517 521.099 171.517 521.813C171.514 522.527 170.936 523.106 170.221 523.106H156.925C153.784 522.996 150.956 525.559 150.723 528.826C150.613 530.042 150.894 531.244 151.531 532.327C152.565 534.101 154.142 535.313 155.768 535.591H229.134C229.503 535.591 229.855 535.749 230.101 536.024C230.262 536.192 230.363 536.399 230.408 536.622Z" fill="#030047"/>
<path d="M297.478 340.457L373.172 390.017L328.056 473.299L251.629 432.446L297.478 340.457Z" fill="#F7666B"/>
<path opacity="0.4" d="M328.774 393.653C334.373 393.653 338.912 389.113 338.912 383.514C338.912 377.914 334.373 373.375 328.774 373.375C323.174 373.375 318.635 377.914 318.635 383.514C318.635 389.113 323.174 393.653 328.774 393.653Z" fill="white"/>
<path opacity="0.4" d="M317.789 438.726C320.7 438.726 323.06 436.366 323.06 433.455C323.06 430.544 320.7 428.184 317.789 428.184C314.878 428.184 312.518 430.544 312.518 433.455C312.518 436.366 314.878 438.726 317.789 438.726Z" fill="white"/>
<path opacity="0.4" d="M349.261 437.796C356.542 437.796 362.445 431.894 362.445 424.613C362.445 417.332 356.542 411.43 349.261 411.43C341.981 411.43 336.078 417.332 336.078 424.613C336.078 431.894 341.981 437.796 349.261 437.796Z" fill="white"/>
<path d="M328.057 474.594C327.85 474.594 327.643 474.545 327.449 474.442L298.374 458.902C297.744 458.566 297.504 457.781 297.844 457.151C298.18 456.52 298.965 456.281 299.596 456.617L327.533 471.552L371.466 390.449L334.766 366.419C334.168 366.028 334 365.223 334.391 364.625C334.786 364.027 335.584 363.859 336.185 364.25L373.88 388.933C374.442 389.301 374.63 390.041 374.31 390.633L329.197 473.915C328.962 474.348 328.516 474.594 328.057 474.594Z" fill="#030047"/>
<path d="M639.66 536.621H0.800781V539.21H639.66V536.621Z" fill="#030047"/>
<path d="M425.821 511.188V536.639H220.402C214.429 536.639 209.594 531.804 209.594 525.832V524.794C209.594 517.283 215.689 511.188 223.181 511.188H425.821Z" fill="#121535"/>
<path d="M560.475 390.016H366.355C357.412 390.016 349.435 395.633 346.423 404.052L298.98 536.635H528.976L574.376 409.76C577.821 400.138 570.692 390.016 560.475 390.016Z" fill="#121535"/>
<path d="M453.949 465.303C452.815 472.401 446.144 478.157 439.047 478.157C431.933 478.157 427.105 472.401 428.239 465.303C429.373 458.206 436.057 452.45 443.155 452.45C450.255 452.45 455.087 458.206 453.949 465.303ZM625.317 93.3164H374.216C362.846 93.3164 353.625 102.534 353.625 113.907V296.412C353.625 307.782 362.843 317.003 374.216 317.003H625.317C636.687 317.003 645.908 307.785 645.908 296.412V113.907C645.904 102.537 636.687 93.3164 625.317 93.3164Z" fill="white"/>
<path d="M172.814 245.433L175.703 250.739C175.703 250.739 188.421 235.911 190.88 219.344C190.88 219.344 241.112 229.282 254.881 204.81C272.828 172.91 203.918 146.989 167.044 166.976C126.496 188.953 121.835 238.477 110.934 271.182C100.032 303.887 83.2775 314.216 92.0168 325.69C102.227 339.096 159.191 320.079 159.191 320.079L160.157 272.665L172.814 245.433Z" fill="#030047"/>
<path d="M173.651 269.506C173.651 269.506 165.219 274.351 154.204 272.036C143.193 269.722 137.689 237.829 146.593 234.022C155.497 230.214 172.814 245.431 172.814 245.431" fill="white"/>
<path d="M160.283 273.963C158.302 273.963 156.175 273.772 153.939 273.303C146.871 271.82 142.116 260.317 141.069 249.726C140.193 240.864 142.068 234.549 146.085 232.832C155.62 228.754 172.937 243.815 173.67 244.461C174.207 244.933 174.262 245.751 173.79 246.287C173.315 246.824 172.5 246.879 171.961 246.407C167.313 242.325 153.777 232.36 147.103 235.214C144.266 236.426 142.911 242.024 143.645 249.474C144.589 259.024 148.897 269.6 154.472 270.773C164.837 272.951 172.93 268.433 173.011 268.384C173.628 268.032 174.42 268.245 174.776 268.866C175.131 269.486 174.918 270.275 174.297 270.631C174.006 270.799 168.38 273.963 160.283 273.963Z" fill="#030047"/>
<path d="M165.293 250.361C163.858 248.095 161.944 246.13 159.721 244.634C158.325 243.696 156.77 242.927 155.102 242.723C153.435 242.52 151.631 242.937 150.422 244.103C148.709 245.755 148.538 248.425 148.742 250.797C149.117 255.125 150.387 259.371 152.446 263.192" fill="white"/>
<path d="M152.445 264.488C151.983 264.488 151.537 264.243 151.305 263.806C149.171 259.85 147.84 255.39 147.449 250.907C147.142 247.343 147.817 244.812 149.52 243.17C150.926 241.816 153.066 241.166 155.257 241.434C156.925 241.641 158.622 242.333 160.441 243.555C162.804 245.145 164.86 247.255 166.388 249.663C166.77 250.268 166.592 251.066 165.987 251.45C165.383 251.835 164.585 251.654 164.2 251.05C162.865 248.942 161.068 247.094 159 245.704C157.529 244.715 156.201 244.159 154.944 244.004C153.522 243.829 152.167 244.214 151.321 245.032C150.215 246.098 149.795 247.944 150.031 250.681C150.39 254.815 151.618 258.926 153.586 262.575C153.926 263.205 153.69 263.991 153.059 264.33C152.862 264.44 152.652 264.488 152.445 264.488Z" fill="#030047"/>
<path d="M200.162 337.777L101.835 529.942C91.8448 546.306 73.3836 555.52 54.3019 553.668C21.775 550.511 0.960935 517.518 12.1178 486.801L29.3993 439.223L59.8738 454.746L154.184 336.471C150.334 330.583 136.815 309.727 135.38 304.132C132.755 293.773 132.998 271.964 137.245 263.919C141.492 255.872 145.499 261.331 145.499 261.331C145.499 261.331 146.12 254.838 151.301 254.786C156.482 254.718 157.965 259.844 157.965 259.844C165.838 253.836 166.84 266.731 166.84 266.731C167.755 265.109 169.138 264.349 170.622 264.071C174.506 263.328 178.097 266.421 178.356 270.374C178.63 274.43 179.115 280.354 179.946 285.687C180.825 291.385 182.464 299.772 193.669 310.218C201.232 317.247 203.788 328.123 200.162 337.777Z" fill="white"/>
<path d="M59.053 555.192C57.4337 555.192 55.8048 555.115 54.1759 554.956C38.2712 553.411 24.2573 544.775 15.7313 531.259C7.20524 517.743 5.44056 501.376 10.8962 486.357L28.1777 438.779C28.3037 438.43 28.5752 438.152 28.921 438.016C29.2701 437.88 29.6515 437.9 29.9844 438.068L59.5184 453.109L152.587 336.392C146.033 326.341 135.451 309.628 134.126 304.45C131.598 294.467 131.476 272.069 136.101 263.31C137.794 260.101 139.75 258.394 141.909 258.233C143.004 258.152 143.951 258.488 144.701 258.931C145.541 256.39 147.5 253.52 151.288 253.485C155.04 253.443 157.419 255.841 158.544 257.9C160.383 256.856 162.073 256.665 163.579 257.341C166.016 258.43 167.167 261.542 167.7 263.879C168.469 263.349 169.364 262.987 170.386 262.796C172.532 262.386 174.687 262.919 176.462 264.289C178.336 265.737 179.497 267.922 179.652 270.288C180.059 276.274 180.592 281.39 181.229 285.488C181.995 290.453 183.278 298.759 194.558 309.272C202.528 316.68 205.207 328.047 201.377 338.231C201.361 338.276 201.342 338.322 201.319 338.367L102.992 530.532C93.6192 545.887 76.7676 555.192 59.053 555.192ZM30.1169 441.038L13.3363 487.243C8.15545 501.505 9.82962 517.045 17.9258 529.879C26.0219 542.713 39.3281 550.913 54.428 552.38C72.8956 554.174 91.0659 545.099 100.73 529.268L198.976 337.252C202.395 328.07 199.971 317.84 192.79 311.166C180.854 300.042 179.432 290.831 178.669 285.882C178.02 281.71 177.483 276.519 177.069 270.459C176.963 268.834 176.165 267.331 174.878 266.339C173.698 265.427 172.273 265.072 170.867 265.34C169.545 265.586 168.602 266.248 167.971 267.363C167.69 267.861 167.118 268.113 166.565 267.993C166.01 267.871 165.599 267.399 165.551 266.83C165.428 265.278 164.607 260.634 162.519 259.703C161.582 259.286 160.315 259.677 158.75 260.87C158.408 261.129 157.965 261.203 157.558 261.07C157.154 260.938 156.84 260.611 156.721 260.201C156.672 260.036 155.438 256.077 151.401 256.077C151.375 256.077 151.346 256.077 151.317 256.077C147.374 256.116 146.808 261.235 146.786 261.452C146.731 261.985 146.356 262.431 145.839 262.573C145.328 262.712 144.772 262.525 144.455 262.092C144.449 262.085 143.437 260.712 142.09 260.818C140.913 260.912 139.601 262.227 138.389 264.519C134.388 272.095 134.003 293.423 136.634 303.81C137.545 307.372 144.51 319.318 155.266 335.759C155.57 336.227 155.544 336.838 155.195 337.275L60.8855 455.55C60.5042 456.031 59.8319 456.173 59.2857 455.895L30.1169 441.038Z" fill="#030047"/>
<path d="M46.709 470.036C46.389 470.036 46.0723 469.92 45.8234 469.684C45.3031 469.192 45.2772 468.375 45.7685 467.854L58.9389 453.857C59.4302 453.336 60.2511 453.31 60.7682 453.802C61.2886 454.293 61.3144 455.111 60.8232 455.631L47.6528 469.629C47.3974 469.9 47.0516 470.036 46.709 470.036Z" fill="#030047"/>
<path d="M174.258 304.466C173.808 304.466 173.375 304.233 173.136 303.816C172.871 303.354 166.62 292.468 165.564 286.877C164.513 281.337 165.502 267.23 165.544 266.632C165.596 265.918 166.236 265.384 166.928 265.433C167.642 265.484 168.178 266.102 168.127 266.816C168.117 266.958 167.121 281.186 168.107 286.395C169.083 291.554 175.315 302.413 175.376 302.523C175.735 303.144 175.521 303.936 174.901 304.291C174.7 304.411 174.477 304.466 174.258 304.466Z" fill="#030047"/>
<path d="M162.057 307.629C161.553 307.629 161.075 307.332 160.865 306.84C160.606 306.233 154.524 291.844 153.861 284.407C153.118 276.075 156.55 260.238 156.699 259.566C156.851 258.865 157.555 258.425 158.24 258.577C158.939 258.729 159.381 259.42 159.229 260.119C159.197 260.28 155.736 276.24 156.443 284.174C157.074 291.204 163.189 305.68 163.253 305.825C163.534 306.485 163.227 307.244 162.568 307.522C162.4 307.593 162.226 307.629 162.057 307.629Z" fill="#030047"/>
<path d="M145.51 261.33C145.51 261.33 142.64 282.829 143.545 288.553C144.867 296.931 150.891 310.45 150.891 310.45" fill="white"/>
<path d="M150.891 311.743C150.397 311.743 149.925 311.455 149.708 310.974C149.459 310.415 143.597 297.202 142.262 288.754C141.341 282.91 144.107 262.045 144.224 261.159C144.317 260.451 144.947 259.95 145.678 260.047C146.386 260.141 146.883 260.794 146.79 261.502C146.761 261.715 143.958 282.878 144.821 288.35C146.105 296.459 152.013 309.784 152.074 309.92C152.365 310.573 152.071 311.339 151.418 311.63C151.247 311.707 151.069 311.743 150.891 311.743Z" fill="#030047"/>
<path d="M215.021 249.287C216.723 248.812 217.529 246.37 216.82 243.832C216.111 241.295 214.157 239.623 212.455 240.098C210.753 240.574 209.948 243.016 210.656 245.554C211.365 248.091 213.319 249.763 215.021 249.287Z" fill="#030047"/>
<path d="M207.781 236.809C210.286 234.515 214.122 234.059 217.516 235.655Z" fill="white"/>
<path d="M207.781 238.102C207.429 238.102 207.08 237.96 206.828 237.682C206.343 237.155 206.378 236.334 206.909 235.852C209.808 233.196 214.184 232.656 218.069 234.482C218.715 234.786 218.993 235.558 218.689 236.205C218.385 236.851 217.619 237.132 216.967 236.825C214.045 235.448 210.784 235.817 208.66 237.763C208.408 237.992 208.095 238.102 207.781 238.102Z" fill="#030047"/>
<path d="M241.361 246.434C243.063 245.959 243.868 243.516 243.16 240.979C242.451 238.441 240.497 236.769 238.795 237.245C237.093 237.72 236.287 240.163 236.996 242.7C237.705 245.238 239.659 246.909 241.361 246.434Z" fill="#030047"/>
<path d="M234.121 233.954C236.626 231.659 240.462 231.203 243.856 232.8Z" fill="white"/>
<path d="M234.121 235.25C233.769 235.25 233.42 235.108 233.168 234.83C232.683 234.303 232.718 233.482 233.248 233.001C236.147 230.344 240.527 229.804 244.408 231.63C245.055 231.934 245.333 232.707 245.029 233.353C244.725 234 243.959 234.281 243.306 233.974C240.381 232.597 237.12 232.965 235 234.911C234.748 235.137 234.435 235.25 234.121 235.25Z" fill="#030047"/>
<path d="M226.087 250.838C225.809 253.773 226.992 256.643 228.323 259.273C229.658 261.904 231.193 264.506 231.704 267.412C232.215 270.317 231.445 273.678 228.996 275.32" fill="white"/>
<path d="M228.999 276.613C228.582 276.613 228.172 276.413 227.923 276.038C227.525 275.444 227.684 274.639 228.278 274.241C230.327 272.868 230.835 269.933 230.431 267.632C230.033 265.369 228.951 263.288 227.803 261.081L227.17 259.856C225.819 257.196 224.481 254.032 224.794 250.712C224.862 250.001 225.499 249.474 226.207 249.545C226.921 249.613 227.441 250.244 227.377 250.958C227.124 253.618 228.298 256.355 229.481 258.686L230.101 259.891C231.287 262.173 232.515 264.532 232.981 267.186C233.656 271.003 232.373 274.619 229.717 276.397C229.497 276.542 229.245 276.613 228.999 276.613Z" fill="#030047"/>
<path d="M217.2 287.404C216.576 287.404 216.023 286.951 215.923 286.315C215.787 285.478 215.218 284.644 214.397 284.088C213.622 283.561 212.594 283.238 211.427 283.151C208.874 282.963 206.262 283.949 204.469 285.794C203.974 286.308 203.153 286.318 202.636 285.82C202.122 285.323 202.113 284.502 202.613 283.988C204.931 281.603 208.292 280.326 211.615 280.568C213.237 280.688 214.701 281.163 215.855 281.945C217.274 282.911 218.231 284.353 218.479 285.904C218.593 286.609 218.114 287.275 217.406 287.388C217.338 287.401 217.267 287.404 217.2 287.404Z" fill="#030047"/>
<path d="M297.478 469.597C296.763 469.597 296.182 469.019 296.182 468.301V381.015C296.182 380.301 296.76 379.719 297.478 379.719C298.192 379.719 298.774 380.297 298.774 381.015V468.301C298.774 469.016 298.192 469.597 297.478 469.597Z" fill="#030047"/>
<g opacity="0.4">
<path d="M318.635 524.098C318.49 524.098 318.338 524.072 318.192 524.02C317.52 523.775 317.171 523.031 317.417 522.359L355.713 417.048C358.867 408.379 367.18 402.559 376.401 402.559H547.325C551.223 402.559 554.746 404.391 556.985 407.584C559.225 410.778 559.749 414.708 558.424 418.366L544.775 456.061C544.529 456.733 543.786 457.079 543.117 456.837C542.445 456.594 542.096 455.851 542.338 455.179L555.987 417.484C557.021 414.63 556.61 411.563 554.865 409.071C553.113 406.576 550.366 405.147 547.325 405.147H376.401C368.266 405.147 360.929 410.286 358.146 417.933L319.85 523.245C319.66 523.772 319.162 524.098 318.635 524.098Z" fill="white"/>
</g>
<path d="M166.835 266.73C166.835 266.73 165.807 281.203 166.835 286.643C167.862 292.079 174.255 303.174 174.255 303.174" fill="white"/>
<path d="M157.963 259.84C157.963 259.84 154.417 276.058 155.151 284.29C155.804 291.607 162.058 306.332 162.058 306.332" fill="white"/>
<path d="M462.678 63.8182C462.678 66.0388 462.257 67.928 461.415 69.4858C460.58 71.0436 459.44 72.2334 457.995 73.0554C456.557 73.8707 454.939 74.2784 453.143 74.2784C451.333 74.2784 449.709 73.8674 448.271 73.0455C446.832 72.2235 445.695 71.0336 444.86 69.4759C444.025 67.9181 443.607 66.0322 443.607 63.8182C443.607 61.5975 444.025 59.7083 444.86 58.1506C445.695 56.5928 446.832 55.4062 448.271 54.5909C449.709 53.7689 451.333 53.358 453.143 53.358C454.939 53.358 456.557 53.7689 457.995 54.5909C459.44 55.4062 460.58 56.5928 461.415 58.1506C462.257 59.7083 462.678 61.5975 462.678 63.8182ZM458.313 63.8182C458.313 62.3797 458.098 61.1667 457.667 60.179C457.243 59.1913 456.643 58.4422 455.867 57.9318C455.092 57.4214 454.183 57.1662 453.143 57.1662C452.102 57.1662 451.194 57.4214 450.418 57.9318C449.643 58.4422 449.04 59.1913 448.609 60.179C448.184 61.1667 447.972 62.3797 447.972 63.8182C447.972 65.2566 448.184 66.4697 448.609 67.4574C449.04 68.4451 449.643 69.1941 450.418 69.7045C451.194 70.215 452.102 70.4702 453.143 70.4702C454.183 70.4702 455.092 70.215 455.867 69.7045C456.643 69.1941 457.243 68.4451 457.667 67.4574C458.098 66.4697 458.313 65.2566 458.313 63.8182ZM472.689 74.2983C471.144 74.2983 469.808 73.9702 468.681 73.3139C467.561 72.651 466.696 71.7296 466.086 70.5497C465.476 69.3632 465.172 67.9877 465.172 66.4233C465.172 64.8456 465.476 63.4669 466.086 62.2869C466.696 61.1004 467.561 60.179 468.681 59.5227C469.808 58.8598 471.144 58.5284 472.689 58.5284C474.233 58.5284 475.565 58.8598 476.686 59.5227C477.813 60.179 478.681 61.1004 479.291 62.2869C479.901 63.4669 480.206 64.8456 480.206 66.4233C480.206 67.9877 479.901 69.3632 479.291 70.5497C478.681 71.7296 477.813 72.651 476.686 73.3139C475.565 73.9702 474.233 74.2983 472.689 74.2983ZM472.708 71.017C473.411 71.017 473.998 70.8182 474.468 70.4205C474.939 70.0161 475.294 69.4659 475.532 68.7699C475.778 68.0739 475.9 67.2817 475.9 66.3935C475.9 65.5052 475.778 64.7131 475.532 64.017C475.294 63.321 474.939 62.7708 474.468 62.3665C473.998 61.9621 473.411 61.7599 472.708 61.7599C471.999 61.7599 471.403 61.9621 470.919 62.3665C470.441 62.7708 470.08 63.321 469.835 64.017C469.596 64.7131 469.477 65.5052 469.477 66.3935C469.477 67.2817 469.596 68.0739 469.835 68.7699C470.08 69.4659 470.441 70.0161 470.919 70.4205C471.403 70.8182 471.999 71.017 472.708 71.017ZM482.96 79.7273V58.7273H487.136V61.2926H487.325C487.511 60.8816 487.779 60.464 488.13 60.0398C488.488 59.6089 488.952 59.2509 489.522 58.9659C490.099 58.6742 490.815 58.5284 491.67 58.5284C492.784 58.5284 493.811 58.8201 494.752 59.4034C495.694 59.9801 496.446 60.8518 497.01 62.0185C497.573 63.1785 497.855 64.6335 497.855 66.3835C497.855 68.0871 497.58 69.5256 497.029 70.6989C496.486 71.8655 495.743 72.7505 494.802 73.3537C493.868 73.9503 492.82 74.2486 491.66 74.2486C490.838 74.2486 490.139 74.1127 489.562 73.8409C488.992 73.5691 488.525 73.2277 488.16 72.8168C487.796 72.3991 487.517 71.9782 487.325 71.554H487.196V79.7273H482.96ZM487.106 66.3636C487.106 67.2718 487.232 68.0639 487.484 68.7401C487.736 69.4162 488.1 69.9432 488.578 70.321C489.055 70.6922 489.635 70.8778 490.318 70.8778C491.007 70.8778 491.591 70.6889 492.068 70.3111C492.545 69.9266 492.906 69.3963 493.152 68.7202C493.404 68.0374 493.529 67.2519 493.529 66.3636C493.529 65.482 493.407 64.7064 493.162 64.0369C492.916 63.3674 492.555 62.8437 492.078 62.4659C491.6 62.0881 491.014 61.8991 490.318 61.8991C489.628 61.8991 489.045 62.0814 488.568 62.446C488.097 62.8106 487.736 63.3277 487.484 63.9972C487.232 64.6667 487.106 65.4555 487.106 66.3636ZM500.679 79.7273V58.7273H504.855V61.2926H505.044C505.229 60.8816 505.498 60.464 505.849 60.0398C506.207 59.6089 506.671 59.2509 507.241 58.9659C507.818 58.6742 508.534 58.5284 509.389 58.5284C510.502 58.5284 511.53 58.8201 512.471 59.4034C513.413 59.9801 514.165 60.8518 514.728 62.0185C515.292 63.1785 515.574 64.6335 515.574 66.3835C515.574 68.0871 515.298 69.5256 514.748 70.6989C514.205 71.8655 513.462 72.7505 512.521 73.3537C511.586 73.9503 510.539 74.2486 509.379 74.2486C508.557 74.2486 507.858 74.1127 507.281 73.8409C506.711 73.5691 506.243 73.2277 505.879 72.8168C505.514 72.3991 505.236 71.9782 505.044 71.554H504.914V79.7273H500.679ZM504.825 66.3636C504.825 67.2718 504.951 68.0639 505.203 68.7401C505.455 69.4162 505.819 69.9432 506.297 70.321C506.774 70.6922 507.354 70.8778 508.037 70.8778C508.726 70.8778 509.309 70.6889 509.787 70.3111C510.264 69.9266 510.625 69.3963 510.87 68.7202C511.122 68.0374 511.248 67.2519 511.248 66.3636C511.248 65.482 511.126 64.7064 510.88 64.0369C510.635 63.3674 510.274 62.8437 509.797 62.4659C509.319 62.0881 508.733 61.8991 508.037 61.8991C507.347 61.8991 506.764 62.0814 506.287 62.446C505.816 62.8106 505.455 63.3277 505.203 63.9972C504.951 64.6667 504.825 65.4555 504.825 66.3636ZM531.105 63.0824L527.227 63.321C527.161 62.9896 527.018 62.6913 526.799 62.4261C526.581 62.1544 526.292 61.9389 525.934 61.7798C525.583 61.6141 525.162 61.5312 524.672 61.5312C524.015 61.5312 523.462 61.6705 523.011 61.9489C522.56 62.2206 522.335 62.5852 522.335 63.0426C522.335 63.4072 522.481 63.7154 522.772 63.9673C523.064 64.2192 523.565 64.4214 524.274 64.5739L527.038 65.1307C528.523 65.4356 529.63 65.9261 530.359 66.6023C531.088 67.2784 531.453 68.1667 531.453 69.267C531.453 70.268 531.158 71.1463 530.568 71.902C529.984 72.6577 529.182 73.2476 528.162 73.6719C527.147 74.0895 525.977 74.2983 524.652 74.2983C522.63 74.2983 521.019 73.8774 519.819 73.0355C518.626 72.187 517.927 71.0336 517.721 69.5753L521.887 69.3565C522.013 69.973 522.318 70.4437 522.802 70.7685C523.286 71.0866 523.906 71.2457 524.662 71.2457C525.404 71.2457 526.001 71.1032 526.451 70.8182C526.909 70.5265 527.141 70.152 527.147 69.6946C527.141 69.3101 526.978 68.9953 526.66 68.75C526.342 68.4981 525.851 68.3059 525.189 68.1733L522.544 67.6463C521.052 67.348 519.942 66.831 519.213 66.0952C518.49 65.3594 518.129 64.4214 518.129 63.2812C518.129 62.3002 518.394 61.455 518.924 60.7457C519.461 60.0365 520.214 59.4896 521.181 59.1051C522.156 58.7206 523.296 58.5284 524.602 58.5284C526.531 58.5284 528.049 58.9361 529.156 59.7514C530.27 60.5668 530.919 61.6771 531.105 63.0824ZM536.596 74.2585C535.94 74.2585 535.376 74.0265 534.906 73.5625C534.442 73.0919 534.21 72.5284 534.21 71.8722C534.21 71.2225 534.442 70.6657 534.906 70.2017C535.376 69.7377 535.94 69.5057 536.596 69.5057C537.232 69.5057 537.789 69.7377 538.266 70.2017C538.744 70.6657 538.982 71.2225 538.982 71.8722C538.982 72.3097 538.87 72.7107 538.644 73.0753C538.425 73.4332 538.137 73.7216 537.779 73.9403C537.421 74.1525 537.027 74.2585 536.596 74.2585ZM544.936 74.2585C544.279 74.2585 543.716 74.0265 543.245 73.5625C542.781 73.0919 542.549 72.5284 542.549 71.8722C542.549 71.2225 542.781 70.6657 543.245 70.2017C543.716 69.7377 544.279 69.5057 544.936 69.5057C545.572 69.5057 546.129 69.7377 546.606 70.2017C547.083 70.6657 547.322 71.2225 547.322 71.8722C547.322 72.3097 547.209 72.7107 546.984 73.0753C546.765 73.4332 546.477 73.7216 546.119 73.9403C545.761 74.1525 545.367 74.2585 544.936 74.2585ZM555.478 53.6364L555.09 67.8949H551.451L551.053 53.6364H555.478ZM553.271 74.2585C552.614 74.2585 552.051 74.0265 551.58 73.5625C551.11 73.0919 550.878 72.5284 550.884 71.8722C550.878 71.2225 551.11 70.6657 551.58 70.2017C552.051 69.7377 552.614 69.5057 553.271 69.5057C553.9 69.5057 554.454 69.7377 554.931 70.2017C555.408 70.6657 555.65 71.2225 555.657 71.8722C555.65 72.3097 555.534 72.7107 555.309 73.0753C555.09 73.4332 554.802 73.7216 554.444 73.9403C554.086 74.1525 553.695 74.2585 553.271 74.2585Z" fill="#121535"/>
<path d="M625.316 318.296H374.216C362.151 318.296 352.332 308.477 352.332 296.412V113.907C352.332 101.839 362.148 92.0234 374.216 92.0234H625.316C637.385 92.0234 647.2 101.842 647.2 113.907V296.412C647.2 308.48 637.385 318.296 625.316 318.296ZM374.216 94.6123C363.576 94.6123 354.924 103.268 354.924 113.907V296.412C354.924 307.052 363.579 315.707 374.216 315.707H625.316C635.956 315.707 644.611 307.052 644.611 296.412V113.907C644.611 103.268 635.956 94.6123 625.316 94.6123H374.216Z" fill="#FEC4C4"/>
<path d="M625.315 93.3164H374.218C362.848 93.3164 353.627 102.534 353.627 113.907V132.702H645.906V113.907C645.903 102.537 636.686 93.3164 625.315 93.3164Z" fill="#FFEAEA"/>
<path d="M645.904 133.994H353.624C352.91 133.994 352.328 133.415 352.328 132.697V113.903C352.328 101.835 362.144 92.0195 374.212 92.0195H625.313C637.381 92.0195 647.196 101.838 647.196 113.903V132.697C647.2 133.415 646.621 133.994 645.904 133.994ZM354.92 131.405H644.611V113.907C644.611 103.267 635.956 94.6116 625.316 94.6116H374.215C363.575 94.6116 354.92 103.267 354.92 113.907V131.405Z" fill="#FEC4C4"/>
<path d="M382.538 120.944C385.907 120.944 388.637 118.213 388.637 114.845C388.637 111.477 385.907 108.746 382.538 108.746C379.17 108.746 376.439 111.477 376.439 114.845C376.439 118.213 379.17 120.944 382.538 120.944Z" fill="#E89497"/>
<path d="M401.716 120.944C405.084 120.944 407.815 118.213 407.815 114.845C407.815 111.477 405.084 108.746 401.716 108.746C398.348 108.746 395.617 111.477 395.617 114.845C395.617 118.213 398.348 120.944 401.716 120.944Z" fill="#E89497"/>
<path d="M420.892 120.944C424.26 120.944 426.991 118.213 426.991 114.845C426.991 111.477 424.26 108.746 420.892 108.746C417.523 108.746 414.793 111.477 414.793 114.845C414.793 118.213 417.523 120.944 420.892 120.944Z" fill="#E89497"/>
<path d="M438.325 237.9C428.305 237.9 417.205 237.3 405.025 236.1V223.95C418.285 224.85 428.185 225.3 434.725 225.3C436.105 225.3 437.185 224.91 437.965 224.13C438.805 223.29 439.225 222.18 439.225 220.8V216.3C439.225 212.7 437.425 210.9 433.825 210.9H407.725V174H450.925V186.6H423.925V198.3H438.325C444.205 198.3 448.525 199.65 451.285 202.35C454.045 204.99 455.425 209.04 455.425 214.5V220.8C455.425 226.68 454.045 231 451.285 233.76C448.525 236.52 444.205 237.9 438.325 237.9ZM506.689 191.1C506.689 187.5 504.889 185.7 501.289 185.7H491.389C487.789 185.7 485.989 187.5 485.989 191.1V219.9C485.989 223.5 487.789 225.3 491.389 225.3H501.289C504.889 225.3 506.689 223.5 506.689 219.9V191.1ZM522.889 219.9C522.889 226.2 521.449 230.79 518.569 233.67C515.749 236.49 511.189 237.9 504.889 237.9H487.789C481.489 237.9 476.899 236.49 474.019 233.67C471.199 230.79 469.789 226.2 469.789 219.9V191.1C469.789 184.8 471.199 180.24 474.019 177.42C476.899 174.54 481.489 173.1 487.789 173.1H504.889C511.189 173.1 515.749 174.54 518.569 177.42C521.449 180.24 522.889 184.8 522.889 191.1V219.9ZM575.982 191.1C575.982 187.5 574.182 185.7 570.582 185.7H560.682C557.082 185.7 555.282 187.5 555.282 191.1V219.9C555.282 223.5 557.082 225.3 560.682 225.3H570.582C574.182 225.3 575.982 223.5 575.982 219.9V191.1ZM592.182 219.9C592.182 226.2 590.742 230.79 587.862 233.67C585.042 236.49 580.482 237.9 574.182 237.9H557.082C550.782 237.9 546.192 236.49 543.312 233.67C540.492 230.79 539.082 226.2 539.082 219.9V191.1C539.082 184.8 540.492 180.24 543.312 177.42C546.192 174.54 550.782 173.1 557.082 173.1H574.182C580.482 173.1 585.042 174.54 587.862 177.42C590.742 180.24 592.182 184.8 592.182 191.1V219.9Z" fill="#C52127"/>
<path d="M398.213 286.94C403.328 287.22 406.791 287.36 408.601 287.36C409.031 287.36 409.367 287.239 409.609 286.996C409.871 286.735 410.001 286.389 410.001 285.96V283.44H403.561C401.601 283.44 400.173 283.001 399.277 282.124C398.4 281.228 397.961 279.8 397.961 277.84V277C397.961 275.04 398.4 273.621 399.277 272.744C400.173 271.848 401.601 271.4 403.561 271.4H413.389V275.32H404.681C403.561 275.32 403.001 275.88 403.001 277V277.56C403.001 278.68 403.561 279.24 404.681 279.24H409.721C411.551 279.24 412.895 279.669 413.753 280.528C414.612 281.387 415.041 282.731 415.041 284.56V285.96C415.041 287.789 414.612 289.133 413.753 289.992C412.895 290.851 411.551 291.28 409.721 291.28C408.769 291.28 407.761 291.261 406.697 291.224L404.121 291.112C402.217 291.019 400.248 290.888 398.213 290.72V286.94ZM425.819 279.38C425.073 279.38 424.699 279.753 424.699 280.5V282.04H429.459V280.5C429.459 279.753 429.086 279.38 428.339 279.38H425.819ZM433.799 290.72C430.197 291.093 426.93 291.28 423.999 291.28C422.73 291.28 421.713 290.897 420.947 290.132C420.182 289.367 419.799 288.349 419.799 287.08V280.36C419.799 278.96 420.191 277.868 420.975 277.084C421.778 276.281 422.879 275.88 424.279 275.88H429.879C431.279 275.88 432.371 276.281 433.155 277.084C433.958 277.868 434.359 278.96 434.359 280.36V285.54H424.699V286.66C424.699 286.94 424.793 287.173 424.979 287.36C425.166 287.547 425.399 287.64 425.679 287.64C427.527 287.64 430.234 287.5 433.799 287.22V290.72ZM448.208 280.22C447.032 280.22 445.819 280.5 444.568 281.06V291H439.668V276.16H444.008L444.288 277.98C445.894 276.58 447.574 275.88 449.328 275.88H450.588V280.22H448.208ZM465.287 276.16H470.467L464.867 291H459.267L453.667 276.16H458.847L462.067 286.24L465.287 276.16ZM479.856 279.38C479.109 279.38 478.736 279.753 478.736 280.5V282.04H483.496V280.5C483.496 279.753 483.123 279.38 482.376 279.38H479.856ZM487.836 290.72C484.233 291.093 480.967 291.28 478.036 291.28C476.767 291.28 475.749 290.897 474.984 290.132C474.219 289.367 473.836 288.349 473.836 287.08V280.36C473.836 278.96 474.228 277.868 475.012 277.084C475.815 276.281 476.916 275.88 478.316 275.88H483.916C485.316 275.88 486.408 276.281 487.192 277.084C487.995 277.868 488.396 278.96 488.396 280.36V285.54H478.736V286.66C478.736 286.94 478.829 287.173 479.016 287.36C479.203 287.547 479.436 287.64 479.716 287.64C481.564 287.64 484.271 287.5 487.836 287.22V290.72ZM502.245 280.22C501.069 280.22 499.856 280.5 498.605 281.06V291H493.705V276.16H498.045L498.325 277.98C499.93 276.58 501.61 275.88 503.365 275.88H504.625V280.22H502.245ZM536.399 291H520.859V271.4H536.399V275.32H525.899V279.1H534.159V283.02H525.899V287.08H536.399V291ZM549.692 280.22C548.516 280.22 547.303 280.5 546.052 281.06V291H541.152V276.16H545.492L545.772 277.98C547.377 276.58 549.057 275.88 550.812 275.88H552.072V280.22H549.692ZM565.371 280.22C564.195 280.22 562.982 280.5 561.731 281.06V291H556.831V276.16H561.171L561.451 277.98C563.056 276.58 564.736 275.88 566.491 275.88H567.751V280.22H565.371ZM587.083 286.8C587.083 288.2 586.682 289.301 585.879 290.104C585.095 290.888 584.003 291.28 582.603 291.28H576.163C574.763 291.28 573.662 290.888 572.859 290.104C572.075 289.301 571.683 288.2 571.683 286.8V280.36C571.683 278.96 572.075 277.868 572.859 277.084C573.662 276.281 574.763 275.88 576.163 275.88H582.603C584.003 275.88 585.095 276.281 585.879 277.084C586.682 277.868 587.083 278.96 587.083 280.36V286.8ZM582.183 280.78C582.183 280.033 581.81 279.66 581.063 279.66H577.703C576.956 279.66 576.583 280.033 576.583 280.78V286.38C576.583 287.127 576.956 287.5 577.703 287.5H581.063C581.81 287.5 582.183 287.127 582.183 286.38V280.78ZM600.94 280.22C599.764 280.22 598.55 280.5 597.3 281.06V291H592.4V276.16H596.74L597.02 277.98C598.625 276.58 600.305 275.88 602.06 275.88H603.32V280.22H600.94Z" fill="#4D4D4D"/>
</svg>
