<svg width="645" height="320" viewBox="0 0 645 320" fill="none" xmlns="http://www.w3.org/2000/svg">
<g clip-path="url(#clip0_2441_172)">
<path d="M586.902 286.079C587 284.139 589.102 282.777 591.037 282.892C592.972 283.006 594.679 284.211 596.069 285.571C598.319 287.77 599.895 290.251 601.429 292.915C601.146 290.011 600.968 287.098 600.883 284.189C600.826 282.265 600.812 280.338 600.84 278.411C596.479 278.161 592.2 276.58 588.731 273.924C587.417 272.917 586.119 271.533 586.207 269.879C586.31 267.947 588.412 266.586 590.344 266.694C592.275 266.804 593.977 267.999 595.362 269.35C597.687 271.618 599.288 274.19 600.869 276.955C601.021 271.017 601.59 265.087 602.671 259.251C598.476 258.289 594.574 256.073 591.614 252.946C590.476 251.743 589.414 250.171 589.763 248.552C590.171 246.661 592.462 245.65 594.352 246.064C596.242 246.478 597.732 247.928 598.885 249.482C600.753 251.999 601.912 254.688 602.999 257.552C604.235 251.418 606.078 245.169 609.492 239.903C609.563 239.793 609.639 239.687 609.711 239.578C605.641 238.037 602.044 235.261 599.534 231.705C598.579 230.352 597.752 228.644 598.328 227.092C599.002 225.278 601.414 224.605 603.226 225.284C605.037 225.964 606.305 227.612 607.225 229.314C608.845 232.313 609.605 235.394 610.318 238.676C614.427 232.701 619.654 227.458 623.551 221.351C619.396 219.826 615.717 217.019 613.164 213.401C612.209 212.049 611.382 210.341 611.959 208.788C612.632 206.975 615.045 206.302 616.856 206.981C618.667 207.66 619.935 209.309 620.855 211.011C622.519 214.091 623.275 217.257 624.005 220.639C624.951 219.095 625.81 217.495 626.538 215.809C628.013 212.397 628.743 208.703 628.851 204.957C624.336 204.609 619.939 202.83 616.461 199.927C615.191 198.865 613.952 197.428 614.109 195.78C614.293 193.854 616.451 192.582 618.376 192.772C620.301 192.962 621.951 194.228 623.278 195.636C625.711 198.217 627.267 201.124 628.865 204.251C628.913 198.202 627.357 192.059 624.679 186.789C620.651 185.977 616.855 184.021 613.874 181.191C612.673 180.051 611.528 178.538 611.79 176.903C612.096 174.993 614.33 173.861 616.239 174.172C618.148 174.485 619.714 175.853 620.949 177.343C622.918 179.719 624.209 182.298 625.431 185.05C625.522 185.115 625.605 185.203 625.67 185.323C628.05 189.758 629.505 194.663 630.083 199.656C630.21 200.757 630.298 201.868 630.345 202.982C631.699 199.221 634.088 195.833 637.198 193.318C638.485 192.277 640.135 191.34 641.722 191.814C643.576 192.368 644.405 194.731 643.846 196.582C643.286 198.435 641.725 199.807 640.086 200.837C637.03 202.756 633.821 203.719 630.377 204.698C630.371 207.038 630.148 209.374 629.594 211.645C628.757 215.083 627.294 218.217 625.493 221.172C628.458 218.306 632.238 216.286 636.276 215.442C637.896 215.103 639.792 215.023 640.987 216.168C642.384 217.507 642.043 219.988 640.701 221.381C639.358 222.773 637.342 223.282 635.414 223.45C631.721 223.771 628.343 223.121 624.724 222.396C621.614 227.183 617.692 231.529 614.227 235.989C613.137 237.393 612.094 238.818 611.133 240.291C614.191 237.02 618.268 234.712 622.65 233.79C624.27 233.449 626.166 233.366 627.363 234.51C628.761 235.847 628.424 238.329 627.083 239.722C625.742 241.117 623.726 241.628 621.799 241.798C618.022 242.131 614.574 241.449 610.86 240.709C609.853 242.29 608.948 243.933 608.196 245.679C606.821 248.874 605.811 252.22 605.014 255.601C604.802 256.5 604.607 257.403 604.424 258.309C606.902 255.092 610.281 252.572 614.082 251.138C615.631 250.553 617.492 250.183 618.849 251.13C620.435 252.238 620.481 254.742 619.369 256.325C618.256 257.907 616.342 258.721 614.464 259.183C610.993 260.038 607.672 259.955 604.134 259.805C603.079 265.507 602.561 271.319 602.422 277.116C604.104 273.226 606.927 269.833 610.463 267.495C611.844 266.581 613.576 265.807 615.11 266.43C616.902 267.158 617.502 269.59 616.769 271.38C616.035 273.17 614.349 274.387 612.62 275.255C609.339 276.901 605.993 277.547 602.401 278.204C602.389 278.972 602.381 279.741 602.381 280.508C602.384 284.721 602.576 288.948 603.003 293.152C604.7 289.389 607.469 286.112 610.913 283.834C612.294 282.92 614.026 282.146 615.56 282.769C617.352 283.497 617.952 285.929 617.218 287.719C616.484 289.509 614.798 290.727 613.069 291.594C609.877 293.195 606.626 293.851 603.146 294.489C603.69 299.275 604.546 304.022 605.784 308.67C606.041 309.639 604.522 309.972 604.265 309.006C603.015 304.312 602.161 299.515 601.615 294.683C597.234 294.427 592.931 292.829 589.441 290.145C588.121 289.132 586.818 287.739 586.902 286.079Z" fill="#FFD7D8"/>
<path d="M60.2107 163.063C59.8905 161.75 58.6856 160.762 57.3653 160.485C56.0449 160.208 54.6484 160.565 53.4811 161.242C52.3137 161.92 51.3489 162.897 50.4717 163.923C49.0206 165.623 47.7457 167.563 47.1757 169.705C45.5863 166.837 44.2193 163.844 43.0867 160.762C42.9838 160.481 42.8859 160.199 42.7869 159.917C45.0345 159.267 47.2816 158.618 49.5291 157.967C51.0287 157.534 52.5686 157.08 53.7985 156.117C55.0278 155.155 55.8891 153.55 55.5187 152.031C55.1985 150.718 53.9936 149.73 52.6727 149.453C51.3524 149.176 49.9558 149.533 48.7885 150.211C47.6212 150.888 46.6564 151.865 45.7792 152.892C44.2825 154.645 42.9718 156.654 42.4308 158.876C41.2795 155.418 40.4176 151.865 39.8596 148.264C42.1111 147.518 44.3627 146.771 46.6148 146.026C48.0962 145.535 49.6179 145.022 50.8097 144.013C52.0014 143.004 52.8007 141.367 52.3723 139.864C52.002 138.564 50.7602 137.622 49.4296 137.397C48.099 137.171 46.7178 137.581 45.5772 138.303C44.4367 139.024 43.51 140.038 42.6726 141.097C41.3329 142.793 40.1645 144.71 39.6485 146.791C39.3043 144.177 39.1166 141.542 39.0967 138.905C39.0905 138.125 39.1047 137.344 39.128 136.564C41.4183 135.721 43.7091 134.878 45.9993 134.034C47.4642 133.495 48.9682 132.932 50.1259 131.884C51.2841 130.837 52.0287 129.174 51.5515 127.686C51.139 126.399 49.8665 125.499 48.5296 125.317C47.1928 125.135 45.8253 125.591 44.7091 126.35C43.593 127.109 42.6999 128.152 41.8978 129.238C40.7521 130.791 39.7515 132.515 39.2304 134.357C39.405 131.716 39.7486 129.086 40.2623 126.487C41.8347 124.701 43.4064 122.914 44.9788 121.127C46.0107 119.955 47.066 118.743 47.5865 117.27C48.107 115.796 47.9722 113.979 46.8452 112.897C45.8708 111.962 44.3246 111.777 43.0623 112.254C41.8 112.731 40.8147 113.784 40.1935 114.983C39.5723 116.183 39.2827 117.526 39.0939 118.864C38.7457 121.33 38.7417 123.931 39.6701 126.226C39.6679 126.234 39.6644 126.241 39.6627 126.25C39.1109 129.015 38.752 131.816 38.5813 134.628C38.0142 132.702 36.9032 130.925 35.6414 129.341C34.8001 128.284 33.8688 127.275 32.7254 126.557C31.582 125.84 30.1985 125.434 28.8696 125.665C27.5402 125.896 26.3024 126.842 25.9371 128.143C25.515 129.648 26.3211 131.282 27.5169 132.287C28.7126 133.292 30.2366 133.799 31.7202 134.284C33.9798 135.023 36.2393 135.762 38.4988 136.501C38.3919 139.948 38.5665 143.403 39.0148 146.824C37.9897 144.976 36.3986 143.44 34.6977 142.154C33.6208 141.339 32.4689 140.593 31.1832 140.182C29.8982 139.772 28.4572 139.723 27.2268 140.277C25.9963 140.831 25.0315 142.056 25.0008 143.406C24.965 144.969 26.1505 146.351 27.5578 147.027C28.9652 147.703 30.5671 147.815 32.1241 147.917C34.4952 148.071 36.8656 148.225 39.2367 148.379C39.2531 148.486 39.2679 148.594 39.285 148.701C39.851 152.216 40.7038 155.682 41.8261 159.057C40.4227 157.148 38.3396 155.792 36.1853 154.769C34.9662 154.189 33.6868 153.692 32.3454 153.55C31.0035 153.408 29.583 153.652 28.4902 154.445C27.3974 155.237 26.7 156.632 26.9429 157.962C27.2239 159.499 28.6643 160.613 30.1792 160.989C31.6941 161.366 33.2852 161.151 34.8308 160.934C37.2593 160.594 39.6883 160.254 42.1168 159.913C42.1333 159.96 42.1504 160.006 42.1669 160.053L42.1248 160.109C42.1436 160.103 42.1618 160.098 42.1805 160.093C43.3274 163.358 44.7308 166.533 46.3839 169.578C44.551 168.498 42.3899 167.966 40.2589 167.705C38.8936 167.537 37.4971 167.467 36.154 167.762C34.8109 168.057 33.515 168.749 32.7118 169.865C31.9091 170.981 31.6816 172.553 32.3426 173.758C33.1071 175.153 34.8575 175.767 36.4435 175.643C38.0295 175.52 39.5 174.801 40.925 174.095C42.9496 173.093 44.9748 172.09 46.9994 171.088C47.0654 171.069 47.1314 171.05 47.1968 171.031C49.1059 174.335 51.312 177.462 53.7945 180.359C54.0567 180.665 54.5846 180.314 54.319 180.004C51.878 177.156 49.7078 174.087 47.8243 170.849C49.9564 170.233 52.0885 169.616 54.2206 168.999C55.7195 168.566 57.26 168.112 58.4893 167.149C59.7198 166.186 60.5811 164.582 60.2107 163.063Z" fill="#FFD7D8"/>
<path d="M455.57 137.42C456.82 136.809 457.548 135.38 457.535 133.992C457.523 132.604 456.856 131.279 455.918 130.255C454.98 129.231 453.786 128.476 452.561 127.82C450.533 126.736 448.302 125.882 446.024 125.781C448.556 123.552 451.264 121.519 454.112 119.702C454.371 119.537 454.633 119.376 454.894 119.215C456.042 121.33 457.191 123.446 458.339 125.562C459.105 126.973 459.9 128.421 461.138 129.445C462.376 130.469 464.179 130.981 465.624 130.275C466.873 129.664 467.601 128.235 467.589 126.847C467.576 125.459 466.91 124.134 465.972 123.11C465.034 122.086 463.84 121.331 462.615 120.676C460.524 119.557 458.215 118.682 455.862 118.628C459.084 116.709 462.466 115.061 465.962 113.707C467.208 115.806 468.454 117.905 469.699 120.004C470.519 121.385 471.37 122.801 472.646 123.777C473.923 124.753 475.744 125.195 477.161 124.434C478.385 123.776 479.058 122.32 478.992 120.933C478.927 119.546 478.21 118.248 477.233 117.261C476.257 116.273 475.034 115.565 473.784 114.957C471.784 113.983 469.601 113.231 467.396 113.171C469.947 112.249 472.554 111.481 475.2 110.88C475.984 110.702 476.771 110.544 477.561 110.396C478.913 112.512 480.265 114.628 481.617 116.745C482.482 118.098 483.378 119.486 484.687 120.419C485.995 121.352 487.83 121.735 489.221 120.928C490.423 120.23 491.047 118.752 490.936 117.369C490.825 115.985 490.065 114.71 489.057 113.756C488.049 112.801 486.803 112.133 485.535 111.566C483.722 110.757 481.77 110.13 479.803 110.013C482.497 109.607 485.215 109.373 487.941 109.316C490.082 110.503 492.225 111.69 494.367 112.876C495.772 113.655 497.222 114.449 498.818 114.648C500.414 114.846 502.211 114.31 503.05 112.94C503.775 111.755 503.621 110.159 502.863 108.996C502.106 107.832 500.831 107.074 499.488 106.713C498.145 106.353 496.732 106.358 495.346 106.462C492.791 106.656 490.175 107.224 488.073 108.663C488.064 108.663 488.057 108.661 488.047 108.661C485.146 108.716 482.252 108.972 479.388 109.419C481.199 108.426 482.741 106.917 484.055 105.3C484.931 104.222 485.741 103.063 486.21 101.756C486.679 100.449 486.782 98.9693 486.257 97.6843C485.732 96.3992 484.509 95.3627 483.121 95.2825C481.516 95.1898 480.051 96.3594 479.305 97.7827C478.558 99.206 478.384 100.849 478.223 102.447C477.978 104.882 477.733 107.315 477.488 109.749C473.999 110.4 470.565 111.336 467.225 112.54C468.858 111.103 470.051 109.165 470.969 107.172C471.55 105.911 472.047 104.588 472.177 103.206C472.306 101.823 472.039 100.364 471.21 99.2503C470.382 98.1359 468.939 97.4357 467.575 97.7019C465.996 98.0102 464.867 99.5063 464.498 101.07C464.129 102.633 464.369 104.268 464.61 105.855C464.977 108.273 465.344 110.689 465.711 113.106C465.607 113.147 465.502 113.185 465.398 113.226C461.99 114.568 458.695 116.189 455.549 118.06C457.158 116.229 458.063 113.837 458.616 111.446C458.93 110.093 459.149 108.698 458.995 107.319C458.841 105.939 458.283 104.565 457.246 103.641C456.209 102.717 454.654 102.323 453.371 102.86C451.888 103.481 451.086 105.174 451.041 106.78C450.996 108.385 451.562 109.937 452.12 111.443C452.997 113.809 453.874 116.175 454.751 118.541C454.707 118.568 454.664 118.595 454.62 118.622L454.556 118.592C454.565 118.609 454.575 118.627 454.584 118.644C451.554 120.516 448.672 122.626 445.976 124.957C446.658 122.877 446.717 120.588 446.51 118.389C446.378 116.98 446.14 115.56 445.549 114.275C444.957 112.99 443.976 111.84 442.677 111.278C441.378 110.718 439.748 110.835 438.682 111.765C437.448 112.841 437.218 114.735 437.691 116.302C438.164 117.869 439.21 119.189 440.234 120.466C441.687 122.28 443.141 124.095 444.594 125.909C444.628 125.971 444.661 126.033 444.695 126.095C441.795 128.741 439.137 131.647 436.772 134.781C436.523 135.112 436.991 135.566 437.244 135.23C439.57 132.15 442.177 129.292 445.016 126.686C446.105 128.693 447.194 130.701 448.283 132.708C449.05 134.119 449.845 135.567 451.083 136.591C452.323 137.615 454.126 138.127 455.57 137.42Z" fill="#FFD7D8"/>
<path d="M390.492 57.3418C392.255 64.7888 404.62 75.1012 403.078 82.6841C394.105 83.0357 395.791 70.0963 391.404 64.4349C386.722 59.5837 380.769 78.1105 384.906 87.1862C387.979 94.7339 398.326 93.3794 411.925 103.125C423.668 111.29 423.35 115.952 430.879 117.663C444.656 120.79 459.589 108.354 458.925 106.674C458.656 105.996 455.992 107.38 449.612 107.151C449.013 107.62 424.372 103.683 433.471 98.5754C444.412 95.7271 450.165 108.566 463.006 102.599C472.633 98.1209 474.711 83.0221 473.682 82.5294C470.712 89.8894 450.357 91.6773 442.986 87.1486C438.789 84.0676 442.927 82.7757 447.642 82.8264C463.178 80.9383 471.496 81.0202 479.162 70.9974C488.558 58.7116 477.411 46.1778 477.133 28.7642C477.133 28.7642 457.012 21.5903 444.271 28.1681C432.009 34.499 440.703 47.3058 436.724 55.7706C435.36 59.6036 430.144 59.8266 428.063 56.997C423.586 52.7971 424.346 44.7323 424.959 38.923C425.978 29.299 428.53 26.2043 426.92 24.8533C422.778 21.1352 407.829 34.107 409.515 42.6303C407.183 52.7283 422.728 66.6985 416.738 76.3168C408.581 75.356 402.586 53.684 403.308 44.8722C404.216 40.2781 406.766 37.4531 406.117 36.9075C401.287 38.4179 389.357 50.5467 390.492 57.3418Z" fill="#FFD7D8"/>
<path d="M389.46 74.7555C389.398 77.1441 389.933 79.5209 390.986 81.6626C392.006 83.743 393.516 85.4934 395.315 86.9372C397.29 88.5158 399.504 89.7422 401.676 91.0239C404.025 92.417 406.306 93.9325 408.475 95.5947C409.452 96.3473 410.456 97.0971 411.344 97.9538C412.085 98.6672 412.761 99.554 412.705 100.636C412.705 100.648 412.714 100.653 412.713 100.666C412.594 100.814 412.484 100.968 412.359 101.114C411.95 101.606 411.527 102.09 411.083 102.557C411.163 102.601 411.233 102.652 411.307 102.706C412.1 101.856 412.852 100.958 413.545 100.022C413.553 100.019 413.56 100.018 413.563 100.013C413.956 99.7025 414.424 99.471 414.894 99.2895C415.334 99.1166 415.847 98.9471 416.325 99.0278C417.036 99.153 417.706 99.5506 418.321 99.917C418.932 100.288 419.541 100.676 420.137 101.075C424.331 103.883 428.166 107.271 432.707 109.533C436.44 111.389 440.702 112.506 444.858 111.614C445.026 111.578 444.956 111.318 444.78 111.356C442.359 111.872 439.855 111.696 437.467 111.069C432.794 109.84 428.811 107.028 424.964 104.204C422.834 102.638 420.717 101.048 418.451 99.682C417.616 99.1809 416.639 98.5938 415.632 98.7901C415.069 98.8953 414.494 99.1223 413.978 99.4198C415.858 96.7387 417.299 93.7829 418.739 90.851C418.808 90.7167 418.874 90.5751 418.943 90.4414C418.943 90.4414 418.943 90.4414 418.95 90.4397C420.929 89.0926 423.282 88.4344 425.659 88.2746C430.505 87.9446 435.017 89.7604 439.356 91.7014C440.542 92.2327 441.731 92.7709 442.928 93.2834C444.049 93.7658 445.191 94.2471 446.377 94.5685C448.396 95.1078 450.699 95.1226 452.45 93.8335C452.587 93.7317 452.453 93.4967 452.313 93.6037C450.112 95.2272 447.247 94.6845 444.866 93.7897C440.138 92.0075 435.712 89.3298 430.7 88.3434C426.853 87.5862 422.549 87.861 419.167 89.9823C420.522 87.237 421.93 84.4967 423.759 82.0273C424.762 80.6785 425.894 79.4509 427.109 78.3063C427.118 78.2995 427.13 78.3001 427.143 78.2887C427.151 78.2745 427.164 78.2631 427.174 78.2443C428.278 77.2107 429.444 76.2419 430.642 75.3158C432.637 73.7747 434.703 72.3293 436.716 70.811C439.279 70.1278 441.98 70.105 444.613 70.2597C449.338 70.5333 454.105 71.6483 458.834 70.8417C463.043 70.1204 467.416 67.4 468.286 62.9396C468.321 62.7683 468.061 62.7035 468.027 62.8753C467.545 65.3561 465.856 67.3744 463.757 68.7158C459.694 71.3087 454.681 71.022 450.089 70.5208C445.863 70.0578 441.442 69.4485 437.242 70.4088C437.498 70.2131 437.759 70.0202 438.018 69.8194C440.558 67.8193 442.865 65.5854 444.91 63.0818C449.099 57.9518 452.21 52.0629 455.273 46.2263C455.357 46.0761 455.122 45.9453 455.038 46.0955C454.665 46.8105 454.292 47.525 453.914 48.2378C450.94 53.8468 447.791 59.4627 443.569 64.2417C444.172 62.6273 444.046 60.7984 443.945 59.1122C443.817 56.9995 443.759 54.538 445.384 52.9327C445.507 52.8104 445.316 52.6243 445.193 52.7461C443.669 54.2473 443.539 56.537 443.643 58.5502C443.75 60.6459 444.056 62.9692 442.983 64.8749C442.978 64.884 442.987 64.8896 442.982 64.8987C442.982 64.8987 442.982 64.8987 442.979 64.9039C440.809 67.2573 438.353 69.2733 435.785 71.1785C433.326 73.0017 430.807 74.743 428.468 76.7254C428.245 76.9149 428.024 77.1123 427.807 77.3046C429.003 75.1537 429.011 72.4641 428.44 70.0982C427.779 67.3625 426.243 64.9391 424.771 62.5766C423.309 60.2312 421.987 57.8414 421.017 55.2536C419.153 50.2681 418.441 44.8718 418.959 39.5751C418.981 39.4028 418.706 39.4102 418.692 39.5802C418.408 42.4672 418.489 45.3838 418.923 48.2515C419.312 50.8239 419.984 53.3508 420.929 55.7764C421.911 58.2783 423.216 60.5856 424.632 62.8611C426.11 65.2338 427.631 67.6731 428.245 70.4378C428.811 72.9914 428.676 75.9535 426.975 78.0708C425.202 79.7535 423.628 81.6086 422.298 83.6787C420.481 86.5242 419.071 89.6017 417.571 92.6173C417.439 92.8761 417.31 93.1304 417.181 93.3841C417.186 91.5291 416.64 89.6819 415.813 88.0282C414.927 86.25 413.661 84.6901 412.41 83.1576C411.109 81.5728 409.832 79.9765 408.7 78.2642C406.5 74.9432 404.747 71.3417 403.489 67.5662C403.434 67.4 403.171 67.4751 403.229 67.6367C403.922 69.7074 404.756 71.7337 405.733 73.6803C406.612 75.4296 407.6 77.1237 408.693 78.7409C409.818 80.3997 411.073 81.9471 412.34 83.4944C413.604 85.0468 414.872 86.6374 415.727 88.4606C416.521 90.1507 417.018 92.0325 416.901 93.9109C416.903 93.9183 416.911 93.916 416.908 93.9211C415.753 96.163 414.495 98.3469 412.965 100.344C412.907 99.3885 412.337 98.5671 411.668 97.8998C410.697 96.9162 409.55 96.0811 408.454 95.2437C406.326 93.6293 404.106 92.148 401.806 90.7884C399.588 89.48 397.311 88.2319 395.315 86.5924C393.499 85.1026 392.015 83.2924 391.039 81.1563C390.124 79.1528 389.67 76.9507 389.727 74.7492C389.73 74.5791 389.463 74.5843 389.46 74.7555Z" fill="white"/>
<path d="M343.555 69.0039C274.43 69.0039 218.387 125.038 218.387 194.173C218.387 263.297 274.43 319.341 343.555 319.341C412.69 319.341 468.724 263.297 468.724 194.173C468.724 125.038 412.69 69.0039 343.555 69.0039ZM343.555 278.576C296.94 278.576 259.152 240.788 259.152 194.173C259.152 147.557 296.94 109.769 343.555 109.769C390.17 109.769 427.959 147.557 427.959 194.173C427.959 240.788 390.17 278.576 343.555 278.576Z" fill="#FB6D72"/>
<path d="M339.447 109.87C338.086 109.805 336.717 109.768 335.339 109.768C288.724 109.768 250.936 147.556 250.936 194.172C250.936 240.787 288.724 278.575 335.339 278.575C336.717 278.575 338.086 278.54 339.447 278.474C294.74 276.332 259.151 239.409 259.151 194.171C259.151 148.934 294.74 112.012 339.447 109.87ZM343.554 69.0039C342.179 69.0039 340.812 69.0335 339.447 69.0779C406.679 71.2458 460.508 126.413 460.508 194.172C460.508 261.922 406.679 317.098 339.447 319.266C340.812 319.31 342.179 319.341 343.554 319.341C412.689 319.341 468.722 263.297 468.722 194.172C468.723 125.038 412.689 69.0039 343.554 69.0039Z" fill="#C52127"/>
<path d="M476.487 191.195C476.487 191.195 474.605 193.351 471.6 196.669C471.561 196.709 471.535 196.735 471.495 196.774C470.711 197.636 469.836 198.577 468.909 199.57C468.517 199.988 468.125 200.406 467.72 200.837C462.99 205.855 456.862 212.074 450.629 217.627C442.437 224.958 434.061 231.151 428.495 231.922C428.404 231.935 428.325 231.949 428.234 231.949C427.946 231.988 427.672 232.001 427.397 232.001C427.28 232.001 427.176 231.988 427.058 231.988C415.873 231.465 396.822 220.633 390.459 216.818C389.1 216.021 388.316 215.524 388.316 215.524L390.224 172.888L429.11 202.928L459.254 189.012L460.848 188.281L464.872 186.426L465.342 186.203L471.458 183.394C471.458 183.394 475.195 178.194 481.637 176.011C488.117 173.803 492.351 170.026 493.84 171.857C495.356 173.673 485.504 179.03 487.882 179.526C493.867 180.715 506.894 176.638 511.859 177.305C518.534 178.194 496.453 193.469 476.487 191.195Z" fill="#F9CBCB"/>
<path d="M472.815 198.525C472.018 199.387 471.129 200.341 470.163 201.335L468.947 202.563C465.432 206.129 461.107 210.232 456.521 214.218C446.525 222.92 435.275 231.073 428.494 231.923C428.403 231.935 428.324 231.949 428.233 231.949C427.945 231.988 427.671 232.001 427.396 232.001C427.279 232.001 427.175 231.988 427.057 231.988C415.872 231.466 396.821 220.634 390.458 216.818C389.099 216.021 388.315 215.525 388.315 215.525L387.623 168.551C391.49 170.041 414.056 190.241 429.108 202.928L457.933 187.157L459.462 186.334L463.395 184.178L464.871 186.426L471.6 196.669L472.815 198.525Z" fill="#CE2127"/>
<path d="M470.167 201.34L468.944 202.563L457.936 187.159L459.456 186.332L470.167 201.34Z" fill="white"/>
<path d="M456.523 214.215C446.527 222.917 435.277 231.07 428.495 231.92C428.404 231.933 428.326 231.946 428.235 231.946C427.947 231.985 427.672 231.999 427.398 231.999C427.28 231.999 427.176 231.985 427.058 231.985C415.874 231.463 396.823 220.631 390.46 216.816C390.381 216.632 390.342 216.541 390.342 216.541L390.016 202.469C390.016 202.469 415.43 227.386 429.123 225.4C437.002 224.264 445.143 220.579 450.631 217.626C453.36 216.175 455.438 214.908 456.523 214.215Z" fill="#C52127"/>
<path d="M205.5 181.244C205.5 181.244 207.168 183.569 209.844 187.158C209.879 187.201 209.903 187.229 209.938 187.272C210.637 188.206 211.419 189.225 212.247 190.302C212.598 190.755 212.949 191.209 213.311 191.677C217.542 197.12 223.052 203.894 228.729 210.015C236.188 218.09 243.937 225.052 249.405 226.348C249.495 226.37 249.571 226.39 249.662 226.399C249.945 226.465 250.216 226.504 250.49 226.529C250.607 226.541 250.712 226.538 250.829 226.549C262.013 227.091 282.007 218.119 288.704 214.926C290.133 214.261 290.96 213.841 290.96 213.841L293.112 171.218L251.548 197.426L222.863 180.709L221.346 179.829L217.516 177.6L217.069 177.334L211.249 173.956C211.249 173.956 208.022 168.424 201.818 165.64C195.576 162.826 191.72 158.664 190.063 160.344C188.382 162.008 197.68 168.277 195.266 168.546C189.196 169.16 176.615 163.864 171.609 164.055C164.878 164.306 185.408 181.61 205.5 181.244Z" fill="#F9CBCB"/>
<path d="M208.459 188.893C209.17 189.827 209.964 190.861 210.832 191.942L211.925 193.28C215.085 197.164 219.001 201.66 223.187 206.063C232.311 215.675 242.735 224.861 249.405 226.351C249.495 226.372 249.572 226.393 249.663 226.401C249.946 226.468 250.217 226.507 250.491 226.532C250.608 226.543 250.713 226.541 250.83 226.551C262.014 227.094 282.008 218.121 288.704 214.928C290.133 214.264 290.96 213.843 290.96 213.843L296.344 167.105C292.352 168.22 267.739 186.229 251.549 197.429L224.354 178.99L222.91 178.025L219.2 175.506L217.516 177.603L209.844 187.161L208.459 188.893Z" fill="#CE2127"/>
<path d="M210.828 191.945L211.929 193.279L224.352 178.99L222.917 178.023L210.828 191.945Z" fill="white"/>
<path d="M223.188 206.058C232.311 215.67 242.735 224.856 249.405 226.346C249.495 226.367 249.572 226.388 249.663 226.396C249.946 226.463 250.217 226.502 250.491 226.527C250.608 226.539 250.713 226.536 250.83 226.546C262.014 227.089 282.008 218.116 288.704 214.923C288.8 214.749 288.847 214.661 288.847 214.661L290.509 200.684C290.509 200.684 262.843 223.073 249.4 219.795C241.665 217.915 233.912 213.473 228.729 210.012C226.149 208.309 224.201 206.851 223.188 206.058Z" fill="#C52127"/>
<path d="M388.129 202.859V203.042C388.129 203.048 388.129 203.048 388.129 203.054V203.117C388.129 203.123 388.129 203.123 388.129 203.13C388.073 224.295 386.005 250.616 384.389 268.016C375.192 273.128 364.94 276.572 354.033 277.924C350.6 278.351 347.106 278.571 343.56 278.571C341.127 278.571 338.713 278.47 336.331 278.263C323.123 277.138 310.784 272.964 300.028 266.439C297.023 249.956 293.176 226.376 291.748 207.009V206.971C291.654 205.695 291.572 204.444 291.497 203.218V203.117C290.894 192.638 291.12 183.737 292.748 178.356C292.748 178.349 292.748 178.349 292.748 178.337C292.748 178.331 292.748 178.331 292.755 178.324C293.446 176.068 294.37 174.446 295.595 173.578C295.665 173.528 295.734 173.478 295.809 173.433C305.42 167.493 319.333 162.282 327.046 159.622C327.265 159.547 327.48 159.471 327.681 159.402C327.882 159.333 328.083 159.27 328.278 159.195C329.252 158.861 330.094 158.585 330.774 158.365C330.843 158.34 330.912 158.314 330.981 158.296C331.12 158.246 331.258 158.201 331.384 158.164C331.422 158.151 331.453 158.139 331.484 158.126C331.497 158.119 331.503 158.119 331.516 158.119C331.874 158.006 332.151 157.912 332.352 157.855C332.383 157.843 332.415 157.836 332.446 157.824C332.477 157.811 332.502 157.805 332.522 157.799C332.535 157.792 332.547 157.792 332.559 157.787C332.61 157.774 332.647 157.762 332.673 157.755C332.679 157.748 332.692 157.748 332.692 157.748C332.699 157.742 332.705 157.742 332.705 157.742H355.781C355.781 157.742 356.084 157.843 356.636 158.031C356.643 158.031 356.655 158.031 356.662 158.037C356.837 158.094 357.032 158.163 357.252 158.238C357.328 158.263 357.403 158.288 357.485 158.32C357.592 158.358 357.704 158.39 357.818 158.433C357.849 158.446 357.881 158.452 357.919 158.465C358.164 158.547 358.434 158.641 358.717 158.741C358.855 158.792 358.994 158.842 359.138 158.892C359.207 158.917 359.283 158.942 359.364 158.968C359.59 159.049 359.83 159.131 360.08 159.22C365.707 161.256 375.683 165.085 382.717 169.146C385.992 171.038 387.514 180.247 387.973 192.744C387.979 192.77 387.979 192.801 387.979 192.82C387.979 192.826 387.979 192.826 387.979 192.833C387.979 192.839 387.979 192.839 387.979 192.845V193.015C387.979 193.047 387.979 193.078 387.986 193.11C388.085 196.184 388.136 199.453 388.129 202.859Z" fill="white"/>
<path d="M360.077 159.218C357.581 162.641 352.83 170.857 344.371 170.691C334.248 170.492 329.998 163.152 327.045 159.623C330.495 158.422 332.702 157.742 332.702 157.742H355.777C355.777 157.742 357.451 158.291 360.077 159.218Z" fill="#C52127"/>
<path d="M390.407 264.33C388.459 265.644 386.453 266.87 384.391 268.02C375.194 273.131 364.942 276.576 354.035 277.927C353.903 237.06 354.563 198.834 356.323 164.309V164.297C356.43 162.197 356.549 160.104 356.663 158.042V157.998H356.669C357.524 158.212 358.951 158.558 360.799 159.042C367.739 160.859 380.368 164.486 387.622 168.546C387.629 168.553 387.635 168.553 387.64 168.559C387.64 168.565 387.647 168.565 387.647 168.565C388.32 168.955 388.886 170.199 389.25 172.18C389.577 173.72 389.81 175.732 389.986 178.152V178.259C389.986 178.265 389.986 178.265 389.986 178.271V178.29C390.413 184.268 390.432 192.672 390.344 202.787V202.793C390.331 205.942 390.287 209.268 390.256 212.726V212.845C390.256 212.851 390.256 212.851 390.256 212.864V212.946C390.237 214.165 390.225 215.404 390.212 216.667V216.673C390.068 230.906 389.942 247.263 390.407 264.33ZM336.333 278.266C323.125 277.141 310.786 272.967 300.029 266.442C297.509 264.921 295.076 263.268 292.738 261.488C292.794 244.653 290.883 228.649 289.406 214.599C289.318 213.763 289.23 212.939 289.154 212.122C289.154 212.116 289.154 212.116 289.154 212.109V212.091C288.803 208.746 288.488 205.534 288.256 202.441C287.445 192.32 287.357 183.639 289.186 176.931C289.575 175.423 290.072 174.039 290.689 172.751V172.738C291.06 171.946 291.481 171.21 291.94 170.494C292.693 169.306 294.234 168.187 296.283 167.124C296.296 167.118 296.308 167.112 296.321 167.105C296.327 167.099 296.334 167.099 296.34 167.099H296.352C303.965 163.183 318.549 160.203 326.646 158.732C330.028 158.166 332.272 157.789 332.524 157.789C332.524 157.789 332.524 157.789 332.524 157.795C332.524 157.795 332.524 157.795 332.524 157.802C332.53 157.909 332.555 158.443 332.706 159.229C332.945 161.668 333.184 164.163 333.404 166.709V166.728C336.019 197.13 336.729 235.401 336.333 278.266Z" fill="#C52127"/>
<path d="M356.665 158.001C356.076 158.765 355.472 159.135 354.882 159.829C347.454 168.194 339.957 168.68 332.459 157.642L335.34 140.15L336.416 133.59L352.347 133.484L356.665 158.001Z" fill="#F9CBCB"/>
<path d="M356.667 157.998C356.078 158.762 355.474 159.132 354.883 159.826C354.224 157.223 351.725 148.511 348.253 144.067C345.443 140.493 339.09 140.007 335.342 140.146L336.418 133.586L352.349 133.481L356.667 157.998ZM375.215 104.644C374.098 106.089 372.982 107.402 371.8 108.584L372.982 105.235L373.442 103.988C373.442 103.988 373.705 103.857 374.163 103.791C374.36 103.725 374.558 103.66 374.82 103.594C374.886 103.594 375.017 103.659 375.083 103.725C375.347 103.923 375.413 104.316 375.215 104.644Z" fill="#EBB0B0"/>
<path d="M370.026 119.286H369.96C369.5 119.352 368.975 119.417 368.384 119.417H367.99L371.799 108.582C372.981 107.4 374.097 106.086 375.214 104.642C375.411 104.314 375.346 103.919 375.082 103.723C375.016 103.657 374.885 103.591 374.819 103.591C376.658 103.198 379.876 102.935 381.912 105.102C384.275 107.597 383.422 117.972 370.026 119.286Z" fill="#EBB0B0"/>
<path d="M372.72 103.007C372.72 110.538 370.277 117.766 366.27 123.514C366.126 123.733 365.975 123.944 365.822 124.156V124.215C360.505 131.509 352.695 136.303 344.352 136.303C334.175 136.303 324.649 127.503 321.242 115.027C320.321 111.806 319.797 108.324 319.797 104.714C319.797 87.0481 328.064 71.0977 343.955 71.0977C347.15 71.0977 350.227 71.6722 353.101 72.7457C364.503 76.9894 372.72 88.9498 372.72 103.007Z" fill="#F9CBCB"/>
<path d="M366.876 121.6C373.064 103.553 362.943 90.9902 359.119 87.9946C354.212 84.1513 336.768 88.0754 336.768 88.0754L353.099 72.7422C364.501 76.9859 372.718 88.9463 372.718 103.004C372.718 110.535 370.275 117.762 366.268 123.51C366.445 122.918 366.64 122.285 366.876 121.6Z" fill="#EBB0B0"/>
<path d="M326.566 102.614C326.566 100.437 328.331 98.6719 330.508 98.6719C332.686 98.6719 334.45 100.438 334.45 102.614C334.45 104.792 332.685 106.556 330.508 106.556C328.331 106.556 326.566 104.792 326.566 102.614ZM352.383 102.614C352.383 100.437 354.147 98.6719 356.325 98.6719C358.501 98.6719 360.267 100.438 360.267 102.614C360.267 104.792 358.501 106.556 356.325 106.556C354.147 106.556 352.383 104.792 352.383 102.614Z" fill="#FDEAEA"/>
<path d="M327.496 102.616C327.496 100.953 328.845 99.6049 330.508 99.6049C332.172 99.6049 333.52 100.954 333.52 102.616C333.52 104.28 332.172 105.629 330.508 105.629C328.845 105.629 327.496 104.28 327.496 102.616ZM353.313 102.559C353.313 100.895 354.662 99.5469 356.326 99.5469C357.989 99.5469 359.338 100.896 359.338 102.559C359.338 104.222 357.989 105.571 356.326 105.571C354.662 105.571 353.313 104.222 353.313 102.559Z" fill="#121212"/>
<path d="M330.949 101.602C330.637 101.29 330.637 100.784 330.949 100.472C331.26 100.16 331.766 100.16 332.078 100.472C332.39 100.784 332.39 101.29 332.078 101.602C331.766 101.914 331.26 101.914 330.949 101.602ZM356.641 101.602C356.329 101.29 356.329 100.784 356.641 100.472C356.954 100.16 357.459 100.16 357.771 100.472C358.082 100.784 358.082 101.29 357.771 101.602C357.459 101.914 356.954 101.914 356.641 101.602Z" fill="white"/>
<path d="M337.755 95.3635C337.569 94.9261 336.965 94.6166 336.512 94.8612C334.437 95.9819 331.841 95.6941 330.202 93.9402C329.853 93.5665 329.304 93.4362 328.872 93.7702C328.496 94.0608 328.351 94.7241 328.702 95.0996C330.888 97.4393 334.393 98.1516 337.253 96.6065C337.703 96.3642 337.969 95.8659 337.755 95.3635ZM360.069 94.4642C359.773 94.0921 359.108 93.955 358.737 94.3117C357.035 95.9449 354.457 96.3596 352.41 95.1059C351.973 94.8385 351.41 94.8595 351.083 95.2964C350.798 95.677 350.835 96.3551 351.273 96.6236C354.004 98.296 357.571 98.048 359.917 95.7964C360.285 95.442 360.409 94.8914 360.069 94.4642Z" fill="#121212"/>
<path d="M323.631 109.911C323.631 108.823 325.362 107.941 327.497 107.941C329.632 107.941 331.363 108.823 331.363 109.911C331.363 110.999 329.632 111.881 327.497 111.881C325.362 111.881 323.631 110.999 323.631 109.911ZM356.402 109.911C356.402 108.823 358.133 107.941 360.268 107.941C362.404 107.941 364.134 108.823 364.134 109.911C364.134 110.999 362.403 111.881 360.268 111.881C358.133 111.881 356.402 110.999 356.402 109.911Z" fill="#FFB3B3"/>
<path d="M353.632 120.661C353.602 119.877 353.341 119.067 352.87 118.434C352.625 118.105 352.349 117.806 352.015 117.565C351.606 117.269 351.203 117.064 350.722 116.906C350.504 116.835 350.193 116.912 350.007 117.031C349.811 117.155 349.631 117.391 349.589 117.624C349.547 117.866 349.57 118.131 349.714 118.339C349.845 118.527 350.008 118.638 350.212 118.719C350.325 118.762 350.434 118.812 350.541 118.867C348.472 120.83 345.64 121.802 342.788 121.582C342.277 121.543 341.865 122.11 341.888 122.576C341.915 123.14 342.368 123.437 342.881 123.477C346.087 123.723 349.324 122.547 351.695 120.396C351.698 120.408 351.701 120.419 351.704 120.431C351.718 120.538 351.733 120.646 351.737 120.755C351.756 121.25 352.224 121.702 352.73 121.655C353.247 121.607 353.652 121.193 353.632 120.661Z" fill="#F5A7A7"/>
<path d="M317.173 56.8164C312.33 61.7496 310.403 84.1532 323.3 88.7133C334.18 92.5599 348.767 80.5745 359.481 85.1106C366.622 88.1347 372.249 100.163 369.894 115.019C369.894 115.019 384.988 101.011 382.28 83.0132C380.417 70.6267 373.174 64.8727 362.291 65.8767C347.315 57.036 339.727 69.1608 329.006 68.9287C320.095 68.737 318.542 62.955 317.173 56.8164Z" fill="#121535"/>
<path d="M341.861 109.152C341.861 109.15 341.87 109.049 341.871 109.009C341.878 108.978 341.887 108.942 341.889 108.934C341.907 108.87 341.928 108.807 341.952 108.744C341.96 108.729 341.971 108.706 341.981 108.686C342.01 108.631 342.038 108.575 342.068 108.52C342.137 108.394 342.211 108.273 342.283 108.15C342.431 107.902 342.579 107.653 342.727 107.404C343.041 106.877 343.354 106.351 343.667 105.824C343.921 105.397 343.777 104.765 343.327 104.527C342.869 104.285 342.3 104.411 342.03 104.867C341.664 105.481 341.299 106.096 340.933 106.711C340.576 107.311 340.13 107.938 340.016 108.642C339.892 109.409 340.068 110.187 340.674 110.713C341.154 111.128 341.76 111.325 342.371 111.456C342.855 111.56 343.419 111.313 343.537 110.794C343.646 110.317 343.393 109.739 342.875 109.628C342.675 109.585 342.476 109.538 342.282 109.475C342.237 109.461 342.192 109.443 342.147 109.428C342.145 109.427 342.145 109.427 342.143 109.426C342.102 109.404 342.06 109.383 342.02 109.36C342.014 109.356 341.969 109.325 341.938 109.304C341.928 109.294 341.919 109.286 341.914 109.282C341.902 109.271 341.892 109.259 341.881 109.247C341.873 109.232 341.866 109.217 341.86 109.203C341.859 109.201 341.858 109.2 341.858 109.197C341.86 109.185 341.861 109.173 341.861 109.152Z" fill="#FFB3B3"/>
<path d="M115.77 270.134H0.427734V218.059L115.77 80.9531H170.955V221.012H199.557V270.133H170.955V312.727H115.77V270.134ZM115.77 221.012V149.295L54.8249 221.012H115.77Z" fill="#FB6D72"/>
<path d="M199.555 221.012H187.686V270.133H199.555V221.012Z" fill="#C52127"/>
<path d="M170.954 80.9531H159.084V221.012H170.954V80.9531Z" fill="#C52127"/>
<path d="M54.825 221.013L115.77 150.984V137.016L42.9551 221.013H54.825Z" fill="#C52127"/>
<path d="M170.954 270.133H159.084V312.726H170.954V270.133Z" fill="#C52127"/>
<path d="M541.245 101.973C543.749 100.93 544.934 98.0551 543.891 95.5506C542.848 93.0462 539.973 91.8613 537.468 92.9041C534.964 93.9469 533.779 96.8226 534.822 99.327C535.865 101.831 538.74 103.016 541.245 101.973Z" fill="#FB6D72" fill-opacity="0.25"/>
<path d="M639.744 73.5782C642.457 73.5782 644.656 71.379 644.656 68.6661C644.656 65.9531 642.457 63.7539 639.744 63.7539C637.031 63.7539 634.832 65.9531 634.832 68.6661C634.832 71.379 637.031 73.5782 639.744 73.5782Z" fill="#FFD7D8"/>
<path d="M387.623 9.82431C390.336 9.82431 392.535 7.62506 392.535 4.91215C392.535 2.19924 390.336 0 387.623 0C384.91 0 382.711 2.19924 382.711 4.91215C382.711 7.62506 384.91 9.82431 387.623 9.82431Z" fill="#FB6D72" fill-opacity="0.25"/>
<path d="M256.85 9.82431C259.563 9.82431 261.762 7.62506 261.762 4.91215C261.762 2.19924 259.563 0 256.85 0C254.137 0 251.938 2.19924 251.938 4.91215C251.938 7.62506 254.137 9.82431 256.85 9.82431Z" fill="#FB6D72" fill-opacity="0.25"/>
<path d="M201.029 90.8321C203.742 90.8321 205.941 88.6329 205.941 85.92C205.941 83.2071 203.742 81.0078 201.029 81.0078C198.316 81.0078 196.117 83.2071 196.117 85.92C196.117 88.6329 198.316 90.8321 201.029 90.8321Z" fill="#FB6D72" fill-opacity="0.25"/>
<path d="M56.8457 50.3009C59.5587 50.3009 61.7579 48.1016 61.7579 45.3887C61.7579 42.6758 59.5587 40.4766 56.8457 40.4766C54.1328 40.4766 51.9336 42.6758 51.9336 45.3887C51.9336 48.1016 54.1328 50.3009 56.8457 50.3009Z" fill="#FB6D72" fill-opacity="0.25"/>
<path d="M81.6298 300.071C84.1343 299.028 85.3192 296.152 84.2764 293.648C83.2335 291.144 80.3579 289.959 77.8534 291.001C75.3489 292.044 74.164 294.92 75.2069 297.424C76.2497 299.929 79.1253 301.114 81.6298 300.071Z" fill="#FB6D72" fill-opacity="0.25"/>
<path d="M240.549 314.793C243.262 314.793 245.461 312.594 245.461 309.881C245.461 307.168 243.262 304.969 240.549 304.969C237.836 304.969 235.637 307.168 235.637 309.881C235.637 312.594 237.836 314.793 240.549 314.793Z" fill="#FB6D72" fill-opacity="0.25"/>
<path d="M510.773 283.316C513.486 283.316 515.686 281.117 515.686 278.404C515.686 275.691 513.486 273.492 510.773 273.492C508.061 273.492 505.861 275.691 505.861 278.404C505.861 281.117 508.061 283.316 510.773 283.316Z" fill="#FB6D72" fill-opacity="0.25"/>
<path d="M600.5 86.9563V311.548H558.858V127.477H557.511L504.802 160.377L494.76 156.677L503.745 123.66L560.878 86.9563L591.487 81.6211L600.5 86.9563Z" fill="#C52127"/>
<path d="M591.247 81.6719V311.549H549.604V122.192H548.257L494.492 156.539V118.376L551.625 81.6719H591.247Z" fill="#FB6D72"/>
</g>
<defs>
<clipPath id="clip0_2441_172">
<rect width="645" height="320" fill="white"/>
</clipPath>
</defs>
</svg>
