<svg width="40" height="48" viewBox="0 0 40 48" fill="none" xmlns="http://www.w3.org/2000/svg">
<path d="M30.6914 12.8198V45.0185H33.512C34.575 45.0185 35.5508 44.2263 35.5508 43.2471V42.1771L30.6914 12.8198Z" fill="#EDFAFF"/>
<path d="M8.68212 12.8198L4.45117 42.1771V43.2471C4.45117 44.2263 5.42675 45.0185 6.48989 45.0185H30.6915V12.8198H8.68212Z" fill="#3A85FF"/>
<path d="M6.39495 43.2472V42.1773L10.6259 12.8198H8.68212L4.45117 42.1771V43.2471C4.45117 44.2263 5.42675 45.0185 6.48989 45.0185H8.43367C7.37053 45.0185 6.39495 44.2265 6.39495 43.2472Z" fill="#EFEFEF"/>
<path d="M19.0288 16.3972C18.5391 15.9465 17.5749 15.9465 17.0851 16.3972L11.2539 22.6581V38.7576H24.86V22.6581L19.0288 16.3972Z" fill="#FFDA88"/>
<path d="M19.0288 16.3972C18.5391 15.9465 17.5749 15.9465 17.0851 16.3972L11.2539 22.6581V38.7576H13.1977V22.6581L19.0288 16.3972Z" fill="#FFE2A9"/>
<path d="M21.0733 30.0341C20.8735 29.7107 20.6272 29.4584 20.3324 29.2732C20.0377 29.0906 19.6021 28.8854 19.0261 28.6609C18.2388 28.37 17.8473 28.0232 17.8473 27.6249C17.8473 27.4231 17.9228 27.2494 18.0741 27.1018C18.226 26.9594 18.4076 26.8843 18.6166 26.8843C18.8899 26.8843 19.3379 27.0537 19.9577 27.3908L20.8162 26.1033C20.436 25.5968 20.0004 25.2753 19.0286 25.3242V24.7461C19.0286 24.4456 18.7733 24.2019 18.0568 24.2019C17.3403 24.2019 17.085 24.4455 17.085 24.7461V25.4124C17.085 25.4124 16.7324 25.5242 16.2863 25.9513C15.7972 26.4177 15.7041 27.2043 15.7041 27.7436C15.7041 28.825 16.6834 29.2914 16.916 29.4539C17.1477 29.6164 17.5273 29.8059 17.9885 29.9895C18.9356 30.3623 19.3738 30.6575 19.3738 31.0803C19.3738 31.2837 19.2722 31.4804 19.063 31.6664C18.8528 31.8533 18.6353 31.9318 18.4076 31.9476C17.7666 31.9887 17.2371 31.5739 16.4991 31.0733L15.5021 32.352C16.1782 33.0883 17.0852 33.4211 17.0852 33.4369V33.9802C17.0852 34.2815 17.4325 34.5244 18.057 34.5244C18.6445 34.5244 19.0288 34.2815 19.0288 33.9802V33.4369C19.0288 33.4297 19.8489 33.3356 20.405 32.8943C20.9527 32.4584 21.3628 31.7843 21.3628 31.0907C21.3622 30.711 21.2722 30.3607 21.0733 30.0341ZM16.4157 9.2417H15.8102C14.4182 9.2417 13.1973 10.4488 13.1973 11.8249V12.8193H15.141V11.8249C15.141 11.4462 15.4913 11.0306 15.8102 11.0306H16.4157C16.7346 11.0306 17.0848 11.4462 17.0848 11.8249V20.8691C17.0897 21.1033 17.1943 21.3264 17.376 21.4904C17.5577 21.6545 17.8021 21.7463 18.0566 21.7463C18.3112 21.7463 18.5555 21.6545 18.7373 21.4904C18.919 21.3264 19.0235 21.1033 19.0284 20.8691V11.8249C19.0284 10.4488 17.8075 9.2417 16.4157 9.2417Z" fill="#FE6F80"/>
<path d="M16.5989 9.26143C16.5373 9.25662 16.4778 9.2417 16.4157 9.2417H15.8102C14.4182 9.2417 13.1973 10.4488 13.1973 11.8249V12.8193H14.1691V11.8249C14.1694 10.5104 15.2859 9.36224 16.5989 9.26143ZM18.0568 20.8691V11.8249C18.0568 11.4462 17.7066 11.0306 17.3877 11.0306H16.7821C16.7209 11.0306 16.6596 11.0576 16.5989 11.0846C16.8553 11.2 17.0848 11.5187 17.0848 11.8249V20.8691C17.0849 21.1062 17.1873 21.3337 17.3695 21.5014C17.5517 21.6691 17.7989 21.7634 18.0566 21.7634C18.2373 21.7634 18.3973 21.7057 18.5425 21.6263C18.2575 21.4704 18.0568 21.1965 18.0568 20.8691Z" fill="#FFA1AA"/>
<path d="M14.168 12.8198V8.66304C14.168 6.02361 16.5019 3.87578 19.3709 3.87578H19.6558C22.5249 3.87578 24.8587 6.02361 24.8587 8.66304V12.8198H26.8025V8.66304C26.8025 5.0374 23.5965 2.08691 19.656 2.08691H19.3711C15.4306 2.08691 12.2246 5.0374 12.2246 8.66304V12.8198H14.168Z" fill="#E5E5E4"/>
<path d="M20.6278 3.87578H20.3429C20.2253 3.87578 20.1152 3.90065 19.9994 3.90761C22.7058 4.07408 24.8587 6.13188 24.8587 8.66304V12.8198H25.8305V8.66304C25.8307 6.02361 23.4969 3.87578 20.6278 3.87578ZM19.9995 2.10316C19.8846 2.09786 19.7718 2.08691 19.656 2.08691H19.3711C15.4306 2.08691 12.2246 5.0374 12.2246 8.66304V12.8198H13.1964V8.66304C13.1964 5.14401 16.2188 2.26946 19.9995 2.10316Z" fill="#EFEFEF"/>
<path d="M33.5115 45.9125H30.6909C30.4332 45.9125 30.186 45.8182 30.0037 45.6505C29.8215 45.4828 29.7191 45.2553 29.7191 45.0181V12.8193C29.7191 12.5938 29.8116 12.3766 29.9782 12.2112C30.1448 12.0458 30.3731 11.9445 30.6174 11.9274C30.862 11.9096 31.1048 11.9779 31.2968 12.1184C31.4888 12.259 31.6157 12.4613 31.6519 12.6846L36.5112 42.0419C36.5183 42.0865 36.5222 42.1315 36.5222 42.1764V43.2463C36.522 44.6918 35.1434 45.9125 33.5115 45.9125ZM31.6627 44.1236H33.5115C34.07 44.1236 34.5783 43.7056 34.5783 43.2467V42.2444L31.6627 24.63V44.1236ZM21.0733 30.0341C20.8735 29.7107 20.6272 29.4584 20.3324 29.2732C20.0377 29.0906 19.6021 28.8854 19.0261 28.6609C18.2388 28.37 17.8473 28.0232 17.8473 27.6249C17.8473 27.4231 17.9228 27.2494 18.0741 27.1018C18.226 26.9594 18.4076 26.8843 18.6166 26.8843C18.8899 26.8843 19.3379 27.0537 19.9577 27.3908L20.8162 26.1033C20.436 25.5968 20.0004 25.2753 19.0286 25.3242V24.7461C19.0286 24.4456 18.7733 24.2019 18.0568 24.2019C17.3403 24.2019 17.085 24.4455 17.085 24.7461V25.4124C17.085 25.4124 16.7324 25.5242 16.2863 25.9513C15.7972 26.4177 15.704 27.2043 15.704 27.7436C15.704 28.825 16.6834 29.2914 16.916 29.4539C17.1477 29.6164 17.5273 29.8059 17.9885 29.9895C18.9356 30.3623 19.3738 30.6575 19.3738 31.0803C19.3738 31.2837 19.2722 31.4804 19.063 31.6664C18.8528 31.8533 18.6353 31.9318 18.4076 31.9476C17.7666 31.9887 17.2371 31.5739 16.4991 31.0733L15.5021 32.352C16.1782 33.0883 17.0852 33.4211 17.0852 33.4369V33.9802C17.0852 34.2815 17.4325 34.5244 18.057 34.5244C18.6445 34.5244 19.0288 34.2815 19.0288 33.9802V33.4369C19.0288 33.4297 19.8489 33.3355 20.405 32.8943C20.9527 32.4584 21.3628 31.7843 21.3628 31.0907C21.3622 30.711 21.2722 30.3607 21.0733 30.0341ZM16.4157 9.2417H15.8102C14.4182 9.2417 13.1973 10.4488 13.1973 11.8249V12.8193H15.141V11.8249C15.141 11.4462 15.4913 11.0306 15.8102 11.0306H16.4157C16.7346 11.0306 17.0848 11.4462 17.0848 11.8249V20.8691C17.0897 21.1033 17.1943 21.3264 17.376 21.4904C17.5577 21.6545 17.8021 21.7463 18.0566 21.7463C18.3112 21.7463 18.5555 21.6545 18.7373 21.4904C18.919 21.3264 19.0235 21.1033 19.0284 20.8691V11.8249C19.0284 10.4488 17.8075 9.2417 16.4157 9.2417Z" fill="#22215B"/>
<path d="M14.168 12.8198V8.66304C14.168 6.02361 16.5019 3.87578 19.3709 3.87578H19.6558C22.5249 3.87578 24.8587 6.02361 24.8587 8.66304V12.8198H26.8025V8.66304C26.8025 5.0374 23.5965 2.08691 19.656 2.08691H19.3711C15.4306 2.08691 12.2246 5.0374 12.2246 8.66304V12.8198H14.168Z" fill="#22215B"/>
<path d="M30.6907 45.9129H13.197C12.9393 45.9129 12.6921 45.8187 12.5099 45.651C12.3276 45.4833 12.2252 45.2558 12.2252 45.0186C12.2252 44.7814 12.3276 44.5539 12.5099 44.3862C12.6921 44.2185 12.9393 44.1242 13.197 44.1242H29.7187V13.7142H9.53271L5.42211 42.2362V43.2473C5.42211 43.7062 5.93035 44.1242 6.48886 44.1242H9.30949C9.56722 44.1242 9.8144 44.2185 9.99665 44.3862C10.1789 44.5539 10.2813 44.7814 10.2813 45.0186C10.2813 45.2558 10.1789 45.4833 9.99665 45.651C9.8144 45.8187 9.56722 45.9129 9.30949 45.9129H6.48904C4.85712 45.9129 3.47852 44.6923 3.47852 43.2471V42.1772C3.47852 42.1379 3.4814 42.0986 3.48698 42.0598L7.71793 12.7025C7.74889 12.4875 7.86365 12.2902 8.04085 12.1473C8.21806 12.0044 8.44564 11.9256 8.68126 11.9255H30.6905C30.9482 11.9255 31.1954 12.0198 31.3777 12.1875C31.5599 12.3552 31.6623 12.5827 31.6623 12.8199V45.0186C31.6623 45.136 31.6372 45.2523 31.5884 45.3608C31.5396 45.4693 31.468 45.5679 31.3778 45.651C31.2875 45.734 31.1804 45.7999 31.0625 45.8448C30.9446 45.8898 30.8183 45.9129 30.6907 45.9129Z" fill="#22215B"/>
<path d="M24.8591 39.6523H11.253C10.9953 39.6523 10.7481 39.5581 10.5659 39.3903C10.3836 39.2226 10.2812 38.9951 10.2812 38.7579V22.6585C10.2812 22.4449 10.3643 22.2384 10.5153 22.0764L16.3464 15.8156C17.2662 14.9662 18.8478 14.9675 19.7153 15.7653L25.5973 22.0764C25.7483 22.2385 25.8313 22.445 25.8313 22.6585V31.6027C25.8313 31.8398 25.7289 32.0673 25.5467 32.2351C25.3644 32.4028 25.1172 32.497 24.8595 32.497C24.6017 32.497 24.3546 32.4028 24.1723 32.2351C23.9901 32.0673 23.8877 31.8398 23.8877 31.6027V22.9896L18.2904 16.9799C18.2315 16.9296 17.8809 16.9293 17.7717 17.0301L12.2252 22.9893V37.8636H23.8875V35.1804C23.8875 34.9432 23.9899 34.7157 24.1721 34.548C24.3544 34.3803 24.6016 34.286 24.8593 34.286C25.117 34.286 25.3642 34.3803 25.5465 34.548C25.7287 34.7157 25.8311 34.9432 25.8311 35.1804V38.7579C25.831 38.9951 25.7286 39.2226 25.5463 39.3903C25.364 39.558 25.1169 39.6522 24.8591 39.6523Z" fill="#22215B"/>
</svg>
