<svg width="50" height="50" viewBox="0 0 50 50" fill="none" xmlns="http://www.w3.org/2000/svg">
<path d="M24.9977 3.76086C25.4211 3.76086 25.8353 4.14808 25.8353 4.71742V10.9579C25.8353 11.5272 25.4211 11.9144 24.9977 11.9144C24.5743 11.9144 24.1602 11.5272 24.1602 10.9579V4.71742C24.1602 4.14808 24.5743 3.76086 24.9977 3.76086Z" fill="#FF8102" stroke="#22215B"/>
<path d="M18.6961 13.2088L18.6961 13.2087L15.8305 10.0885C15.8304 10.0885 15.8304 10.0885 15.8304 10.0885C15.4836 9.71079 15.4836 9.08256 15.8305 8.70486C16.1549 8.35156 16.6613 8.35175 16.9852 8.70474L16.9853 8.70488L19.8509 11.825C19.8509 11.825 19.851 11.8251 19.851 11.8251C20.1975 12.2028 20.1975 12.831 19.851 13.2088C19.6835 13.3912 19.4742 13.4737 19.2736 13.4737C19.0728 13.4737 18.8634 13.3909 18.6961 13.2088Z" fill="#FF8102" stroke="#22215B"/>
<path d="M31.3076 13.2084L31.3074 13.2086C31.1404 13.3907 30.9313 13.4733 30.7301 13.4733C30.5295 13.4733 30.3202 13.3908 30.1527 13.2084L30.1526 13.2083C29.806 12.831 29.8058 12.2029 30.1527 11.8251L33.018 8.70486C33.3424 8.35164 33.8489 8.35164 34.1733 8.70486C34.5198 9.08219 34.5198 9.71079 34.1733 10.0881C34.1733 10.0881 34.1733 10.0881 34.1733 10.0881L31.3076 13.2084Z" fill="#FF8102" stroke="#22215B"/>
<path d="M15.6507 22.7989L15.6507 22.7989L21.431 17.4029L21.4651 17.372C21.8037 17.0743 22.2081 17.061 22.5446 17.2392C22.888 17.4211 23.1641 17.8095 23.1641 18.3345V23.9267C23.1641 24.2942 23.0162 24.633 22.7755 24.8576L22.7754 24.8577L15.9691 31.2108L15.8103 31.3591V31.5763V44.9478C15.8103 45.5167 15.3962 45.9044 14.9727 45.9044H3.5114C3.08808 45.9044 2.67383 45.5169 2.67383 44.9478V30.9046C2.67383 26.8837 5.65282 23.7091 9.24065 23.7091H13.3826C14.2208 23.7091 15.0262 23.3817 15.6507 22.7989Z" fill="#FF8102" stroke="#22215B"/>
<path d="M27.2244 25.1929L27.2243 25.1928C26.9836 24.9682 26.8357 24.6294 26.8357 24.2619V18.6697C26.8357 18.1447 27.1118 17.7563 27.4552 17.5744C27.7916 17.3962 28.196 17.4095 28.5347 17.7072L28.5687 17.7381L34.349 23.1336C34.9735 23.7168 35.779 24.0443 36.6172 24.0443H40.7592C44.347 24.0443 47.326 27.2189 47.326 31.2398V45.2827C47.326 45.852 46.9118 46.2392 46.4884 46.2392H35.0271C34.6035 46.2392 34.1895 45.8518 34.1895 45.2827V31.9115V31.6943L34.0307 31.546L27.2244 25.1929Z" fill="#FFB66D" stroke="#22215B"/>
<path d="M9.23712 11.4343C12.0291 11.4343 14.3727 13.9226 14.3727 17.0712C14.3727 20.2203 12.0291 22.7085 9.23712 22.7085C6.44513 22.7085 4.10156 20.2203 4.10156 17.0712C4.10156 13.9226 6.44511 11.4343 9.23712 11.4343Z" fill="#FF8102" stroke="#22215B"/>
<path d="M40.7586 11.7673C43.5506 11.7673 45.8942 14.2556 45.8942 17.4042C45.8942 20.5533 43.5506 23.0415 40.7586 23.0415C37.9666 23.0415 35.623 20.5533 35.623 17.4042C35.623 14.2556 37.9666 11.7673 40.7586 11.7673Z" fill="#FFB66D" stroke="#22215B"/>
</svg>
