<svg width="50" height="50" viewBox="0 0 50 50" fill="none" xmlns="http://www.w3.org/2000/svg">
<path d="M42.4747 33.1865C43.6724 32.1657 43.6724 32.1658 44.7543 33.2531C45.9999 34.4961 47.2402 35.7458 48.4951 36.9795C48.6337 37.1081 48.7429 37.2652 48.815 37.44C48.8871 37.6149 48.9205 37.8033 48.9129 37.9922C48.8996 41.2795 48.9129 44.568 48.9049 47.8552C48.9049 48.6537 48.6601 48.9026 47.8763 48.9026C44.5879 48.9026 41.2996 48.896 38.0126 48.9119C37.8072 48.9203 37.6026 48.8803 37.4154 48.7952C37.2282 48.7102 37.0636 48.5824 36.9347 48.4222C36.1469 47.5278 35.3378 46.6521 34.4994 45.7298C34.208 46.7945 33.6837 47.6343 32.8027 48.2225C32.1566 48.6681 31.3904 48.9066 30.6056 48.9066C22.0887 48.9066 13.5718 48.9066 5.05491 48.9066C4.53471 48.9098 4.01904 48.8098 3.53767 48.6126C3.05629 48.4154 2.61875 48.1248 2.25029 47.7575C1.88183 47.3903 1.58976 46.9537 1.39093 46.473C1.19211 45.9922 1.09047 45.4769 1.09188 44.9566C1.08656 31.656 1.08656 18.3554 1.09188 5.05486C1.08872 4.53475 1.18858 4.01915 1.3857 3.53783C1.58282 3.05651 1.8733 2.61899 2.24038 2.25052C2.60746 1.88206 3.04387 1.58994 3.52443 1.39102C4.00498 1.19211 4.52018 1.09033 5.04027 1.09157C13.5572 1.08536 22.0763 1.08536 30.5976 1.09157C31.1215 1.08834 31.6407 1.18961 32.125 1.38946C32.6093 1.58932 33.0488 1.88373 33.418 2.2555C33.7871 2.62726 34.0784 3.0689 34.2748 3.55459C34.4712 4.04029 34.5689 4.56027 34.562 5.08414C34.5691 10.8964 34.5691 16.7078 34.562 22.5184C34.5516 22.688 34.579 22.8577 34.6423 23.0154C34.7056 23.1731 34.8032 23.3147 34.9279 23.43C36.7258 25.2014 38.4917 27.006 40.2962 28.7707C41.0947 29.5533 41.5804 30.4476 41.6017 31.5735C41.6044 32.2589 41.9331 32.766 42.4747 33.1865ZM30.5524 20.7683C30.563 20.7151 30.5701 20.6613 30.5737 20.6073C30.5737 15.7416 30.5737 10.876 30.5737 6.01042C30.5737 5.37693 30.2556 5.07083 29.6142 5.06684C27.9711 5.06063 26.3272 5.06063 24.6824 5.06684C22.7807 5.06684 23.1706 4.90448 22.1645 6.3764C21.9442 6.72101 21.6378 7.00219 21.2756 7.19217C20.9134 7.38215 20.5079 7.47437 20.0992 7.45972C18.5715 7.45174 17.0384 7.45972 15.516 7.45972C15.1329 7.47035 14.753 7.38584 14.4105 7.21375C14.0679 7.04165 13.7734 6.78734 13.5532 6.47356C13.351 6.20976 13.164 5.93472 12.9929 5.64976C12.7401 5.21191 12.3768 5.05619 11.8777 5.06152C10.0147 5.07749 8.15159 5.06152 6.29784 5.06152C5.29178 5.06152 5.06688 5.2851 5.06688 6.28591V43.7016C5.06688 44.6971 5.29444 44.922 6.30316 44.922H29.368C29.5175 44.9285 29.6674 44.9249 29.8164 44.9114C30.2237 44.8581 30.5364 44.6239 30.5497 44.2193C30.587 43.1307 30.563 42.0407 30.563 40.9587C30.3394 40.9095 30.1638 40.8669 29.9828 40.8256C27.1908 40.2614 24.3962 39.6988 21.599 39.1381C21.1691 39.0529 20.8923 38.8187 20.8484 38.3928C20.5597 35.598 22.8233 34.2379 24.6451 34.6132C25.0443 34.697 25.4649 34.7463 26.0171 34.8235C24.8886 33.6962 23.8786 32.6675 22.8379 31.6693C22.6384 31.4897 22.3822 31.3856 22.114 31.3752C18.5768 31.3566 15.0396 31.3646 11.5025 31.3619C10.0759 31.3619 9.0512 30.3398 9.04986 28.9185C9.04986 24.7484 9.04986 20.5806 9.04986 16.4151C9.04986 15.6884 9.31602 15.4276 10.0346 15.4262C10.7532 15.4249 11.4825 15.4262 12.237 15.4262V14.6743C12.2503 11.9074 14.8107 10.0269 17.4523 10.8295C17.6991 10.8981 17.9603 10.8953 18.2055 10.8215C18.7334 10.653 19.2908 10.5968 19.8417 10.6566C20.3926 10.7165 20.9249 10.8909 21.4043 11.1688C21.8837 11.4467 22.2997 11.8219 22.6254 12.2702C22.9512 12.7186 23.1795 13.2301 23.2957 13.772C23.4061 14.3043 23.3982 14.85 23.4487 15.4342C24.1594 15.4342 24.87 15.4342 25.578 15.4342C26.3338 15.4342 26.584 15.6884 26.5854 16.4523C26.5854 19.0102 26.5854 21.5677 26.5854 24.1247C26.5854 24.2738 26.6013 24.4242 26.616 24.6823C27.0245 23.7201 27.6154 23.1532 28.5535 22.9882C28.6177 22.967 28.6759 22.9308 28.7234 22.8827C28.7708 22.8346 28.8061 22.7758 28.8264 22.7113C29.022 21.7145 29.6368 21.1063 30.5524 20.7683ZM41.2996 34.3324C40.3574 33.5059 39.9795 32.4559 39.9209 31.2368C39.8765 30.8583 39.7058 30.5057 39.4365 30.236C36.9063 27.6719 34.3615 25.1229 31.802 22.5889C31.4214 22.2109 30.9902 22.2096 30.6548 22.5397C30.3195 22.8697 30.3434 23.3182 30.6974 23.6922C31.0274 24.0435 31.3841 24.3669 31.7088 24.7223C32.0535 25.1002 32.0428 25.5607 31.7088 25.8788C31.3748 26.1969 30.9103 26.1742 30.5524 25.8295C30.2157 25.5101 29.9003 25.1641 29.5623 24.8487C29.183 24.492 28.7305 24.4774 28.4058 24.7888C28.0811 25.1002 28.0798 25.574 28.4604 25.9746C28.7691 26.2993 29.0992 26.6041 29.4119 26.9248C29.8324 27.36 29.8697 27.7979 29.525 28.1532C29.1803 28.5086 28.684 28.4646 28.2541 28.0494C28.0385 27.8418 27.8336 27.6249 27.622 27.4133C26.9832 26.7718 26.5361 26.6613 26.1395 27.0446C25.743 27.4279 25.8295 27.8657 26.4842 28.5152C26.7762 28.7861 27.0543 29.0718 27.3173 29.371C27.4418 29.5095 27.5087 29.6905 27.5042 29.8768C27.4998 30.0631 27.4243 30.2406 27.2933 30.3731C27.1771 30.5295 27.0037 30.6337 26.811 30.6628C26.6184 30.692 26.422 30.6438 26.2646 30.5288C26.1155 30.4241 25.9788 30.3027 25.8574 30.1668C24.3554 28.6656 22.8534 27.1626 21.3514 25.6579C21.2463 25.5527 21.1452 25.4409 21.0321 25.3451C20.6821 25.051 20.2562 25.0537 19.9515 25.3451C19.6467 25.6366 19.6215 26.0917 19.9329 26.4604C20.0287 26.5735 20.1405 26.6733 20.2456 26.7798C23.0748 29.6083 25.9044 32.4359 28.7345 35.2626C29.0712 35.5994 29.3414 35.9507 29.0779 36.4418C28.8144 36.9329 28.3553 36.877 27.8975 36.7985C26.6732 36.5869 25.4489 36.3739 24.2219 36.1809C23.5179 36.0705 22.7754 36.5549 22.5425 37.2337C22.4467 37.5158 22.4587 37.6861 22.822 37.7567C25.3238 38.2424 27.823 38.7482 30.3221 39.2472C31.8459 39.552 33.4281 39.7157 34.5247 41.0306C34.5393 41.0479 34.5846 41.0412 34.5899 41.0412L41.2996 34.3324ZM32.2997 41.2888L32.1666 41.3753C32.1666 42.2696 32.1666 43.1626 32.1666 44.057C32.1666 45.4836 31.1459 46.5097 29.7246 46.5111C21.7879 46.5111 13.8508 46.5111 5.91324 46.5111C4.49598 46.5111 3.47662 45.4796 3.47662 44.0516C3.47662 31.3499 3.47662 18.6473 3.47662 5.94388C3.47662 4.48659 4.49066 3.4778 5.95184 3.47514C7.68183 3.47514 9.41183 3.56563 11.1312 3.44852C12.78 3.3354 13.979 3.84778 14.7242 5.33834C14.9239 5.73759 15.2738 5.87068 15.713 5.87068C16.7922 5.8587 17.8715 5.87068 18.9508 5.87068C20.8138 5.87068 20.4505 6.01973 21.43 4.58374C21.6531 4.23146 21.9646 3.94382 22.3335 3.74954C22.7025 3.55525 23.1159 3.46109 23.5326 3.47647C25.542 3.48711 27.5515 3.47647 29.5609 3.47647C31.1938 3.47647 32.1626 4.44134 32.1639 6.06898C32.1639 10.7509 32.1812 15.4329 32.144 20.1162C32.144 20.7683 32.3502 21.121 32.965 21.3512V20.9054C32.965 15.707 32.965 10.5096 32.965 5.31305C32.965 3.67343 31.9656 2.67529 30.3288 2.67529C21.9893 2.67529 13.6534 2.67529 5.32106 2.67529C3.67756 2.67529 2.67416 3.66944 2.67283 5.30107C2.67283 18.4322 2.67283 31.5664 2.67283 44.7038C2.67283 46.3088 3.68022 47.3122 5.28779 47.3136C13.6406 47.3136 21.9933 47.3136 30.3461 47.3136C30.6275 47.315 30.908 47.2829 31.1818 47.2177C32.4913 46.893 33.4441 45.0884 32.8958 43.9784C32.5458 43.2704 32.5685 43.132 33.1074 42.5957C33.2099 42.4932 33.307 42.3841 33.4601 42.2217L32.2997 41.2888ZM47.2601 47.3096C47.2813 47.2608 47.2973 47.2099 47.308 47.1579C47.308 44.2193 47.3173 41.2808 47.308 38.3409C47.2872 38.1514 47.2011 37.9749 47.0645 37.8419C46.3991 37.1485 45.7045 36.4777 45.0258 35.7937C44.5613 35.3252 44.1036 34.8488 43.7043 34.4389L34.6551 43.4887C35.238 44.1315 35.8528 44.8195 36.4836 45.5063C37.0319 46.1051 37.4843 46.9289 38.1657 47.2284C38.847 47.5278 39.7626 47.3096 40.577 47.3109C42.7967 47.3096 45.0191 47.3096 47.2601 47.3096ZM10.6455 17.0432V17.5756C10.6455 21.2612 10.6455 24.9458 10.6455 28.6297C10.6455 29.528 10.8983 29.7795 11.8005 29.7795H20.9363C20.7553 29.5839 20.6501 29.4654 20.537 29.3523C19.9395 28.7521 19.3234 28.1692 18.7471 27.5503C17.4736 26.1809 18.1084 23.9969 19.9342 23.6017C20.5117 23.4779 21.1505 23.6429 21.7813 23.6762V17.0499H20.227V18.5631C20.2709 18.5817 20.3135 18.6017 20.36 18.6176C20.8524 18.8053 21.068 19.1167 21.0001 19.5492C20.9323 19.9818 20.6102 20.2053 20.0899 20.2147C19.5922 20.2147 19.0931 20.228 18.5954 20.2147C18.4915 20.2159 18.3885 20.1958 18.2926 20.1557C18.1967 20.1157 18.1101 20.0564 18.0379 19.9817C17.9657 19.9069 17.9096 19.8181 17.873 19.7209C17.8364 19.6236 17.82 19.5199 17.8249 19.4161C17.8249 18.9104 18.1683 18.7028 18.5848 18.5923V17.0605H13.8499V18.579C14.4514 18.7826 14.6843 19.0728 14.6258 19.5253C14.5672 19.9778 14.2345 20.208 13.5864 20.2093C13.122 20.2093 12.6456 20.2692 12.1958 20.184C11.9296 20.1335 11.5943 19.8926 11.5144 19.661C11.4346 19.4294 11.593 19.0754 11.7314 18.8199C11.8072 18.6802 12.0561 18.6336 12.2158 18.5537V17.0432H10.6455ZM23.4434 17.0432C23.426 17.0861 23.4131 17.1307 23.4048 17.1763C23.4048 19.8478 23.4048 22.5184 23.4048 25.1881C23.4056 25.3165 23.447 25.4414 23.5233 25.5447C23.8174 25.8987 24.1314 26.2368 24.4255 26.5682C24.9339 26.1316 25.0124 25.6818 25.0071 25.1588C24.9858 22.6368 24.9977 20.1162 24.9977 17.5955V17.0432H23.4434ZM15.4402 15.4089C15.3564 14.271 15.5067 13.217 16.212 12.2654C14.5313 12.3812 13.6077 13.6668 13.8899 15.4089H15.4402ZM19.4218 12.2601C20.1524 13.233 20.2695 14.303 20.2097 15.393H21.7826C21.913 13.5058 21.1053 12.3999 19.4218 12.2601ZM17.7823 12.9256C17.0531 13.6096 16.9519 14.4707 17.0531 15.3983H18.5914C18.7272 14.3749 18.4451 13.3142 17.7823 12.9216V12.9256Z" fill="#373737"/>
<path d="M30.5532 20.7683C29.6377 21.1064 29.0228 21.7146 28.8299 22.7087C28.8096 22.7732 28.7743 22.8319 28.7269 22.8801C28.6795 22.9282 28.6212 22.9644 28.5571 22.9855C27.6255 23.1506 27.028 23.7175 26.6195 24.6797C26.6048 24.4215 26.5889 24.2711 26.5889 24.1221C26.5889 21.5642 26.5889 19.0067 26.5889 16.4497C26.5889 15.6858 26.3374 15.4329 25.5815 15.4316C24.8722 15.4316 24.1616 15.4316 23.4523 15.4316C23.4017 14.8473 23.4097 14.2964 23.2992 13.7694C23.1825 13.2285 22.954 12.7179 22.6284 12.2705C22.3028 11.8231 21.8873 11.4487 21.4085 11.1713C20.9297 10.8939 20.3983 10.7196 19.8482 10.6595C19.2982 10.5995 18.7417 10.6552 18.2144 10.8228C17.9691 10.8967 17.7079 10.8994 17.4612 10.8308C14.8196 10.0323 12.2592 11.9088 12.2459 14.6757V15.4316C11.4913 15.4316 10.7674 15.4316 10.0435 15.4316C9.31953 15.4316 9.0587 15.6978 9.0587 16.4204C9.0587 20.5904 9.0587 24.7582 9.0587 28.9238C9.0587 30.3452 10.0847 31.3646 11.5113 31.3673C15.0485 31.3673 18.5857 31.3673 22.1228 31.3806C22.3911 31.391 22.6472 31.4951 22.8468 31.6747C23.8874 32.6728 24.8975 33.7016 26.026 34.8288C25.4737 34.745 25.0598 34.7024 24.6539 34.6186C22.8321 34.2433 20.5685 35.6087 20.8573 38.3982C20.9012 38.8241 21.178 39.0636 21.6078 39.1435C24.4007 39.7007 27.1953 40.2632 29.9916 40.831C30.17 40.8669 30.3483 40.9095 30.5719 40.9641C30.5719 42.0461 30.5958 43.136 30.5585 44.2247C30.5452 44.6239 30.2325 44.8635 29.8253 44.9167C29.6762 44.9303 29.5264 44.9338 29.3768 44.9274H6.30269C5.29397 44.9274 5.06641 44.7025 5.06641 43.707V6.28994C5.06641 5.28914 5.29131 5.06555 6.29736 5.06555C8.16043 5.06555 10.0235 5.07487 11.8773 5.06555C12.3763 5.06555 12.7396 5.21594 12.9925 5.65379C13.1635 5.93875 13.3505 6.21379 13.5527 6.47759C13.7729 6.79138 14.0675 7.04569 14.41 7.21778C14.7525 7.38987 15.1324 7.47439 15.5156 7.46376C17.0433 7.46376 18.5763 7.46376 20.0987 7.46376C20.5075 7.47841 20.913 7.38619 21.2752 7.19621C21.6374 7.00622 21.9438 6.72504 22.1641 6.38044C23.1701 4.90851 22.7802 5.0762 24.6819 5.07088C26.3249 5.07088 27.9689 5.07088 29.6137 5.07088C30.2551 5.07088 30.5732 5.38096 30.5732 6.01445C30.5785 10.8801 30.5785 15.7457 30.5732 20.6113C30.5699 20.664 30.5633 20.7165 30.5532 20.7683ZM16.1943 41.7293C18.0374 41.7293 19.8805 41.7293 21.7236 41.7293C22.2705 41.7293 22.6032 41.4126 22.6006 40.9308C22.5979 40.449 22.2652 40.1429 21.7143 40.1429C18.0613 40.1429 14.4084 40.135 10.7541 40.1536C10.5052 40.1536 10.1593 40.2867 10.0342 40.4703C9.90907 40.654 9.85185 41.0799 9.96762 41.2808C10.0537 41.4022 10.1649 41.5036 10.2938 41.5781C10.4226 41.6525 10.566 41.6982 10.7142 41.712C12.54 41.7466 14.3671 41.7293 16.1943 41.7293ZM15.4304 35.3532C16.9741 35.3532 18.5191 35.3705 20.0628 35.3372C20.3663 35.323 20.6524 35.1919 20.8613 34.9712C20.9943 34.8049 21.0183 34.3737 20.8932 34.2087C20.7953 34.0878 20.6742 33.9878 20.5371 33.9144C20.4 33.8411 20.2496 33.7959 20.0947 33.7814C17.0233 33.7522 13.9506 33.7628 10.8792 33.7628C10.1992 33.7628 9.8545 34.0396 9.86116 34.5706C9.86781 35.1017 10.2085 35.3532 10.9045 35.3532H15.4304ZM14.6053 38.5472C15.8838 38.5472 17.1626 38.5472 18.4419 38.5472C19.074 38.5472 19.4187 38.2571 19.4121 37.7421C19.4054 37.227 19.0701 36.9595 18.4699 36.9582H10.798C10.1965 36.9582 9.86649 37.2417 9.85318 37.7381C9.8452 38.2545 10.1885 38.5459 10.8193 38.5472C12.0782 38.5455 13.3402 38.5437 14.6053 38.5419V38.5472Z" fill="#EAFFEA"/>
<path d="M41.3004 34.3323L34.5934 41.0412C34.5934 41.0412 34.5428 41.0478 34.5282 41.0306C33.4316 39.7157 31.8494 39.552 30.3256 39.2472C27.8265 38.7481 25.3273 38.2424 22.8254 37.7566C22.4621 37.6861 22.4502 37.5158 22.546 37.2336C22.7789 36.5549 23.5214 36.0704 24.2254 36.1809C25.4524 36.3739 26.6767 36.5868 27.901 36.7984C28.3588 36.8769 28.8139 36.9395 29.0814 36.4418C29.3489 35.944 29.0814 35.5993 28.738 35.2626C25.9062 32.4376 23.0765 29.61 20.2491 26.7797C20.144 26.6733 20.0322 26.5735 19.9363 26.4603C19.6249 26.0917 19.6356 25.6512 19.955 25.3451C20.2744 25.039 20.6856 25.051 21.0356 25.3451C21.1487 25.4409 21.2498 25.5527 21.3549 25.6578C22.8569 27.1661 24.3589 28.6691 25.8609 30.1668C25.9823 30.3026 26.119 30.4241 26.2681 30.5288C26.4255 30.6438 26.6219 30.6919 26.8145 30.6628C27.0072 30.6336 27.1806 30.5295 27.2968 30.373C27.4278 30.2406 27.5033 30.063 27.5077 29.8767C27.5122 29.6905 27.4453 29.5095 27.3208 29.3709C27.0578 29.0717 26.7797 28.7861 26.4877 28.5152C25.833 27.8657 25.7318 27.4425 26.143 27.0446C26.5542 26.6466 26.9867 26.7784 27.6255 27.4132C27.8371 27.6248 28.042 27.8418 28.2576 28.0494C28.6875 28.4646 29.1892 28.5045 29.5285 28.1532C29.8678 27.8018 29.8359 27.3547 29.4154 26.9248C29.1027 26.6041 28.7726 26.2993 28.4639 25.9746C28.0833 25.5753 28.0647 25.1148 28.4093 24.7888C28.754 24.4627 29.1865 24.492 29.5658 24.8487C29.9038 25.1667 30.2192 25.5141 30.5559 25.8295C30.9191 26.1742 31.3942 26.1875 31.7123 25.8787C32.0303 25.57 32.0543 25.1002 31.7123 24.7222C31.3876 24.3669 31.0309 24.0435 30.7009 23.6921C30.3469 23.3182 30.3376 22.8537 30.6583 22.5396C30.979 22.2255 31.4248 22.2109 31.8054 22.5889C34.3578 25.129 36.9027 27.6781 39.44 30.236C39.7093 30.5057 39.8799 30.8582 39.9244 31.2368C39.9803 32.4558 40.3583 33.5059 41.3004 34.3323Z" fill="#FFBCAB"/>
<path d="M32.2999 41.2889L33.463 42.2205C33.31 42.3828 33.2128 42.4866 33.1104 42.5944C32.5781 43.1268 32.5488 43.2692 32.8988 43.9772C33.4457 45.0818 32.4995 46.8918 31.1848 47.2165C30.911 47.2816 30.6304 47.3138 30.349 47.3123C21.9963 47.3177 13.6435 47.3177 5.29074 47.3123C3.68317 47.3123 2.67578 46.3075 2.67578 44.7025C2.67578 31.5714 2.67578 18.4372 2.67578 5.29985C2.67578 3.66822 3.68051 2.6754 5.32401 2.67407C13.6635 2.67407 21.9994 2.67407 30.3317 2.67407C31.9686 2.67407 32.9667 3.67221 32.968 5.31183C32.968 10.5093 32.968 15.7067 32.968 20.9041V21.3486C32.3532 21.1184 32.1416 20.7657 32.1469 20.1136C32.1842 15.4303 32.1669 10.7484 32.1669 6.06643C32.1669 4.43879 31.1967 3.47392 29.5639 3.47392C27.5544 3.47392 25.545 3.47392 23.5355 3.47392C23.1188 3.45854 22.7054 3.5527 22.3365 3.74699C21.9675 3.94127 21.656 4.2289 21.4329 4.58119C20.4535 6.01718 20.8208 5.8628 18.9537 5.86813C17.8744 5.86813 16.7952 5.86014 15.7159 5.86813C15.2768 5.86813 14.9268 5.73504 14.7272 5.33579C13.978 3.84123 12.779 3.3395 11.1341 3.44597C9.41478 3.56308 7.68212 3.46992 5.95479 3.47259C4.49095 3.47259 3.47957 4.48404 3.47957 5.94132C3.47957 18.6439 3.47957 31.3465 3.47957 44.0491C3.47957 45.4771 4.49893 46.5072 5.91619 46.5085C13.8529 46.5085 21.79 46.5085 29.7276 46.5085C31.1488 46.5085 32.1629 45.4811 32.1695 44.0544C32.1695 43.1601 32.1695 42.2671 32.1695 41.3727L32.2999 41.2889ZM17.8611 3.47658C17.563 3.47658 17.2623 3.46061 16.9655 3.47658C16.7641 3.48387 16.5737 3.5705 16.4358 3.71758C16.298 3.86466 16.2239 4.06028 16.2296 4.26178C16.225 4.36162 16.2402 4.46138 16.2744 4.5553C16.3085 4.64921 16.361 4.73543 16.4286 4.80894C16.4963 4.88246 16.5779 4.94182 16.6687 4.9836C16.7595 5.02537 16.8577 5.04873 16.9575 5.05231C17.5205 5.07627 18.086 5.07361 18.6503 5.05231C18.7545 5.05234 18.8576 5.03101 18.9532 4.98964C19.0488 4.94828 19.1349 4.88776 19.2063 4.81181C19.2776 4.73586 19.3326 4.6461 19.3679 4.54807C19.4032 4.45004 19.418 4.34581 19.4115 4.24182C19.4115 4.04054 19.3327 3.84727 19.1919 3.70346C19.0511 3.55965 18.8595 3.47676 18.6583 3.47259C18.3934 3.46327 18.1273 3.47658 17.8611 3.47658Z" fill="#08D98E"/>
<path d="M47.2594 47.3098C45.0184 47.3098 42.796 47.3098 40.5723 47.3098C39.7592 47.3098 38.8423 47.5281 38.1609 47.2273C37.4796 46.9265 37.0271 46.104 36.4789 45.5051C35.8534 44.8211 35.2333 44.1304 34.6504 43.4876L43.6996 34.4377C44.0988 34.8476 44.5566 35.3241 45.021 35.7926C45.6997 36.4766 46.3904 37.1474 47.0598 37.8407C47.1964 37.9738 47.2824 38.1503 47.3033 38.3398C47.3166 41.2797 47.3033 44.2182 47.3033 47.1567C47.294 47.2091 47.2793 47.2604 47.2594 47.3098Z" fill="#08D98E"/>
<path d="M10.6445 17.0432H12.2148V18.5484C12.0551 18.6336 11.8063 18.6815 11.7304 18.8146C11.5974 19.0701 11.435 19.4228 11.5135 19.6557C11.592 19.8886 11.934 20.1281 12.1949 20.1787C12.6447 20.2639 13.1264 20.204 13.5855 20.204C14.2336 20.204 14.5636 19.9844 14.6249 19.5199C14.6861 19.0555 14.4505 18.7773 13.849 18.5737V17.0605H18.5839V18.5817C18.1674 18.6921 17.8307 18.8998 17.824 19.4055C17.8191 19.5093 17.8355 19.613 17.8721 19.7102C17.9087 19.8075 17.9648 19.8962 18.037 19.971C18.1091 20.0458 18.1958 20.105 18.2917 20.1451C18.3876 20.1852 18.4906 20.2052 18.5945 20.204C19.0922 20.2213 19.5913 20.212 20.089 20.204C20.6093 20.204 20.9327 19.9618 20.9992 19.5386C21.0657 19.1154 20.8515 18.8013 20.3591 18.607C20.3152 18.591 20.2726 18.571 20.226 18.5524V17.0499H21.7804V23.6749C21.1496 23.6416 20.5108 23.4766 19.9333 23.6003C18.1075 23.9996 17.4727 26.1795 18.7462 27.549C19.3225 28.1678 19.9439 28.7468 20.5361 29.351C20.6466 29.4641 20.7517 29.5825 20.9353 29.7782H11.7996C10.8974 29.7782 10.6445 29.5266 10.6445 28.6283C10.6445 24.9436 10.6445 21.2589 10.6445 17.5742V17.0432Z" fill="#08D98E"/>
<path d="M23.4442 17.0432H24.9972V17.5955C24.9972 20.1162 24.9852 22.6368 25.0065 25.1588C25.0065 25.6818 24.9333 26.1316 24.425 26.5682C24.1309 26.2368 23.8168 25.9027 23.5227 25.5447C23.4465 25.4414 23.405 25.3165 23.4043 25.1881C23.4043 22.5175 23.4043 19.8469 23.4043 17.1763C23.413 17.1307 23.4264 17.0861 23.4442 17.0432Z" fill="#00BB70"/>
<path d="M15.4404 15.409H13.8901C13.608 13.6669 14.5315 12.3813 16.2123 12.2655C15.5016 13.2171 15.3566 14.2711 15.4404 15.409Z" fill="#EAFFEA"/>
<path d="M19.4219 12.2601C21.1053 12.3932 21.9131 13.5045 21.7826 15.393H20.2097C20.2696 14.3043 20.1591 13.2396 19.4219 12.2601Z" fill="#EAFFEA"/>
<path d="M17.7818 12.9216C18.4472 13.3209 18.7267 14.3749 18.5909 15.3944H17.0526C16.9514 14.4668 17.0526 13.6057 17.7818 12.9216Z" fill="#EAFFEA"/>
<path d="M16.1935 41.7295C14.3664 41.7295 12.5392 41.7468 10.7134 41.7109C10.5653 41.697 10.4218 41.6513 10.293 41.5769C10.1641 41.5025 10.0529 41.4011 9.96686 41.2797C9.85108 41.0787 9.895 40.6728 10.0334 40.4692C10.1718 40.2656 10.5045 40.1538 10.7533 40.1524C14.4076 40.1338 18.0606 40.1378 21.7135 40.1418C22.2645 40.1418 22.5971 40.4492 22.5998 40.9296C22.6025 41.4101 22.2698 41.7282 21.7228 41.7282C19.8797 41.7335 18.0366 41.7295 16.1935 41.7295Z" fill="#373737"/>
<path d="M15.4289 35.3531H10.895C10.199 35.3531 9.85968 35.0963 9.8517 34.5706C9.84371 34.0449 10.1897 33.7641 10.8697 33.7628C13.9411 33.7628 17.0139 33.7521 20.0853 33.7814C20.2401 33.7958 20.3905 33.841 20.5276 33.9144C20.6647 33.9877 20.7858 34.0878 20.8837 34.2086C21.0088 34.3736 20.9875 34.8048 20.8518 34.9712C20.6429 35.1918 20.3568 35.323 20.0533 35.3372C18.5176 35.3704 16.9726 35.3531 15.4289 35.3531Z" fill="#373737"/>
<path d="M14.6039 38.5419C13.3423 38.5419 12.0803 38.5419 10.8178 38.5419C10.1871 38.5419 9.84371 38.2491 9.8517 37.7328C9.85968 37.2364 10.195 36.9542 10.7965 36.9529H18.4684C19.0686 36.9529 19.3999 37.2403 19.4106 37.7368C19.4212 38.2332 19.0726 38.5353 18.4404 38.5419C17.162 38.5437 15.8832 38.5437 14.6039 38.5419Z" fill="#373737"/>
<path d="M17.8615 3.47663C18.1276 3.47663 18.3938 3.46332 18.6599 3.47663C18.8611 3.48081 19.0527 3.56369 19.1935 3.7075C19.3343 3.85131 19.4132 4.04459 19.4131 4.24586C19.4197 4.34985 19.4049 4.45408 19.3696 4.55211C19.3343 4.65014 19.2793 4.7399 19.2079 4.81585C19.1366 4.8918 19.0505 4.95232 18.9549 4.99369C18.8592 5.03505 18.7561 5.05638 18.652 5.05636C18.0877 5.07499 17.5221 5.07765 16.9592 5.05636C16.8593 5.05277 16.7612 5.02941 16.6704 4.98764C16.5796 4.94586 16.498 4.8865 16.4303 4.81298C16.3626 4.73947 16.3102 4.65326 16.276 4.55934C16.2418 4.46542 16.2266 4.36566 16.2313 4.26583C16.2255 4.06432 16.2997 3.86871 16.4375 3.72163C16.5754 3.57454 16.7658 3.48791 16.9672 3.48062C17.2626 3.46066 17.5634 3.47663 17.8615 3.47663Z" fill="black"/>
</svg>
