<svg width="44" height="44" viewBox="0 0 44 44" fill="none" xmlns="http://www.w3.org/2000/svg">
<g clip-path="url(#clip0_886_10243)">
<path d="M16.6509 22.6989C11.554 21.3721 8.89354 16.0295 9.66242 10.9482C10.033 8.45421 11.1988 6.21049 12.9305 4.65851C14.6623 3.10653 16.8345 2.35864 19.02 2.56198C23.7312 2.96469 27.4679 7.67004 27.1471 13.5002C27.2622 13.5129 27.3773 13.5369 27.4936 13.5383C28.6236 13.5383 29.7537 13.551 30.8837 13.5284C31.0883 13.5211 31.2842 13.4311 31.4372 13.2741C34.6963 9.53334 37.949 5.7846 41.1951 2.02785C41.2661 1.9459 41.331 1.85687 41.4632 1.68872H39.0537C38.4575 1.68872 38.1465 1.40612 38.1379 0.862111C38.1281 0.296903 38.4464 0.00158691 39.0696 0.00158691C40.4139 0.00158691 41.7578 0.00158691 43.1013 0.00158691C43.7441 0.00158691 43.9951 0.284194 43.9976 1.0119C43.9976 2.59919 43.9976 4.18553 43.9976 5.77094C43.9976 6.40256 43.7282 6.76005 43.2703 6.76005C42.8124 6.76005 42.5357 6.40256 42.5357 5.77094C42.5357 4.85954 42.5357 3.94673 42.5357 2.92936C42.3582 3.11729 42.237 3.23457 42.1243 3.36457C38.8488 7.14675 35.5787 10.928 32.3138 14.7083C32.1779 14.8833 32.0102 15.0215 31.8227 15.1131C31.6352 15.2047 31.4325 15.2474 31.229 15.2382C29.7941 15.2099 28.3592 15.2283 26.89 15.2283C26.808 15.5109 26.7394 15.7935 26.6451 16.0676C25.2526 20.1107 22.6816 22.3716 18.9318 22.8501C18.7296 22.8866 18.5422 22.9947 18.3956 23.1595C17.1451 24.5773 15.9041 26.0082 14.6724 27.4523C14.5444 27.6124 14.3875 27.7381 14.2127 27.8204C14.0379 27.9027 13.8496 27.9396 13.6611 27.9285C12.0286 27.9078 10.3962 27.9078 8.76376 27.9285C8.53167 27.9415 8.31098 28.0485 8.14058 28.2309C5.92617 30.7602 3.71952 33.2989 1.52062 35.8471C1.41144 35.9928 1.28821 36.1236 1.15332 36.237C1.01556 36.3537 0.845121 36.4071 0.675163 36.3867C0.505206 36.3663 0.347898 36.2737 0.233854 36.1268C0.107466 35.9945 0.0280172 35.8128 0.0108347 35.6168C-0.00634777 35.4209 0.0399522 35.2245 0.140804 35.0656C0.230256 34.9232 0.332889 34.7924 0.446887 34.6757C2.74781 32.0201 5.0467 29.3636 7.34354 26.7062C7.46997 26.5446 7.62566 26.417 7.79958 26.3325C7.9735 26.248 8.16139 26.2087 8.34994 26.2173C9.98238 26.2399 11.6148 26.2399 13.2473 26.2173C13.4796 26.2065 13.7016 26.1031 13.8753 25.9248C14.7238 24.9852 15.5478 24.0158 16.3779 23.055C16.4673 22.9476 16.5517 22.8289 16.6509 22.6989ZM18.3111 21.1545C22.2743 21.1997 25.624 17.3958 25.6693 12.7993C25.7158 8.166 22.4591 4.29575 18.4568 4.22934C16.5037 4.20446 14.622 5.07592 13.2256 6.65205C11.8292 8.22817 11.0324 10.3799 11.0104 12.634C10.9737 17.2757 14.2573 21.1078 18.3111 21.1545Z" fill="#22215B"/>
<path d="M18.311 21.1543C14.2572 21.1077 10.9736 17.2756 11.0091 12.6338C11.031 10.3795 11.828 8.22754 13.2247 6.65137C14.6214 5.07521 16.5034 4.20392 18.4567 4.22917C22.459 4.29558 25.7157 8.16584 25.6692 12.7991C25.6239 17.3957 22.2741 21.1995 18.311 21.1543ZM19.0676 8.45834C19.0676 8.09519 19.0835 7.81259 19.0676 7.53423C19.0575 7.3203 18.9747 7.11962 18.8371 6.97572C18.6996 6.83182 18.5185 6.7563 18.333 6.76554C18.1481 6.76131 17.9692 6.84091 17.8346 6.98728C17.7 7.13364 17.6205 7.33508 17.6131 7.54835C17.5954 7.75887 17.5954 7.97087 17.6131 8.18138C17.64 8.46399 17.5409 8.60529 17.3205 8.74659C16.8959 8.99708 16.5538 9.40093 16.3465 9.89658C16.1392 10.3922 16.0779 10.9525 16.1721 11.4921C16.2708 12.0483 16.5269 12.5508 16.9002 12.9207C17.2734 13.2906 17.7425 13.5068 18.2339 13.5353C18.7407 13.5777 19.0639 13.9083 19.0639 14.3831C19.0639 14.8791 18.7175 15.2196 18.1873 15.2309C17.7441 15.2394 17.3009 15.221 16.8589 15.238C16.7634 15.2351 16.6683 15.2547 16.5796 15.2957C16.4908 15.3366 16.4103 15.3981 16.3429 15.4763C16.2755 15.5545 16.2226 15.6478 16.1876 15.7504C16.1525 15.853 16.136 15.9628 16.139 16.0731C16.1355 16.1835 16.1515 16.2935 16.1859 16.3966C16.2202 16.4997 16.2723 16.5937 16.339 16.6729C16.4057 16.7522 16.4856 16.815 16.5739 16.8576C16.6622 16.9002 16.7571 16.9217 16.8528 16.9209C17.0916 16.935 17.3303 16.9209 17.6058 16.9209C17.6058 17.26 17.5935 17.5384 17.6058 17.8168C17.6106 18.0299 17.6874 18.2325 17.8199 18.3811C17.9523 18.5298 18.1299 18.6127 18.3147 18.6123C18.4101 18.6174 18.5054 18.6004 18.5949 18.5621C18.6845 18.5239 18.7665 18.4653 18.8361 18.3897C18.9056 18.3142 18.9613 18.2233 18.9998 18.1225C19.0383 18.0216 19.0589 17.9128 19.0603 17.8026C19.0725 17.5921 19.0284 17.3702 19.075 17.1724C19.1102 16.9679 19.2069 16.7842 19.348 16.6538C20.2528 16.0307 20.7156 14.937 20.4989 13.849C20.2675 12.6903 19.4888 11.9386 18.4175 11.8411C17.9278 11.7959 17.596 11.4384 17.6131 10.965C17.6303 10.4917 17.962 10.1582 18.4701 10.1469C18.928 10.137 19.3859 10.1596 19.8438 10.1384C19.9395 10.1377 20.034 10.1144 20.1216 10.0701C20.2092 10.0258 20.2881 9.96133 20.3534 9.88067C20.4187 9.80001 20.4691 9.70484 20.5015 9.60096C20.5338 9.49708 20.5475 9.38666 20.5417 9.27647C20.5414 9.06301 20.4688 8.85817 20.3392 8.70579C20.2097 8.5534 20.0337 8.4656 19.8487 8.46117C19.6027 8.44986 19.3615 8.45834 19.0676 8.45834Z" fill="#00CA81"/>
<path d="M19.0678 8.45838C19.3616 8.45838 19.6028 8.44425 19.8428 8.45838C20.0277 8.46281 20.2037 8.55062 20.3333 8.703C20.4628 8.85538 20.5354 9.06024 20.5357 9.27369C20.5416 9.38388 20.5279 9.49429 20.4955 9.59817C20.4631 9.70205 20.4127 9.79722 20.3474 9.87788C20.2821 9.95854 20.2033 10.023 20.1156 10.0673C20.028 10.1116 19.9335 10.1349 19.8379 10.1356C19.38 10.1568 18.9221 10.1356 18.4642 10.1441C17.9597 10.1554 17.6267 10.4818 17.6071 10.9622C17.5875 11.4427 17.9193 11.7931 18.4115 11.8383C19.4853 11.9358 20.2639 12.6861 20.4929 13.8462C20.7096 14.9342 20.248 16.0279 19.342 16.6511C19.2044 16.7808 19.1101 16.9616 19.0751 17.1626C19.0286 17.3604 19.0751 17.5865 19.0604 17.7928C19.059 17.903 19.0385 18.0118 19 18.1126C18.9615 18.2135 18.9058 18.3044 18.8362 18.3799C18.7667 18.4554 18.6847 18.514 18.5951 18.5523C18.5055 18.5905 18.4102 18.6076 18.3148 18.6024C18.13 18.6029 17.9525 18.5199 17.82 18.3713C17.6875 18.2226 17.6107 18.0201 17.6059 17.8069C17.5912 17.5243 17.6059 17.2502 17.6059 16.9111C17.3304 16.9111 17.0917 16.9224 16.8529 16.9111C16.7572 16.9119 16.6624 16.8904 16.5741 16.8477C16.4858 16.8051 16.4059 16.7423 16.3392 16.6631C16.2725 16.5839 16.2204 16.4899 16.186 16.3868C16.1516 16.2837 16.1357 16.1736 16.1392 16.0632C16.1376 15.9537 16.1554 15.8449 16.1913 15.7435C16.2273 15.6421 16.2807 15.5501 16.3484 15.4732C16.416 15.3963 16.4965 15.3361 16.5849 15.2962C16.6733 15.2562 16.7678 15.2374 16.8627 15.2409C17.3047 15.2239 17.7479 15.2409 18.1911 15.2338C18.7213 15.2239 19.0665 14.8834 19.0678 14.386C19.0678 13.9112 18.7445 13.5806 18.2377 13.5382C17.7465 13.5113 17.277 13.2969 16.9029 12.9286C16.5288 12.5603 16.2714 12.059 16.171 11.5034C16.0768 10.9639 16.1381 10.4036 16.3454 9.90793C16.5527 9.41227 16.8948 9.00843 17.3194 8.75794C17.5398 8.61664 17.639 8.47533 17.612 8.19273C17.5943 7.98222 17.5943 7.77021 17.612 7.5597C17.6194 7.34643 17.6989 7.14499 17.8335 6.99862C17.9681 6.85226 18.147 6.77265 18.3319 6.77688C18.5174 6.76764 18.6985 6.84315 18.8361 6.98706C18.9736 7.13096 19.0564 7.33164 19.0665 7.54556C19.0837 7.81828 19.0678 8.10088 19.0678 8.45838Z" fill="white"/>
<path d="M0.5 39.6378C0.5 39.3617 0.723858 39.1378 1 39.1378H4.73913C5.01527 39.1378 5.23913 39.3617 5.23913 39.6378V43.6575H0.5V39.6378Z" fill="#00CA81" stroke="#22215B"/>
<path d="M8.1521 36.3259C8.1521 36.0498 8.37596 35.8259 8.6521 35.8259H12.3912C12.6674 35.8259 12.8912 36.0498 12.8912 36.3259V43.6574H8.1521V36.3259Z" fill="#FF7048" stroke="#22215B"/>
<path d="M15.8044 33.0142C15.8044 32.738 16.0283 32.5142 16.3044 32.5142H20.0436C20.3197 32.5142 20.5436 32.738 20.5436 33.0142V43.6575H15.8044V33.0142Z" fill="#00CA81" stroke="#22215B"/>
<path d="M23.4565 26.3905C23.4565 26.1144 23.6804 25.8905 23.9565 25.8905H27.6957C27.9718 25.8905 28.1957 26.1144 28.1957 26.3905V43.6574H23.4565V26.3905Z" fill="#FF7048" stroke="#22215B"/>
<path d="M31.1086 19.767C31.1086 19.4908 31.3325 19.267 31.6086 19.267H35.3478C35.6239 19.267 35.8478 19.4908 35.8478 19.767V43.6575H31.1086V19.767Z" fill="#00CA81" stroke="#22215B"/>
<path d="M38.761 13.1433C38.761 12.8672 38.9848 12.6433 39.261 12.6433H43.0001C43.2763 12.6433 43.5001 12.8672 43.5001 13.1433V43.6575H38.761V13.1433Z" fill="#FF7048" stroke="#22215B"/>
</g>
<defs>
<clipPath id="clip0_886_10243">
<rect width="44" height="44" fill="white"/>
</clipPath>
</defs>
</svg>
