<svg width="34" height="34" viewBox="0 0 34 34" fill="none" xmlns="http://www.w3.org/2000/svg">
<g clip-path="url(#clip0_886_10294)">
<path d="M33.9999 8.69976V31.4108C33.8012 31.8723 33.6565 32.3678 33.3904 32.7869C32.9405 33.497 32.2061 33.8162 31.4103 34H16.1367C16.2199 33.8961 16.2931 33.788 16.3787 33.689C17.6894 32.1924 18.9892 30.6824 20.3156 29.199C21.0732 28.3526 21.3136 27.3848 21.1622 26.2839C21.0267 25.2861 20.9127 24.2883 20.7871 23.2906C20.5804 21.6276 20.373 19.9621 20.1651 18.2942C19.9539 16.6074 19.7421 14.9203 19.5297 13.233C19.3152 11.5235 19.1017 9.81422 18.8894 8.10526C18.8062 7.4301 18.7231 6.75327 18.6399 6.04236H19.005C22.9641 6.04236 26.9237 6.04236 30.8839 6.04236C31.9001 6.04236 32.7625 6.40156 33.3396 7.24052C33.639 7.67123 33.7854 8.21002 33.9999 8.69976ZM25.964 15.0714H25.5706C24.7299 15.0714 23.8883 15.0647 23.0475 15.0714C22.4446 15.078 22.0063 15.4871 21.9839 16.0359C21.9622 16.5705 22.3997 17.0337 22.9884 17.0528C23.2138 17.0611 23.287 17.1534 23.3477 17.3422C23.711 18.4447 24.2218 19.493 24.8663 20.4585C25.0825 20.7911 25.3328 21.0955 25.5773 21.4255C25.4184 21.5644 25.2796 21.69 25.1349 21.8089C24.5627 22.2784 23.9889 22.7473 23.4134 23.2157C23.1007 23.471 22.9211 23.7894 23.0026 24.201C23.1531 24.9577 23.9673 25.2745 24.5935 24.7955C25.2954 24.2576 25.9815 23.6963 26.6426 23.1093C26.9054 22.8765 27.0434 22.9156 27.2888 23.1226C27.9735 23.7008 28.6745 24.2581 29.3919 24.7947C30.0348 25.2745 30.8672 24.9419 30.992 24.1711C31.061 23.7454 30.8531 23.4302 30.5254 23.1733C29.7944 22.6046 29.0668 22.0292 28.3424 21.4605C28.3629 21.4152 28.3862 21.3714 28.4123 21.3291C29.4036 20.0944 30.1886 18.7474 30.6901 17.2382C30.7175 17.1551 30.8755 17.0777 30.9803 17.0719C31.5816 17.0129 32.0115 16.598 32.0049 16.0592C31.9982 15.5021 31.5475 15.0847 30.9288 15.0722C30.5961 15.0656 30.2635 15.0722 29.9308 15.0722H27.9566C27.9566 14.7396 27.9624 14.442 27.9566 14.146C27.9407 13.5323 27.5091 13.08 26.9586 13.0842C26.4081 13.0883 25.9831 13.5406 25.969 14.1584C25.9582 14.4461 25.964 14.7338 25.964 15.0714Z" fill="#4C54BF"/>
<path d="M0.00166439 13.9763V3.22107C0.00166439 1.25463 1.24909 0.00158691 3.20423 0.00158691C6.53459 0.00158691 9.86524 0.00158691 13.1962 0.00158691C14.545 0.00158691 15.6736 0.770705 16.0653 2.0437C16.2615 2.68061 16.3089 3.36575 16.3979 4.0326C16.6382 5.90592 16.8628 7.78173 17.0948 9.65672C17.306 11.3662 17.5184 13.0763 17.7318 14.7869L18.3655 19.8839C18.5751 21.5718 18.7841 23.26 18.9926 24.9484C19.0707 25.5845 19.1464 26.2206 19.2321 26.8559C19.2845 27.2475 19.0541 27.7921 18.7264 27.9809C18.6476 28.0136 18.562 28.0267 18.477 28.0191C13.3209 28.0191 8.16485 28.0191 3.0088 28.0191C1.29566 28.0191 0.014963 26.6979 0.014963 24.9634C0.00165708 21.3016 -0.00277093 17.6392 0.00166439 13.9763ZM10.4019 15.0879C10.4294 15.191 10.4601 15.2842 10.4784 15.3798C10.6614 16.2994 10.8427 17.2196 11.0223 18.1403C11.1437 18.7548 11.6344 19.1381 12.1666 19.0416C12.7687 18.9302 13.0947 18.4263 12.9666 17.7803C12.3207 14.5225 11.6724 11.2654 11.0215 8.00873C10.9059 7.43168 10.5225 7.11821 9.92207 7.10741C9.30334 7.09577 8.68295 7.09493 8.06423 7.10741C7.4455 7.11988 7.0904 7.44 6.96898 8.05197C6.8933 8.43029 6.82012 8.80944 6.74361 9.1886C6.16647 12.0772 5.58905 14.9657 5.01135 17.8543C4.90074 18.4072 5.22424 18.8928 5.7756 19.0283C6.27458 19.1489 6.76191 18.8512 6.92075 18.3232C6.9748 18.1436 7.00391 17.9582 7.04299 17.7744C7.22373 16.8798 7.40364 15.9843 7.58272 15.0879H10.4019Z" fill="#4C54BF"/>
<path d="M11.6384 30.0297H16.8361C16.8057 30.0802 16.7727 30.129 16.7371 30.176C15.7275 31.2894 14.7129 32.3985 13.7108 33.5194C13.5653 33.6857 13.4613 33.6774 13.295 33.5768C12.3902 33.0288 11.8962 32.2239 11.7748 31.1813C11.7282 30.8088 11.6858 30.4363 11.6384 30.0297Z" fill="#4C54BF"/>
<path d="M25.3362 17.0836H28.6477C28.2568 18.1421 27.6764 19.0575 26.9662 19.9472C26.2681 19.0895 25.7172 18.1218 25.3362 17.0836Z" fill="#4C54BF"/>
<path d="M7.98438 13.0675C8.24966 11.7371 8.51245 10.4292 8.77607 9.11133H9.21683L10.0094 13.0675H7.98438Z" fill="#4C54BF"/>
</g>
<defs>
<clipPath id="clip0_886_10294">
<rect width="34" height="34" fill="white"/>
</clipPath>
</defs>
</svg>
