<svg width="43" height="34" viewBox="0 0 43 34" fill="none" xmlns="http://www.w3.org/2000/svg">
<path d="M13.8372 0.774086C13.5219 1.06693 13.2516 1.49492 13.229 1.72018C13.229 1.94544 13.2065 2.28333 13.184 2.46354C13.1615 2.75638 12.373 2.80143 7.575 2.82396C2.07865 2.86901 1.96602 2.86901 1.42539 3.38711L0.884766 3.88268V18.3895V32.8962L1.44792 33.4368L1.98854 34H9.17435C16.1124 34 16.3827 33.9775 16.9684 33.527C17.3513 33.2341 17.5991 32.7611 17.6892 32.1979L17.8244 31.3194L21.6087 31.3645L25.3931 31.387L25.5283 32.2204C25.6184 32.7611 25.8887 33.2341 26.2491 33.527C26.8348 33.9775 27.1051 34 34.0431 34H41.2289L41.7695 33.4368L42.3327 32.8962V18.3895V3.88268L41.7695 3.36458C41.2289 2.84648 41.1613 2.84648 35.6424 2.82396C30.8444 2.80143 30.056 2.75638 30.0335 2.46354C30.0109 2.28333 29.9884 1.94544 29.9884 1.72018C29.9659 1.49492 29.6956 1.06693 29.3802 0.774086L28.8396 0.210938H21.6087H14.3779L13.8372 0.774086ZM28.772 15.6187C28.7945 25.7329 28.7495 29.6525 28.5693 29.8552C28.2089 30.2832 15.0987 30.3283 14.6707 29.9003C14.468 29.6975 14.4004 26.251 14.4004 15.7539C14.4004 8.11758 14.468 1.78776 14.5581 1.72018C14.6482 1.63008 17.8469 1.58503 21.6988 1.60755L28.7044 1.67513L28.772 15.6187ZM13.1164 17.1505L13.1615 30.1255L13.7021 30.7112C14.085 31.1167 14.513 31.2969 15.2789 31.3419C16.225 31.4095 16.3151 31.4546 16.3151 31.9727V32.5358L9.35456 32.6034C3.92578 32.6484 2.34896 32.5809 2.19128 32.3781C2.10117 32.2204 2.01107 25.8906 2.01107 18.3219C2.01107 7.82474 2.07865 4.51341 2.28138 4.31068C2.48411 4.10794 3.92578 4.04036 7.80026 4.08541L13.0488 4.15299L13.1164 17.1505ZM40.9811 4.46836C41.2514 5.00898 41.2965 31.9276 41.0262 32.3781C40.8685 32.5809 39.2917 32.6484 33.8629 32.6034L26.9023 32.5358V31.9727C26.9023 31.4546 26.9924 31.4095 27.9385 31.3419C28.7044 31.2969 29.1324 31.1167 29.5154 30.7112C30.0109 30.1931 30.056 29.9003 30.101 27.8504C30.1686 25.5527 30.1686 25.5527 30.7318 25.5527C31.2048 25.5753 31.2949 25.4626 31.2949 24.9445C31.2949 24.4264 31.2048 24.3138 30.7318 24.3138C30.2587 24.3138 30.1686 24.2012 30.1686 23.638C30.1686 23.0749 30.2587 22.9622 30.7318 22.9622C31.2048 22.9622 31.2949 22.8496 31.2949 22.2865C31.2949 21.7233 31.2048 21.6107 30.7543 21.6107C30.3714 21.6107 30.1911 21.453 30.1236 21.0475C29.9884 20.3717 30.0785 20.2591 30.7768 20.2591C31.1823 20.2591 31.2949 20.1465 31.2949 19.696C31.2949 19.2454 31.1823 19.1328 30.7318 19.1328H30.1911L30.1236 11.6767C30.0785 7.57695 30.101 4.17552 30.1461 4.13047C30.1911 4.08541 32.6014 4.04036 35.4848 4.04036C40.4405 4.04036 40.7559 4.06289 40.9811 4.46836Z" fill="#3A85FF"/>
<path d="M20.9323 3.81519C20.9323 4.06297 20.7971 4.26571 20.6169 4.26571C20.1214 4.26571 19.3555 5.36948 19.3555 6.09032C19.3555 7.03641 20.1889 7.84735 21.3828 8.05008C22.1938 8.18524 22.3965 8.32039 22.3965 8.65828C22.3965 9.06375 22.2163 9.10881 20.8872 9.17638C19.3555 9.24396 19.3555 9.24396 19.3555 9.89722C19.3555 10.5279 19.423 10.573 20.1439 10.573C20.6845 10.573 20.9323 10.6856 20.9323 10.9109C20.9323 11.1361 21.1576 11.2488 21.6081 11.2488C22.0586 11.2488 22.2839 11.1361 22.2839 10.9109C22.2839 10.7307 22.374 10.573 22.4866 10.573C22.9596 10.573 23.8607 9.35659 23.8607 8.68081C23.8382 7.55451 23.1849 6.90125 21.9234 6.7661C20.9323 6.65347 20.8197 6.56336 20.8197 6.06779C20.8197 5.52716 20.8872 5.50464 22.3514 5.43706C23.8607 5.36948 23.8607 5.36948 23.8607 4.71623C23.8607 4.0855 23.7931 4.04045 23.0723 4.04045C22.5316 4.04045 22.2839 3.92782 22.2839 3.70256C22.2839 3.4773 22.0586 3.36467 21.6081 3.36467C21.09 3.36467 20.9323 3.45477 20.9323 3.81519Z" fill="#3A85FF"/>
<path d="M17.1033 13.8392V14.4023H21.6085H26.1137V13.8392V13.276H21.6085H17.1033V13.8392Z" fill="#3A85FF"/>
<path d="M17.1033 17.1054C17.1033 17.7361 17.1708 17.8037 17.734 17.7361C18.207 17.6911 18.3422 17.5559 18.3422 17.1054C18.3422 16.6549 18.207 16.5197 17.734 16.4747C17.1708 16.4071 17.1033 16.4747 17.1033 17.1054Z" fill="#3A85FF"/>
<path d="M19.582 17.1055V17.7812H22.8483H26.1146V17.1055V16.4297H22.8483H19.582V17.1055Z" fill="#3A85FF"/>
<path d="M17.1033 20.3718C17.1033 20.8448 17.2159 20.9349 17.7791 20.9349C18.3422 20.9349 18.4548 20.8448 18.4548 20.3718C18.4548 19.8987 18.3422 19.8086 17.7791 19.8086C17.2159 19.8086 17.1033 19.8987 17.1033 20.3718Z" fill="#3A85FF"/>
<path d="M19.582 20.3718V20.9349H22.8483H26.1146V20.3718V19.8086H22.8483H19.582V20.3718Z" fill="#3A85FF"/>
<path d="M17.6661 24.877C16.8777 25.6429 16.9002 26.8593 17.6886 27.5802C18.2743 28.1208 18.4095 28.1433 21.6082 28.1433C24.8069 28.1433 24.942 28.1208 25.5277 27.5802C26.3161 26.8593 26.3386 25.6429 25.5502 24.877C25.0321 24.3364 24.9195 24.3139 21.6082 24.3139C18.2968 24.3139 18.1842 24.3364 17.6661 24.877ZM24.7168 26.161C24.6492 26.6791 24.5816 26.6791 21.6082 26.6791C18.6347 26.6791 18.5671 26.6791 18.4996 26.161C18.432 25.6654 18.432 25.6654 21.6082 25.6654C24.7843 25.6654 24.7843 25.6654 24.7168 26.161Z" fill="#3A85FF"/>
<path d="M8.54362 6.27047C8.54362 6.3831 8.1832 6.83363 7.75521 7.26162C6.80911 8.20771 6.74154 8.92855 7.52995 9.87464C7.98047 10.3927 8.34089 10.5729 9.06172 10.618C9.89518 10.6856 10.0078 10.7532 10.0078 11.2487C10.0078 11.7894 9.94023 11.8119 8.49857 11.8795C6.9668 11.947 6.9668 11.947 6.9668 12.6003C6.9668 13.2085 7.03438 13.2761 7.73268 13.2761C8.20573 13.2761 8.54362 13.4112 8.63372 13.614C8.79141 14.0194 9.89518 14.0645 9.89518 13.659C9.89518 13.5239 10.2556 13.0959 10.6836 12.758C11.3143 12.2624 11.472 11.9696 11.472 11.3614C11.472 10.2801 10.7061 9.46917 9.44466 9.26644C8.63372 9.13128 8.43099 8.99613 8.43099 8.65824C8.43099 8.25277 8.6112 8.20771 9.96276 8.14014C11.472 8.07256 11.472 8.07256 11.472 7.4193C11.472 6.78857 11.4044 6.74352 10.6836 6.74352C10.143 6.74352 9.89518 6.63089 9.89518 6.40563C9.89518 6.18037 9.66992 6.06774 9.2194 6.06774C8.85898 6.06774 8.54362 6.15784 8.54362 6.27047Z" fill="#3A85FF"/>
<path d="M4.03906 16.4297V17.1055H8.00365H11.9457L11.8781 16.4747L11.8105 15.8665L7.93607 15.799L4.03906 15.7539V16.4297Z" fill="#3A85FF"/>
<path d="M4.15169 20.4394C4.08411 20.5069 4.03906 20.7998 4.03906 21.0926C4.03906 21.5206 4.15169 21.6107 4.71484 21.6107C5.27799 21.6107 5.39062 21.5206 5.39062 21.0701C5.39062 20.6872 5.23294 20.5069 4.82747 20.4394C4.53464 20.3718 4.21927 20.3718 4.15169 20.4394Z" fill="#3A85FF"/>
<path d="M6.74219 20.9349V21.6107H9.35521H11.9457L11.8781 20.98L11.8105 20.3718L9.28763 20.3042L6.74219 20.2366V20.9349Z" fill="#3A85FF"/>
<path d="M6.74219 23.638V24.3363L9.28763 24.2687L11.8105 24.2011L11.8781 23.5704L11.9457 22.9622H9.35521H6.74219V23.638Z" fill="#3A85FF"/>
<path d="M5.93086 27.017C4.69193 27.5125 4.37657 29.0668 5.25508 30.103L5.79571 30.7338H8.8142H11.8102L11.8777 30.1256L11.9453 29.5174L9.06198 29.4498L6.17865 29.3822V28.8191V28.2559L9.06198 28.1883L11.9453 28.1207L11.8777 27.5125L11.8102 26.9043L9.10704 26.8593C7.62032 26.8368 6.17865 26.9043 5.93086 27.017Z" fill="#3A85FF"/>
<path d="M33.3227 6.40555C33.3227 6.58576 33.21 6.74344 33.0974 6.74344C32.5343 6.74344 31.7458 7.86975 31.7458 8.6131C31.7458 9.78446 32.3766 10.4152 33.6831 10.5503C34.6742 10.663 34.7869 10.7531 34.7869 11.2487C34.7869 11.7893 34.7193 11.8118 33.2776 11.8794C31.7458 11.947 31.7458 11.947 31.7458 12.6002C31.7458 13.2309 31.8134 13.276 32.5343 13.276C33.0749 13.276 33.3227 13.3886 33.3227 13.6139C33.3227 14.1545 34.4715 14.0419 34.6067 13.5013C34.6742 13.2535 34.8544 13.0507 35.0121 13.0507C35.1923 13.0507 35.5302 12.7804 35.778 12.4651C36.8367 11.1135 36.0033 9.49162 34.1561 9.28889C33.2326 9.17626 33.0974 9.10868 33.0974 8.63563C33.0974 8.11753 33.165 8.09501 34.6742 8.09501H36.2511V7.41922C36.2511 6.7885 36.1835 6.74344 35.4626 6.74344C34.922 6.74344 34.6742 6.63081 34.6742 6.40555C34.6742 6.18029 34.449 6.06766 33.9985 6.06766C33.5479 6.06766 33.3227 6.18029 33.3227 6.40555Z" fill="#3A85FF"/>
<path d="M31.2949 16.4297V17.1055H35.237H39.179V16.4297V15.7539H35.237H31.2949V16.4297Z" fill="#3A85FF"/>
<path d="M32.6465 19.6959V20.259H35.9128H39.179V19.6959V19.1327H35.9128H32.6465V19.6959Z" fill="#3A85FF"/>
<path d="M32.6465 22.2864V22.9622H34.8991H37.1517V22.2864V21.6106H34.8991H32.6465V22.2864Z" fill="#3A85FF"/>
<path d="M32.6906 24.922L32.7582 25.5527H35.9118H39.0655L39.1331 24.922L39.2007 24.3138H35.9118H32.623L32.6906 24.922Z" fill="#3A85FF"/>
<path d="M31.4517 26.9269C31.3616 27.017 31.294 27.3323 31.294 27.6026C31.294 28.1207 31.3391 28.1207 34.1773 28.1883L37.0382 28.2559V28.8191V29.3822L34.1548 29.4498L31.2715 29.5174L31.3391 30.1256L31.4066 30.7338H34.4026H37.4211L37.9617 30.103C38.66 29.2921 38.66 28.346 37.9617 27.5351C37.4211 26.9043 37.376 26.9043 34.5152 26.8368C32.9384 26.7917 31.5418 26.8368 31.4517 26.9269Z" fill="#3A85FF"/>
</svg>
