<svg width="30" height="38" viewBox="0 0 30 38" fill="none" xmlns="http://www.w3.org/2000/svg">
<path d="M7.44749 28.7539C7.82351 28.4767 8.16656 28.2191 8.51432 27.9683C8.87554 27.708 9.22633 27.7243 9.44629 28.0033C9.6797 28.2992 9.60739 28.6681 9.24146 28.948C8.73832 29.3329 8.2308 29.7126 7.71521 30.0808C7.34727 30.3435 7.05063 30.2906 6.77417 29.9281C6.58582 29.6811 6.40622 29.4265 6.23369 29.1683C5.99691 28.8137 6.03021 28.4848 6.31172 28.2663C6.60701 28.0372 6.94536 28.1068 7.21879 28.4543C7.28505 28.5381 7.34895 28.6243 7.44749 28.7539ZM7.13404 16.6101C6.87271 16.2806 6.54445 16.2039 6.2579 16.4035C5.94949 16.6179 5.90745 16.962 6.15398 17.3303C6.31945 17.5773 6.49199 17.82 6.66957 18.0585C6.96655 18.4576 7.26352 18.5058 7.6725 18.2106C8.16421 17.8553 8.64885 17.4898 9.13384 17.1253C9.50514 16.8463 9.59696 16.4883 9.38171 16.1873C9.16108 15.8785 8.8076 15.854 8.42654 16.1292C8.07878 16.3804 7.73606 16.6383 7.36207 16.9149C7.26319 16.7822 7.20097 16.6943 7.13404 16.6101ZM29.9999 32.0244C30.0161 35.3196 27.3729 37.9999 24.1068 37.9999H21.8437V37.9935C16.1254 38.0023 10.4072 38.0043 4.68927 37.986C2.17455 37.9772 0.02004 35.8263 0.0136498 33.3065C-0.0092205 25.4125 0.00356003 17.5193 0.00356003 9.62568C0.00356003 9.55916 0.0109593 9.49265 0.0197039 9.37285H0.456929C2.46346 9.37285 4.46965 9.37387 6.47618 9.37285C8.37677 9.37183 9.50582 8.22919 9.50784 6.29957C9.50985 4.38386 9.50784 2.46815 9.50784 0.55278V0.00165284H9.91479C14.9368 0.00165284 19.9599 -0.00377699 24.9819 0.00504648C27.3456 0.00945821 29.2183 1.51114 29.7591 3.81237C29.8456 4.1816 29.8832 4.56067 29.8852 4.9394C29.8906 6.78215 29.8906 8.62353 29.8886 10.4653L29.892 10.4588L29.9999 32.0244ZM4.20126 17.1521C4.20126 17.9526 4.19689 18.7542 4.20227 19.5544C4.20664 20.3767 4.621 20.8165 5.43794 20.8233C7.03852 20.8352 8.6391 20.8366 10.2387 20.8223C11.0297 20.8148 11.4636 20.3659 11.468 19.5755C11.4754 17.9615 11.4767 16.3464 11.4669 14.7314C11.4626 13.9638 11.0253 13.5138 10.2602 13.5073C8.6465 13.4931 7.03314 13.4941 5.41944 13.5063C4.62503 13.5117 4.20732 13.9519 4.20193 14.7511C4.19689 15.5513 4.20126 16.3519 4.20126 17.1521ZM11.4669 26.5627C11.4616 25.797 11.0072 25.3515 10.2494 25.3494C8.63574 25.344 7.02137 25.344 5.40666 25.3494C4.6479 25.3515 4.20866 25.797 4.20227 26.5647C4.19588 27.3781 4.20126 28.193 4.20126 29.0074C4.20126 29.8219 4.19487 30.6367 4.20328 31.4512C4.20967 32.2134 4.65228 32.6709 5.40901 32.6763C7.02372 32.6861 8.63843 32.6861 10.2518 32.6753C11.0018 32.6709 11.4616 32.207 11.4659 31.4492C11.4777 29.8199 11.4777 28.1909 11.4669 26.5627ZM13.835 7.83316C15.7067 7.83417 17.578 7.83316 19.4497 7.83316C21.3351 7.83316 23.2196 7.83417 25.1054 7.83316C25.742 7.83214 25.9408 7.62614 25.9428 6.97389C25.9438 6.30839 25.9448 5.6429 25.9418 4.97673C25.9384 4.26678 25.6246 4.09133 24.7253 4.19246C21.2403 4.58544 17.727 4.58001 14.242 4.19585C13.2814 4.09031 12.9673 4.24913 12.9619 5.00829C12.9575 5.65953 12.9586 6.31179 12.9619 6.96438C12.9649 7.63497 13.1637 7.83316 13.835 7.83316ZM26.0259 26.1313C26.0259 23.9326 24.7556 22.5789 22.1632 22.0189L21.0839 21.7956V18.1712C22.1426 18.3246 22.8994 19.0882 22.9297 20.0139H25.7434C25.7033 17.6628 23.8882 16.004 21.0839 15.7393V14.3551H19.671V15.7393C16.6652 15.9833 14.8897 17.5919 14.8897 20.0954C14.8897 22.2222 16.1913 23.6272 18.6122 24.1966L19.671 24.4515V28.2381C18.4104 28.1051 17.5535 27.3527 17.4822 26.3441H14.5971C14.6079 28.8282 16.5139 30.4358 19.671 30.6197V31.8917H21.0839V30.599C24.2407 30.335 26.0259 28.7268 26.0259 26.1313ZM23.1614 26.4778C23.1614 27.5057 22.3952 28.1668 21.0836 28.2486V24.707C22.4955 24.9717 23.1614 25.5412 23.1614 26.4778ZM19.671 18.1617V21.5007C18.4504 21.2557 17.8158 20.6655 17.8158 19.8103C17.8155 18.9046 18.5819 18.2228 19.671 18.1617ZM8.28629 0.537509C8.28629 0.405157 8.27385 0.273144 8.26578 0.110249C2.77523 0.907755 0.834961 5.67243 0.293811 7.46495C0.237308 7.63293 0.191231 7.80804 0.151208 7.98757C0.126656 8.08971 0.115893 8.14639 0.115893 8.14639C0.23428 8.14639 0.33686 8.14639 0.434732 8.14639C0.485517 8.14639 0.53563 8.14639 0.58507 8.14639C2.55023 8.14639 4.51573 8.14673 6.48089 8.14639C7.7031 8.14605 8.28495 7.56065 8.28629 6.32366C8.28899 4.39472 8.28764 2.46611 8.28629 0.537509Z" fill="#9766FF"/>
</svg>
