<svg width="54" height="54" viewBox="0 0 54 54" fill="none" xmlns="http://www.w3.org/2000/svg">
<path d="M50.4754 29.6451C50.1767 30.5286 49.5701 31.1764 48.9019 31.799C45.4941 34.9789 42.0944 38.167 38.7029 41.3633C37.7269 42.2821 36.5988 42.746 35.2453 42.7388C31.1874 42.7188 27.1295 42.7315 23.0716 42.7324H22.5157C22.6063 42.8557 22.6624 42.9327 22.7212 43.0043C23.0943 43.4836 23.0725 43.9059 22.6162 44.3689C21.6022 45.3956 20.5782 46.4132 19.5588 47.4344C18.676 48.317 17.7969 49.2023 16.9115 50.0821C16.3348 50.6548 15.892 50.6575 15.3216 50.0876C11.8136 46.579 8.30652 43.0689 4.80031 39.5573C4.21635 38.972 4.22359 38.537 4.82385 37.9353C6.67201 36.0832 8.52109 34.2325 10.3711 32.3834C11.0365 31.7174 11.4023 31.7129 12.0913 32.3562C12.1338 32.3961 12.1818 32.4305 12.2669 32.4994C12.9007 31.9476 13.5344 31.412 14.1537 30.8448C15.4819 29.626 16.9115 28.5794 18.6453 27.9968C19.3623 27.7576 19.3207 27.744 19.3696 27C19.7127 21.9864 21.8765 17.9867 26.0277 15.1052C26.1019 15.0544 26.1798 15.0091 26.2549 14.9602C26.2803 14.9439 26.302 14.9221 26.3563 14.8777C25.8022 14.122 25.575 13.2829 25.8412 12.3541C26.1073 11.4253 26.7465 10.8237 27.6836 10.4784C27.6211 10.3479 27.5731 10.2292 27.5116 10.116C26.8416 8.90807 26.1671 7.702 25.5007 6.4914C25.0834 5.73477 25.307 5.17297 26.1345 4.94643C27.4401 4.59123 28.7601 4.35201 30.1263 4.35563C32.0801 4.36107 34.0275 4.33117 35.9279 4.90838C36.8577 5.19109 37.1049 5.70668 36.6341 6.55483C35.9321 7.83369 35.2263 9.10924 34.5164 10.3815C34.5093 10.4112 34.5047 10.4415 34.5029 10.4721C35.363 10.8028 36.0311 11.3673 36.3136 12.2934C36.5961 13.2195 36.4041 14.0749 35.8039 14.8795C37.9768 16.207 39.62 18.022 40.8486 20.2257C42.0681 22.4086 42.7635 24.7429 42.8269 27.3263C43.6326 26.7989 44.3868 26.2933 45.1537 25.8058C46.4465 24.9839 47.9603 25.0328 49.1663 25.9072C49.8136 26.3766 50.1794 27.039 50.4782 27.7521L50.4754 29.6451ZM13.5462 33.7771C13.6168 33.8677 13.6367 33.9084 13.6702 33.9402C15.9331 36.2067 18.1965 38.4696 20.4605 40.729C20.6168 40.8565 20.813 40.9248 21.0146 40.922C25.7479 40.9319 30.4812 40.9265 35.2145 40.9328C35.6275 40.9408 36.0378 40.8659 36.4214 40.7126C36.805 40.5593 37.1541 40.3307 37.448 40.0403C39.1248 38.4446 40.8224 36.8688 42.5109 35.2867C44.3741 33.539 46.238 31.7911 48.1025 30.0429C48.5552 29.6179 48.8358 29.1168 48.7308 28.4834C48.518 27.1994 47.198 26.643 46.0808 27.3716C43.3773 29.1358 40.6884 30.9227 37.9768 32.6734C37.5395 32.9552 37.3647 33.2334 37.3729 33.7743C37.4037 35.6772 35.793 37.2983 33.899 37.3083C31.7804 37.3228 29.6618 37.3128 27.5424 37.3083C27.4083 37.311 27.2748 37.2908 27.1476 37.2485C26.9482 37.1745 26.7816 37.0318 26.6779 36.8459C26.5741 36.6601 26.5401 36.4433 26.5818 36.2345C26.6605 35.7977 27.0236 35.5096 27.5315 35.5096C29.545 35.5051 31.5586 35.5168 33.5721 35.4987C33.9158 35.499 34.2561 35.4312 34.5735 35.2994C34.9234 35.1362 35.2095 34.8616 35.3871 34.5185C35.5646 34.1754 35.6236 33.783 35.5549 33.4028C35.3738 32.5048 34.6993 31.9159 33.7849 31.8995C32.6586 31.8796 31.5296 31.8533 30.4042 31.9059C29.4174 31.9521 28.6098 31.6422 27.8257 31.0559C24.5573 28.6093 20.1826 28.5459 16.906 30.9327C15.7372 31.7935 14.6815 32.8111 13.5462 33.7771V33.7771ZM31.9814 20.2013C32.4567 20.5329 32.8868 20.7876 33.2571 21.1074C33.6844 21.4699 33.7098 21.9982 33.3675 22.3896C33.0253 22.7811 32.5138 22.8001 32.0747 22.473C31.8885 22.3224 31.6891 22.1889 31.4789 22.0743C31.3184 21.9881 31.134 21.957 30.9541 21.9858C30.7742 22.0146 30.6087 22.1017 30.483 22.2338C30.2277 22.4775 30.1209 22.7774 30.2358 23.1335C30.3644 23.5196 30.6433 23.7162 31.0289 23.7733C31.2218 23.8023 31.4219 23.7869 31.6111 23.8277C32.1598 23.9385 32.6613 24.2151 33.0479 24.6202C33.4345 25.0253 33.6877 25.5394 33.7731 26.093C33.9406 27.2592 33.3648 28.3656 32.2693 28.9174C32.0439 29.0316 31.9597 29.1521 31.9805 29.3932C31.9995 29.6134 31.9805 29.8363 31.9805 30.1072C33.6636 30.0909 35.3765 29.8707 36.5753 31.4302C37.7196 30.6799 38.7826 29.8852 39.9369 29.2554C40.8296 28.7688 41.0659 28.1191 41.008 27.1804C40.7599 23.1734 39.171 19.8261 36.0574 17.2908C32.8361 14.663 29.0299 14.7735 25.8674 17.472C23.6366 19.3749 22.2079 21.7861 21.5216 24.6305C21.3052 25.523 21.2283 26.45 21.088 27.3634C21.1685 27.3849 21.2505 27.4003 21.3333 27.4096C24.3093 27.2184 26.9647 28.0439 29.3196 29.8798C29.5287 30.0429 29.8474 30.0655 30.1634 30.1688V29.2273C29.5505 28.7163 29.0018 28.3067 28.5147 27.8337C28.2196 27.5474 28.2295 27.1514 28.4631 26.7944C28.6858 26.4536 29.0226 26.3114 29.3984 26.4165C29.6265 26.4799 29.8076 26.6974 30.024 26.8188C30.3807 27.0191 30.7329 27.29 31.1177 27.3625C31.5568 27.4422 31.9687 26.952 31.9769 26.4999C31.985 25.987 31.5722 25.6164 30.9565 25.5828C30.3906 25.5568 29.8471 25.3539 29.4025 25.0027C28.9578 24.6514 28.6343 24.1695 28.4776 23.6247C28.1625 22.5201 28.5356 21.2624 29.5206 20.696C30.1263 20.349 30.2603 19.9403 30.1851 19.3432C30.182 19.313 30.182 19.2827 30.1851 19.2526C30.2105 18.7333 30.5726 18.3709 31.0706 18.3645C31.5894 18.3573 31.966 18.727 31.9823 19.2707C31.9923 19.6014 31.9814 19.9313 31.9814 20.2013ZM20.6389 43.6766L11.2484 34.2763L6.72694 38.7853L16.1193 48.191L20.6389 43.6766ZM34.6006 6.47328C32.2855 5.96716 29.8884 5.96901 27.574 6.47872C28.2151 7.63404 28.8416 8.77578 29.4853 9.90664C29.5324 9.9891 29.7044 10.0371 29.8185 10.0389C30.6559 10.0489 31.4934 10.0498 32.3309 10.0389C32.4558 10.0389 32.6414 9.98004 32.693 9.88761C33.334 8.76672 33.9533 7.63585 34.6006 6.47328ZM31.0697 13.4904C31.8782 13.6327 32.6758 13.7541 33.4653 13.9181C34.0085 14.0305 34.4395 13.8474 34.5871 13.3744C34.7346 12.9014 34.4839 12.404 33.9633 12.2372C32.0949 11.622 30.0788 11.622 28.2105 12.2372C27.6908 12.404 27.4401 12.9005 27.5922 13.3762C27.7443 13.852 28.1707 14.025 28.7166 13.91C29.4862 13.7514 30.2693 13.6318 31.0652 13.4904H31.0697Z" fill="#22215B"/>
<path d="M13.5466 33.7771C14.682 32.8111 15.7376 31.7935 16.911 30.939C20.1875 28.5523 24.5623 28.6166 27.8307 31.0623C28.6147 31.6485 29.4223 31.9584 30.4092 31.9122C31.5346 31.8597 32.6636 31.886 33.7899 31.9059C34.7043 31.9222 35.3743 32.5112 35.5599 33.4092C35.6286 33.7894 35.5696 34.1817 35.392 34.5248C35.2145 34.8679 34.9284 35.1425 34.5784 35.3057C34.2611 35.4376 33.9207 35.5053 33.5771 35.5051C31.5635 35.5232 29.55 35.5114 27.5365 35.5159C27.0285 35.5159 26.6655 35.8032 26.5867 36.2409C26.545 36.4496 26.5791 36.6664 26.6828 36.8523C26.7865 37.0381 26.9531 37.1809 27.1526 37.2548C27.2798 37.2971 27.4133 37.3173 27.5473 37.3146C29.6668 37.3146 31.7854 37.3273 33.9039 37.3146C35.798 37.301 37.4086 35.6836 37.3778 33.7807C37.3697 33.237 37.5444 32.9652 37.9817 32.6797C40.6979 30.9291 43.3823 29.1458 46.0857 27.3779C47.203 26.653 48.523 27.2057 48.7358 28.4897C48.8408 29.124 48.561 29.6242 48.1074 30.0492C46.2417 31.7956 44.3779 33.5436 42.5158 35.293C40.8273 36.877 39.1298 38.4509 37.453 40.0466C37.1591 40.3371 36.81 40.5657 36.4264 40.719C36.0428 40.8723 35.6324 40.9471 35.2194 40.9392C30.4862 40.9328 25.7529 40.9392 21.0196 40.9283C20.8179 40.9312 20.6218 40.8629 20.4655 40.7353C18.193 38.4808 15.9296 36.2179 13.6752 33.9465C13.6399 33.9085 13.6172 33.8695 13.5466 33.7771ZM22.9716 36.3523C22.9595 36.5295 23 36.7063 23.0881 36.8605C23.1761 37.0148 23.3078 37.1395 23.4664 37.219C23.6251 37.2985 23.8038 37.3293 23.9799 37.3075C24.156 37.2857 24.3218 37.2123 24.4563 37.0965C24.5908 36.9806 24.6881 36.8276 24.736 36.6565C24.7839 36.4855 24.7801 36.3041 24.7253 36.1352C24.6704 35.9663 24.5669 35.8174 24.4277 35.7072C24.2885 35.597 24.1199 35.5305 23.943 35.5159C23.824 35.5049 23.7039 35.518 23.59 35.5544C23.4761 35.5908 23.3706 35.6498 23.28 35.7278C23.1893 35.8059 23.1153 35.9014 23.0623 36.0087C23.0093 36.116 22.9785 36.2328 22.9716 36.3523V36.3523Z" fill="#FFD3BF"/>
<path d="M31.9813 20.2013C31.9813 19.9295 31.9894 19.6015 31.9813 19.2707C31.965 18.727 31.5883 18.3573 31.0696 18.3646C30.5716 18.3709 30.2095 18.7334 30.1841 19.2526C30.1809 19.2827 30.1809 19.3131 30.1841 19.3432C30.2593 19.9404 30.1253 20.349 29.5196 20.6961C28.5345 21.2624 28.1615 22.5201 28.4766 23.6247C28.6346 24.1695 28.9594 24.651 29.4053 25.0013C29.8511 25.3516 30.3955 25.5531 30.9618 25.5774C31.5775 25.611 31.9903 25.9816 31.9822 26.4945C31.974 26.9475 31.5621 27.4368 31.123 27.3571C30.7382 27.2873 30.386 27.0164 30.0293 26.8134C29.8129 26.692 29.6318 26.4745 29.4037 26.4111C29.0279 26.306 28.6911 26.4482 28.4684 26.789C28.2348 27.146 28.2249 27.542 28.52 27.8283C29.0071 28.3013 29.5558 28.7109 30.1687 29.2219V30.1607C29.8527 30.0574 29.535 30.0347 29.3249 29.8716C26.9709 28.0385 24.3146 27.2103 21.3386 27.4015C21.2558 27.3922 21.1738 27.3768 21.0933 27.3553C21.2336 26.4419 21.3106 25.5149 21.5269 24.6224C22.2123 21.7816 23.641 19.3722 25.8727 17.4639C29.0352 14.7627 32.8441 14.6548 36.0627 17.2826C39.1763 19.8198 40.7652 23.1653 41.0133 27.1722C41.0712 28.111 40.8322 28.7607 39.9422 29.2473C38.7879 29.8753 37.725 30.6699 36.5806 31.422C35.3819 29.8626 33.6689 30.0828 31.9858 30.0991C31.9858 29.8272 32.0003 29.6052 31.9858 29.385C31.965 29.144 32.0492 29.0226 32.2746 28.9093C33.3701 28.3575 33.9459 27.2511 33.7784 26.0849C33.693 25.5312 33.4398 25.0172 33.0532 24.6121C32.6666 24.207 32.1651 23.9303 31.6164 23.8195C31.4272 23.7788 31.2271 23.7942 31.0343 23.7652C30.6486 23.7081 30.3697 23.5114 30.2411 23.1254C30.1225 22.7675 30.233 22.4694 30.4883 22.2256C30.614 22.0936 30.7795 22.0065 30.9594 21.9777C31.1393 21.9488 31.3237 21.9799 31.4842 22.0662C31.6944 22.1808 31.8938 22.3143 32.08 22.4649C32.5191 22.792 33.0442 22.7612 33.3728 22.3815C33.7015 22.0018 33.6897 21.4599 33.2624 21.0993C32.8866 20.7876 32.4593 20.533 31.9813 20.2013Z" fill="#DC25FA"/>
<path d="M20.6389 43.6765L16.1193 48.1909L6.72876 38.787L11.2484 34.2762L20.6389 43.6765Z" fill="#DC25FA"/>
<path d="M34.6006 6.47331C33.9533 7.63861 33.3331 8.76675 32.6939 9.88402C32.6414 9.97463 32.4558 10.0335 32.3318 10.0353C31.4943 10.0498 30.6568 10.0489 29.8194 10.0353C29.7053 10.0353 29.5333 9.98551 29.4862 9.90305C28.8425 8.77219 28.2187 7.63045 27.575 6.47513C29.8892 5.96675 32.2861 5.96613 34.6006 6.47331V6.47331Z" fill="#DC25FA"/>
<path d="M31.0651 13.4904C30.2693 13.6318 29.4862 13.7514 28.7112 13.9136C28.1679 14.0287 27.7361 13.8502 27.5867 13.3799C27.4373 12.9096 27.6854 12.4076 28.2051 12.2409C30.0734 11.6256 32.0895 11.6256 33.9578 12.2409C34.4784 12.4076 34.731 12.9014 34.5816 13.3781C34.4322 13.8547 34.0021 14.0314 33.4598 13.9217C32.6713 13.7541 31.8736 13.6327 31.0651 13.4904Z" fill="#DC25FA"/>
<path d="M22.9711 36.3523C22.9836 36.1751 23.0481 36.0055 23.1565 35.8649C23.265 35.7243 23.4126 35.6189 23.5807 35.5621C23.7489 35.5052 23.9301 35.4993 24.1015 35.5453C24.273 35.5912 24.427 35.6868 24.5443 35.8202C24.6616 35.9535 24.7369 36.1186 24.7607 36.2946C24.7845 36.4706 24.7557 36.6498 24.6781 36.8095C24.6004 36.9692 24.4773 37.1024 24.3242 37.1923C24.1711 37.2821 23.9949 37.3247 23.8177 37.3146C23.6983 37.309 23.5812 37.2795 23.4735 37.2277C23.3657 37.1759 23.2695 37.1029 23.1905 37.0131C23.1115 36.9233 23.0514 36.8185 23.0137 36.705C22.976 36.5915 22.9615 36.4715 22.9711 36.3523V36.3523Z" fill="#22215B"/>
</svg>
