<svg width="54" height="54" viewBox="0 0 54 54" fill="none" xmlns="http://www.w3.org/2000/svg">
<path d="M35.5311 7.83643C35.5311 5.63181 33.8635 3.84399 31.8072 3.84399H28.828H28.0832C27.2603 3.84399 26.5937 4.55864 26.5937 5.44097C26.5937 6.3233 25.9271 7.03795 25.1041 7.03795H19.1458C18.3228 7.03795 17.6562 6.3233 17.6562 5.44097C17.6562 4.55864 16.9896 3.84399 16.1666 3.84399H15.4218H12.4427C10.3863 3.84399 8.71875 5.63181 8.71875 7.83643V46.1638C8.71875 48.3685 10.3863 50.1563 12.4427 50.1563H31.8072C33.8635 50.1563 35.5311 48.3685 35.5311 46.1638V40.5744H27.3385C26.1043 40.5744 25.1041 39.5021 25.1041 38.179V18.2168C25.1041 16.4529 23.7702 15.0228 22.1249 15.0228H35.5311V7.83643Z" fill="#FFDDF5"/>
<path d="M31.3928 46.5001H12.1071C11.2192 46.5001 10.5 45.802 10.5 44.9401V9.06024C10.5 8.19834 11.2192 7.50024 12.1071 7.50024H31.3928C32.2807 7.50024 32.9999 8.19834 32.9999 9.06024V44.9401C32.9999 45.802 32.2807 46.5001 31.3928 46.5001Z" fill="#FFDDF5"/>
<path d="M12.3752 39.797C12.3752 39.4604 12.6481 39.1876 12.9846 39.1876H28.8283C29.1648 39.1876 29.4377 39.4604 29.4377 39.797C29.4377 40.1335 29.1648 40.4064 28.8283 40.4064H12.9846C12.6481 40.4064 12.3752 40.1335 12.3752 39.797Z" fill="#22215B"/>
<path d="M12.3752 44.6719C12.3752 44.3353 12.6481 44.0625 12.9846 44.0625H31.2658C31.6023 44.0625 31.8752 44.3353 31.8752 44.6719C31.8752 45.0084 31.6023 45.2812 31.2658 45.2812H12.9846C12.6481 45.2812 12.3752 45.0084 12.3752 44.6719Z" fill="#22215B"/>
<path d="M30.8478 38.25C30.8478 39.4927 29.7968 40.5 28.5 40.5H43.3695C45.0983 40.5 46.4999 39.1567 46.4999 37.5V36H41.8043H30.8478V38.25Z" fill="#CB3261"/>
<path d="M25.375 18.0119V38.007C25.375 39.3322 26.4662 40.4064 27.8125 40.4064C29.1588 40.4064 30.25 39.3322 30.25 38.007V35.6076H41.6249V18.0119C41.6249 16.2452 40.1697 14.8127 38.3749 14.8127H36.7499H22.125C23.9198 14.8127 25.375 16.2452 25.375 18.0119Z" fill="#CB3261"/>
<path d="M18 6.00024C18 6.82898 18.6712 7.50023 19.5 7.50023H25.5C26.3287 7.50023 27 6.82898 27 6.00024C27 5.17149 27.6712 4.50024 28.4999 4.50024H16.5C17.3287 4.50024 18 5.17149 18 6.00024Z" fill="white"/>
<path d="M37.1316 30.0169C37.7988 29.1921 38.2004 28.1433 38.2004 27.0001H33.4004L37.1316 30.0169Z" fill="#CB3261"/>
<path d="M33.0187 31.7251C34.5267 31.7251 35.8699 31.0291 36.7499 29.9419L33.0187 26.9251V22.1251C30.3675 22.1251 28.2188 24.2739 28.2188 26.9251C28.2188 29.5763 30.3675 31.7251 33.0187 31.7251Z" fill="#CB3261"/>
<path d="M38.2004 27.0002C38.2004 24.349 36.0516 22.2002 33.4004 22.2002V27.0002H38.2004Z" fill="#CB3261"/>
<path d="M12.3752 36.1407C12.3752 35.8042 12.6481 35.5314 12.9846 35.5314H25.1721C25.5086 35.5314 25.7814 35.8042 25.7814 36.1407C25.7814 36.4773 25.5086 36.7501 25.1721 36.7501H12.9846C12.6481 36.7501 12.3752 36.4773 12.3752 36.1407Z" fill="#22215B"/>
<path d="M14.8125 18.4689H25.7812V33.0938H14.8125V18.4689Z" fill="#FFDDF5"/>
<path d="M32.4599 3.00024H29.3399H28.5599H16.08H15.3H12.18C9.59897 3.00024 7.5 5.15303 7.5 7.80022V46.2C7.5 48.8472 9.59897 51 12.18 51H32.4599C35.0409 51 37.1399 48.8472 37.1399 46.2V41.4001H42.5998C44.7503 41.4001 46.4998 39.6057 46.4998 37.4001V35.8001C46.4998 35.3585 46.1504 35.0001 45.7198 35.0001H41.8198V18.2002C41.8198 15.9946 40.0703 14.2002 37.9199 14.2002H37.1399V7.80022C37.1399 5.15303 35.0409 3.00024 32.4599 3.00024ZM26.3634 4.60024C26.2761 4.85144 26.2199 5.11863 26.2199 5.40023C26.2199 5.84103 25.8697 6.20023 25.4399 6.20023H19.1999C18.7702 6.20023 18.4199 5.84103 18.4199 5.40023C18.4199 5.11863 18.3638 4.85144 18.2764 4.60024H26.3634ZM35.5799 46.2C35.5799 47.9648 34.1806 49.4 32.4599 49.4H12.18C10.4593 49.4 9.05999 47.9648 9.05999 46.2V7.80022C9.05999 6.03543 10.4593 4.60024 12.18 4.60024H15.3H16.08C16.5097 4.60024 16.86 4.95944 16.86 5.40023C16.86 6.72343 17.9098 7.80022 19.1999 7.80022H25.4399C26.73 7.80022 27.7799 6.72343 27.7799 5.40023C27.7799 4.95944 28.1301 4.60024 28.5599 4.60024H29.3399H32.4599C34.1806 4.60024 35.5799 6.03543 35.5799 7.80022V14.2002H22.3199C20.437 14.2002 18.8614 15.577 18.4987 17.4002H13.3012C12.8707 17.4002 12.5212 17.7586 12.5212 18.2002V32.6001C12.5212 33.0417 12.8707 33.4001 13.3012 33.4001H25.5374V31.8001H14.0812V19.0002H25.5374V17.4002H20.1235C20.4464 16.4714 21.3044 15.8002 22.3199 15.8002C23.61 15.8002 24.6599 16.877 24.6599 18.2002V38.2001C24.6599 39.9649 26.0592 41.4001 27.7799 41.4001H35.5799V46.2ZM44.9398 37.4001C44.9398 38.7233 43.8899 39.8001 42.5998 39.8001H30.481C30.7478 39.3289 30.8999 38.7825 30.8999 38.2001V36.6001H44.9398V37.4001ZM40.2598 18.2002V35.0001H30.1199C29.6893 35.0001 29.3399 35.3585 29.3399 35.8001V38.2001C29.3399 39.0825 28.6402 39.8001 27.7799 39.8001C26.9196 39.8001 26.2199 39.0825 26.2199 38.2001V18.2002C26.2199 17.2962 25.9149 16.4706 25.4196 15.8002H37.9199C39.21 15.8002 40.2598 16.877 40.2598 18.2002Z" fill="#22215B"/>
<path d="M20.2969 21.7596H19.6875V20.9065H18.4687V21.7596H17.8594C17.523 21.7596 17.25 22.1418 17.25 22.6127V25.1721C17.25 25.643 17.523 26.0252 17.8594 26.0252H19.6875V26.8783H17.25V27.7315C17.25 28.2024 17.523 28.5846 17.8594 28.5846H18.4687V29.4377H19.6875V28.5846H20.2969C20.6332 28.5846 20.9062 28.2024 20.9062 27.7315V25.1721C20.9062 24.7012 20.6332 24.319 20.2969 24.319H18.4687V23.4659H20.9062V22.6127C20.9062 22.1418 20.6332 21.7596 20.2969 21.7596Z" fill="#CB3261"/>
<path d="M33.75 33.0002C36.645 33.0002 39 30.3088 39 27.0002C39 23.6917 36.645 21.0002 33.75 21.0002C30.855 21.0002 28.5 23.6917 28.5 27.0002C28.5 30.3088 30.855 33.0002 33.75 33.0002ZM35.871 27.8574H37.4242C37.3537 28.2508 37.2225 28.6142 37.065 28.9605L35.871 27.8574ZM37.4242 26.1431H34.5V22.8011C35.967 23.1431 37.125 24.4665 37.4242 26.1431ZM33 22.8011V27.0002C33 27.2694 33.1155 27.4999 33.2857 27.6568L33.279 27.6671L36.1215 30.2933C35.4727 30.9036 34.6537 31.2859 33.75 31.2859C31.6822 31.2859 30 29.3633 30 27.0002C30 24.9311 31.2907 23.1997 33 22.8011Z" fill="white"/>
<path d="M12.3752 11.7659C12.3752 11.4293 12.6481 11.1565 12.9846 11.1565H31.2658C31.6023 11.1565 31.8752 11.4293 31.8752 11.7659C31.8752 12.1024 31.6023 12.3752 31.2658 12.3752H12.9846C12.6481 12.3752 12.3752 12.1024 12.3752 11.7659Z" fill="#22215B"/>
</svg>
