<svg width="40" height="40" viewBox="0 0 40 40" fill="none" xmlns="http://www.w3.org/2000/svg">
<g clip-path="url(#clip0_886_10251)">
<path d="M12.5 26.063L12.3617 25.9245C12.3617 25.9245 12.3617 25.9245 12.3617 25.9245C11.7478 25.3094 10.7521 25.3093 10.1382 25.9245L12.5 26.063ZM12.5 26.063L13.9403 24.62C13.9403 24.62 13.9403 24.62 13.9403 24.62C14.5542 24.0048 15.5499 24.0048 16.1638 24.62L12.5 26.063ZM16.1637 26.8455L13.6117 29.4025C13.6117 29.4025 13.6117 29.4025 13.6117 29.4025C12.9979 30.0176 12.0022 30.0177 11.3882 29.4025C11.3882 29.4025 11.3882 29.4025 11.3882 29.4025L10.1382 28.1501C9.52472 27.5355 9.52471 26.5392 10.1382 25.9245L16.1637 26.8455ZM16.1637 26.8455C16.1637 26.8455 16.1637 26.8455 16.1637 26.8455C16.7772 26.2309 16.7773 25.2346 16.1638 24.62L15.8806 26.5629L16.1637 26.8455ZM28.0058 14.8525L28.3384 14.6304C28.419 14.7511 28.4902 14.8765 28.5368 15.0528C28.5799 15.2157 28.5971 15.4039 28.6051 15.6458C28.6146 15.9284 28.6122 16.3319 28.6086 16.9292C28.6061 17.3441 28.6031 17.8526 28.6031 18.4789C28.6031 19.3476 27.9001 20.0531 27.0313 20.0531C26.4041 20.0531 25.8633 19.6854 25.611 19.1542L22.518 22.2531C22.518 22.2531 22.518 22.2531 22.518 22.2532C21.9041 22.8682 20.9084 22.8683 20.2945 22.2532C20.2945 22.2531 20.2945 22.2531 20.2944 22.2531L17.0313 18.9836L13.9243 22.0966C13.3104 22.7119 12.3146 22.7118 11.7007 22.0967C11.0872 21.482 11.0872 20.4857 11.7007 19.8711C11.7007 19.8711 11.7007 19.8711 11.7007 19.8711M28.0058 14.8525L11.9838 20.1536L11.7007 19.8711M28.0058 14.8525L28.3384 14.6304C28.2153 14.446 28.0742 14.2712 27.8576 14.1459C27.6456 14.0234 27.4016 13.9713 27.1151 13.9452C26.7468 13.9117 26.2148 13.9163 25.43 13.923C25.0402 13.9263 24.588 13.9302 24.0625 13.9302C23.1937 13.9302 22.4906 14.6357 22.4906 15.5043C22.4906 16.1319 22.8576 16.6743 23.3889 16.927M28.0058 14.8525L23.3889 16.927M11.7007 19.8711L15.9194 15.6441C15.9194 15.6441 15.9194 15.644 15.9195 15.644C16.5333 15.0288 17.5291 15.0289 18.143 15.644C18.143 15.644 18.143 15.644 18.143 15.644L21.4062 18.9136L23.3889 16.927M11.7007 19.8711L23.3889 16.927M16.1637 33.5775L16.1638 33.5774C16.7772 32.9627 16.7773 31.9665 16.1638 31.3519C15.5499 30.7368 14.5542 30.7367 13.9403 31.3519C13.9403 31.3519 13.9403 31.3519 13.9403 31.352L12.5 32.795L12.3617 32.6565C12.3617 32.6565 12.3617 32.6565 12.3617 32.6564C11.7478 32.0413 10.7521 32.0413 10.1382 32.6565C9.52471 33.2711 9.52471 34.2674 10.1382 34.8821L11.3882 36.1345C12.0021 36.7497 12.9979 36.7496 13.6117 36.1345L16.1637 33.5775ZM8.57216 2.59714C8.05325 3.74093 7.76406 5.01054 7.76406 6.34589C7.76406 8.50833 9.51952 10.2684 11.6797 10.2684H28.3203C30.4805 10.2684 32.2359 8.50842 32.2359 6.34589C32.2359 5.01055 31.9468 3.7409 31.4279 2.59714H32.3438C34.0606 2.59714 35.4594 3.99748 35.4594 5.71964V36.4828C35.4594 38.2049 34.0606 39.6054 32.3438 39.6054H7.65625C5.93939 39.6054 4.54063 38.2049 4.54063 36.4828V5.71964C4.54063 3.99755 5.93939 2.59714 7.65625 2.59714H8.57216ZM19.2188 35.3173H28.6719C29.5407 35.3173 30.2438 34.6118 30.2438 33.7432C30.2438 32.8745 29.5407 32.169 28.6719 32.169H19.2188C18.3499 32.169 17.6469 32.8745 17.6469 33.7432C17.6469 34.6118 18.3499 35.3173 19.2188 35.3173ZM19.2188 28.5854H28.6719C29.5407 28.5854 30.2438 27.8798 30.2438 27.0112C30.2438 26.1426 29.5407 25.4371 28.6719 25.4371H19.2188C18.3499 25.4371 17.6469 26.1426 17.6469 27.0112C17.6469 27.8798 18.3499 28.5854 19.2188 28.5854Z" fill="#FD6B22" stroke="#22215B" stroke-width="0.8"/>
<path d="M16.8359 0.4H23.1641C26.4318 0.4 29.0922 3.06455 29.0922 6.34055C29.0922 6.7688 28.7459 7.11469 28.3203 7.11469H11.6797C11.2541 7.11469 10.9078 6.7688 10.9078 6.34055C10.9078 3.06455 13.5682 0.4 16.8359 0.4Z" fill="#FD6B22" stroke="#22215B" stroke-width="0.8"/>
</g>
<defs>
<clipPath id="clip0_886_10251">
<rect width="40" height="40" fill="white"/>
</clipPath>
</defs>
</svg>
