<svg width="44" height="45" viewBox="0 0 44 45" fill="none" xmlns="http://www.w3.org/2000/svg">
<path d="M29.7691 0C30.0212 0 30.2735 0 30.5256 0C30.6666 0.0880294 30.8322 0.150822 30.9447 0.267916C31.8682 1.22978 32.7818 2.20181 33.6352 3.10387C32.4844 4.2955 31.314 5.50746 30.0962 6.76846C29.858 6.50425 29.6042 6.19638 29.3235 5.91723C28.7893 5.38594 28.008 5.3863 27.515 5.89917C27.0304 6.4033 27.0169 7.19114 27.5281 7.72745C28.7054 8.96261 29.8977 10.1829 31.0927 11.4C31.4229 11.7364 31.8353 11.8571 32.2924 11.7293C33.2385 11.4649 33.5395 10.3171 32.8598 9.55837C32.5802 9.2462 32.2813 8.95233 32.0315 8.69219C33.2409 7.44494 34.4057 6.24387 35.5737 5.03944C36.4643 5.94892 37.4005 6.86031 38.275 7.83067C38.482 8.06031 38.5522 8.48623 38.5595 8.82483C38.5691 9.26533 38.4529 9.70871 38.3914 10.151C37.8715 13.8884 37.347 17.6251 36.8381 21.3641C36.7708 21.8584 36.5969 22.2591 36.2512 22.6145C31.2149 27.7909 26.1871 32.9759 21.1501 38.1515C20.8353 38.4751 20.4881 38.7819 20.1111 39.0218C18.2421 40.2113 15.9574 39.8846 14.3143 38.2C11.7832 35.6048 9.26162 32.9998 6.73609 30.3988C4.98301 28.5935 3.22389 26.7944 1.47896 24.9809C-0.459347 22.9662 -0.502048 20.0707 1.40775 18.096C6.50804 12.8225 11.6223 7.56323 16.7454 2.31316C16.976 2.07682 17.3333 1.8912 17.6549 1.84168C20.8525 1.34974 24.0554 0.895245 27.2556 0.42113C28.0956 0.296621 28.9314 0.141254 29.7691 0ZM15.9089 30.7439C16.5237 30.7512 16.9427 30.4107 17.1751 29.6945C18.4596 25.7364 19.7411 21.7772 21.0237 17.8184C21.6916 15.7571 22.363 13.6969 23.0258 11.6339C23.3027 10.7718 22.9083 9.99923 22.1171 9.81982C21.457 9.6702 20.869 10.0784 20.6121 10.8721C19.0961 15.5542 17.5817 20.2368 16.0663 24.9191C15.629 26.2707 15.1811 27.6186 14.7548 28.9739C14.4666 29.8896 15.0281 30.7334 15.9089 30.7439ZM11.7472 24.1616C13.844 24.1697 15.5525 22.4233 15.5522 20.2724C15.5518 18.1482 13.8516 16.3885 11.7862 16.375C9.71923 16.3614 8.00549 18.1031 7.99152 20.2317C7.97733 22.4025 9.65059 24.1534 11.7472 24.1616ZM22.2564 20.2698C22.2551 22.4158 23.9275 24.1514 26.0064 24.1614C28.1096 24.1716 29.806 22.4394 29.8097 20.2777C29.8134 18.1295 28.0947 16.3621 26.014 16.3745C23.9445 16.3869 22.2575 18.1356 22.2564 20.2698Z" fill="#00C981"/>
<path d="M19.3457 44.3228C18.9081 44.1805 18.4569 44.0715 18.0358 43.8888C17.2324 43.54 16.5996 42.9666 16.0664 42.1551C16.3797 42.1971 16.6201 42.2338 16.8614 42.2609C19.1302 42.5159 21.1114 41.846 22.726 40.1924C27.8882 34.905 33.0267 29.593 38.1771 24.2935C38.9059 23.5436 39.2201 22.6219 39.3563 21.5912C39.7298 18.7656 40.133 15.9441 40.5452 12.9706C41.4263 14.2244 42.2381 15.3794 43.0499 16.5345C43.0499 24.4121 43.0499 32.2898 43.0499 40.1675C43.0248 40.2323 42.9886 40.2949 42.9762 40.3621C42.6665 42.0407 41.7478 43.2315 40.2418 43.9276C39.8536 44.107 39.4251 44.1935 39.0151 44.3227C32.4586 44.3228 25.9021 44.3228 19.3457 44.3228Z" fill="#00C981"/>
<path d="M37.6686 0C37.7471 0.0521478 37.8231 0.108841 37.9044 0.155726C38.6343 0.576616 38.8379 1.50942 38.2658 2.13603C37.3866 3.09897 36.4521 4.00821 35.5677 4.91302C34.9819 4.30973 34.4024 3.7129 33.8184 3.11141C34.7122 2.18196 35.6217 1.22894 36.5422 0.287411C36.6648 0.161945 36.8433 0.0943685 36.9959 0C37.2203 0 37.4444 0 37.6686 0Z" fill="#00C981"/>
<path d="M11.7268 21.5637C11.0381 21.5449 10.5006 20.9595 10.5139 20.2426C10.5268 19.5425 11.1125 18.958 11.7868 18.9723C12.4621 18.9867 13.0365 19.5919 13.0308 20.2833C13.0249 21.0044 12.4356 21.5829 11.7268 21.5637Z" fill="#00C981"/>
<path d="M25.9978 21.5639C25.3062 21.5497 24.7589 20.9573 24.7758 20.2413C24.7924 19.5319 25.3811 18.9499 26.0595 18.9722C26.7468 18.9948 27.3034 19.6003 27.2843 20.3048C27.2649 21.0201 26.6946 21.5784 25.9978 21.5639Z" fill="#00C981"/>
</svg>
