<svg width="118" height="32" viewBox="0 0 118 32" fill="none" xmlns="http://www.w3.org/2000/svg">
<path d="M0 16C0 7.16344 7.16344 0 16 0H118V32H16C7.16345 32 0 24.8366 0 16V16Z" fill="#EB2D22"/>
<path d="M34.1136 12.2727V21H33.0568V12.2727H34.1136ZM37.1019 17.0625V21H36.0962V14.4545H37.0678V15.4773H37.1531C37.3065 15.1449 37.5394 14.8778 37.8519 14.6761C38.1644 14.4716 38.5678 14.3693 39.0621 14.3693C39.5053 14.3693 39.8931 14.4602 40.2255 14.642C40.5579 14.821 40.8164 15.0938 41.0011 15.4602C41.1857 15.8239 41.2781 16.2841 41.2781 16.8409V21H40.2724V16.9091C40.2724 16.3949 40.1388 15.9943 39.8718 15.7074C39.6048 15.4176 39.2383 15.2727 38.7724 15.2727C38.4513 15.2727 38.1644 15.3423 37.9116 15.4815C37.6616 15.6207 37.4641 15.8239 37.3192 16.0909C37.1744 16.358 37.1019 16.6818 37.1019 17.0625ZM47.7521 15.9205L46.8487 16.1761C46.7919 16.0256 46.7081 15.8793 46.5973 15.7372C46.4893 15.5923 46.3416 15.473 46.1541 15.3793C45.9666 15.2855 45.7266 15.2386 45.4339 15.2386C45.0334 15.2386 44.6996 15.331 44.4325 15.5156C44.1683 15.6974 44.0362 15.929 44.0362 16.2102C44.0362 16.4602 44.1271 16.6577 44.3089 16.8026C44.4908 16.9474 44.7749 17.0682 45.1612 17.1648L46.1328 17.4034C46.718 17.5455 47.1541 17.7628 47.4411 18.0554C47.728 18.3452 47.8714 18.7187 47.8714 19.1761C47.8714 19.5511 47.7635 19.8864 47.5476 20.1818C47.3345 20.4773 47.0362 20.7102 46.6527 20.8807C46.2692 21.0511 45.8232 21.1364 45.3146 21.1364C44.647 21.1364 44.0945 20.9915 43.657 20.7017C43.2195 20.4119 42.9425 19.9886 42.826 19.4318L43.7805 19.1932C43.8714 19.5455 44.0433 19.8097 44.2962 19.9858C44.5518 20.1619 44.8857 20.25 45.2976 20.25C45.7663 20.25 46.1385 20.1506 46.4141 19.9517C46.6925 19.75 46.8317 19.5085 46.8317 19.2273C46.8317 19 46.7521 18.8097 46.593 18.6562C46.4339 18.5 46.1896 18.3835 45.8601 18.3068L44.7692 18.0511C44.1697 17.9091 43.7294 17.6889 43.4482 17.3906C43.1697 17.0895 43.0305 16.7131 43.0305 16.2614C43.0305 15.892 43.1342 15.5653 43.3416 15.2812C43.5518 14.9972 43.8374 14.7741 44.1982 14.6122C44.5618 14.4503 44.9737 14.3693 45.4339 14.3693C46.0817 14.3693 46.5902 14.5114 46.9595 14.7955C47.3317 15.0795 47.5959 15.4545 47.7521 15.9205ZM52.2319 14.4545V15.3068H48.8398V14.4545H52.2319ZM49.8285 12.8864H50.8342V19.125C50.8342 19.4091 50.8754 19.6222 50.9577 19.7642C51.043 19.9034 51.1509 19.9972 51.2816 20.0455C51.4151 20.0909 51.5558 20.1136 51.7035 20.1136C51.8143 20.1136 51.9052 20.108 51.9762 20.0966C52.0472 20.0824 52.104 20.071 52.1467 20.0625L52.3512 20.9659C52.283 20.9915 52.1879 21.017 52.0657 21.0426C51.9435 21.071 51.7887 21.0852 51.6012 21.0852C51.3171 21.0852 51.0387 21.0241 50.766 20.902C50.4961 20.7798 50.2717 20.5938 50.0927 20.3438C49.9165 20.0938 49.8285 19.7784 49.8285 19.3977V12.8864ZM55.6708 21.1534C55.256 21.1534 54.8796 21.0753 54.5415 20.919C54.2035 20.7599 53.935 20.5312 53.7362 20.233C53.5373 19.9318 53.4379 19.5682 53.4379 19.142C53.4379 18.767 53.5117 18.4631 53.6594 18.2301C53.8072 17.9943 54.0046 17.8097 54.2518 17.6761C54.4989 17.5426 54.7717 17.4432 55.07 17.3778C55.3711 17.3097 55.6737 17.2557 55.9776 17.2159C56.3754 17.1648 56.6978 17.1264 56.945 17.1009C57.195 17.0724 57.3768 17.0256 57.4904 16.9602C57.6069 16.8949 57.6651 16.7812 57.6651 16.6193V16.5852C57.6651 16.1648 57.5501 15.8381 57.32 15.6051C57.0927 15.3722 56.7475 15.2557 56.2844 15.2557C55.8043 15.2557 55.4279 15.3608 55.1552 15.571C54.8825 15.7812 54.6907 16.0057 54.5799 16.2443L53.6254 15.9034C53.7958 15.5057 54.0231 15.196 54.3072 14.9744C54.5941 14.75 54.9066 14.5937 55.2447 14.5057C55.5856 14.4148 55.9208 14.3693 56.2504 14.3693C56.4606 14.3693 56.7021 14.3949 56.9748 14.446C57.2504 14.4943 57.516 14.5952 57.7717 14.7486C58.0302 14.902 58.2447 15.1335 58.4151 15.4432C58.5856 15.7528 58.6708 16.1676 58.6708 16.6875V21H57.6651V20.1136H57.614C57.5458 20.2557 57.4322 20.4077 57.2731 20.5696C57.114 20.7315 56.9023 20.8693 56.6381 20.983C56.3739 21.0966 56.0515 21.1534 55.6708 21.1534ZM55.8242 20.25C56.2219 20.25 56.5572 20.1719 56.8299 20.0156C57.1055 19.8594 57.3129 19.6577 57.4521 19.4105C57.5941 19.1634 57.6651 18.9034 57.6651 18.6307V17.7102C57.6225 17.7614 57.5288 17.8082 57.3839 17.8509C57.2418 17.8906 57.0771 17.9261 56.8896 17.9574C56.7049 17.9858 56.5245 18.0114 56.3484 18.0341C56.1751 18.054 56.0344 18.071 55.9265 18.0852C55.6651 18.1193 55.4208 18.1747 55.1935 18.2514C54.9691 18.3253 54.7873 18.4375 54.6481 18.5881C54.5117 18.7358 54.4435 18.9375 54.4435 19.1932C54.4435 19.5426 54.5728 19.8068 54.8313 19.9858C55.0927 20.1619 55.4237 20.25 55.8242 20.25ZM63.1484 23.5909C62.6626 23.5909 62.245 23.5284 61.8956 23.4034C61.5462 23.2812 61.255 23.1193 61.022 22.9176C60.7919 22.7188 60.6087 22.5057 60.4723 22.2784L61.2734 21.7159C61.3643 21.8352 61.4794 21.9716 61.6186 22.125C61.7578 22.2812 61.9482 22.4162 62.1896 22.5298C62.4339 22.6463 62.7536 22.7045 63.1484 22.7045C63.6768 22.7045 64.1129 22.5767 64.4567 22.321C64.8004 22.0653 64.9723 21.6648 64.9723 21.1193V19.7898H64.8871C64.8132 19.9091 64.7081 20.0568 64.5717 20.233C64.4382 20.4062 64.245 20.5611 63.9922 20.6974C63.7422 20.831 63.4041 20.8977 62.978 20.8977C62.4496 20.8977 61.9751 20.7727 61.5547 20.5227C61.1371 20.2727 60.8061 19.9091 60.5618 19.4318C60.3203 18.9545 60.1996 18.375 60.1996 17.6932C60.1996 17.0227 60.3175 16.4389 60.5533 15.9418C60.7891 15.4418 61.1172 15.0554 61.5376 14.7827C61.9581 14.5071 62.4439 14.3693 62.995 14.3693C63.4212 14.3693 63.7592 14.4403 64.0092 14.5824C64.2621 14.7216 64.4553 14.8807 64.5888 15.0597C64.7251 15.2358 64.8303 15.3807 64.9041 15.4943H65.0064V14.4545H65.978V21.1875C65.978 21.75 65.8501 22.2074 65.5945 22.5597C65.3416 22.9148 65.0007 23.1747 64.5717 23.3395C64.1456 23.5071 63.6712 23.5909 63.1484 23.5909ZM63.1143 19.9943C63.5178 19.9943 63.8587 19.902 64.1371 19.7173C64.4155 19.5327 64.6271 19.267 64.772 18.9205C64.9169 18.5739 64.9893 18.1591 64.9893 17.6761C64.9893 17.2045 64.9183 16.7884 64.7763 16.4276C64.6342 16.0668 64.424 15.7841 64.1456 15.5795C63.8672 15.375 63.5234 15.2727 63.1143 15.2727C62.6882 15.2727 62.3331 15.3807 62.049 15.5966C61.7678 15.8125 61.5561 16.1023 61.4141 16.4659C61.2749 16.8295 61.2053 17.233 61.2053 17.6761C61.2053 18.1307 61.2763 18.5327 61.4183 18.8821C61.5632 19.2287 61.7763 19.5014 62.0575 19.7003C62.3416 19.8963 62.6939 19.9943 63.1143 19.9943ZM67.8189 21V14.4545H68.7905V15.4432H68.8587C68.978 15.1193 69.1939 14.8565 69.5064 14.6548C69.8189 14.4531 70.1712 14.3523 70.5632 14.3523C70.6371 14.3523 70.7294 14.3537 70.8402 14.3565C70.951 14.3594 71.0348 14.3636 71.0916 14.3693V15.392C71.0575 15.3835 70.9794 15.3707 70.8572 15.3537C70.7379 15.3338 70.6115 15.3239 70.478 15.3239C70.1598 15.3239 69.8757 15.3906 69.6257 15.5241C69.3786 15.6548 69.1825 15.8366 69.0376 16.0696C68.8956 16.2997 68.8246 16.5625 68.8246 16.858V21H67.8189ZM74.2099 21.1534C73.7951 21.1534 73.4187 21.0753 73.0806 20.919C72.7425 20.7599 72.4741 20.5312 72.2752 20.233C72.0763 19.9318 71.9769 19.5682 71.9769 19.142C71.9769 18.767 72.0508 18.4631 72.1985 18.2301C72.3462 17.9943 72.5437 17.8097 72.7908 17.6761C73.038 17.5426 73.3107 17.4432 73.609 17.3778C73.9102 17.3097 74.2127 17.2557 74.5167 17.2159C74.9144 17.1648 75.2369 17.1264 75.484 17.1009C75.734 17.0724 75.9158 17.0256 76.0295 16.9602C76.146 16.8949 76.2042 16.7812 76.2042 16.6193V16.5852C76.2042 16.1648 76.0891 15.8381 75.859 15.6051C75.6317 15.3722 75.2866 15.2557 74.8235 15.2557C74.3434 15.2557 73.967 15.3608 73.6942 15.571C73.4215 15.7812 73.2298 16.0057 73.119 16.2443L72.1644 15.9034C72.3349 15.5057 72.5621 15.196 72.8462 14.9744C73.1332 14.75 73.4457 14.5937 73.7837 14.5057C74.1246 14.4148 74.4599 14.3693 74.7894 14.3693C74.9996 14.3693 75.2411 14.3949 75.5138 14.446C75.7894 14.4943 76.055 14.5952 76.3107 14.7486C76.5692 14.902 76.7837 15.1335 76.9542 15.4432C77.1246 15.7528 77.2099 16.1676 77.2099 16.6875V21H76.2042V20.1136H76.1531C76.0849 20.2557 75.9712 20.4077 75.8121 20.5696C75.6531 20.7315 75.4414 20.8693 75.1772 20.983C74.913 21.0966 74.5906 21.1534 74.2099 21.1534ZM74.3633 20.25C74.761 20.25 75.0962 20.1719 75.369 20.0156C75.6445 19.8594 75.8519 19.6577 75.9911 19.4105C76.1332 19.1634 76.2042 18.9034 76.2042 18.6307V17.7102C76.1616 17.7614 76.0678 17.8082 75.9229 17.8509C75.7809 17.8906 75.6161 17.9261 75.4286 17.9574C75.244 17.9858 75.0636 18.0114 74.8874 18.0341C74.7141 18.054 74.5735 18.071 74.4656 18.0852C74.2042 18.1193 73.9599 18.1747 73.7326 18.2514C73.5082 18.3253 73.3263 18.4375 73.1871 18.5881C73.0508 18.7358 72.9826 18.9375 72.9826 19.1932C72.9826 19.5426 73.1119 19.8068 73.3704 19.9858C73.6317 20.1619 73.9627 20.25 74.3633 20.25ZM79.0455 21V14.4545H80.017V15.4773H80.1023C80.2386 15.1278 80.4588 14.8565 80.7628 14.6634C81.0668 14.4673 81.4318 14.3693 81.858 14.3693C82.2898 14.3693 82.6491 14.4673 82.9361 14.6634C83.2259 14.8565 83.4517 15.1278 83.6136 15.4773H83.6818C83.8494 15.1392 84.1009 14.8707 84.4361 14.6719C84.7713 14.4702 85.1733 14.3693 85.642 14.3693C86.2273 14.3693 86.706 14.5526 87.0781 14.919C87.4503 15.2827 87.6364 15.8494 87.6364 16.6193V21H86.6307V16.6193C86.6307 16.1364 86.4986 15.7912 86.2344 15.5838C85.9702 15.3764 85.6591 15.2727 85.3011 15.2727C84.8409 15.2727 84.4844 15.4119 84.2315 15.6903C83.9787 15.9659 83.8523 16.3153 83.8523 16.7386V21H82.8295V16.517C82.8295 16.1449 82.7088 15.8452 82.4673 15.6179C82.2259 15.3878 81.9148 15.2727 81.5341 15.2727C81.2727 15.2727 81.0284 15.3423 80.8011 15.4815C80.5767 15.6207 80.3949 15.8139 80.2557 16.0611C80.1193 16.3054 80.0511 16.5881 80.0511 16.9091V21H79.0455Z" fill="white"/>
<rect x="11" y="8" width="14" height="14" rx="6" fill="url(#paint0_radial_312_2819)"/>
<rect x="11" y="8" width="14" height="14" rx="6" fill="url(#paint1_radial_312_2819)"/>
<rect x="11" y="8" width="14" height="14" rx="6" fill="white"/>
<path d="M21.5 12.25C21.5 12.6642 21.1642 13 20.75 13C20.3358 13 20 12.6642 20 12.25C20 11.8358 20.3358 11.5 20.75 11.5C21.1642 11.5 21.5 11.8358 21.5 12.25Z" fill="#EB5C4C"/>
<path fill-rule="evenodd" clip-rule="evenodd" d="M18 17.5C19.3807 17.5 20.5 16.3807 20.5 15C20.5 13.6193 19.3807 12.5 18 12.5C16.6193 12.5 15.5 13.6193 15.5 15C15.5 16.3807 16.6193 17.5 18 17.5ZM18 16.5C18.8284 16.5 19.5 15.8284 19.5 15C19.5 14.1716 18.8284 13.5 18 13.5C17.1716 13.5 16.5 14.1716 16.5 15C16.5 15.8284 17.1716 16.5 18 16.5Z" fill="#EB5C4C"/>
<path fill-rule="evenodd" clip-rule="evenodd" d="M13 14.8C13 13.1198 13 12.2798 13.327 11.638C13.6146 11.0735 14.0735 10.6146 14.638 10.327C15.2798 10 16.1198 10 17.8 10H18.2C19.8802 10 20.7202 10 21.362 10.327C21.9265 10.6146 22.3854 11.0735 22.673 11.638C23 12.2798 23 13.1198 23 14.8V15.2C23 16.8802 23 17.7202 22.673 18.362C22.3854 18.9265 21.9265 19.3854 21.362 19.673C20.7202 20 19.8802 20 18.2 20H17.8C16.1198 20 15.2798 20 14.638 19.673C14.0735 19.3854 13.6146 18.9265 13.327 18.362C13 17.7202 13 16.8802 13 15.2V14.8ZM17.8 11H18.2C19.0566 11 19.6389 11.0008 20.089 11.0376C20.5274 11.0734 20.7516 11.1383 20.908 11.218C21.2843 11.4097 21.5903 11.7157 21.782 12.092C21.8617 12.2484 21.9266 12.4726 21.9624 12.911C21.9992 13.3611 22 13.9434 22 14.8V15.2C22 16.0566 21.9992 16.6389 21.9624 17.089C21.9266 17.5274 21.8617 17.7516 21.782 17.908C21.5903 18.2843 21.2843 18.5903 20.908 18.782C20.7516 18.8617 20.5274 18.9266 20.089 18.9624C19.6389 18.9992 19.0566 19 18.2 19H17.8C16.9434 19 16.3611 18.9992 15.911 18.9624C15.4726 18.9266 15.2484 18.8617 15.092 18.782C14.7157 18.5903 14.4097 18.2843 14.218 17.908C14.1383 17.7516 14.0734 17.5274 14.0376 17.089C14.0008 16.6389 14 16.0566 14 15.2V14.8C14 13.9434 14.0008 13.3611 14.0376 12.911C14.0734 12.4726 14.1383 12.2484 14.218 12.092C14.4097 11.7157 14.7157 11.4097 15.092 11.218C15.2484 11.1383 15.4726 11.0734 15.911 11.0376C16.3611 11.0008 16.9434 11 17.8 11Z" fill="#EB5C4C"/>
<defs>
<radialGradient id="paint0_radial_312_2819" cx="0" cy="0" r="1" gradientUnits="userSpaceOnUse" gradientTransform="translate(16 18.5) rotate(-55.3758) scale(12.7598)">
<stop stop-color="#B13589"/>
<stop offset="0.79309" stop-color="#C62F94"/>
<stop offset="1" stop-color="#8A3AC8"/>
</radialGradient>
<radialGradient id="paint1_radial_312_2819" cx="0" cy="0" r="1" gradientUnits="userSpaceOnUse" gradientTransform="translate(15.5 22.5) rotate(-65.1363) scale(11.2971)">
<stop stop-color="#E0E8B7"/>
<stop offset="0.444662" stop-color="#FB8A2E"/>
<stop offset="0.71474" stop-color="#E2425C"/>
<stop offset="1" stop-color="#E2425C" stop-opacity="0"/>
</radialGradient>
</defs>
</svg>
