<svg width="118" height="32" viewBox="0 0 118 32" fill="none" xmlns="http://www.w3.org/2000/svg">
<path d="M0 16C0 7.16344 7.16344 0 16 0H118V32H16C7.16345 32 0 24.8366 0 16V16Z" fill="#4EC95C"/>
<path fill-rule="evenodd" clip-rule="evenodd" d="M18 23.5C21.866 23.5 25 20.366 25 16.5C25 12.634 21.866 9.5 18 9.5C14.134 9.5 11 12.634 11 16.5C11 17.7554 11.3305 18.9337 11.9092 19.9525L11 23.5L14.6574 22.6519C15.6507 23.1927 16.7895 23.5 18 23.5ZM18 22.4231C21.2712 22.4231 23.9231 19.7712 23.9231 16.5C23.9231 13.2288 21.2712 10.5769 18 10.5769C14.7288 10.5769 12.0769 13.2288 12.0769 16.5C12.0769 17.763 12.4723 18.9337 13.1459 19.8951L12.6154 21.8846L14.64 21.3785C15.5947 22.0373 16.7523 22.4231 18 22.4231Z" fill="#BFC8D0"/>
<path d="M24 16C24 19.3137 21.3137 22 18 22C16.7361 22 15.5634 21.6092 14.5963 20.9418L12.5455 21.4545L13.0829 19.4392C12.4005 18.4653 12 17.2794 12 16C12 12.6863 14.6863 10 18 10C21.3137 10 24 12.6863 24 16Z" fill="white"/>
<path fill-rule="evenodd" clip-rule="evenodd" d="M18 23C21.866 23 25 19.866 25 16C25 12.134 21.866 9 18 9C14.134 9 11 12.134 11 16C11 17.2554 11.3305 18.4337 11.9092 19.4525L11 23L14.6574 22.1519C15.6507 22.6927 16.7895 23 18 23ZM18 21.9231C21.2712 21.9231 23.9231 19.2712 23.9231 16C23.9231 12.7288 21.2712 10.0769 18 10.0769C14.7288 10.0769 12.0769 12.7288 12.0769 16C12.0769 17.263 12.4723 18.4337 13.1459 19.3951L12.6154 21.3846L14.64 20.8785C15.5947 21.5373 16.7523 21.9231 18 21.9231Z" fill="white"/>
<path d="M16.25 12.7499C16.0836 12.4157 15.8283 12.4452 15.5703 12.4452C15.1094 12.4452 14.3906 12.9974 14.3906 14.025C14.3906 14.8671 14.7617 15.789 16.0122 17.1681C17.219 18.4989 18.8047 19.1874 20.1211 19.164C21.4375 19.1405 21.7083 18.0077 21.7083 17.6252C21.7083 17.4556 21.6031 17.371 21.5306 17.348C21.082 17.1327 20.2547 16.7316 20.0664 16.6562C19.8782 16.5808 19.7799 16.6828 19.7188 16.7382C19.548 16.9009 19.2096 17.3804 19.0938 17.4882C18.9779 17.5961 18.8051 17.5415 18.7333 17.5007C18.4687 17.3946 17.7515 17.0755 17.1797 16.5213C16.4727 15.8359 16.4312 15.6001 16.298 15.3902C16.1914 15.2222 16.2696 15.1192 16.3086 15.0742C16.4609 14.8984 16.6713 14.627 16.7656 14.4921C16.86 14.3573 16.7851 14.1525 16.7401 14.025C16.5469 13.4765 16.3832 13.0174 16.25 12.7499Z" fill="#4EC95C"/>
<path d="M34.642 20L32.2557 11.2727H33.3295L35.1534 18.3807H35.2386L37.0966 11.2727H38.2898L40.1477 18.3807H40.233L42.0568 11.2727H43.1307L40.7443 20H39.6534L37.7273 13.0455H37.6591L35.733 20H34.642ZM45.3168 16.0625V20H44.3111V11.2727H45.3168V14.4773H45.402C45.5554 14.1392 45.7855 13.8707 46.0923 13.6719C46.402 13.4702 46.8139 13.3693 47.3281 13.3693C47.7741 13.3693 48.1648 13.4588 48.5 13.6378C48.8352 13.8139 49.0952 14.0852 49.2798 14.4517C49.4673 14.8153 49.5611 15.2784 49.5611 15.8409V20H48.5554V15.9091C48.5554 15.3892 48.4205 14.9872 48.1506 14.7031C47.8835 14.4162 47.5128 14.2727 47.0384 14.2727C46.7088 14.2727 46.4134 14.3423 46.152 14.4815C45.8935 14.6207 45.6889 14.8239 45.5384 15.0909C45.3906 15.358 45.3168 15.6818 45.3168 16.0625ZM53.3271 20.1534C52.9123 20.1534 52.5359 20.0753 52.1978 19.919C51.8597 19.7599 51.5913 19.5312 51.3924 19.233C51.1935 18.9318 51.0941 18.5682 51.0941 18.142C51.0941 17.767 51.168 17.4631 51.3157 17.2301C51.4634 16.9943 51.6609 16.8097 51.908 16.6761C52.1552 16.5426 52.4279 16.4432 52.7262 16.3778C53.0273 16.3097 53.3299 16.2557 53.6339 16.2159C54.0316 16.1648 54.354 16.1264 54.6012 16.1009C54.8512 16.0724 55.033 16.0256 55.1467 15.9602C55.2631 15.8949 55.3214 15.7812 55.3214 15.6193V15.5852C55.3214 15.1648 55.2063 14.8381 54.9762 14.6051C54.7489 14.3722 54.4038 14.2557 53.9407 14.2557C53.4606 14.2557 53.0842 14.3608 52.8114 14.571C52.5387 14.7812 52.3469 15.0057 52.2362 15.2443L51.2816 14.9034C51.4521 14.5057 51.6793 14.196 51.9634 13.9744C52.2504 13.75 52.5629 13.5937 52.9009 13.5057C53.2418 13.4148 53.5771 13.3693 53.9066 13.3693C54.1168 13.3693 54.3583 13.3949 54.631 13.446C54.9066 13.4943 55.1722 13.5952 55.4279 13.7486C55.6864 13.902 55.9009 14.1335 56.0714 14.4432C56.2418 14.7528 56.3271 15.1676 56.3271 15.6875V20H55.3214V19.1136H55.2702C55.2021 19.2557 55.0884 19.4077 54.9293 19.5696C54.7702 19.7315 54.5586 19.8693 54.2944 19.983C54.0302 20.0966 53.7077 20.1534 53.3271 20.1534ZM53.4805 19.25C53.8782 19.25 54.2134 19.1719 54.4862 19.0156C54.7617 18.8594 54.9691 18.6577 55.1083 18.4105C55.2504 18.1634 55.3214 17.9034 55.3214 17.6307V16.7102C55.2788 16.7614 55.185 16.8082 55.0401 16.8509C54.8981 16.8906 54.7333 16.9261 54.5458 16.9574C54.3612 16.9858 54.1808 17.0114 54.0046 17.0341C53.8313 17.054 53.6907 17.071 53.5827 17.0852C53.3214 17.1193 53.0771 17.1747 52.8498 17.2514C52.6254 17.3253 52.4435 17.4375 52.3043 17.5881C52.168 17.7358 52.0998 17.9375 52.0998 18.1932C52.0998 18.5426 52.229 18.8068 52.4876 18.9858C52.7489 19.1619 53.0799 19.25 53.4805 19.25ZM61.0092 13.4545V14.3068H57.6172V13.4545H61.0092ZM58.6058 11.8864H59.6115V18.125C59.6115 18.4091 59.6527 18.6222 59.7351 18.7642C59.8203 18.9034 59.9283 18.9972 60.0589 19.0455C60.1925 19.0909 60.3331 19.1136 60.4808 19.1136C60.5916 19.1136 60.6825 19.108 60.7536 19.0966C60.8246 19.0824 60.8814 19.071 60.924 19.0625L61.1286 19.9659C61.0604 19.9915 60.9652 20.017 60.843 20.0426C60.7209 20.071 60.5661 20.0852 60.3786 20.0852C60.0945 20.0852 59.8161 20.0241 59.5433 19.902C59.2734 19.7798 59.049 19.5938 58.87 19.3438C58.6939 19.0938 58.6058 18.7784 58.6058 18.3977V11.8864ZM67.0412 14.9205L66.1378 15.1761C66.081 15.0256 65.9972 14.8793 65.8864 14.7372C65.7784 14.5923 65.6307 14.473 65.4432 14.3793C65.2557 14.2855 65.0156 14.2386 64.723 14.2386C64.3224 14.2386 63.9886 14.331 63.7216 14.5156C63.4574 14.6974 63.3253 14.929 63.3253 15.2102C63.3253 15.4602 63.4162 15.6577 63.598 15.8026C63.7798 15.9474 64.0639 16.0682 64.4503 16.1648L65.4219 16.4034C66.0071 16.5455 66.4432 16.7628 66.7301 17.0554C67.017 17.3452 67.1605 17.7187 67.1605 18.1761C67.1605 18.5511 67.0526 18.8864 66.8366 19.1818C66.6236 19.4773 66.3253 19.7102 65.9418 19.8807C65.5582 20.0511 65.1122 20.1364 64.6037 20.1364C63.9361 20.1364 63.3835 19.9915 62.946 19.7017C62.5085 19.4119 62.2315 18.9886 62.1151 18.4318L63.0696 18.1932C63.1605 18.5455 63.3324 18.8097 63.5852 18.9858C63.8409 19.1619 64.1747 19.25 64.5866 19.25C65.0554 19.25 65.4276 19.1506 65.7031 18.9517C65.9815 18.75 66.1207 18.5085 66.1207 18.2273C66.1207 18 66.0412 17.8097 65.8821 17.6562C65.723 17.5 65.4787 17.3835 65.1491 17.3068L64.0582 17.0511C63.4588 16.9091 63.0185 16.6889 62.7372 16.3906C62.4588 16.0895 62.3196 15.7131 62.3196 15.2614C62.3196 14.892 62.4233 14.5653 62.6307 14.2812C62.8409 13.9972 63.1264 13.7741 63.4872 13.6122C63.8509 13.4503 64.2628 13.3693 64.723 13.3693C65.3707 13.3693 65.8793 13.5114 66.2486 13.7955C66.6207 14.0795 66.8849 14.4545 67.0412 14.9205ZM69.1687 20H68.0607L71.2653 11.2727H72.3562L75.5607 20H74.4528L71.8448 12.6534H71.7766L69.1687 20ZM69.5778 16.5909H74.0437V17.5284H69.5778V16.5909ZM76.7837 22.4545V13.4545H77.7553V14.4943H77.8746C77.9485 14.3807 78.0508 14.2358 78.1815 14.0597C78.315 13.8807 78.5053 13.7216 78.7525 13.5824C79.0025 13.4403 79.3406 13.3693 79.7667 13.3693C80.3178 13.3693 80.8036 13.5071 81.2241 13.7827C81.6445 14.0582 81.9727 14.4489 82.2085 14.9545C82.4442 15.4602 82.5621 16.0568 82.5621 16.7443C82.5621 17.4375 82.4442 18.0384 82.2085 18.5469C81.9727 19.0526 81.646 19.4446 81.2283 19.723C80.8107 19.9986 80.3292 20.1364 79.7837 20.1364C79.3633 20.1364 79.0266 20.0668 78.7738 19.9276C78.521 19.7855 78.3263 19.625 78.19 19.446C78.0536 19.2642 77.9485 19.1136 77.8746 18.9943H77.7894V22.4545H76.7837ZM77.7724 16.7273C77.7724 17.2216 77.8448 17.6577 77.9897 18.0355C78.1346 18.4105 78.3462 18.7045 78.6246 18.9176C78.9031 19.1278 79.244 19.233 79.6474 19.233C80.0678 19.233 80.4187 19.1222 80.6999 18.9006C80.984 18.6761 81.1971 18.375 81.3391 17.9972C81.484 17.6165 81.5565 17.1932 81.5565 16.7273C81.5565 16.267 81.4854 15.8523 81.3434 15.483C81.2042 15.1108 80.9925 14.8168 80.7085 14.6009C80.4272 14.3821 80.0735 14.2727 79.6474 14.2727C79.2383 14.2727 78.8945 14.3764 78.6161 14.5838C78.3377 14.7884 78.1275 15.0753 77.9854 15.4446C77.8434 15.8111 77.7724 16.2386 77.7724 16.7273ZM84.0962 22.4545V13.4545H85.0678V14.4943H85.1871C85.261 14.3807 85.3633 14.2358 85.494 14.0597C85.6275 13.8807 85.8178 13.7216 86.065 13.5824C86.315 13.4403 86.6531 13.3693 87.0792 13.3693C87.6303 13.3693 88.1161 13.5071 88.5366 13.7827C88.957 14.0582 89.2852 14.4489 89.521 14.9545C89.7567 15.4602 89.8746 16.0568 89.8746 16.7443C89.8746 17.4375 89.7567 18.0384 89.521 18.5469C89.2852 19.0526 88.9585 19.4446 88.5408 19.723C88.1232 19.9986 87.6417 20.1364 87.0962 20.1364C86.6758 20.1364 86.3391 20.0668 86.0863 19.9276C85.8335 19.7855 85.6388 19.625 85.5025 19.446C85.3661 19.2642 85.261 19.1136 85.1871 18.9943H85.1019V22.4545H84.0962ZM85.0849 16.7273C85.0849 17.2216 85.1573 17.6577 85.3022 18.0355C85.4471 18.4105 85.6587 18.7045 85.9371 18.9176C86.2156 19.1278 86.5565 19.233 86.9599 19.233C87.3803 19.233 87.7312 19.1222 88.0124 18.9006C88.2965 18.6761 88.5096 18.375 88.6516 17.9972C88.7965 17.6165 88.869 17.1932 88.869 16.7273C88.869 16.267 88.7979 15.8523 88.6559 15.483C88.5167 15.1108 88.305 14.8168 88.021 14.6009C87.7397 14.3821 87.386 14.2727 86.9599 14.2727C86.5508 14.2727 86.207 14.3764 85.9286 14.5838C85.6502 14.7884 85.44 15.0753 85.2979 15.4446C85.1559 15.8111 85.0849 16.2386 85.0849 16.7273Z" fill="white"/>
</svg>
