<svg width="21" height="20" viewBox="0 0 21 20" fill="none" xmlns="http://www.w3.org/2000/svg">
<path d="M16.3333 9.16699C16.3333 8.48574 16.3333 7.85916 16.2065 7.55288C16.0796 7.24659 15.8387 7.00573 15.357 6.52402L11.4099 2.57689C10.9942 2.16116 10.7863 1.95328 10.5287 1.83012C10.4752 1.80449 10.4203 1.78176 10.3643 1.762C10.0951 1.66699 9.80117 1.66699 9.21317 1.66699C6.50902 1.66699 5.15692 1.66699 4.24111 2.40538C4.05609 2.55456 3.88757 2.72308 3.73839 2.9081C3 3.82392 3 5.17601 3 7.88019V11.667C3 14.8097 3 16.3811 3.97631 17.3573C4.95262 18.3337 6.52397 18.3337 9.66667 18.3337H16.3333M10.5 2.08366V2.50033C10.5 4.85735 10.5 6.03586 11.2323 6.76809C11.9645 7.50033 13.143 7.50033 15.5 7.50033H15.9167" stroke="white" stroke-width="1.5" stroke-linecap="round" stroke-linejoin="round"/>
<path d="M18.0007 11.666H16.334C15.8737 11.666 15.5007 12.0391 15.5007 12.4993V13.7493M15.5007 13.7493V15.8327M15.5007 13.7493H17.584M6.33398 15.8327V14.166M6.33398 14.166V11.666H7.58398C8.27434 11.666 8.83398 12.2257 8.83398 12.916C8.83398 13.6063 8.27434 14.166 7.58398 14.166H6.33398ZM10.9173 11.666H11.9887C12.7777 11.666 13.4173 12.2878 13.4173 13.0549V14.4438C13.4173 15.2108 12.7777 15.8327 11.9887 15.8327H10.9173V11.666Z" stroke="white" stroke-width="1.5" stroke-linecap="round" stroke-linejoin="round"/>
</svg>
