<svg width="21" height="20" viewBox="0 0 21 20" fill="none" xmlns="http://www.w3.org/2000/svg">
<path d="M6.62765 14.9993C4.85838 14.9993 3.97375 14.9993 3.34393 14.6217C2.93229 14.3748 2.60067 14.0219 2.38664 13.6028C2.05918 12.9616 2.1472 12.1138 2.32325 10.4181C2.47021 9.0026 2.54369 8.29481 2.90505 7.77502C3.14229 7.43376 3.46318 7.15405 3.83933 6.96062C4.41225 6.66602 5.15072 6.66602 6.62765 6.66602H14.371C15.848 6.66602 16.5864 6.66602 17.1594 6.96062C17.5355 7.15405 17.8564 7.43376 18.0937 7.77502C18.455 8.29481 18.5285 9.0026 18.6754 10.4181C18.8515 12.1138 18.9395 12.9616 18.612 13.6028C18.398 14.0219 18.0664 14.3748 17.6548 14.6217C17.0249 14.9993 16.1404 14.9993 14.371 14.9993" stroke="white" stroke-width="1.5"/>
<path d="M14.6673 6.66602V4.99935C14.6673 3.428 14.6673 2.64232 14.1792 2.15417C13.691 1.66602 12.9053 1.66602 11.334 1.66602H9.66732C8.09597 1.66602 7.31029 1.66602 6.82214 2.15417C6.33398 2.64232 6.33398 3.428 6.33398 4.99935V6.66602" stroke="white" stroke-width="1.5" stroke-linejoin="round"/>
<path d="M12.1579 13.334H8.8434C8.27234 13.334 7.98679 13.334 7.74384 13.4247C7.41991 13.5457 7.14254 13.7807 6.95582 14.0922C6.81578 14.326 6.74653 14.6266 6.60802 15.2277C6.39159 16.1669 6.28339 16.6365 6.35698 17.0131C6.45511 17.5152 6.76096 17.9402 7.18609 18.1652C7.50493 18.334 7.95109 18.334 8.8434 18.334H12.1579C13.0502 18.334 13.4964 18.334 13.8152 18.1652C14.2403 17.9402 14.5462 17.5152 14.6443 17.0131C14.7179 16.6365 14.6097 16.1669 14.3933 15.2277C14.2548 14.6266 14.1855 14.326 14.0455 14.0922C13.8587 13.7807 13.5814 13.5457 13.2575 13.4247C13.0145 13.334 12.729 13.334 12.1579 13.334Z" stroke="white" stroke-width="1.5" stroke-linejoin="round"/>
<path d="M15.5 10H15.5075" stroke="white" stroke-width="2" stroke-linecap="round" stroke-linejoin="round"/>
</svg>
