<svg width="49" height="30" viewBox="0 0 49 30" fill="none" xmlns="http://www.w3.org/2000/svg">
<path d="M48.4839 0H0.516602V30H48.4839V0Z" fill="#509E2F"/>
<path d="M48.4839 0H0.516602V20H48.4839V0Z" fill="#EF3340"/>
<path d="M48.4839 0H0.516602V10H48.4839V0Z" fill="#00B5E2"/>
<path d="M23.3012 19.5C25.288 19.5 26.8987 17.4853 26.8987 15C26.8987 12.5147 25.288 10.5 23.3012 10.5C21.3143 10.5 19.7036 12.5147 19.7036 15C19.7036 17.4853 21.3143 19.5 23.3012 19.5Z" fill="white"/>
<path d="M24.1005 18.75C25.7562 18.75 27.0984 17.0711 27.0984 15C27.0984 12.9289 25.7562 11.25 24.1005 11.25C22.4448 11.25 21.1025 12.9289 21.1025 15C21.1025 17.0711 22.4448 18.75 24.1005 18.75Z" fill="#EF3340"/>
<path d="M27.2984 12.5L27.6809 13.8452L28.7117 13.2322L28.2217 14.5217L29.2971 15L28.2217 15.4783L28.7117 16.7678L27.6809 16.1548L27.2984 17.5L26.916 16.1548L25.8852 16.7678L26.3752 15.4783L25.2998 15L26.3752 14.5217L25.8852 13.2322L26.916 13.8452L27.2984 12.5Z" fill="white"/>
</svg>
