<svg width="49" height="30" viewBox="0 0 49 30" fill="none" xmlns="http://www.w3.org/2000/svg">
<path d="M44.022 0H4.97803C2.76889 0 0.978027 1.79086 0.978027 4V26C0.978027 28.2091 2.76889 30 4.97803 30H44.022C46.2312 30 48.022 28.2091 48.022 26V4C48.022 1.79086 46.2312 0 44.022 0Z" fill="#DE2910"/>
<path d="M7.83512 7.40918C8.06769 6.67928 9.1005 6.67928 9.33307 7.40918C9.43696 7.73523 9.74154 7.95661 10.0837 7.95661C10.8528 7.95661 11.1649 8.95162 10.5472 9.40986C10.2725 9.61369 10.1532 9.97296 10.257 10.2989L10.2691 10.3369C10.5009 11.0642 9.66581 11.6627 9.05152 11.2095C8.77362 11.0045 8.39457 11.0045 8.11668 11.2095C7.50239 11.6627 6.66731 11.0642 6.89907 10.3369L6.91118 10.2989C7.01503 9.97296 6.8957 9.61369 6.62096 9.40986C6.0033 8.95162 6.31537 7.95661 7.08446 7.95661C7.42666 7.95661 7.73123 7.73523 7.83512 7.40918Z" fill="#FFEA00"/>
<path d="M16.932 3.22357C17.1015 3.0254 17.4265 3.15848 17.4065 3.41852L17.4055 3.43127C17.3966 3.547 17.4624 3.65577 17.5689 3.70187C17.8089 3.8057 17.7764 4.15665 17.5218 4.2162C17.4086 4.24269 17.3248 4.34092 17.3159 4.45688C17.296 4.71406 16.9571 4.79925 16.8246 4.57797C16.7654 4.47927 16.6483 4.43031 16.5363 4.45651C16.2813 4.51617 16.0933 4.21725 16.2623 4.01716L16.2725 4.00508C16.3474 3.91646 16.3576 3.79007 16.298 3.69057L16.2916 3.67989C16.1588 3.45819 16.3867 3.19584 16.6248 3.2963C16.732 3.34153 16.8563 3.31197 16.932 3.22357Z" fill="#FFEA00"/>
<path d="M19.9763 7.00434C19.9442 6.74798 20.2602 6.60165 20.4349 6.79201C20.5139 6.87812 20.6405 6.90211 20.7458 6.85143C20.9805 6.73852 21.2249 6.99044 21.102 7.22004L21.0959 7.23145C21.0414 7.3333 21.0572 7.45849 21.1353 7.54361L21.1429 7.55195C21.3185 7.74324 21.1455 8.04718 20.891 7.99592C20.776 7.97278 20.6592 8.0276 20.6039 8.13095C20.4816 8.35923 20.1381 8.29337 20.1056 8.03649C20.0912 7.92287 20.0043 7.83026 19.892 7.80765C19.6351 7.75591 19.5878 7.40442 19.8249 7.29291C19.9303 7.24336 19.9922 7.13144 19.9777 7.01589L19.9763 7.00434Z" fill="#FFEA00"/>
<path d="M20.2409 11.9823C20.3218 11.7331 20.6751 11.733 20.7559 11.9822C20.7918 12.0928 20.8949 12.1679 21.0112 12.1679C21.2703 12.1679 21.3725 12.5035 21.1637 12.657C21.0697 12.7261 21.0289 12.8487 21.0646 12.9598L21.07 12.9767C21.1493 13.2237 20.8654 13.4272 20.6564 13.2736C20.5625 13.2046 20.4346 13.2045 20.3407 13.2735C20.1322 13.4268 19.8518 13.2163 19.9316 12.9702C19.9674 12.8599 19.929 12.7375 19.8356 12.6688L19.8261 12.6619C19.6152 12.5068 19.7239 12.1725 19.9857 12.1699C20.1021 12.1687 20.205 12.093 20.2409 11.9823Z" fill="#FFEA00"/>
<path d="M16.9086 15.4987C17.0718 15.297 17.3973 15.4301 17.3823 15.6891C17.3756 15.8043 17.4443 15.9133 17.5512 15.9568C17.7922 16.0548 17.7732 16.4061 17.5212 16.4709C17.4083 16.4999 17.3267 16.6002 17.32 16.7166C17.3052 16.9753 16.9662 17.0682 16.8295 16.8482C16.7678 16.749 16.6483 16.7018 16.5355 16.732C16.2858 16.7986 16.0957 16.5074 16.2582 16.3065L16.2662 16.2967C16.3391 16.2066 16.3466 16.0801 16.2849 15.982L16.2774 15.97C16.1397 15.751 16.3623 15.4837 16.6027 15.5789C16.7113 15.6219 16.8352 15.5894 16.9086 15.4987Z" fill="#FFEA00"/>
</svg>
