<svg width="50" height="32" viewBox="0 0 50 32" fill="none" xmlns="http://www.w3.org/2000/svg">
<path d="M48.5385 27.2718C49.1459 27.6526 49.5147 28.3191 49.5147 29.0359V31.1076C49.5147 31.1134 49.51 31.1181 49.5042 31.1181H45.4983C44.7465 31.1181 44.0099 30.9062 43.373 30.5067L29.1607 21.5932L27.6337 20.6302L25.8451 19.5103L25.2385 19.1335L23.4185 17.9821L22.7282 17.553L22.1634 17.1971L21.0129 16.4854L20.6363 16.2446L20.082 15.8992L14.685 12.5079L12.2584 10.9798L1.77179 4.4075C0.66938 3.71659 0 2.50709 0 1.20607V0.0803223C0 0.0688976 0.00337981 0.057728 0.00971397 0.0482199C0.0274519 0.021594 0.0634219 0.0144 0.0900361 0.0321555L0.114095 0.0482065C0.12836 0.0577228 0.145123 0.0628014 0.16227 0.0628014H4.00544C4.75753 0.0628014 5.4944 0.27484 6.13146 0.674586L20.6363 9.77608L22.1634 10.7286L22.5713 10.9798L24.9979 12.5079L25.2385 12.6649L26.1694 13.2406L27.6337 14.1617L27.8847 14.3187L29.1607 15.1247L30.3949 15.8992L33.7315 17.9821L36.1581 19.5103L48.5385 27.2718Z" fill="#FCF5FF"/>
<path d="M45.753 20.8574H3.03516C1.93059 20.8574 1.03516 21.7529 1.03516 22.8574V28.8607C1.03516 29.9653 1.93059 30.8607 3.03516 30.8607H45.753C46.8576 30.8607 47.753 29.9653 47.753 28.8607V22.8574C47.753 21.7529 46.8576 20.8574 45.753 20.8574Z" fill="#399565"/>
<path d="M43.753 10.8545H5.03516C2.82602 10.8545 1.03516 12.6454 1.03516 14.8545V16.8578C1.03516 19.067 2.82602 20.8578 5.03516 20.8578H43.753C45.9621 20.8578 47.753 19.067 47.753 16.8578V14.8545C47.753 12.6454 45.9621 10.8545 43.753 10.8545Z" fill="white"/>
<path d="M45.753 0.861328H3.03516C1.93059 0.861328 1.03516 1.75676 1.03516 2.86133V8.86464C1.03516 9.96921 1.93059 10.8646 3.03516 10.8646H45.753C46.8576 10.8646 47.753 9.96922 47.753 8.86465V2.86133C47.753 1.75676 46.8576 0.861328 45.753 0.861328Z" fill="#FF9933"/>
<path d="M23.1424 11.3262C22.5578 11.3262 21.979 11.4435 21.439 11.6713C20.8991 11.8991 20.4086 12.233 19.9957 12.6538C19.5828 13.0746 19.2556 13.5742 19.0328 14.1238C18.81 14.6734 18.696 15.2623 18.6973 15.8568C18.6973 17.0557 19.1656 18.2055 19.9992 19.0532C20.8328 19.901 21.9635 20.3773 23.1424 20.3773C24.3222 20.3773 25.4538 19.9013 26.289 19.0538C27.1242 18.2064 27.5947 17.0566 27.5973 15.8568C27.5973 14.6552 27.128 13.5028 26.2925 12.6532C25.457 11.8035 24.3239 11.3262 23.1424 11.3262ZM23.2794 13.0123C23.2586 12.6433 23.5589 12.3292 23.9196 12.4099C24.0108 12.4303 24.1012 12.4545 24.1905 12.4824C24.5427 12.5923 24.6471 13.0131 24.4464 13.3227C24.1124 13.8381 23.3139 13.6256 23.2794 13.0123ZM23.0126 13.0124C22.9758 13.6258 22.1762 13.8364 21.8436 13.3196C21.6449 13.0109 21.7482 12.5923 22.0984 12.482C22.1895 12.4533 22.2817 12.4286 22.3748 12.4078C22.7357 12.3274 23.0347 12.6433 23.0126 13.0124ZM20.3413 16.0204C20.9504 16.0582 21.1625 16.8484 20.6552 17.1877C20.3408 17.3979 19.9081 17.2903 19.7986 16.9283C19.7728 16.843 19.7501 16.7567 19.7306 16.6697C19.6485 16.3035 19.9667 15.9971 20.3413 16.0204ZM20.3397 15.7461C19.9657 15.7678 19.6491 15.4612 19.731 15.0957C19.7504 15.0094 19.7728 14.9238 19.7983 14.8391C19.9077 14.4758 20.3424 14.3681 20.6571 14.58C21.1632 14.9208 20.9488 15.7106 20.3397 15.7461ZM23.012 18.7516C23.0344 19.1239 22.7298 19.4409 22.3666 19.3562C22.2769 19.3353 22.188 19.3108 22.1003 19.2828C21.75 19.171 21.6463 18.7518 21.8459 18.4431C22.1786 17.9285 22.9753 18.14 23.012 18.7516ZM23.2799 18.7519C23.3144 18.1404 24.11 17.9269 24.4442 18.4402C24.6457 18.7497 24.5411 19.171 24.1889 19.2825C24.1027 19.3098 24.0156 19.3338 23.9276 19.3544C23.5647 19.4393 23.259 19.1241 23.2799 18.7519ZM25.9409 15.7536C25.3303 15.7155 25.118 14.9232 25.6255 14.5815C25.9414 14.3687 26.3784 14.4762 26.4863 14.8416C26.5124 14.9301 26.5351 15.0197 26.5542 15.1101C26.6317 15.4752 26.3133 15.7768 25.9409 15.7536ZM25.9479 16.0201C26.3211 15.9969 26.6394 16.3006 26.5587 16.6657C26.5387 16.7561 26.5151 16.8456 26.4881 16.9341C26.378 17.2945 25.9466 17.3996 25.6333 17.1902C25.1248 16.8502 25.3373 16.058 25.9479 16.0201ZM26.1287 14.0022C26.1287 14.0146 26.1218 14.026 26.1107 14.0317L25.5216 14.3325C24.9763 14.6109 24.3911 14.0335 24.6622 13.4845C24.8296 13.1455 25.2584 13.0243 25.5344 13.2827C25.7571 13.4911 25.955 13.7265 26.1234 13.9842C26.1269 13.9896 26.1287 13.9958 26.1287 14.0022ZM20.7534 13.23C21.0258 12.9673 21.4567 13.0885 21.6242 13.4278C21.8936 13.9734 21.3132 14.5507 20.7717 14.273C20.4447 14.1053 20.3265 13.6904 20.5723 13.4173C20.6305 13.3527 20.6909 13.2902 20.7534 13.23ZM20.1658 17.7016C20.1658 17.689 20.1729 17.6774 20.1841 17.6717L20.7596 17.3791C21.3061 17.1012 21.891 17.6803 21.6187 18.2295C21.4524 18.5648 21.0293 18.6877 20.7558 18.4322C20.5314 18.2225 20.3345 17.9829 20.1708 17.7191C20.1675 17.7139 20.1658 17.7078 20.1658 17.7016ZM24.9756 18.8571C24.9756 18.8549 24.9751 18.8527 24.9741 18.8507L24.6642 18.2258C24.3919 17.6767 24.9761 17.0974 25.5229 17.3742L25.5775 17.4019C25.8761 17.5531 25.9878 17.9288 25.7716 18.1843C25.5481 18.4484 25.2877 18.6794 24.998 18.8693C24.9883 18.8756 24.9756 18.8687 24.9756 18.8571Z" fill="#2F3B7C"/>
</svg>
