<svg width="48" height="31" viewBox="0 0 48 31" fill="none" xmlns="http://www.w3.org/2000/svg">
<path d="M43.1495 0.55957H4.36499C2.15585 0.55957 0.36499 2.35043 0.36499 4.55957V26.5596C0.36499 28.7687 2.15585 30.5596 4.36499 30.5596H43.1495C45.3586 30.5596 47.1495 28.7687 47.1495 26.5596V4.55957C47.1495 2.35043 45.3586 0.55957 43.1495 0.55957Z" fill="#F5F5F5"/>
<path d="M34.5998 15.5597C34.5998 18.4868 33.4564 21.294 31.4212 23.3638C29.3859 25.4336 26.6255 26.5964 23.7472 26.5964C20.8689 26.5964 18.1086 25.4336 16.0733 23.3638C14.0381 21.294 12.8946 18.4868 12.8946 15.5597C12.8881 14.1061 13.1641 12.6655 13.7066 11.3206C14.249 9.97577 15.0474 8.75317 16.0558 7.72299C17.0642 6.69281 18.2628 5.87536 19.5827 5.31757C20.9026 4.75979 22.3179 4.47264 23.7472 4.47266C25.1766 4.47264 26.5919 4.75979 27.9118 5.31757C29.2317 5.87536 30.4303 6.69281 31.4387 7.72299C32.4471 8.75317 33.2454 9.97577 33.7879 11.3206C34.3304 12.6655 34.6063 14.1061 34.5998 15.5597Z" fill="#D63932"/>
</svg>
