<svg width="48" height="30" viewBox="0 0 48 30" fill="none" xmlns="http://www.w3.org/2000/svg">
<path d="M47.9834 19.9961H0.0161133V29.9994H47.9834V19.9961Z" fill="#399565"/>
<path d="M47.9834 9.99316H0.0161133V19.9965H47.9834V9.99316Z" fill="white"/>
<path d="M47.9834 0H0.0161133V10.0033H47.9834V0Z" fill="#FF9933"/>
<path d="M22.7144 10.4648C22.1142 10.4648 21.5199 10.5821 20.9655 10.8099C20.4111 11.0378 19.9075 11.3716 19.4836 11.7925C19.0596 12.2133 18.7236 12.7128 18.4949 13.2624C18.2661 13.8121 18.1491 14.4009 18.1504 14.9954C18.1504 16.1944 18.6312 17.3441 19.4871 18.1919C20.343 19.0397 21.5039 19.516 22.7144 19.516C23.9258 19.516 25.0876 19.04 25.9452 18.1925C26.8027 17.345 27.2858 16.1953 27.2884 14.9954C27.2884 13.7938 26.8066 12.6415 25.9487 11.7919C25.0909 10.9422 23.9275 10.4648 22.7144 10.4648ZM22.8156 11.4672C23.3815 11.4773 23.9367 11.6218 24.4347 11.8882L22.9674 14.0933L22.8156 11.4672ZM22.4614 14.0933L21.0042 11.8882C21.5011 11.6191 22.057 11.4746 22.6233 11.4672L22.4614 14.0933ZM21.7733 15.2761L19.5571 16.7195C19.2881 16.2257 19.139 15.6765 19.1219 15.1157L21.7733 15.2761ZM19.1219 14.9253C19.1401 14.3646 19.2891 13.8158 19.5571 13.3215L21.7733 14.7749L19.1219 14.9253ZM22.6233 18.5838C22.0569 18.5683 21.5021 18.4206 21.0042 18.1528L22.4614 15.9577L22.6233 18.5838ZM22.9674 15.9577L24.4347 18.1528C23.9357 18.4182 23.3816 18.5657 22.8156 18.5838L22.9674 15.9577ZM23.6555 14.7749L25.8717 13.3215C26.1423 13.8178 26.2881 14.3713 26.2967 14.9353L23.6555 14.7749ZM26.3069 15.1157C26.2947 15.6772 26.1454 16.2275 25.8717 16.7195L23.6555 15.2761L26.3069 15.1157ZM25.7806 13.1611L23.4025 14.3439L24.5966 11.9884C25.0695 12.2808 25.4733 12.6705 25.7806 13.1311V13.1611ZM20.8321 11.9283L22.0263 14.2837L19.6582 13.101C19.9556 12.6277 20.3568 12.2268 20.8321 11.9283ZM19.6582 16.8197L22.0263 15.647L20.8321 17.9924C20.3559 17.7078 19.9538 17.3164 19.6582 16.8497V16.8197ZM24.5966 17.9924L23.4025 15.647L25.7806 16.8197C25.4861 17.3066 25.0806 17.7185 24.5966 18.0225V17.9924Z" fill="#2F3B7C"/>
</svg>
