<svg width="48" height="30" viewBox="0 0 48 30" fill="none" xmlns="http://www.w3.org/2000/svg">
<path d="M4.07373 0C1.86459 0 0.0737305 1.79086 0.0737305 4V9.92673V10.1465V19.8535V20.0733V26C0.0737305 28.2091 1.86459 30 4.07373 30H43.9266C46.1358 30 47.9266 28.2091 47.9266 26V20.0733V19.8535V10.1465V9.92673V4C47.9266 1.79086 46.1358 0 43.9266 0H4.07373Z" fill="#016836"/>
<path d="M13.7193 9.08089C13.7218 8.97519 13.7938 8.91904 13.8371 9.0155C13.86 9.06665 13.8946 9.25687 13.9402 9.47404C14.0428 9.96256 14.4008 9.90052 14.4953 9.41037C14.4966 9.40371 14.4979 9.39711 14.4992 9.39056C14.6351 8.70843 15.2763 8.98405 15.2675 9.67952C15.2667 9.74215 15.2644 9.80793 15.2603 9.87694C15.2566 9.93834 15.2487 9.99971 15.2504 10.0612C15.2534 10.1754 15.2864 10.3521 15.4644 10.3263C15.7245 10.2887 15.4892 9.28112 15.4644 9.24346C15.4396 9.20581 15.1288 7.95709 15.4028 7.88076C15.6769 7.80443 15.8248 7.99474 15.8496 8.78448C15.8745 9.57422 15.937 10.1472 16.1604 10.0709C16.3838 9.99453 15.9122 9.4348 15.937 8.9117C15.9547 8.53964 16.3353 8.39054 16.4703 8.7377C16.4973 8.80719 16.5228 8.89013 16.5456 8.98904C16.5638 9.06777 16.5779 9.13829 16.5886 9.20145C16.6331 9.46416 16.7373 9.96533 16.9428 10.135C17.0788 10.2245 17.328 10.0841 17.1414 9.67599C16.9547 9.26789 16.632 8.60638 16.9051 8.38961C17.1781 8.17284 17.4641 8.65726 17.5514 8.84859C17.6388 9.03992 17.6388 9.15391 17.4889 9.09691C17.339 9.03992 17.886 10.0841 17.5018 10.5929C17.4087 10.7162 17.3184 10.7977 17.235 10.8504C16.9665 11.02 16.6893 10.7404 16.3959 10.619C16.3234 10.589 16.2559 10.5809 16.2091 10.6174C16.0604 10.7333 16.1329 11.7867 16.1457 11.9577C16.1469 11.9738 16.1456 11.966 16.1476 11.982C16.2319 12.6615 15.7166 12.5307 15.6958 11.8464L15.683 11.4261C15.6829 11.4223 15.6828 11.4185 15.6824 11.4147C15.6787 11.3815 15.6489 11.213 15.4138 11.1781C15.1526 11.1395 14.8925 11.0764 14.8925 10.7069C14.8925 10.5434 14.8974 10.315 14.9028 10.1112C14.9111 9.79849 14.7411 9.43 14.6929 9.73909C14.6175 10.2235 14.5936 11.0387 14.2461 10.9746C13.9147 10.9134 13.6935 10.2072 13.7193 9.08089Z" fill="#FCFCFC"/>
<path d="M14.2317 7.70537C14.0748 7.73183 14.2068 7.95979 14.3061 8.18878C14.4054 8.41776 14.4431 8.62232 14.3935 8.74954C14.3439 8.87675 14.5553 8.76175 14.6169 8.54599C14.6785 8.33024 14.605 7.64125 14.2317 7.70537Z" fill="#FCFCFC"/>
<path d="M16.2209 7.7973C16.3381 7.7861 16.3659 8.03951 16.4314 8.03951C16.4969 8.03951 16.4682 7.79323 16.5704 7.79323C16.6727 7.79323 16.5992 8.02119 16.7104 8.02119C16.8216 8.02119 16.766 7.78407 16.8782 7.79323C16.9904 7.80239 17.0401 8.44863 16.5615 8.42217C16.0829 8.39571 16.1077 7.80849 16.2209 7.7973Z" fill="#FCFCFC"/>
<path d="M23.1748 10.8032C23.292 10.792 23.3198 11.0454 23.3853 11.0454C23.4509 11.0454 23.4221 10.7991 23.5243 10.7991C23.6266 10.7991 23.5531 11.0271 23.6643 11.0271C23.7755 11.0271 23.7209 10.7899 23.8321 10.7991C23.9433 10.8082 23.994 11.4545 23.5154 11.427C23.0368 11.3995 23.0577 10.8144 23.1748 10.8032Z" fill="#FCFCFC"/>
<path d="M27.233 9.61667C27.3501 9.60548 27.3779 9.85787 27.4435 9.85787C27.509 9.85787 27.4812 9.61159 27.5834 9.61159C27.6857 9.61159 27.6112 9.83955 27.7234 9.83955C27.8356 9.83955 27.779 9.60243 27.8912 9.61159C28.0034 9.62075 28.0521 10.268 27.5745 10.2405C27.0969 10.2131 27.1168 9.62787 27.233 9.61667Z" fill="#FCFCFC"/>
<path d="M15.3966 12.3576C15.3479 12.4024 14.9677 12.7494 15.1166 13.6471C15.2258 14.3052 15.8314 14.4037 16.1467 14.4093C16.2745 14.4116 16.4013 14.3898 16.522 14.348C16.7231 14.2782 16.9116 14.1735 17.0791 14.0381C17.2967 13.862 17.4732 13.6384 17.5958 13.3835C18.0148 12.5103 17.7636 12.376 18.0059 12.3576C18.2481 12.3393 17.9125 13.3988 17.8847 13.4659C17.8569 13.5331 17.2324 14.7452 16.2961 14.6973C15.3598 14.6495 15.2278 14.507 15.0769 14.0572C14.926 13.6074 15.0471 13.1698 14.917 13.1789C14.787 13.1881 14.647 13.8862 14.6837 14.1824C14.7204 14.4785 14.8823 15.4901 16.0628 15.4036C17.2433 15.3171 18.1419 14.5152 18.3742 13.7702C18.5023 13.3058 18.5276 12.8183 18.4489 12.3433C18.4379 12.2767 18.439 12.1916 18.5036 12.211C18.5383 12.2214 18.589 12.2453 18.6632 12.2915C18.9243 12.4543 19.0266 12.1103 19.3443 12.0625C19.662 12.0147 19.5677 12.1958 19.7821 12.1643C19.9273 12.1548 20.063 12.0876 20.1604 11.9769C20.2578 11.8662 20.3091 11.7209 20.3034 11.572C20.3089 11.333 20.3083 11.1618 20.3067 11.057C20.3055 10.9807 20.2551 10.9054 20.1804 10.9208C20.1392 10.9293 20.1013 10.9497 20.0711 10.9797C19.9867 11.0814 20.0611 11.4285 19.9311 11.457C19.801 11.4855 19.7166 11.113 19.5577 11.0947C19.3989 11.0763 19.1765 11.6035 18.962 11.63C18.7476 11.6564 18.9054 11.1608 18.7009 11.1323C18.6095 11.1201 18.4864 11.3908 18.4398 11.2666C18.401 11.1636 18.2366 9.76675 18.1817 9.29385C18.172 9.21062 18.2372 9.13862 18.321 9.13862C18.4202 9.13862 18.4881 9.03841 18.4512 8.94628L18.1354 8.1564C18.1324 8.14903 18.1297 8.14178 18.1267 8.13442C18.1026 8.07458 17.9766 7.79196 17.7765 7.86852C17.5531 7.95401 17.5531 8.42216 17.5779 8.50866C17.599 8.58221 17.8469 10.2961 17.9207 10.808C17.9346 10.904 17.9525 10.9983 17.9671 11.0941C17.9928 11.263 18.0164 11.5269 17.9225 11.572C17.7825 11.6391 17.6057 11.1801 17.3267 11.1517C17.0477 11.1232 16.4034 11.3328 16.4133 11.9068C16.4232 12.4808 16.6834 12.6609 16.8601 12.6802C17.0368 12.6996 17.4459 12.3271 17.4975 12.3933C17.5491 12.4594 17.1679 13.5494 16.3855 13.6349C15.6031 13.7203 15.5187 13.126 15.4998 12.7851C15.481 12.4441 15.5118 12.2467 15.3966 12.3576Z" fill="#FCFCFC"/>
<path d="M19.0814 9.37376C18.9284 9.51348 19.0273 9.76829 19.2344 9.76829C19.2953 9.76829 19.3536 9.74387 19.3962 9.7005L20.1098 8.97523C20.2644 8.81803 20.2465 8.56092 20.0715 8.42668C20.0674 8.42347 20.0632 8.42041 20.0589 8.41728C20.0223 8.39027 19.8421 8.25044 19.9253 8.17253C19.9911 8.11085 20.0958 8.23439 20.1505 8.31038C20.1751 8.34464 20.2063 8.37954 20.2485 8.37839C20.2701 8.37779 20.2911 8.37163 20.3097 8.36046C20.3284 8.3493 20.3439 8.3335 20.355 8.31452C20.3771 8.27667 20.3789 8.23045 20.3824 8.18678C20.396 8.01702 20.3233 7.83519 20.0097 7.855C19.6741 7.87536 19.6125 8.14301 19.7843 8.42288C19.7935 8.43781 19.8035 8.45307 19.8141 8.46868C19.8934 8.5835 19.8277 8.69216 19.7246 8.78627L19.0814 9.37376Z" fill="#FCFCFC"/>
<path d="M19.881 9.61526C19.9754 9.56641 19.8056 9.98774 19.881 10.0641C19.9565 10.1404 20.2524 9.9623 20.3129 10.0162C20.3735 10.0702 20.0518 10.5251 19.8592 10.4752C19.6666 10.4254 19.4889 10.2493 19.5266 10.0468C19.5643 9.84424 19.6189 9.74858 19.881 9.61526Z" fill="#FCFCFC"/>
<path d="M20.6343 8.3438C20.6591 8.26136 20.8577 8.41606 20.9044 8.80991C20.951 9.20376 21.0166 9.78691 21.2211 9.76757C21.4256 9.74823 21.5755 8.74986 21.6778 8.56362C21.7801 8.37738 21.9667 8.14331 22.1256 8.15654C22.2845 8.16977 22.3957 8.95849 22.3768 9.34115C22.3579 9.72381 22.6379 9.98027 22.8425 9.97111C23.047 9.96195 23.3459 9.46226 23.2992 9.06332C23.2525 8.66438 23.0569 8.21353 23.1314 8.0222C23.2059 7.83087 23.2525 7.53573 23.4114 7.52556C23.5702 7.51538 23.8026 7.97437 23.7748 8.38552C23.747 8.79668 23.6447 9.95178 24.1719 9.89478C24.6992 9.83779 24.2186 8.97885 24.0131 8.46999C23.9788 8.40008 23.9599 8.32333 23.9577 8.24513C23.9555 8.16694 23.9699 8.08919 24.0001 8.01734C24.0303 7.94548 24.0754 7.88126 24.1324 7.82919C24.1893 7.77711 24.2567 7.73844 24.3298 7.71587C24.4231 7.69654 24.8431 7.95503 24.9543 8.36517C25.0655 8.7753 24.9077 8.54734 24.7776 8.54734C24.6475 8.54734 24.6843 8.64911 24.7677 8.94832C24.8511 9.24752 24.853 9.48261 24.9921 9.55894C25.1311 9.63527 25.3276 9.70447 25.411 9.61288C25.4945 9.52128 25.7089 9.43681 25.6444 9.61288C25.5798 9.78894 25.4766 10.2571 25.281 10.2947C25.0854 10.3324 25.0566 10.1136 25.1221 9.98943C25.1877 9.86527 24.9921 9.89377 24.8987 10.0464C24.8054 10.1991 24.7001 10.5716 24.2553 10.5817C23.8105 10.5919 23.8453 10.0851 23.5752 10.1136C23.3051 10.1421 22.9974 10.6489 22.6707 10.6672C22.344 10.6855 22.0094 10.4291 21.9906 10.1899C21.9717 9.95076 22.075 9.31062 21.9439 9.26279C21.8128 9.21495 21.6927 10.4382 21.3104 10.4291C20.9282 10.4199 20.5926 9.90293 20.5559 9.55894C20.5367 9.15215 20.563 8.74445 20.6343 8.3438Z" fill="#FCFCFC"/>
<path d="M21.4693 7.52251C21.5865 7.50215 21.3383 7.79118 21.3015 7.86649C21.2648 7.9418 21.1893 7.98149 21.2449 8.0914C21.3005 8.20132 21.4365 8.08632 21.4852 8.17181C21.5338 8.25729 21.3859 8.46084 21.2251 8.42115C21.0642 8.38146 20.9193 8.14942 20.9937 7.97437C21.0682 7.79932 21.3055 7.551 21.4693 7.52251Z" fill="#FCFCFC"/>
<path d="M22.5851 7.90244C22.568 7.95073 22.5552 8.00022 22.5459 8.05062C22.5135 8.22571 22.4887 8.49406 22.5615 8.55553C22.6459 8.62677 22.7939 8.44053 22.8594 8.18305C22.9249 7.92557 23.0371 7.61924 22.8594 7.58057C22.7282 7.55203 22.6284 7.78067 22.5851 7.90244Z" fill="#FCFCFC"/>
<path d="M19.1985 12.5293C19.0794 12.5293 19.2363 12.8254 19.3107 12.9588C19.3852 13.0921 19.3385 13.5317 19.3852 13.5419C19.4319 13.5521 19.6275 13.3699 19.6185 13.1501C19.6096 12.9303 19.5341 12.5385 19.1985 12.5293Z" fill="#FCFCFC"/>
<path d="M26.4871 12.6057C26.45 12.575 25.1824 12.5931 24.6637 12.6018C24.5179 12.6043 24.3002 12.6753 24.2419 12.5417C24.2402 12.5378 24.2396 12.5337 24.2402 12.5294C24.2492 12.4724 24.9214 12.3574 25.1537 12.2047C25.386 12.0521 25.7315 11.7457 25.7226 11.4404C25.7137 11.1351 25.5548 10.552 25.0981 10.5418C24.9247 10.5379 24.7728 10.5986 24.6525 10.7163C24.2105 11.149 23.8245 11.6503 23.3457 12.0419C23.159 12.1945 22.7589 12.395 22.7211 12.6057C22.6962 12.7451 22.5911 12.6448 22.5734 12.5043C22.5404 12.2432 22.4845 11.8204 22.4511 11.6786C22.3876 11.4373 22.3066 11.2012 22.2088 10.9723C22.1532 10.8481 22.0321 10.4176 21.8365 10.5418C21.6409 10.6659 21.6121 11.0578 21.8087 11.5737C22.0053 12.0897 22.1701 12.7868 22.1065 13.1003C22.0166 13.4638 21.8296 13.7944 21.5664 14.0549C21.3152 14.2941 20.9518 14.6574 20.7463 14.6655C20.5408 14.6737 20.1317 14.637 20.1972 14.3694C20.2628 14.1017 20.8922 13.7588 21.0541 13.5389C21.2159 13.3191 21.5019 12.9364 21.5019 12.5263C21.5019 12.1162 21.3242 11.6775 21.2685 11.6287C21.2129 11.5798 21.2685 11.5035 21.3996 11.5707C21.5307 11.6379 21.5853 11.5992 21.4989 11.3895C21.4125 11.1799 21.1444 10.6629 20.8555 10.8257C20.5666 10.9886 20.5666 11.3417 20.641 11.5615C20.7155 11.7813 21.0978 11.9818 21.0789 12.2963C21.06 12.6108 20.8188 12.9945 20.3988 13.2998C20.3359 13.3455 20.2844 13.3828 20.2422 13.4133C20.1174 13.5035 20.0794 13.4909 20.107 13.3394C20.1469 13.1208 19.9973 13.0916 19.8959 13.2892C19.8249 13.4275 19.7633 13.5708 19.7117 13.718C19.6811 13.8493 18.8225 14.3959 18.4995 14.5975C18.4188 14.6479 18.3396 14.7 18.2633 14.7569C18.0674 14.9028 17.692 15.1941 17.717 15.265C17.7508 15.3606 18.8449 15.0451 19.0217 14.9312C19.1984 14.8172 19.5628 14.6258 19.6174 14.6727C19.672 14.7195 19.9431 15.4471 20.4464 15.4135C20.9498 15.38 21.8256 14.6727 21.9844 14.4152C22.1433 14.1577 22.2733 14.0081 22.3667 14.0234C22.46 14.0386 22.9187 14.6157 23.1034 14.7592C23.2881 14.9027 24.5927 15.2751 24.6682 14.9881C24.7436 14.7011 24.2958 14.4915 24.2214 14.4243C24.1469 14.3572 23.8858 14.3103 23.9414 14.1475C23.997 13.9847 24.3048 13.718 24.9204 13.6987C25.3069 13.6979 25.6897 13.6201 26.0473 13.4697C26.1595 13.4117 26.1684 13.1349 26.2806 12.9914C26.3928 12.8479 26.5328 12.6433 26.4871 12.6057ZM24.828 11.2491C25.0048 11.2491 25.1726 11.4974 25.1259 11.5829C25.0792 11.6684 24.8926 11.5066 24.828 11.4404C24.7635 11.3743 24.7277 11.2491 24.828 11.2491ZM24.0506 13.3222C23.7984 13.5705 23.575 13.5898 23.5005 13.7516C23.4261 13.9134 23.5939 14.2768 23.4013 14.2605C23.2086 14.2442 23.1113 14.0498 22.9435 13.8534C22.7757 13.657 22.7102 13.2703 22.7757 13.0983C22.8413 12.9263 23.018 13.0698 23.3715 13.0983C23.7249 13.1268 24.1628 13.2153 24.0506 13.3222Z" fill="#FCFCFC"/>
<path d="M14.5577 11.6975C14.4008 11.7993 13.8031 12.3946 13.7743 12.529C13.7455 12.6633 13.9421 12.5768 14.1665 12.4811C14.2983 12.4249 14.6577 12.247 14.932 12.1097C15.1608 11.9951 15.5405 11.9819 15.5829 11.7295C15.5846 11.7191 15.5845 11.7084 15.5823 11.6975C15.5535 11.554 15.1822 11.2863 14.5577 11.6975Z" fill="#FCFCFC"/>
<path d="M13.8774 13.4358C13.926 13.4256 13.8863 13.7899 13.8774 14.0189C13.8684 14.2479 13.7979 14.6682 13.8883 14.7262C13.9786 14.7842 14.2407 14.4209 14.3053 14.5155C14.3698 14.6102 14.3341 15.3714 13.9707 15.3297C13.6073 15.288 13.4673 14.8921 13.5507 14.539C13.6341 14.1858 13.6996 13.4744 13.8774 13.4358Z" fill="#FCFCFC"/>
<path d="M25.0137 14.5442C24.9938 14.6541 25.2847 14.5544 25.3493 14.6399C25.4138 14.7253 25.25 14.8973 25.3493 14.993C25.4485 15.0887 25.806 14.936 25.945 14.9075C26.084 14.879 26.3739 14.7925 26.3362 14.6785C26.2985 14.5645 26.1217 14.535 26.0294 14.5442C25.937 14.5533 25.8616 14.7264 25.7494 14.7162C25.6372 14.706 25.5439 14.6653 25.6005 14.5432C25.657 14.421 25.666 14.2582 25.5905 14.191C25.5151 14.1239 25.0514 14.3437 25.0137 14.5442Z" fill="#FCFCFC"/>
<path d="M26.0208 8.36368L25.7573 8.11258C25.5858 7.94921 25.4545 7.72849 25.2405 7.62706C25.1728 7.59498 25.1061 7.59635 25.0607 7.67571C24.9296 7.90469 24.9862 8.37385 25.2007 8.67917C25.3144 8.84107 25.6822 9.34872 26.0027 9.78988C26.3471 10.2641 26.5331 10.8349 26.5331 11.421V13.7151C26.5331 14.156 26.9579 14.4032 27.0832 13.9804C27.1426 13.7799 27.1559 13.3498 27.1498 12.8989C27.1453 12.5617 27.6202 12.4283 27.7797 12.7253L27.861 12.8767C27.9859 13.1094 28.3375 13.0332 28.3548 12.7697C28.3582 12.7184 28.3465 12.6671 28.321 12.6224L27.3481 10.9134C27.1112 10.4972 26.951 10.0419 26.875 9.56914L26.8511 9.42084C26.8318 9.3003 26.7757 9.0997 26.8975 9.09235C26.9819 9.08727 27.0465 9.2216 27.0465 9.09235C27.0465 9.00278 26.7823 8.47032 26.6201 8.15189C26.5384 7.99152 26.4949 7.79734 26.3542 7.68512C26.3161 7.65474 26.2726 7.64295 26.2263 7.67265C26.0774 7.76832 26.1747 8.51023 26.0208 8.36368Z" fill="#FCFCFC"/>
<path d="M26.1864 8.86926C26.1406 8.71945 25.8879 8.72423 25.9929 8.84045C26.1051 8.96462 26.2263 9.17528 26.2163 9.02262C26.2132 8.97407 26.2019 8.91996 26.1864 8.86926Z" fill="#FCFCFC"/>
<path d="M27.2281 7.86734C27.1089 7.90601 27.1357 8.13499 27.2281 8.23066C27.3204 8.32632 27.5359 8.54615 27.5081 8.73951C27.4803 8.93288 27.3681 9.03668 27.4525 9.09876C27.5368 9.16084 27.6848 8.88301 27.7136 8.72018C27.7424 8.55734 27.7414 8.21132 27.6292 8.07698C27.517 7.94265 27.382 7.81543 27.2281 7.86734Z" fill="#FCFCFC"/>
<path d="M28.3044 7.78197C28.3571 7.70259 28.8446 8.67043 28.8545 8.72742C28.8644 8.78442 28.9846 8.89941 28.8545 8.9849C28.7244 9.07039 28.6559 9.15689 28.6559 9.29021C28.6559 9.42353 28.8982 11.2005 28.9161 11.5292C28.9339 11.8579 28.8982 13.4119 28.9161 13.6888C28.9339 13.9656 28.5348 14.6769 28.2081 15.0189C27.9723 15.2657 27.5135 15.5274 27.1783 15.4567C26.9163 15.4015 26.9153 15.0788 27.1547 14.9588C28.1891 14.4405 28.5105 13.1282 28.4372 11.9735L28.4196 11.6962C28.4156 11.6337 28.4103 11.5721 28.4034 11.5099C28.355 11.0723 28.1513 9.22786 28.1426 9.09787C28.1327 8.9503 28.1644 7.99162 28.3044 7.78197Z" fill="#FCFCFC"/>
<path d="M29.6886 9.54897C29.6589 9.35178 29.6165 9.12049 29.77 8.99316C29.7887 8.97763 29.8096 8.96248 29.8326 8.94746C29.9607 8.86401 29.8326 8.74392 29.8267 8.68897C29.8207 8.63401 29.3064 7.67634 29.2557 7.75674C29.1207 7.97046 29.1148 8.93627 29.1277 9.07976C29.1336 9.14795 29.3471 10.2542 29.4692 11.4297C29.5679 12.3773 29.625 13.3696 29.6508 13.8934C29.6597 14.0736 29.8511 14.1801 29.9537 14.0318C30.026 13.9273 30.069 13.8045 30.0779 13.6767C30.13 13.2453 29.7934 10.3555 29.7403 9.90509C29.7355 9.86436 29.7303 9.82582 29.7242 9.78527L29.6886 9.54897Z" fill="#FCFCFC"/>
<path d="M30.3634 10.0449C30.2462 10.1365 30.3167 10.3696 30.5034 10.6556C30.5293 10.6928 30.5566 10.7288 30.5853 10.7635C30.8579 11.0923 31.1279 10.9483 31.1279 10.5212C31.1279 10.3045 31.2024 10.2098 31.2272 10.2434C31.252 10.277 31.4417 10.3055 31.4605 10.2434C31.4794 10.1813 31.3483 9.8465 31.3295 9.818C31.3106 9.7895 31.1249 9.5595 31.0316 9.703C30.9383 9.8465 30.976 10.1233 30.8549 10.2434C30.7338 10.3635 30.559 9.89229 30.3634 10.0449Z" fill="#FCFCFC"/>
<path d="M31.6812 11.1542C31.6722 11.1587 31.6644 11.165 31.6564 11.171C31.5441 11.2543 30.6746 11.8998 30.6625 11.9265C30.6496 11.955 30.5414 12.0893 30.5503 12.2135C30.5593 12.3376 30.6993 12.4811 30.7737 12.3753C30.8325 12.2918 31.4074 11.8627 31.6479 11.6851C31.7174 11.6337 31.7847 11.5745 31.8116 11.4923C31.8252 11.4504 31.8277 11.4056 31.8209 11.3621C31.8055 11.2623 31.7608 11.114 31.6812 11.1542Z" fill="#FCFCFC"/>
<path d="M31.8363 12.3511C31.7638 12.0126 31.3649 12.1427 31.466 12.4737C31.5017 12.5907 31.604 12.7607 31.5941 12.8655C31.5841 12.9703 31.5672 13.296 31.5941 13.3052C31.6209 13.3143 31.8631 13.296 31.8631 12.6365C31.8631 12.5234 31.853 12.4293 31.8363 12.3511Z" fill="#FCFCFC"/>
<path d="M33.6261 8.47982C33.5159 8.49611 33.4673 8.77496 33.6261 9.05178C33.785 9.32859 33.8495 9.40696 33.7929 9.61152C33.7399 9.76571 33.9057 9.82752 33.9584 9.67325C33.9957 9.56437 34.0182 9.41226 33.9985 9.2024C33.9429 8.61212 33.7473 8.46252 33.6261 8.47982Z" fill="#FCFCFC"/>
<path d="M29.3859 13.3042C29.4315 13.3042 29.4504 14.1052 29.4851 14.268C29.5199 14.4308 29.5596 14.727 29.8297 14.727C30.0997 14.727 30.3887 14.0146 30.4453 13.867C30.5018 13.7194 30.6974 13.1546 30.8831 13.1546C31.0688 13.1546 31.451 13.8904 31.8244 13.8996C32.1977 13.9087 32.1044 13.3368 32.1133 13.0406C32.1186 12.865 32.0652 11.8896 32.0209 11.1249C31.985 10.5045 31.7688 9.90837 31.4011 9.40739L31.3569 9.34705C31.0134 8.87909 30.3027 7.94443 30.8484 7.74651C30.9129 7.7231 31.6605 8.46806 31.6506 8.47722C31.6407 8.48638 31.6973 8.54439 31.5662 8.579C31.4531 8.60885 31.5004 8.66294 31.5277 8.70403C31.5355 8.71583 31.5434 8.7278 31.5533 8.73794C31.6276 8.81416 31.7466 8.75408 31.7424 8.6477L31.7152 7.95842C31.7152 7.95827 31.7152 7.95826 31.7151 7.95812C31.715 7.9534 31.7075 7.73741 31.8273 7.74244C31.9175 7.74623 32.2863 8.37028 32.4691 8.68952C32.5375 8.80888 32.5977 9.08741 32.4737 9.0278C32.3933 8.98913 32.3149 8.94231 32.296 8.97081C32.2804 8.99438 32.3354 9.54792 32.3549 9.7385C32.3592 9.78061 32.3741 9.82054 32.3982 9.85538C32.5502 10.0757 32.8956 9.93992 32.8568 9.67502L32.6279 8.1113C32.6205 8.06031 32.6182 8.00809 32.6336 7.95894C32.6599 7.87533 32.7246 7.75116 32.8778 7.74244C33.1101 7.72921 33.2601 8.23501 33.3534 8.5505C33.4467 8.86599 33.5401 9.01763 33.4745 9.09904C33.409 9.18046 33.3157 9.06648 33.2978 9.15197C33.286 9.20843 33.4279 10.3157 33.5257 11.0611C33.5836 11.5027 33.7433 11.9243 33.9909 12.2945L34.479 13.0243C34.5108 13.0719 34.5264 13.1285 34.5235 13.1857L34.5148 13.3583C34.5045 13.5643 34.2355 13.6349 34.1253 13.4606L34.0892 13.4034C33.9875 13.2426 33.7388 13.3129 33.7363 13.5032C33.7359 13.5375 33.7264 13.5708 33.7082 13.5999C33.6269 13.73 33.3861 14.1061 33.2789 14.1774C33.1489 14.2639 33.1578 11.9222 33.1578 11.8743C33.1578 11.8265 32.6822 11.1375 32.6355 11.1436C32.5954 11.1489 32.6244 12.7438 32.6332 13.1864C32.6347 13.2623 32.6341 13.3371 32.6311 13.4129C32.6215 13.6608 32.5955 13.9113 32.4903 14.1359C32.3806 14.37 32.1958 14.6354 31.9217 14.6354C31.4312 14.6354 31.2326 13.9667 30.9288 14.0054C30.625 14.0441 30.5396 15.5218 30.0868 15.4699C29.6341 15.418 29.2796 14.9407 29.2051 14.6557C29.1307 14.3708 29.1059 13.2961 29.3859 13.3042Z" fill="#FCFCFC"/>
<path d="M33.1407 14.5451C33.1155 14.377 32.8133 14.4493 32.6597 14.522C32.6198 14.541 32.5916 14.5667 32.5916 14.6021C32.5916 14.708 32.824 14.8057 32.8339 14.8688C32.8438 14.9318 32.5172 15.2382 32.5916 15.3349C32.6661 15.4315 32.9173 15.2891 33.0195 15.2127C33.1218 15.1364 33.3373 15.1272 33.3174 15.0224C33.2976 14.9176 33.0195 14.9359 33.0195 14.8504C33.0195 14.7649 33.1506 14.6113 33.1407 14.5451Z" fill="#FCFCFC"/>
<path d="M34.6309 13.5299C34.632 13.8432 34.531 14.1408 34.3564 14.401C34.2387 14.5763 34.1032 14.7534 34.0081 14.8026C33.8036 14.9084 33.1324 15.1995 33.1791 15.3348C33.2257 15.4702 34.0538 15.5496 34.4758 15.2443C34.7213 15.0666 34.8767 14.7143 34.9638 14.4507C35.0359 14.2325 35.0555 14.0026 35.0582 13.7727C35.0647 13.2254 35.0738 12.1893 35.0536 11.8919C35.0258 11.4818 34.8292 9.53186 34.7558 9.25504C34.6823 8.97822 34.7935 8.95888 34.8302 8.93955C34.867 8.92021 35.0795 8.94972 35.0665 8.84388C35.056 8.75727 34.699 8.21817 34.5697 8.02511C34.5388 7.97912 34.5095 7.93245 34.4767 7.88786C34.4393 7.83706 34.3879 7.777 34.3556 7.77936C34.3 7.78344 34.169 8.01344 34.1878 8.37676C34.2049 8.70611 34.5174 11.6639 34.5757 12.2142C34.5819 12.2728 34.5868 12.3309 34.5901 12.3898C34.6018 12.5964 34.6295 13.1266 34.6309 13.5299Z" fill="#FCFCFC"/>
<path d="M32.1252 21.518C32.0553 21.436 31.91 21.4421 31.7906 21.4654C31.6646 21.4899 31.5381 21.518 31.4098 21.518H30.2469C30.1163 21.518 30.0249 21.3904 30.0749 21.2697C30.1305 21.1354 30.057 21.0794 29.9071 21.0214C29.7572 20.9634 29.8515 20.8301 29.7214 20.8301C29.5914 20.8301 29.5348 21.0214 29.5159 21.1354C29.4876 21.3063 29.4536 21.5139 29.2803 21.5119L18.3248 21.3853C17.7257 21.3784 17.5348 22.1979 18.132 22.1491C18.1526 22.1474 18.1429 22.149 18.1635 22.149H29.2087C29.4279 22.149 29.5911 22.3506 29.5765 22.5693C29.5765 22.7027 29.7264 23.0273 29.9309 23.0293C30.1098 23.0311 30.2381 22.7607 30.4169 22.7607H31.1831C31.4258 22.7607 31.7211 23.0016 31.9624 23.0273C32.3158 23.065 32.4846 22.4543 32.4846 22.2823C32.4846 22.1104 32.2563 21.6707 32.1252 21.518ZM31.3925 22.5052C31.3369 22.4991 31.181 22.5185 31.1125 22.5052C31.044 22.492 31.0569 22.3719 30.8583 22.3556C30.8344 22.3503 30.8097 22.35 30.7857 22.3547C30.7617 22.3594 30.7388 22.369 30.7185 22.383C30.6982 22.397 30.6809 22.415 30.6675 22.436C30.6444 22.4724 30.6093 22.5052 30.5662 22.5052H30.1623C29.9071 22.5052 29.8336 22.1999 29.9448 22.206C30.0799 22.2156 30.8132 22.2113 31.2084 22.2082C31.3761 22.2069 31.6367 22.1903 31.6466 22.3577C31.6526 22.4584 31.4481 22.5113 31.3925 22.5052Z" fill="#FCFCFC"/>
</svg>
