<svg width="49" height="30" viewBox="0 0 49 30" fill="none" xmlns="http://www.w3.org/2000/svg">
<g clip-path="url(#clip0_2098_8446)">
<path d="M48.3372 0H0.530762V2.30133H48.3372V0Z" fill="#D0262B"/>
<path d="M48.3372 2.30176H0.530762V4.61143H48.3372V2.30176Z" fill="#FEFEFE"/>
<path d="M48.3372 4.61035H0.530762V6.92002H48.3372V4.61035Z" fill="#D0262B"/>
<path d="M48.3372 6.9209H0.530762V9.23057H48.3372V6.9209Z" fill="#FEFEFE"/>
<path d="M48.3372 9.23047H0.530762V11.5401H48.3372V9.23047Z" fill="#D0262B"/>
<path d="M48.3372 11.54H0.530762V13.8497H48.3372V11.54Z" fill="#FEFEFE"/>
<path d="M48.3372 13.8496H0.530762V16.1509H48.3372V13.8496Z" fill="#D0262B"/>
<path d="M48.3372 16.1504H0.530762V18.4601H48.3372V16.1504Z" fill="#FEFEFE"/>
<path d="M48.3372 18.4609H0.530762V20.7706H48.3372V18.4609Z" fill="#D0262B"/>
<path d="M48.3372 20.7695H0.530762V23.0792H48.3372V20.7695Z" fill="#FEFEFE"/>
<path d="M48.3372 23.0791H0.530762V25.3888H48.3372V23.0791Z" fill="#D0262B"/>
<path d="M48.3372 25.3896H0.530762V27.6993H48.3372V25.3896Z" fill="#FEFEFE"/>
<path d="M48.3372 27.6982H0.530762V29.9996H48.3372V27.6982Z" fill="#D0262B"/>
<path d="M22.3603 0H0.530762V16.1505H22.3603V0Z" fill="#2E3C66"/>
<path fill-rule="evenodd" clip-rule="evenodd" d="M3.47031 3.81524H4.06317L4.24787 3.19434L4.43257 3.81524H5.03273L4.54795 4.19597L4.73265 4.80019L4.24764 4.42853L3.76286 4.80093L3.95509 4.19671L3.47031 3.81524ZM1.72363 13.1695H2.3165L2.50895 12.5562L2.69342 13.1695H3.28629L2.80151 13.5502L2.98621 14.1635L2.50918 13.7828L2.01664 14.1635L2.20887 13.5502L1.72363 13.1695ZM5.24001 13.1695H5.83288L6.02533 12.5562L6.21003 13.1695H6.80289L6.31811 13.5502L6.50281 14.1635L6.02578 13.7828L5.53325 14.1635L5.7257 13.5502L5.24001 13.1695ZM8.74863 13.1695H9.33261L9.52483 12.5562L9.70953 13.1695H10.3097L9.82514 13.5502L10.0096 14.1635L9.52483 13.7828L9.04028 14.1635L9.22475 13.5502L8.74863 13.1695ZM12.265 13.1695H12.8499L13.0423 12.5562L13.227 13.1695H13.8272L13.3424 13.5502L13.5271 14.1635L13.0423 13.7828L12.5576 14.1635L12.7423 13.5502L12.265 13.1695ZM15.7816 13.1695H16.3663L16.5587 12.5562L16.7434 13.1695H17.3363L16.8593 13.5502L17.044 14.1635L16.5592 13.7828L16.0744 14.1635L16.2591 13.5502L15.7816 13.1695ZM19.2902 13.1695H19.8831L20.0676 12.5562L20.2523 13.1695H20.8524L20.3677 13.5502L20.5524 14.1635L20.0676 13.7828L19.5828 14.1635L19.7752 13.5502L19.2902 13.1695ZM1.72363 10.4798H2.3165L2.50895 9.86651L2.69342 10.4798H3.28629L2.80151 10.8605L2.98621 11.465L2.50918 11.0924L2.01664 11.465L2.20887 10.8605L1.72363 10.4798ZM5.24001 10.4798H5.83288L6.02533 9.86651L6.21003 10.4798H6.80289L6.31811 10.8605L6.50281 11.465L6.02578 11.0924L5.53325 11.465L5.7257 10.8605L5.24001 10.4798ZM8.74863 10.4798H9.33261L9.52483 9.86651L9.70953 10.4798H10.3097L9.82514 10.8605L10.0096 11.465L9.52483 11.0924L9.04028 11.465L9.22475 10.8605L8.74863 10.4798ZM12.265 10.4798H12.8499L13.0423 9.86651L13.227 10.4798H13.8272L13.3424 10.8605L13.5271 11.465L13.0423 11.0924L12.5576 11.465L12.7423 10.8605L12.265 10.4798ZM15.7816 10.4798H16.3663L16.5587 9.86651L16.7434 10.4798H17.3363L16.8593 10.8605L17.044 11.465L16.5592 11.0924L16.0744 11.465L16.2591 10.8605L15.7816 10.4798ZM19.2902 10.4798H19.8831L20.0676 9.86651L20.2523 10.4798H20.8524L20.3677 10.8605L20.5524 11.465L20.0676 11.0924L19.5828 11.465L19.7752 10.8605L19.2902 10.4798ZM1.72363 7.7813H2.3165L2.50895 7.168L2.69342 7.7813H3.28629L2.80151 8.16228L2.98621 8.77558L2.50918 8.3946L2.01664 8.77558L2.20887 8.16228L1.72363 7.7813ZM5.24001 7.7813H5.83288L6.02533 7.168L6.21003 7.7813H6.80289L6.31811 8.16228L6.50281 8.77558L6.02578 8.3946L5.53325 8.77558L5.7257 8.16228L5.24001 7.7813ZM8.74863 7.7813H9.33261L9.52483 7.168L9.70953 7.7813H10.3097L9.82514 8.16228L10.0096 8.77558L9.52483 8.3946L9.04028 8.77558L9.22475 8.16228L8.74863 7.7813ZM12.265 7.7813H12.8499L13.0423 7.168L13.227 7.7813H13.8272L13.3424 8.16228L13.5271 8.77558L13.0423 8.3946L12.5576 8.77558L12.7423 8.16228L12.265 7.7813ZM15.7816 7.7813H16.3663L16.5587 7.168L16.7434 7.7813H17.3363L16.8593 8.16228L17.044 8.77558L16.5592 8.3946L16.0744 8.77558L16.2591 8.16228L15.7816 7.7813ZM19.2902 7.7813H19.8831L20.0676 7.168L20.2523 7.7813H20.8524L20.3677 8.16228L20.5524 8.77558L20.0676 8.3946L19.5828 8.77558L19.7752 8.16228L19.2902 7.7813ZM1.72363 5.09089H2.3165L2.50895 4.4776L2.69342 5.09089H3.28629L2.80151 5.47187L2.98621 6.07609L2.5085 5.70419L2.01596 6.07683L2.20819 5.47261L1.72363 5.09089ZM5.24001 5.09089H5.83288L6.02533 4.4776L6.21003 5.09089H6.80289L6.31811 5.47187L6.50281 6.07609L6.02487 5.70419L5.53234 6.07683L5.72479 5.47261L5.24001 5.09089ZM8.74863 5.09089H9.33261L9.52483 4.4776L9.70953 5.09089H10.3097L9.82514 5.47187L10.0096 6.07609L9.52574 5.70419L9.04119 6.07683L9.22566 5.47261L8.74863 5.09089ZM12.265 5.09089H12.8499L13.0423 4.4776L13.227 5.09089H13.8272L13.3424 5.47187L13.5271 6.07609L13.0423 5.70419L12.5576 6.07683L12.7423 5.47261L12.265 5.09089ZM15.7816 5.09089H16.3663L16.5587 4.4776L16.7434 5.09089H17.3363L16.8593 5.47187L17.044 6.07609L16.5587 5.70419L16.0739 6.07683L16.2586 5.47261L15.7816 5.09089ZM19.2902 5.09089H19.8831L20.0676 4.4776L20.2523 5.09089H20.8524L20.3677 5.47187L20.5524 6.07609L20.0674 5.70419L19.5826 6.07683L19.775 5.47261L19.2902 5.09089ZM1.72363 2.3838H2.3165L2.50895 1.77051L2.69342 2.3838H3.28629L2.80151 2.76454L2.98621 3.37783L2.50918 2.9971L2.01664 3.37783L2.20887 2.76454L1.72363 2.3838ZM5.24001 2.3838H5.83288L6.02533 1.77051L6.21003 2.3838H6.80289L6.31811 2.76454L6.50281 3.37783L6.02578 2.9971L5.53325 3.37783L5.7257 2.76454L5.24001 2.3838ZM8.74863 2.3838H9.33261L9.52483 1.77051L9.70953 2.3838H10.3097L9.82514 2.76454L10.0096 3.37783L9.52483 2.9971L9.04028 3.37783L9.22475 2.76454L8.74863 2.3838ZM12.265 2.3838H12.8499L13.0423 1.77051L13.227 2.3838H13.8272L13.3424 2.76454L13.5271 3.37783L13.0423 2.9971L12.5576 3.37783L12.7423 2.76454L12.265 2.3838ZM15.7816 2.3838H16.3663L16.5587 1.77051L16.7434 2.3838H17.3363L16.8593 2.76454L17.044 3.37783L16.5592 2.9971L16.0744 3.37783L16.2591 2.76454L15.7816 2.3838ZM19.2902 2.3838H19.8831L20.0676 1.77051L20.2523 2.3838H20.8524L20.3677 2.76454L20.5524 3.37783L20.0676 2.9971L19.5828 3.37783L19.7752 2.76454L19.2902 2.3838ZM3.47031 11.9036H4.06317L4.24787 11.2903L4.43257 11.9036H5.03273L4.54795 12.2844L4.73265 12.8888L4.24764 12.5162L3.76286 12.8888L3.95509 12.2844L3.47031 11.9036ZM6.98668 11.9036H7.57955L7.76425 11.2903L7.94895 11.9036H8.54911L8.06433 12.2844L8.24903 12.8888L7.76425 12.5162L7.27947 12.8888L7.47192 12.2844L6.98668 11.9036ZM10.4953 11.9036H11.0802L11.2724 11.2903L11.4571 11.9036H12.05L11.5727 12.2844L11.7574 12.8888L11.2726 12.5162L10.7881 12.8888L10.9726 12.2844L10.4953 11.9036ZM14.0117 11.9036H14.5966L14.789 11.2903L14.9737 11.9036H15.5666L15.0896 12.2844L15.2743 12.8888L14.7895 12.5162L14.3036 12.8888L14.4883 12.2844L14.0117 11.9036ZM17.5283 11.9036H18.1129L18.3054 11.2903L18.4901 11.9036H19.083L18.6059 12.2844L18.7906 12.8888L18.3059 12.5162L17.8211 12.8888L18.0058 12.2844L17.5283 11.9036ZM3.47031 9.20513H4.06317L4.24787 8.59183L4.43257 9.20513H5.03273L4.54795 9.58611L4.73265 10.1994L4.24764 9.81744L3.76263 10.1984L3.95486 9.58513L3.47031 9.20513ZM6.98668 9.20513H7.57955L7.76425 8.59183L7.94895 9.20513H8.54911L8.06433 9.58611L8.24903 10.1994L7.76379 9.81744L7.27901 10.1984L7.47146 9.58513L6.98668 9.20513ZM10.4953 9.20513H11.0802L11.2724 8.59183L11.4571 9.20513H12.05L11.5727 9.58611L11.7574 10.1994L11.2726 9.81843L10.7879 10.1984L10.9723 9.58513L10.4953 9.20513ZM14.0117 9.20513H14.5966L14.789 8.59183L14.9737 9.20513H15.5666L15.0896 9.58611L15.2743 10.1994L14.7895 9.81843L14.3036 10.1984L14.4883 9.58513L14.0117 9.20513ZM17.5283 9.20513H18.1129L18.3054 8.59183L18.4901 9.20513H19.083L18.6059 9.58611L18.7906 10.1994L18.3059 9.81843L17.8211 10.1994L18.0058 9.58611L17.5283 9.20513ZM3.47031 6.51374H4.06317L4.24787 5.90044L4.43257 6.51374H5.03273L4.54795 6.89472L4.73265 7.49894L4.24764 7.12704L3.76286 7.49943L3.95509 6.89521L3.47031 6.51374ZM6.98668 6.51374H7.57955L7.76425 5.90044L7.94895 6.51374H8.54911L8.06433 6.89472L8.24903 7.49894L7.76379 7.12704L7.27901 7.49943L7.47146 6.89521L6.98668 6.51374ZM10.4955 6.51374H11.0804L11.2726 5.90044L11.4573 6.51374H12.0502L11.573 6.89472L11.7577 7.49894L11.2724 7.12704L10.7879 7.49943L10.9723 6.89521L10.4955 6.51374ZM14.0119 6.51374H14.5968L14.7893 5.90044L14.974 6.51374H15.5668L15.0898 6.89472L15.2745 7.49894L14.789 7.12704L14.3036 7.49968L14.4883 6.89546L14.0119 6.51374ZM6.98668 3.81524H7.57955L7.76425 3.19434L7.94849 3.81524H8.54866L8.06387 4.19597L8.24858 4.80019L7.76379 4.42853L7.27901 4.80093L7.47146 4.19671L6.98668 3.81524ZM10.4955 3.81524H11.0804L11.2726 3.19434L11.4573 3.81524H12.0502L11.573 4.19597L11.7577 4.80019L11.2724 4.42853L10.7879 4.80093L10.9723 4.19671L10.4955 3.81524ZM14.0119 3.81524H14.5968L14.7893 3.19434L14.974 3.81524H15.5668L15.0898 4.19597L15.2745 4.80019L14.789 4.42853L14.3036 4.80093L14.4883 4.19671L14.0119 3.81524ZM17.5285 3.81524H18.1132L18.3056 3.19434L18.4903 3.81524H19.0832L18.6062 4.19597L18.7909 4.80019L18.3054 4.42853L17.8206 4.80093L18.0053 4.19671L17.5285 3.81524ZM17.5285 6.51374H18.1132L18.3056 5.90044L18.4903 6.51374H19.0832L18.6062 6.89472L18.7909 7.49894L18.3054 7.12704L17.8206 7.49943L18.0053 6.89521L17.5285 6.51374Z" fill="#FEFEFE"/>
</g>
<defs>
<clipPath id="clip0_2098_8446">
<rect x="0.530762" width="47.8064" height="30" rx="4" fill="white"/>
</clipPath>
</defs>
</svg>
