<svg width="48" height="31" viewBox="0 0 48 31" fill="none" xmlns="http://www.w3.org/2000/svg">
<path d="M43.2793 0.55957H4.23535C2.02621 0.55957 0.235352 2.35043 0.235352 4.55957V26.5596C0.235352 28.7687 2.02622 30.5596 4.23535 30.5596H43.2793C45.4885 30.5596 47.2793 28.7687 47.2793 26.5596V4.55957C47.2793 2.35043 45.4885 0.55957 43.2793 0.55957Z" fill="#DE2910"/>
<path d="M7.0922 7.96973C7.32477 7.23982 8.35758 7.23982 8.59015 7.96973C8.69404 8.29578 8.99862 8.51716 9.34082 8.51716C10.1099 8.51716 10.422 9.51217 9.80431 9.97041C9.52957 10.1742 9.41024 10.5335 9.5141 10.8595L9.52621 10.8975C9.75796 11.6248 8.92289 12.2233 8.3086 11.7701C8.0307 11.5651 7.65165 11.5651 7.37376 11.7701C6.75947 12.2233 5.92439 11.6248 6.15615 10.8975L6.16826 10.8595C6.27211 10.5335 6.15278 10.1742 5.87804 9.97041C5.26038 9.51217 5.57245 8.51716 6.34154 8.51716C6.68374 8.51716 6.98831 8.29578 7.0922 7.96973Z" fill="#FFEA00"/>
<path d="M16.1893 3.78314C16.3589 3.58497 16.6839 3.71805 16.6638 3.97809L16.6628 3.99084C16.6539 4.10657 16.7197 4.21534 16.8263 4.26144C17.0662 4.36527 17.0337 4.71622 16.7792 4.77577C16.6659 4.80226 16.5822 4.90049 16.5732 5.01646C16.5534 5.27363 16.2145 5.35882 16.0819 5.13754C16.0228 5.03884 15.9056 4.98988 15.7936 5.01608C15.5386 5.07574 15.3507 4.77682 15.5197 4.57673L15.5299 4.56465C15.6047 4.47603 15.6149 4.34964 15.5553 4.25014L15.5489 4.23945C15.4161 4.01776 15.644 3.75541 15.8821 3.85587C15.9893 3.9011 16.1137 3.87154 16.1893 3.78314Z" fill="#FFEA00"/>
<path d="M19.2336 7.56391C19.2015 7.30755 19.5175 7.16122 19.6922 7.35158C19.7713 7.43769 19.8978 7.46168 20.0032 7.411C20.2378 7.29809 20.4822 7.55001 20.3593 7.77961L20.3532 7.79102C20.2987 7.89287 20.3145 8.01806 20.3926 8.10318L20.4003 8.11152C20.5758 8.30281 20.4028 8.60675 20.1483 8.55549C20.0334 8.53235 19.9165 8.58717 19.8612 8.69052C19.739 8.9188 19.3954 8.85294 19.3629 8.59606C19.3485 8.48244 19.2616 8.38983 19.1493 8.36722C18.8925 8.31548 18.8451 7.96399 19.0823 7.85248C19.1876 7.80293 19.2495 7.69101 19.2351 7.57546L19.2336 7.56391Z" fill="#FFEA00"/>
<path d="M19.4983 12.5419C19.5791 12.2927 19.9324 12.2926 20.0133 12.5418C20.0491 12.6524 20.1523 12.7275 20.2685 12.7275C20.5276 12.7275 20.6298 13.0631 20.4211 13.2166C20.3271 13.2857 20.2862 13.4083 20.3219 13.5194L20.3273 13.5363C20.4066 13.7833 20.1227 13.9868 19.9137 13.8332C19.8198 13.7642 19.6919 13.7641 19.598 13.8331C19.3895 13.9863 19.1091 13.7759 19.189 13.5298C19.2248 13.4195 19.1863 13.2971 19.0929 13.2284L19.0834 13.2214C18.8725 13.0664 18.9813 12.7321 19.243 12.7295C19.3594 12.7283 19.4624 12.6526 19.4983 12.5419Z" fill="#FFEA00"/>
<path d="M16.166 16.0583C16.3291 15.8566 16.6546 15.9897 16.6396 16.2487C16.6329 16.3639 16.7016 16.4728 16.8085 16.5163C17.0496 16.6144 17.0306 16.9657 16.7786 17.0304C16.6656 17.0594 16.584 17.1598 16.5774 17.2762C16.5626 17.5348 16.2235 17.6277 16.0868 17.4077C16.0251 17.3086 15.9056 17.2614 15.7928 17.2916C15.5432 17.3582 15.353 17.0669 15.5155 16.8661L15.5235 16.8562C15.5964 16.7661 15.6039 16.6396 15.5422 16.5415L15.5347 16.5296C15.397 16.3106 15.6196 16.0433 15.86 16.1385C15.9686 16.1815 16.0925 16.149 16.166 16.0583Z" fill="#FFEA00"/>
</svg>
