<svg width="22" height="17" viewBox="0 0 22 17" fill="none" xmlns="http://www.w3.org/2000/svg">
<path d="M18.0643 11.5158C17.8832 11.4865 17.7037 11.448 17.5265 11.4006C15.6468 10.8293 13.7706 10.2487 11.8903 9.67907C11.1473 9.45445 10.8464 8.91364 10.7519 8.19427C10.6942 7.73985 10.598 7.29003 10.5271 6.83675C10.4654 6.44338 10.2389 6.22509 9.86016 6.11105C7.93148 5.52992 6.00683 4.93726 4.08045 4.34807C3.65506 4.2179 3.22967 4.08946 2.80485 3.95872C2.15523 3.75829 1.82494 3.15642 2.01747 2.5056C2.18117 1.94923 2.35025 1.39439 2.52471 0.841096C2.73856 0.166081 3.33746 -0.144357 4.02051 0.0641371C7.16043 1.02214 10.2994 1.98206 13.4374 2.9439C15.9663 3.71682 18.4948 4.49033 21.023 5.26441C21.6449 5.45505 21.9637 5.85936 21.9182 6.43532C21.9009 6.60601 21.8481 6.7712 21.7631 6.92027C21.0868 8.14551 20.4045 9.36691 19.7163 10.5845C19.3727 11.1875 18.8286 11.4772 18.0643 11.5158Z" fill="#0071BC"/>
<path d="M5.51574 10.353L3.22738 9.65441C2.98067 9.57839 2.73166 9.50985 2.48668 9.42749C1.73734 9.17465 1.33385 8.43455 1.55577 7.67775C1.85378 6.6537 2.17427 5.63657 2.49302 4.5918C2.56796 4.61023 2.63482 4.62347 2.69938 4.64306C5.00888 5.34956 7.31896 6.05548 9.62961 6.76083C9.77371 6.8046 9.83885 6.86738 9.86017 7.01713C9.94433 7.54816 10.04 8.07746 10.1363 8.60618C10.2919 9.45917 10.7796 10.0409 11.605 10.3024C13.0057 10.747 14.4133 11.1663 15.8186 11.5977C15.8924 11.6201 15.9656 11.6438 16.0411 11.6674C15.8987 12.3821 15.5569 12.9074 14.8104 13.0306C14.5552 13.0639 14.2958 13.0405 14.0507 12.9621C11.5053 12.1915 8.96443 11.4093 6.42013 10.6335C6.34635 10.6111 6.27142 10.5898 6.18323 10.5638C5.93479 11.2354 5.68809 11.8995 5.44253 12.5641C5.18718 13.2553 4.83788 13.5018 4.10007 13.5023H2.8504V13.7558C2.8504 14.3162 2.85501 14.8766 2.84752 15.437C2.84616 15.6407 2.76461 15.8357 2.6205 15.9798C2.47639 16.1239 2.2813 16.2055 2.07743 16.207C1.64627 16.2151 1.2128 16.2139 0.7828 16.207C0.680016 16.207 0.578244 16.1867 0.483328 16.1473C0.388411 16.1079 0.302222 16.0502 0.229704 15.9774C0.157186 15.9046 0.0997661 15.8182 0.0607481 15.7232C0.02173 15.6282 0.00188071 15.5264 0.00233617 15.4237C-0.000738035 13.9147 -0.000738035 12.4057 0.00233617 10.8967C0.00233617 10.4527 0.333198 10.1181 0.798364 10.1019C1.21511 10.0875 1.63301 10.0875 2.04976 10.1019C2.53395 10.1186 2.84637 10.4527 2.84925 10.9365C2.85271 11.4825 2.84925 12.0308 2.84925 12.5745V12.8049C3.35822 12.8049 3.84529 12.8141 4.33178 12.7997C4.51451 12.7945 4.65285 12.6753 4.71914 12.499C4.98371 11.7906 5.24425 11.0851 5.51574 10.353ZM5.93018 7.68005C6.20629 7.68984 6.3844 7.48826 6.29736 7.26076C6.24501 7.14824 6.15035 7.0609 6.03394 7.01771C5.44426 6.82073 4.84825 6.64334 4.25281 6.46249C4.00496 6.38704 3.81705 6.46249 3.75595 6.65198C3.68735 6.86623 3.79111 7.03326 4.04992 7.11274C4.63056 7.29167 5.21159 7.46925 5.793 7.64549C5.84776 7.6622 5.90367 7.67372 5.93018 7.68005Z" fill="#0071BC"/>
</svg>
