<svg width="21" height="18" viewBox="0 0 21 18" fill="none" xmlns="http://www.w3.org/2000/svg">
<path d="M20.3101 15.9951C20.2933 16.0714 20.278 16.1478 20.2589 16.2242C20.2255 16.3455 20.165 16.4577 20.0818 16.5522C19.9986 16.6467 19.8951 16.7211 19.7789 16.7697C19.6627 16.8183 19.537 16.8399 19.4113 16.8328C19.2855 16.8258 19.163 16.7902 19.053 16.7289C17.9335 16.0814 16.8186 15.4308 15.6983 14.7818C15.6482 14.7593 15.6065 14.7216 15.579 14.674C15.5516 14.6265 15.5399 14.5715 15.5455 14.5168C15.5506 13.342 15.5506 12.1666 15.5455 10.9908C15.5405 10.9398 15.5515 10.8885 15.5772 10.8441C15.6028 10.7997 15.6417 10.7645 15.6884 10.7434C16.7407 10.1386 17.7983 9.54152 18.836 8.91083C19.3625 8.59166 19.9318 8.55501 20.3078 9.29261L20.3101 15.9951Z" fill="#0071BC"/>
<path d="M7.85419 17.6466H2.97956C2.29945 17.6466 1.73014 17.4061 1.29839 16.8663C1.0343 16.5482 0.887069 16.1495 0.881154 15.7362C0.872749 13.7143 0.868928 11.6894 0.881154 9.6713C0.881154 9.03144 1.18681 8.5191 1.71409 8.15488C1.75056 8.13411 1.79111 8.1215 1.83294 8.11794C1.87477 8.11439 1.91687 8.11995 1.95634 8.13426C3.47194 8.81383 4.94321 8.73264 6.37017 7.89069C6.43803 7.85305 6.51418 7.83285 6.59178 7.8319C7.43848 7.82833 8.28467 7.82833 9.13035 7.8319C9.21452 7.83461 9.29659 7.85879 9.36877 7.90214C10.7606 8.7166 12.1947 8.80187 13.671 8.15793C13.7412 8.11919 13.8221 8.10427 13.9015 8.11542C13.9808 8.12658 14.0545 8.1632 14.1112 8.21978C14.5926 8.61683 14.8631 9.12765 14.867 9.74689C14.8787 11.7225 14.8787 13.6978 14.867 15.6728C14.8608 16.7892 13.9561 17.6398 12.7899 17.6436C11.1462 17.6497 9.50021 17.6466 7.85419 17.6466Z" fill="#0071BC"/>
<path d="M7.86023 3.48886C8.1552 1.328 9.95941 -0.0410561 11.8629 0.000939451C12.8813 0.0198239 13.8526 0.432848 14.5722 1.15303C15.2919 1.87321 15.7037 2.84434 15.7211 3.8619C15.7384 4.87946 15.3599 5.86403 14.6651 6.60827C13.9704 7.3525 13.0138 7.79831 11.9967 7.85181C10.0374 7.95871 8.15978 6.56675 7.86558 4.35931C7.67836 5.57336 7.106 6.55224 6.07131 7.22112C5.03663 7.88999 3.90796 8.04346 2.7342 7.66703C0.952921 7.09513 -0.124557 5.46723 0.0114654 3.60568C0.137553 1.88005 1.51382 0.34683 3.19117 0.0666051C3.90254 -0.0637153 4.63593 0.000120569 5.31403 0.251385C5.99906 0.50616 6.59856 0.948291 7.0441 1.52729C7.48257 2.09891 7.76391 2.77511 7.86023 3.48886ZM5.52494 4.01495C5.5401 3.80205 5.51182 3.58829 5.44182 3.38663C5.37182 3.18498 5.26155 2.99963 5.11771 2.84184C4.97386 2.68404 4.79944 2.55709 4.60502 2.46867C4.4106 2.38026 4.20023 2.33223 3.98667 2.32749C3.15449 2.29084 2.44611 2.85358 2.34371 3.67059C2.20845 4.7556 3.00548 5.47105 3.83078 5.52526C4.71263 5.58482 5.50125 4.89838 5.52494 4.01495ZM10.1864 3.90805C10.1832 4.33332 10.3493 4.74241 10.648 5.04534C10.9467 5.34827 11.3537 5.52021 11.7793 5.52335C12.2049 5.52649 12.6143 5.36056 12.9175 5.06208C13.2206 4.76359 13.3927 4.35699 13.3959 3.93172C13.3959 3.50764 13.2277 3.10083 12.9283 2.80032C12.6288 2.49981 12.2224 2.33007 11.798 2.32826C10.8504 2.32749 10.2001 3.04676 10.1902 3.90805H10.1864Z" fill="#0071BC"/>
</svg>
