<svg width="22" height="21" viewBox="0 0 22 21" fill="none" xmlns="http://www.w3.org/2000/svg">
<path d="M2.70994 12.1864V11.9634C2.70994 8.91196 2.70994 5.86036 2.70994 2.80856C2.70553 2.68138 2.7164 2.55414 2.7423 2.42955C2.79278 2.23283 2.9041 2.05706 3.0604 1.92726C3.21671 1.79747 3.41003 1.72028 3.61281 1.70669C3.7048 1.69988 3.79679 1.69932 3.88878 1.69932C8.5224 1.69932 13.156 1.69932 17.7896 1.69932C17.9451 1.69269 18.1008 1.70565 18.253 1.7379C18.4494 1.78994 18.6242 1.9031 18.7521 2.06101C18.8799 2.21891 18.9541 2.41337 18.9639 2.61622C18.9702 2.70813 18.9702 2.80005 18.9702 2.89253V12.1847L2.70994 12.1864ZM10.2623 6.41886C10.2476 6.41742 10.2332 6.41457 10.2191 6.41035C8.80518 5.55926 7.09938 6.60042 7.11527 8.14486C7.11527 8.21124 7.04032 8.30316 6.97502 8.34174C6.28906 8.74969 5.96539 9.49297 6.15675 10.2448C6.24654 10.6089 6.45658 10.9321 6.75292 11.1622C7.04926 11.3923 7.41459 11.5159 7.78987 11.5129C9.82162 11.5242 11.8537 11.5242 13.8863 11.5129C14.2582 11.5125 14.6195 11.3893 14.9141 11.1625C15.2087 10.9357 15.4201 10.6179 15.5153 10.2587C15.6105 9.89947 15.5842 9.51887 15.4406 9.17609C15.2969 8.83332 15.044 8.54758 14.721 8.3633C14.558 8.27592 14.512 8.18287 14.5438 8.02287C14.5505 7.98102 14.5541 7.93872 14.5546 7.89634C14.646 6.39843 13.2139 5.16549 11.7495 5.47359C11.1543 5.59381 10.6251 5.9307 10.2645 6.41886H10.2623ZM10.8369 2.38642C10.6307 2.38456 10.429 2.44687 10.2598 2.5647C10.0906 2.68253 9.96225 2.85005 9.89261 3.04403C9.74724 3.43496 9.83582 3.89511 10.1731 4.13455C10.4133 4.30477 10.5394 4.46874 10.5138 4.774C10.4991 4.94705 10.6359 5.0679 10.8313 5.07358C11.0141 5.07925 11.1481 4.9601 11.172 4.76889C11.1816 4.69874 11.1828 4.62768 11.1754 4.55726C11.16 4.41711 11.2032 4.33484 11.3389 4.26051C11.5358 4.15217 11.6899 3.98013 11.776 3.77267C11.862 3.56521 11.8749 3.33466 11.8125 3.11892C11.7519 2.90733 11.6238 2.7213 11.4477 2.58909C11.2717 2.45687 11.0572 2.38572 10.8369 2.38642ZM15.6823 3.40375C14.9799 3.39978 14.4802 3.87809 14.5529 4.44037C14.5927 4.74393 14.5881 4.96407 14.3366 5.17174C14.2088 5.27784 14.2338 5.46167 14.3564 5.59217C14.4064 5.65377 14.4786 5.69336 14.5574 5.70248C14.6363 5.7116 14.7156 5.68952 14.7783 5.64097C14.8479 5.593 14.9106 5.53573 14.9646 5.47075C15.0543 5.36578 15.135 5.32891 15.2894 5.37373C15.6914 5.49288 16.048 5.38167 16.3206 5.06223C16.5932 4.74279 16.6431 4.37342 16.4694 3.9927C16.2956 3.61198 15.9856 3.41623 15.6841 3.40375H15.6823ZM6.13631 3.40375C6.0038 3.4018 5.8722 3.42595 5.74902 3.47483C5.62585 3.5237 5.51352 3.59634 5.41844 3.6886C5.32337 3.78086 5.24741 3.89092 5.19492 4.01251C5.14242 4.13411 5.11441 4.26484 5.11249 4.39725C5.10454 4.95897 5.57131 5.44692 6.14086 5.39926C6.4509 5.37373 6.69224 5.36749 6.90802 5.63416C7.0142 5.76523 7.20102 5.72097 7.32368 5.59104C7.44633 5.4611 7.44633 5.30734 7.3481 5.16436C7.2975 5.09601 7.23833 5.03441 7.17206 4.98109C7.07666 4.89996 7.05452 4.82336 7.092 4.68946C7.27655 4.02731 6.81034 3.40716 6.13802 3.40318L6.13631 3.40375Z" fill="#0071BC"/>
<path d="M14.2502 19.0405H15.2809C15.4722 18.4873 15.8396 18.1469 16.4205 18.0493C17.1258 17.9307 17.8623 18.4879 17.9406 19.2051C18.0287 20.0028 17.4654 20.7087 16.7135 20.7433C16.065 20.7728 15.5818 20.4726 15.3314 19.8661C15.2871 19.7594 15.2354 19.7299 15.1298 19.731C14.7471 19.7356 14.3649 19.7345 13.9822 19.731C13.6597 19.731 13.5518 19.6215 13.5512 19.2953C13.5512 18.1556 13.5512 17.0157 13.5512 15.8756V15.6067H11.181V15.8081C11.181 16.4952 11.1844 17.1818 11.181 17.8689C11.181 18.013 11.2128 18.0885 11.3616 18.1475C11.6271 18.2525 11.8518 18.4398 12.0028 18.682C12.1538 18.9242 12.223 19.2083 12.2003 19.4927C12.1765 19.802 12.0475 20.0938 11.8347 20.3196C11.6218 20.5455 11.338 20.6916 11.0305 20.7339C10.7229 20.7761 10.4102 20.7119 10.1443 20.5518C9.87836 20.3918 9.67532 20.1456 9.56891 19.8542C9.44907 19.5324 9.45784 19.1769 9.59339 18.8614C9.72894 18.5459 9.98087 18.2947 10.2969 18.16C10.4672 18.0896 10.511 18.0079 10.5087 17.8377C10.4996 17.1721 10.5053 16.5066 10.5053 15.841V15.6016H8.1351V15.8643C8.1351 16.99 8.1351 18.1157 8.1351 19.2414C8.1351 19.6386 8.04538 19.7305 7.65129 19.7316C7.30434 19.7316 6.95682 19.7379 6.60987 19.7282C6.4628 19.7242 6.39182 19.7668 6.33276 19.9126C6.21779 20.1976 6.00853 20.4346 5.73986 20.5841C5.4712 20.7336 5.15938 20.7866 4.85636 20.7342C4.55437 20.6799 4.27945 20.5256 4.0759 20.2962C3.87236 20.0668 3.75203 19.7756 3.7343 19.4695C3.71509 19.1668 3.79889 18.8665 3.97208 18.6174C4.14527 18.3684 4.39768 18.1851 4.68828 18.0975C5.41285 17.8706 6.10165 18.2456 6.4026 19.036H7.43835V15.5885H7.18396C5.24988 15.5885 3.31561 15.5885 1.38115 15.5885C0.660555 15.5885 0.131892 15.197 0.0262729 14.5542C-0.0185868 14.2852 0.00810275 14.0038 0.00583137 13.7281C0.00355999 13.4523 0.00583137 13.1777 0.00583137 12.8872H8.45195C8.46445 13.0353 8.47126 13.1817 8.49 13.3269C8.52719 13.6571 8.68267 13.9626 8.92774 14.1872C9.17281 14.4117 9.49091 14.5401 9.8233 14.5485C10.4604 14.5644 11.0987 14.5582 11.7358 14.5536C12.5995 14.5474 13.181 13.9726 13.2122 13.1062C13.2122 13.037 13.2179 12.9678 13.2218 12.8855H21.6685C21.6685 13.4432 21.7145 13.9982 21.6566 14.5423C21.5885 15.1874 21.032 15.5874 20.3165 15.5885C18.3824 15.5908 16.4482 15.5908 14.5137 15.5885H14.2502V19.0405Z" fill="#0071BC"/>
<path d="M20.6641 12.1927H19.642V11.9271C19.642 8.88969 19.642 5.85265 19.642 2.81598C19.642 1.71581 18.9543 1.0287 17.8538 1.0287C13.1782 1.0287 8.50258 1.04005 3.82808 1.02019C2.80085 1.01565 2.02063 1.78844 2.02858 2.81371C2.05243 5.85038 2.0371 8.88478 2.0371 11.9248V12.1875H1.01498V11.964C1.01498 8.85584 1.03031 5.74768 1.00703 2.64009C0.997942 1.39183 1.87697 0.24457 3.16484 0.0380408C3.33416 0.0148891 3.50505 0.0052125 3.6759 0.00910338C8.45034 0.00910338 13.2248 0.0198853 17.9998 2.66793e-05C19.3115 -0.00564721 20.433 0.894231 20.6357 2.17256C20.6557 2.31976 20.6641 2.46831 20.6607 2.61683C20.6607 5.7386 20.6607 8.86056 20.6607 11.9827L20.6641 12.1927Z" fill="#0071BC"/>
<path d="M9.16474 12.8802H12.5071C12.6434 13.451 12.3009 13.8913 11.7212 13.8953C11.1533 13.8993 10.5855 13.8953 10.0176 13.8953C9.39358 13.8953 9.07957 13.5322 9.16474 12.8802Z" fill="#0071BC"/>
<path d="M10.8424 10.8435C9.84418 10.8435 8.84571 10.8435 7.84707 10.8435C7.27922 10.8435 6.86981 10.503 6.77895 9.95381C6.70002 9.47948 7.01347 9.01649 7.53078 8.844C7.77722 8.76173 7.85559 8.63463 7.8147 8.37817C7.72271 7.77277 7.98051 7.22524 8.49044 6.94382C9.00036 6.66239 9.58922 6.73048 10.052 7.12084C10.3427 7.36595 10.5114 7.33248 10.7011 6.99204C11.0985 6.28281 11.8935 5.94521 12.6516 6.16309C13.0191 6.26701 13.341 6.49132 13.5656 6.80002C13.7902 7.10871 13.9045 7.48388 13.8901 7.86526C13.8805 8.00595 13.8557 8.14519 13.8162 8.28058C13.7243 8.62102 13.7879 8.74584 14.1274 8.83946C14.5329 8.95294 14.7901 9.20486 14.881 9.61622C14.9138 9.76335 14.9132 9.91598 14.8793 10.0629C14.8453 10.2097 14.7788 10.3471 14.6846 10.4649C14.5905 10.5827 14.4711 10.678 14.3353 10.7436C14.1994 10.8092 14.0506 10.8435 13.8997 10.844C12.881 10.8475 11.8623 10.8435 10.8424 10.8435Z" fill="#0071BC"/>
<path d="M11.1776 3.39172C11.1826 3.43947 11.1774 3.48773 11.1625 3.53333C11.1475 3.57894 11.123 3.62086 11.0906 3.65635C11.0583 3.69184 11.0188 3.72009 10.9747 3.73925C10.9307 3.75841 10.8831 3.76804 10.835 3.76752C10.787 3.76699 10.7396 3.75632 10.696 3.73621C10.6524 3.7161 10.6135 3.68699 10.5819 3.65081C10.5504 3.61462 10.5268 3.57218 10.5128 3.52625C10.4988 3.48033 10.4947 3.43197 10.5007 3.38435C10.5112 3.30149 10.5519 3.22537 10.6149 3.17049C10.6779 3.1156 10.7589 3.08578 10.8425 3.08669C10.9261 3.0876 11.0064 3.11918 11.0682 3.17543C11.13 3.23167 11.1689 3.30865 11.1776 3.39172Z" fill="#0071BC"/>
<path d="M15.559 4.06605C15.6498 4.06853 15.7358 4.10693 15.7982 4.1728C15.8606 4.23866 15.8943 4.3266 15.8918 4.41726C15.8893 4.50792 15.8509 4.59389 15.785 4.65625C15.719 4.7186 15.631 4.75224 15.5403 4.74975C15.4954 4.74852 15.4511 4.73846 15.4101 4.72015C15.369 4.70183 15.332 4.67562 15.3011 4.64301C15.2702 4.61039 15.246 4.57202 15.23 4.53007C15.2139 4.48813 15.2063 4.44343 15.2075 4.39854C15.2088 4.35365 15.2188 4.30943 15.2372 4.26843C15.2555 4.22742 15.2817 4.19043 15.3144 4.15955C15.347 4.12868 15.3854 4.10453 15.4274 4.08849C15.4694 4.07244 15.5141 4.06482 15.559 4.06605Z" fill="#0071BC"/>
<path d="M6.46455 4.40408C6.46596 4.49285 6.43261 4.57865 6.37161 4.6432C6.31062 4.70775 6.22681 4.74594 6.13804 4.74962C6.09311 4.75018 6.04851 4.74189 6.00678 4.72523C5.96506 4.70857 5.92704 4.68386 5.89487 4.65251C5.86271 4.62116 5.83703 4.58378 5.81932 4.54252C5.80161 4.50126 5.79221 4.45692 5.79165 4.41203C5.79109 4.36713 5.79939 4.32257 5.81607 4.28088C5.83274 4.23919 5.85747 4.20119 5.88885 4.16906C5.92022 4.13692 5.95762 4.11127 5.99892 4.09357C6.04021 4.07587 6.08459 4.06648 6.12952 4.06592C6.2185 4.0674 6.30337 4.10361 6.36598 4.1668C6.42859 4.23 6.46397 4.31516 6.46455 4.40408Z" fill="#0071BC"/>
</svg>
