<svg width="20" height="23" viewBox="0 0 20 23" fill="none" xmlns="http://www.w3.org/2000/svg">
<path d="M5.25605 12.8038V12.0461C4.83922 12.0461 4.4327 12.0461 4.02619 12.0461C3.70158 12.0461 3.3436 11.9705 3.06208 12.0823C2.78055 12.1941 2.59792 12.5011 2.36311 12.7138C2.2181 12.8449 2.14408 12.9682 2.16532 13.1893C2.17597 13.3098 2.16066 13.4312 2.1204 13.5454C2.08015 13.6595 2.01589 13.7638 1.93191 13.8512C1.84793 13.9386 1.74617 14.0072 1.63344 14.0523C1.52071 14.0973 1.39962 14.1179 1.27825 14.1127C1.15895 14.1079 1.04186 14.079 0.934089 14.0278C0.826316 13.9766 0.730109 13.9042 0.651301 13.8149C0.572493 13.7255 0.51273 13.6212 0.475633 13.5081C0.438537 13.3951 0.424883 13.2757 0.435497 13.1573C0.490711 12.631 0.954261 12.2926 1.48213 12.3784C1.52766 12.3827 1.57361 12.3781 1.61734 12.3647C1.66107 12.3513 1.70172 12.3295 1.73695 12.3004C2.02091 12.04 2.28302 11.7536 2.57244 11.5028C2.69499 11.3985 2.84787 11.336 3.00868 11.3246C3.75012 11.3064 4.49156 11.3161 5.25363 11.3161V10.0121C5.19295 10.0084 5.12924 9.99999 5.06432 9.99999C4.14086 9.99999 3.21741 9.99999 2.29395 9.99999C2.23945 9.99512 2.18467 10.0058 2.13601 10.0307C2.08735 10.0556 2.04681 10.0938 2.01909 10.1408C1.91489 10.2956 1.76194 10.4116 1.58431 10.4703C1.40669 10.529 1.21449 10.5273 1.03799 10.4653C0.862234 10.4086 0.70911 10.2977 0.6007 10.1488C0.492289 9.99977 0.434194 9.82034 0.434801 9.63635C0.435409 9.45235 0.494685 9.27331 0.604077 9.12504C0.713469 8.97677 0.867322 8.86694 1.04345 8.81139C1.40749 8.69053 1.79035 8.82529 2.03062 9.13709C2.08336 9.21014 2.16297 9.25944 2.25208 9.27426C3.22286 9.28333 4.19001 9.2797 5.15898 9.27909C5.19231 9.27716 5.22552 9.27352 5.25848 9.26821V7.96239H5.0079C4.35687 7.96239 3.70583 7.95574 3.05479 7.96602C2.95716 7.97068 2.85971 7.95369 2.76947 7.91628C2.67924 7.87887 2.59847 7.82196 2.533 7.74968C2.27574 7.483 2.0106 7.22457 1.73756 6.97441C1.66642 6.91616 1.57501 6.88835 1.48333 6.89706C0.950615 6.97803 0.488889 6.63722 0.441563 6.1115C0.431337 5.99114 0.44626 5.86998 0.485395 5.75565C0.524531 5.64132 0.587026 5.5363 0.668943 5.44722C0.750861 5.35814 0.850426 5.28693 0.961352 5.23809C1.07228 5.18924 1.19216 5.16381 1.31345 5.16341C1.43675 5.16341 1.55862 5.18969 1.67088 5.24049C1.78314 5.29129 1.88318 5.36544 1.96428 5.45794C2.04537 5.55044 2.10565 5.65916 2.14106 5.77679C2.17647 5.89442 2.18619 6.01823 2.16956 6.13991C2.15706 6.2074 2.1636 6.27701 2.18845 6.34102C2.2133 6.40503 2.25549 6.46092 2.31032 6.50247C2.56637 6.73693 2.77751 7.06928 3.07664 7.19315C3.37576 7.31703 3.74405 7.22458 4.08747 7.22578C4.47154 7.22578 4.85621 7.22578 5.27122 7.22578C5.27896 7.03383 5.27653 6.84161 5.26394 6.64991C5.25727 6.59371 5.17051 6.52483 5.10619 6.50005C4.63415 6.31877 4.1621 6.13749 3.68338 5.97494C3.58689 5.94453 3.49752 5.89511 3.4206 5.8296C3.34367 5.7641 3.28076 5.68386 3.2356 5.59365C2.90432 4.98515 2.55787 4.38511 2.22113 3.78084C2.19968 3.73043 2.16364 3.68753 2.1176 3.65761C2.07157 3.6277 2.01763 3.61211 1.96266 3.61285C1.5883 3.59049 1.27158 3.29017 1.19513 2.91854C1.16245 2.74316 1.18399 2.56203 1.2569 2.39911C1.32981 2.23618 1.45067 2.09914 1.60347 2.00609C1.75975 1.91185 1.94172 1.86869 2.12388 1.88267C2.30603 1.89665 2.47923 1.96707 2.61916 2.08405C2.91768 2.33724 3.02385 2.73182 2.85821 3.08411C2.82527 3.14457 2.80997 3.213 2.81405 3.28166C2.81812 3.35033 2.84141 3.41649 2.88127 3.47266C3.1992 4.02013 3.50136 4.57666 3.8205 5.12292C3.87747 5.21602 3.96237 5.28895 4.0632 5.3314C4.477 5.49576 4.89868 5.63897 5.3143 5.7991C5.43565 5.84563 5.51513 5.84563 5.61221 5.74351C5.81608 5.52839 6.08607 5.4595 6.3761 5.45829H6.82448C6.82448 4.88121 6.82448 4.33254 6.82448 3.78326C6.82059 3.29234 6.91958 2.80602 7.11511 2.35536C7.70608 1.02597 9.12767 0.202346 10.5474 0.373958C12.0643 0.55524 13.2468 1.6677 13.4907 3.14877C13.5244 3.38737 13.5403 3.62812 13.5381 3.86906C13.5447 4.38813 13.5381 4.9072 13.5381 5.45829H13.9816C14.1371 5.45237 14.2921 5.47856 14.437 5.53524C14.5818 5.59192 14.7133 5.67785 14.8232 5.78762C14.853 5.80956 14.8875 5.82441 14.924 5.83101C14.9605 5.83761 14.998 5.83579 15.0337 5.82569C15.49 5.66737 15.9438 5.5018 16.3928 5.32535C16.4864 5.28367 16.5647 5.21398 16.6167 5.12594C16.9419 4.56578 17.2519 3.99656 17.5771 3.43399C17.6099 3.38605 17.6281 3.32974 17.6296 3.27177C17.6311 3.21381 17.6159 3.15663 17.5856 3.10707C17.5047 2.93921 17.4817 2.74945 17.5201 2.56722C17.5585 2.38499 17.6562 2.22046 17.798 2.09915C17.9342 1.97787 18.1052 1.90219 18.2869 1.88278C18.4685 1.86338 18.6517 1.90122 18.8107 1.99099C18.9726 2.08353 19.1009 2.22478 19.1772 2.39446C19.2535 2.56414 19.2739 2.75353 19.2354 2.93546C19.1917 3.11605 19.0934 3.27891 18.9537 3.40202C18.8141 3.52512 18.6398 3.60251 18.4545 3.62373C18.4073 3.63321 18.3624 3.65193 18.3226 3.67879C18.2827 3.70566 18.2485 3.74013 18.2221 3.78023C17.8702 4.3845 17.5264 4.99502 17.1907 5.61178C17.1057 5.78052 16.9572 5.90891 16.7775 5.9689C16.2921 6.1387 15.8164 6.33146 15.3316 6.49462C15.1654 6.55504 15.075 6.6203 15.1023 6.81005C15.1128 6.94879 15.114 7.08809 15.1059 7.22699H15.3886C15.979 7.22699 16.57 7.22034 17.1597 7.23062C17.2342 7.23596 17.3089 7.22363 17.3777 7.19464C17.4464 7.16565 17.5073 7.12082 17.5553 7.06384C17.6821 6.9239 17.817 6.79154 17.9594 6.66744C18.1663 6.48616 18.3016 6.31152 18.2725 5.98884C18.23 5.51993 18.7045 5.13078 19.1826 5.16401C19.3017 5.17239 19.4179 5.20496 19.5239 5.25971C19.63 5.31447 19.7236 5.39025 19.7992 5.4824C19.8747 5.57455 19.9305 5.68111 19.9631 5.79554C19.9958 5.90997 20.0046 6.02983 19.989 6.14777C19.9283 6.63783 19.4659 6.98891 18.9848 6.89162C18.9278 6.87558 18.8672 6.87654 18.8107 6.89436C18.7542 6.91219 18.7042 6.94611 18.6669 6.99193C18.4072 7.256 18.1511 7.5255 17.8696 7.76419C17.7407 7.87292 17.5806 7.93828 17.4121 7.95091C16.6567 7.96964 15.9001 7.95937 15.1253 7.95937V9.26217C15.1914 9.2664 15.2576 9.27426 15.3231 9.27426C16.2617 9.27426 17.2004 9.27426 18.139 9.27426C18.1936 9.27988 18.2486 9.26983 18.2976 9.24531C18.3466 9.22079 18.3876 9.18283 18.4157 9.13588C18.5191 8.98054 18.6714 8.86384 18.8486 8.80412C19.0259 8.74439 19.2181 8.74504 19.3949 8.80595C19.5707 8.86243 19.724 8.97295 19.8327 9.12165C19.9414 9.27035 20 9.44956 20 9.6335C20 9.81744 19.9414 9.99664 19.8327 10.1453C19.724 10.294 19.5707 10.4046 19.3949 10.4611C19.0309 10.5819 18.6499 10.4532 18.4072 10.139C18.3598 10.0785 18.2755 10.003 18.2076 10.0024C17.2082 9.99394 16.209 9.99697 15.2103 9.99818C15.1783 10.0013 15.1466 10.0072 15.1156 10.0157V11.3137H15.3583C16.0391 11.3137 16.7204 11.3191 17.4018 11.3137C17.4925 11.3093 17.583 11.3249 17.6669 11.3594C17.7508 11.3939 17.826 11.4463 17.8872 11.5131C18.1505 11.7838 18.4205 12.0485 18.6996 12.3029C18.7347 12.3314 18.7751 12.3527 18.8186 12.3655C18.862 12.3782 18.9076 12.3822 18.9526 12.3772C19.0706 12.3554 19.1918 12.3579 19.3087 12.3845C19.4257 12.4111 19.5359 12.4613 19.6327 12.5319C19.7294 12.6026 19.8106 12.6922 19.8713 12.7953C19.932 12.8983 19.9708 13.0127 19.9855 13.1313C20.0001 13.2498 19.9902 13.3702 19.9564 13.4848C19.9226 13.5994 19.8656 13.706 19.7889 13.7978C19.7123 13.8897 19.6175 13.965 19.5105 14.019C19.4035 14.0731 19.2866 14.1047 19.1668 14.112C18.6632 14.1411 18.2185 13.7199 18.2664 13.2026C18.2889 12.9609 18.1985 12.8316 18.0443 12.692C17.815 12.4847 17.6281 12.1844 17.3612 12.0769C17.0942 11.9693 16.7508 12.0473 16.4401 12.0461C16.0033 12.0461 15.5664 12.0461 15.1053 12.0461C15.1053 12.2763 15.0944 12.4793 15.1126 12.6793C15.118 12.7343 15.2042 12.8062 15.2673 12.828C15.768 12.996 16.2708 13.1571 16.7756 13.3114C16.8622 13.3361 16.9427 13.3785 17.0118 13.4359C17.081 13.4934 17.1374 13.5646 17.1773 13.6449C17.5175 14.2661 17.866 14.8829 18.2227 15.4952C18.2493 15.5355 18.2836 15.57 18.3237 15.5969C18.3638 15.6237 18.4089 15.6424 18.4563 15.6517C18.6417 15.6722 18.8161 15.7494 18.9556 15.8726C19.0951 15.9959 19.1929 16.1592 19.2354 16.34C19.273 16.5165 19.2549 16.7003 19.1834 16.8661C19.1119 17.0319 18.9906 17.1715 18.8361 17.2659C18.6817 17.3602 18.5017 17.4045 18.3209 17.3928C18.1401 17.3811 17.9674 17.3139 17.8265 17.2005C17.5232 16.9521 17.4054 16.5533 17.5729 16.2053C17.6548 16.0348 17.6227 15.9212 17.5383 15.7762C17.235 15.2481 16.9419 14.7109 16.6318 14.1852C16.5678 14.0802 16.4714 13.9986 16.357 13.9525C15.9165 13.7966 15.4657 13.6685 15.0222 13.5187C14.9008 13.4782 14.8262 13.5078 14.7188 13.5658C14.5119 13.6746 14.2813 13.7785 14.0514 13.7996C13.6461 13.8365 13.2347 13.8105 12.8264 13.8099C12.7735 13.8129 12.7205 13.8078 12.6692 13.7948C12.3659 13.6927 12.0625 13.5857 11.7209 13.4661V13.1005C11.7209 12.3391 11.716 11.5771 11.7209 10.8157C11.7251 10.4048 11.6098 10.0399 11.332 9.73834C11.2331 9.63078 11.2786 9.55706 11.3235 9.46098C11.3944 9.30274 11.4315 9.13157 11.4326 8.9583C11.4337 8.78502 11.3986 8.61341 11.3297 8.45431C11.2608 8.29521 11.1595 8.15207 11.0322 8.03397C10.9048 7.91586 10.7543 7.82534 10.5901 7.76814C10.4258 7.71093 10.2515 7.68828 10.078 7.70162C9.90454 7.71496 9.73574 7.764 9.58227 7.84564C9.4288 7.92728 9.29401 8.03974 9.18641 8.17591C9.07882 8.31208 9.00076 8.469 8.95718 8.63675C8.88315 8.92137 8.9323 9.23438 9.11796 9.63562C8.69324 10.029 8.61861 10.542 8.62771 11.0973C8.64106 11.9119 8.63136 12.7289 8.63136 13.541V13.8148H8.11866C7.55136 13.8148 6.98345 13.8148 6.41554 13.8148C6.11823 13.8148 5.84884 13.7543 5.61525 13.5549C5.58696 13.5358 5.55492 13.5228 5.52125 13.5169C5.48758 13.511 5.45304 13.5122 5.41987 13.5205C4.95086 13.6637 4.48367 13.8123 4.01952 13.97C3.93756 14.0004 3.868 14.0569 3.82172 14.1308C3.48619 14.7121 3.1543 15.2952 2.83698 15.8832C2.79875 15.9539 2.81817 16.0789 2.85215 16.1617C2.89995 16.2708 2.92502 16.3883 2.92584 16.5073C2.92666 16.6263 2.90321 16.7442 2.85692 16.8538C2.81062 16.9635 2.74244 17.0627 2.65652 17.1453C2.57059 17.228 2.46871 17.2924 2.35704 17.3346C2.24707 17.3761 2.12981 17.395 2.01231 17.3903C1.89481 17.3855 1.7795 17.3571 1.6733 17.3068C1.56709 17.2565 1.47219 17.1854 1.39429 17.0976C1.3164 17.0099 1.25712 16.9074 1.22001 16.7962C1.05922 16.3213 1.32619 15.7762 1.82675 15.6916C2.10646 15.6445 2.21082 15.4958 2.32428 15.2904C2.62765 14.7363 2.95165 14.1906 3.25381 13.6347C3.29478 13.5548 3.35204 13.4843 3.42194 13.4277C3.49183 13.3711 3.57281 13.3296 3.65971 13.3059C4.19668 13.1464 4.72698 12.973 5.25605 12.8038ZM11.9345 5.44198C11.9345 4.80266 11.9763 4.17301 11.9247 3.55423C11.8911 3.10944 11.6851 2.6951 11.3503 2.39886C11.0155 2.10261 10.5781 1.94767 10.1306 1.96681C9.1489 2.01637 8.44691 2.7421 8.43538 3.72766C8.42931 4.24008 8.43538 4.75492 8.43538 5.26492C8.43823 5.3242 8.4441 5.38329 8.45297 5.44198H11.9345Z" fill="#0071BC"/>
<path d="M9.35699 16.96V16.7183C9.35699 14.7351 9.35699 12.7521 9.35699 10.7693C9.35203 10.5946 9.40272 10.4228 9.5018 10.2785C9.60087 10.1343 9.74324 10.0249 9.90852 9.9662C10.2404 9.85079 10.6366 9.94082 10.8186 10.2375C10.9326 10.4293 10.9943 10.6474 10.9976 10.8702C11.014 12.1065 11.0055 13.3429 11.0055 14.5798V14.8656C11.2549 14.3991 11.591 14.181 12.054 14.317C12.6401 14.4898 12.674 14.9865 12.6498 15.5666C12.9174 15.1098 13.2565 14.9055 13.7025 15.0445C14.2795 15.2258 14.3244 15.7146 14.3092 16.2343C14.4554 15.9962 14.6338 15.8216 14.8947 15.7575C15.4044 15.6318 15.9062 15.969 15.9213 16.5008C15.9596 17.8652 15.9486 19.2297 15.5306 20.5524C15.2794 21.3458 15.28 21.3458 14.4615 21.3458H9.19378C8.77816 19.7747 7.69756 18.5571 7.01922 17.1335C6.84145 16.7594 6.64304 16.3938 6.48711 16.0113C6.40551 15.8104 6.36428 15.5954 6.36576 15.3787C6.37244 14.9224 6.81293 14.6221 7.25828 14.7357C7.57014 14.8161 7.78007 15.0264 7.96937 15.2681C8.41432 15.8377 8.86149 16.4067 9.31088 16.9751L9.35699 16.96Z" fill="#0071BC"/>
<path d="M9.2356 22.6994V22.0697H14.9638V22.6994H9.2356Z" fill="#0071BC"/>
</svg>
