<svg width="16" height="23" viewBox="0 0 16 23" fill="none" xmlns="http://www.w3.org/2000/svg">
<g clip-path="url(#clip0_407_3803)">
<path d="M7.90544 14.8396C6.37948 14.8396 4.85351 14.8396 3.32754 14.8437C3.24908 14.848 3.17076 14.8334 3.09983 14.8013C3.0289 14.7692 2.96765 14.7207 2.92176 14.6602C-0.171899 11.0746 1.81668 5.70756 6.59532 4.74345C10.1207 4.03112 13.646 6.2889 14.264 9.6677C14.605 11.5263 14.1251 13.187 12.8884 14.6595C12.8431 14.7205 12.7821 14.7694 12.7112 14.8017C12.6403 14.834 12.5618 14.8484 12.4833 14.8437C10.9574 14.8369 9.43357 14.8396 7.90544 14.8396ZM4.93336 9.92698H4.9384C4.9384 10.6318 4.87509 11.3435 4.95135 12.0421C5.11035 13.4914 6.72698 14.624 8.24143 14.4091C9.87172 14.1771 10.9171 13.0281 10.9221 11.4567C10.9221 10.4448 10.9308 9.4323 10.9178 8.42043C10.9159 8.13189 10.8788 7.84453 10.807 7.56413C10.4674 6.28411 9.13212 5.36709 7.7558 5.44897C6.30322 5.53767 5.09381 6.55636 4.9456 7.88891C4.87293 8.5603 4.93336 9.24535 4.93336 9.92493V9.92698Z" fill="#0071BC"/>
<path d="M1.44751 21.359V17.3136H14.3502V19.7433H13.3804C12.7329 19.7433 12.0854 19.7433 11.4415 19.7433C11.1285 19.7433 10.9256 19.9098 10.9235 20.1493C10.9213 20.3888 11.1249 20.5587 11.4372 20.5587C12.3077 20.5621 13.1783 20.5587 14.0495 20.5587H14.3531V21.3549L1.44751 21.359ZM9.18742 20.56H9.58889C9.60662 20.5611 9.6244 20.5611 9.64212 20.56C9.74987 20.5518 9.85092 20.5072 9.92696 20.4344C10.003 20.3615 10.049 20.2652 10.0565 20.1629C10.0568 20.0555 10.0129 19.9523 9.93417 19.8751C9.85545 19.7979 9.74811 19.7528 9.63493 19.7495C9.34086 19.7355 9.04623 19.7355 8.75216 19.7495C8.64349 19.7535 8.54044 19.7963 8.46361 19.8693C8.38678 19.9423 8.34183 20.0401 8.33775 20.1432C8.33891 20.2503 8.38322 20.3529 8.46161 20.43C8.53999 20.5072 8.64652 20.5529 8.75935 20.558C8.90108 20.5696 9.04497 20.56 9.18814 20.56H9.18742Z" fill="#0071BC"/>
<path d="M14.351 22.9999H1.45471V22.2146H14.351V22.9999Z" fill="#0071BC"/>
<path d="M13.7653 16.4648H2.05615C2.35473 16.1837 2.61301 15.9333 2.88209 15.6945C2.92454 15.657 3.01663 15.6604 3.0857 15.6604C6.29927 15.6604 9.5114 15.6604 12.7221 15.6604C12.8171 15.6585 12.91 15.6874 12.9854 15.7423C13.2372 15.9606 13.4739 16.1926 13.7653 16.4648Z" fill="#0071BC"/>
<path d="M13.9898 6.80125C13.5639 6.37617 13.1495 5.96677 12.7444 5.5492C12.7243 5.51972 12.7114 5.48636 12.7065 5.45155C12.7016 5.41674 12.705 5.38134 12.7164 5.34792C12.9703 4.68608 13.2142 4.01946 13.5078 3.36922C13.5963 3.17272 13.8351 3.04104 13.9855 2.865C14.1271 2.71583 14.2449 2.54779 14.3352 2.36623C14.6136 1.70439 14.8661 1.03231 15.1302 0.365006C15.2532 0.0559193 15.4568 -0.061438 15.7158 0.0238508C15.9748 0.10914 16.0698 0.33635 15.946 0.655671C15.7518 1.15717 15.5654 1.66276 15.3503 2.15675C15.1409 2.63437 14.9999 3.11199 15.1165 3.63873C15.1383 3.78891 15.118 3.94189 15.0575 4.08223C14.7071 4.99448 14.3452 5.89855 13.9898 6.80125Z" fill="#0071BC"/>
<path d="M1.94032 6.65663C1.58059 5.7512 1.20431 4.84511 0.878401 3.92262C0.799261 3.69883 0.907179 3.41976 0.90502 3.16662C0.909823 2.99888 0.885517 2.83153 0.833075 2.67126C0.578387 1.98895 0.299242 1.32165 0.0459932 0.642072C-0.00077148 0.517209 -0.0187579 0.336397 0.0459932 0.232686C0.0904458 0.173157 0.147024 0.122685 0.212394 0.0842464C0.277763 0.0458075 0.350601 0.0201796 0.426589 0.00888578C0.631634 -0.0163597 0.769762 0.126237 0.841708 0.309779C1.09712 0.962067 1.37123 1.60618 1.60074 2.26802C1.71801 2.6044 1.96047 2.82068 2.20724 3.05676C2.362 3.2046 2.48577 3.37895 2.57201 3.57054C2.80367 4.10343 3.008 4.64723 3.21304 5.19035C3.2411 5.26267 3.24613 5.38686 3.20009 5.43325C2.79144 5.84264 2.37487 6.23769 1.94032 6.65663Z" fill="#0071BC"/>
<path d="M10.0587 9.94257C10.0579 10.3467 9.93062 10.7415 9.69309 11.0771C9.45556 11.4126 9.11842 11.6738 8.72432 11.8276C8.33023 11.9814 7.89689 12.0209 7.47913 11.941C7.06138 11.8612 6.67798 11.6656 6.37745 11.3791C6.07692 11.0925 5.87277 10.7279 5.79082 10.3313C5.70887 9.9347 5.7528 9.52396 5.91706 9.15104C6.08133 8.77812 6.35854 8.45978 6.71362 8.23631C7.0687 8.01285 7.4857 7.89429 7.91185 7.89564C8.19478 7.89555 8.47494 7.94851 8.73621 8.05148C8.99747 8.15445 9.23468 8.30539 9.43421 8.49563C9.63373 8.68587 9.79163 8.91164 9.89881 9.15996C10.006 9.40829 10.0603 9.67426 10.0587 9.94257ZM7.91185 11.1619C8.1685 11.161 8.4191 11.0879 8.63184 10.9517C8.84458 10.8156 9.00986 10.6226 9.10671 10.3972C9.20356 10.1718 9.22761 9.92416 9.17579 9.68577C9.12398 9.44739 8.99865 9.22898 8.81571 9.05827C8.63277 8.88756 8.40047 8.77224 8.1483 8.72697C7.89613 8.6817 7.63546 8.70852 7.39939 8.804C7.16332 8.89948 6.96248 9.05933 6.82238 9.26326C6.68228 9.46719 6.60924 9.70601 6.61252 9.94939C6.62162 10.2716 6.76207 10.578 7.00437 10.8041C7.24667 11.0302 7.57195 11.1584 7.91185 11.1619Z" fill="#0071BC"/>
<path d="M5.82617 12.0258C7.21137 13.0588 8.59728 13.0588 9.98392 12.0258C9.84866 12.9244 8.90473 13.6217 7.84856 13.6115C6.8737 13.604 5.93985 12.8718 5.82617 12.0258Z" fill="#0071BC"/>
<path d="M9.99253 7.86296C8.7968 6.86815 7.12909 6.78284 5.83191 7.84725C5.89594 7.07897 6.83052 6.30045 7.73416 6.26156C8.84932 6.2138 9.80547 6.88248 9.99253 7.86296Z" fill="#0071BC"/>
<path d="M8.33421 9.94671C8.33255 10.0281 8.30534 10.1072 8.25605 10.1739C8.20676 10.2405 8.13763 10.2917 8.0575 10.3209C7.97737 10.3501 7.88988 10.356 7.8062 10.3378C7.72252 10.3197 7.64647 10.2782 7.58775 10.2189C7.52902 10.1595 7.4903 10.0848 7.47654 10.0045C7.46277 9.92411 7.47458 9.84167 7.51045 9.76771C7.54633 9.69374 7.60464 9.63161 7.67794 9.58923C7.75124 9.54686 7.8362 9.52618 7.92196 9.52983C7.97808 9.53096 8.0334 9.5427 8.08467 9.56438C8.13594 9.58606 8.18212 9.61723 8.22052 9.65606C8.25892 9.6949 8.28876 9.7406 8.30828 9.79051C8.32781 9.84042 8.33662 9.89353 8.33421 9.94671Z" fill="#0071BC"/>
</g>
<defs>
<clipPath id="clip0_407_3803">
<rect width="16" height="23" fill="white"/>
</clipPath>
</defs>
</svg>
