<svg width="32" height="33" viewBox="0 0 32 33" fill="none" xmlns="http://www.w3.org/2000/svg">
<g clip-path="url(#clip0_1429_37)">
<rect width="32" height="33" fill="white"/>
<path d="M12.9985 5.88672C10.3277 6.03865 7.56023 7.09056 5.66054 8.97395C3.76085 10.8573 2.68666 13.3553 2.51172 16.0247H7.88592C7.97319 14.6932 8.58002 13.814 9.52761 12.8745C10.4752 11.935 11.6663 11.0642 12.9985 10.9884V5.88672Z" fill="#FF5F00"/>
<path d="M8.46484 26.5796C10.0632 27.3978 11.9906 27.7569 13.786 27.7283C15.5813 27.6996 17.3421 27.2303 18.9135 26.3615C20.485 25.4928 21.8189 24.2512 22.7979 22.746C23.777 21.2409 24.1796 19.0153 24.3367 17.2266L19.1852 17.2377C19.1069 18.1299 18.682 19.0004 18.1936 19.7512C17.7053 20.502 17.1846 21.0446 16.4008 21.478C15.6169 21.9113 14.7455 22.314 13.8499 22.3282C12.9544 22.3425 10.2083 22.5172 8.46484 19.7774V26.5796Z" fill="#FF5F00"/>
<path d="M2.51172 16.6562H7.89683V33.095C7.89683 33.095 6.02647 32.9619 4.95778 32.5969C3.86278 32.2228 2.51172 31.1982 2.51172 31.1982V16.6562Z" fill="#FF5F00"/>
<rect x="13.5586" y="5.88672" width="16.4387" height="5.10168" fill="#00987F"/>
<rect x="24.3281" y="0.21875" width="16.4387" height="5.10168" transform="rotate(90 24.3281 0.21875)" fill="#00987F"/>
</g>
<defs>
<clipPath id="clip0_1429_37">
<rect width="32" height="33" fill="white"/>
</clipPath>
</defs>
</svg>
