<svg width="15" height="15" viewBox="0 0 15 15" fill="none" xmlns="http://www.w3.org/2000/svg">
<path d="M13.9286 13.1249L13.9286 13.1248L11.9898 11.2327C12.9874 10.1356 13.5947 8.69061 13.5947 7.10925C13.5947 3.683 10.7457 0.9 7.24768 0.9C3.74966 0.9 0.9 3.68298 0.9 7.10925C0.9 10.5355 3.74965 13.3191 7.24768 13.3191C8.71239 13.3191 10.0631 12.8312 11.1384 12.0126L13.1089 13.9342L13.109 13.9343C13.2229 14.0449 13.3714 14.1 13.5187 14.1C13.6663 14.1 13.8158 14.0451 13.9294 13.9327C14.1575 13.7094 14.1565 13.3477 13.9286 13.1249ZM2.06227 7.10925C2.06227 4.31648 4.38639 2.04104 7.24768 2.04104C10.1083 2.04104 12.4324 4.31647 12.4324 7.10925C12.4324 9.90204 10.1083 12.1781 7.24768 12.1781C4.38641 12.1781 2.06227 9.90203 2.06227 7.10925Z" fill="white" stroke="white" stroke-width="0.2"/>
</svg>
