<svg width="24" height="24" viewBox="0 0 24 24" fill="none" xmlns="http://www.w3.org/2000/svg">
<path d="M23.8966 5.46401C23.8966 4.42829 23.5518 3.55329 22.8621 2.83901C22.1725 2.12472 21.3449 1.76758 20.3794 1.76758H3.62076C2.65524 1.76758 1.82765 2.12472 1.138 2.83901C0.448343 3.55329 0.103516 4.42829 0.103516 5.46401V15.3747C0.103516 16.4104 0.448343 17.2854 1.138 17.9997C1.82765 18.714 2.65524 19.0711 3.62076 19.0711H20.3794C21.3449 19.0711 22.1725 18.714 22.8621 17.9997C23.5518 17.2854 23.8966 16.4104 23.8966 15.3747V5.46401ZM9.62076 14.6247V5.30329L16.4483 9.96401L9.62076 14.6247Z" fill="#8424FF"/>
</svg>
