<svg width="24" height="24" viewBox="0 0 24 24" fill="none" xmlns="http://www.w3.org/2000/svg">
<path d="M22.3099 18.9951C22.2931 19.0714 22.2778 19.1478 22.2587 19.2242C22.2253 19.3455 22.1648 19.4577 22.0816 19.5522C21.9984 19.6467 21.8949 19.7211 21.7787 19.7697C21.6625 19.8183 21.5368 19.8399 21.4111 19.8328C21.2853 19.8258 21.1628 19.7902 21.0529 19.7289C19.9333 19.0814 18.8184 18.4308 17.6982 17.7818C17.648 17.7593 17.6063 17.7216 17.5789 17.674C17.5514 17.6265 17.5397 17.5715 17.5453 17.5168C17.5504 16.342 17.5504 15.1666 17.5453 13.9908C17.5403 13.9398 17.5514 13.8885 17.577 13.8441C17.6026 13.7997 17.6415 13.7645 17.6882 13.7434C18.7405 13.1386 19.7981 12.5415 20.8358 11.9108C21.3623 11.5917 21.9317 11.555 22.3076 12.2926L22.3099 18.9951Z" fill="#635F60"/>
<path d="M9.85437 20.6468H4.97974C4.29963 20.6468 3.73033 20.4062 3.29857 19.8664C3.03448 19.5483 2.88725 19.1496 2.88134 18.7363C2.87293 16.7144 2.86911 14.6895 2.88134 12.6714C2.88134 12.0316 3.187 11.5192 3.71427 11.155C3.75074 11.1342 3.7913 11.1216 3.83312 11.1181C3.87495 11.1145 3.91706 11.1201 3.95652 11.1344C5.47212 11.814 6.9434 11.7328 8.37035 10.8908C8.43821 10.8532 8.51436 10.833 8.59197 10.832C9.43866 10.8285 10.2849 10.8285 11.1305 10.832C11.2147 10.8347 11.2968 10.8589 11.3689 10.9023C12.7608 11.7167 14.1948 11.802 15.6712 11.1581C15.7414 11.1193 15.8222 11.1044 15.9016 11.1155C15.981 11.1267 16.0546 11.1633 16.1114 11.2199C16.5928 11.617 16.8633 12.1278 16.8671 12.747C16.8789 14.7226 16.8789 16.6979 16.8671 18.673C16.861 19.7893 15.9563 20.6399 14.7901 20.6437C13.1464 20.6498 11.5004 20.6468 9.85437 20.6468Z" fill="#635F60"/>
<path d="M9.8603 6.48886C10.1553 4.328 11.9595 2.95894 13.863 3.00094C14.8814 3.01982 15.8526 3.43285 16.5723 4.15303C17.2919 4.87321 17.7038 5.84434 17.7211 6.8619C17.7385 7.87946 17.3599 8.86403 16.6652 9.60827C15.9705 10.3525 15.0139 10.7983 13.9967 10.8518C12.0374 10.9587 10.1598 9.56675 9.86564 7.35931C9.67842 8.57336 9.10606 9.55224 8.07138 10.2211C7.03669 10.89 5.90802 11.0435 4.73426 10.667C2.95298 10.0951 1.8755 8.46723 2.01153 6.60568C2.13761 4.88005 3.51388 3.34683 5.19123 3.06661C5.9026 2.93628 6.63599 3.00012 7.31409 3.25139C7.99912 3.50616 8.59862 3.94829 9.04416 4.52729C9.48263 5.09891 9.76397 5.77511 9.8603 6.48886ZM7.525 7.01495C7.54016 6.80205 7.51188 6.58829 7.44188 6.38663C7.37188 6.18498 7.26161 5.99963 7.11777 5.84184C6.97393 5.68404 6.7995 5.55709 6.60508 5.46867C6.41066 5.38026 6.20029 5.33223 5.98673 5.32749C5.15455 5.29084 4.44617 5.85358 4.34377 6.67059C4.20851 7.7556 5.00554 8.47105 5.83084 8.52526C6.71269 8.58482 7.50131 7.89838 7.525 7.01495ZM12.1864 6.90805C12.1833 7.33332 12.3493 7.74241 12.6481 8.04534C12.9468 8.34827 13.3537 8.52021 13.7793 8.52335C14.2049 8.52649 14.6144 8.36056 14.9175 8.06208C15.2207 7.76359 15.3928 7.35699 15.3959 6.93172C15.3959 6.50764 15.2278 6.10083 14.9283 5.80032C14.6289 5.49981 14.2225 5.33007 13.7981 5.32826C12.8505 5.32749 12.2002 6.04676 12.1902 6.90805H12.1864Z" fill="#635F60"/>
</svg>
