<svg width="24" height="24" viewBox="0 0 24 24" fill="none" xmlns="http://www.w3.org/2000/svg">
<g clip-path="url(#clip0_307_2862)">
<path d="M2.69112 7.06118L4.82127 7.85138C5.13929 7.96976 5.45731 8.08814 5.77417 8.20652C6.34892 8.42434 6.88839 8.3616 7.39838 8.00764C8.25125 7.41573 9.11106 6.83389 9.95988 6.23606C10.3554 5.95728 10.7544 5.90578 11.2054 6.07743C12.4526 6.55096 13.7044 7.01265 14.9545 7.47848C14.9811 7.48795 15.0066 7.50097 15.0499 7.51991C15.032 7.58265 15.0181 7.64362 14.9979 7.70163C14.4497 9.24532 13.912 10.792 13.3477 12.3292C13.0892 13.0341 13.0337 13.7166 13.4055 14.4482C13.1829 14.3683 13.0007 14.3067 12.8273 14.2404L3.27743 10.6789C2.27769 10.306 1.8608 9.39862 2.22103 8.37048C2.37137 7.94608 2.52691 7.51873 2.69112 7.06118ZM11.2898 7.18607C11.2233 7.12688 11.1556 7.02448 11.0649 6.99311C10.9243 6.94458 10.8185 7.02508 10.7665 7.17068C10.6196 7.58502 10.4687 7.99935 10.3213 8.41369C10.2634 8.58297 10.2606 8.73805 10.4543 8.81914C10.6034 8.88189 10.726 8.80198 10.8012 8.58949C10.9434 8.19587 11.0816 7.80048 11.221 7.40567C11.2418 7.35477 11.2562 7.29795 11.2898 7.18607ZM12.5908 7.6673C12.5254 7.6081 12.4584 7.50926 12.3682 7.47788C12.2282 7.42994 12.1218 7.50689 12.0698 7.65546C11.9241 8.06979 11.7726 8.48413 11.628 8.89846C11.554 9.10977 11.602 9.2536 11.757 9.30096C11.9518 9.36015 12.0507 9.24946 12.1108 9.07544C12.2473 8.68123 12.3878 8.2888 12.5254 7.89518C12.5445 7.83776 12.5578 7.78094 12.5908 7.67025V7.6673ZM13.2083 9.79816C13.247 9.75673 13.3442 9.69162 13.3864 9.59987C13.4749 9.4075 13.5338 9.20211 13.6055 9.00205C13.6871 8.77416 13.779 8.54924 13.8484 8.31839C13.8946 8.17219 13.8675 8.02954 13.7073 7.97213C13.5708 7.92241 13.4402 7.9597 13.3852 8.10886C13.2193 8.55515 13.0557 9.00264 12.9071 9.45486C12.8458 9.64308 12.962 9.79343 13.2083 9.80112V9.79816Z" fill="#635F60"/>
<path d="M18.8077 5.71687L16.4856 7.04984C16.1485 7.24339 15.8045 7.24458 15.4448 7.10903C14.0947 6.60118 12.7399 6.10693 11.3927 5.59138C10.7664 5.35462 10.2021 5.42801 9.65801 5.81512C8.83405 6.39756 7.99448 6.95632 7.17167 7.53994C6.7623 7.82938 6.35176 7.87792 5.88687 7.69798C4.78826 7.27476 3.68618 6.86931 2.58525 6.45912C2.28747 6.34784 2.24179 6.24899 2.35397 5.9412C2.74426 4.84084 3.13109 3.73989 3.52717 2.64191C4.01345 1.29295 5.30172 0.676186 6.62352 1.16747C10.6371 2.65907 14.6492 4.15463 18.6597 5.65412C18.7065 5.67306 18.7574 5.69674 18.8077 5.71687Z" fill="#635F60"/>
<path d="M15.57 7.6832C16.1939 7.83769 16.7102 7.54588 17.2225 7.22744C17.5116 7.04986 17.8083 6.8788 18.1095 6.72195C18.2014 6.67714 18.3058 6.66688 18.4044 6.69294C18.686 6.78114 18.963 6.8865 19.2359 7.00014C20.0951 7.35825 20.5005 8.26387 20.1888 9.1612C19.7528 10.4172 19.3018 11.6679 18.8589 12.9204C18.6791 13.4253 18.5016 13.9314 18.3183 14.4351C17.9713 15.3821 17.0745 15.813 16.1499 15.478C15.6752 15.3064 15.2011 15.1318 14.731 14.9483C13.8637 14.6109 13.4283 13.6993 13.7365 12.8073C14.3147 11.1275 14.9218 9.45656 15.5168 7.78205C15.5323 7.74787 15.55 7.71484 15.57 7.6832ZM18.7751 10.3628C18.7589 10.1909 18.7341 10.02 18.7005 9.85077C18.453 8.82973 17.4862 8.35798 16.5877 8.81493C15.6099 9.31391 15.1259 10.6747 15.5619 11.6993C15.9146 12.528 16.7629 12.8683 17.5515 12.4634C18.3715 12.0426 18.7207 11.308 18.7751 10.3628ZM15.3601 13.7366C15.4258 13.7365 15.4899 13.7166 15.5446 13.6793C15.5993 13.6421 15.6421 13.5893 15.6677 13.5274C15.6932 13.4655 15.7005 13.3972 15.6884 13.3311C15.6764 13.2651 15.6456 13.2041 15.6 13.1557C15.5544 13.1074 15.4959 13.0739 15.4318 13.0593C15.3676 13.0448 15.3008 13.0499 15.2395 13.0739C15.1782 13.098 15.1251 13.14 15.0869 13.1947C15.0487 13.2493 15.0271 13.3143 15.0247 13.3815C15.024 13.4272 15.0321 13.4726 15.0485 13.5151C15.065 13.5576 15.0895 13.5964 15.1207 13.6291C15.1519 13.6619 15.1891 13.688 15.2302 13.7059C15.2713 13.7239 15.3154 13.7333 15.3601 13.7337V13.7366ZM16.6761 14.2232C16.7212 14.223 16.7658 14.2136 16.8072 14.1955C16.8487 14.1775 16.8863 14.1511 16.9177 14.1181C16.9491 14.085 16.9738 14.0459 16.9903 14.003C17.0068 13.96 17.0148 13.9142 17.0138 13.868C17.0138 13.7974 16.9932 13.7284 16.9546 13.6698C16.9161 13.6112 16.8613 13.5657 16.7974 13.5391C16.7335 13.5125 16.6633 13.5061 16.5957 13.5206C16.5282 13.5351 16.4664 13.5698 16.4183 13.6205C16.3701 13.6711 16.3378 13.7352 16.3255 13.8047C16.3132 13.8742 16.3214 13.9459 16.3491 14.0106C16.3768 14.0753 16.4227 14.1301 16.4809 14.168C16.5392 14.2059 16.6071 14.2251 16.6761 14.2232Z" fill="#635F60"/>
<path d="M1 18.469V14.37C1 14.0149 1.06187 13.9521 1.41863 13.9515C1.5123 13.9515 1.60597 13.9515 1.69964 13.9515C1.88219 13.9531 2.05665 14.0288 2.1847 14.162C2.31275 14.2952 2.3839 14.475 2.38251 14.6618C2.38482 17.2023 2.38482 19.7426 2.38251 22.2826C2.38251 22.6893 2.10497 22.9763 1.70658 22.9929C1.56954 22.9988 1.43251 22.9988 1.29547 22.9929C1.07575 22.9846 1.00057 22.8976 1.00057 22.6526C1.00057 21.567 1.00057 20.4819 1.00057 19.3971L1 18.469Z" fill="#635F60"/>
<path d="M2.91225 16.4192L5.85711 17.2372C5.39454 18.0659 5.39049 18.8792 5.85711 19.7173L2.9082 20.5347L2.91225 16.4192Z" fill="#635F60"/>
<path d="M7.73693 20.2464C6.76784 20.2382 6.01443 19.445 6.02253 18.4417C6.03062 17.4852 6.81988 16.6944 7.76238 16.6997C8.73494 16.7051 9.49703 17.5095 9.48431 18.5228C9.47565 18.9885 9.28674 19.4316 8.95909 19.7548C8.63145 20.078 8.19186 20.2548 7.73693 20.2464ZM7.75486 19.4491C7.94222 19.449 8.12535 19.3921 8.28109 19.2854C8.43684 19.1788 8.55822 19.0273 8.62989 18.8501C8.70157 18.6729 8.72032 18.4779 8.68378 18.2898C8.64725 18.1017 8.55706 17.9289 8.42461 17.7932C8.29217 17.6576 8.12341 17.5651 7.93966 17.5276C7.75592 17.4901 7.56544 17.5092 7.39228 17.5824C7.21913 17.6557 7.07107 17.7799 6.96682 17.9392C6.86257 18.0986 6.80681 18.286 6.80658 18.4778C6.80795 18.7349 6.90828 18.9811 7.0858 19.1629C7.26333 19.3447 7.50373 19.4476 7.75486 19.4491Z" fill="#635F60"/>
<path d="M20.8006 8.83504C20.8613 7.44761 20.1362 6.67161 18.8428 6.30404C19.277 6.10161 19.6714 6.05011 20.068 6.19099C20.977 6.51476 21.8813 6.85155 22.7856 7.19131C23.0354 7.28542 23.0788 7.55296 22.8608 7.68318C22.1959 8.08035 21.5211 8.45858 20.8498 8.84273C20.8388 8.84806 20.8226 8.83918 20.8006 8.83504Z" fill="#635F60"/>
<path d="M11.7784 14.4043C11.605 14.979 11.258 15.1614 10.744 14.9702C9.70939 14.587 8.67554 14.2019 7.64246 13.8148C7.15676 13.6331 6.99891 13.2181 7.23771 12.7162L11.7784 14.4043Z" fill="#635F60"/>
<path d="M7.85693 16.1084L8.37733 14.6482L9.68236 15.1353L9.16544 16.5956L7.85693 16.1084Z" fill="#635F60"/>
<path d="M17.229 9.16187C17.5863 9.16187 17.8309 9.2986 18.0142 9.55016C18.5965 10.3486 18.0721 11.8379 17.1313 12.0764C16.6265 12.2043 16.1645 11.9261 15.987 11.3863C15.7014 10.5197 16.2299 9.42053 17.0411 9.19916C17.1168 9.17844 17.1955 9.16838 17.229 9.16187ZM17.4192 10.6416C17.419 10.5966 17.4101 10.5521 17.393 10.5106C17.3759 10.4692 17.351 10.4315 17.3198 10.3999C17.2885 10.3683 17.2514 10.3433 17.2107 10.3263C17.17 10.3093 17.1264 10.3007 17.0824 10.301C17.0385 10.3013 16.995 10.3104 16.9545 10.3279C16.914 10.3453 16.8772 10.3708 16.8463 10.4028C16.8154 10.4348 16.791 10.4728 16.7744 10.5145C16.7578 10.5561 16.7494 10.6008 16.7497 10.6458C16.7502 10.7367 16.786 10.8236 16.8492 10.8875C16.9123 10.9514 16.9977 10.987 17.0865 10.9864C17.1753 10.9859 17.2602 10.9492 17.3226 10.8846C17.385 10.8199 17.4198 10.7325 17.4192 10.6416Z" fill="#635F60"/>
<path d="M7.7647 18.9164C7.70733 18.919 7.65004 18.9096 7.59632 18.8888C7.5426 18.8681 7.49355 18.8364 7.45214 18.7957C7.41073 18.7549 7.37783 18.706 7.35542 18.6519C7.33301 18.5978 7.32157 18.5396 7.32178 18.4808C7.32161 18.3623 7.36691 18.2485 7.44792 18.1639C7.52893 18.0794 7.63916 18.0307 7.75486 18.0286C7.86716 18.0287 7.97493 18.0739 8.05504 18.1545C8.13515 18.235 8.18121 18.3445 8.18332 18.4595C8.18739 18.5182 8.17956 18.5771 8.16033 18.6325C8.1411 18.6879 8.11087 18.7387 8.07156 18.7816C8.03225 18.8245 7.9847 18.8586 7.93189 18.8818C7.87909 18.905 7.82216 18.9168 7.7647 18.9164Z" fill="#635F60"/>
</g>
<defs>
<clipPath id="clip0_307_2862">
<rect width="22" height="22" fill="white" transform="translate(1 1)"/>
</clipPath>
</defs>
</svg>
