<svg width="24" height="24" viewBox="0 0 24 24" fill="none" xmlns="http://www.w3.org/2000/svg">
<g clip-path="url(#clip0_307_2901)">
<path d="M11.9054 15.8396C10.3795 15.8396 8.85351 15.8396 7.32754 15.8437C7.24908 15.848 7.17076 15.8334 7.09983 15.8013C7.0289 15.7692 6.96765 15.7207 6.92176 15.6602C3.8281 12.0746 5.81668 6.70756 10.5953 5.74345C14.1207 5.03112 17.646 7.2889 18.264 10.6677C18.605 12.5263 18.1251 14.187 16.8884 15.6595C16.8431 15.7205 16.7821 15.7694 16.7112 15.8017C16.6403 15.834 16.5618 15.8484 16.4833 15.8437C14.9574 15.8369 13.4336 15.8396 11.9054 15.8396ZM8.93336 10.927H8.9384C8.9384 11.6318 8.87509 12.3435 8.95135 13.0421C9.11035 14.4914 10.727 15.624 12.2414 15.4091C13.8717 15.1771 14.9171 14.0281 14.9221 12.4567C14.9221 11.4448 14.9308 10.4323 14.9178 9.42043C14.9159 9.13189 14.8788 8.84453 14.807 8.56413C14.4674 7.28411 13.1321 6.36709 11.7558 6.44897C10.3032 6.53767 9.09381 7.55636 8.9456 8.88891C8.87293 9.5603 8.93336 10.2453 8.93336 10.9249V10.927Z" fill="#635F60"/>
<path d="M5.44775 22.359V18.3136H18.3505V20.7433H17.3807C16.7332 20.7433 16.0856 20.7433 15.4417 20.7433C15.1288 20.7433 14.9259 20.9098 14.9237 21.1493C14.9216 21.3888 15.1252 21.5587 15.4374 21.5587C16.308 21.5621 17.1785 21.5587 18.0498 21.5587H18.3534V22.3549L5.44775 22.359ZM13.1877 21.56H13.5891C13.6069 21.5611 13.6246 21.5611 13.6424 21.56C13.7501 21.5518 13.8512 21.5072 13.9272 21.4344C14.0032 21.3615 14.0492 21.2652 14.0568 21.1629C14.057 21.0555 14.0131 20.9523 13.9344 20.8751C13.8557 20.7979 13.7484 20.7528 13.6352 20.7495C13.3411 20.7355 13.0465 20.7355 12.7524 20.7495C12.6437 20.7535 12.5407 20.7963 12.4639 20.8693C12.387 20.9423 12.3421 21.0401 12.338 21.1432C12.3392 21.2503 12.3835 21.3529 12.4619 21.43C12.5402 21.5072 12.6468 21.5529 12.7596 21.558C12.9013 21.5696 13.0452 21.56 13.1884 21.56H13.1877Z" fill="#635F60"/>
<path d="M18.3509 23.9999H5.45459V23.2146H18.3509V23.9999Z" fill="#635F60"/>
<path d="M17.7653 17.4648H6.05615C6.35473 17.1837 6.61301 16.9333 6.88209 16.6945C6.92454 16.657 7.01663 16.6604 7.0857 16.6604C10.2993 16.6604 13.5114 16.6604 16.7221 16.6604C16.8171 16.6585 16.91 16.6874 16.9854 16.7423C17.2372 16.9606 17.4739 17.1926 17.7653 17.4648Z" fill="#635F60"/>
<path d="M17.9901 7.80125C17.5641 7.37617 17.1497 6.96677 16.7447 6.5492C16.7246 6.51972 16.7116 6.48636 16.7067 6.45155C16.7019 6.41674 16.7053 6.38134 16.7166 6.34792C16.9706 5.68608 17.2145 5.01946 17.508 4.36922C17.5965 4.17272 17.8354 4.04104 17.9857 3.865C18.1274 3.71583 18.2452 3.54779 18.3354 3.36623C18.6138 2.70439 18.8664 2.03231 19.1304 1.36501C19.2534 1.05592 19.457 0.938562 19.716 1.02385C19.975 1.10914 20.07 1.33635 19.9463 1.65567C19.752 2.15717 19.5657 2.66276 19.3506 3.15675C19.1412 3.63437 19.0002 4.11199 19.1167 4.63873C19.1385 4.78891 19.1182 4.94189 19.0577 5.08223C18.7074 5.99448 18.3455 6.89855 17.9901 7.80125Z" fill="#635F60"/>
<path d="M5.94032 7.65663C5.58059 6.7512 5.20431 5.84511 4.8784 4.92262C4.79926 4.69883 4.90718 4.41976 4.90502 4.16662C4.90982 3.99888 4.88552 3.83153 4.83307 3.67126C4.57839 2.98895 4.29924 2.32165 4.04599 1.64207C3.99923 1.51721 3.98124 1.3364 4.04599 1.23269C4.09045 1.17316 4.14702 1.12269 4.21239 1.08425C4.27776 1.04581 4.3506 1.02018 4.42659 1.00889C4.63163 0.98364 4.76976 1.12624 4.84171 1.30978C5.09712 1.96207 5.37123 2.60618 5.60074 3.26802C5.71801 3.6044 5.96047 3.82068 6.20724 4.05676C6.362 4.2046 6.48577 4.37895 6.57201 4.57054C6.80367 5.10343 7.008 5.64723 7.21304 6.19035C7.2411 6.26267 7.24613 6.38686 7.20009 6.43325C6.79144 6.84264 6.37487 7.23769 5.94032 7.65663Z" fill="#635F60"/>
<path d="M14.0586 10.9426C14.0577 11.3467 13.9305 11.7415 13.693 12.0771C13.4554 12.4126 13.1183 12.6738 12.7242 12.8276C12.3301 12.9814 11.8968 13.0209 11.479 12.941C11.0613 12.8612 10.6779 12.6656 10.3773 12.3791C10.0768 12.0925 9.87265 11.7279 9.79069 11.3313C9.70874 10.9347 9.75268 10.524 9.91694 10.151C10.0812 9.77812 10.3584 9.45978 10.7135 9.23631C11.0686 9.01285 11.4856 8.89429 11.9117 8.89564C12.1947 8.89555 12.4748 8.94851 12.7361 9.05148C12.9974 9.15445 13.2346 9.30539 13.4341 9.49563C13.6336 9.68587 13.7915 9.91164 13.8987 10.16C14.0059 10.4083 14.0602 10.6743 14.0586 10.9426ZM11.9117 12.1619C12.1684 12.161 12.419 12.0879 12.6317 11.9517C12.8445 11.8156 13.0097 11.6226 13.1066 11.3972C13.2034 11.1718 13.2275 10.9242 13.1757 10.6858C13.1239 10.4474 12.9985 10.229 12.8156 10.0583C12.6326 9.88756 12.4003 9.77224 12.1482 9.72697C11.896 9.6817 11.6353 9.70852 11.3993 9.804C11.1632 9.89948 10.9624 10.0593 10.8223 10.2633C10.6822 10.4672 10.6091 10.706 10.6124 10.9494C10.6215 11.2716 10.762 11.578 11.0043 11.8041C11.2466 12.0302 11.5718 12.1584 11.9117 12.1619Z" fill="#635F60"/>
<path d="M9.82617 13.0258C11.2114 14.0588 12.5973 14.0588 13.9839 13.0258C13.8487 13.9244 12.9047 14.6217 11.8486 14.6115C10.8737 14.604 9.93985 13.8718 9.82617 13.0258Z" fill="#635F60"/>
<path d="M13.9927 8.86296C12.7969 7.86815 11.1292 7.78284 9.83203 8.84725C9.89606 8.07897 10.8306 7.30045 11.7343 7.26156C12.8494 7.2138 13.8056 7.88248 13.9927 8.86296Z" fill="#635F60"/>
<path d="M12.334 10.9467C12.3323 11.0281 12.3051 11.1072 12.2558 11.1739C12.2065 11.2405 12.1374 11.2917 12.0573 11.3209C11.9771 11.3501 11.8896 11.356 11.806 11.3378C11.7223 11.3197 11.6462 11.2782 11.5875 11.2189C11.5288 11.1595 11.4901 11.0848 11.4763 11.0045C11.4625 10.9241 11.4743 10.8417 11.5102 10.7677C11.5461 10.6937 11.6044 10.6316 11.6777 10.5892C11.751 10.5469 11.836 10.5262 11.9217 10.5298C11.9778 10.531 12.0332 10.5427 12.0844 10.5644C12.1357 10.5861 12.1819 10.6172 12.2203 10.6561C12.2587 10.6949 12.2885 10.7406 12.308 10.7905C12.3276 10.8404 12.3364 10.8935 12.334 10.9467Z" fill="#635F60"/>
</g>
<defs>
<clipPath id="clip0_307_2901">
<rect width="16" height="23" fill="white" transform="translate(4 1)"/>
</clipPath>
</defs>
</svg>
