<svg width="50" height="50" viewBox="0 0 50 50" fill="none" xmlns="http://www.w3.org/2000/svg">
<rect width="50" height="50" rx="8" fill="#0D9AFF"/>
<path fill-rule="evenodd" clip-rule="evenodd" d="M16.3592 17.0608C16.3612 17.0608 16.3112 17.1128 16.2482 17.1748C16.0062 17.4098 15.5052 17.8988 15.5001 18.9218C15.4922 20.3528 16.4332 23.0098 20.9642 27.5398C25.4742 32.0478 28.1272 32.9998 29.5612 32.9998H29.5822C30.6052 32.9948 31.0932 32.4928 31.3292 32.2518C31.4012 32.1778 31.4592 32.1238 31.5002 32.0898C32.4962 31.0878 33.0062 30.3418 33.0012 29.8638C32.9942 29.3758 32.3872 28.7988 31.5482 28.0008C31.2812 27.7468 30.9912 27.4708 30.6852 27.1648C29.8922 26.3738 29.4992 26.5088 28.6352 26.8128C27.4402 27.2318 25.8002 27.8018 23.2522 25.2528C20.7002 22.7028 21.2712 21.0648 21.6892 19.8698C21.9912 19.0058 22.1292 18.6118 21.3352 17.8178C21.0242 17.5078 20.7452 17.2138 20.4882 16.9438C19.6952 16.1098 19.1232 15.5068 18.6382 15.4998H18.6302C18.1512 15.4998 17.4072 16.0118 16.3542 17.0648C16.3572 17.0618 16.3592 17.0608 16.3592 17.0608ZM29.5622 34.4998C27.0702 34.4998 23.8212 32.5158 19.9042 28.6008C15.9722 24.6698 13.9852 21.4108 14.0001 18.9138C14.0092 17.2638 14.8742 16.4188 15.1992 16.1018C15.2162 16.0808 15.2742 16.0238 15.2942 16.0038C16.7282 14.5688 17.6952 13.9888 18.6572 13.9997C19.7742 14.0148 20.5692 14.8508 21.5752 15.9098C21.8242 16.1718 22.0942 16.4568 22.3952 16.7568C23.8552 18.2168 23.4392 19.4078 23.1052 20.3638C22.7412 21.4068 22.4262 22.3068 24.3122 24.1928C26.2002 26.0788 27.1002 25.7638 28.1392 25.3968C29.0962 25.0628 30.2842 24.6448 31.7462 26.1048C32.0422 26.4008 32.3232 26.6678 32.5822 26.9148C33.6462 27.9258 34.4862 28.7248 34.5004 29.8448C34.5122 30.7998 33.9322 31.7728 32.5002 33.2058L31.8662 32.7758L32.4022 33.2998C32.0852 33.6248 31.2412 34.4908 29.5902 34.4998H29.5622Z" fill="white"/>
</svg>
