<svg width="50" height="50" viewBox="0 0 50 50" fill="none" xmlns="http://www.w3.org/2000/svg">
<rect width="50" height="50" rx="8" fill="#16A34A"/>
<path fill-rule="evenodd" clip-rule="evenodd" d="M29.659 15C32.989 15 35.5 17.717 35.5 21.32V28.188C35.5 30.032 34.848 31.698 33.663 32.88C32.6 33.939 31.221 34.5 29.675 34.5H19.822C18.279 34.5 16.901 33.94 15.837 32.88C14.652 31.698 14 30.032 14 28.188V21.32C14 17.717 16.511 15 19.841 15H29.659ZM29.659 16.5H19.841C17.326 16.5 15.5 18.527 15.5 21.32V28.188C15.5 29.631 15.996 30.92 16.896 31.817C17.672 32.592 18.685 33 19.825 33H29.659C29.661 32.998 29.669 33 29.675 33C30.816 33 31.828 32.592 32.604 31.817C33.505 30.92 34 29.631 34 28.188V21.32C34 18.527 32.174 16.5 29.659 16.5ZM31.235 21.1288C31.496 21.4498 31.447 21.9218 31.126 22.1838L26.682 25.7958C26.12 26.2418 25.448 26.4648 24.777 26.4648C24.108 26.4648 23.441 26.2438 22.883 25.8018L18.398 22.1858C18.075 21.9258 18.025 21.4528 18.284 21.1308C18.545 20.8098 19.017 20.7588 19.339 21.0178L23.82 24.6298C24.383 25.0758 25.176 25.0758 25.743 24.6258L30.179 21.0198C30.501 20.7568 30.973 20.8068 31.235 21.1288Z" fill="white"/>
</svg>
