<svg width="45" height="45" viewBox="0 0 45 45" fill="none" xmlns="http://www.w3.org/2000/svg">
<rect width="45" height="45" rx="22.5" fill="#16A34A"/>
<path d="M33.3125 11.75H18.3125C18.0639 11.75 17.8254 11.8488 17.6496 12.0246C17.4738 12.2004 17.375 12.4389 17.375 12.6875V17.375H12.6875C12.4389 17.375 12.2004 17.4738 12.0246 17.6496C11.8488 17.8254 11.75 18.0639 11.75 18.3125V33.3125C11.75 33.5611 11.8488 33.7996 12.0246 33.9754C12.2004 34.1512 12.4389 34.25 12.6875 34.25H27.6875C27.9361 34.25 28.1746 34.1512 28.3504 33.9754C28.5262 33.7996 28.625 33.5611 28.625 33.3125V28.625H33.3125C33.5611 28.625 33.7996 28.5262 33.9754 28.3504C34.1512 28.1746 34.25 27.9361 34.25 27.6875V12.6875C34.25 12.4389 34.1512 12.2004 33.9754 12.0246C33.7996 11.8488 33.5611 11.75 33.3125 11.75ZM26.75 32.375H13.625V19.25H26.75V32.375ZM32.375 26.75H28.625V18.3125C28.625 18.0639 28.5262 17.8254 28.3504 17.6496C28.1746 17.4738 27.9361 17.375 27.6875 17.375H19.25V13.625H32.375V26.75Z" fill="white"/>
</svg>
