<svg width="70" height="70" viewBox="0 0 70 70" fill="none" xmlns="http://www.w3.org/2000/svg">
<rect x="0.5" y="0.5" width="69" height="69" rx="34.5" fill="url(#paint0_linear_2877_7977)" stroke="white"/>
<path fill-rule="evenodd" clip-rule="evenodd" d="M34.6457 19.4166C26.2348 19.4166 19.4165 26.235 19.4165 34.6458C19.4165 43.0567 26.2348 49.875 34.6457 49.875C43.0566 49.875 49.8748 43.0567 49.8748 34.6458C49.8748 26.235 43.0566 19.4166 34.6457 19.4166ZM35.7082 26.8541C35.7082 26.2673 35.2325 25.7916 34.6457 25.7916C34.0589 25.7916 33.5832 26.2673 33.5832 26.8541V28.0077C32.7058 28.1606 31.9017 28.5008 31.2511 28.9915C30.3446 29.6752 29.6873 30.6992 29.6873 31.9175C29.6873 32.9911 30.0598 33.9904 31.0327 34.6604C31.9196 35.2711 33.1577 35.4985 34.6457 35.4985C35.9999 35.4985 36.8017 35.7074 37.2438 36.0021C37.594 36.2356 37.8332 36.5978 37.8332 37.3743C37.8332 38.035 37.566 38.4357 37.0949 38.7249C36.5599 39.0535 35.7196 39.25 34.6457 39.25C33.6605 39.25 32.8149 38.9722 32.2447 38.5779C31.6702 38.1808 31.4582 37.7378 31.4582 37.3743C31.4582 36.7875 30.9825 36.3118 30.3957 36.3118C29.8089 36.3118 29.3332 36.7875 29.3332 37.3743C29.3332 38.6336 30.0725 39.6597 31.0363 40.3259C31.7474 40.8175 32.6266 41.153 33.5832 41.2965V42.4375C33.5832 43.0242 34.0589 43.5 34.6457 43.5C35.2325 43.5 35.7082 43.0242 35.7082 42.4375V41.3191C36.6141 41.2197 37.4837 40.9799 38.2067 40.5359C39.2739 39.8807 39.9582 38.8122 39.9582 37.3743C39.9582 36.052 39.489 34.945 38.4225 34.2341C37.448 33.5843 36.1248 33.3735 34.6457 33.3735C33.3003 33.3735 32.5905 33.1531 32.2379 32.9102C31.9711 32.7265 31.8123 32.4665 31.8123 31.9175C31.8123 31.5129 32.0272 31.0678 32.5307 30.688C33.0346 30.3079 33.779 30.0416 34.6457 30.0416C35.5124 30.0416 36.2567 30.3079 36.7606 30.688C37.2641 31.0678 37.479 31.5129 37.479 31.9175C37.479 32.5042 37.9547 32.9799 38.5415 32.9799C39.1283 32.9799 39.604 32.5042 39.604 31.9175C39.604 30.6992 38.9468 29.6752 38.0403 28.9915C37.3896 28.5008 36.5855 28.1606 35.7082 28.0077V26.8541Z" fill="#FF8C34"/>
<defs>
<linearGradient id="paint0_linear_2877_7977" x1="35" y1="0" x2="35" y2="70" gradientUnits="userSpaceOnUse">
<stop stop-color="white"/>
<stop offset="0.802671" stop-color="#FFDEC6"/>
<stop offset="1" stop-color="#FFB074"/>
</linearGradient>
</defs>
</svg>
