<svg width="70" height="70" viewBox="0 0 70 70" fill="none" xmlns="http://www.w3.org/2000/svg">
<rect x="0.5" y="0.5" width="69" height="69" rx="34.5" fill="url(#paint0_linear_2877_7638)" stroke="white"/>
<path d="M40.5823 34.2093C38.5972 36.1117 35.4458 36.0446 33.5434 34.0595L26.7639 26.985C24.8615 24.9999 24.9286 21.8484 26.9138 19.9461C28.8989 18.0437 32.0503 18.1108 33.9527 20.0958L40.7322 27.1703C42.6345 29.1554 42.5674 32.3069 40.5823 34.2093Z" fill="#00987F"/>
<path d="M40.7323 27.1702L37.3438 23.634L30.1528 30.5208L33.5435 34.0594C35.4459 36.0444 38.5973 36.1115 40.5824 34.2091C42.5675 32.3067 42.6347 29.1552 40.7323 27.1702Z" fill="#FEFDFF"/>
<path d="M56.0347 13.2537C57.3053 15.3218 56.6588 18.0284 54.5908 19.299L47.2206 23.827C45.1525 25.0975 42.4459 24.451 41.1753 22.3828C39.9047 20.3147 40.5512 17.6081 42.6192 16.3375L49.9894 11.8095C52.0576 10.539 54.7642 11.1855 56.0347 13.2537Z" fill="#00987F"/>
<path d="M49.9896 11.8096L46.3057 14.0728L50.9045 21.5636L54.5909 19.299C56.6589 18.0284 57.3055 15.3218 56.0348 13.2537C54.7643 11.1856 52.0577 10.5389 49.9896 11.8096Z" fill="#FEFDFF"/>
<path d="M34.9068 55.394C34.9068 56.745 33.8107 57.841 32.4597 57.841C31.1088 57.841 30.0127 56.745 30.0127 55.394C30.0127 54.0431 31.1088 52.947 32.4597 52.947C33.8107 52.947 34.9068 54.0431 34.9068 55.394ZM46.5006 55.394C46.5006 56.745 45.4045 57.841 44.0536 57.841C42.7026 57.841 41.6066 56.745 41.6066 55.394C41.6066 54.0431 42.7026 52.947 44.0536 52.947C45.4045 52.947 46.5006 54.0431 46.5006 55.394Z" fill="#DDE1FB"/>
<path d="M53.0607 33.3787L48.7908 43.775C48.4475 44.6108 47.8635 45.3257 47.1129 45.8288C46.3623 46.332 45.4791 46.6006 44.5756 46.6006H26.1437L19.313 29.1836H50.2485C52.4113 29.1836 53.8824 31.3782 53.0607 33.3787Z" fill="#2763FE"/>
<path d="M56.5318 12.9483C55.0894 10.5989 52.0191 9.87792 49.684 11.3123L46 13.5755L45.9997 13.5757L42.3138 15.8403C39.97 17.2803 39.2373 20.3434 40.6781 22.6882C42.1103 25.0192 45.1784 25.7659 47.5262 24.3243L54.8962 19.7965C57.2351 18.3596 57.9688 15.2874 56.5318 12.9483ZM46.9152 23.3297C45.1245 24.4306 42.7726 23.8681 41.6723 22.0774C40.5698 20.2826 41.1294 17.9382 42.9246 16.8352L46.1136 14.8757L50.1017 21.3719L46.9152 23.3297ZM54.2853 18.8019L51.0964 20.7608L47.1081 14.2647L50.295 12.3067C52.0835 11.2092 54.4314 11.759 55.5376 13.5592C56.6376 15.3498 56.0757 17.7017 54.2853 18.8019ZM35.4904 55.3941C35.4904 53.7229 34.1307 52.3634 32.4596 52.3634C30.7886 52.3634 29.4292 53.7229 29.4292 55.3941C29.4292 57.0649 30.7887 58.4244 32.4596 58.4244C34.1306 58.4244 35.4904 57.0649 35.4904 55.3941ZM30.5963 55.3941C30.5963 54.3666 31.4322 53.5305 32.4597 53.5305C33.4873 53.5305 34.3234 54.3666 34.3234 55.3941C34.3234 56.4217 33.4873 57.2573 32.4597 57.2573C31.4322 57.2573 30.5963 56.4217 30.5963 55.3941ZM47.0841 55.3941C47.0841 53.7229 45.7247 52.3634 44.0537 52.3634C42.3826 52.3634 41.0232 53.7229 41.0232 55.3941C41.0232 57.0649 42.3827 58.4244 44.0537 58.4244C45.7248 58.4244 47.0841 57.0649 47.0841 55.3941ZM42.1903 55.3941C42.1903 54.3666 43.0261 53.5305 44.0537 53.5305C45.0813 53.5305 45.9171 54.3666 45.9171 55.3941C45.9171 56.4217 45.0813 57.2573 44.0537 57.2573C43.0261 57.2573 42.1903 56.4217 42.1903 55.3941Z" fill="#332E8E"/>
<path d="M18.2449 25.3679C18.2016 25.2597 18.1269 25.167 18.0303 25.1016C17.9338 25.0363 17.8199 25.0014 17.7033 25.0014H12.3164C11.9941 25.0014 11.7329 25.2626 11.7329 25.5849C11.7329 25.9072 11.9941 26.1684 12.3164 26.1684H17.3086L26.2922 48.5768C26.9428 50.2362 28.5148 51.3085 30.2969 51.3085H47.2639C47.5863 51.3085 47.8474 51.0473 47.8474 50.725C47.8474 50.4026 47.5863 50.1415 47.2639 50.1415H30.2969C28.9983 50.1415 27.8527 49.36 27.377 48.147L26.9911 47.1841H44.5756C46.6689 47.1841 48.5355 45.9332 49.3307 43.9967L53.6005 33.6002C54.0605 32.4806 53.9326 31.2119 53.2586 30.2062C52.5846 29.2006 51.4592 28.6001 50.2486 28.6001H42.3132C42.0567 27.9368 41.6752 27.3109 41.1533 26.7661L34.3739 19.6917C32.2518 17.4779 28.7241 17.4031 26.5101 19.5249C24.296 21.6465 24.2207 25.1746 26.3426 27.3888L27.5033 28.6001H19.5408L18.2449 25.3679ZM40.3108 27.574C40.6102 27.8863 40.8492 28.2337 41.0375 28.6002H33.0018L37.3256 24.459L40.3108 27.574ZM27.185 26.5811C25.5085 24.8318 25.5678 22.0442 27.3175 20.3674C29.0755 18.6824 31.8619 18.7581 33.5314 20.4995L36.5184 23.6164L31.3146 28.6001H29.12L27.185 26.5811ZM50.2485 29.7672C51.0814 29.7672 51.8252 30.1643 52.289 30.8558C52.7529 31.5479 52.8372 32.3867 52.5208 33.1571L48.251 43.5535C47.6362 45.0502 46.1934 46.0171 44.5755 46.0171H26.5415L20.1686 29.7672H50.2485Z" fill="#332E8E"/>
<path d="M29.9199 42.948C29.9368 43.0227 29.9684 43.0934 30.0127 43.1559C30.057 43.2184 30.1132 43.2716 30.178 43.3124C30.2429 43.3533 30.3151 43.3809 30.3907 43.3938C30.4662 43.4066 30.5436 43.4045 30.6183 43.3875C30.693 43.3704 30.7636 43.3389 30.8262 43.2946C30.8887 43.2503 30.9419 43.1941 30.9827 43.1293C31.0235 43.0644 31.0511 42.9921 31.064 42.9166C31.0769 42.8411 31.0748 42.7637 31.0578 42.689L28.8151 32.8356C28.7982 32.7608 28.7667 32.6901 28.7224 32.6276C28.6781 32.565 28.6219 32.5117 28.557 32.4709C28.4922 32.4301 28.4199 32.4025 28.3443 32.3896C28.2687 32.3768 28.1913 32.379 28.1166 32.3961C28.0419 32.4131 27.9713 32.4447 27.9087 32.489C27.8462 32.5333 27.793 32.5895 27.7522 32.6543C27.7114 32.7192 27.6838 32.7915 27.6709 32.867C27.658 32.9425 27.6601 33.0199 27.6771 33.0946L29.9199 42.948ZM36.3026 43.4021C36.3792 43.4021 36.4551 43.387 36.5259 43.3577C36.5967 43.3284 36.661 43.2854 36.7152 43.2312C36.7694 43.177 36.8124 43.1127 36.8417 43.0419C36.871 42.9711 36.8861 42.8952 36.8861 42.8186V32.9651C36.8861 32.6428 36.6249 32.3816 36.3026 32.3816C35.9803 32.3816 35.7191 32.6428 35.7191 32.9651V42.8185C35.7191 42.9733 35.7806 43.1217 35.89 43.2311C35.9994 43.3406 36.1478 43.4021 36.3026 43.4021ZM41.9868 43.3875C42.0615 43.4045 42.1388 43.4066 42.2144 43.3937C42.2899 43.3808 42.3622 43.3532 42.427 43.3124C42.4919 43.2716 42.5481 43.2184 42.5924 43.1559C42.6367 43.0934 42.6682 43.0227 42.6852 42.948L44.9279 33.0946C44.9449 33.0199 44.947 32.9425 44.9342 32.867C44.9213 32.7915 44.8937 32.7192 44.8528 32.6543C44.812 32.5895 44.7588 32.5333 44.6963 32.489C44.6338 32.4447 44.5632 32.4131 44.4885 32.3961C44.173 32.3227 43.8614 32.521 43.79 32.8356L41.5473 42.689C41.5303 42.7637 41.5282 42.8411 41.541 42.9166C41.5539 42.9921 41.5815 43.0644 41.6224 43.1293C41.6632 43.1941 41.7164 43.2503 41.7789 43.2946C41.8414 43.3389 41.9121 43.3705 41.9868 43.3875Z" fill="white"/>
<defs>
<linearGradient id="paint0_linear_2877_7638" x1="35" y1="0" x2="35" y2="70" gradientUnits="userSpaceOnUse">
<stop stop-color="white"/>
<stop offset="0.802671" stop-color="#CDDBFF"/>
<stop offset="1" stop-color="#95B2FF"/>
</linearGradient>
</defs>
</svg>
