<svg width="24" height="25" viewBox="0 0 24 25" fill="none" xmlns="http://www.w3.org/2000/svg">
<path d="M13.0286 2.97047C13.7583 2.96767 14.488 2.975 15.2176 2.99247L15.4116 2.99947C15.6356 3.00747 15.8566 3.01747 16.1236 3.02947C17.1876 3.07947 17.9136 3.24747 18.5506 3.49447C19.2106 3.74847 19.7666 4.09247 20.3226 4.64847C20.831 5.14807 21.2244 5.75242 21.4756 6.41947C21.7226 7.05647 21.8906 7.78347 21.9406 8.84747C21.9526 9.11347 21.9626 9.33547 21.9706 9.55947L21.9766 9.75347C21.9943 10.4827 22.002 11.2121 21.9996 11.9415L22.0006 12.6875V13.9975C22.003 14.7272 21.9954 15.4569 21.9776 16.1865L21.9716 16.3805C21.9636 16.6045 21.9536 16.8255 21.9416 17.0925C21.8916 18.1565 21.7216 18.8825 21.4756 19.5195C21.2252 20.1872 20.8317 20.7921 20.3226 21.2915C19.8225 21.7998 19.2179 22.1932 18.5506 22.4445C17.9136 22.6915 17.1876 22.8595 16.1236 22.9095C15.8566 22.9215 15.6356 22.9315 15.4116 22.9395L15.2176 22.9455C14.4881 22.9632 13.7583 22.9709 13.0286 22.9685L12.2826 22.9695H10.9736C10.2438 22.9719 9.5141 22.9643 8.78458 22.9465L8.59058 22.9405C8.35319 22.9319 8.11585 22.9219 7.87858 22.9105C6.81458 22.8605 6.08858 22.6905 5.45058 22.4445C4.78326 22.1938 4.17881 21.8003 3.67958 21.2915C3.17062 20.7918 2.7768 20.187 2.52558 19.5195C2.27858 18.8825 2.11058 18.1565 2.06058 17.0925C2.04944 16.8552 2.03944 16.6178 2.03058 16.3805L2.02558 16.1865C2.00714 15.457 1.99881 14.7272 2.00058 13.9975V11.9415C1.99779 11.2121 2.00512 10.4827 2.02258 9.75347L2.02958 9.55947C2.03758 9.33547 2.04758 9.11347 2.05958 8.84747C2.10958 7.78247 2.27758 7.05747 2.52458 6.41947C2.77595 5.75209 3.17054 5.14791 3.68058 4.64947C4.17947 4.14022 4.78354 3.74604 5.45058 3.49447C6.08858 3.24747 6.81358 3.07947 7.87858 3.02947L8.59058 2.99947L8.78458 2.99447C9.51376 2.97604 10.2432 2.96771 10.9726 2.96947L13.0286 2.97047ZM12.0006 7.97047C11.3381 7.9611 10.6803 8.08349 10.0656 8.33054C9.45077 8.57758 8.89122 8.94435 8.41942 9.40952C7.94762 9.8747 7.57298 10.429 7.31726 11.0402C7.06155 11.6515 6.92987 12.3074 6.92987 12.97C6.92987 13.6325 7.06155 14.2885 7.31726 14.8997C7.57298 15.5109 7.94762 16.0652 8.41942 16.5304C8.89122 16.9956 9.45077 17.3624 10.0656 17.6094C10.6803 17.8564 11.3381 17.9788 12.0006 17.9695C13.3267 17.9695 14.5984 17.4427 15.5361 16.505C16.4738 15.5673 17.0006 14.2956 17.0006 12.9695C17.0006 11.6434 16.4738 10.3716 15.5361 9.43393C14.5984 8.49625 13.3267 7.97047 12.0006 7.97047ZM12.0006 9.97047C12.3991 9.96313 12.7951 10.0353 13.1654 10.1827C13.5357 10.3301 13.8729 10.5498 14.1574 10.829C14.4418 11.1082 14.6678 11.4413 14.822 11.8088C14.9763 12.1763 15.0558 12.5709 15.0558 12.9695C15.0559 13.368 14.9766 13.7626 14.8224 14.1302C14.6683 14.4977 14.4424 14.8309 14.1581 15.1102C13.8737 15.3895 13.5366 15.6093 13.1663 15.7569C12.796 15.9044 12.4001 15.9767 12.0016 15.9695C11.2059 15.9695 10.4429 15.6534 9.88026 15.0908C9.31765 14.5282 9.00158 13.7651 9.00158 12.9695C9.00158 12.1738 9.31765 11.4108 9.88026 10.8481C10.4429 10.2855 11.2059 9.96947 12.0016 9.96947L12.0006 9.97047ZM17.2506 6.47047C16.928 6.48338 16.6229 6.62062 16.3992 6.85344C16.1755 7.08626 16.0506 7.3966 16.0506 7.71947C16.0506 8.04233 16.1755 8.35268 16.3992 8.5855C16.6229 8.81832 16.928 8.95556 17.2506 8.96847C17.5821 8.96847 17.9 8.83677 18.1345 8.60235C18.3689 8.36793 18.5006 8.04999 18.5006 7.71847C18.5006 7.38695 18.3689 7.06901 18.1345 6.83459C17.9 6.60016 17.5821 6.46847 17.2506 6.46847V6.47047Z" fill="#00987F"/>
</svg>
