<svg width="70" height="70" viewBox="0 0 70 70" fill="none" xmlns="http://www.w3.org/2000/svg">
<rect x="0.5" y="0.5" width="69" height="69" rx="34.5" fill="url(#paint0_linear_2877_7914)" stroke="white"/>
<path d="M50.3418 43.332V46.1732H35.3765V43.332C35.3765 42.8341 35.7805 42.4301 36.2784 42.4301H49.4399C49.9378 42.4301 50.3418 42.8341 50.3418 43.332Z" fill="#00987F"/>
<path d="M39.264 26.1838V42.43H36.2785C35.7806 42.43 35.3765 42.8341 35.3765 43.3319V53.2157H21.0335C19.7202 53.2157 18.6577 52.1531 18.6577 50.8417V26.1838C18.6577 24.9175 19.1628 23.7016 20.0648 22.8105L22.9475 19.9603L24.2246 18.6975H33.6934L34.9706 19.9603L37.8533 22.8105C38.7553 23.7016 39.264 24.9175 39.264 26.1838Z" fill="#72C2E9"/>
<path d="M34.9707 19.9603H22.9475L24.2247 18.6975H33.6935L34.9707 19.9603ZM34.1138 45.0781H35.3766V53.2157H34.1138V45.0781Z" fill="#4BA5C8"/>
<path d="M20.4627 51.2918C20.3431 51.2918 20.2284 51.2443 20.1438 51.1597C20.0592 51.0752 20.0117 50.9605 20.0117 50.8409V50.2997C20.0117 50.1801 20.0592 50.0654 20.1438 49.9808C20.2284 49.8962 20.3431 49.8487 20.4627 49.8487C20.5823 49.8487 20.697 49.8962 20.7816 49.9808C20.8662 50.0654 20.9137 50.1801 20.9137 50.2997V50.8409C20.9137 50.9605 20.8662 51.0752 20.7816 51.1597C20.697 51.2443 20.5823 51.2918 20.4627 51.2918ZM20.4627 48.9467C20.3431 48.9467 20.2284 48.8992 20.1438 48.8146C20.0592 48.7301 20.0117 48.6154 20.0117 48.4957V45.0773C20.0117 44.9577 20.0592 44.843 20.1438 44.7584C20.2284 44.6738 20.3431 44.6263 20.4627 44.6263C20.5823 44.6263 20.697 44.6738 20.7816 44.7584C20.8662 44.843 20.9137 44.9577 20.9137 45.0773V48.4957C20.9137 48.6154 20.8662 48.7301 20.7816 48.8146C20.697 48.8992 20.5823 48.9467 20.4627 48.9467ZM20.4627 28.3551C20.3431 28.3551 20.2284 28.3076 20.1438 28.223C20.0592 28.1384 20.0117 28.0237 20.0117 27.9041V26.1832C20.0117 25.2834 20.3779 24.4045 21.0167 23.772L21.696 23.1004C21.7811 23.0163 21.8961 22.9695 22.0157 22.9702C22.1353 22.9709 22.2497 23.0191 22.3338 23.1041C22.4179 23.1892 22.4648 23.3042 22.4641 23.4238C22.4634 23.5434 22.4152 23.6578 22.3301 23.7419L21.6509 24.4133C21.1802 24.8823 20.915 25.5189 20.9135 26.1833V27.9043C20.9135 28.0238 20.8659 28.1385 20.7814 28.223C20.6969 28.3075 20.5822 28.355 20.4627 28.3551ZM22.9752 22.4699C22.9336 22.4278 22.9006 22.3779 22.8783 22.323C22.8559 22.2682 22.8446 22.2095 22.845 22.1502C22.8453 22.091 22.8573 22.0324 22.8803 21.9778C22.9033 21.9232 22.9369 21.8737 22.979 21.8321L23.364 21.4516C23.4061 21.41 23.456 21.3771 23.5109 21.3547C23.5657 21.3324 23.6244 21.3211 23.6837 21.3214C23.7429 21.3218 23.8015 21.3338 23.8561 21.3568C23.9107 21.3798 23.9602 21.4133 24.0018 21.4554C24.0435 21.4976 24.0764 21.5475 24.0987 21.6023C24.1211 21.6572 24.1324 21.7159 24.132 21.7751C24.1317 21.8344 24.1197 21.893 24.0967 21.9475C24.0737 22.0021 24.0402 22.0517 23.998 22.0933L23.6131 22.4737C23.5279 22.5577 23.4129 22.6045 23.2934 22.6038C23.1738 22.603 23.0594 22.5549 22.9752 22.4699Z" fill="#C5E5FE"/>
<path d="M39.264 27.9049V42.4301H36.2785C35.7806 42.4301 35.3765 42.8342 35.3765 43.3321V45.0783H18.6577V27.9049H39.264Z" fill="#FC5D3D"/>
<path d="M39.264 41.1674V42.4301H36.2785C35.7806 42.4301 35.3765 42.8342 35.3765 43.3321V45.0783H34.1138V43.3321C34.1138 42.1379 35.0843 41.1674 36.2785 41.1674H39.264Z" fill="#B25035"/>
<path d="M20.4627 45.5284C20.3431 45.5284 20.2284 45.4808 20.1438 45.3963C20.0592 45.3117 20.0117 45.197 20.0117 45.0774V27.904C20.0117 27.7844 20.0592 27.6697 20.1438 27.5851C20.2284 27.5005 20.3431 27.453 20.4627 27.453C20.5823 27.453 20.697 27.5005 20.7816 27.5851C20.8662 27.6697 20.9137 27.7844 20.9137 27.904V45.0774C20.9137 45.197 20.8662 45.3117 20.7816 45.3963C20.697 45.4808 20.5823 45.5284 20.4627 45.5284Z" fill="#FFCBC3"/>
<path d="M34.2399 34.1514H31.1552V31.0665H26.7653V34.1514H23.6804V38.5413H26.7653V41.626H31.1552V38.5413H34.2399V34.1514Z" fill="#EEEEEE"/>
<path d="M35.4141 13.0863H22.506C22.2668 13.0863 22.0373 13.1813 21.8682 13.3505C21.699 13.5196 21.604 13.7491 21.604 13.9883V17.7949C21.604 18.0341 21.699 18.2635 21.8682 18.4327C22.0373 18.6018 22.2668 18.6969 22.506 18.6969H35.4141C35.6534 18.6969 35.8828 18.6018 36.0519 18.4327C36.2211 18.2635 36.3161 18.0341 36.3161 17.7949V13.9883C36.3161 13.7491 36.2211 13.5196 36.0519 13.3505C35.8828 13.1813 35.6534 13.0863 35.4141 13.0863Z" fill="#FC5D3D"/>
<path d="M50.3418 46.1732V55.0125C50.3418 55.5103 49.9378 55.9144 49.4399 55.9144H36.2784C35.7805 55.9144 35.3765 55.5103 35.3765 55.0125V46.1732H50.3418Z" fill="white"/>
<path d="M37.1795 54.561C37.0599 54.561 36.9452 54.5134 36.8606 54.4289C36.776 54.3443 36.7285 54.2296 36.7285 54.11V53.5688C36.7285 53.4492 36.776 53.3345 36.8606 53.2499C36.9452 53.1653 37.0599 53.1178 37.1795 53.1178C37.2991 53.1178 37.4138 53.1653 37.4984 53.2499C37.583 53.3345 37.6305 53.4492 37.6305 53.5688V54.11C37.6305 54.2296 37.583 54.3443 37.4984 54.4289C37.4138 54.5134 37.2991 54.561 37.1795 54.561ZM37.1795 52.2158C37.0599 52.2158 36.9452 52.1683 36.8606 52.0838C36.776 51.9992 36.7285 51.8845 36.7285 51.7649V47.9766C36.7285 47.857 36.776 47.7423 36.8606 47.6577C36.9452 47.5731 37.0599 47.5256 37.1795 47.5256C37.2991 47.5256 37.4138 47.5731 37.4984 47.6577C37.583 47.7423 37.6305 47.857 37.6305 47.9766V51.7649C37.6305 51.8845 37.583 51.9992 37.4984 52.0838C37.4138 52.1683 37.2991 52.2158 37.1795 52.2158Z" fill="#FC5D3D"/>
<path d="M44.9587 48.9431C44.9168 48.9012 44.8671 48.868 44.8124 48.8453C44.7577 48.8226 44.6991 48.8109 44.6398 48.8109C44.5806 48.8109 44.522 48.8226 44.4673 48.8453C44.4125 48.868 44.3628 48.9012 44.321 48.9431L42.8585 50.4055L41.3961 48.9431C41.3542 48.9012 41.3045 48.868 41.2498 48.8453C41.1951 48.8226 41.1365 48.8109 41.0773 48.8109C41.018 48.8109 40.9594 48.8226 40.9047 48.8453C40.85 48.868 40.8003 48.9012 40.7584 48.9431C40.7165 48.985 40.6833 49.0347 40.6606 49.0894C40.6379 49.1441 40.6262 49.2027 40.6262 49.2619C40.6262 49.3212 40.6379 49.3798 40.6606 49.4345C40.6833 49.4892 40.7165 49.5389 40.7584 49.5808L42.2209 51.0432L40.7584 52.5057C40.7165 52.5475 40.6833 52.5972 40.6606 52.6519C40.6379 52.7067 40.6262 52.7653 40.6262 52.8245C40.6262 52.8837 40.6379 52.9424 40.6606 52.9971C40.6833 53.0518 40.7165 53.1015 40.7584 53.1434C40.8003 53.1853 40.85 53.2185 40.9047 53.2412C40.9594 53.2639 41.018 53.2756 41.0773 53.2756C41.1365 53.2756 41.1951 53.2639 41.2498 53.2412C41.3045 53.2185 41.3542 53.1853 41.3961 53.1434L42.8585 51.6809L44.321 53.1434C44.3628 53.1853 44.4125 53.2185 44.4673 53.2412C44.522 53.2639 44.5806 53.2756 44.6398 53.2756C44.6991 53.2756 44.7577 53.2639 44.8124 53.2412C44.8671 53.2185 44.9168 53.1853 44.9587 53.1434C45.0006 53.1015 45.0338 53.0518 45.0565 52.9971C45.0792 52.9424 45.0909 52.8837 45.0909 52.8245C45.0909 52.7653 45.0792 52.7067 45.0565 52.6519C45.0338 52.5972 45.0006 52.5475 44.9587 52.5057L43.4962 51.0432L44.9587 49.5808C45.0432 49.4962 45.0907 49.3815 45.0907 49.2619C45.0907 49.1424 45.0432 49.0277 44.9587 48.9431Z" fill="#FC5D3D"/>
<defs>
<linearGradient id="paint0_linear_2877_7914" x1="35" y1="0" x2="35" y2="70" gradientUnits="userSpaceOnUse">
<stop stop-color="white"/>
<stop offset="0.802671" stop-color="#FEC9BE"/>
<stop offset="1" stop-color="#FFB6A8"/>
</linearGradient>
</defs>
</svg>
