<svg width="155" height="46" viewBox="0 0 155 46" fill="none" xmlns="http://www.w3.org/2000/svg">
<rect x="0.639648" width="154.313" height="45.7223" rx="5" fill="black"/>
<path fill-rule="evenodd" clip-rule="evenodd" d="M6.35592 0H149.238C152.395 0 154.953 2.55882 154.953 5.71529V40.007C154.953 43.1635 152.395 45.7223 149.238 45.7223H6.35592C3.19945 45.7223 0.640625 43.1635 0.640625 40.007V5.71529C0.640625 2.55882 3.19945 0 6.35592 0ZM154.039 5.71491C154.039 3.06347 151.889 0.914062 149.238 0.914062H6.35553C3.7041 0.914062 1.55469 3.06347 1.55469 5.71491V40.0066C1.55469 42.6581 3.7041 44.8075 6.35553 44.8075H149.238C151.889 44.8075 154.039 42.6581 154.039 40.0066V5.71491Z" fill="#A6A6A6"/>
<path fill-rule="evenodd" clip-rule="evenodd" d="M55.2098 26.3585V28.416H60.1478C60.0704 29.385 59.6675 30.2995 59.0047 31.0107C58.0057 32.0283 56.6232 32.5763 55.1984 32.5195C52.1681 32.5195 49.7117 30.0631 49.7117 27.0329C49.7117 24.0026 52.1681 21.5462 55.1984 21.5462C56.5904 21.5235 57.9346 22.0538 58.9362 23.0207L60.3878 21.569C59.0218 20.1858 57.1538 19.4147 55.2098 19.4315C52.4424 19.3238 49.8379 20.7388 48.4221 23.1191C47.0064 25.4994 47.0064 28.4635 48.4221 30.8437C49.8379 33.224 52.4424 34.639 55.2098 34.5313C57.1893 34.6208 59.1108 33.8497 60.4793 32.4167C61.6768 31.1009 62.3162 29.3713 62.2625 27.593C62.2661 27.1597 62.2279 26.7271 62.1482 26.3013L55.2098 26.3585ZM67.8856 24.8603C65.2041 24.8666 63.0349 27.0444 63.0391 29.7259C63.0433 32.4074 65.2194 34.5783 67.9009 34.5762C70.5824 34.5741 72.755 32.3998 72.7551 29.7183C72.7739 28.4202 72.2649 27.17 71.3448 26.2542C70.4247 25.3384 69.1722 24.8353 67.8742 24.8603H67.8856ZM73.6934 29.7334C73.685 27.0534 75.8485 24.8729 78.5285 24.8603C79.8265 24.8353 81.079 25.3384 81.9991 26.2542C82.9192 27.17 83.4282 28.4202 83.4094 29.7183C83.4093 32.3983 81.239 34.572 78.5589 34.5762C75.8789 34.5804 73.7018 32.4134 73.6934 29.7334ZM75.6621 30.9978C76.1841 32.0904 77.321 32.7529 78.5289 32.6684C79.2871 32.6509 80.006 32.3278 80.5226 31.7725C81.0391 31.2172 81.3095 30.4768 81.2723 29.7194C81.2693 28.5085 80.5265 27.4224 79.399 26.9807C78.2715 26.539 76.9886 26.8313 76.1639 27.7179C75.3391 28.6045 75.1402 29.9052 75.6621 30.9978ZM65.0126 31.0057C65.5383 32.0977 66.6784 32.7569 67.887 32.6676H67.8756C68.6338 32.65 69.3527 32.327 69.8692 31.7717C70.3858 31.2164 70.6561 30.476 70.6189 29.7185C70.6156 28.5067 69.8713 27.4202 68.7424 26.9794C67.6136 26.5387 66.33 26.8334 65.5064 27.7224C64.6828 28.6114 64.487 29.9138 65.0126 31.0057ZM102.842 24.8594C104.737 24.9292 106.392 26.1616 107.003 27.9571L107.243 28.4714L100.739 31.1576C101.146 32.086 102.08 32.6708 103.093 32.6322C104.072 32.6347 104.979 32.1223 105.482 31.2834L107.14 32.4264C106.238 33.7769 104.718 34.5841 103.093 34.5754C101.802 34.5943 100.559 34.0874 99.6494 33.1712C98.7397 32.255 98.2416 31.0082 98.2697 29.7174C98.1907 28.456 98.6373 27.2183 99.5035 26.298C100.37 25.3777 101.578 24.8569 102.842 24.8594ZM100.373 29.5811C100.326 28.8668 100.569 28.1638 101.046 27.6305C101.524 27.0973 102.195 26.7785 102.91 26.7463C103.664 26.6966 104.375 27.1014 104.717 27.775L100.373 29.5811ZM97.2283 34.2921H95.0908V20.0039H97.2283V34.2921ZM91.5943 25.9477H91.5143C90.8627 25.2193 89.9313 24.8034 88.9539 24.8047C86.3593 24.9305 84.3203 27.0708 84.3203 29.6684C84.3203 32.266 86.3593 34.4063 88.9539 34.5321C89.9344 34.5486 90.872 34.1301 91.5143 33.3891H91.5829V34.0863C91.5829 35.9495 90.5885 36.944 88.9882 36.944C87.898 36.9185 86.9315 36.2365 86.542 35.2179L84.6788 35.9952C85.3963 37.7405 87.1013 38.8756 88.9882 38.8643C91.4915 38.8643 93.5604 37.3898 93.5604 33.8006V25.1476H91.5943V25.9477ZM89.1424 32.6674L89.1459 32.6677H89.1345L89.1424 32.6674ZM91.0685 31.7507C90.578 32.3058 89.8823 32.6368 89.1424 32.6674C87.6157 32.531 86.4453 31.2518 86.4453 29.7186C86.4453 28.1843 87.6175 26.9042 89.1459 26.7695C89.8845 26.8074 90.5765 27.1419 91.0649 27.6971C91.5535 28.2523 91.7971 28.9813 91.7407 29.7186C91.8037 30.4594 91.5608 31.1937 91.0685 31.7507ZM117.015 20.0037H111.905V34.2919H114.043V28.8738H117.026C118.687 28.9931 120.275 28.1748 121.141 26.7534C122.008 25.332 122.008 23.5455 121.141 22.1241C120.275 20.7026 118.687 19.8844 117.026 20.0037H117.015ZM114.031 26.8616H117.015L117.06 26.8959C118.414 26.8959 119.512 25.7982 119.512 24.444C119.512 23.0899 118.414 21.9922 117.06 21.9922H114.031V26.8616ZM130.195 24.8039C128.604 24.7089 127.109 25.5665 126.388 26.9872L128.286 27.7759C128.668 27.0714 129.43 26.659 130.229 26.7243C130.777 26.6603 131.328 26.8191 131.758 27.1652C132.188 27.5112 132.461 28.0155 132.515 28.5646V28.7132C131.829 28.3497 131.063 28.1613 130.286 28.1645C128.24 28.1645 126.171 29.3076 126.171 31.3765C126.212 32.2678 126.611 33.1046 127.279 33.6967C127.946 34.2888 128.825 34.5857 129.715 34.5199C130.811 34.5987 131.863 34.0727 132.458 33.1483H132.526V34.2913H134.584V28.7932C134.584 26.2899 132.687 24.8382 130.252 24.8382L130.195 24.8039ZM128.262 31.4238C128.262 32.2811 129.233 32.6354 129.931 32.6354L129.988 32.6697C131.275 32.6383 132.343 31.6631 132.491 30.3836C131.898 30.0525 131.227 29.8867 130.548 29.9035C129.473 29.9035 128.262 30.2807 128.262 31.4238ZM142.082 25.1484L139.635 31.3438H139.567L137.029 25.1484H134.743L138.55 33.8128L136.378 38.6251H138.607L144.459 25.1484H142.082ZM125.006 34.2921H122.868V20.0039H125.006V34.2921Z" fill="white"/>
<path fill-rule="evenodd" clip-rule="evenodd" d="M79.7514 8.88294C78.4029 10.3104 78.4029 12.5421 79.7514 13.9695C81.1426 15.3529 83.3898 15.3529 84.7809 13.9695C86.1352 12.5444 86.1352 10.3081 84.7809 8.88294C84.1156 8.21282 83.2104 7.83594 82.2662 7.83594C81.3219 7.83594 80.4167 8.21282 79.7514 8.88294ZM53.9867 13.9903C54.5734 13.3778 54.8833 12.5515 54.844 11.7042C54.8441 11.5318 54.8288 11.3596 54.7983 11.1899H51.472V12.0129H53.9524C53.9355 12.5312 53.7326 13.0262 53.3809 13.4074C52.5974 14.1647 51.4353 14.3763 50.4351 13.9438C49.435 13.5112 48.7933 12.5194 48.8086 11.4299C48.7838 10.7089 49.0537 10.0088 49.5562 9.4912C50.0588 8.97357 50.7505 8.68302 51.472 8.68656C52.1897 8.64734 52.884 8.94795 53.3466 9.49813L53.9524 8.89231C53.6598 8.55574 53.2916 8.29329 52.8779 8.12646C52.4337 7.93633 51.9552 7.83909 51.472 7.8407C50.5239 7.81957 49.6094 8.19199 48.9458 8.86945C47.9245 9.89743 47.619 11.4375 48.1705 12.7775C48.7219 14.1175 50.023 14.9963 51.472 15.0077C52.4167 15.0413 53.3311 14.6714 53.9867 13.9903ZM56.9945 8.84977H60.0808V8.00391H56.0801V14.8623H60.0808V14.0164H56.9945V11.8446H59.8064V11.0216H56.9945V8.84977ZM63.8269 14.8623H62.9467V8.84977H61.0264V8.00391H65.7929V8.84977H63.8269V14.8623ZM69.1553 8.00391V14.8623H70.0354V8.00391H69.1553ZM73.944 14.8623H73.0639V8.84977H71.1436V8.00391H75.853V8.84977H73.944V14.8623ZM80.4024 13.3969C81.4327 14.4229 83.0985 14.4229 84.1288 13.3969C85.1406 12.2815 85.1406 10.5802 84.1288 9.46479C83.0985 8.43882 81.4327 8.43882 80.4024 9.46479C79.3906 10.5802 79.3906 12.2815 80.4024 13.3969ZM87.0322 8.00391V14.8623H87.9238V9.2727L91.4101 14.8623H92.3246V8.00391H91.4444V13.342L88.1067 8.00391H87.0322Z" fill="white"/>
<path d="M79.7514 13.9695L79.6787 14.0383L79.6809 14.0405L79.7514 13.9695ZM79.7514 8.88294L79.6804 8.81247L79.6787 8.81427L79.7514 8.88294ZM84.7809 13.9695L84.8514 14.0405L84.8534 14.0384L84.7809 13.9695ZM84.7809 8.88294L84.8534 8.81404L84.8519 8.81249L84.7809 8.88294ZM54.844 11.7042L54.7439 11.7042L54.7441 11.7089L54.844 11.7042ZM53.9867 13.9903L54.0587 14.0597L54.0589 14.0595L53.9867 13.9903ZM54.7983 11.1899L54.8967 11.1722L54.8819 11.0899H54.7983V11.1899ZM51.472 11.1899V11.0899H51.372V11.1899H51.472ZM51.472 12.0129H51.372V12.1129H51.472V12.0129ZM53.9524 12.0129L54.0524 12.0161L54.0557 11.9129H53.9524V12.0129ZM53.3809 13.4074L53.4505 13.4794L53.4544 13.4752L53.3809 13.4074ZM50.4351 13.9438L50.3954 14.0356L50.4351 13.9438ZM48.8086 11.4299L48.9088 11.4313L48.9086 11.4264L48.8086 11.4299ZM51.472 8.68656L51.4715 8.78674L51.4774 8.78641L51.472 8.68656ZM53.3466 9.49813L53.27 9.56248L53.3402 9.64594L53.4173 9.56884L53.3466 9.49813ZM53.9524 8.89231L54.0231 8.96302L54.0891 8.89707L54.0279 8.82669L53.9524 8.89231ZM52.8779 8.12646L52.8386 8.21842L52.8405 8.2192L52.8779 8.12646ZM51.472 7.8407L51.4697 7.9407L51.4723 7.9407L51.472 7.8407ZM48.9458 8.86945L49.0168 8.93993L49.0173 8.93942L48.9458 8.86945ZM48.1705 12.7775L48.2629 12.7394L48.1705 12.7775ZM51.472 15.0077L51.4755 14.9077L51.4728 14.9077L51.472 15.0077ZM60.0808 8.84977V8.94977H60.1808V8.84977H60.0808ZM56.9945 8.84977V8.74977H56.8945V8.84977H56.9945ZM60.0808 8.00391H60.1808V7.90391H60.0808V8.00391ZM56.0801 8.00391V7.90391H55.9801V8.00391H56.0801ZM56.0801 14.8623H55.9801V14.9623H56.0801V14.8623ZM60.0808 14.8623V14.9623H60.1808V14.8623H60.0808ZM60.0808 14.0164H60.1808V13.9164H60.0808V14.0164ZM56.9945 14.0164H56.8945V14.1164H56.9945V14.0164ZM56.9945 11.8446V11.7446H56.8945V11.8446H56.9945ZM59.8064 11.8446V11.9446H59.9064V11.8446H59.8064ZM59.8064 11.0216H59.9064V10.9216H59.8064V11.0216ZM56.9945 11.0216H56.8945V11.1216H56.9945V11.0216ZM62.9467 14.8623H62.8467V14.9623H62.9467V14.8623ZM63.8269 14.8623V14.9623H63.9269V14.8623H63.8269ZM62.9467 8.84977H63.0467V8.74977H62.9467V8.84977ZM61.0264 8.84977H60.9264V8.94977H61.0264V8.84977ZM61.0264 8.00391V7.90391H60.9264V8.00391H61.0264ZM65.7929 8.00391H65.8929V7.90391H65.7929V8.00391ZM65.7929 8.84977V8.94977H65.8929V8.84977H65.7929ZM63.8269 8.84977V8.74977H63.7269V8.84977H63.8269ZM69.1553 14.8623H69.0553V14.9623H69.1553V14.8623ZM69.1553 8.00391V7.90391H69.0553V8.00391H69.1553ZM70.0354 14.8623V14.9623H70.1354V14.8623H70.0354ZM70.0354 8.00391H70.1354V7.90391H70.0354V8.00391ZM73.0639 14.8623H72.9639V14.9623H73.0639V14.8623ZM73.944 14.8623V14.9623H74.044V14.8623H73.944ZM73.0639 8.84977H73.1639V8.74977H73.0639V8.84977ZM71.1436 8.84977H71.0436V8.94977H71.1436V8.84977ZM71.1436 8.00391V7.90391H71.0436V8.00391H71.1436ZM75.853 8.00391H75.953V7.90391H75.853V8.00391ZM75.853 8.84977V8.94977H75.953V8.84977H75.853ZM73.944 8.84977V8.74977H73.844V8.84977H73.944ZM84.1288 13.3969L84.1995 13.4679L84.2029 13.4641L84.1288 13.3969ZM80.4024 13.3969L80.3283 13.4642L80.3319 13.4678L80.4024 13.3969ZM84.1288 9.46479L84.203 9.39752L84.1994 9.39393L84.1288 9.46479ZM80.4024 9.46479L80.3318 9.39384L80.3284 9.3976L80.4024 9.46479ZM87.0322 14.8623H86.9322V14.9623H87.0322V14.8623ZM87.0322 8.00391V7.90391H86.9322V8.00391H87.0322ZM87.9238 14.8623V14.9623H88.0238V14.8623H87.9238ZM87.9238 9.2727L88.0087 9.21978L87.8238 8.92341V9.2727H87.9238ZM91.4101 14.8623L91.3253 14.9152L91.3547 14.9623H91.4101V14.8623ZM92.3246 14.8623V14.9623H92.4246V14.8623H92.3246ZM92.3246 8.00391H92.4246V7.90391H92.3246V8.00391ZM91.4444 8.00391V7.90391H91.3444V8.00391H91.4444ZM91.4444 13.342L91.3596 13.395L91.5444 13.6905V13.342H91.4444ZM88.1067 8.00391L88.1915 7.95089L88.1621 7.90391H88.1067V8.00391ZM79.8241 13.9009C78.512 12.512 78.512 10.3405 79.8241 8.95161L79.6787 8.81427C78.2938 10.2802 78.2938 12.5723 79.6787 14.0382L79.8241 13.9009ZM84.7104 13.8986C83.3583 15.2432 81.1741 15.2432 79.822 13.8986L79.6809 14.0405C81.111 15.4626 83.4213 15.4626 84.8514 14.0405L84.7104 13.8986ZM84.7084 8.95183C86.026 10.3383 86.026 12.5141 84.7084 13.9007L84.8534 14.0384C86.2443 12.5747 86.2443 10.2778 84.8534 8.81406L84.7084 8.95183ZM82.2662 7.93594C83.1838 7.93594 84.0634 8.30218 84.7099 8.95339L84.8519 8.81249C84.1678 8.12346 83.2371 7.73594 82.2662 7.73594V7.93594ZM79.8224 8.95339C80.4689 8.30218 81.3486 7.93594 82.2662 7.93594V7.73594C81.2953 7.73594 80.3645 8.12346 79.6805 8.81249L79.8224 8.95339ZM54.7441 11.7089C54.7821 12.5288 54.4822 13.3284 53.9145 13.9212L54.0589 14.0595C54.6646 13.4272 54.9844 12.5742 54.9439 11.6996L54.7441 11.7089ZM54.6998 11.2075C54.7293 11.3714 54.7441 11.5377 54.744 11.7042L54.944 11.7043C54.9441 11.5259 54.9282 11.3478 54.8967 11.1722L54.6998 11.2075ZM51.472 11.2899H54.7983V11.0899H51.472V11.2899ZM51.572 12.0129V11.1899H51.372V12.0129H51.572ZM53.9524 11.9129H51.472V12.1129H53.9524V11.9129ZM53.4544 13.4752C53.8224 13.0764 54.0346 12.5585 54.0524 12.0161L53.8525 12.0096C53.8363 12.504 53.6428 12.976 53.3074 13.3396L53.4544 13.4752ZM50.3954 14.0356C51.4326 14.4842 52.6379 14.2647 53.4504 13.4793L53.3114 13.3355C52.557 14.0647 51.4379 14.2685 50.4748 13.852L50.3954 14.0356ZM48.7087 11.4285C48.6928 12.5584 49.3582 13.587 50.3954 14.0356L50.4748 13.852C49.5118 13.4355 48.8939 12.4805 48.9086 11.4313L48.7087 11.4285ZM49.4845 9.42155C48.963 9.9587 48.6829 10.6851 48.7087 11.4333L48.9086 11.4264C48.8846 10.7326 49.1444 10.059 49.628 9.56086L49.4845 9.42155ZM51.4725 8.58656C50.7238 8.58289 50.006 8.88439 49.4845 9.42155L49.628 9.56086C50.1116 9.06274 50.7772 8.78315 51.4715 8.78656L51.4725 8.58656ZM53.4231 9.43378C52.9404 8.85953 52.2156 8.54577 51.4665 8.58671L51.4774 8.78641C52.1637 8.74891 52.8277 9.03637 53.27 9.56248L53.4231 9.43378ZM53.8817 8.8216L53.2759 9.42742L53.4173 9.56884L54.0231 8.96302L53.8817 8.8216ZM52.8405 8.2192C53.2395 8.38013 53.5947 8.63328 53.8769 8.95792L54.0279 8.82669C53.7249 8.47821 53.3436 8.20646 52.9153 8.03372L52.8405 8.2192ZM51.4723 7.9407C51.9419 7.93913 52.4069 8.03363 52.8386 8.2184L52.9173 8.03453C52.4605 7.83903 51.9685 7.73904 51.4716 7.7407L51.4723 7.9407ZM49.0173 8.93942C49.6615 8.28172 50.5493 7.92016 51.4697 7.94067L51.4742 7.74072C50.4985 7.71898 49.5573 8.10226 48.8744 8.79947L49.0173 8.93942ZM48.2629 12.7394C47.7268 11.4366 48.0238 9.93936 49.0168 8.93993L48.8749 8.79897C47.8252 9.8555 47.5112 11.4383 48.078 12.8155L48.2629 12.7394ZM51.4728 14.9077C50.064 14.8966 48.7991 14.0422 48.2629 12.7394L48.078 12.8155C48.6448 14.1927 49.9819 15.096 51.4712 15.1077L51.4728 14.9077ZM53.9147 13.921C53.2788 14.5816 52.3918 14.9404 51.4755 14.9077L51.4684 15.1076C52.4415 15.1423 53.3834 14.7612 54.0587 14.0597L53.9147 13.921ZM60.0808 8.74977H56.9945V8.94977H60.0808V8.74977ZM59.9808 8.00391V8.84977H60.1808V8.00391H59.9808ZM56.0801 8.10391H60.0808V7.90391H56.0801V8.10391ZM56.1801 14.8623V8.00391H55.9801V14.8623H56.1801ZM60.0808 14.7623H56.0801V14.9623H60.0808V14.7623ZM59.9808 14.0164V14.8623H60.1808V14.0164H59.9808ZM56.9945 14.1164H60.0808V13.9164H56.9945V14.1164ZM56.8945 11.8446V14.0164H57.0945V11.8446H56.8945ZM59.8064 11.7446H56.9945V11.9446H59.8064V11.7446ZM59.7064 11.0216V11.8446H59.9064V11.0216H59.7064ZM56.9945 11.1216H59.8064V10.9216H56.9945V11.1216ZM56.8945 8.84977V11.0216H57.0945V8.84977H56.8945ZM62.9467 14.9623H63.8269V14.7623H62.9467V14.9623ZM62.8467 8.84977V14.8623H63.0467V8.84977H62.8467ZM61.0264 8.94977H62.9467V8.74977H61.0264V8.94977ZM60.9264 8.00391V8.84977H61.1264V8.00391H60.9264ZM65.7929 7.90391H61.0264V8.10391H65.7929V7.90391ZM65.8929 8.84977V8.00391H65.6929V8.84977H65.8929ZM63.8269 8.94977H65.7929V8.74977H63.8269V8.94977ZM63.9269 14.8623V8.84977H63.7269V14.8623H63.9269ZM69.2553 14.8623V8.00391H69.0553V14.8623H69.2553ZM70.0354 14.7623H69.1553V14.9623H70.0354V14.7623ZM69.9354 8.00391V14.8623H70.1354V8.00391H69.9354ZM69.1553 8.10391H70.0354V7.90391H69.1553V8.10391ZM73.0639 14.9623H73.944V14.7623H73.0639V14.9623ZM72.9639 8.84977V14.8623H73.1639V8.84977H72.9639ZM71.1436 8.94977H73.0639V8.74977H71.1436V8.94977ZM71.0436 8.00391V8.84977H71.2436V8.00391H71.0436ZM75.853 7.90391H71.1436V8.10391H75.853V7.90391ZM75.953 8.84977V8.00391H75.753V8.84977H75.953ZM73.944 8.94977H75.853V8.74977H73.944V8.94977ZM74.044 14.8623V8.84977H73.844V14.8623H74.044ZM84.0582 13.3261C83.067 14.3132 81.4642 14.3132 80.473 13.3261L80.3319 13.4678C81.4011 14.5326 83.1301 14.5326 84.1994 13.4678L84.0582 13.3261ZM84.0547 9.53198C85.032 10.6093 85.032 12.2524 84.0547 13.3297L84.2029 13.4641C85.2493 12.3105 85.2493 10.5511 84.2029 9.3976L84.0547 9.53198ZM80.473 9.53565C81.4642 8.54853 83.067 8.54853 84.0582 9.53565L84.1994 9.39393C83.1301 8.32911 81.4011 8.32911 80.3319 9.39393L80.473 9.53565ZM80.4765 13.3297C79.4992 12.2524 79.4992 10.6093 80.4765 9.53198L80.3284 9.3976C79.282 10.5511 79.282 12.3105 80.3284 13.4641L80.4765 13.3297ZM87.1322 14.8623V8.00391H86.9322V14.8623H87.1322ZM87.9238 14.7623H87.0322V14.9623H87.9238V14.7623ZM87.8238 9.2727V14.8623H88.0238V9.2727H87.8238ZM91.495 14.8093L88.0087 9.21978L87.839 9.32562L91.3253 14.9152L91.495 14.8093ZM92.3246 14.7623H91.4101V14.9623H92.3246V14.7623ZM92.2246 8.00391V14.8623H92.4246V8.00391H92.2246ZM91.4444 8.10391H92.3246V7.90391H91.4444V8.10391ZM91.5444 13.342V8.00391H91.3444V13.342H91.5444ZM88.0219 8.05692L91.3596 13.395L91.5292 13.289L88.1915 7.95089L88.0219 8.05692ZM87.0322 8.10391H88.1067V7.90391H87.0322V8.10391Z" fill="white"/>
<path d="M12.5738 8.61908C12.2013 9.06614 12.0132 9.63845 12.048 10.2194V35.5038C12.0132 36.0847 12.2013 36.657 12.5738 37.1041L12.6539 37.1841L26.8164 23.033V22.7016L12.6539 8.53906L12.5738 8.61908Z" fill="url(#paint0_linear_2877_8409)"/>
<path d="M31.501 27.7533L26.8145 23.0325V22.701L31.501 17.9688L31.6039 18.0259L37.2163 21.215C38.8166 22.1181 38.8166 23.604 37.2163 24.5185L31.6267 27.6962L31.501 27.7533Z" fill="url(#paint1_linear_2877_8409)"/>
<path d="M31.6385 27.687L26.8148 22.8633L12.5723 37.1058C13.2452 37.6973 14.2439 37.7262 14.9498 37.1744L31.6499 27.687" fill="url(#paint2_linear_2877_8409)"/>
<path d="M31.6372 18.0389L14.9371 8.55152C14.2312 7.99974 13.2325 8.02854 12.5596 8.6201L26.8135 22.8626L31.6372 18.0389Z" fill="url(#paint3_linear_2877_8409)"/>
<path opacity="0.2" d="M31.5013 27.582L14.9384 37.0123C14.2606 37.519 13.3301 37.519 12.6523 37.0123L12.5723 37.0923L12.6523 37.1723C13.3288 37.6829 14.2619 37.6829 14.9384 37.1723L31.6385 27.6849L31.5013 27.582Z" fill="black"/>
<path opacity="0.12" fill-rule="evenodd" clip-rule="evenodd" d="M31.5021 27.5841L37.2174 24.3493C37.808 24.0577 38.2302 23.5089 38.3604 22.8633C38.3015 23.577 37.8656 24.2048 37.2174 24.5093L31.605 27.687L31.5021 27.5841ZM12.0456 35.5663C12.0644 36.0692 12.249 36.5542 12.5738 36.944L12.6539 37.0355L12.5738 37.1155C12.2122 36.6815 12.0244 36.1296 12.0456 35.5663ZM12.0456 35.5663C12.0462 35.5493 12.047 35.5322 12.048 35.5152V35.3438C12.0436 35.4181 12.0428 35.4924 12.0456 35.5663Z" fill="black"/>
<path opacity="0.25" d="M14.9385 8.70971L37.2167 21.3748C37.8074 21.6663 38.2295 22.2151 38.3598 22.8608C38.3009 22.147 37.8649 21.5193 37.2167 21.2148L14.9385 8.54968C13.3382 7.64667 12.0352 8.40109 12.0352 10.23V10.4014C12.0694 8.56111 13.3497 7.8067 14.9385 8.70971Z" fill="white"/>
<defs>
<linearGradient id="paint0_linear_2877_8409" x1="20.6132" y1="-8.63993" x2="-2.06438" y2="-2.60876" gradientUnits="userSpaceOnUse">
<stop stop-color="#00A0FF"/>
<stop offset="0.01" stop-color="#00A1FF"/>
<stop offset="0.26" stop-color="#00BEFF"/>
<stop offset="0.51" stop-color="#00D2FF"/>
<stop offset="0.76" stop-color="#00DFFF"/>
<stop offset="1" stop-color="#00E3FF"/>
</linearGradient>
<linearGradient id="paint1_linear_2877_8409" x1="39.3081" y1="11.2015" x2="11.6575" y2="11.2015" gradientUnits="userSpaceOnUse">
<stop stop-color="#FFE000"/>
<stop offset="0.41" stop-color="#FFBD00"/>
<stop offset="0.78" stop-color="#FFA500"/>
<stop offset="1" stop-color="#FF9C00"/>
</linearGradient>
<linearGradient id="paint2_linear_2877_8409" x1="12.1538" y1="15.4649" x2="-6.0625" y2="46.1064" gradientUnits="userSpaceOnUse">
<stop stop-color="#FF3A44"/>
<stop offset="1" stop-color="#C31162"/>
</linearGradient>
<linearGradient id="paint3_linear_2877_8409" x1="1.44907" y1="4.68342" x2="9.57996" y2="18.3664" gradientUnits="userSpaceOnUse">
<stop stop-color="#32A071"/>
<stop offset="0.07" stop-color="#2DA771"/>
<stop offset="0.48" stop-color="#15CF74"/>
<stop offset="0.8" stop-color="#06E775"/>
<stop offset="1" stop-color="#00F076"/>
</linearGradient>
</defs>
</svg>
