<svg width="70" height="70" viewBox="0 0 70 70" fill="none" xmlns="http://www.w3.org/2000/svg">
<rect x="0.5" y="0.5" width="69" height="69" rx="34.5" fill="url(#paint0_linear_2877_7955)" stroke="white"/>
<path d="M27.4545 43.7272C27.7804 43.4791 28.0777 43.2487 28.3791 43.0243C28.6921 42.7914 28.9962 42.8059 29.1868 43.0555C29.3891 43.3203 29.3264 43.6504 29.0093 43.9009C28.5732 44.2452 28.1334 44.585 27.6865 44.9144C27.3676 45.1495 27.1105 45.1021 26.8709 44.7778C26.7077 44.5567 26.5521 44.329 26.4025 44.0979C26.1973 43.7806 26.2262 43.4864 26.4702 43.2909C26.7261 43.0859 27.0193 43.1482 27.2563 43.4591C27.3137 43.5341 27.3691 43.6112 27.4545 43.7272ZM27.1828 32.8617C26.9563 32.5669 26.6719 32.4982 26.4235 32.6768C26.1562 32.8687 26.1198 33.1766 26.3334 33.506C26.4769 33.7271 26.6264 33.9442 26.7803 34.1576C27.0377 34.5147 27.2951 34.5578 27.6495 34.2937C28.0756 33.9758 28.4957 33.6487 28.916 33.3226C29.2378 33.073 29.3174 32.7527 29.1308 32.4834C28.9396 32.207 28.6333 32.1852 28.303 32.4314C28.0016 32.6561 27.7046 32.8869 27.3805 33.1344C27.2948 33.0156 27.2408 32.937 27.1828 32.8617ZM46.9999 46.6534C47.0139 49.6017 44.7232 51.9999 41.8926 51.9999H39.9312V51.9941C34.9754 52.002 30.0196 52.0039 25.064 51.9875C22.8846 51.9796 21.0174 50.0551 21.0118 47.8005C20.992 40.7375 21.0031 33.6751 21.0031 26.6124C21.0031 26.5529 21.0095 26.4934 21.0171 26.3862H21.396C23.135 26.3862 24.8737 26.3871 26.6127 26.3862C28.2599 26.3853 29.2384 25.363 29.2401 23.6365C29.2419 21.9224 29.2401 20.2083 29.2401 18.4946V18.0015H29.5928C33.9453 18.0015 38.2986 17.9966 42.651 18.0045C44.6995 18.0085 46.3225 19.3521 46.7912 21.4111C46.8661 21.7414 46.8988 22.0806 46.9005 22.4195C46.9052 24.0682 46.9052 25.7158 46.9035 27.3637L46.9064 27.3579L46.9999 46.6534ZM24.6411 33.3466C24.6411 34.0629 24.6373 34.7801 24.642 35.4961C24.6458 36.2318 25.0049 36.6253 25.7129 36.6314C27.1001 36.642 28.4872 36.6432 29.8735 36.6305C30.5591 36.6238 30.9351 36.2221 30.9389 35.5149C30.9453 34.0708 30.9465 32.6258 30.938 31.1807C30.9342 30.4939 30.5553 30.0913 29.8922 30.0855C28.4936 30.0727 27.0954 30.0737 25.6968 30.0846C25.0084 30.0894 24.6463 30.4833 24.6417 31.1983C24.6373 31.9143 24.6411 32.6306 24.6411 33.3466ZM30.938 41.7666C30.9334 41.0816 30.5396 40.6829 29.8828 40.6811C28.4843 40.6762 27.0852 40.6762 25.6858 40.6811C25.0282 40.6829 24.6475 41.0816 24.642 41.7684C24.6364 42.4962 24.6411 43.2253 24.6411 43.954C24.6411 44.6828 24.6356 45.4118 24.6428 46.1405C24.6484 46.8225 25.032 47.2318 25.6878 47.2367C27.0872 47.2455 28.4866 47.2455 29.8849 47.2358C30.5349 47.2318 30.9334 46.8167 30.9371 46.1387C30.9473 44.6809 30.9473 43.2235 30.938 41.7666ZM32.9904 25.0086C34.6125 25.0095 36.2343 25.0086 37.8564 25.0086C39.4904 25.0086 41.1236 25.0095 42.758 25.0086C43.3098 25.0077 43.482 24.8234 43.4838 24.2398C43.4846 23.6444 43.4855 23.0489 43.4829 22.4529C43.48 21.8176 43.208 21.6607 42.4286 21.7511C39.4082 22.1028 36.3634 22.0979 33.343 21.7542C32.5106 21.6598 32.2383 21.8019 32.2337 22.4811C32.2299 23.0638 32.2307 23.6474 32.2337 24.2313C32.2363 24.8313 32.4086 25.0086 32.9904 25.0086ZM43.5558 41.3807C43.5558 39.4134 42.4548 38.2021 40.2081 37.7011L39.2727 37.5013V34.2584C40.1903 34.3957 40.8461 35.0789 40.8724 35.9072H43.3109C43.2762 33.8036 41.7031 32.3194 39.2727 32.0825V30.844H38.0482V32.0825C35.4432 32.3009 33.9044 33.7401 33.9044 35.9801C33.9044 37.883 35.0325 39.1401 37.1306 39.6496L38.0482 39.8776V43.2657C36.9557 43.1466 36.213 42.4735 36.1512 41.571H33.6509C33.6602 43.7937 35.312 45.232 38.0482 45.3966V46.5347H39.2727V45.3781C42.0086 45.1419 43.5558 43.7029 43.5558 41.3807ZM41.0732 41.6907C41.0732 42.6104 40.4092 43.2019 39.2724 43.2751V40.1063C40.4961 40.3431 41.0732 40.8526 41.0732 41.6907ZM38.0482 34.2499V37.2375C36.9904 37.0182 36.4404 36.4902 36.4404 35.725C36.4401 34.9146 37.1044 34.3046 38.0482 34.2499ZM28.1815 18.4809C28.1815 18.3625 28.1707 18.2444 28.1637 18.0986C23.4052 18.8122 21.7236 23.0753 21.2546 24.6792C21.2057 24.8295 21.1657 24.9861 21.131 25.1468C21.1098 25.2382 21.1004 25.2889 21.1004 25.2889C21.203 25.2889 21.2919 25.2889 21.3768 25.2889C21.4208 25.2889 21.4642 25.2889 21.5071 25.2889C23.2102 25.2889 24.9136 25.2892 26.6168 25.2889C27.676 25.2886 28.1803 24.7648 28.1815 23.658C28.1838 21.9321 28.1826 20.2065 28.1815 18.4809Z" fill="#25B1FA"/>
<defs>
<linearGradient id="paint0_linear_2877_7955" x1="35" y1="0" x2="35" y2="70" gradientUnits="userSpaceOnUse">
<stop stop-color="white"/>
<stop offset="0.802671" stop-color="#C0EAFF"/>
<stop offset="1" stop-color="#99DCFF"/>
</linearGradient>
</defs>
</svg>
