<svg width="70" height="70" viewBox="0 0 70 70" fill="none" xmlns="http://www.w3.org/2000/svg">
<rect x="0.5" y="0.5" width="69" height="69" rx="34.5" fill="url(#paint0_linear_2877_7935)" stroke="white"/>
<path d="M46.0265 52.1719H43.0312L41.8125 50.9531L41.8306 18.0469L51.4265 19.7432C51.6246 19.7782 51.8009 19.8903 51.9167 20.0548C52.0326 20.2194 52.0786 20.4231 52.0447 20.6215L46.7774 51.5381C46.7472 51.7154 46.6552 51.8763 46.5178 51.9923C46.3804 52.1083 46.2063 52.1719 46.0265 52.1719Z" fill="#00987F"/>
<path d="M41.8306 18.0469L41.8125 50.9531L43.0312 52.1719H44.25V18.4746L41.8306 18.0469Z" fill="#00987F"/>
<path d="M42.2695 16.8281H17.5898C17.1692 16.8281 16.8281 17.1692 16.8281 17.5898V51.4102C16.8281 51.8308 17.1692 52.1719 17.5898 52.1719H42.2695C42.6902 52.1719 43.0312 51.8308 43.0312 51.4102V17.5898C43.0312 17.1692 42.6902 16.8281 42.2695 16.8281Z" fill="#25B1FA"/>
<path d="M24.4453 34.5H21.3984C20.5571 34.5 19.875 35.1821 19.875 36.0234V39.0703C19.875 39.9117 20.5571 40.5938 21.3984 40.5938H24.4453C25.2867 40.5938 25.9688 39.9117 25.9688 39.0703V36.0234C25.9688 35.1821 25.2867 34.5 24.4453 34.5Z" fill="#FCFEFF"/>
<path d="M24.4453 43.6406H21.3984C20.5571 43.6406 19.875 44.3227 19.875 45.1641V48.2109C19.875 49.0523 20.5571 49.7344 21.3984 49.7344H24.4453C25.2867 49.7344 25.9688 49.0523 25.9688 48.2109V45.1641C25.9688 44.3227 25.2867 43.6406 24.4453 43.6406Z" fill="#FCFEFF"/>
<path d="M23.5312 39.375C23.4512 39.375 23.372 39.3593 23.298 39.3286C23.2241 39.298 23.1569 39.2531 23.1003 39.1966L21.2722 37.3684L22.134 36.5066L23.4968 37.8694L26.7248 34.1034L27.6502 34.8966L23.9939 39.1623C23.9393 39.226 23.872 39.2778 23.7964 39.3143C23.7209 39.3508 23.6385 39.3713 23.5546 39.3746C23.5468 39.3749 23.539 39.3751 23.5312 39.375ZM23.5312 48.5156C23.4512 48.5156 23.372 48.4999 23.298 48.4693C23.2241 48.4386 23.1569 48.3938 23.1003 48.3372L21.2722 46.5091L22.134 45.6472L23.4968 47.01L26.7248 43.244L27.6502 44.0373L23.9939 48.3029C23.9393 48.3666 23.872 48.4184 23.7964 48.4549C23.7209 48.4915 23.6385 48.512 23.5546 48.5152C23.5468 48.5156 23.539 48.5157 23.5312 48.5156Z" fill="#BFE9FF"/>
<path d="M29.0156 43.0312H38.1562V44.25H29.0156V43.0312ZM29.0156 46.0781H32.0625V47.2969H29.0156V46.0781Z" fill="#FCFEFF"/>
<path d="M33.2812 46.0781H38.1562V47.2969H33.2812V46.0781ZM29.0156 33.8906H38.1562V35.1094H29.0156V33.8906ZM29.0156 36.9375H32.0625V38.1562H29.0156V36.9375ZM33.2812 36.9375H38.1562V38.1562H33.2812V36.9375ZM30.2268 19.2656L24.75 21.7078L25.2065 24.6061C25.6413 26.965 26.9645 29.0672 28.9032 30.4795L30.2317 31.4579L31.4974 30.5378C33.4619 29.1262 34.8039 27.0091 35.2423 24.63L35.7035 21.7078L30.2268 19.2656ZM30.0413 27.0136C29.927 27.1279 29.772 27.1921 29.6104 27.1921C29.4488 27.1921 29.2938 27.1279 29.1795 27.0136L27.3514 25.1855L28.2132 24.3234L29.6105 25.7207L32.8359 22.4953L33.6976 23.357L30.0413 27.0136ZM19.2656 18.6562H22.9219V19.875H19.2656V18.6562ZM19.2656 21.0938H21.7031V22.3125H19.2656V21.0938ZM37.5469 18.6562H38.7656V19.875H37.5469V18.6562ZM39.9844 18.6562H41.2031V19.875H39.9844V18.6562Z" fill="#FCFEFF"/>
<defs>
<linearGradient id="paint0_linear_2877_7935" x1="35" y1="0" x2="35" y2="70" gradientUnits="userSpaceOnUse">
<stop stop-color="white"/>
<stop offset="0.802671" stop-color="#C0EAFF"/>
<stop offset="1" stop-color="#99DCFF"/>
</linearGradient>
</defs>
</svg>
