<svg width="70" height="70" viewBox="0 0 70 70" fill="none" xmlns="http://www.w3.org/2000/svg">
<rect x="0.5" y="0.5" width="69" height="69" rx="34.5" fill="url(#paint0_linear_2877_7808)" stroke="white"/>
<path d="M49.1245 25.7403V19.418C49.1245 17.95 48.259 16.6848 47.0107 16.103C45.7625 16.6848 44.897 17.95 44.897 19.418V27.2637H47.6011C48.4425 27.2637 49.1245 26.5818 49.1245 25.7403Z" fill="#FF8C34"/>
<path d="M45.4684 15.7617H19.418C17.3985 15.7617 15.7617 17.3985 15.7617 19.418V47.6013C15.7617 48.4427 16.4437 49.1247 17.2852 49.1247H41.8122V19.418C41.8122 17.3985 43.4493 15.7617 45.4684 15.7617Z" fill="#00C7BE"/>
<path d="M47.1696 46.8089V38.7118C47.1694 36.2845 46.3164 33.9344 44.7598 32.072V43.9655C44.7598 45.0903 43.8481 46.0016 42.7234 46.0016C42.1536 46.0016 41.6264 45.7636 41.2502 45.369C40.8795 45.7586 40.3561 46.0016 39.7759 46.0016C39.3486 46.0016 38.9321 45.8672 38.5854 45.6173C38.2387 45.3675 37.9794 45.0149 37.8442 44.6095L36.696 41.1653C36.6789 41.1147 36.6593 41.0649 36.6371 41.0163C36.5436 41.2236 36.4952 41.4485 36.4951 41.6759V47.5823C36.4951 48.6004 36.6966 49.6085 37.0885 50.5484L38.209 53.2381H45.7223C46.6752 51.2287 47.1696 49.0327 47.1696 46.8089Z" fill="#FFD0BB"/>
<path d="M23.3296 24.8851H21.0388C20.7983 24.8851 20.5676 24.8298 20.3975 24.7313C20.2274 24.6328 20.1319 24.4993 20.1318 24.36V20.6567C20.1318 20.5877 20.1552 20.5195 20.2008 20.4557C20.2464 20.392 20.3132 20.3341 20.3974 20.2854C20.4816 20.2366 20.5816 20.1979 20.6917 20.1715C20.8018 20.1451 20.9197 20.1316 21.0388 20.1316H23.3296C23.4487 20.1316 23.5667 20.1451 23.6768 20.1715C23.7869 20.1979 23.8869 20.2366 23.9712 20.2853C24.0555 20.3341 24.1223 20.392 24.1679 20.4557C24.2136 20.5194 24.2371 20.5877 24.2371 20.6567V24.36C24.237 24.4993 24.1413 24.6329 23.9711 24.7313C23.8009 24.8298 23.5702 24.8851 23.3296 24.8851ZM23.3296 33.798H21.0388C20.9197 33.798 20.8017 33.7844 20.6917 33.7579C20.5816 33.7315 20.4816 33.6928 20.3974 33.644C20.3132 33.5952 20.2464 33.5373 20.2008 33.4736C20.1552 33.4099 20.1318 33.3415 20.1318 33.2726V29.5696C20.1318 29.5006 20.1552 29.4323 20.2008 29.3686C20.2464 29.3049 20.3132 29.247 20.3974 29.1982C20.4816 29.1494 20.5816 29.1108 20.6917 29.0844C20.8018 29.058 20.9197 29.0444 21.0388 29.0445H23.3296C23.4487 29.0444 23.5667 29.058 23.6768 29.0844C23.7869 29.1108 23.8869 29.1494 23.9712 29.1982C24.0555 29.247 24.1223 29.3048 24.1679 29.3686C24.2136 29.4323 24.2371 29.5006 24.2371 29.5696V33.2726C24.2371 33.4119 24.1414 33.5455 23.9713 33.6441C23.8011 33.7426 23.5703 33.798 23.3296 33.798ZM23.3296 42.7105H21.0388C20.9197 42.7106 20.8018 42.697 20.6917 42.6706C20.5816 42.6442 20.4816 42.6055 20.3974 42.5568C20.3132 42.508 20.2464 42.4501 20.2008 42.3864C20.1552 42.3227 20.1318 42.2544 20.1318 42.1854V38.4824C20.1318 38.4135 20.1552 38.3452 20.2008 38.2815C20.2464 38.2177 20.3132 38.1598 20.3974 38.1111C20.4816 38.0623 20.5816 38.0236 20.6917 37.9972C20.8018 37.9709 20.9197 37.9573 21.0388 37.9573H23.3296C23.4487 37.9573 23.5667 37.9709 23.6768 37.9972C23.7869 38.0236 23.8869 38.0623 23.9712 38.1111C24.0555 38.1598 24.1223 38.2177 24.1679 38.2814C24.2136 38.3451 24.2371 38.4135 24.2371 38.4824V42.1854C24.2371 42.2544 24.2136 42.3227 24.1679 42.3864C24.1223 42.4501 24.0555 42.508 23.9712 42.5568C23.8869 42.6056 23.7869 42.6442 23.6768 42.6706C23.5667 42.697 23.4487 42.7106 23.3296 42.7105Z" fill="#00C7BE"/>
<path d="M45.4684 15H19.418C16.982 15 15 16.982 15 19.418V47.6013C15 48.8614 16.025 49.8864 17.2852 49.8864H27.289C27.7097 49.8864 28.0507 49.5455 28.0507 49.1247C28.0507 48.704 27.7097 48.363 27.289 48.363H17.2852C16.865 48.363 16.5234 48.0214 16.5234 47.6013V19.418C16.5234 17.8219 17.8219 16.5234 19.418 16.5234H42.135C41.4605 17.2995 41.0505 18.3114 41.0505 19.418V43.9656C41.0505 44.6683 40.4789 45.2399 39.7761 45.2399C39.5086 45.2401 39.2478 45.1561 39.0308 44.9997C38.8137 44.8433 38.6514 44.6226 38.5669 44.3688L37.419 40.9243C37.2616 40.4506 36.9589 40.0387 36.554 39.7469C36.1491 39.4551 35.6625 39.2983 35.1635 39.2988C33.8525 39.2988 32.7861 40.3652 32.7861 41.6759V42.2693H28.8379C28.4172 42.2693 28.0762 42.6106 28.0762 43.031C28.0762 43.4517 28.4172 43.7927 28.8379 43.7927H32.7861V47.5823C32.785 48.7012 33.0066 49.8092 33.4381 50.8415L34.5586 53.5311C34.6164 53.67 34.7141 53.7886 34.8393 53.872C34.9645 53.9555 35.1116 54 35.262 54C35.3624 54 35.4619 53.9801 35.5545 53.9413C35.9431 53.7795 36.1267 53.3335 35.9648 52.9452L34.8443 50.2557C34.4905 49.4089 34.3087 48.5002 34.3096 47.5825V41.6762C34.3096 41.2052 34.6925 40.8223 35.1635 40.8223C35.5316 40.8223 35.8574 41.0567 35.9738 41.406L37.1217 44.8505C37.307 45.4078 37.6632 45.8926 38.1397 46.236C38.6162 46.5794 39.1888 46.7639 39.7761 46.7634C41.3189 46.7634 42.5739 45.5084 42.5739 43.9656V30.9059L43.5918 31.9217C45.408 33.7344 46.4081 36.146 46.4081 38.7118V46.8088C46.4081 48.9063 45.9329 51.0165 45.0343 52.9116C44.854 53.2915 45.0162 53.7459 45.3962 53.9262C45.7761 54.1065 46.2305 53.9446 46.4108 53.5644C47.4055 51.4667 47.9315 49.1306 47.9315 46.8089V38.7118C47.9315 35.7384 46.7726 32.9441 44.668 30.8434L42.5739 28.7532V28.0254H47.6013C48.8614 28.0254 49.8864 27.0003 49.8864 25.7402V19.418C49.8864 16.982 47.9047 15 45.4684 15ZM48.363 25.7402C48.363 26.1601 48.0214 26.502 47.6013 26.502H42.5739V19.418C42.5739 17.8219 43.8724 16.5234 45.4684 16.5234C47.0645 16.5234 48.363 17.8219 48.363 19.418V25.7402Z" fill="#051826"/>
<path d="M30.6151 48.363C30.4146 48.363 30.2183 48.4445 30.0766 48.5862C29.9343 48.7294 29.8542 48.9228 29.8534 49.1247C29.8534 49.3253 29.9349 49.5216 30.0766 49.6632C30.2198 49.8056 30.4132 49.8858 30.6151 49.8864C30.8154 49.8864 31.0118 49.8049 31.1537 49.6632C31.296 49.5201 31.3762 49.3266 31.3769 49.1247C31.3769 48.9244 31.2953 48.7281 31.1537 48.5862C31.0104 48.4439 30.817 48.3637 30.6151 48.363ZM25.4863 20.6367C25.4863 19.7968 24.8028 19.1133 23.9629 19.1133H20.6113C19.7711 19.1133 19.0879 19.7968 19.0879 20.6367V23.9883C19.0879 24.8282 19.7711 25.5117 20.6113 25.5117H23.9629C24.8028 25.5117 25.4863 24.8282 25.4863 23.9883V20.6367ZM23.9629 23.9883H20.6113V20.6367H23.9629L23.9638 23.9883H23.9629ZM25.4863 29.7773C25.4863 28.9374 24.8028 28.2539 23.9629 28.2539H20.6113C19.7711 28.2539 19.0879 28.9374 19.0879 29.7773V33.1289C19.0879 33.9689 19.7711 34.6523 20.6113 34.6523H23.9629C24.8028 34.6523 25.4863 33.9689 25.4863 33.1289V29.7773ZM23.9629 33.1289H20.6113V29.7773H23.9629L23.9638 33.1289H23.9629ZM23.9629 37.3945H20.6113C19.7711 37.3945 19.0879 38.0777 19.0879 38.918V42.2692C19.0879 43.1095 19.7711 43.7927 20.6113 43.7927H23.9629C24.8028 43.7927 25.4863 43.1095 25.4863 42.2692V38.918C25.4863 38.0777 24.8028 37.3945 23.9629 37.3945ZM23.9629 42.2692H20.6113V38.918H23.9629L23.9638 42.2692H23.9629ZM37.5721 25.5117C37.9928 25.5117 38.3338 25.1707 38.3338 24.75C38.3338 24.3293 37.9928 23.9883 37.5721 23.9883H32.321C31.9002 23.9883 31.5593 24.3293 31.5593 24.75C31.5593 25.1707 31.9002 25.5117 32.321 25.5117H37.5721ZM28.8379 25.5117C29.0385 25.5117 29.2347 25.4302 29.3764 25.2885C29.5181 25.1469 29.5996 24.9503 29.5996 24.75C29.5996 24.5497 29.5181 24.3531 29.3764 24.2115C29.2333 24.0691 29.0398 23.9889 28.8379 23.9883C28.6368 23.9883 28.441 24.0698 28.2994 24.2115C28.1571 24.3531 28.0762 24.5497 28.0762 24.75C28.0762 24.9503 28.1571 25.1469 28.2994 25.2885C28.441 25.4302 28.6368 25.5117 28.8379 25.5117ZM28.8376 34.6523H37.5721C37.9928 34.6523 38.3338 34.3113 38.3338 33.8906C38.3338 33.4699 37.9928 33.1289 37.5721 33.1289H28.8376C28.4171 33.1289 28.0759 33.4699 28.0759 33.8906C28.0759 34.3113 28.4171 34.6523 28.8376 34.6523Z" fill="white"/>
<defs>
<linearGradient id="paint0_linear_2877_7808" x1="35" y1="0" x2="35" y2="70" gradientUnits="userSpaceOnUse">
<stop stop-color="white"/>
<stop offset="0.802671" stop-color="#BFFFFC"/>
<stop offset="1" stop-color="#69FFF8"/>
</linearGradient>
</defs>
</svg>
