<svg width="70" height="70" viewBox="0 0 70 70" fill="none" xmlns="http://www.w3.org/2000/svg">
<rect x="0.5" y="0.5" width="69" height="69" rx="34.5" fill="url(#paint0_linear_2877_7861)" stroke="white"/>
<g clip-path="url(#clip0_2877_7861)">
<path d="M44.2499 49.45V20.85C44.2499 19.42 43.0799 18.25 41.6499 18.25H18.2499C16.8199 18.25 15.6499 19.42 15.6499 20.85V49.45C15.6499 50.88 16.8199 52.05 18.2499 52.05H41.6499C42.3395 52.05 43.0008 51.7761 43.4884 51.2885C43.976 50.8009 44.2499 50.1396 44.2499 49.45Z" fill="#AD6D40"/>
<path d="M41 20.85H18.9C18.541 20.85 18.25 21.141 18.25 21.5V48.8C18.25 49.159 18.541 49.45 18.9 49.45H41C41.359 49.45 41.65 49.159 41.65 48.8V21.5C41.65 21.141 41.359 20.85 41 20.85Z" fill="#F8F8FF"/>
<path d="M35.15 18.25V20.2C35.15 20.915 34.565 21.5 33.85 21.5H26.05C25.335 21.5 24.75 20.915 24.75 20.2V18.25C24.75 17.8925 25.0425 17.6 25.4 17.6H27.4345C27.7205 16.4755 28.741 15.65 29.95 15.65C31.159 15.65 32.1795 16.4755 32.4655 17.6H34.5C34.8575 17.6 35.15 17.8925 35.15 18.25Z" fill="#CBCBF4"/>
<path d="M53.35 34.474V52.05C53.35 52.765 52.765 53.35 52.05 53.35H32.55C31.835 53.35 31.25 52.765 31.25 52.05V34.474H53.35Z" fill="#EA9453"/>
<path d="M53.1514 34.0041L49.2943 30.147C49.2321 30.0846 49.1581 30.0351 49.0767 30.0013C48.9953 29.9675 48.908 29.9501 48.8198 29.9501H35.7802C35.692 29.95 35.6047 29.9674 35.5233 30.0012C35.4419 30.035 35.3679 30.0846 35.3057 30.147L31.4486 34.0041C31.0254 34.4273 31.3251 35.1501 31.9231 35.1501H52.6776C53.2756 35.1501 53.5746 34.4273 53.1514 34.0041Z" fill="#FCB36B"/>
<path d="M45.5498 35.15V39.7C45.5498 39.8724 45.4813 40.0377 45.3594 40.1596C45.2375 40.2815 45.0722 40.35 44.8998 40.35H39.6998C39.5274 40.35 39.3621 40.2815 39.2402 40.1596C39.1183 40.0377 39.0498 39.8724 39.0498 39.7V35.15L39.6998 34.5H44.8998L45.5498 35.15Z" fill="#723535"/>
<path d="M37.7501 47.5H34.5001C34.1411 47.5 33.8501 47.791 33.8501 48.15V50.1C33.8501 50.459 34.1411 50.75 34.5001 50.75H37.7501C38.1091 50.75 38.4001 50.459 38.4001 50.1V48.15C38.4001 47.791 38.1091 47.5 37.7501 47.5Z" fill="white"/>
<path d="M45.5498 35.1501L43.5998 29.9501H40.9998L39.0498 35.1501H45.5498Z" fill="#914747"/>
<path d="M46.6593 47.0404C46.5989 46.98 46.5273 46.9321 46.4485 46.8994C46.3696 46.8667 46.2851 46.8499 46.1997 46.8499C46.1143 46.8499 46.0298 46.8667 45.951 46.8994C45.8721 46.9321 45.8005 46.98 45.7402 47.0404L45.0902 47.6904C44.999 47.7812 44.9368 47.897 44.9115 48.0232C44.8863 48.1494 44.8991 48.2802 44.9483 48.3991C44.9976 48.518 45.081 48.6196 45.1881 48.6909C45.2952 48.7623 45.421 48.8003 45.5497 48.8V50.75C45.5497 50.9224 45.6182 51.0877 45.7401 51.2096C45.862 51.3315 46.0273 51.4 46.1997 51.4C46.3721 51.4 46.5374 51.3315 46.6593 51.2096C46.7812 51.0877 46.8497 50.9224 46.8497 50.75V48.8C46.9784 48.8003 47.1042 48.7623 47.2113 48.6909C47.3184 48.6196 47.4018 48.518 47.4511 48.3991C47.5003 48.2802 47.5131 48.1494 47.4879 48.0232C47.4626 47.897 47.4005 47.7812 47.3093 47.6904L46.6593 47.0404ZM51.2093 47.6904L50.5593 47.0404C50.4989 46.98 50.4273 46.9321 50.3485 46.8994C50.2696 46.8667 50.1851 46.8499 50.0997 46.8499C50.0143 46.8499 49.9298 46.8667 49.851 46.8994C49.7721 46.9321 49.7005 46.98 49.6402 47.0404L48.9902 47.6904C48.899 47.7812 48.8368 47.897 48.8115 48.0232C48.7863 48.1494 48.7991 48.2802 48.8483 48.3991C48.8976 48.518 48.981 48.6196 49.0881 48.6909C49.1952 48.7623 49.321 48.8003 49.4497 48.8V50.75C49.4497 50.9224 49.5182 51.0877 49.6401 51.2096C49.762 51.3315 49.9273 51.4 50.0997 51.4C50.2721 51.4 50.4374 51.3315 50.5593 51.2096C50.6812 51.0877 50.7497 50.9224 50.7497 50.75V48.8C50.8784 48.8003 51.0042 48.7623 51.1113 48.6909C51.2184 48.6196 51.3018 48.518 51.3511 48.3991C51.4003 48.2802 51.4131 48.1494 51.3879 48.0232C51.3626 47.897 51.3005 47.7812 51.2093 47.6904Z" fill="#20295E"/>
<path d="M24.0998 29.95C24.0144 29.9501 23.9299 29.9333 23.851 29.9007C23.7722 29.868 23.7005 29.82 23.6403 29.7596L22.3403 28.4596C22.2184 28.3377 22.1499 28.1724 22.1499 28C22.1499 27.8277 22.2184 27.6624 22.3403 27.5405C22.4621 27.4186 22.6274 27.3501 22.7998 27.3501C22.9722 27.3501 23.1375 27.4186 23.2594 27.5405L23.9991 28.2802L26.159 25.0399C26.2064 24.9689 26.2673 24.9079 26.3382 24.8604C26.4092 24.813 26.4888 24.7799 26.5725 24.7632C26.6562 24.7465 26.7424 24.7464 26.8261 24.763C26.9099 24.7796 26.9895 24.8125 27.0606 24.8599C27.1316 24.9073 27.1926 24.9682 27.2401 25.0391C27.2875 25.1101 27.3206 25.1897 27.3373 25.2734C27.354 25.3571 27.3541 25.4433 27.3375 25.527C27.3209 25.6108 27.288 25.6904 27.2406 25.7614L24.6406 29.6614C24.5812 29.7504 24.5008 29.8234 24.4065 29.8739C24.3121 29.9243 24.2068 29.9501 24.0998 29.95ZM24.0998 37.75C24.0144 37.7501 23.9299 37.7333 23.851 37.7007C23.7722 37.668 23.7005 37.62 23.6403 37.5596L22.3403 36.2596C22.2799 36.1992 22.232 36.1276 22.1994 36.0487C22.1667 35.9699 22.1499 35.8854 22.1499 35.8C22.1499 35.7147 22.1667 35.6302 22.1994 35.5513C22.232 35.4725 22.2799 35.4008 22.3403 35.3405C22.4006 35.2801 22.4722 35.2323 22.5511 35.1996C22.6299 35.167 22.7145 35.1501 22.7998 35.1501C22.8852 35.1501 22.9697 35.167 23.0485 35.1996C23.1274 35.2323 23.199 35.2801 23.2594 35.3405L23.9991 36.0802L26.159 32.8399C26.2547 32.6965 26.4034 32.597 26.5725 32.5632C26.7416 32.5294 26.9171 32.5642 27.0606 32.6599C27.204 32.7556 27.3035 32.9043 27.3373 33.0734C27.3711 33.2425 27.3363 33.418 27.2406 33.5614L24.6406 37.4614C24.5812 37.5504 24.5008 37.6234 24.4065 37.6739C24.3121 37.7243 24.2068 37.7501 24.0998 37.75ZM24.0998 45.55C24.0144 45.5501 23.9299 45.5333 23.851 45.5007C23.7722 45.468 23.7005 45.42 23.6403 45.3596L22.3403 44.0596C22.2799 43.9992 22.232 43.9276 22.1994 43.8487C22.1667 43.7699 22.1499 43.6854 22.1499 43.6C22.1499 43.5147 22.1667 43.4302 22.1994 43.3513C22.232 43.2725 22.2799 43.2008 22.3403 43.1405C22.4006 43.0801 22.4722 43.0323 22.5511 42.9996C22.6299 42.967 22.7145 42.9501 22.7998 42.9501C22.8852 42.9501 22.9697 42.9669 23.0485 42.9996C23.1274 43.0323 23.199 43.0801 23.2594 43.1405L23.9991 43.8802L26.159 40.6399C26.2064 40.5689 26.2673 40.5079 26.3382 40.4604C26.4092 40.413 26.4888 40.3799 26.5725 40.3632C26.6562 40.3465 26.7424 40.3464 26.8261 40.363C26.9099 40.3796 26.9895 40.4125 27.0606 40.4599C27.1316 40.5073 27.1926 40.5682 27.2401 40.6391C27.2875 40.7101 27.3206 40.7897 27.3373 40.8734C27.354 40.9571 27.3541 41.0433 27.3375 41.127C27.3209 41.2108 27.288 41.2904 27.2406 41.3614L24.6406 45.2614C24.5812 45.3504 24.5008 45.4234 24.4065 45.4739C24.3121 45.5243 24.2068 45.5501 24.0998 45.55Z" fill="#00987F"/>
</g>
<defs>
<linearGradient id="paint0_linear_2877_7861" x1="35" y1="0" x2="35" y2="70" gradientUnits="userSpaceOnUse">
<stop stop-color="white"/>
<stop offset="0.802671" stop-color="#FFDDBC"/>
<stop offset="1" stop-color="#FCC58E"/>
</linearGradient>
<clipPath id="clip0_2877_7861">
<rect width="39" height="39" fill="white" transform="translate(15 15)"/>
</clipPath>
</defs>
</svg>
