<svg width="70" height="70" viewBox="0 0 70 70" fill="none" xmlns="http://www.w3.org/2000/svg">
<rect x="0.5" y="0.5" width="69" height="69" rx="34.5" fill="url(#paint0_linear_2877_7788)" stroke="white"/>
<g clip-path="url(#clip0_2877_7788)">
<path d="M51.4261 14.2979H48.8306V56.0001H51.4261C52.8537 56.0001 54.0217 54.8321 54.0217 53.4045V16.8934C54.0217 15.4659 52.8537 14.2979 51.4261 14.2979Z" fill="#4543DD"/>
<path d="M51.4259 16.8934C51.4259 15.4659 50.2579 14.2979 48.8303 14.2979H22.7015C21.274 14.2979 20.106 15.4659 20.106 16.8934V53.4045C20.106 54.8321 21.274 56.0001 22.7015 56.0001H48.8303C50.2579 56.0001 51.4259 54.8321 51.4259 53.4045V46.9156L37.0637 36.4467L51.4259 19.489V16.8934Z" fill="#6361FB"/>
<path d="M41.0438 35.668L22.7018 46.9155H15.6289C15.2236 46.9155 14.9111 47.2843 14.9904 47.6818C15.3463 49.465 16.9205 50.8088 18.8084 50.8088H44.9372L41.0438 35.668Z" fill="#C7C7FF"/>
<path d="M41.0439 35.668V46.9155C41.0439 49.0657 42.787 50.8088 44.9373 50.8088H47.5329V35.668H41.0439Z" fill="#C7C7FF"/>
<path d="M48.8304 16.8933L46.2349 50.5864C46.6517 50.7338 47.0906 50.809 47.5326 50.8088C49.6829 50.8088 51.426 49.0657 51.426 46.9154V16.8933H48.8304Z" fill="#C7C7FF"/>
<path d="M39.6309 16.8933C39.6309 18.3268 38.4689 19.4889 37.0354 19.4889C35.6018 19.4889 34.4398 18.3268 34.4398 16.8933H22.7017V46.9154H43.6393C43.6393 48.6105 44.7229 50.0518 46.2349 50.5864C47.7469 50.0518 48.8304 48.6105 48.8304 46.9154V16.8933H39.6309Z" fill="white"/>
<path d="M43.6396 19.489H42.3418L43.6396 22.0846H46.2352C46.2352 20.6511 45.073 19.489 43.6396 19.489Z" fill="#4543DD"/>
<path d="M42.3418 19.4889H42.3249L40.6429 15.4281C40.0639 14.0042 38.6674 13 37.0356 13C35.4043 13 34.0081 14.0038 33.4288 15.427L31.7464 19.4889H30.4886C29.0551 19.4889 27.8931 20.651 27.8931 22.0845H43.6395C43.6395 20.651 43.0585 19.4889 42.3418 19.4889ZM37.0356 18.1911C36.3189 18.1911 35.7378 17.6101 35.7378 16.8934C35.7378 16.1766 36.3189 15.5956 37.0356 15.5956C37.7524 15.5956 38.3334 16.1766 38.3334 16.8934C38.3334 17.6101 37.7524 18.1911 37.0356 18.1911Z" fill="#C7C7FF"/>
<path d="M43.6392 39.6912H46.2347V42.2868H43.6392V39.6912ZM43.6392 33.2023H46.2347V35.7979H43.6392V33.2023ZM43.6392 26.7134H46.2347V29.309H43.6392V26.7134Z" fill="#6361FB"/>
<path d="M41.0439 41.6377H27.893C27.7209 41.6377 27.5559 41.5694 27.4342 41.4477C27.3125 41.326 27.2441 41.1609 27.2441 40.9888C27.2441 40.8167 27.3125 40.6517 27.4342 40.53C27.5559 40.4083 27.7209 40.3399 27.893 40.3399H41.0439C41.216 40.3399 41.3811 40.4083 41.5028 40.53C41.6245 40.6517 41.6928 40.8167 41.6928 40.9888C41.6928 41.1609 41.6245 41.326 41.5028 41.4477C41.3811 41.5694 41.216 41.6377 41.0439 41.6377ZM41.0439 35.1488H27.893C27.7209 35.1488 27.5559 35.0804 27.4342 34.9587C27.3125 34.837 27.2441 34.672 27.2441 34.4999C27.2441 34.3278 27.3125 34.1627 27.4342 34.0411C27.5559 33.9194 27.7209 33.851 27.893 33.851H41.0439C41.216 33.851 41.3811 33.9194 41.5028 34.0411C41.6245 34.1627 41.6928 34.3278 41.6928 34.4999C41.6928 34.672 41.6245 34.837 41.5028 34.9587C41.3811 35.0804 41.216 35.1488 41.0439 35.1488ZM41.0439 28.6598H27.893C27.7209 28.6598 27.5559 28.5915 27.4342 28.4698C27.3125 28.3481 27.2441 28.1831 27.2441 28.011C27.2441 27.8389 27.3125 27.6738 27.4342 27.5521C27.5559 27.4304 27.7209 27.3621 27.893 27.3621H41.0439C41.216 27.3621 41.3811 27.4304 41.5028 27.5521C41.6245 27.6738 41.6928 27.8389 41.6928 28.011C41.6928 28.1831 41.6245 28.3481 41.5028 28.4698C41.3811 28.5915 41.216 28.6598 41.0439 28.6598Z" fill="#6361FB"/>
</g>
<defs>
<linearGradient id="paint0_linear_2877_7788" x1="35" y1="0" x2="35" y2="70" gradientUnits="userSpaceOnUse">
<stop stop-color="white"/>
<stop offset="0.802671" stop-color="#D3D2FF"/>
<stop offset="1" stop-color="#9B9AFF"/>
</linearGradient>
<clipPath id="clip0_2877_7788">
<rect width="43" height="43" fill="white" transform="translate(13 13)"/>
</clipPath>
</defs>
</svg>
