<svg width="24" height="22" viewBox="0 0 24 22" fill="none" xmlns="http://www.w3.org/2000/svg">
<path d="M23.8966 6.43324C23.8966 5.39753 23.5518 4.52253 22.8621 3.80824C22.1725 3.09396 21.3449 2.73682 20.3794 2.73682H3.62076C2.65524 2.73682 1.82765 3.09396 1.138 3.80824C0.448343 4.52253 0.103516 5.39753 0.103516 6.43324V16.344C0.103516 17.3797 0.448343 18.2547 1.138 18.969C1.82765 19.6832 2.65524 20.0404 3.62076 20.0404H20.3794C21.3449 20.0404 22.1725 19.6832 22.8621 18.969C23.5518 18.2547 23.8966 17.3797 23.8966 16.344V6.43324ZM9.62076 15.594V6.27253L16.4483 10.9332L9.62076 15.594Z" fill="#00987F"/>
</svg>
