<svg width="70" height="70" viewBox="0 0 70 70" fill="none" xmlns="http://www.w3.org/2000/svg">
<rect x="0.5" y="0.5" width="69" height="69" rx="34.5" fill="url(#paint0_linear_2877_7841)" stroke="white"/>
<g clip-path="url(#clip0_2877_7841)">
<path d="M49.4492 24.0997V40.8951L46.8494 53.3487H23.4501C22.7331 53.3466 22.1523 52.7658 22.1501 52.0487V16.9499C22.1523 16.2328 22.733 15.652 23.4501 15.6499H40.9995L49.4492 24.0997Z" fill="#34C759"/>
<path d="M47.4993 24.0997V40.8951L44.8994 53.3487H23.4501C22.7331 53.3466 22.1523 52.7658 22.1501 52.0487V16.9499C22.1523 16.2328 22.733 15.652 23.4501 15.6499H39.0496L47.4993 24.0997Z" fill="#34C759"/>
<path d="M17.5088 26.2896H27.886C28.7048 26.2896 29.3685 26.8803 29.3685 27.6091V43.4437C29.3685 44.1725 28.7048 44.7632 27.886 44.7632H17.5088C16.6901 44.7632 16.0264 44.1725 16.0264 43.4437V27.6091C16.0264 26.8803 16.6901 26.2896 17.5088 26.2896Z" fill="#FF8C34"/>
<path d="M40.9995 15.6499V22.7997C40.9995 23.5177 41.5815 24.0997 42.2995 24.0997H49.4493L40.9995 15.6499Z" fill="#34C759"/>
<path d="M24.1001 34.4993H26.0501C26.2225 34.4993 26.3878 34.5677 26.5097 34.6896C26.6316 34.8115 26.7 34.9768 26.7 35.1492V36.4492C26.7 36.6216 26.6316 36.7869 26.5097 36.9088C26.3878 37.0307 26.2225 37.0992 26.0501 37.0992H24.1001C24.0148 37.0992 23.9303 37.0823 23.8514 37.0497C23.7726 37.017 23.7009 36.9691 23.6406 36.9088C23.5802 36.8484 23.5323 36.7768 23.4997 36.6979C23.467 36.6191 23.4502 36.5346 23.4502 36.4492V35.1492C23.4502 34.9768 23.5187 34.8115 23.6406 34.6896C23.7625 34.5677 23.9278 34.4993 24.1001 34.4993ZM24.1001 39.6991H26.0501C26.2225 39.6991 26.3878 39.7676 26.5097 39.8895C26.6316 40.0114 26.7 40.1767 26.7 40.3491V41.6491C26.7 41.8214 26.6316 41.9868 26.5097 42.1086C26.3878 42.2305 26.2225 42.299 26.0501 42.299H24.1001C24.0148 42.299 23.9303 42.2822 23.8514 42.2495C23.7726 42.2169 23.7009 42.169 23.6406 42.1086C23.5802 42.0483 23.5323 41.9766 23.4997 41.8978C23.467 41.8189 23.4502 41.7344 23.4502 41.6491V40.3491C23.4502 40.2637 23.467 40.1792 23.4997 40.1003C23.5323 40.0215 23.5802 39.9498 23.6406 39.8895C23.7009 39.8291 23.7726 39.7813 23.8514 39.7486C23.9303 39.7159 24.0148 39.6991 24.1001 39.6991Z" fill="#FF8C34"/>
<path d="M18.9004 29.2996H26.0502C26.2226 29.2996 26.3879 29.368 26.5098 29.4899C26.6317 29.6118 26.7002 29.7771 26.7002 29.9495V31.2495C26.7002 31.4219 26.6317 31.5872 26.5098 31.7091C26.3879 31.831 26.2226 31.8994 26.0502 31.8994H18.9004C18.7281 31.8994 18.5627 31.831 18.4409 31.7091C18.319 31.5872 18.2505 31.4219 18.2505 31.2495V29.9495C18.2505 29.7771 18.319 29.6118 18.4409 29.4899C18.5627 29.368 18.7281 29.2996 18.9004 29.2996Z" fill="#FF8C34"/>
<path d="M52.7643 49.5464C51.5569 52.1939 48.7379 53.7175 45.8616 53.2772C45.2712 53.184 44.6961 53.0113 44.1521 52.7638C41.7598 51.6728 40.2602 49.2481 40.3527 46.6204C40.4451 43.9927 42.1114 41.6794 44.5744 40.7592C47.0375 39.839 49.8124 40.4933 51.6051 42.4167C53.3978 44.34 53.8554 47.154 52.7643 49.5464Z" fill="#00987F"/>
<path d="M16.9504 45.5489H28.0001C29.0765 45.5478 29.9489 44.6754 29.95 43.599V27.9995C29.9489 26.9231 29.0765 26.0507 28.0001 26.0496H16.9504C15.874 26.0507 15.0016 26.9231 15.0005 27.9995V43.599C15.0016 44.6754 15.8739 45.5477 16.9504 45.5489ZM16.3004 27.9995C16.3006 27.8272 16.3692 27.662 16.491 27.5402C16.6128 27.4183 16.778 27.3498 16.9503 27.3495H28C28.1723 27.3498 28.3375 27.4183 28.4593 27.5402C28.5812 27.662 28.6497 27.8272 28.65 27.9995V43.599C28.6497 43.7713 28.5812 43.9365 28.4593 44.0583C28.3375 44.1802 28.1723 44.2487 28 44.2489H16.9504C16.7781 44.2487 16.6129 44.1802 16.4911 44.0583C16.3692 43.9365 16.3007 43.7713 16.3005 43.599L16.3004 27.9995Z" fill="#051826"/>
<path d="M50.0912 24.0588C50.0876 24.0019 50.0764 23.9457 50.0579 23.8918C50.0517 23.871 50.0444 23.8506 50.0361 23.8305C50.0054 23.76 49.9623 23.6955 49.9088 23.6402L41.4591 15.1904C41.4038 15.1369 41.3392 15.0937 41.2686 15.0631C41.2486 15.0548 41.2283 15.0476 41.2077 15.0414C41.1535 15.0229 41.0971 15.0116 41.04 15.0081C41.0262 15.0072 41.0136 15 40.9996 15H23.4502C22.3738 15.0011 21.5014 15.8735 21.5002 16.9499V24.0997C21.5002 24.2721 21.5687 24.4374 21.6906 24.5593C21.8125 24.6812 21.9778 24.7497 22.1502 24.7497C22.3226 24.7497 22.4879 24.6812 22.6098 24.5593C22.7317 24.4374 22.8002 24.2721 22.8002 24.0997V16.9499C22.8004 16.7776 22.8689 16.6124 22.9908 16.4906C23.1126 16.3688 23.2778 16.3002 23.4501 16.3H40.3496V22.7997C40.3507 23.8762 41.2231 24.7485 42.2995 24.7497H48.7993V39.9802C45.4458 39.025 41.8927 40.6312 40.3943 43.7797C38.8958 46.9283 39.89 50.6986 42.7462 52.6988H23.4502C23.2779 52.6986 23.1127 52.63 22.9908 52.5082C22.869 52.3863 22.8004 52.2212 22.8002 52.0488V47.499C22.8002 47.3266 22.7317 47.1613 22.6099 47.0394C22.488 46.9175 22.3227 46.8491 22.1503 46.8491C21.9779 46.8491 21.8126 46.9175 21.6907 47.0394C21.5688 47.1613 21.5003 47.3266 21.5003 47.499V52.0488C21.5015 53.1252 22.3738 53.9976 23.4503 53.9987H46.8162C46.8242 53.9988 46.8323 54 46.8403 54C50.1459 54.0068 53.0245 51.7449 53.7997 48.5316C54.575 45.3182 53.0445 41.9927 50.0995 40.4914V24.0997C50.0993 24.0856 50.0921 24.0728 50.0912 24.0588ZM42.2996 23.4497C42.1273 23.4495 41.9621 23.3809 41.8402 23.2591C41.7184 23.1372 41.6498 22.9721 41.6496 22.7997V17.219L47.8803 23.4497H42.2996ZM52.173 49.2791C50.8316 52.2176 47.3623 53.5124 44.4237 52.1712C41.4852 50.8301 40.19 47.3609 41.5308 44.4222C42.8716 41.4835 46.3407 40.1881 49.2795 41.5286C52.2156 42.8727 53.5099 46.3396 52.173 49.2791Z" fill="#131313"/>
<path d="M26.05 33.8494H24.1001C23.3824 33.8501 22.8009 34.4317 22.8001 35.1494V36.4493C22.8008 37.1669 23.3824 37.7485 24.1001 37.7492H26.05C26.7677 37.7486 27.3493 37.1669 27.35 36.4493V35.1493C27.3493 34.4317 26.7677 33.8501 26.05 33.8494ZM26.05 36.4493H24.1001V35.1493H26.05V36.4493ZM26.05 39.0491H24.1001C23.3824 39.0498 22.8009 39.6315 22.8001 40.3491V41.6491C22.8008 42.3668 23.3824 42.9483 24.1001 42.9491H26.05C26.7677 42.9484 27.3493 42.3668 27.35 41.6491V40.3491C27.3493 39.6315 26.7677 39.0499 26.05 39.0491ZM26.05 41.6491H24.1001L24.0992 40.3491H26.05V41.6491ZM18.2503 36.4493H18.9002V37.0992C18.9002 37.2716 18.9687 37.4369 19.0906 37.5588C19.2125 37.6807 19.3778 37.7492 19.5502 37.7492C19.7226 37.7492 19.8879 37.6807 20.0098 37.5588C20.1317 37.4369 20.2002 37.2716 20.2002 37.0992V36.4493H20.8501C21.2091 36.4493 21.5001 36.1583 21.5001 35.7993C21.5001 35.4403 21.2091 35.1494 20.8501 35.1494H20.2002V34.4993C20.2002 34.3269 20.1317 34.1616 20.0098 34.0397C19.8879 33.9178 19.7226 33.8494 19.5502 33.8494C19.3778 33.8494 19.2125 33.9178 19.0906 34.0397C18.9687 34.1616 18.9002 34.3269 18.9002 34.4993V35.1493H18.2503C17.8913 35.1493 17.6003 35.4402 17.6003 35.7992C17.6003 36.1582 17.8913 36.4493 18.2503 36.4493ZM18.2503 41.6491H20.8502C21.0226 41.6491 21.1879 41.5806 21.3098 41.4587C21.4317 41.3369 21.5001 41.1715 21.5001 40.9992C21.5001 40.8268 21.4317 40.6615 21.3098 40.5396C21.1879 40.4177 21.0226 40.3492 20.8502 40.3492H18.2503C17.8913 40.3492 17.6003 40.6402 17.6003 40.9992C17.6003 41.3581 17.8913 41.6491 18.2503 41.6491ZM31.8998 28.6495H46.8494C47.0218 28.6495 47.1871 28.581 47.309 28.4591C47.4309 28.3373 47.4993 28.1719 47.4993 27.9996C47.4993 27.8272 47.4309 27.6619 47.309 27.54C47.1871 27.4181 47.0218 27.3496 46.8494 27.3496H31.8998C31.7275 27.3496 31.5621 27.4181 31.4403 27.54C31.3184 27.6619 31.2499 27.8272 31.2499 27.9996C31.2499 28.1719 31.3184 28.3373 31.4403 28.4591C31.5621 28.581 31.7275 28.6495 31.8998 28.6495ZM31.8998 32.5494H46.8494C47.0218 32.5494 47.1871 32.4809 47.309 32.359C47.4309 32.2371 47.4993 32.0718 47.4993 31.8994C47.4993 31.7271 47.4309 31.5617 47.309 31.4398C47.1871 31.318 47.0218 31.2495 46.8494 31.2495H31.8998C31.7275 31.2495 31.5621 31.318 31.4403 31.4398C31.3184 31.5617 31.2499 31.7271 31.2499 31.8994C31.2499 32.0718 31.3184 32.2371 31.4403 32.359C31.5621 32.4809 31.7275 32.5494 31.8998 32.5494ZM31.8998 36.4493H46.8494C47.2084 36.4493 47.4993 36.1583 47.4993 35.7993C47.4993 35.4403 47.2084 35.1494 46.8494 35.1494H31.8998C31.5409 35.1494 31.2499 35.4403 31.2499 35.7993C31.2499 36.1583 31.5409 36.4493 31.8998 36.4493ZM31.8998 40.3491H40.9996C41.1719 40.3491 41.3373 40.2807 41.4592 40.1588C41.581 40.0369 41.6495 39.8716 41.6495 39.6992C41.6495 39.5268 41.581 39.3615 41.4592 39.2396C41.3373 39.1177 41.1719 39.0492 40.9996 39.0492H31.8998C31.7275 39.0492 31.5621 39.1177 31.4403 39.2396C31.3184 39.3615 31.2499 39.5268 31.2499 39.6992C31.2499 39.8716 31.3184 40.0369 31.4403 40.1588C31.5621 40.2807 31.7275 40.3491 31.8998 40.3491ZM18.9003 32.5494H26.0501C26.7678 32.5487 27.3493 31.9671 27.3501 31.2494V29.9494C27.3494 29.2318 26.7678 28.6502 26.0501 28.6494H18.9003C18.1827 28.6501 17.6011 29.2318 17.6003 29.9494V31.2494C17.601 31.9671 18.1827 32.5487 18.9003 32.5494ZM18.9003 29.9495H26.0501L26.051 31.2495H18.9003V29.9495ZM48.9748 43.7616L49.0611 43.5724C49.1326 43.4156 49.139 43.2368 49.0787 43.0753C49.0184 42.9138 48.8964 42.7829 48.7396 42.7114C48.5828 42.6398 48.404 42.6335 48.2425 42.6938C48.081 42.7541 47.9501 42.8761 47.8786 43.0329L47.7924 43.2219C47.3813 43.1268 46.9539 43.1279 46.5434 43.2252C46.2365 43.2893 45.9489 43.4247 45.704 43.6204C45.4591 43.8162 45.2636 44.0668 45.1334 44.352C45.0033 44.6373 44.942 44.9491 44.9546 45.2624C44.9672 45.5757 45.0533 45.8817 45.2059 46.1555C45.4018 46.5292 45.6811 46.8528 46.0222 47.1011L45.2891 48.7077C45.2029 48.6182 45.1296 48.5172 45.071 48.4076C45.0133 48.3054 44.9788 48.1916 44.97 48.0745C44.9613 47.9573 44.9786 47.8397 45.0205 47.73C45.0906 47.5734 45.0958 47.3956 45.0352 47.2351C44.9746 47.0747 44.8531 46.9447 44.697 46.8735C44.541 46.8023 44.3632 46.7957 44.2023 46.8551C44.0414 46.9144 43.9105 47.035 43.8381 47.1905C43.7137 47.4772 43.6557 47.7883 43.6683 48.1006C43.6808 48.4129 43.7637 48.7183 43.9108 48.9941C44.1065 49.3678 44.3859 49.6914 44.7271 49.9395L44.6408 50.1287C44.5932 50.2326 44.5739 50.3471 44.5847 50.4607C44.5955 50.5744 44.636 50.6832 44.7022 50.7762C44.7685 50.8693 44.858 50.9432 44.9619 50.9906C45.0657 51.038 45.1803 51.0573 45.2939 51.0464C45.4076 51.0354 45.5164 50.9947 45.6093 50.9283C45.7022 50.8619 45.776 50.7723 45.8233 50.6683L45.9063 50.4864C46.1071 50.5308 46.3121 50.5535 46.5177 50.5541C46.7337 50.5546 46.949 50.5284 47.1585 50.4761C47.4655 50.412 47.753 50.2766 47.998 50.0809C48.2429 49.8851 48.4384 49.6345 48.5686 49.3493C48.6988 49.064 48.76 48.7521 48.7474 48.4388C48.7348 48.1255 48.6486 47.8196 48.4959 47.5458C48.3001 47.172 48.0208 46.8485 47.6796 46.6002L48.4128 44.9936C48.4989 45.083 48.5723 45.184 48.6307 45.2937C48.6885 45.3959 48.723 45.5097 48.7317 45.6268C48.7405 45.7439 48.7232 45.8616 48.6812 45.9713C48.6337 46.0751 48.6144 46.1896 48.6252 46.3033C48.636 46.4169 48.6765 46.5257 48.7427 46.6188C48.8089 46.7118 48.8985 46.7857 49.0023 46.8331C49.1062 46.8806 49.2207 46.8998 49.3344 46.8889C49.4481 46.8779 49.5568 46.8372 49.6497 46.7708C49.7427 46.7045 49.8165 46.6148 49.8637 46.5108C49.9881 46.2241 50.0461 45.913 50.0335 45.6007C50.021 45.2885 49.9381 44.983 49.791 44.7072C49.5954 44.3334 49.316 44.0098 48.9748 43.7616ZM46.3663 45.5692C46.3015 45.4697 46.2629 45.3554 46.2541 45.2369C46.2452 45.1185 46.2665 44.9997 46.3158 44.8916C46.3651 44.7836 46.4409 44.6897 46.5362 44.6187C46.6314 44.5478 46.7431 44.502 46.8607 44.4857C46.9818 44.4579 47.1062 44.4471 47.2302 44.4537L46.5843 45.8692C46.4982 45.7797 46.4249 45.6788 46.3663 45.5692ZM47.3356 48.1317C47.4003 48.2313 47.4389 48.3456 47.4477 48.4641C47.4566 48.5825 47.4353 48.7013 47.386 48.8093C47.3367 48.9174 47.2609 49.0113 47.1656 49.0822C47.0704 49.1532 46.9587 49.1989 46.8411 49.2152C46.72 49.2429 46.5957 49.2536 46.4716 49.2472L47.1175 47.8318C47.2036 47.9213 47.277 48.0222 47.3356 48.1317Z" fill="white"/>
</g>
<defs>
<linearGradient id="paint0_linear_2877_7841" x1="35" y1="0" x2="35" y2="70" gradientUnits="userSpaceOnUse">
<stop stop-color="white"/>
<stop offset="0.802671" stop-color="#BFFFCF"/>
<stop offset="1" stop-color="#85FCA3"/>
</linearGradient>
<clipPath id="clip0_2877_7841">
<rect width="39" height="39" fill="white" transform="translate(15 15)"/>
</clipPath>
</defs>
</svg>
