<svg width="291" height="67" viewBox="0 0 291 67" fill="none" xmlns="http://www.w3.org/2000/svg">
<path d="M59.72 44L67.46 22.4H71.42L64.31 44H59.72ZM75.56 44L68.48 22.4H72.62L80.36 44H75.56ZM63.8 35.63H75.92V39.23H63.8V35.63ZM87.953 44.3C86.353 44.3 84.943 43.96 83.723 43.28C82.503 42.6 81.543 41.66 80.843 40.46C80.163 39.26 79.823 37.89 79.823 36.35C79.823 34.81 80.163 33.44 80.843 32.24C81.543 31.04 82.503 30.1 83.723 29.42C84.943 28.74 86.353 28.4 87.953 28.4C89.293 28.4 90.493 28.65 91.553 29.15C92.633 29.63 93.513 30.3 94.193 31.16C94.893 32.02 95.343 33.03 95.543 34.19H91.193C90.973 33.45 90.573 32.89 89.993 32.51C89.433 32.13 88.773 31.94 88.013 31.94C87.293 31.94 86.663 32.12 86.123 32.48C85.603 32.84 85.203 33.35 84.923 34.01C84.643 34.67 84.503 35.45 84.503 36.35C84.503 37.25 84.643 38.03 84.923 38.69C85.203 39.35 85.603 39.86 86.123 40.22C86.663 40.58 87.293 40.76 88.013 40.76C88.773 40.76 89.433 40.57 89.993 40.19C90.573 39.81 90.973 39.25 91.193 38.51H95.543C95.343 39.67 94.893 40.68 94.193 41.54C93.513 42.4 92.633 43.08 91.553 43.58C90.493 44.06 89.293 44.3 87.953 44.3ZM96.9688 44V28.7H101.379V32.3H101.469V44H96.9688ZM107.619 44V34.52C107.619 33.68 107.399 33.05 106.959 32.63C106.539 32.21 105.919 32 105.099 32C104.399 32 103.769 32.16 103.209 32.48C102.669 32.8 102.239 33.24 101.919 33.8C101.619 34.36 101.469 35.02 101.469 35.78L101.079 32.09C101.579 30.97 102.309 30.08 103.269 29.42C104.249 28.74 105.449 28.4 106.869 28.4C108.569 28.4 109.869 28.88 110.769 29.84C111.669 30.78 112.119 32.05 112.119 33.65V44H107.619ZM121.903 44.3C120.223 44.3 118.743 43.97 117.463 43.31C116.203 42.63 115.213 41.69 114.493 40.49C113.793 39.27 113.443 37.87 113.443 36.29C113.443 34.71 113.793 33.33 114.493 32.15C115.213 30.97 116.203 30.05 117.463 29.39C118.743 28.73 120.223 28.4 121.903 28.4C123.603 28.4 125.083 28.73 126.343 29.39C127.623 30.05 128.613 30.97 129.313 32.15C130.013 33.33 130.363 34.71 130.363 36.29C130.363 37.87 130.003 39.27 129.283 40.49C128.583 41.69 127.593 42.63 126.313 43.31C125.053 43.97 123.583 44.3 121.903 44.3ZM121.903 40.76C122.603 40.76 123.233 40.58 123.793 40.22C124.373 39.86 124.833 39.35 125.173 38.69C125.513 38.01 125.683 37.2 125.683 36.26C125.683 34.88 125.313 33.82 124.573 33.08C123.853 32.32 122.963 31.94 121.903 31.94C120.843 31.94 119.943 32.32 119.203 33.08C118.483 33.84 118.123 34.9 118.123 36.26C118.123 37.2 118.293 38.01 118.633 38.69C118.973 39.35 119.423 39.86 119.983 40.22C120.563 40.58 121.203 40.76 121.903 40.76ZM139.108 44.3C137.428 44.3 135.948 43.97 134.668 43.31C133.408 42.63 132.418 41.69 131.698 40.49C130.998 39.27 130.648 37.87 130.648 36.29C130.648 34.71 130.998 33.33 131.698 32.15C132.418 30.97 133.408 30.05 134.668 29.39C135.948 28.73 137.428 28.4 139.108 28.4C140.808 28.4 142.288 28.73 143.548 29.39C144.828 30.05 145.818 30.97 146.518 32.15C147.218 33.33 147.568 34.71 147.568 36.29C147.568 37.87 147.208 39.27 146.488 40.49C145.788 41.69 144.798 42.63 143.518 43.31C142.258 43.97 140.788 44.3 139.108 44.3ZM139.108 40.76C139.808 40.76 140.438 40.58 140.998 40.22C141.578 39.86 142.038 39.35 142.378 38.69C142.718 38.01 142.888 37.2 142.888 36.26C142.888 34.88 142.518 33.82 141.778 33.08C141.058 32.32 140.168 31.94 139.108 31.94C138.048 31.94 137.148 32.32 136.408 33.08C135.688 33.84 135.328 34.9 135.328 36.26C135.328 37.2 135.498 38.01 135.838 38.69C136.178 39.35 136.628 39.86 137.188 40.22C137.768 40.58 138.408 40.76 139.108 40.76ZM153.567 44V22.4H163.827C165.427 22.4 166.797 22.68 167.937 23.24C169.097 23.8 169.987 24.58 170.607 25.58C171.247 26.58 171.567 27.75 171.567 29.09C171.567 30.43 171.247 31.61 170.607 32.63C169.967 33.65 169.067 34.45 167.907 35.03C166.767 35.59 165.407 35.87 163.827 35.87H157.227V32.33H163.587C164.647 32.33 165.467 32.04 166.047 31.46C166.647 30.86 166.947 30.08 166.947 29.12C166.947 28.16 166.647 27.39 166.047 26.81C165.467 26.23 164.647 25.94 163.587 25.94H158.187V44H153.567ZM173.123 44V22.4H177.623V44H173.123ZM183.773 44V34.52C183.773 33.68 183.553 33.05 183.113 32.63C182.693 32.21 182.073 32 181.253 32C180.553 32 179.923 32.16 179.363 32.48C178.823 32.8 178.393 33.24 178.073 33.8C177.773 34.36 177.623 35.02 177.623 35.78L177.233 32.09C177.733 30.97 178.463 30.08 179.423 29.42C180.403 28.74 181.603 28.4 183.023 28.4C184.723 28.4 186.023 28.88 186.923 29.84C187.823 30.78 188.273 32.05 188.273 33.65V44H183.773ZM200.046 44C199.926 43.56 199.836 43.09 199.776 42.59C199.736 42.09 199.716 41.51 199.716 40.85H199.596V33.62C199.596 33 199.386 32.52 198.966 32.18C198.566 31.82 197.966 31.64 197.166 31.64C196.406 31.64 195.796 31.77 195.336 32.03C194.896 32.29 194.606 32.67 194.466 33.17H190.176C190.376 31.79 191.086 30.65 192.306 29.75C193.526 28.85 195.196 28.4 197.316 28.4C199.516 28.4 201.196 28.89 202.356 29.87C203.516 30.85 204.096 32.26 204.096 34.1V40.85C204.096 41.35 204.126 41.86 204.186 42.38C204.266 42.88 204.386 43.42 204.546 44H200.046ZM194.706 44.3C193.186 44.3 191.976 43.92 191.076 43.16C190.176 42.38 189.726 41.35 189.726 40.07C189.726 38.65 190.256 37.51 191.316 36.65C192.396 35.77 193.896 35.2 195.816 34.94L200.286 34.31V36.92L196.566 37.49C195.766 37.61 195.176 37.83 194.796 38.15C194.416 38.47 194.226 38.91 194.226 39.47C194.226 39.97 194.406 40.35 194.766 40.61C195.126 40.87 195.606 41 196.206 41C197.146 41 197.946 40.75 198.606 40.25C199.266 39.73 199.596 39.13 199.596 38.45L200.016 40.85C199.576 41.99 198.906 42.85 198.006 43.43C197.106 44.01 196.006 44.3 194.706 44.3ZM206.655 44V28.7H211.065V32.3H211.155V44H206.655ZM211.155 36.02L210.765 32.39C211.125 31.09 211.715 30.1 212.535 29.42C213.355 28.74 214.375 28.4 215.595 28.4C215.975 28.4 216.255 28.44 216.435 28.52V32.72C216.335 32.68 216.195 32.66 216.015 32.66C215.835 32.64 215.615 32.63 215.355 32.63C213.915 32.63 212.855 32.89 212.175 33.41C211.495 33.91 211.155 34.78 211.155 36.02ZM217.708 44V28.7H222.118V32.3H222.208V44H217.708ZM227.998 44V34.28C227.998 33.5 227.788 32.93 227.368 32.57C226.968 32.19 226.398 32 225.658 32C225.018 32 224.428 32.15 223.888 32.45C223.368 32.73 222.958 33.14 222.658 33.68C222.358 34.2 222.208 34.82 222.208 35.54L221.818 32.09C222.318 30.97 223.038 30.08 223.978 29.42C224.938 28.74 226.088 28.4 227.428 28.4C229.028 28.4 230.268 28.85 231.148 29.75C232.048 30.65 232.498 31.78 232.498 33.14V44H227.998ZM238.288 44V34.28C238.288 33.5 238.078 32.93 237.658 32.57C237.258 32.19 236.688 32 235.948 32C235.308 32 234.718 32.15 234.178 32.45C233.658 32.73 233.248 33.14 232.948 33.68C232.648 34.2 232.498 34.82 232.498 35.54L231.808 32.09C232.308 30.97 233.048 30.08 234.028 29.42C235.028 28.74 236.228 28.4 237.628 28.4C239.288 28.4 240.558 28.87 241.438 29.81C242.338 30.73 242.788 31.94 242.788 33.44V44H238.288ZM254.563 44C254.443 43.56 254.353 43.09 254.293 42.59C254.253 42.09 254.233 41.51 254.233 40.85H254.113V33.62C254.113 33 253.903 32.52 253.483 32.18C253.083 31.82 252.483 31.64 251.683 31.64C250.923 31.64 250.313 31.77 249.853 32.03C249.413 32.29 249.123 32.67 248.983 33.17H244.693C244.893 31.79 245.603 30.65 246.823 29.75C248.043 28.85 249.713 28.4 251.833 28.4C254.033 28.4 255.713 28.89 256.873 29.87C258.033 30.85 258.613 32.26 258.613 34.1V40.85C258.613 41.35 258.643 41.86 258.703 42.38C258.783 42.88 258.903 43.42 259.063 44H254.563ZM249.223 44.3C247.703 44.3 246.493 43.92 245.593 43.16C244.693 42.38 244.243 41.35 244.243 40.07C244.243 38.65 244.773 37.51 245.833 36.65C246.913 35.77 248.413 35.2 250.333 34.94L254.803 34.31V36.92L251.083 37.49C250.283 37.61 249.693 37.83 249.313 38.15C248.933 38.47 248.743 38.91 248.743 39.47C248.743 39.97 248.923 40.35 249.283 40.61C249.643 40.87 250.123 41 250.723 41C251.663 41 252.463 40.75 253.123 40.25C253.783 39.73 254.113 39.13 254.113 38.45L254.533 40.85C254.093 41.99 253.423 42.85 252.523 43.43C251.623 44.01 250.523 44.3 249.223 44.3ZM267.75 44.3C266.15 44.3 264.74 43.96 263.52 43.28C262.3 42.6 261.34 41.66 260.64 40.46C259.96 39.26 259.62 37.89 259.62 36.35C259.62 34.81 259.96 33.44 260.64 32.24C261.34 31.04 262.3 30.1 263.52 29.42C264.74 28.74 266.15 28.4 267.75 28.4C269.09 28.4 270.29 28.65 271.35 29.15C272.43 29.63 273.31 30.3 273.99 31.16C274.69 32.02 275.14 33.03 275.34 34.19H270.99C270.77 33.45 270.37 32.89 269.79 32.51C269.23 32.13 268.57 31.94 267.81 31.94C267.09 31.94 266.46 32.12 265.92 32.48C265.4 32.84 265 33.35 264.72 34.01C264.44 34.67 264.3 35.45 264.3 36.35C264.3 37.25 264.44 38.03 264.72 38.69C265 39.35 265.4 39.86 265.92 40.22C266.46 40.58 267.09 40.76 267.81 40.76C268.57 40.76 269.23 40.57 269.79 40.19C270.37 39.81 270.77 39.25 270.99 38.51H275.34C275.14 39.67 274.69 40.68 273.99 41.54C273.31 42.4 272.43 43.08 271.35 43.58C270.29 44.06 269.09 44.3 267.75 44.3ZM277.107 50.15L281.337 40.79L282.117 39.5L286.077 28.7H290.877L281.607 50.15H277.107ZM280.347 43.7L274.467 28.7H279.327L284.157 42.38L280.347 43.7Z" fill="white"/>
<path d="M21.3609 11.5464C15.9207 11.8559 10.2835 13.9985 6.41395 17.8349C2.5444 21.6712 0.356352 26.7595 0 32.1967H10.9469C11.1247 29.4846 12.3607 27.6937 14.2909 25.78C16.2211 23.8664 18.6472 22.0925 21.3609 21.9382V11.5464Z" fill="#FF5F00"/>
<path d="M12.124 53.6908C15.3797 55.3574 19.3058 56.0888 22.9628 56.0304C26.6198 55.9721 30.2065 55.0161 33.4074 53.2465C36.6082 51.4769 39.3253 48.9479 41.3196 45.882C43.3138 42.816 44.134 38.2826 44.454 34.6392L33.9608 34.6619C33.8011 36.4793 32.9357 38.2523 31.941 39.7816C30.9462 41.311 29.8857 42.4163 28.289 43.299C26.6924 44.1817 24.9173 45.0018 23.0931 45.0309C21.269 45.06 15.6754 45.4158 12.124 39.8351V53.6908Z" fill="#FF5F00"/>
<path d="M0 33.4846H10.9691V66.9693C10.9691 66.9693 7.15931 66.6982 4.98247 65.9546C2.75203 65.1926 0 63.1056 0 63.1056V33.4846Z" fill="#FF5F00"/>
<rect x="22.5156" y="11.5464" width="33.4846" height="10.3918" fill="#00987F"/>
<rect x="44.4541" width="33.4846" height="10.3918" transform="rotate(90 44.4541 0)" fill="#00987F"/>
</svg>
