<svg width="631" height="663" viewBox="0 0 631 663" fill="none" xmlns="http://www.w3.org/2000/svg">
<g clip-path="url(#clip0_2303_17798)">
<rect width="631" height="639" rx="8" fill="#F5F7F9"/>
<path d="M541.663 483.425C566.068 442.629 580.001 400.674 584.282 350.915C587.187 317.047 581.495 263.593 563.222 235.11C538.755 196.98 497.502 188.283 462.014 192.254C442.201 194.469 425.261 206.243 404.431 206.197C382.12 206.151 359.705 199.632 338.328 190.515C299.987 174.16 262.962 150.207 223.228 143.025C156.251 130.929 86.7132 173.927 59.2193 247.994C51.758 268.098 47.2715 289.92 44.558 312.084C40.6392 344.087 40.472 377.822 49.4346 409.162C58.3972 440.502 77.5276 469.165 102.729 480.43C131.443 493.256 163.437 483.35 192.948 483.35H541.684" fill="url(#paint0_linear_2303_17798)"/>
<path d="M308.046 522.651C152.829 522.651 26.9999 509.297 26.9999 492.825C26.9999 476.353 152.829 463 308.046 463C463.264 463 589.093 476.353 589.093 492.825C589.093 509.297 463.264 522.651 308.046 522.651Z" fill="#C4E4E1"/>
<path d="M297.5 497C190.081 497 103 490.508 103 482.5C103 474.492 190.081 468 297.5 468C404.919 468 492 474.492 492 482.5C492 490.508 404.919 497 297.5 497Z" fill="#ABD5D1"/>
<path d="M314.456 204.093C298.218 204.093 285.055 190.93 285.055 174.693C285.055 158.455 298.218 145.292 314.456 145.292C330.693 145.292 343.856 158.455 343.856 174.693C343.856 190.93 330.693 204.093 314.456 204.093Z" fill="#C3E5E2"/>
<path d="M315.232 157.023C318.495 157.023 321.624 158.319 323.931 160.626C326.238 162.934 327.534 166.063 327.534 169.326C327.534 176.119 315.232 190.773 315.232 190.773C315.232 190.773 302.929 176.119 302.929 169.326C302.929 166.063 304.226 162.934 306.533 160.626C308.84 158.319 311.969 157.023 315.232 157.023ZM315.39 176.582C316.67 176.582 317.92 176.202 318.984 175.492C320.047 174.781 320.877 173.771 321.366 172.589C321.856 171.407 321.984 170.107 321.734 168.852C321.485 167.597 320.869 166.445 319.964 165.54C319.059 164.635 317.907 164.019 316.652 163.77C315.397 163.52 314.097 163.648 312.915 164.138C311.733 164.628 310.723 165.457 310.012 166.52C309.302 167.584 308.922 168.834 308.922 170.114C308.927 171.827 309.61 173.468 310.822 174.678C312.035 175.888 313.677 176.568 315.39 176.569V176.582Z" fill="white"/>
<path d="M114.856 261.45C98.6188 261.45 85.4558 248.287 85.4558 232.049C85.4558 215.812 98.6188 202.649 114.856 202.649C131.094 202.649 144.257 215.812 144.257 232.049C144.257 248.287 131.094 261.45 114.856 261.45Z" fill="#C3E5E2"/>
<path d="M114.924 229.041C110.206 228.938 106.465 225.03 106.568 220.311C106.671 215.593 110.579 211.852 115.297 211.955C120.015 212.058 123.756 215.966 123.653 220.684C123.55 225.402 119.642 229.144 114.924 229.041Z" fill="white"/>
<path d="M98.2202 247.617C98.2888 243.327 100.041 239.236 103.099 236.226C106.157 233.217 110.275 231.53 114.566 231.53C118.856 231.53 122.975 233.217 126.032 236.226C129.09 239.236 130.843 243.327 130.911 247.617H98.2202Z" fill="white"/>
<path d="M236.416 382.818H243.576V449.959H236.416V382.818Z" fill="#8BA1B2"/>
<path d="M233.435 367.835H247.2V405.69H233.435V367.835Z" fill="#A4B6C3" stroke="#B5C0CB" stroke-width="0.1875" stroke-miterlimit="10"/>
<path d="M270.463 459.413L274.921 457.787C273.29 453.312 269.791 449.333 265.329 446.873L264.795 446.581H213.084L212.479 446.998C208.943 449.397 206.373 452.973 205.227 457.09L209.814 458.362C210.596 455.568 212.259 453.1 214.556 451.327H263.549C266.705 453.159 269.143 456.011 270.463 459.413Z" fill="#8BA1B2"/>
<path d="M242.467 460.919C242.668 457.499 241.517 451.173 240.432 448.216L235.978 449.855C236.875 452.299 237.888 457.97 237.73 460.643L242.467 460.919Z" fill="#8BA1B2"/>
<path d="M240.441 468.142C236.979 468.142 234.173 465.22 234.173 461.615C234.173 458.011 236.979 455.089 240.441 455.089C243.903 455.089 246.709 458.011 246.709 461.615C246.709 465.22 243.903 468.142 240.441 468.142Z" fill="#051826"/>
<path d="M207.767 468.142C204.306 468.142 201.499 465.22 201.499 461.615C201.499 458.011 204.306 455.089 207.767 455.089C211.229 455.089 214.035 458.011 214.035 461.615C214.035 465.22 211.229 468.142 207.767 468.142Z" fill="#051826"/>
<path d="M271.772 468.142C268.31 468.142 265.504 465.22 265.504 461.615C265.504 458.011 268.31 455.089 271.772 455.089C275.234 455.089 278.04 458.011 278.04 461.615C278.04 465.22 275.234 468.142 271.772 468.142Z" fill="#8BA1B2"/>
<path d="M239.265 264.973C251.22 295.77 263.175 326.569 275.13 357.37C275.697 358.838 276.177 360.611 274.746 361.728C273.733 362.525 272.102 362.683 270.613 362.788C250.158 364.193 229.625 364.018 209.198 362.262C207.463 362.112 205.586 361.903 204.377 361.011C203.658 360.4 203.119 359.606 202.817 358.713C198.584 348.88 194.343 339.029 191.428 328.95C187.604 315.726 186.102 302.235 183.25 288.915C181.765 281.959 179.547 275.22 177.253 268.393C176.64 266.575 176.523 265.591 177.04 265.011L239.265 264.973Z" fill="#A4B6C4" stroke="#8BA1B2" stroke-width="0.1875" stroke-miterlimit="10"/>
<path d="M185.968 368.222H289.592C289.592 368.222 240.683 365.436 224.473 361.799C200.852 356.503 202.37 337.979 199.764 326.982L186.748 271.842C185.672 267.288 179.842 263.918 172.986 263.918L185.968 368.222Z" fill="#8BA1B2" stroke="#B5C0CB" stroke-width="0.1875" stroke-miterlimit="10"/>
<path d="M436.391 306.381L526.566 340.025C527.781 340.478 528.398 341.83 527.945 343.045C527.492 344.26 526.139 344.877 524.924 344.424L434.75 310.781C433.535 310.328 432.918 308.975 433.371 307.76C433.824 306.546 435.176 305.928 436.391 306.381Z" fill="white"/>
<path d="M431.944 317.663L522.119 351.306C523.333 351.76 523.951 353.112 523.498 354.327C523.044 355.542 521.692 356.159 520.477 355.706L430.303 322.063C429.088 321.61 428.47 320.257 428.924 319.042C429.377 317.827 430.729 317.21 431.944 317.663Z" fill="white"/>
<path fill-rule="evenodd" clip-rule="evenodd" d="M176.994 340.543C173.366 357.02 147.973 365.29 143.565 369.952C136.175 354.71 161.631 335.472 176.994 340.543Z" fill="url(#paint1_linear_2303_17798)"/>
<path d="M167.039 346.511C162.327 347.345 158.519 350.681 154.987 353.905C148.64 359.693 142.059 365.815 139.14 373.889" stroke="#365650" stroke-width="0.140625" stroke-miterlimit="10"/>
<path fill-rule="evenodd" clip-rule="evenodd" d="M120.698 296.851C120.98 296.889 121.259 296.948 121.532 297.026C140.674 301.434 156.087 336.227 139.427 348.141C119.947 334.517 125.506 306.063 120.698 296.847V296.851Z" fill="url(#paint2_linear_2303_17798)"/>
<path d="M129.627 304.95C137.551 320.947 138.46 339.401 139.198 357.245" stroke="#365650" stroke-width="0.140625" stroke-miterlimit="10"/>
<path fill-rule="evenodd" clip-rule="evenodd" d="M160.754 322.807C162.785 335.084 144.682 347.666 142.943 352.07C138.139 338.867 148.844 323.549 160.754 322.807Z" fill="#00987F"/>
<path d="M155.32 330.222C149.699 335.643 140.341 346.269 141.141 369.477" stroke="#365650" stroke-width="0.140625" stroke-miterlimit="10"/>
<path fill-rule="evenodd" clip-rule="evenodd" d="M137.534 384.74C115.749 394.257 95.6144 368.317 84.0002 373.976C97.22 359.164 136.029 364.018 137.534 384.74Z" fill="url(#paint3_linear_2303_17798)"/>
<path d="M97.687 369.952C97.687 369.952 133.134 369.477 139.34 392.38" stroke="#365650" stroke-width="0.140625" stroke-miterlimit="10"/>
<path fill-rule="evenodd" clip-rule="evenodd" d="M137.906 371.625C111.891 366.132 115.724 338.083 105.052 332.161C123.464 329.138 149.04 355.569 137.906 371.625Z" fill="url(#paint4_linear_2303_17798)"/>
<path d="M114.819 337.344C126.446 345.022 139.941 367.875 141.142 386.283" stroke="#365650" stroke-width="0.140625" stroke-miterlimit="10"/>
<path fill-rule="evenodd" clip-rule="evenodd" d="M136.925 401.484C120.398 408.235 97.6782 397.376 93.191 393.122C103.854 380.953 135.549 384.602 136.925 401.484Z" fill="url(#paint5_linear_2303_17798)"/>
<path d="M110.786 393.706C117.9 392.409 125.557 393.247 131.775 396.946C137.993 400.645 142.543 407.397 142.701 414.628" stroke="#365650" stroke-width="0.140625" stroke-miterlimit="10"/>
<path fill-rule="evenodd" clip-rule="evenodd" d="M111.907 355.861C128.067 356.653 146.621 374.727 140.962 394.728C138.531 388.773 109.376 372.542 111.907 355.861Z" fill="#00987F"/>
<path d="M116.245 359.447C137.001 374.16 141.563 396.208 143.035 407.743" stroke="#365650" stroke-width="0.140625" stroke-miterlimit="10"/>
<path fill-rule="evenodd" clip-rule="evenodd" d="M178.398 358.53C171.401 365.598 173.503 371.516 166.622 380.007C160.729 387.271 152.893 394.01 143.685 396.379C132.579 375.678 159.799 351.165 178.398 358.53Z" fill="url(#paint6_linear_2303_17798)"/>
<path d="M169.278 360.911C164.407 362.241 160.462 365.823 157.222 369.698C147.113 381.792 144.736 397.026 142.626 412.652" stroke="#365650" stroke-width="0.140625" stroke-miterlimit="10"/>
<path fill-rule="evenodd" clip-rule="evenodd" d="M193.775 375.565C183.554 380.424 160.83 394.332 148.674 391.646C147.356 373.476 180.439 364.389 193.775 375.565Z" fill="#00987F"/>
<path d="M176.994 376.829C165.221 379.515 145.129 388.143 144.345 402.685" stroke="#365650" stroke-width="0.140625" stroke-miterlimit="10"/>
<path fill-rule="evenodd" clip-rule="evenodd" d="M197.303 393.648C187.544 394.411 167.619 413.069 147.013 404.332C148.202 384.807 184.704 379.848 197.303 393.648Z" fill="url(#paint7_linear_2303_17798)"/>
<path d="M186.522 392.472C180.626 392.342 174.691 392.217 168.857 393.081C162.16 394.069 155.583 396.417 150.17 400.47C144.757 404.524 143.673 407.918 142.247 414.537" stroke="#365650" stroke-width="0.140625" stroke-miterlimit="10"/>
<path d="M120.932 483.909H168.786L162.852 409.244H126.495L120.932 483.909Z" fill="#051826"/>
<path d="M163.285 419.403H126.495" stroke="white" stroke-width="0.5625" stroke-miterlimit="10"/>
<path d="M163.285 414.795H127.037" stroke="white" stroke-width="0.5625" stroke-miterlimit="10"/>
<path d="M236.079 196.214C237.015 199.439 237.466 202.786 237.417 206.143C237.338 211.19 236.141 216.152 235.366 221.132C234.832 224.543 234.494 228 233.572 231.328C232.651 234.656 231.07 237.909 228.505 240.202C225.849 242.554 222.296 243.718 218.76 243.993C215.223 244.268 211.67 243.709 208.209 242.967C203.079 241.866 197.875 240.265 193.884 236.866C190.378 233.93 188.16 229.739 187.703 225.189C187.332 220.681 189.038 215.985 192.412 212.974C196.636 209.221 203.167 208.058 206.086 203.212C208.084 199.876 207.817 195.676 209.255 192.081C210.723 188.416 213.972 185.596 217.692 184.283C220.737 183.229 224.01 183.013 227.167 183.657C230.42 184.316 231.483 186.159 233.059 188.966C234.337 191.26 235.35 193.692 236.079 196.214Z" fill="#051826"/>
<path d="M193.746 232.804C192.589 231.628 191.683 230.231 191.081 228.695C190.479 227.159 190.194 225.518 190.243 223.869C190.293 222.22 190.676 220.599 191.369 219.102C192.062 217.605 193.051 216.264 194.276 215.16C197.416 212.328 201.841 211.273 205.018 208.487C208.467 205.456 209.989 200.785 210.698 196.248M210.519 205.697C210.019 209.888 208.162 213.8 205.231 216.836C203.625 218.504 201.703 219.885 200.498 221.841C199.201 223.955 198.871 226.52 198.871 229.001C198.871 231.482 199.334 234.364 201.311 235.97M214.543 208.867C215.156 213.425 212.429 217.683 211.245 222.124C209.957 227.023 210.538 232.226 212.875 236.72" stroke="#464C54" stroke-width="0.375" stroke-miterlimit="10"/>
<path d="M246.992 191.848C246.637 194.642 245.595 197.528 246.521 200.188C247.134 201.969 248.539 203.337 249.803 204.73C253.314 208.616 256.058 213.316 257.013 218.471C257.968 223.625 256.946 229.251 253.677 233.35C251.258 236.391 247.747 238.451 244.01 239.514C240.274 240.578 236.316 240.686 232.45 240.286C228.997 239.927 225.382 239.064 222.921 236.616C221.716 235.327 220.757 233.829 220.089 232.195C216.465 224.151 216.161 214.88 218.004 206.248C219.385 199.792 222.062 193.391 226.9 188.895C230.569 185.476 235.657 183.34 240.695 183.603C246.183 183.887 247.701 186.305 246.992 191.848Z" fill="#051826"/>
<path d="M244.831 199.308C245.123 203.954 249.168 207.324 251.683 211.244C253.103 213.482 254.059 215.983 254.494 218.598C254.929 221.212 254.834 223.888 254.214 226.465C253.676 228.659 252.546 230.957 250.461 231.778M242.212 207.103C245.369 211.348 247.396 216.578 247.141 221.861C246.887 227.145 244.118 232.412 239.514 235.019" stroke="#464C54" stroke-width="0.375" stroke-miterlimit="10"/>
<path d="M223.313 207.394L219.497 233.504L239.594 240.273L238.305 216.281C238.305 216.281 238.343 212.361 236.249 210.505C233.376 207.966 224.339 203.195 223.313 207.394Z" fill="#F1C4AE"/>
<path d="M239.17 229.033C239.17 229.033 230.634 225.399 225.404 219.282C223.013 216.486 221.963 208.384 221.963 208.384L238.753 218.006L239.17 229.033Z" fill="#D9AE99"/>
<path d="M247.581 204.221C247.802 214.646 246.017 222.011 236.43 221.911C229.47 221.84 223.389 216.419 222.088 206.064C220.758 195.513 225.8 187.218 232.718 186.363C243.916 184.996 247.335 192.548 247.581 204.221Z" fill="#F1C4AE"/>
<path d="M230.253 193.119C231.609 194.012 233.281 194.27 234.903 194.37C236.858 194.466 238.817 194.334 240.741 193.978C242.635 193.628 244.566 193.015 245.933 191.66C247.96 189.654 248.269 186.259 246.938 183.736C245.608 181.213 242.881 179.566 240.053 179.228C237.226 178.89 234.328 179.674 231.85 181.092C229.373 182.51 227.034 184.612 224.181 184.637C222.801 184.637 221.212 184.22 220.182 185.137C219.808 185.511 219.523 185.964 219.348 186.463C218.314 189.025 217.828 191.776 217.923 194.537C218.018 197.298 218.691 200.009 219.898 202.494C219.972 202.689 220.106 202.854 220.282 202.965C220.474 203.057 221.446 204.663 221.646 204.596C223.406 204.02 223.731 200.53 224.148 198.728C224.565 196.927 224.498 195.033 224.899 193.228C225.103 192.302 226.275 188.966 227.659 189.162C228.239 189.22 229.177 192.419 230.253 193.119Z" fill="#051826"/>
<path d="M246.184 184.845C246.281 186.281 245.922 187.711 245.157 188.929C244.392 190.148 243.261 191.094 241.926 191.63C240.358 192.222 238.623 192.197 236.959 191.981C234.04 191.601 230.924 190.417 229.648 187.773" stroke="#464C54" stroke-width="0.375" stroke-miterlimit="10"/>
<path d="M242.548 184.057C242.69 184.571 242.626 185.12 242.369 185.588C241.76 186.772 240.305 187.343 238.979 187.231C237.652 187.118 236.435 186.443 235.35 185.671M223.941 187.877C221.865 191.427 220.92 195.525 221.234 199.625M220.408 188.428C219.602 190.639 219.309 193.005 219.549 195.346" stroke="#464C54" stroke-width="0.375" stroke-miterlimit="10"/>
<path d="M231.371 197.248C230.548 197.871 229.896 198.691 229.473 199.633C229.391 199.434 229.351 199.22 229.355 199.005C229.36 198.79 229.408 198.578 229.498 198.382C229.795 197.503 230.401 196.762 231.204 196.297C231.996 195.88 233.706 195.625 234.257 196.555C233.919 196.818 233.36 196.618 232.947 196.66C232.381 196.721 231.839 196.923 231.371 197.248ZM243.014 196.067C242.573 195.962 242.112 195.976 241.678 196.108C241.244 196.24 240.853 196.485 240.545 196.818C240.704 196.376 240.983 195.988 241.352 195.697C241.721 195.407 242.164 195.226 242.631 195.175C243.419 195.087 245.55 195.68 245.55 196.781C245.55 197.648 243.565 196.184 243.014 196.067Z" fill="#051826"/>
<path d="M222.985 202.039C222.611 201.159 222.018 200.39 221.261 199.805C220.505 199.221 219.61 198.841 218.664 198.703C217.054 198.486 215.29 199.087 214.373 200.421C213.455 201.756 213.514 203.499 213.91 205.046C214.165 206.261 214.761 207.377 215.628 208.265C216.546 209.082 217.713 209.563 218.939 209.629C220.075 209.701 221.211 209.487 222.243 209.008C223.275 208.529 224.171 207.799 224.849 206.885" fill="#F1C4AE"/>
<path d="M217.254 201.718C218.22 201.654 219.181 201.913 219.984 202.453C220.788 202.993 221.39 203.785 221.695 204.704L220.978 204.254C220.425 203.835 219.764 203.583 219.072 203.528C218.38 203.549 217.663 204.15 217.821 204.825" stroke="#051826" stroke-width="0.1875" stroke-miterlimit="10"/>
<path d="M238.807 201.189C238.784 201.672 238.884 202.153 239.097 202.587C239.311 203.021 239.632 203.394 240.029 203.67C240.832 204.211 241.737 204.58 242.689 204.754C242.774 205.231 242.744 205.721 242.601 206.183C242.458 206.646 242.207 207.067 241.869 207.413C241.53 207.759 241.114 208.019 240.655 208.172C240.195 208.325 239.706 208.365 239.228 208.291" stroke="#464C54" stroke-width="0.375" stroke-miterlimit="10"/>
<path d="M234.54 201.164C234.769 202.04 234.406 202.878 233.726 203.036C233.047 203.195 232.313 202.619 232.083 201.739C231.854 200.859 232.217 200.025 232.892 199.867C233.568 199.708 234.289 200.276 234.54 201.164Z" fill="#051826"/>
<path d="M244.852 199.892C245.023 200.83 244.635 201.668 243.981 201.76C243.326 201.852 242.663 201.164 242.492 200.225C242.321 199.287 242.709 198.449 243.363 198.357C244.018 198.265 244.681 198.953 244.852 199.892Z" fill="#051826"/>
<path d="M235.052 209.825C235.052 209.825 240.277 213.049 242.471 211.952C242.471 211.952 241.22 215.289 239.514 215.234C235.936 215.101 235.052 209.825 235.052 209.825Z" fill="white"/>
<path d="M290.663 282.848C285.179 272.03 280.363 264.707 274.737 253.622C272.964 250.123 266.73 237.754 261.951 233.659C259.695 231.72 257.901 231.015 254.669 230.94C250.862 230.852 247.134 240.557 247.438 242.905C247.955 246.858 247.634 242.8 248.518 246.658C249.352 250.282 252.376 255.833 253.523 259.323C255.232 264.632 261.296 278.06 264.365 282.677C266.079 285.266 266.563 292.981 272.222 295.3C272.222 295.3 282.368 299.028 288.257 294.112C294.145 289.195 290.663 282.848 290.663 282.848Z" fill="url(#paint8_linear_2303_17798)"/>
<path d="M308.325 283.068C308.325 283.068 326.382 286.325 326.341 286.821C326.299 287.318 326.512 293.948 326.424 294.966C326.336 295.983 310.685 297.351 310.081 297.251C303.842 296.23 308.325 283.068 308.325 283.068Z" fill="#FFB692"/>
<path d="M313.913 282.968C314.693 283.135 314.288 282.613 314.801 283.176C315.147 283.56 313.992 292.643 314.213 297.105C314.213 297.372 314.63 297.051 314.405 297.247C313.879 297.582 313.32 297.862 312.737 298.081C310.289 298.669 311.561 297.968 309.029 298.256C301.851 299.057 294.649 299.705 287.423 300.199C279.967 300.708 272.026 301.28 264.983 298.531C263.892 298.156 262.87 297.604 261.959 296.897C260.866 295.906 260.057 294.642 259.616 293.235C258.903 291.131 258.72 288.884 259.084 286.693C259.447 284.502 260.346 282.435 261.701 280.674C270.004 270.132 287.602 278.468 298.212 280.094C303.48 280.901 308.714 281.859 313.913 282.968Z" fill="url(#paint9_linear_2303_17798)"/>
<path d="M274.128 274.778C274.128 274.778 305.702 281.663 314.301 283.473M258.248 294.186C262.864 298.836 274.929 300.241 278.19 300.254C289.913 300.296 302.753 299.837 314.055 297.639" stroke="white" stroke-opacity="0.35" stroke-width="0.3" stroke-miterlimit="10"/>
<path d="M314.931 283.298C314.476 286.521 314.097 293.857 314.313 297.114" stroke="#9F6E1F" stroke-width="0.3" stroke-miterlimit="10"/>
<path d="M320.835 285.162C320.835 285.162 313.391 287.56 315.785 295.004C318.179 302.448 329.852 299.666 329.852 299.666L333.772 300.579C333.772 300.579 345.006 311.468 346.224 306.243C346.224 306.243 352.454 309.074 348.142 303.937C348.142 303.937 353.76 309.358 352.062 304.85L346.75 298.098L344.748 294.874L352.279 298.011C352.279 298.011 359.511 302.456 357.809 297.927L346.966 291.255L333.901 288.206L320.835 285.162Z" fill="#FFB692"/>
<path d="M348.43 304.629C347.112 303.286 345.832 301.91 344.643 300.458C343.851 299.483 343.113 298.461 342.333 297.473C341.835 296.836 341.319 296.212 340.786 295.6C340.61 295.4 340.902 295.104 341.082 295.308C342.896 297.393 344.443 299.674 346.278 301.739C347.07 302.627 347.892 303.49 348.726 304.341C348.745 304.36 348.761 304.384 348.771 304.409C348.782 304.434 348.787 304.462 348.787 304.489C348.787 304.517 348.782 304.544 348.771 304.569C348.761 304.595 348.745 304.618 348.726 304.637C348.706 304.657 348.683 304.672 348.658 304.682C348.632 304.693 348.605 304.698 348.578 304.698C348.55 304.698 348.523 304.693 348.498 304.682C348.472 304.672 348.449 304.657 348.43 304.637V304.629ZM345.802 305.897C343.208 303.419 340.381 301.113 338.333 298.14C338.179 297.919 338.542 297.723 338.692 297.931C340.727 300.871 343.534 303.152 346.098 305.605C346.294 305.788 345.998 306.084 345.802 305.897Z" fill="#BF5E29"/>
<path d="M269.236 312.114C269.236 312.114 330.372 316.977 339.572 329.446C342.908 333.967 347.495 345.752 343.171 352.053C338.846 358.354 328.721 355.26 327.211 355.473C325.701 355.685 264.715 356.686 263.247 349.672C262.989 348.437 253.355 316.047 269.236 312.114Z" fill="#5667CC"/>
<path d="M295.811 424.679L274.05 456.79C274.05 456.79 262.878 447.274 264.429 443.766C265.98 440.259 279.963 408.999 279.963 408.999L295.811 424.679Z" fill="#FFB692"/>
<path d="M308.558 339.388C308.558 339.388 296.415 356.958 295.672 360.29C294.93 363.622 273.123 414.253 273.123 414.253C273.123 414.253 282.094 422.064 287.853 424.933C290.422 426.189 293.135 427.128 295.931 427.728C295.931 427.728 325.928 386.65 339.152 362.85C343.364 355.269 342.646 347.37 342.792 345.377C343.397 337.12 326.011 310.747 308.558 339.388Z" fill="#051826"/>
<path d="M270.513 428.924C268.152 433.17 260.504 452.357 261.859 456.694C262.304 457.926 262.916 459.09 263.677 460.156L269.42 468.992C270.404 470.51 271.426 472.062 272.906 472.992C274.048 473.631 275.293 474.064 276.585 474.272C281.214 475.265 286.26 475.915 290.814 473.605C291.11 473.48 291.365 473.275 291.552 473.013C291.969 472.329 291.447 471.532 290.918 471.061C289.166 469.505 287.073 468.425 285.363 466.82C280.259 462.024 279.47 453.675 276.922 446.74C276.765 446.139 276.424 445.602 275.947 445.205C275.554 444.995 275.116 444.88 274.67 444.872C272.544 444.667 273.294 439.7 271.163 439.492" fill="#FFB692"/>
<path d="M263.215 478.434C263.249 477.763 263.215 467.091 262.077 465.148C260.938 463.204 258.061 460.71 258.061 460.71L262.31 449.138C262.31 449.138 266.026 459.614 267.757 461.52C269.487 463.425 273.478 468.551 277.102 469.026C280.726 469.501 287.528 467.124 287.528 467.124C287.528 467.124 295.693 474.018 295.623 475.357C295.552 476.695 293.654 478.134 293.654 478.134L270.601 476.716L266.743 468.918L266.26 478.288L263.215 478.434Z" fill="#051826"/>
<path d="M266.376 478.284C266.376 475.498 266.464 472.696 266.71 469.893" stroke="#262E60" stroke-width="0.1875" stroke-miterlimit="10"/>
<path d="M220.844 309.887C220.844 309.887 213.855 335.393 215.106 345.664C216.357 355.936 220.11 357.641 225.265 359.193C230.419 360.744 281.147 353.171 284.954 344.013C287.586 337.699 280.112 329.346 276.797 322.465C275.304 319.366 277.798 315.759 277.377 315.113C276.017 313.028 271.734 308.194 271.029 306.935C270.325 305.675 220.844 309.887 220.844 309.887Z" fill="#0BAA95"/>
<path d="M264.495 314.045C268.165 316.697 270.275 319.391 271.021 323.483M227.275 328.658C227.746 324.354 226.887 322.436 228.393 318.232M231.141 328.662C235.582 326.952 238.927 323.207 239.557 319.233" stroke="white" stroke-opacity="0.29" stroke-width="0.3" stroke-miterlimit="10"/>
<path d="M220.051 317.373C225.277 320.509 234.038 320.342 240.686 319.758C250.278 318.924 254.656 317.619 264.202 314.921" stroke="white" stroke-opacity="0.29" stroke-width="0.3" stroke-miterlimit="10"/>
<path d="M219.472 356.936C220.519 359.731 225.936 363.271 228.734 363.217C245.19 362.9 299.662 361.457 304.15 361.657C318.558 362.312 322.72 338.416 321.607 333.554C320.493 328.691 308.866 325.814 299.421 323.795C291.38 322.081 256.358 321.064 255.837 321.03C240.544 319.963 204.68 317.461 219.472 356.936Z" fill="#051826"/>
<path d="M225.998 333.7C225.164 339.676 228.83 345.606 233.642 348.659C238.455 351.711 244.185 352.449 249.735 352.804C260.311 353.479 287.218 352.203 297.656 354.193" stroke="#BFBEE5" stroke-width="0.1875" stroke-miterlimit="10"/>
<path d="M347.975 453.433C347.107 458.104 346.377 463.504 349.051 467.241C349.868 468.287 350.817 469.224 351.874 470.027L360.127 476.833C361.541 478 363 479.193 364.714 479.673C365.987 479.965 367.3 480.035 368.597 479.881C373.284 479.56 378.251 478.797 381.808 475.365C382.048 475.165 382.225 474.9 382.317 474.601C382.492 473.838 381.741 473.225 381.091 472.933C378.939 471.937 376.62 471.486 374.494 470.431C368.142 467.278 364.718 459.588 360.093 453.708C359.754 453.178 359.263 452.762 358.684 452.516C358.251 452.425 357.802 452.436 357.374 452.549L351.144 453.704" fill="#FFB692"/>
<path d="M357.313 487.488C357.133 486.846 353.659 476.745 351.983 475.21C350.306 473.676 346.758 472.087 346.758 472.087L347.058 459.96C347.058 459.96 353.922 468.872 356.162 470.21C358.401 471.549 363.814 475.311 367.388 474.764C370.962 474.218 376.617 470.094 376.617 470.094C376.617 470.094 386.53 474.406 386.892 475.69C387.255 476.974 385.925 478.859 385.925 478.859L363.718 483.81L357.579 477.471L360.123 486.483L357.313 487.488Z" fill="#051826"/>
<path d="M346.119 412.856L361.324 454.976C361.324 454.976 346.445 460.648 344.389 457.357C342.333 454.067 328.954 423.803 328.954 423.803L346.119 412.856Z" fill="#FFB692"/>
<path d="M289.888 360.774L332.075 440.384C332.075 440.384 343.973 440.134 348.91 435.73C352.388 432.628 358.735 429.004 358.735 429.004C358.735 429.004 334.577 357.804 323.496 334.376C320.752 328.571 319.622 328.654 318.392 327.757C312.182 323.241 275.505 329.722 289.888 360.774Z" fill="#051826"/>
<path d="M300.004 353.275C314.475 377.079 326.019 404.987 338.371 430.292" stroke="#BFBEE5" stroke-width="0.1875" stroke-miterlimit="10"/>
<path d="M234.21 246.453L239.098 244.026C239.098 244.026 241.233 242.241 240.653 240.356C240.073 238.471 242.171 230.223 242.171 230.223C242.171 230.223 262.71 234.297 263.823 238.092C264.937 241.887 269.499 266.963 268.861 270.291C267.839 275.6 266.446 281.267 265.408 285.396C264.903 287.406 265.141 294.57 264.966 295.696C264.182 300.642 267.21 305.35 265.8 309.737C265.07 312.014 239.49 319.746 228.655 319.029C217.821 318.312 210.26 315.505 210.969 312.486C212.07 307.807 215.139 294.257 215.373 290.187C215.606 286.117 201.29 262.551 199.551 258.889C197.812 255.228 200.864 241.791 206.081 238.617C211.298 235.444 225.131 228.7 225.131 228.7L234.21 246.453Z" fill="#FFFBF5"/>
<path d="M260.562 247.066C263.723 251.791 269.44 265.753 268.852 270.291C268.249 275.197 267.082 280.018 265.374 284.657C265.374 284.657 263.902 296.055 265.942 300.696C267.981 305.338 268.027 307.819 265.433 310.117" stroke="#9F6E1F" stroke-width="0.3" stroke-miterlimit="10"/>
<path d="M212.319 262.83L214.688 293.373L212.244 306.572C212.244 306.572 210.48 311.205 211.056 313.795C211.539 315.976 214.275 316.172 215.117 316.518C215.714 316.76 216.706 308.445 217.378 308.712C220.118 309.796 223.216 310.918 224.663 311.068C233.224 311.896 241.859 310.701 249.873 307.577C250.523 307.323 253.964 314.867 254.46 314.667C255.098 314.387 264.769 311.122 266.137 309.016C269.815 303.42 265.72 296.76 265.72 296.76C265.72 296.76 240.252 302.736 233.579 293.282C232.028 291.084 234.359 277.101 232.612 274.932C226.506 267.363 213.253 264.144 212.319 262.83Z" fill="#EDE8E2"/>
<path d="M238.568 228.755C238.568 228.755 229.026 226.669 225.143 228.7C221.261 230.731 210.752 236.002 210.752 236.002C210.752 236.002 226.078 243.509 234.21 246.453C242.342 249.397 248.068 241.069 249.519 239.806C250.97 238.542 253.109 232.504 253.109 232.504L238.568 228.755Z" fill="#F1C4AE"/>
<path d="M224.585 244.351C230.736 257.35 232.792 271.963 235.09 286.263C236.925 297.664 237.467 313.403 248.414 319.759C253.001 322.419 258.298 323.374 263.51 324.091C268.723 324.809 274.028 325.343 278.94 327.269C273.479 325.632 267.621 325.926 262.351 328.103C259.529 329.235 256.987 330.968 254.903 333.183C249.899 338.629 250.266 346.615 246.737 352.729C241.833 361.228 230.949 360.089 221.378 358.15C216.211 357.095 211.161 354.731 208.125 350.823C204.276 345.873 204.267 339.401 204.939 333.466C206.323 321.268 209.972 308.991 207.27 296.659C204.814 285.45 200.597 274.515 199.346 263.055C198.629 256.566 198.204 250.127 200.843 244.193C202.895 239.564 208.096 233.767 213.275 232.962C218.609 232.141 222.592 240.139 224.585 244.351Z" fill="url(#paint10_linear_2303_17798)"/>
<path d="M252.897 242.813C255.478 254.715 255.641 267.025 256.734 279.182C257.826 291.338 259.962 303.715 266.008 314.166C267.145 316.264 268.599 318.173 270.321 319.825C272.693 321.977 275.675 323.278 278.686 324.258C289.854 327.903 305.293 324.404 316.281 320.088C307.941 316.164 296.681 314.975 288.716 310.284C281.935 306.297 275.087 301.822 270.808 295.075C270.188 294.191 269.762 293.186 269.557 292.126C269.382 290.938 269.691 289.728 270.012 288.569C271.713 282.459 273.986 276.292 273.486 269.965C273.277 267.351 272.597 264.807 271.922 262.275C270.137 255.624 267.251 251.132 265.47 244.476C264.953 242.55 265.354 238.5 264.265 236.853C262.866 234.827 260.942 233.221 258.698 232.207C256.279 231.04 246.804 228.529 244.444 230.368C246.95 234.518 251.838 237.9 252.897 242.813Z" fill="url(#paint11_linear_2303_17798)"/>
<path d="M254.435 287.018C254.435 287.018 272.493 290.279 272.447 290.771C272.401 291.263 272.618 297.898 272.534 298.916C272.451 299.933 256.796 301.297 256.191 301.197C249.948 300.179 254.435 287.018 254.435 287.018Z" fill="#F7CEBA"/>
<path d="M260.023 286.918C260.803 287.084 260.398 286.567 260.911 287.13C261.257 287.514 260.102 296.593 260.323 301.059C260.323 301.326 260.74 301.005 260.511 301.197C259.987 301.534 259.427 301.813 258.843 302.031C256.395 302.623 257.667 301.922 255.136 302.206C247.957 303.009 240.755 303.657 233.529 304.149C226.073 304.658 218.133 305.229 211.089 302.481C209.998 302.107 208.977 301.556 208.065 300.85C206.972 299.859 206.163 298.593 205.722 297.185C205.009 295.081 204.826 292.834 205.19 290.643C205.554 288.452 206.452 286.384 207.807 284.624C216.11 274.086 233.704 282.422 244.318 284.048C249.586 284.852 254.821 285.808 260.023 286.918Z" fill="#10B29F"/>
<path d="M220.239 278.727C220.239 278.727 251.804 285.612 260.411 287.435M205.267 298.156C209.884 302.806 221.023 304.195 224.301 304.208C236.023 304.245 248.864 303.765 260.165 301.589" stroke="white" stroke-opacity="0.36" stroke-width="0.3" stroke-miterlimit="10"/>
<path d="M261.041 287.251C260.586 290.475 260.207 297.806 260.424 301.067" stroke="white" stroke-opacity="0.5" stroke-width="0.3" stroke-miterlimit="10"/>
<path d="M223.501 305.784C217.409 305.551 210.924 305.179 206.699 300.313C202.904 295.946 201.574 289.966 199.923 284.578C197.837 277.697 189.597 247.125 204.948 239.823C206.303 239.18 208.422 239.464 209.952 240.415C211.483 241.366 213.576 241.787 213.893 243.246C214.281 245.056 217.179 249.644 217.229 251.458C217.467 257.592 218.397 259.969 221.354 265.316C228.66 294.17 226.9 301.893 223.501 305.784Z" fill="url(#paint12_linear_2303_17798)"/>
<path d="M218.026 254.381C221.141 266.287 220.67 276.292 227.059 286.968" stroke="white" stroke-opacity="0.36" stroke-width="0.3" stroke-miterlimit="10"/>
<path d="M266.947 289.103C266.947 289.103 259.499 291.497 261.897 298.945C264.295 306.393 275.963 303.607 275.963 303.607L279.883 304.52C279.883 304.52 291.118 315.409 292.336 310.184C292.336 310.184 298.566 313.015 294.254 307.873C294.254 307.873 299.871 313.32 298.174 308.791L292.861 302.039L290.855 298.815L298.391 301.951C298.391 301.951 305.601 306.405 303.933 301.876L293.09 295.204L280.025 292.155L266.947 289.103Z" fill="#F7CEBA"/>
<path d="M294.541 308.582C293.224 307.239 291.939 305.863 290.755 304.412C289.962 303.432 289.22 302.414 288.444 301.422C287.944 300.784 287.431 300.171 286.897 299.554C286.722 299.353 287.014 299.057 287.193 299.258C289.007 301.343 290.555 303.624 292.39 305.688C293.178 306.581 293.999 307.444 294.838 308.295C295.025 308.486 294.729 308.782 294.541 308.591V308.582ZM291.914 309.85C289.32 307.348 286.493 305.067 284.441 302.093C284.291 301.872 284.649 301.676 284.804 301.885C286.839 304.825 289.646 307.102 292.21 309.554C292.402 309.742 292.11 310.038 291.914 309.85Z" fill="#A97051"/>
<path d="M294.771 308.36C293.932 307.509 293.109 306.644 292.319 305.75C291.4 304.715 290.552 303.627 289.71 302.538C289.674 302.492 289.639 302.446 289.603 302.4C288.796 301.357 287.99 300.316 287.123 299.32C287.096 299.29 287.071 299.284 287.052 299.285C287.029 299.286 287.002 299.298 286.979 299.321C286.931 299.37 286.921 299.438 286.968 299.492L286.968 299.492C287.503 300.11 288.017 300.724 288.518 301.364L288.518 301.364C288.83 301.763 289.136 302.165 289.441 302.566C289.897 303.167 290.353 303.765 290.828 304.353C292.009 305.801 293.292 307.175 294.608 308.517L294.635 308.544V308.546C294.654 308.557 294.671 308.56 294.686 308.559C294.712 308.557 294.74 308.544 294.764 308.52C294.787 308.497 294.801 308.468 294.803 308.441C294.805 308.417 294.799 308.389 294.771 308.36ZM294.771 308.36C294.771 308.36 294.771 308.36 294.771 308.36L294.838 308.295M294.771 308.36C294.771 308.36 294.771 308.36 294.77 308.36L294.838 308.295M294.838 308.295C293.999 307.444 293.178 306.581 292.39 305.688M294.838 308.295L292.39 305.688M292.39 305.688C291.433 304.612 290.555 303.478 289.677 302.342C288.869 301.299 288.062 300.256 287.193 299.258C287.014 299.057 286.722 299.353 286.897 299.554L292.39 305.688ZM284.518 302.04C286.078 304.301 288.086 306.157 290.105 308.025C290.733 308.605 291.362 309.187 291.979 309.782C292.009 309.811 292.038 309.818 292.062 309.816C292.089 309.814 292.118 309.8 292.141 309.777C292.164 309.753 292.177 309.725 292.179 309.699C292.18 309.677 292.174 309.65 292.145 309.621C291.572 309.073 290.986 308.533 290.398 307.992C288.364 306.118 286.312 304.228 284.728 301.94C284.685 301.883 284.613 301.876 284.554 301.91C284.525 301.926 284.508 301.948 284.502 301.967C284.497 301.983 284.496 302.007 284.518 302.04Z" stroke="white" stroke-opacity="0.5" stroke-width="0.1875"/>
<path d="M350.782 323.741H253.769V318.879H350.782V323.741Z" fill="#0C1C37"/>
<path fill-rule="evenodd" clip-rule="evenodd" d="M351.136 320.092H281.493L298.72 274.469C299.627 272.068 301.243 270 303.355 268.541C305.466 267.081 307.972 266.3 310.539 266.3H365.62C366.271 266.303 366.911 266.463 367.487 266.768C368.062 267.072 368.555 267.511 368.924 268.048C369.293 268.584 369.526 269.202 369.605 269.848C369.683 270.494 369.603 271.15 369.373 271.759L351.136 320.092Z" fill="#1C3256"/>
<path fill-rule="evenodd" clip-rule="evenodd" d="M281.522 319.963L361.349 272.255C362.07 271.823 362.907 271.626 363.744 271.692C364.582 271.759 365.377 272.085 366.02 272.626C366.663 273.166 367.122 273.894 367.331 274.708C367.54 275.521 367.49 276.38 367.188 277.163L350.669 319.963H281.522Z" fill="#122A4F"/>
<path d="M322.239 299.202C320.469 297.121 321.272 293.53 324.032 291.181C326.793 288.831 330.466 288.613 332.237 290.693C334.007 292.773 333.204 296.364 330.444 298.714C327.683 301.063 324.01 301.282 322.239 299.202Z" fill="white"/>
<path d="M342.397 243.23C341.348 243.23 340.343 242.813 339.601 242.072C338.86 241.33 338.443 240.325 338.443 239.276V223.558C338.444 222.51 338.861 221.505 339.602 220.764C340.343 220.023 341.348 219.606 342.397 219.605H386.873C387.392 219.605 387.906 219.707 388.386 219.906C388.865 220.105 389.301 220.396 389.668 220.763C390.035 221.13 390.327 221.566 390.525 222.045C390.724 222.525 390.826 223.039 390.826 223.558V239.268C390.827 239.787 390.725 240.302 390.526 240.781C390.328 241.261 390.037 241.697 389.669 242.065C389.302 242.432 388.866 242.723 388.386 242.922C387.906 243.12 387.392 243.222 386.873 243.221H352.001L340.374 250.728L342.397 243.23Z" fill="#FF5F00"/>
<path d="M378.053 233.992C376.689 233.992 375.584 232.887 375.584 231.523C375.584 230.16 376.689 229.055 378.053 229.055C379.416 229.055 380.521 230.16 380.521 231.523C380.521 232.887 379.416 233.992 378.053 233.992Z" fill="white"/>
<path d="M364.311 233.776C362.948 233.776 361.843 232.67 361.843 231.307C361.843 229.943 362.948 228.838 364.311 228.838C365.675 228.838 366.78 229.943 366.78 231.307C366.78 232.67 365.675 233.776 364.311 233.776Z" fill="white"/>
<path d="M351.004 233.992C349.64 233.992 348.535 232.887 348.535 231.523C348.535 230.16 349.64 229.055 351.004 229.055C352.367 229.055 353.473 230.16 353.473 231.523C353.473 232.887 352.367 233.992 351.004 233.992Z" fill="white"/>
<path d="M548.604 310.156L505.536 235.057L423.163 263.339L548.604 310.156Z" fill="#FFC022"/>
<path d="M549.115 308.865L423.21 262.464L461.593 347.927L549.115 308.865Z" fill="#EAA306"/>
<path d="M544.64 248.475L467.044 218.811C466.662 218.664 466.238 218.676 465.864 218.842C465.49 219.008 465.198 219.315 465.05 219.697L424.797 324.987C424.651 325.369 424.662 325.794 424.828 326.168C424.994 326.543 425.302 326.836 425.684 326.984L503.285 356.648C503.667 356.795 504.092 356.784 504.466 356.617C504.839 356.451 505.132 356.144 505.279 355.762L545.532 250.469C545.678 250.087 545.666 249.662 545.499 249.288C545.332 248.914 545.023 248.621 544.64 248.475Z" fill="#00987F"/>
<path d="M507.597 297.676L461.398 280.367L478.109 235.768L524.307 253.077L507.597 297.676Z" fill="white"/>
<path d="M449.251 286.226L513.133 310.059C513.994 310.38 514.431 311.338 514.11 312.199C513.789 313.06 512.831 313.497 511.97 313.176L448.088 289.342C447.228 289.021 446.79 288.063 447.111 287.203C447.432 286.342 448.39 285.904 449.251 286.226Z" fill="white"/>
<path d="M446.095 294.217L509.977 318.051C510.837 318.372 511.275 319.33 510.954 320.19C510.633 321.051 509.675 321.489 508.814 321.167L444.932 297.334C444.071 297.013 443.634 296.055 443.955 295.194C444.276 294.333 445.234 293.896 446.095 294.217Z" fill="white"/>
<path d="M442.942 302.209L506.823 326.043C507.684 326.364 508.122 327.322 507.8 328.183C507.479 329.044 506.521 329.481 505.661 329.16L441.779 305.326C440.918 305.005 440.481 304.047 440.802 303.186C441.123 302.326 442.081 301.888 442.942 302.209Z" fill="white"/>
<path d="M548.731 309.769L471.792 325.512L519.628 389.149L548.731 309.769Z" fill="#FFC022"/>
<path d="M423.137 263.643L471.686 325.474L394.034 343.02L423.137 263.643Z" fill="#FFC022"/>
<path d="M519.629 389.149L475.866 323.451L486.924 322.313L487.985 322.204L519.629 389.149Z" fill="#EAA306"/>
<path d="M471.195 324.068L461.706 312.401L394.034 343.02L471.195 324.068Z" fill="#EAA306"/>
<path d="M394.138 343.059L476.587 316.611L519.629 389.149L394.138 343.059Z" fill="#FFC022"/>
<path d="M494.497 257.215C492.358 256.771 489.954 257.016 488.057 258.1C486.161 259.183 484.786 260.926 484.084 262.995L488.323 264.13C488.673 263.099 489.337 262.533 490.283 261.993C491.229 261.452 492.352 261.017 493.419 261.239L494.497 257.215Z" fill="#FF5F00"/>
<path d="M486.549 272.574C487.637 273.557 489.081 274.248 490.503 274.604C491.925 274.961 493.412 274.963 494.835 274.61C496.258 274.257 497.572 273.56 498.663 272.58C499.753 271.599 500.541 269.929 501.042 268.552L496.977 267.472C496.727 268.159 496.208 268.756 495.664 269.245C495.121 269.734 494.595 270.052 493.886 270.228C493.176 270.404 492.403 270.537 491.694 270.359C490.985 270.181 488.782 269.739 487.986 267.21L486.549 272.574Z" fill="#FF5F00"/>
<path d="M483.95 263.493L488.197 264.631L484.723 277.595C484.723 277.595 483.276 277.095 482.511 276.581C481.726 276.055 480.877 274.962 480.877 274.962L483.95 263.493Z" fill="#FF5F00"/>
<rect x="494.945" y="257.335" width="13.4214" height="4.16525" transform="rotate(15 494.945 257.335)" fill="#00987F"/>
<rect x="504.637" y="255.141" width="13.4214" height="4.16525" transform="rotate(105 504.637 255.141)" fill="#00987F"/>
<path d="M265.12 487.487H256.896C257.088 487.12 315.485 368.634 322.182 356.161C335.306 331.706 336.136 331.185 337.283 330.464C340.039 328.725 342.225 331.811 342.946 332.828C343.722 333.921 344.702 335.505 345.94 337.666C348.122 341.461 351.145 347.115 354.927 354.476C361.262 366.795 416.268 487.091 416.443 487.508H408.607C408.491 487.258 400.784 468.3 390.05 444.408H286.918C279.37 459.48 271.893 474.322 265.12 487.487ZM388.678 441.318C384.82 432.786 380.612 423.72 376.258 414.716C352.092 364.76 342.738 347.249 339.143 341.21C331.874 353.579 310.059 398.068 288.457 441.318H388.678Z" fill="white" stroke="#B4BFCA" stroke-width="0.1875" stroke-miterlimit="10"/>
<path d="M241.633 324.158H432.077V334.008H241.633V324.158Z" fill="white" stroke="#B4BFCA" stroke-width="0.1875" stroke-miterlimit="10"/>
</g>
<defs>
<linearGradient id="paint0_linear_2303_17798" x1="313.5" y1="487" x2="313.5" y2="141" gradientUnits="userSpaceOnUse">
<stop stop-color="#DDEDED"/>
<stop offset="1" stop-color="#E8F5F5"/>
</linearGradient>
<linearGradient id="paint1_linear_2303_17798" x1="142.249" y1="346.228" x2="179.532" y2="352.478" gradientUnits="userSpaceOnUse">
<stop stop-color="#14B8A6"/>
<stop offset="1" stop-color="#00987F"/>
</linearGradient>
<linearGradient id="paint2_linear_2303_17798" x1="120.698" y1="307.897" x2="149.039" y2="309.979" gradientUnits="userSpaceOnUse">
<stop stop-color="#14B8A6"/>
<stop offset="1" stop-color="#00987F"/>
</linearGradient>
<linearGradient id="paint3_linear_2303_17798" x1="84.0002" y1="370.018" x2="136.156" y2="388.994" gradientUnits="userSpaceOnUse">
<stop stop-color="#14B8A6"/>
<stop offset="1" stop-color="#00987F"/>
</linearGradient>
<linearGradient id="paint4_linear_2303_17798" x1="105.052" y1="340.475" x2="143.629" y2="345.517" gradientUnits="userSpaceOnUse">
<stop stop-color="#14B8A6"/>
<stop offset="1" stop-color="#00987F"/>
</linearGradient>
<linearGradient id="paint5_linear_2303_17798" x1="93.191" y1="389.759" x2="135.888" y2="405.153" gradientUnits="userSpaceOnUse">
<stop stop-color="#14B8A6"/>
<stop offset="1" stop-color="#00987F"/>
</linearGradient>
<linearGradient id="paint6_linear_2303_17798" x1="141.105" y1="365.634" x2="181.469" y2="371.238" gradientUnits="userSpaceOnUse">
<stop stop-color="#14B8A6"/>
<stop offset="1" stop-color="#00987F"/>
</linearGradient>
<linearGradient id="paint7_linear_2303_17798" x1="147.013" y1="390.302" x2="196.378" y2="407.676" gradientUnits="userSpaceOnUse">
<stop stop-color="#14B8A6"/>
<stop offset="1" stop-color="#00987F"/>
</linearGradient>
<linearGradient id="paint8_linear_2303_17798" x1="247.421" y1="245.096" x2="295.787" y2="249.849" gradientUnits="userSpaceOnUse">
<stop stop-color="#14B8A6"/>
<stop offset="1" stop-color="#00987F"/>
</linearGradient>
<linearGradient id="paint9_linear_2303_17798" x1="258.901" y1="280.857" x2="314.775" y2="298.962" gradientUnits="userSpaceOnUse">
<stop stop-color="#14B8A6"/>
<stop offset="1" stop-color="#00987F"/>
</linearGradient>
<linearGradient id="paint10_linear_2303_17798" x1="198.802" y1="260.182" x2="286.464" y2="268.276" gradientUnits="userSpaceOnUse">
<stop stop-color="#14B8A6"/>
<stop offset="1" stop-color="#00987F"/>
</linearGradient>
<linearGradient id="paint11_linear_2303_17798" x1="244.444" y1="250.411" x2="322.763" y2="258.955" gradientUnits="userSpaceOnUse">
<stop stop-color="#14B8A6"/>
<stop offset="1" stop-color="#00987F"/>
</linearGradient>
<linearGradient id="paint12_linear_2303_17798" x1="195.844" y1="253.761" x2="229.449" y2="256.023" gradientUnits="userSpaceOnUse">
<stop stop-color="#00987F"/>
<stop offset="1" stop-color="#14B8A6"/>
</linearGradient>
<clipPath id="clip0_2303_17798">
<rect width="631" height="663" fill="white"/>
</clipPath>
</defs>
</svg>
