<svg width="275" height="62" viewBox="0 0 275 62" fill="none" xmlns="http://www.w3.org/2000/svg">
<path d="M58.5 41V19.4H68.76C70.36 19.4 71.73 19.68 72.87 20.24C74.03 20.8 74.92 21.58 75.54 22.58C76.18 23.58 76.5 24.75 76.5 26.09C76.5 27.43 76.18 28.61 75.54 29.63C74.9 30.65 74 31.45 72.84 32.03C71.7 32.59 70.34 32.87 68.76 32.87H62.16V29.33H68.52C69.58 29.33 70.4 29.04 70.98 28.46C71.58 27.86 71.88 27.08 71.88 26.12C71.88 25.16 71.58 24.39 70.98 23.81C70.4 23.23 69.58 22.94 68.52 22.94H63.12V41H58.5ZM78.0563 41V19.4H82.5563V41H78.0563ZM88.7063 41V31.52C88.7063 30.68 88.4863 30.05 88.0463 29.63C87.6263 29.21 87.0063 29 86.1863 29C85.4863 29 84.8563 29.16 84.2963 29.48C83.7563 29.8 83.3263 30.24 83.0063 30.8C82.7063 31.36 82.5563 32.02 82.5563 32.78L82.1663 29.09C82.6663 27.97 83.3963 27.08 84.3563 26.42C85.3363 25.74 86.5363 25.4 87.9563 25.4C89.6563 25.4 90.9563 25.88 91.8563 26.84C92.7563 27.78 93.2063 29.05 93.2063 30.65V41H88.7063ZM104.98 41C104.86 40.56 104.77 40.09 104.71 39.59C104.67 39.09 104.65 38.51 104.65 37.85H104.53V30.62C104.53 30 104.32 29.52 103.9 29.18C103.5 28.82 102.9 28.64 102.1 28.64C101.34 28.64 100.73 28.77 100.27 29.03C99.8296 29.29 99.5396 29.67 99.3996 30.17H95.1096C95.3096 28.79 96.0196 27.65 97.2396 26.75C98.4596 25.85 100.13 25.4 102.25 25.4C104.45 25.4 106.13 25.89 107.29 26.87C108.45 27.85 109.03 29.26 109.03 31.1V37.85C109.03 38.35 109.06 38.86 109.12 39.38C109.2 39.88 109.32 40.42 109.48 41H104.98ZM99.6396 41.3C98.1196 41.3 96.9096 40.92 96.0096 40.16C95.1096 39.38 94.6596 38.35 94.6596 37.07C94.6596 35.65 95.1896 34.51 96.2496 33.65C97.3296 32.77 98.8296 32.2 100.75 31.94L105.22 31.31V33.92L101.5 34.49C100.7 34.61 100.11 34.83 99.7296 35.15C99.3496 35.47 99.1596 35.91 99.1596 36.47C99.1596 36.97 99.3396 37.35 99.6996 37.61C100.06 37.87 100.54 38 101.14 38C102.08 38 102.88 37.75 103.54 37.25C104.2 36.73 104.53 36.13 104.53 35.45L104.95 37.85C104.51 38.99 103.84 39.85 102.94 40.43C102.04 41.01 100.94 41.3 99.6396 41.3ZM111.588 41V25.7H115.998V29.3H116.088V41H111.588ZM116.088 33.02L115.698 29.39C116.058 28.09 116.648 27.1 117.468 26.42C118.288 25.74 119.308 25.4 120.528 25.4C120.908 25.4 121.188 25.44 121.368 25.52V29.72C121.268 29.68 121.128 29.66 120.948 29.66C120.768 29.64 120.548 29.63 120.288 29.63C118.848 29.63 117.788 29.89 117.108 30.41C116.428 30.91 116.088 31.78 116.088 33.02ZM122.641 41V25.7H127.051V29.3H127.141V41H122.641ZM132.931 41V31.28C132.931 30.5 132.721 29.93 132.301 29.57C131.901 29.19 131.331 29 130.591 29C129.951 29 129.361 29.15 128.821 29.45C128.301 29.73 127.891 30.14 127.591 30.68C127.291 31.2 127.141 31.82 127.141 32.54L126.751 29.09C127.251 27.97 127.971 27.08 128.911 26.42C129.871 25.74 131.021 25.4 132.361 25.4C133.961 25.4 135.201 25.85 136.081 26.75C136.981 27.65 137.431 28.78 137.431 30.14V41H132.931ZM143.221 41V31.28C143.221 30.5 143.011 29.93 142.591 29.57C142.191 29.19 141.621 29 140.881 29C140.241 29 139.651 29.15 139.111 29.45C138.591 29.73 138.181 30.14 137.881 30.68C137.581 31.2 137.431 31.82 137.431 32.54L136.741 29.09C137.241 27.97 137.981 27.08 138.961 26.42C139.961 25.74 141.161 25.4 142.561 25.4C144.221 25.4 145.491 25.87 146.371 26.81C147.271 27.73 147.721 28.94 147.721 30.44V41H143.221ZM159.496 41C159.376 40.56 159.286 40.09 159.226 39.59C159.186 39.09 159.166 38.51 159.166 37.85H159.046V30.62C159.046 30 158.836 29.52 158.416 29.18C158.016 28.82 157.416 28.64 156.616 28.64C155.856 28.64 155.246 28.77 154.786 29.03C154.346 29.29 154.056 29.67 153.916 30.17H149.626C149.826 28.79 150.536 27.65 151.756 26.75C152.976 25.85 154.646 25.4 156.766 25.4C158.966 25.4 160.646 25.89 161.806 26.87C162.966 27.85 163.546 29.26 163.546 31.1V37.85C163.546 38.35 163.576 38.86 163.636 39.38C163.716 39.88 163.836 40.42 163.996 41H159.496ZM154.156 41.3C152.636 41.3 151.426 40.92 150.526 40.16C149.626 39.38 149.176 38.35 149.176 37.07C149.176 35.65 149.706 34.51 150.766 33.65C151.846 32.77 153.346 32.2 155.266 31.94L159.736 31.31V33.92L156.016 34.49C155.216 34.61 154.626 34.83 154.246 35.15C153.866 35.47 153.676 35.91 153.676 36.47C153.676 36.97 153.856 37.35 154.216 37.61C154.576 37.87 155.056 38 155.656 38C156.596 38 157.396 37.75 158.056 37.25C158.716 36.73 159.046 36.13 159.046 35.45L159.466 37.85C159.026 38.99 158.356 39.85 157.456 40.43C156.556 41.01 155.456 41.3 154.156 41.3ZM172.684 41.3C171.084 41.3 169.674 40.96 168.454 40.28C167.234 39.6 166.274 38.66 165.574 37.46C164.894 36.26 164.554 34.89 164.554 33.35C164.554 31.81 164.894 30.44 165.574 29.24C166.274 28.04 167.234 27.1 168.454 26.42C169.674 25.74 171.084 25.4 172.684 25.4C174.024 25.4 175.224 25.65 176.284 26.15C177.364 26.63 178.244 27.3 178.924 28.16C179.624 29.02 180.074 30.03 180.274 31.19H175.924C175.704 30.45 175.304 29.89 174.724 29.51C174.164 29.13 173.504 28.94 172.744 28.94C172.024 28.94 171.394 29.12 170.854 29.48C170.334 29.84 169.934 30.35 169.654 31.01C169.374 31.67 169.234 32.45 169.234 33.35C169.234 34.25 169.374 35.03 169.654 35.69C169.934 36.35 170.334 36.86 170.854 37.22C171.394 37.58 172.024 37.76 172.744 37.76C173.504 37.76 174.164 37.57 174.724 37.19C175.304 36.81 175.704 36.25 175.924 35.51H180.274C180.074 36.67 179.624 37.68 178.924 38.54C178.244 39.4 177.364 40.08 176.284 40.58C175.224 41.06 174.024 41.3 172.684 41.3ZM182.04 47.15L186.27 37.79L187.05 36.5L191.01 25.7H195.81L186.54 47.15H182.04ZM185.28 40.7L179.4 25.7H184.26L189.09 39.38L185.28 40.7ZM210.042 41.27C207.242 41.27 205.002 40.65 203.322 39.41C201.642 38.15 200.662 36.38 200.382 34.1H204.822C204.962 35.26 205.522 36.18 206.502 36.86C207.482 37.52 208.732 37.85 210.252 37.85C211.492 37.85 212.442 37.63 213.102 37.19C213.782 36.75 214.122 36.16 214.122 35.42C214.122 34.72 213.922 34.16 213.522 33.74C213.122 33.3 212.432 32.95 211.452 32.69L207.432 31.58C205.372 31 203.862 30.21 202.902 29.21C201.962 28.19 201.492 26.92 201.492 25.4C201.492 24.1 201.822 22.98 202.482 22.04C203.162 21.08 204.112 20.35 205.332 19.85C206.552 19.33 207.982 19.07 209.622 19.07C212.142 19.07 214.152 19.67 215.652 20.87C217.152 22.05 218.002 23.62 218.202 25.58H213.762C213.562 24.52 213.072 23.74 212.292 23.24C211.532 22.74 210.552 22.49 209.352 22.49C208.312 22.49 207.482 22.69 206.862 23.09C206.242 23.49 205.932 24.03 205.932 24.71C205.932 25.23 206.102 25.71 206.442 26.15C206.782 26.57 207.492 26.93 208.572 27.23L212.592 28.34C214.712 28.92 216.232 29.72 217.152 30.74C218.092 31.74 218.562 33.01 218.562 34.55C218.562 36.71 217.812 38.37 216.312 39.53C214.812 40.69 212.722 41.27 210.042 41.27ZM227.246 41.33C225.286 41.33 223.826 40.86 222.866 39.92C221.926 38.96 221.456 37.51 221.456 35.57V22.28L225.956 20.6V35.72C225.956 36.4 226.146 36.91 226.526 37.25C226.906 37.59 227.496 37.76 228.296 37.76C228.596 37.76 228.876 37.73 229.136 37.67C229.396 37.61 229.656 37.54 229.916 37.46V40.88C229.656 41.02 229.286 41.13 228.806 41.21C228.346 41.29 227.826 41.33 227.246 41.33ZM218.606 29.12V25.7H229.916V29.12H218.606ZM238.445 41.3C236.765 41.3 235.285 40.97 234.005 40.31C232.745 39.63 231.755 38.69 231.035 37.49C230.335 36.27 229.985 34.87 229.985 33.29C229.985 31.71 230.335 30.33 231.035 29.15C231.755 27.97 232.745 27.05 234.005 26.39C235.285 25.73 236.765 25.4 238.445 25.4C240.145 25.4 241.625 25.73 242.885 26.39C244.165 27.05 245.155 27.97 245.855 29.15C246.555 30.33 246.905 31.71 246.905 33.29C246.905 34.87 246.545 36.27 245.825 37.49C245.125 38.69 244.135 39.63 242.855 40.31C241.595 40.97 240.125 41.3 238.445 41.3ZM238.445 37.76C239.145 37.76 239.775 37.58 240.335 37.22C240.915 36.86 241.375 36.35 241.715 35.69C242.055 35.01 242.225 34.2 242.225 33.26C242.225 31.88 241.855 30.82 241.115 30.08C240.395 29.32 239.505 28.94 238.445 28.94C237.385 28.94 236.485 29.32 235.745 30.08C235.025 30.84 234.665 31.9 234.665 33.26C234.665 34.2 234.835 35.01 235.175 35.69C235.515 36.35 235.965 36.86 236.525 37.22C237.105 37.58 237.745 37.76 238.445 37.76ZM248.391 41V25.7H252.801V29.3H252.891V41H248.391ZM252.891 33.02L252.501 29.39C252.861 28.09 253.451 27.1 254.271 26.42C255.091 25.74 256.111 25.4 257.331 25.4C257.711 25.4 257.991 25.44 258.171 25.52V29.72C258.071 29.68 257.931 29.66 257.751 29.66C257.571 29.64 257.351 29.63 257.091 29.63C255.651 29.63 254.591 29.89 253.911 30.41C253.231 30.91 252.891 31.78 252.891 33.02ZM266.409 41.3C264.709 41.3 263.229 40.97 261.969 40.31C260.709 39.63 259.729 38.69 259.029 37.49C258.349 36.29 258.009 34.91 258.009 33.35C258.009 31.77 258.349 30.39 259.029 29.21C259.729 28.01 260.699 27.08 261.939 26.42C263.179 25.74 264.619 25.4 266.259 25.4C267.839 25.4 269.209 25.72 270.369 26.36C271.529 27 272.429 27.89 273.069 29.03C273.709 30.17 274.029 31.51 274.029 33.05C274.029 33.37 274.019 33.67 273.999 33.95C273.979 34.21 273.949 34.46 273.909 34.7H260.649V31.73H270.279L269.499 32.27C269.499 31.03 269.199 30.12 268.599 29.54C268.019 28.94 267.219 28.64 266.199 28.64C265.019 28.64 264.099 29.04 263.439 29.84C262.799 30.64 262.479 31.84 262.479 33.44C262.479 35 262.799 36.16 263.439 36.92C264.099 37.68 265.079 38.06 266.379 38.06C267.099 38.06 267.719 37.94 268.239 37.7C268.759 37.46 269.149 37.07 269.409 36.53H273.639C273.139 38.01 272.279 39.18 271.059 40.04C269.859 40.88 268.309 41.3 266.409 41.3Z" fill="#051826"/>
<path d="M19.9496 10.5225C14.9919 10.8045 9.85451 12.7572 6.3281 16.2533C2.80169 19.7495 0.807663 24.3865 0.48291 29.3416H10.4591C10.6211 26.87 11.7476 25.2379 13.5066 23.4939C15.2656 21.75 17.4766 20.1334 19.9496 19.9928V10.5225Z" fill="#FF5F00"/>
<path d="M11.5317 48.9298C14.4987 50.4487 18.0766 51.1152 21.4094 51.062C24.7421 51.0089 28.0107 50.1376 30.9278 48.525C33.8448 46.9123 36.3209 44.6076 38.1384 41.8135C39.9558 39.0194 40.7032 34.888 40.9949 31.5676L31.4321 31.5883C31.2866 33.2446 30.498 34.8604 29.5914 36.2541C28.6848 37.6478 27.7184 38.6551 26.2633 39.4595C24.8082 40.264 23.1906 41.0114 21.5282 41.0379C19.8657 41.0644 14.7682 41.3887 11.5317 36.3028V48.9298Z" fill="#FF5F00"/>
<path d="M0.48291 30.5154H10.4793V61.0308C10.4793 61.0308 7.00737 60.7838 5.02356 60.1061C2.99091 59.4117 0.48291 57.5098 0.48291 57.5098V30.5154Z" fill="#FF5F00"/>
<rect x="21.0015" y="10.5225" width="30.5154" height="9.47029" fill="#00987F"/>
<rect x="40.9946" width="30.5154" height="9.47029" transform="rotate(90 40.9946 0)" fill="#00987F"/>
</svg>
