<svg width="109" height="108" viewBox="0 0 109 108" fill="none" xmlns="http://www.w3.org/2000/svg">
<rect x="0.5" width="108" height="108" rx="54" fill="url(#paint0_linear_2877_8395)"/>
<path d="M47.6237 31.7629C41.9893 32.0834 36.1507 34.3026 32.143 38.276C28.1353 42.2493 25.8691 47.5193 25.5 53.1507H36.8378C37.0219 50.3417 38.3022 48.4868 40.3013 46.5049C42.3004 44.5229 44.8132 42.6857 47.6237 42.5258V31.7629Z" fill="#FF5F00"/>
<path d="M38.0571 75.4123C41.4291 77.1385 45.4954 77.896 49.283 77.8356C53.0706 77.7752 56.7853 76.785 60.1005 74.9522C63.4158 73.1194 66.2298 70.5001 68.2953 67.3247C70.3608 64.1492 71.2102 59.4539 71.5417 55.6804L60.6737 55.7039C60.5084 57.5862 59.6121 59.4225 58.5818 61.0065C57.5515 62.5904 56.4531 63.7352 54.7994 64.6494C53.1458 65.5637 51.3073 66.4131 49.418 66.4433C47.5287 66.4734 41.7354 66.8419 38.0571 61.0618V75.4123Z" fill="#FF5F00"/>
<path d="M25.5005 54.4846H36.8613V89.1651C36.8613 89.1651 32.9155 88.8843 30.6609 88.1141C28.3508 87.325 25.5005 85.1634 25.5005 85.1634V54.4846Z" fill="#FF5F00"/>
<rect x="48.8193" y="31.7629" width="34.6805" height="10.7629" fill="#00987F"/>
<rect x="71.541" y="19.8042" width="34.6805" height="10.7629" transform="rotate(90 71.541 19.8042)" fill="#00987F"/>
<defs>
<linearGradient id="paint0_linear_2877_8395" x1="54.5" y1="0" x2="54.5" y2="108" gradientUnits="userSpaceOnUse">
<stop stop-color="white"/>
<stop offset="0.756211" stop-color="#BEFFF4"/>
<stop offset="1" stop-color="#7CCEC1"/>
</linearGradient>
</defs>
</svg>
