<svg width="70" height="70" viewBox="0 0 70 70" fill="none" xmlns="http://www.w3.org/2000/svg">
<rect x="0.5" y="0.5" width="69" height="69" rx="34.5" fill="url(#paint0_linear_2877_7735)" stroke="white"/>
<path d="M42.1423 17.5476V21.3394C42.1423 21.8606 41.7188 22.2841 41.1976 22.2841H27.809C27.2877 22.2841 26.8643 21.8606 26.8643 21.3394V17.5476C26.8643 17.0263 27.2877 16.6029 27.809 16.6029H41.1911C41.7123 16.5963 42.1423 17.0198 42.1423 17.5476Z" fill="#FF8C34"/>
<path d="M46.0448 29.6658V48.9311C46.0448 50.8466 44.4877 52.4037 42.5722 52.4037H26.4277C24.5122 52.4037 22.9551 50.8466 22.9551 48.9311V29.6658C22.9551 28.8058 23.333 27.9915 23.9845 27.4311L27.5743 24.356C27.9392 24.0433 28.1542 23.5872 28.1542 23.1051V22.2842H40.8392V23.1051C40.8392 23.5872 41.0477 24.0433 41.419 24.356L45.0089 27.4311C45.6669 27.9849 46.0448 28.8058 46.0448 29.6658Z" fill="#F1F3F6"/>
<path d="M46.0448 31.21V48.9312C46.0448 50.8466 44.4877 52.4038 42.5722 52.4038H26.4277C24.5122 52.4038 22.9551 50.8466 22.9551 48.9312C22.9551 48.9312 46.0448 51.8956 46.0448 31.21Z" fill="#D5DCE5"/>
<path d="M46.0448 31.2099V45.7908C46.0448 46.4032 45.5496 46.8984 44.9372 46.8984H34.8517C34.2228 46.8984 33.6196 46.6485 33.1748 46.2038C32.7301 45.759 32.4802 45.1558 32.4802 44.5268V32.4738C32.4802 31.8448 32.7301 31.2416 33.1748 30.7969C33.6196 30.3522 34.2228 30.1023 34.8517 30.1023H44.9372C45.5496 30.1023 46.0448 30.5974 46.0448 31.2099Z" fill="#FF8C34"/>
<path d="M41.191 22.5969H27.8089C27.1117 22.5969 26.5449 22.0301 26.5449 21.3329V17.5476C26.5449 16.8505 27.1117 16.2837 27.8089 16.2837H41.191C41.8881 16.2837 42.4549 16.8505 42.4549 17.5476V21.3394C42.4549 22.0301 41.8881 22.5969 41.191 22.5969ZM27.8089 16.9157C27.6413 16.9157 27.4805 16.9822 27.362 17.1008C27.2435 17.2193 27.1769 17.38 27.1769 17.5476V21.3394C27.1769 21.6848 27.457 21.9714 27.8089 21.9714H41.191C41.5363 21.9714 41.823 21.6913 41.823 21.3394V17.5476C41.823 17.38 41.7564 17.2193 41.6379 17.1008C41.5193 16.9822 41.3586 16.9157 41.191 16.9157H27.8089Z" fill="black"/>
<path d="M42.5723 52.7164H26.4278C24.3364 52.7164 22.636 51.016 22.636 48.9246V29.6658C22.636 28.7081 23.053 27.809 23.7761 27.1901L27.366 24.1149C27.6657 23.8608 27.8351 23.4895 27.8351 23.1051V22.2842C27.8351 22.1083 27.9784 21.9714 28.1478 21.9714H40.8328C41.0087 21.9714 41.1455 22.1148 41.1455 22.2842V23.1051C41.1455 23.496 41.3149 23.8608 41.6146 24.1149L45.2045 27.1901C45.9277 27.809 46.3446 28.7146 46.3446 29.6658V48.9311C46.3577 51.016 44.6572 52.7164 42.5723 52.7164ZM28.4736 22.5969V23.1051C28.4736 23.6784 28.226 24.2192 27.783 24.597L24.1931 27.6722C23.6067 28.1739 23.2745 28.897 23.2745 29.6723V48.9376C23.2745 50.6772 24.6883 52.0975 26.4343 52.0975H42.5723C44.3119 52.0975 45.7322 50.6837 45.7322 48.9376V29.6658C45.7322 28.897 45.3999 28.1673 44.8136 27.6657L41.2237 24.5905C41.0082 24.4061 40.8349 24.1773 40.7157 23.9199C40.5965 23.6624 40.5342 23.3823 40.5331 23.0986V22.5904H28.4736V22.5969Z" fill="black"/>
<path d="M44.9372 47.2111H34.8517C33.3728 47.2111 32.1675 46.0058 32.1675 44.5268V32.4738C32.1675 30.9949 33.3728 29.7896 34.8517 29.7896H44.9372C45.719 29.7896 46.3575 30.428 46.3575 31.2099V45.7908C46.3575 46.5726 45.719 47.2111 44.9372 47.2111ZM34.8517 30.4215C34.3074 30.4215 33.7854 30.6377 33.4005 31.0226C33.0157 31.4075 32.7994 31.9295 32.7994 32.4738V44.5268C32.7994 45.0711 33.0157 45.5931 33.4005 45.978C33.7854 46.3629 34.3074 46.5791 34.8517 46.5791H44.9372C45.3737 46.5791 45.7255 46.2273 45.7255 45.7908V31.2099C45.7255 30.7733 45.3737 30.4215 44.9372 30.4215H34.8517Z" fill="black"/>
<path d="M36.1809 34.9365V37.1582H38.1485V39.1257H40.3767V37.1582H42.3442V34.9365H40.3767V32.9624H38.1485V34.9365H36.1809Z" fill="white"/>
<path d="M40.3768 39.4451H38.1486C38.0656 39.4451 37.9861 39.4122 37.9274 39.3535C37.8688 39.2949 37.8358 39.2153 37.8358 39.1324V37.4841H36.181C36.0981 37.4841 36.0185 37.4511 35.9599 37.3925C35.9012 37.3338 35.8683 37.2543 35.8683 37.1713V34.9432C35.8683 34.7672 36.0116 34.6304 36.181 34.6304H37.8358V32.9756C37.8358 32.7997 37.9792 32.6628 38.1486 32.6628H40.3768C40.5527 32.6628 40.6895 32.8062 40.6895 32.9756V34.6304H42.3378C42.5137 34.6304 42.6505 34.7738 42.6505 34.9432V37.1713C42.6505 37.3472 42.5072 37.4841 42.3378 37.4841H40.6895V39.1324C40.696 39.3018 40.5527 39.4451 40.3768 39.4451ZM38.4678 38.8132H40.064V37.1648C40.064 36.9889 40.2074 36.8521 40.3768 36.8521H42.0251V35.2559H40.3768C40.2938 35.2559 40.2143 35.2229 40.1556 35.1643C40.097 35.1056 40.064 35.0261 40.064 34.9432V33.2883H38.4678V34.9432C38.4678 35.1191 38.3245 35.2559 38.1551 35.2559H36.5002V36.8521H38.1551C38.331 36.8521 38.4678 36.9954 38.4678 37.1648V38.8132ZM42.8981 41.771H35.6272C35.5443 41.771 35.4647 41.7381 35.4061 41.6794C35.3474 41.6208 35.3145 41.5412 35.3145 41.4583C35.3145 41.3754 35.3474 41.2958 35.4061 41.2372C35.4647 41.1785 35.5443 41.1456 35.6272 41.1456H42.8981C42.9811 41.1456 43.0606 41.1785 43.1193 41.2372C43.1779 41.2958 43.2108 41.3754 43.2108 41.4583C43.2108 41.5412 43.1779 41.6208 43.1193 41.6794C43.0606 41.7381 42.9811 41.771 42.8981 41.771ZM40.4093 43.8494H38.4287C38.2528 43.8494 38.116 43.706 38.116 43.5366C38.116 43.3672 38.2593 43.2239 38.4287 43.2239H40.4093C40.5852 43.2239 40.7221 43.3672 40.7221 43.5366C40.7221 43.706 40.5787 43.8494 40.4093 43.8494ZM36.7543 43.8494H35.6337C35.4578 43.8494 35.321 43.706 35.321 43.5366C35.321 43.3672 35.4643 43.2239 35.6337 43.2239H36.7543C36.9302 43.2239 37.0671 43.3672 37.0671 43.5366C37.0671 43.706 36.9237 43.8494 36.7543 43.8494ZM29.4248 20.5642C29.3418 20.5642 29.2623 20.5313 29.2037 20.4726C29.145 20.414 29.1121 20.3344 29.1121 20.2515V18.6357C29.1121 18.4598 29.2554 18.323 29.4248 18.323C29.5942 18.323 29.7375 18.4663 29.7375 18.6357V20.245C29.7375 20.4209 29.5942 20.5642 29.4248 20.5642ZM31.9592 20.5642C31.8762 20.5642 31.7967 20.5313 31.7381 20.4726C31.6794 20.414 31.6465 20.3344 31.6465 20.2515V18.6357C31.6465 18.4598 31.7898 18.323 31.9592 18.323C32.1286 18.323 32.2719 18.4663 32.2719 18.6357V20.245C32.2784 20.4209 32.1351 20.5642 31.9592 20.5642ZM34.5001 20.5642C34.4172 20.5642 34.3376 20.5313 34.279 20.4726C34.2203 20.414 34.1874 20.3344 34.1874 20.2515V18.6357C34.1874 18.4598 34.3307 18.323 34.5001 18.323C34.6695 18.323 34.8128 18.4663 34.8128 18.6357V20.245C34.8128 20.4209 34.676 20.5642 34.5001 20.5642ZM37.041 20.5642C36.9581 20.5642 36.8785 20.5313 36.8199 20.4726C36.7612 20.414 36.7283 20.3344 36.7283 20.2515V18.6357C36.7283 18.5528 36.7612 18.4732 36.8199 18.4146C36.8785 18.3559 36.9581 18.323 37.041 18.323C37.1239 18.323 37.2035 18.3559 37.2621 18.4146C37.3208 18.4732 37.3537 18.5528 37.3537 18.6357V20.245C37.3537 20.4209 37.2169 20.5642 37.041 20.5642ZM39.5819 20.5642C39.499 20.5642 39.4194 20.5313 39.3608 20.4726C39.3021 20.414 39.2692 20.3344 39.2692 20.2515V18.6357C39.2692 18.4598 39.4125 18.323 39.5819 18.323C39.7513 18.323 39.8946 18.4663 39.8946 18.6357V20.245C39.8946 20.4209 39.7513 20.5642 39.5819 20.5642ZM54.7101 52.7165H54.5212C54.4382 52.7165 54.3587 52.6835 54.3 52.6249C54.2414 52.5662 54.2084 52.4867 54.2084 52.4038C54.2084 52.3208 54.2414 52.2413 54.3 52.1826C54.3587 52.124 54.4382 52.091 54.5212 52.091H54.7101C54.793 52.091 54.8726 52.124 54.9312 52.1826C54.9899 52.2413 55.0228 52.3208 55.0228 52.4038C55.0228 52.4867 54.9899 52.5662 54.9312 52.6249C54.8726 52.6835 54.793 52.7165 54.7101 52.7165ZM53.6416 52.7165H53.368C53.285 52.7165 53.2055 52.6835 53.1468 52.6249C53.0882 52.5662 53.0552 52.4867 53.0552 52.4038C53.0552 52.3208 53.0882 52.2413 53.1468 52.1826C53.2055 52.124 53.285 52.091 53.368 52.091H53.6416C53.7245 52.091 53.8041 52.124 53.8627 52.1826C53.9214 52.2413 53.9543 52.3208 53.9543 52.4038C53.9543 52.4867 53.9214 52.5662 53.8627 52.6249C53.8041 52.6835 53.7245 52.7165 53.6416 52.7165ZM52.3646 52.7165H49.2504C49.1675 52.7165 49.0879 52.6835 49.0293 52.6249C48.9706 52.5662 48.9377 52.4867 48.9377 52.4038C48.9377 52.3208 48.9706 52.2413 49.0293 52.1826C49.0879 52.124 49.1675 52.091 49.2504 52.091H52.3646C52.5405 52.091 52.6774 52.2344 52.6774 52.4038C52.6774 52.5797 52.5405 52.7165 52.3646 52.7165Z" fill="black"/>
<path d="M48.9571 52.7165H21.1374C21.0545 52.7165 20.9749 52.6836 20.9163 52.6249C20.8576 52.5663 20.8247 52.4867 20.8247 52.4038C20.8247 52.3209 20.8576 52.2413 20.9163 52.1827C20.9749 52.124 21.0545 52.0911 21.1374 52.0911H48.9571C49.133 52.0911 49.2698 52.2344 49.2698 52.4038C49.2698 52.5797 49.133 52.7165 48.9571 52.7165ZM19.5607 52.7165H15.9057C15.8228 52.7165 15.7433 52.6836 15.6846 52.6249C15.626 52.5663 15.593 52.4867 15.593 52.4038C15.593 52.3209 15.626 52.2413 15.6846 52.1827C15.7433 52.124 15.8228 52.0911 15.9057 52.0911H19.5607C19.7367 52.0911 19.8735 52.2344 19.8735 52.4038C19.8735 52.5797 19.7367 52.7165 19.5607 52.7165Z" fill="black"/>
<path d="M16.5117 52.7165H15.2347C15.1518 52.7165 15.0722 52.6836 15.0136 52.6249C14.9549 52.5663 14.922 52.4867 14.922 52.4038C14.922 52.3209 14.9549 52.2413 15.0136 52.1827C15.0722 52.124 15.1518 52.0911 15.2347 52.0911H16.5117C16.6876 52.0911 16.8244 52.2344 16.8244 52.4038C16.8244 52.5797 16.6876 52.7165 16.5117 52.7165ZM14.4008 52.7165H14.29C14.2071 52.7165 14.1275 52.6836 14.0689 52.6249C14.0102 52.5663 13.9773 52.4867 13.9773 52.4038C13.9773 52.3209 14.0102 52.2413 14.0689 52.1827C14.1275 52.124 14.2071 52.0911 14.29 52.0911H14.4008C14.5767 52.0911 14.7135 52.2344 14.7135 52.4038C14.7135 52.5797 14.5767 52.7165 14.4008 52.7165Z" fill="black"/>
<path d="M45.6084 45.0352L48.9051 48.3318L45.5172 51.7197C45.0801 52.1546 44.4887 52.3987 43.8721 52.3987C43.2556 52.3987 42.6641 52.1546 42.2271 51.7197C41.7897 51.2826 41.5437 50.6897 41.543 50.0714C41.543 49.4785 41.7645 48.8856 42.2205 48.4296L45.6084 45.0352Z" fill="#FFCA6B"/>
<path d="M45.6084 45.0349L48.9051 48.3316L52.2929 44.9437C52.7278 44.5067 52.9719 43.9152 52.9719 43.2986C52.9719 42.6821 52.7278 42.0906 52.2929 41.6536C51.8558 41.2162 51.263 40.9702 50.6446 40.9695C50.0517 40.9695 49.4589 41.191 49.0028 41.6471L45.6084 45.0349Z" fill="#00987F"/>
<path d="M43.8689 52.7164C43.1587 52.7164 42.4942 52.4428 41.999 51.9411C41.7526 51.6962 41.5571 51.4048 41.4241 51.0839C41.291 50.7629 41.2229 50.4187 41.2237 50.0713C41.2172 49.3676 41.4974 48.7031 41.9925 48.2014L45.3804 44.8135C45.5042 44.6898 45.7062 44.6898 45.83 44.8135L49.1266 48.1102C49.1853 48.1688 49.2178 48.247 49.2178 48.3317C49.2178 48.4164 49.1853 48.4946 49.1266 48.5532L45.7387 51.9411C45.2371 52.4428 44.579 52.7164 43.8689 52.7164ZM45.6084 45.4846L42.4421 48.651C42.0642 49.0288 41.8557 49.537 41.8557 50.0713C41.8557 50.612 42.0642 51.1202 42.4486 51.4981C42.8265 51.876 43.3347 52.091 43.8754 52.091C44.4097 52.091 44.9178 51.8825 45.2957 51.5046L48.4621 48.3382L45.6084 45.4846Z" fill="black"/>
<path d="M48.9049 48.6509C48.8202 48.6509 48.7421 48.6184 48.6834 48.5597L45.3868 45.2631C45.3273 45.2034 45.2939 45.1225 45.2939 45.0383C45.2939 44.954 45.3273 44.8732 45.3868 44.8135L48.7746 41.4256C49.2763 40.924 49.9343 40.6503 50.6445 40.6569C51.3481 40.6569 52.0127 40.9305 52.5143 41.4322C53.016 41.9338 53.2896 42.5984 53.2896 43.302C53.2896 44.0056 53.016 44.6702 52.5143 45.1719L49.1265 48.5597C49.0678 48.6184 48.9896 48.6509 48.9049 48.6509ZM46.0578 45.035L48.9049 47.8822L52.0713 44.7158C52.4492 44.3379 52.6577 43.8297 52.6577 43.2955C52.6577 42.7612 52.4492 42.2531 52.0648 41.8687C51.6869 41.4908 51.1787 41.2823 50.638 41.2823C50.0972 41.2823 49.5955 41.4908 49.2177 41.8687L46.0578 45.035Z" fill="black"/>
<path d="M45.2238 47.7453V52.4036H40.4287C39.1452 52.4036 38.1028 51.3612 38.1028 50.0712C38.1028 49.4327 38.3634 48.8463 38.7869 48.4229C39.2038 47.9994 39.7837 47.7388 40.4287 47.7388H45.2238V47.7453Z" fill="#FFCA6B"/>
<path d="M45.2239 47.7453V52.4036H50.019C51.3025 52.4036 52.3449 51.3612 52.3449 50.0712C52.3449 49.4327 52.0843 48.8464 51.6608 48.4229C51.4466 48.2052 51.1909 48.0326 50.909 47.9151C50.6271 47.7976 50.3245 47.7377 50.019 47.7388H45.2239V47.7453Z" fill="#00987F"/>
<path d="M50.2407 42.8916C50.3775 42.7548 50.5274 42.7288 50.6316 42.7288C50.7294 42.7288 50.8988 42.7483 51.0486 42.8982" fill="black"/>
<path d="M51.0486 43.2109C50.9704 43.2109 50.8857 43.1783 50.8271 43.1197C50.8038 43.0957 50.7759 43.0766 50.7452 43.0635C50.7144 43.0505 50.6813 43.0438 50.6479 43.0438C50.6145 43.0438 50.5814 43.0505 50.5506 43.0635C50.5198 43.0766 50.492 43.0957 50.4687 43.1197C50.4079 43.1728 50.3291 43.2009 50.2484 43.1982C50.1676 43.1955 50.0909 43.1622 50.0337 43.1051C49.9766 43.0479 49.9433 42.9712 49.9406 42.8905C49.9379 42.8097 49.966 42.7309 50.0192 42.6701C50.1821 42.5072 50.4036 42.416 50.6316 42.416C50.8792 42.416 51.1007 42.5072 51.2701 42.6766C51.3939 42.8004 51.3939 43.0024 51.2701 43.1262C51.2049 43.1783 51.1267 43.2109 51.0486 43.2109Z" fill="white"/>
<path d="M45.2241 52.71H40.4289C38.9695 52.71 37.7903 51.5242 37.7903 50.0648C37.7903 49.3612 38.0639 48.6966 38.5656 48.195C39.0607 47.6933 39.7253 47.4197 40.4289 47.4197H45.2241C45.4 47.4197 45.5368 47.563 45.5368 47.7324V52.3907C45.5368 52.5666 45.4 52.71 45.2241 52.71ZM40.4289 48.0516C39.8882 48.0516 39.3865 48.2601 39.0086 48.638C38.7268 48.9194 38.5347 49.2781 38.4566 49.6687C38.3785 50.0592 38.418 50.4642 38.57 50.8323C38.722 51.2005 38.9797 51.5153 39.3106 51.737C39.6415 51.9587 40.0306 52.0774 40.4289 52.078H44.9048V48.0516H40.4289Z" fill="black"/>
<path d="M50.019 52.7098H45.2239C45.1409 52.7098 45.0614 52.6769 45.0027 52.6182C44.9441 52.5596 44.9111 52.48 44.9111 52.3971V47.7388C44.9111 47.5628 45.0545 47.426 45.2239 47.426H50.019C50.7292 47.426 51.3937 47.6997 51.8889 48.2013C52.3905 48.703 52.6642 49.3675 52.6642 50.0712C52.6576 51.5241 51.4719 52.7098 50.019 52.7098ZM45.5366 52.0778H50.0125C51.1201 52.0778 52.0257 51.1722 52.0257 50.0647C52.0257 49.5239 51.8172 49.0222 51.4328 48.6378C51.0549 48.26 50.5533 48.045 50.0125 48.045H45.5366V52.0778Z" fill="black"/>
<path d="M29.7179 33.184V51.4459C29.7179 51.9671 29.2944 52.3906 28.7732 52.3906H16.3553C15.8341 52.3906 15.4106 51.9671 15.4106 51.4459V33.184C15.4106 32.6627 15.8341 32.2393 16.3553 32.2393H28.7667C29.2944 32.2393 29.7179 32.6627 29.7179 33.184Z" fill="#00987F"/>
<path d="M29.7179 36.4807V51.446C29.7179 51.9672 29.2944 52.3907 28.7732 52.3907H16.3553C15.8341 52.3907 15.4106 51.9672 15.4106 51.446C15.4106 51.446 29.7179 52.6578 29.7179 36.4807Z" fill="#46C0A7"/>
<path d="M28.7666 52.71H16.3552C15.6581 52.71 15.0913 52.1432 15.0913 51.4461V33.1841C15.0913 32.487 15.6581 31.9202 16.3552 31.9202H28.7666C29.4637 31.9202 30.0306 32.487 30.0306 33.1841V51.4461C30.0306 52.1432 29.4637 52.71 28.7666 52.71ZM16.3552 32.5521C16.1876 32.5521 16.0269 32.6187 15.9084 32.7372C15.7899 32.8558 15.7233 33.0165 15.7233 33.1841V51.4461C15.7233 51.7914 16.0034 52.078 16.3552 52.078H28.7666C29.1119 52.078 29.3986 51.7979 29.3986 51.4461V33.1841C29.3986 33.0165 29.332 32.8558 29.2135 32.7372C29.095 32.6187 28.9342 32.5521 28.7666 32.5521H16.3552Z" fill="black"/>
<path d="M21.4177 37.3929C21.4177 37.7903 21.2548 38.1487 21.0007 38.4093C20.7401 38.6699 20.3818 38.8262 19.9844 38.8262C19.6042 38.8262 19.2397 38.6752 18.9708 38.4064C18.702 38.1376 18.551 37.773 18.551 37.3929C18.5499 37.1086 18.6334 36.8304 18.7908 36.5936C18.9482 36.3568 19.1725 36.1722 19.4351 36.0633C19.6977 35.9543 19.9868 35.9259 20.2656 35.9817C20.5444 36.0375 20.8003 36.1749 21.0007 36.3765C21.2548 36.6371 21.4177 36.9955 21.4177 37.3929Z" fill="#F1F3F6"/>
<path d="M21.3654 37.3927C21.3654 37.7902 21.2025 38.1485 20.9484 38.4091C20.6878 38.6697 20.3295 38.8261 19.932 38.8261C19.3261 38.8261 18.8049 38.4482 18.5964 37.9205C18.7593 37.9856 18.9352 38.0247 19.1176 38.0247C19.5151 38.0247 19.8734 37.8618 20.134 37.6077C20.3946 37.3471 20.551 36.9888 20.551 36.5914C20.551 36.4024 20.5119 36.22 20.4467 36.0571C20.7168 36.161 20.949 36.3442 21.113 36.5826C21.277 36.821 21.3649 37.1034 21.3654 37.3927Z" fill="#D5DCE5"/>
<path d="M19.9777 39.1453C19.0134 39.1453 18.2251 38.357 18.2251 37.3927C18.2251 36.9236 18.4075 36.4806 18.7398 36.1548C19.0656 35.8226 19.5086 35.6401 19.9777 35.6401C20.4468 35.6401 20.8833 35.8226 21.2156 36.1548C21.5478 36.4871 21.7302 36.9236 21.7302 37.3927C21.7302 37.8553 21.5478 38.2983 21.2221 38.6306C20.8833 38.9629 20.4468 39.1453 19.9777 39.1453ZM19.9777 36.2656C19.678 36.2656 19.3978 36.3829 19.1828 36.5979C18.9678 36.8129 18.8571 37.093 18.8571 37.3927C18.8571 38.0117 19.3587 38.5133 19.9777 38.5133C20.2774 38.5133 20.5575 38.396 20.7725 38.1876C20.981 37.9726 21.0983 37.6924 21.0983 37.3927C21.0983 37.093 20.981 36.8129 20.7725 36.5979C20.564 36.3829 20.2774 36.2656 19.9777 36.2656Z" fill="black"/>
<path d="M26.5776 37.3928C26.5776 37.7902 26.4147 38.1486 26.1606 38.4092C25.9 38.6698 25.5417 38.8261 25.1443 38.8261C24.7641 38.8261 24.3996 38.6751 24.1308 38.4063C23.8619 38.1375 23.7109 37.7729 23.7109 37.3928C23.7109 37.0127 23.8619 36.6481 24.1308 36.3793C24.3996 36.1105 24.7641 35.9595 25.1443 35.9595C25.5244 35.9595 25.889 36.1105 26.1578 36.3793C26.4266 36.6481 26.5776 37.0127 26.5776 37.3928Z" fill="#F1F3F6"/>
<path d="M26.5841 37.3927C26.5841 37.7902 26.4212 38.1485 26.1672 38.4091C25.9065 38.6697 25.5482 38.8261 25.1508 38.8261C24.5449 38.8261 24.0237 38.4482 23.8152 37.9205C23.9781 37.9856 24.154 38.0247 24.3364 38.0247C24.7338 38.0247 25.0922 37.8618 25.3528 37.6077C25.6134 37.3471 25.7697 36.9888 25.7697 36.5914C25.7697 36.4024 25.7306 36.22 25.6655 36.0571C25.9355 36.161 26.1678 36.3442 26.3318 36.5826C26.4957 36.821 26.5837 37.1034 26.5841 37.3927Z" fill="#D5DCE5"/>
<path d="M25.1442 39.1453C24.1799 39.1453 23.3916 38.357 23.3916 37.3927C23.3916 36.9236 23.574 36.4806 23.9063 36.1548C24.2321 35.8226 24.6751 35.6401 25.1442 35.6401C25.6133 35.6401 26.0498 35.8226 26.3821 36.1548C26.7143 36.4871 26.8968 36.9236 26.8968 37.3927C26.8968 37.8553 26.7143 38.2983 26.3886 38.6306C26.0498 38.9629 25.6068 39.1453 25.1442 39.1453ZM25.1442 36.2656C24.8445 36.2656 24.5643 36.3829 24.3493 36.5979C24.1343 36.8129 24.0236 37.093 24.0236 37.3927C24.0236 38.0117 24.5252 38.5133 25.1442 38.5133C25.4439 38.5133 25.724 38.396 25.939 38.1876C26.1475 37.9726 26.2648 37.6924 26.2648 37.3927C26.2648 37.093 26.1475 36.8129 25.939 36.5979C25.8352 36.4925 25.7115 36.4088 25.575 36.3518C25.4386 36.2947 25.2921 36.2654 25.1442 36.2656Z" fill="black"/>
<path d="M21.4177 42.3183C21.4177 42.7158 21.2548 43.0741 21.0007 43.3347C20.7401 43.5953 20.3818 43.7517 19.9844 43.7517C19.6042 43.7517 19.2396 43.6007 18.9708 43.3319C18.702 43.0631 18.551 42.6985 18.551 42.3183C18.551 42.1301 18.5881 41.9437 18.6601 41.7698C18.7322 41.5959 18.8377 41.4379 18.9708 41.3048C19.1039 41.1717 19.2619 41.0661 19.4358 40.9941C19.6097 40.9221 19.7961 40.885 19.9844 40.885C20.1726 40.885 20.359 40.9221 20.5329 40.9941C20.7068 41.0661 20.8648 41.1717 20.9979 41.3048C21.131 41.4379 21.2366 41.5959 21.3086 41.7698C21.3806 41.9437 21.4177 42.1301 21.4177 42.3183Z" fill="#F1F3F6"/>
<path d="M21.3654 42.3183C21.3654 42.7157 21.2025 43.074 20.9484 43.3346C20.6878 43.5887 20.3295 43.7516 19.932 43.7516C19.3261 43.7516 18.8049 43.3737 18.5964 42.846C18.7593 42.9112 18.9352 42.9437 19.1176 42.9437C19.5151 42.9437 19.8734 42.7808 20.134 42.5268C20.3946 42.2662 20.551 41.9078 20.551 41.5104C20.551 41.3215 20.5184 41.1455 20.4467 40.9827C20.6292 41.0543 20.7986 41.1651 20.9354 41.3019C21.2025 41.5625 21.3654 41.9143 21.3654 42.3183Z" fill="#D5DCE5"/>
<path d="M19.9777 44.0708C19.0134 44.0708 18.2251 43.2825 18.2251 42.3182C18.2251 41.8492 18.4075 41.4061 18.7398 41.0804C19.0656 40.7481 19.5086 40.5657 19.9777 40.5657C20.4468 40.5657 20.8833 40.7481 21.2156 41.0804C21.5478 41.4126 21.7302 41.8492 21.7302 42.3182C21.7302 42.7808 21.5478 43.2239 21.2221 43.5561C20.8833 43.8884 20.4468 44.0708 19.9777 44.0708ZM19.9777 41.1911C19.678 41.1911 19.3978 41.3084 19.1828 41.5234C18.9678 41.7384 18.8571 42.0186 18.8571 42.3182C18.8571 42.9372 19.3587 43.4389 19.9777 43.4389C20.2774 43.4389 20.5575 43.3216 20.7725 43.1131C20.981 42.8981 21.0983 42.6179 21.0983 42.3182C21.0983 42.0186 20.981 41.7384 20.7725 41.5234C20.564 41.3084 20.2774 41.1911 19.9777 41.1911Z" fill="black"/>
<path d="M26.5776 42.3183C26.5776 42.7158 26.4147 43.0741 26.1606 43.3347C25.9 43.5953 25.5417 43.7517 25.1443 43.7517C24.7641 43.7517 24.3996 43.6007 24.1308 43.3319C23.8619 43.0631 23.7109 42.6985 23.7109 42.3183C23.7109 41.9382 23.8619 41.5736 24.1308 41.3048C24.3996 41.036 24.7641 40.885 25.1443 40.885C25.5244 40.885 25.889 41.036 26.1578 41.3048C26.4266 41.5736 26.5776 41.9382 26.5776 42.3183Z" fill="#F1F3F6"/>
<path d="M26.5841 42.3183C26.5841 42.7157 26.4212 43.074 26.1672 43.3346C25.9065 43.5887 25.5482 43.7516 25.1508 43.7516C24.5449 43.7516 24.0237 43.3737 23.8152 42.846C23.9781 42.9112 24.154 42.9437 24.3364 42.9437C24.7338 42.9437 25.0922 42.7808 25.3528 42.5268C25.6134 42.2662 25.7697 41.9078 25.7697 41.5104C25.7697 41.3215 25.7372 41.1455 25.6655 40.9827C25.8479 41.0543 26.0173 41.1651 26.1541 41.3019C26.4212 41.5625 26.5841 41.9143 26.5841 42.3183Z" fill="#D5DCE5"/>
<path d="M25.1442 44.0708C24.1799 44.0708 23.3916 43.2825 23.3916 42.3182C23.3916 41.8492 23.574 41.4061 23.9063 41.0804C24.2321 40.7481 24.6751 40.5657 25.1442 40.5657C25.6133 40.5657 26.0498 40.7481 26.3821 41.0804C26.7143 41.4126 26.8968 41.8492 26.8968 42.3182C26.8968 42.7808 26.7143 43.2239 26.3886 43.5561C26.0498 43.8884 25.6068 44.0708 25.1442 44.0708ZM25.1442 41.1911C24.8445 41.1911 24.5643 41.3084 24.3493 41.5234C24.1343 41.7384 24.0236 42.0186 24.0236 42.3182C24.0236 42.9372 24.5252 43.4389 25.1442 43.4389C25.4439 43.4389 25.724 43.3216 25.939 43.1131C26.1475 42.8981 26.2648 42.6179 26.2648 42.3182C26.2648 42.0186 26.1475 41.7384 25.939 41.5234C25.8352 41.418 25.7115 41.3344 25.575 41.2773C25.4386 41.2203 25.2921 41.191 25.1442 41.1911Z" fill="black"/>
<path d="M21.4177 47.2436C21.4177 47.6411 21.2548 47.9994 21.0007 48.26C20.7401 48.5206 20.3818 48.677 19.9844 48.677C19.6042 48.677 19.2396 48.526 18.9708 48.2572C18.702 47.9884 18.551 47.6238 18.551 47.2436C18.551 47.0554 18.5881 46.869 18.6601 46.6951C18.7322 46.5212 18.8377 46.3632 18.9708 46.2301C19.1039 46.097 19.2619 45.9914 19.4358 45.9194C19.6097 45.8474 19.7961 45.8103 19.9844 45.8103C20.1726 45.8103 20.359 45.8474 20.5329 45.9194C20.7068 45.9914 20.8648 46.097 20.9979 46.2301C21.131 46.3632 21.2366 46.5212 21.3086 46.6951C21.3806 46.869 21.4177 47.0554 21.4177 47.2436Z" fill="#F1F3F6"/>
<path d="M21.3654 47.2372C21.3654 47.6346 21.2025 47.993 20.9484 48.2536C20.6878 48.5142 20.3295 48.6706 19.932 48.6706C19.3261 48.6706 18.8049 48.2927 18.5964 47.7649C18.7593 47.8301 18.9352 47.8692 19.1176 47.8692C19.5151 47.8692 19.8734 47.7063 20.134 47.4522C20.3946 47.1916 20.551 46.8333 20.551 46.4359C20.551 46.2469 20.5184 46.0645 20.4467 45.9016C20.6292 45.9733 20.7986 46.084 20.9354 46.2209C21.2025 46.4815 21.3654 46.8398 21.3654 47.2372Z" fill="#D5DCE5"/>
<path d="M19.9777 48.9898C19.0134 48.9898 18.2251 48.2014 18.2251 47.2372C18.2251 46.7681 18.4075 46.3251 18.7398 45.9993C19.0656 45.667 19.5086 45.4846 19.9777 45.4846C20.4468 45.4846 20.8833 45.667 21.2156 45.9993C21.5478 46.3316 21.7302 46.7681 21.7302 47.2372C21.7302 47.6998 21.5478 48.1428 21.2221 48.4751C20.8833 48.8139 20.4468 48.9898 19.9777 48.9898ZM19.9777 46.1166C19.678 46.1166 19.3978 46.2339 19.1828 46.4489C18.9678 46.6639 18.8571 46.944 18.8571 47.2437C18.8571 47.8626 19.3587 48.3643 19.9777 48.3643C20.2774 48.3643 20.5575 48.247 20.7725 48.0386C20.981 47.8236 21.0983 47.5434 21.0983 47.2437C21.0983 46.944 20.981 46.6639 20.7725 46.4489C20.564 46.2339 20.2774 46.1166 19.9777 46.1166Z" fill="black"/>
<path d="M26.5776 47.2437C26.5776 47.6412 26.4147 47.9995 26.1606 48.2601C25.9 48.5207 25.5417 48.6771 25.1443 48.6771C24.7641 48.6771 24.3996 48.5261 24.1308 48.2572C23.862 47.9884 23.7109 47.6239 23.7109 47.2437C23.7098 46.9594 23.7933 46.6812 23.9507 46.4444C24.1081 46.2077 24.3324 46.0231 24.595 45.9141C24.8576 45.8052 25.1467 45.7768 25.4255 45.8325C25.7043 45.8883 25.9602 46.0258 26.1606 46.2274C26.4213 46.4815 26.5776 46.8398 26.5776 47.2437Z" fill="#F1F3F6"/>
<path d="M26.5841 47.2372C26.5841 47.6346 26.4212 47.993 26.1672 48.2536C25.9065 48.5142 25.5482 48.6706 25.1508 48.6706C24.5449 48.6706 24.0237 48.2927 23.8152 47.7649C23.9781 47.8301 24.154 47.8692 24.3364 47.8692C24.7338 47.8692 25.0922 47.7063 25.3528 47.4522C25.6134 47.1916 25.7697 46.8333 25.7697 46.4359C25.7697 46.2469 25.7372 46.0645 25.6655 45.9016C25.8479 45.9733 26.0173 46.084 26.1541 46.2209C26.4212 46.4815 26.5841 46.8398 26.5841 47.2372Z" fill="#D5DCE5"/>
<path d="M25.1442 48.9898C24.1799 48.9898 23.3916 48.2014 23.3916 47.2372C23.3916 46.7681 23.574 46.3251 23.9063 45.9993C24.2321 45.667 24.6751 45.4846 25.1442 45.4846C25.6133 45.4846 26.0498 45.667 26.3821 45.9993C26.7143 46.3316 26.8968 46.7681 26.8968 47.2372C26.8978 47.4676 26.8532 47.696 26.7655 47.9091C26.6777 48.1222 26.5487 48.3158 26.3857 48.4788C26.2228 48.6417 26.0292 48.7708 25.8161 48.8585C25.603 48.9462 25.3746 48.9908 25.1442 48.9898ZM25.1442 46.1166C24.8445 46.1166 24.5643 46.2339 24.3493 46.4489C24.1343 46.6639 24.0236 46.944 24.0236 47.2437C24.0236 47.8627 24.5252 48.3643 25.1442 48.3643C25.4439 48.3643 25.724 48.247 25.939 48.0386C26.1475 47.8236 26.2648 47.5434 26.2648 47.2437C26.2648 46.944 26.1475 46.6639 25.939 46.4489C25.8352 46.3435 25.7115 46.2598 25.575 46.2028C25.4386 46.1457 25.2921 46.1164 25.1442 46.1166Z" fill="black"/>
<path d="M23.1962 34.448H22.0495C21.9666 34.448 21.887 34.415 21.8284 34.3564C21.7697 34.2977 21.7368 34.2182 21.7368 34.1352C21.7368 34.0523 21.7697 33.9728 21.8284 33.9141C21.887 33.8555 21.9666 33.8225 22.0495 33.8225H23.1962C23.3721 33.8225 23.5089 33.9658 23.5089 34.1352C23.5154 34.3111 23.3721 34.448 23.1962 34.448ZM20.7465 34.448H17.5019C17.419 34.448 17.3395 34.415 17.2808 34.3564C17.2222 34.2977 17.1892 34.2182 17.1892 34.1352C17.1892 34.0523 17.2222 33.9728 17.2808 33.9141C17.3395 33.8555 17.419 33.8225 17.5019 33.8225H20.7465C20.9224 33.8225 21.0592 33.9658 21.0592 34.1352C21.0657 34.3111 20.9224 34.448 20.7465 34.448Z" fill="white"/>
<defs>
<linearGradient id="paint0_linear_2877_7735" x1="35" y1="0" x2="35" y2="70" gradientUnits="userSpaceOnUse">
<stop stop-color="white"/>
<stop offset="0.802671" stop-color="#FFDEC6"/>
<stop offset="1" stop-color="#FFB074"/>
</linearGradient>
</defs>
</svg>
