<svg width="24" height="25" viewBox="0 0 24 25" fill="none" xmlns="http://www.w3.org/2000/svg">
<path d="M22 6.7692C21.2483 7.0953 20.4534 7.31087 19.64 7.4092C20.4982 6.89652 21.1413 6.08999 21.45 5.1392C20.6436 5.61927 19.7608 5.9575 18.84 6.1392C18.2245 5.47178 17.405 5.0275 16.5098 4.87606C15.6147 4.72461 14.6945 4.87456 13.8938 5.30239C13.093 5.73022 12.4569 6.41173 12.0852 7.24004C11.7135 8.06835 11.6273 8.99659 11.84 9.8792C10.2094 9.79673 8.61444 9.37216 7.15865 8.63307C5.70287 7.89397 4.41885 6.8569 3.39 5.5892C3.02914 6.21937 2.83952 6.93303 2.84 7.6592C2.83872 8.33359 3.00422 8.99782 3.32176 9.59277C3.63929 10.1877 4.09902 10.6949 4.66 11.0692C4.00798 11.0515 3.36989 10.8765 2.8 10.5592V10.6092C2.80489 11.5541 3.13599 12.4683 3.73731 13.1972C4.33864 13.926 5.17326 14.4248 6.1 14.6092C5.74326 14.7178 5.37287 14.775 5 14.7792C4.74189 14.7762 4.48442 14.7528 4.23 14.7092C4.49391 15.522 5.00462 16.2323 5.69107 16.7414C6.37753 17.2504 7.20558 17.5328 8.06 17.5492C6.6172 18.6845 4.83588 19.3041 3 19.3092C2.66574 19.3103 2.33174 19.2903 2 19.2492C3.87443 20.4595 6.05881 21.1019 8.29 21.0992C9.82969 21.1152 11.3571 20.8242 12.7831 20.2433C14.2091 19.6623 15.505 18.8031 16.5952 17.7157C17.6854 16.6283 18.548 15.3346 19.1326 13.9101C19.7172 12.4856 20.012 10.9589 20 9.4192V8.8892C20.7847 8.30401 21.4615 7.58663 22 6.7692Z" fill="#00987F"/>
</svg>
