<svg width="137" height="46" viewBox="0 0 137 46" fill="none" xmlns="http://www.w3.org/2000/svg">
<path d="M125.937 0.000148598H10.9456C10.5264 0.000148598 10.1123 0.000148597 9.69423 0.00243471C9.34428 0.00472083 8.99712 0.011362 8.64382 0.0169516C7.87627 0.0259838 7.11052 0.0935093 6.35324 0.218941C5.59702 0.347104 4.86449 0.588727 4.18042 0.935639C3.4972 1.28549 2.87291 1.74007 2.33021 2.28292C1.78467 2.82423 1.32992 3.44992 0.98344 4.13592C0.636007 4.82055 0.395097 5.5542 0.269028 6.31152C0.141761 7.06789 0.0732778 7.83298 0.0641923 8.59992C0.0535848 8.95039 0.0524646 9.30201 0.046875 9.65252V36.0735C0.0524646 36.4284 0.0535848 36.7722 0.0641923 37.1272C0.0732806 37.8942 0.141764 38.6592 0.269028 39.4155C0.394749 40.1733 0.635674 40.9074 0.98344 41.5923C1.32976 42.276 1.78458 42.8992 2.33021 43.4375C2.87085 43.9828 3.49554 44.4377 4.18042 44.7848C4.86449 45.1327 5.59694 45.3757 6.35324 45.5059C7.11065 45.6303 7.87632 45.6978 8.64382 45.708C8.99712 45.7157 9.34428 45.7202 9.69423 45.7202C10.1123 45.7225 10.5264 45.7225 10.9456 45.7225H125.937C126.348 45.7225 126.766 45.7225 127.176 45.7202C127.525 45.7202 127.882 45.7157 128.23 45.708C128.996 45.6984 129.76 45.6308 130.516 45.5059C131.275 45.3748 132.01 45.1318 132.697 44.7848C133.382 44.4375 134.006 43.9826 134.546 43.4375C135.09 42.8971 135.546 42.2744 135.897 41.5923C136.242 40.9069 136.48 40.1729 136.604 39.4155C136.732 38.6591 136.803 37.8942 136.816 37.1272C136.821 36.7722 136.821 36.4284 136.821 36.0735C136.83 35.6582 136.83 35.2452 136.83 34.8232V10.9005C136.83 10.4819 136.83 10.0667 136.821 9.65252C136.821 9.30201 136.821 8.95039 136.816 8.59988C136.803 7.83287 136.732 7.06795 136.604 6.31148C136.48 5.55459 136.241 4.821 135.897 4.13587C135.191 2.76086 134.072 1.64161 132.697 0.935536C132.01 0.589472 131.275 0.347913 130.516 0.218838C129.761 0.0928538 128.996 0.0253048 128.23 0.0167915C127.882 0.0112134 127.525 0.00451508 127.176 0.00228612C126.766 0 126.348 0 125.937 0V0.000148598Z" fill="#A6A6A6"/>
<path d="M9.69897 44.722C9.35071 44.722 9.01085 44.7175 8.66532 44.7097C7.94952 44.7004 7.23538 44.6381 6.52878 44.5233C5.86991 44.4098 5.23165 44.1988 4.63503 43.897C4.04389 43.5978 3.50472 43.2054 3.03818 42.735C2.56489 42.2701 2.17085 41.7309 1.87168 41.1387C1.56921 40.5427 1.35989 39.9039 1.251 39.2444C1.13341 38.5359 1.06978 37.8194 1.06068 37.1012C1.05343 36.8601 1.04395 36.0575 1.04395 36.0575V9.6522C1.04395 9.6522 1.05405 8.86187 1.06074 8.62968C1.06945 7.91262 1.13271 7.19727 1.24995 6.4898C1.35904 5.82856 1.56853 5.18788 1.87115 4.58992C2.16922 3.99818 2.56107 3.45856 3.03152 2.99198C3.50143 2.52098 4.04233 2.1266 4.63447 1.82324C5.22971 1.52248 5.86678 1.31289 6.52431 1.20149C7.23324 1.08554 7.94985 1.02286 8.66813 1.01396L9.69954 1H127.17L128.214 1.01452C128.925 1.02297 129.636 1.0851 130.338 1.20037C131.002 1.31317 131.646 1.52422 132.248 1.82659C133.434 2.43795 134.399 3.40518 135.008 4.59271C135.306 5.18654 135.512 5.822 135.62 6.47752C135.739 7.19079 135.805 7.91177 135.819 8.63471C135.822 8.95843 135.822 9.30615 135.822 9.6522C135.831 10.0808 135.831 10.4888 135.831 10.9002V34.8229C135.831 35.2381 135.831 35.6434 135.822 36.0519C135.822 36.4236 135.822 36.7641 135.818 37.1146C135.804 37.8246 135.739 38.5327 135.622 39.2332C135.516 39.8974 135.307 40.5413 135.005 41.1421C134.704 41.7279 134.312 42.2624 133.844 42.7261C133.377 43.1991 132.837 43.5937 132.245 43.8949C131.644 44.1989 131.001 44.4108 130.338 44.5233C129.631 44.6387 128.917 44.701 128.201 44.7097C127.867 44.7175 127.516 44.722 127.176 44.722L125.936 44.7243L9.69897 44.722Z" fill="black"/>
<path fill-rule="evenodd" clip-rule="evenodd" d="M85.4107 33.2338C83.5421 33.2338 82.1747 32.3096 82.0173 30.902L79.8428 30.9019C79.9801 33.4693 82.1054 35.0935 85.2533 35.0935C88.6177 35.0935 90.7331 33.4303 90.7331 30.7747C90.7331 28.6984 89.523 27.5286 86.6107 26.8398L85.0468 26.4558C83.2172 26.0038 82.4693 25.4133 82.4693 24.4097C82.4693 23.1506 83.6403 22.2855 85.3515 22.2855C87.0628 22.2855 88.2337 23.1405 88.3621 24.5571H90.5065C90.4373 22.108 88.3811 20.4258 85.3817 20.4258C82.351 20.4258 80.2167 22.108 80.2167 24.5571C80.2167 26.5351 81.4268 27.7541 84.0333 28.3837L85.8729 28.8268C87.7125 29.2789 88.4894 29.9386 88.4894 31.0404C88.4894 32.3096 87.2012 33.2338 85.4107 33.2338ZM48.402 31.0219H42.9914L41.6921 34.8586H39.4004L44.5252 20.6641H46.9062L52.031 34.8586H49.7002L48.402 31.0219ZM43.5506 29.2499H47.8393L45.7251 23.0234H45.666L43.5506 29.2499ZM58.7792 34.9658C61.3767 34.9658 63.098 32.8996 63.098 29.6837C63.098 26.4766 61.3666 24.4004 58.7401 24.4004C57.3886 24.3568 56.1225 25.0597 55.4449 26.2299H55.4058V24.5086H53.3496V38.2811H55.4739V33.1552H55.523C56.1718 34.3328 57.4365 35.0361 58.7792 34.9658ZM60.9135 29.6837C60.9135 27.5884 59.8307 26.2109 58.1786 26.2109C56.5556 26.2109 55.4639 27.6174 55.4639 29.6837C55.4639 31.7688 56.5556 33.1653 58.1786 33.1653C59.8307 33.1653 60.9135 31.7979 60.9135 29.6837ZM70.1698 34.9658C72.7673 34.9658 74.4886 32.8996 74.4886 29.6836C74.4886 26.4766 72.7573 24.4004 70.1307 24.4004C68.7792 24.3568 67.5131 25.0597 66.8355 26.2299H66.7964V24.5086H64.7402V38.2811H66.8645V33.1552H66.9136C67.5624 34.3328 68.8271 35.0361 70.1698 34.9658ZM72.3041 29.6837C72.3041 27.5884 71.2213 26.2109 69.5693 26.2109C67.9462 26.2109 66.8545 27.6174 66.8545 29.6837C66.8545 31.7688 67.9462 33.1653 69.5693 33.1653C71.2213 33.1653 72.3041 31.7979 72.3041 29.6837ZM95.3158 22.0586V24.5077H97.2838V26.1899H95.3158V31.8951C95.3158 32.7815 95.7098 33.1945 96.5749 33.1945C96.8086 33.1904 97.0418 33.174 97.2737 33.1453V34.8175C96.8848 34.8902 96.4894 34.9231 96.0938 34.9157C93.9986 34.9157 93.1815 34.1288 93.1815 32.1217V26.1899H91.6768V24.5077H93.1815V22.0586H95.3158ZM103.334 24.3789C100.344 24.3789 98.4258 26.425 98.4258 29.6812C98.4258 32.9463 100.325 34.9834 103.334 34.9834C106.345 34.9834 108.243 32.9463 108.243 29.6812C108.243 26.425 106.335 24.3789 103.334 24.3789ZM106.079 29.6848C106.079 27.4511 105.055 26.1328 103.334 26.1328C101.612 26.1328 100.59 27.4612 100.59 29.6848C100.59 31.9274 101.612 33.2356 103.334 33.2356C105.055 33.2356 106.078 31.9274 106.079 29.6848ZM112.02 24.5085H109.994L109.994 34.8575H112.118V28.7191C112.048 28.0981 112.252 27.4772 112.677 27.0194C113.103 26.5617 113.707 26.3128 114.332 26.3381C114.655 26.3287 114.977 26.372 115.286 26.4665V24.4795C115.048 24.426 114.803 24.3994 114.559 24.4003C113.391 24.3557 112.352 25.1361 112.069 26.27H112.02V24.5085ZM125.08 31.8155C124.795 33.6942 122.965 34.9834 120.624 34.9834C117.614 34.9834 115.745 32.9663 115.745 29.7303C115.745 26.4842 117.624 24.3789 120.535 24.3789C123.398 24.3789 125.199 26.3458 125.199 29.4836V30.2114H117.889V30.3398C117.821 31.1102 118.087 31.8729 118.62 32.4337C119.153 32.9946 119.9 33.2995 120.673 33.2711C121.704 33.3677 122.676 32.7757 123.063 31.8155L125.08 31.8155ZM123.074 28.7287H117.9C117.899 28.03 118.176 27.3595 118.671 26.8663C119.166 26.3731 119.837 26.098 120.536 26.1021C121.229 26.0872 121.897 26.3622 122.379 26.8608C122.861 27.3594 123.113 28.0364 123.074 28.7287Z" fill="white"/>
<path fill-rule="evenodd" clip-rule="evenodd" d="M67.5976 9.64453H68.6134V16.8009H67.5976V9.64453ZM45.6936 10.9154C45.072 10.2589 44.1887 9.9158 43.2868 9.98052H40.8232V16.801H43.2868C45.3185 16.801 46.4961 15.5485 46.4961 13.3695C46.6098 12.4726 46.3153 11.5719 45.6936 10.9154ZM43.1687 15.8368H41.8827V10.9447H43.1687C43.8097 10.9091 44.4331 11.1619 44.8684 11.6339C45.3036 12.1059 45.5052 12.7477 45.4179 13.3838C45.512 14.0225 45.3134 14.6696 44.877 15.1455C44.4407 15.6214 43.8131 15.8753 43.1687 15.8368ZM47.6921 14.2253C47.6038 13.3027 48.0462 12.4099 48.8337 11.9212C49.6212 11.4325 50.6176 11.4325 51.4051 11.9212C52.1926 12.4099 52.635 13.3027 52.5467 14.2253C52.6367 15.1489 52.1947 16.0435 51.4065 16.5332C50.6183 17.0229 49.6205 17.0229 48.8323 16.5332C48.0441 16.0435 47.6021 15.1489 47.6921 14.2253ZM50.1227 12.457C51.0023 12.457 51.5035 13.1095 51.5035 14.2252H51.5036C51.5036 15.3454 51.0024 15.9973 50.1227 15.9973C49.2398 15.9973 48.7431 15.3498 48.7431 14.2252C48.7431 13.1095 49.2398 12.457 50.1227 12.457ZM59.0019 16.7995H57.9481L56.8843 13.0086H56.804L55.7446 16.7995H54.7009L53.2821 11.6523H54.3124L55.2345 15.5799H55.3104L56.3686 11.6523H57.3431L58.4013 15.5799H58.4817L59.3993 11.6523H60.4151L59.0019 16.7995ZM62.5842 11.6552H61.6064L61.6063 16.8023H62.6221V13.7912C62.5857 13.4487 62.7007 13.1073 62.9369 12.8566C63.1731 12.6059 63.5071 12.4708 63.8512 12.4869C64.6024 12.4869 64.9619 12.8982 64.9619 13.7254V16.8023H65.9777V13.4703C66.0521 12.967 65.8937 12.4572 65.5471 12.0848C65.2005 11.7123 64.7034 11.5177 64.1961 11.5559C63.5409 11.5026 62.9241 11.8709 62.6601 12.4729H62.5842V11.6552ZM71.1669 11.9212C70.3793 12.4099 69.9369 13.3028 70.0251 14.2254C69.9352 15.149 70.3773 16.0436 71.1655 16.5333C71.9538 17.023 72.9516 17.023 73.7398 16.5333C74.528 16.0436 74.9701 15.149 74.8803 14.2254C74.9685 13.3028 74.526 12.4099 73.7385 11.9212C72.9509 11.4325 71.9544 11.4325 71.1669 11.9212ZM73.8336 14.2251C73.8336 13.1094 73.3324 12.4569 72.4528 12.4569C71.5699 12.4569 71.0731 13.1094 71.0731 14.2251C71.0731 15.3498 71.5699 15.9972 72.4528 15.9972C73.3324 15.9972 73.8336 15.3453 73.8336 14.2251ZM77.8635 13.809C76.639 13.8849 75.9491 14.419 75.9491 15.3455C75.9508 15.7848 76.1383 16.2029 76.4652 16.4964C76.7921 16.7899 77.2279 16.9314 77.6648 16.8859C78.2881 16.9148 78.8787 16.606 79.2109 16.0778H79.2912V16.8011H80.2691V13.2843C80.2691 12.1971 79.5413 11.5547 78.2509 11.5547C77.0833 11.5547 76.2516 12.1217 76.1478 13.0058H77.1312C77.244 12.6419 77.6369 12.4337 78.204 12.4337C78.8983 12.4337 79.2577 12.7407 79.2577 13.2843V13.7286L77.8635 13.809ZM79.2569 14.9069V14.4766L77.9999 14.5569C77.2911 14.6044 76.9696 14.8455 76.9696 15.2992C76.9696 15.7625 77.3715 16.0321 77.9241 16.0321C78.2512 16.0652 78.5778 15.9641 78.829 15.752C79.0802 15.5399 79.2346 15.2349 79.2569 14.9069ZM83.74 11.5684C82.4395 11.5684 81.6034 12.5988 81.6034 14.2252C81.6034 15.8555 82.4306 16.8858 83.74 16.8857C84.4038 16.9102 85.0264 16.5643 85.3563 15.9877H85.4367V16.8009H86.4101V9.64453H85.3943V12.4715H85.3184C85.0116 11.89 84.3966 11.5382 83.74 11.5684ZM82.6523 14.2246C82.6523 15.3163 83.1669 15.9733 84.0275 15.9733C84.8837 15.9733 85.4128 15.3069 85.4128 14.2291C85.4128 13.1564 84.8781 12.4805 84.0275 12.4805C83.1724 12.4805 82.6522 13.1419 82.6522 14.2246H82.6523ZM91.7546 11.9212C90.9671 12.4099 90.5247 13.3027 90.613 14.2253C90.523 15.1489 90.965 16.0435 91.7532 16.5332C92.5414 17.0229 93.5392 17.0229 94.3274 16.5332C95.1156 16.0435 95.5576 15.1489 95.4676 14.2253C95.5559 13.3027 95.1135 12.4099 94.326 11.9212C93.5385 11.4325 92.5421 11.4325 91.7546 11.9212ZM94.4244 14.2252C94.4244 13.1095 93.9232 12.457 93.0436 12.457C92.1607 12.457 91.664 13.1095 91.664 14.2252C91.664 15.3498 92.1607 15.9973 93.0436 15.9973C93.9233 15.9973 94.4244 15.3454 94.4244 14.2252ZM97.8078 11.6552H96.83V16.8023H97.8458V13.7912C97.8093 13.4487 97.9243 13.1073 98.1605 12.8566C98.3968 12.6059 98.7307 12.4708 99.0748 12.4869C99.826 12.4869 100.185 12.8982 100.185 13.7254V16.8023H101.201V13.4703C101.276 12.967 101.117 12.4572 100.771 12.0848C100.424 11.7123 99.927 11.5177 99.4197 11.5559C98.7645 11.5026 98.1477 11.8709 97.8837 12.4729H97.8078V11.6552ZM106.943 10.3711V11.676H108.058V12.5316H106.943V15.1783C106.943 15.7175 107.165 15.9535 107.671 15.9535C107.801 15.9531 107.93 15.9453 108.058 15.9301V16.7762C107.876 16.8089 107.691 16.8262 107.506 16.8281C106.376 16.8281 105.926 16.4307 105.926 15.4384V12.5316H105.109V11.676H105.926V10.3711H106.943ZM110.453 9.64453H109.446L109.446 16.8009H110.462V13.7948C110.431 13.4416 110.557 13.0926 110.807 12.841C111.056 12.5894 111.405 12.4609 111.758 12.4899C112.476 12.4899 112.859 12.9063 112.859 13.7284V16.8009H113.875V13.4778C113.943 12.9771 113.783 12.4725 113.44 12.1015C113.098 11.7304 112.607 11.5315 112.103 11.5589C111.438 11.505 110.81 11.8737 110.533 12.481H110.453V9.64453ZM119.797 15.4115C119.512 16.3824 118.572 17.0097 117.567 16.9006C116.88 16.9187 116.221 16.6342 115.763 16.1226C115.305 15.611 115.095 14.924 115.189 14.2439C115.097 13.5618 115.307 12.8737 115.762 12.3578C116.217 11.8419 116.874 11.5489 117.562 11.5548C118.994 11.5548 119.858 12.5332 119.858 14.1495V14.504H116.224V14.5609C116.191 14.9428 116.322 15.3206 116.583 15.6013C116.844 15.8821 117.211 16.0397 117.594 16.0354C118.091 16.0951 118.575 15.8486 118.819 15.4114L119.797 15.4115ZM118.824 13.7517H116.225C116.22 13.3967 116.359 13.055 116.61 12.804C116.861 12.5529 117.202 12.4138 117.557 12.4183C117.908 12.4103 118.245 12.5505 118.486 12.8044C118.727 13.0583 118.85 13.4024 118.824 13.7517Z" fill="white"/>
<path fill-rule="evenodd" clip-rule="evenodd" d="M26.5101 9.96875C26.6208 11.4138 26.1638 12.8452 25.2362 13.9587C24.3362 15.0781 22.9726 15.7228 21.5364 15.708C21.445 14.3046 21.9153 12.9223 22.8437 11.8658C23.7838 10.7949 25.0929 10.1176 26.5101 9.96875ZM31.0522 18.4597C29.4001 19.4754 28.3835 21.2666 28.3585 23.2058C28.3609 25.3997 29.6747 27.3796 31.6954 28.2343C31.3068 29.4967 30.721 30.6897 29.9597 31.7692C28.9374 33.2985 27.8655 34.7925 26.1642 34.8202C25.3551 34.8388 24.8089 34.6062 24.2398 34.3637C23.6461 34.1108 23.0275 33.8473 22.0595 33.8473C21.0329 33.8473 20.3865 34.1193 19.7632 34.3816C19.2245 34.6084 18.703 34.8278 17.968 34.8583C16.3478 34.9183 15.1095 33.2261 14.05 31.7111C11.9324 28.6173 10.2834 22.9923 12.4941 19.1648C13.5322 17.2994 15.4732 16.1157 17.6069 16.0467C18.5258 16.0278 19.4076 16.382 20.1807 16.6925C20.7719 16.93 21.2996 17.1419 21.7316 17.1419C22.1115 17.1419 22.6244 16.9384 23.2222 16.7011C24.1638 16.3274 25.316 15.8701 26.4901 15.9934C28.3145 16.0504 30.0052 16.9645 31.0522 18.4597Z" fill="white"/>
</svg>
