<svg width="70" height="70" viewBox="0 0 70 70" fill="none" xmlns="http://www.w3.org/2000/svg">
<rect x="0.5" y="0.5" width="69" height="69" rx="34.5" fill="url(#paint0_linear_2877_7824)" stroke="white"/>
<g clip-path="url(#clip0_2877_7824)">
<path d="M45.57 14.7292C49.3448 14.7319 52.6937 17.1521 53.8805 20.7358C55.0673 24.3193 53.825 28.2601 50.7979 30.5153C47.7711 32.7705 43.6395 32.8334 40.5456 30.6706C37.4513 28.5082 36.0903 24.607 37.1678 20.9892C38.2764 17.2745 41.6931 14.7287 45.57 14.7293L45.57 14.7292Z" fill="#00987F"/>
<path d="M44.3932 47.8545V47.8636C44.3909 50.374 42.3553 52.408 39.8449 52.408H39.8306C39.7258 52.408 39.6213 52.4039 39.5182 52.3973C37.133 52.2309 35.2835 50.2459 35.2861 47.8545V44.9126H20.0415V44.8728L20.2023 20.9849H37.1553L37.1677 20.9891C36.8066 22.2023 36.7124 23.4793 36.8915 24.7324C37.0706 25.9855 37.5188 27.185 38.2052 28.2485C38.8917 29.3121 39.8002 30.2144 40.8683 30.8937C41.9365 31.5729 43.139 32.013 44.3932 32.1836V47.8545ZM26.4025 29.3579C27.2095 29.3579 27.8637 28.7335 27.8637 27.9639C27.8637 27.1942 27.2094 26.5689 26.4025 26.5689C25.5952 26.5689 24.9403 27.1936 24.9403 27.9639C24.9403 28.7345 25.5946 29.3579 26.4025 29.3579ZM26.4025 35.1323C27.2095 35.1323 27.8637 34.5079 27.8637 33.7373C27.8637 32.9668 27.2094 32.3432 26.4025 32.3432C25.5952 32.3432 24.9403 32.9676 24.9403 33.7373C24.9403 34.507 25.5946 35.1323 26.4025 35.1323ZM26.4025 40.9054C27.2095 40.9054 27.8637 40.282 27.8637 39.5113C27.8637 38.7405 27.2094 38.1173 26.4025 38.1173C25.5952 38.1173 24.9403 38.7416 24.9403 39.5113C24.9403 40.281 25.5946 40.9054 26.4025 40.9054Z" fill="#FCD424"/>
<path d="M39.5182 52.3973L39.5175 52.408H19.2299C16.7195 52.408 14.6839 50.374 14.6816 47.8636V44.9126H35.2861V47.8545C35.2836 50.2458 37.133 52.2309 39.5183 52.3973H39.5182Z" fill="#00987F"/>
<path d="M27.8641 27.9638C27.8641 28.7335 27.2098 29.3579 26.4029 29.3579C25.5956 29.3579 24.9407 28.7335 24.9407 27.9638C24.9407 27.1941 25.595 26.5688 26.4029 26.5688C27.2108 26.5688 27.8641 27.1935 27.8641 27.9638ZM27.8641 33.7372C27.8641 34.5078 27.2098 35.1322 26.4029 35.1322C25.5956 35.1322 24.9407 34.5078 24.9407 33.7372C24.9407 32.9667 25.595 32.3431 26.4029 32.3431C27.2108 32.3431 27.8641 32.9675 27.8641 33.7372ZM27.8641 39.5113C27.8641 40.2818 27.2098 40.9053 26.4029 40.9053C25.5956 40.9053 24.9407 40.2819 24.9407 39.5112C24.9407 38.7405 25.595 38.1172 26.4029 38.1172C27.2108 38.1172 27.8641 38.7416 27.8641 39.5113Z" fill="#FEDB41"/>
<path d="M45.453 19.8638C45.4586 19.8638 45.4641 19.8648 45.4696 19.8648C45.4943 19.8648 45.5189 19.8631 45.5435 19.8602C46.3581 19.8677 47.0144 20.5295 47.0158 21.3435C47.0158 21.5197 47.0858 21.6887 47.2103 21.8132C47.3349 21.9378 47.5039 22.0078 47.68 22.0078C47.8562 22.0078 48.0252 21.9378 48.1497 21.8132C48.2743 21.6887 48.3443 21.5197 48.3443 21.3435C48.3424 20.0231 47.4235 18.8811 46.1339 18.597V17.9582C46.1339 17.782 46.0639 17.6131 45.9393 17.4885C45.8147 17.3639 45.6458 17.2939 45.4696 17.2939C45.2934 17.2939 45.1245 17.3639 44.9999 17.4885C44.8753 17.6131 44.8054 17.782 44.8054 17.9582V18.6258C43.4418 18.991 42.5599 20.3097 42.7438 21.7093C42.9277 23.1089 44.1203 24.1555 45.5319 24.1559C46.3515 24.1559 47.0158 24.8201 47.0158 25.6398C47.0158 26.459 46.3515 27.1233 45.5319 27.1233C44.7123 27.1233 44.048 26.459 44.048 25.6398C44.048 25.2726 43.7506 24.9755 43.3837 24.9755C43.0169 24.9755 42.7195 25.2726 42.7195 25.6398C42.7211 26.9125 43.5761 28.026 44.8054 28.3565V29.0847C44.8054 29.2609 44.8753 29.4298 44.9999 29.5544C45.1245 29.679 45.2934 29.749 45.4696 29.749C45.6458 29.749 45.8147 29.679 45.9393 29.5544C46.0639 29.4298 46.1339 29.2609 46.1339 29.0847V28.3864C47.5367 28.0792 48.4829 26.7643 48.3281 25.3368C48.1734 23.909 46.968 22.827 45.5319 22.8273C44.7275 22.8287 44.0688 22.1884 44.0473 21.3843C44.0259 20.5802 44.6493 19.9056 45.4528 19.8637L45.453 19.8638Z" fill="white"/>
<path d="M45.57 14.0649C43.5184 14.052 41.5197 14.7157 39.8834 15.9533C38.4336 17.0682 37.3269 18.5688 36.6902 20.2833H20.2026C19.8374 20.2833 19.5409 20.6125 19.5383 20.9778L19.3817 44.2797H14.6818C14.3149 44.2797 14 44.5454 14 44.9125V47.8641C14 50.6565 16.2419 52.9418 18.982 53.0664V53.0813H39.4911V53.0621C39.6572 53.0686 39.7317 53.0812 39.8307 53.0812H39.845C42.7219 53.0737 45.0514 50.7408 45.0543 47.8634V32.9117C45.2204 32.9208 45.3975 32.9266 45.5684 32.9266C50.7768 32.9273 54.9994 28.7052 55.0001 23.4966C55.0005 18.2882 50.7784 14.0655 45.5701 14.0649H45.57ZM15.3286 47.8636V45.6084H34.5922V47.8539C34.5922 49.389 35.2925 50.7565 36.3652 51.7529H19.2302C17.0823 51.748 15.3406 50.0115 15.3286 47.8636ZM39.8399 51.7529H39.8308C39.7478 51.7529 39.645 51.7454 39.5493 51.7392C37.5107 51.591 35.9299 49.8986 35.9208 47.8545V44.9127C35.9235 44.8288 35.9089 44.7452 35.878 44.6671C35.8471 44.589 35.8005 44.518 35.7411 44.4587C35.6816 44.3993 35.6105 44.3529 35.5323 44.3221C35.454 44.2914 35.3703 44.277 35.2863 44.2799H20.7102L20.8623 21.6119H36.322C36.2033 22.2337 36.1422 22.865 36.1393 23.498C36.1393 24.8431 36.4268 26.0957 36.9457 27.3412H30.6664C30.4902 27.3412 30.3212 27.4112 30.1967 27.5357C30.0721 27.6603 30.0021 27.8293 30.0021 28.0054C30.0021 28.1816 30.0721 28.3506 30.1967 28.4752C30.3212 28.5997 30.4902 28.6697 30.6664 28.6697H37.667C38.351 29.7216 39.2401 30.6247 40.2812 31.3251C41.3222 32.0255 42.4938 32.5088 43.7259 32.746V47.8629C43.7236 50.0088 41.9858 51.7483 39.8399 51.7528V51.7529ZM45.57 31.5983C45.2064 31.5986 44.8432 31.5743 44.4829 31.5256H44.4819C40.483 30.9895 37.4676 27.5375 37.4676 23.4963C37.4676 19.0214 41.0951 15.3939 45.5701 15.3939C50.0448 15.3939 53.6723 19.0214 53.6723 23.4964C53.6723 27.9711 50.0448 31.5986 45.5701 31.5986L45.57 31.5983Z" fill="#051826"/>
<path d="M26.4028 31.6789C25.23 31.6789 24.2764 32.6024 24.2764 33.7373C24.2764 34.8722 25.23 35.7965 26.4028 35.7965C27.5753 35.7965 28.5283 34.8728 28.5283 33.7373C28.5283 32.6018 27.5747 31.6789 26.4028 31.6789ZM26.4028 34.468C25.9628 34.468 25.6049 34.1401 25.6049 33.7373C25.6049 33.3345 25.9628 33.0074 26.4028 33.0074C26.8427 33.0074 27.1998 33.3347 27.1998 33.7373C27.1998 34.1398 26.8423 34.468 26.4028 34.468ZM39.522 33.0704H30.6665C30.4903 33.0704 30.3214 33.1404 30.1968 33.2649C30.0722 33.3895 30.0022 33.5585 30.0022 33.7346C30.0022 33.9108 30.0722 34.0798 30.1968 34.2043C30.3214 34.3289 30.4903 34.3989 30.6665 34.3989H39.522C39.6981 34.3989 39.8671 34.3289 39.9917 34.2043C40.1162 34.0798 40.1862 33.9108 40.1862 33.7346C40.1862 33.5585 40.1162 33.3895 39.9917 33.2649C39.8671 33.1404 39.6981 33.0704 39.522 33.0704H39.522ZM26.4028 25.9045C25.23 25.9045 24.2764 26.8283 24.2764 27.9638C24.2764 29.0994 25.23 30.0222 26.4028 30.0222C27.5753 30.0222 28.5283 29.0991 28.5283 27.9638C28.5283 26.8289 27.5747 25.9046 26.4028 25.9046V25.9045ZM26.4028 28.6936C25.9628 28.6936 25.6049 28.3664 25.6049 27.9638C25.6049 27.5613 25.9628 27.2332 26.4028 27.2332C26.8427 27.2332 27.1998 27.561 27.1998 27.9638C27.1998 28.3666 26.8423 28.6936 26.4028 28.6936ZM26.4028 37.453C25.23 37.453 24.2764 38.3763 24.2764 39.5113C24.2764 40.6465 25.23 41.5696 26.4028 41.5696C27.5753 41.5696 28.5283 40.6462 28.5283 39.5112C28.5283 38.3764 27.5747 37.453 26.4028 37.453ZM26.4028 40.2411C25.9628 40.2411 25.6049 39.9138 25.6049 39.5112C25.6049 39.1088 25.9628 38.7815 26.4028 38.7815C26.8427 38.7815 27.1998 39.1087 27.1998 39.5113C27.1998 39.9138 26.8423 40.2411 26.4028 40.2411ZM39.522 38.8827H30.6665C30.4903 38.8827 30.3214 38.9527 30.1968 39.0772C30.0722 39.2018 30.0022 39.3708 30.0022 39.5469C30.0022 39.7231 30.0722 39.8921 30.1968 40.0166C30.3214 40.1412 30.4903 40.2112 30.6665 40.2112H39.522C39.6981 40.2112 39.8671 40.1412 39.9917 40.0166C40.1162 39.8921 40.1862 39.7231 40.1862 39.5469C40.1862 39.3708 40.1162 39.2018 39.9917 39.0772C39.8671 38.9527 39.6981 38.8827 39.522 38.8827H39.522Z" fill="#051826"/>
</g>
<defs>
<linearGradient id="paint0_linear_2877_7824" x1="35" y1="0" x2="35" y2="70" gradientUnits="userSpaceOnUse">
<stop stop-color="white"/>
<stop offset="0.802671" stop-color="#FFED9D"/>
<stop offset="1" stop-color="#FFDC40"/>
</linearGradient>
<clipPath id="clip0_2877_7824">
<rect width="41" height="41" fill="white" transform="translate(14 14)"/>
</clipPath>
</defs>
</svg>
