<svg width="70" height="70" viewBox="0 0 70 70" fill="none" xmlns="http://www.w3.org/2000/svg">
<rect x="0.5" y="0.5" width="69" height="69" rx="34.5" fill="url(#paint0_linear_2877_7881)" stroke="white"/>
<path d="M49.8435 28.7723C48.8534 28.9118 46.0636 29.2812 45.1081 29.4006C44.8131 29.4392 44.5196 29.4885 44.2282 29.5483L31.3228 32.5151C31.7648 33.4354 32.0536 36.6049 32.0467 36.6707L44.8064 31.2073C44.8064 31.2073 45.562 31.4501 46.1724 31.5997C47.6953 31.973 47.6697 31.5672 47.6766 30.9024C47.6766 30.9024 49.4935 30.0696 50.2125 29.6561C50.6184 29.4608 50.5786 28.6977 49.8442 28.7723H49.8435Z" fill="#FFD0C8"/>
<path d="M30.7906 32.1159C29.6421 32.4235 18.8795 34.5473 18.8795 34.5473C18.8795 34.5473 14.9174 36.1682 13.7671 38.345C13.5731 38.7134 13.5264 39.1834 13.5264 39.5719C13.5418 40.5991 14.9394 44.3938 15.2509 44.4718C15.4042 44.5102 15.6972 44.4596 15.9104 44.4356L16.1541 50.5854C16.2176 52.1563 17.5309 52.4747 18.3901 52.4747H25.0681C26.9206 52.4747 27.2196 51.5448 27.4334 50.7469C28.0452 46.8147 28.2948 42.9946 27.8814 39.6689C28.7928 39.1377 31.114 37.7842 31.6952 37.4487C32.0708 37.2316 32.2593 37.2392 32.303 36.3896C32.3395 35.6739 31.9797 33.1991 31.5136 32.3554C31.4429 32.2268 31.2324 31.9975 30.7906 32.1159Z" fill="#9D31FF"/>
<path d="M24.2349 21.5354C22.1617 21.5354 20.4927 22.7373 20.4927 24.8104V29.2591C20.4927 29.6268 20.5464 29.9817 20.6441 30.3169C20.4046 31.9786 20.0342 33.6761 18.8784 34.5474C20.577 36.5005 27.3405 36.6446 25.2594 34.5474C24.8193 34.1511 24.5871 33.5409 24.5569 32.9867C25.4908 32.9082 26.3611 32.4813 26.9947 31.7907C27.6284 31.1 27.979 30.1963 27.977 29.2591V24.8104C27.977 22.7373 26.308 21.5354 24.2349 21.5354Z" fill="#FFD0C8"/>
<path d="M21.7747 32.0822C22.2336 33.0367 22.7957 33.7909 23.4772 34.0465C23.9239 34.2142 24.4212 34.2372 24.9363 34.1659C24.7044 33.8103 24.5788 33.3843 24.5571 32.9867C24.0562 33.0313 23.5515 32.9742 23.0733 32.8187C22.5951 32.6633 22.1536 32.4127 21.7747 32.0822Z" fill="#FFADC6"/>
<path d="M27.2347 19.0169C27.5767 19.0241 27.9111 19.1195 28.2053 19.294C28.4996 19.4684 28.7438 19.7159 28.9142 20.0126C29.0538 20.253 29.1413 20.5202 29.171 20.7966C29.2007 21.0731 29.1719 21.3527 29.0865 21.6174C29.3009 21.804 29.4727 22.0346 29.5902 22.2934C29.7076 22.5522 29.7681 22.8333 29.7674 23.1176C29.768 23.3789 29.717 23.6378 29.6173 23.8794C29.5175 24.121 29.3711 24.3405 29.1863 24.5253C29.0015 24.7102 28.7821 24.8567 28.5405 24.9565C28.299 25.0563 28.0401 25.1074 27.7787 25.1069H21.853C21.9176 25.297 21.9506 25.4964 21.9506 25.6973C21.9506 25.9381 21.9032 26.1765 21.8111 26.399C21.7189 26.6215 21.5838 26.8236 21.4136 26.9939C21.2433 27.1642 21.0411 27.2992 20.8187 27.3914C20.5962 27.4836 20.3577 27.531 20.1169 27.531C19.8761 27.531 19.6377 27.4836 19.4152 27.3914C19.1927 27.2992 18.9906 27.1642 18.8203 26.9939C18.65 26.8236 18.5149 26.6215 18.4228 26.399C18.3306 26.1765 18.2832 25.9381 18.2832 25.6973C18.2832 25.441 18.3369 25.1876 18.4409 24.9534C18.5449 24.7192 18.6967 24.5094 18.8868 24.3375C18.6159 23.9886 18.4694 23.5592 18.4704 23.1176C18.4698 22.8562 18.5209 22.5972 18.6206 22.3556C18.7204 22.114 18.8669 21.8945 19.0518 21.7097C19.2366 21.5248 19.4561 21.3783 19.6977 21.2785C19.9393 21.1788 20.1983 21.1277 20.4597 21.1283H23.0032L26.1967 19.2843C26.5116 19.1017 26.8707 19.0092 27.2347 19.0169Z" fill="#051826"/>
<path d="M18.5459 28.0036C18.5459 28.4116 18.7079 28.8028 18.9964 29.0913C19.2848 29.3798 19.676 29.5419 20.0839 29.542C20.286 29.542 20.4861 29.5023 20.6728 29.425C20.8595 29.3477 21.0291 29.2343 21.172 29.0914C21.3149 28.9485 21.4283 28.7789 21.5056 28.5922C21.5829 28.4055 21.6226 28.2054 21.6226 28.0033C21.6226 27.8013 21.5828 27.6012 21.5055 27.4145C21.4281 27.2279 21.3148 27.0583 21.1719 26.9154C21.029 26.7726 20.8594 26.6593 20.6727 26.582C20.486 26.5047 20.286 26.4649 20.0839 26.465C19.8819 26.465 19.6819 26.5048 19.4952 26.5822C19.3086 26.6595 19.1391 26.7729 18.9962 26.9158C18.8534 27.0587 18.7401 27.2283 18.6629 27.4149C18.5856 27.6016 18.5459 27.8016 18.5459 28.0036Z" fill="#FFD0C8"/>
<path d="M22.3919 40.768C22.3919 40.768 21.9499 39.5135 21.9065 39.1968C21.8443 38.7462 21.9361 38.5672 22.1334 38.4314C22.3265 38.2988 22.6847 38.2482 22.9985 38.215C22.9985 38.6268 22.3919 40.768 22.3919 40.768Z" fill="#FFADC6"/>
<path d="M22.8203 37.4189C22.4832 38.0801 22.4092 39.8911 22.3927 40.768L20.1021 44.1749L19.3259 42.1146C17.7517 43.1329 17.5362 43.373 15.8232 44.19C16.1318 44.842 16.981 46.7951 17.6389 47.9611C18.8641 50.1326 21.0761 49.0893 21.5681 47.8897L24.0548 41.3765C24.4771 40.7818 25.2168 39.6918 25.4451 39.0454C25.5132 38.8527 25.5198 38.607 25.3375 38.3889C24.956 37.933 24.0784 37.2657 23.4482 37.1522C23.2775 37.1216 22.9608 37.1436 22.8203 37.4189Z" fill="#FFD0C8"/>
<path fill-rule="evenodd" clip-rule="evenodd" d="M19.0301 42.3671C17.7349 43.2157 17.4211 43.4854 15.8291 44.2449C15.9538 44.508 16.1778 45.0056 16.4307 45.5559C17.0168 45.2336 18.789 44.1718 19.0301 42.3671Z" fill="#FFADC6"/>
<path d="M19.3024 40.5714C19.3027 40.5721 19.753 41.1618 19.877 41.5348C20.0013 41.9078 19.6783 42.219 19.6783 42.219C17.1598 44.2915 15.9056 44.38 15.905 44.38C15.7375 44.3971 15.4027 44.4556 15.2461 44.4165C15.1419 44.3902 14.9146 43.9422 14.6587 43.3248C17.8512 42.6327 19.2935 40.5448 19.3024 40.5714Z" fill="#9D31FF"/>
<path d="M36.2978 42.7437H38.2555C38.3727 42.7434 38.4889 42.7663 38.5972 42.811C38.7056 42.8558 38.8041 42.9214 38.887 43.0043C38.9699 43.0872 39.0356 43.1856 39.0804 43.294C39.1251 43.4023 39.1481 43.5185 39.1479 43.6357V51.5113C39.1481 51.6285 39.1251 51.7447 39.0804 51.853C39.0356 51.9613 38.9699 52.0598 38.887 52.1427C38.8041 52.2255 38.7056 52.2912 38.5972 52.336C38.4889 52.3807 38.3727 52.4036 38.2555 52.4033H36.2981C36.1809 52.4036 36.0648 52.3807 35.9564 52.336C35.848 52.2912 35.7496 52.2255 35.6667 52.1427C35.5838 52.0598 35.518 51.9613 35.4733 51.853C35.4285 51.7447 35.4055 51.6285 35.4058 51.5113V43.6357C35.4055 43.5185 35.4285 43.4023 35.4733 43.294C35.518 43.1856 35.5838 43.0872 35.6667 43.0043C35.7496 42.9214 35.848 42.8558 35.9564 42.811C36.0648 42.7663 36.1806 42.7434 36.2978 42.7437Z" fill="#FF556E"/>
<path d="M41.6809 40.4052H43.6383C43.7556 40.4049 43.8717 40.4278 43.9801 40.4725C44.0885 40.5173 44.187 40.583 44.2699 40.6659C44.3528 40.7489 44.4185 40.8473 44.4633 40.9557C44.508 41.0641 44.5309 41.1803 44.5307 41.2975V51.5114C44.5309 51.6286 44.508 51.7448 44.4632 51.8531C44.4184 51.9615 44.3527 52.0599 44.2698 52.1428C44.1869 52.2256 44.0884 52.2913 43.98 52.3361C43.8717 52.3808 43.7556 52.4037 43.6383 52.4034H41.6809C41.5637 52.4037 41.4476 52.3808 41.3392 52.3361C41.2308 52.2913 41.1324 52.2256 41.0495 52.1428C40.9666 52.0599 40.9008 51.9615 40.8561 51.8531C40.8113 51.7448 40.7884 51.6286 40.7886 51.5114V41.2975C40.7883 41.1803 40.8112 41.0641 40.856 40.9557C40.9007 40.8473 40.9664 40.7489 41.0494 40.6659C41.1323 40.583 41.2308 40.5173 41.3391 40.4725C41.4475 40.4278 41.5637 40.4049 41.6809 40.4052Z" fill="#FFC17B"/>
<path d="M47.0642 37.5129H49.0216C49.1389 37.5127 49.255 37.5356 49.3634 37.5803C49.4718 37.6251 49.5703 37.6908 49.6532 37.7737C49.7361 37.8566 49.8018 37.9551 49.8466 38.0635C49.8913 38.1719 49.9142 38.288 49.914 38.4053V51.5114C49.9142 51.6286 49.8913 51.7447 49.8465 51.8531C49.8017 51.9614 49.736 52.0599 49.6531 52.1427C49.5702 52.2256 49.4717 52.2913 49.3633 52.336C49.255 52.3808 49.1389 52.4037 49.0216 52.4034H47.0642C46.947 52.4037 46.8309 52.3808 46.7225 52.336C46.6142 52.2913 46.5157 52.2256 46.4328 52.1427C46.3499 52.0599 46.2841 51.9614 46.2394 51.8531C46.1946 51.7447 46.1717 51.6286 46.1719 51.5114V38.4053C46.1716 38.288 46.1945 38.1719 46.2393 38.0635C46.284 37.9551 46.3497 37.8566 46.4327 37.7737C46.5156 37.6908 46.6141 37.6251 46.7224 37.5803C46.8308 37.5356 46.947 37.5127 47.0642 37.5129Z" fill="#FFD27B"/>
<path d="M52.4474 34.6823H54.4044C54.5217 34.682 54.6379 34.7049 54.7462 34.7496C54.8546 34.7944 54.9531 34.8601 55.036 34.943C55.1189 35.026 55.1846 35.1244 55.2294 35.2328C55.2741 35.3412 55.2971 35.4573 55.2968 35.5746V51.5114C55.297 51.6286 55.2741 51.7447 55.2293 51.853C55.1846 51.9613 55.1189 52.0597 55.036 52.1426C54.9531 52.2255 54.8547 52.2912 54.7464 52.3359C54.6381 52.3807 54.522 52.4036 54.4048 52.4034H52.447C52.3298 52.4037 52.2137 52.3808 52.1053 52.336C51.997 52.2913 51.8985 52.2256 51.8156 52.1427C51.7327 52.0598 51.667 51.9614 51.6222 51.8531C51.5774 51.7447 51.5545 51.6286 51.5547 51.5114V35.5746C51.5544 35.4573 51.5773 35.3412 51.6221 35.2328C51.6668 35.1244 51.7326 35.026 51.8155 34.943C51.8984 34.8601 51.9969 34.7944 52.1052 34.7496C52.2136 34.7049 52.3301 34.682 52.4474 34.6823Z" fill="#00987F"/>
<path d="M30.9148 47.0509H32.8722C32.9895 47.0506 33.1057 47.0736 33.2141 47.1183C33.3225 47.1631 33.421 47.2289 33.5039 47.3118C33.5868 47.3948 33.6525 47.4933 33.6973 47.6017C33.742 47.7101 33.7649 47.8263 33.7646 47.9436V51.5114C33.7648 51.6286 33.7418 51.7447 33.6971 51.8531C33.6523 51.9614 33.5866 52.0598 33.5037 52.1427C33.4208 52.2256 33.3223 52.2913 33.2139 52.336C33.1056 52.3808 32.9894 52.4037 32.8722 52.4034H30.9148C30.7976 52.4037 30.6815 52.3808 30.5731 52.336C30.4647 52.2913 30.3663 52.2256 30.2834 52.1427C30.2005 52.0598 30.1347 51.9614 30.09 51.8531C30.0452 51.7447 30.0222 51.6286 30.0225 51.5114V47.9436C30.0222 47.8263 30.0451 47.7102 30.0899 47.6018C30.1346 47.4934 30.2003 47.3949 30.2832 47.312C30.3662 47.2291 30.4646 47.1634 30.573 47.1186C30.6814 47.0739 30.7976 47.0506 30.9148 47.0509Z" fill="#FF556E"/>
<path d="M19.5713 27.9711C19.5714 28.0926 19.6197 28.2092 19.7057 28.2951C19.7917 28.381 19.9083 28.4293 20.0298 28.4293C20.1513 28.4293 20.2679 28.381 20.3539 28.2951C20.4399 28.2092 20.4882 28.0926 20.4883 27.9711C20.4883 27.8495 20.44 27.7329 20.354 27.6469C20.268 27.5609 20.1514 27.5126 20.0298 27.5126C19.9082 27.5126 19.7916 27.5609 19.7056 27.6469C19.6196 27.7329 19.5713 27.8495 19.5713 27.9711Z" fill="#FFADC6"/>
<path fill-rule="evenodd" clip-rule="evenodd" d="M31.4824 32.9604C31.833 34.186 32.0528 36.6134 32.0468 36.6706L33.651 35.9839C33.5286 35.4385 32.8734 33.6923 31.4824 32.9604Z" fill="#FFADC6"/>
<path fill-rule="evenodd" clip-rule="evenodd" d="M31.0153 32.0831C30.9393 32.0845 30.8638 32.0956 30.7906 32.1159C30.6426 32.1554 30.3252 32.2271 29.9009 32.3189C30.2413 33.3109 30.7669 35.2371 30.8761 37.9256C31.1304 37.7776 31.5705 37.5207 31.6955 37.4487C32.0711 37.2316 32.2596 37.2392 32.3033 36.3896C32.3398 35.6739 31.98 33.1991 31.5139 32.3554C31.4563 32.2508 31.3067 32.0798 31.0153 32.0831Z" fill="#9D31FF"/>
<path d="M44.5198 15.8798C44.0376 15.9005 43.418 16.958 43.1762 17.3757C42.9502 17.7671 42.375 18.793 42.6177 19.1742C42.7476 19.3782 43.1206 19.4821 43.5209 19.5351L43.6735 26.9038C43.6998 28.1662 45.3313 28.0945 45.3559 26.9038L45.5086 19.5433C45.9174 19.4933 46.3095 19.39 46.422 19.1742C46.645 18.7466 46.0394 17.6809 45.798 17.2629C45.572 16.8715 44.9714 15.8604 44.5198 15.8798Z" fill="#00987F"/>
<path d="M51.8733 18.618C51.3911 18.6387 50.7714 19.6961 50.53 20.1142C50.3041 20.5056 49.7284 21.5312 49.9712 21.9127C50.1034 22.1199 50.4866 22.2239 50.8945 22.2759L51.027 25.5808C51.0777 26.8426 52.6617 26.7709 52.7098 25.5808L52.842 22.2841C53.2581 22.2351 53.6613 22.1318 53.7755 21.9124C53.9988 21.4848 53.3929 20.4191 53.1515 20.0014C52.9255 19.61 52.3249 18.5985 51.8733 18.618Z" fill="#3DD28E"/>
<path fill-rule="evenodd" clip-rule="evenodd" d="M51.8718 26.6307C52.3455 26.6205 52.8142 26.2387 52.8402 25.5861L52.9681 22.3985C53.1415 22.3735 53.3164 22.3383 53.4651 22.2854C53.6963 22.1989 54.0473 22.0535 53.9341 21.4697C53.8069 20.723 52.9638 19.3942 52.6994 19.0745C52.5783 18.9199 52.4491 18.7768 52.3129 18.6686C51.9208 18.3466 51.6419 18.5196 51.41 18.7015C51.2653 18.815 51.1337 18.9732 51.0074 19.1376C50.1818 20.2711 49.8516 21.1342 49.795 21.5068C49.7503 21.7904 49.7852 22.1048 50.2851 22.2759C50.4298 22.3275 50.5989 22.3633 50.7676 22.3893L50.8963 25.5864C50.9239 26.2716 51.3982 26.6413 51.8718 26.6307ZM51.8662 26.3699C51.5232 26.3775 51.1801 26.1522 51.1568 25.5759L51.0245 22.2706C51.0232 22.2398 51.0111 22.2104 50.9903 22.1876C50.9695 22.1648 50.9413 22.1501 50.9107 22.1459C50.7127 22.1206 50.5219 22.0834 50.3729 22.0298C49.9855 21.89 50.0374 21.7298 50.0532 21.5453C50.0796 21.3499 50.2493 20.6875 51.2143 19.2968C51.3262 19.1363 51.4597 19.0008 51.5778 18.9018C51.7613 18.7548 51.9222 18.6781 52.1501 18.8729C52.2606 18.961 52.3803 19.0913 52.4938 19.236C52.9997 19.8813 53.6158 21.0858 53.6769 21.5144C53.7171 21.8552 53.6819 21.9134 53.3776 22.0394C53.2257 22.0933 53.029 22.1305 52.8263 22.1545C52.7955 22.1581 52.7668 22.1726 52.7457 22.1953C52.7245 22.2181 52.7122 22.2477 52.7109 22.2788L52.5783 25.5759C52.557 26.1133 52.2093 26.3623 51.8662 26.3699ZM44.5182 27.9543C44.9968 27.9438 45.4724 27.5612 45.4862 26.9064L45.6372 19.658C45.8016 19.6355 45.9636 19.5971 46.1207 19.5435C46.299 19.4791 46.7104 19.3209 46.5808 18.7318C46.4684 18.0157 45.6079 16.6589 45.3461 16.3366C45.2224 16.184 45.0954 16.0389 44.9593 15.9307C44.6297 15.6577 44.336 15.7169 44.0567 15.9636C43.9153 16.0817 43.7804 16.2346 43.6538 16.3987C42.8996 17.4345 42.4917 18.3755 42.4417 18.7683C42.348 19.3307 42.7493 19.4708 42.9229 19.534C43.0631 19.585 43.2279 19.6228 43.3917 19.6491L43.543 26.9064C43.5568 27.5938 44.0396 27.9645 44.5182 27.954V27.9543ZM44.5119 27.6931C44.1623 27.7007 43.8153 27.4761 43.8035 26.9011L43.6512 19.532C43.6508 19.5007 43.639 19.4706 43.6181 19.4473C43.5971 19.424 43.5685 19.4091 43.5374 19.4054C43.3433 19.3797 43.1575 19.3412 43.0118 19.2883C42.6404 19.1587 42.6832 18.984 42.6999 18.8068C42.7401 18.5436 43.0262 17.7065 43.8607 16.5583C43.9495 16.4431 44.0982 16.2629 44.2235 16.1636C44.411 16.0159 44.5425 15.9258 44.7965 16.1349C44.9073 16.2231 45.0267 16.353 45.1402 16.4977C45.5405 16.976 46.2529 18.265 46.3236 18.7765C46.394 19.1778 46.2039 19.2271 46.0329 19.2975C45.8977 19.3534 45.6908 19.3896 45.4925 19.4136C45.4612 19.4173 45.4324 19.4322 45.4113 19.4554C45.3901 19.4787 45.3781 19.5088 45.3773 19.5402L45.225 26.9014C45.2139 27.4369 44.8619 27.6856 44.5119 27.6931Z" fill="#691A36"/>
<path d="M27.2615 18.901C26.8729 18.8929 26.4896 18.9918 26.1534 19.1868L22.9846 21.0159H20.4726C20.1937 21.0157 19.9175 21.0705 19.6598 21.1771C19.4021 21.2838 19.1679 21.4402 18.9707 21.6374C18.7735 21.8346 18.6172 22.0688 18.5106 22.3266C18.404 22.5843 18.3492 22.8605 18.3495 23.1394C18.3495 23.594 18.4824 24.0002 18.7244 24.3452C18.3624 24.7121 18.1602 25.2073 18.162 25.7227C18.1616 26.2336 18.3602 26.7246 18.7159 27.0914C18.5259 27.3685 18.4244 27.6967 18.4248 28.0327C18.4252 28.2766 18.4788 28.5175 18.582 28.7385C18.6852 28.9595 18.8355 29.1553 19.0223 29.3121C19.2091 29.4689 19.4279 29.583 19.6635 29.6464C19.899 29.7097 20.1455 29.7209 20.3858 29.679C20.4078 29.8957 20.4539 30.1194 20.5118 30.3246C20.2736 31.9692 19.9 33.6043 18.8103 34.4348C18.7557 34.4572 17.7982 34.8542 16.6875 35.5176C15.5441 36.2004 14.2495 37.1523 13.6515 38.2838C13.4397 38.6851 13.3927 39.1972 13.3956 39.5738C13.3999 39.859 13.5015 40.2863 13.6325 40.7941C13.9064 41.8588 14.4794 43.2867 14.5436 43.432C14.6087 43.5899 14.7593 43.9448 14.9761 44.3487C15.157 44.6832 15.3863 44.6188 15.5704 44.6073C15.6461 44.6007 15.7142 44.5915 15.7859 44.5823L16.024 50.5906C16.0964 52.3954 17.7094 52.6052 18.3899 52.6052H25.0686C27.2517 52.6052 27.4155 51.2784 27.5631 50.7669C28.171 46.8604 28.419 43.065 28.0184 39.7409C28.963 39.1903 31.1921 37.8904 31.7611 37.5618C32.3078 37.2816 32.3196 37.1849 32.4134 36.656L44.8149 31.3453C44.8659 31.3617 45.5451 31.5801 46.1411 31.7262C47.1535 31.9814 47.4456 31.8383 47.5709 31.7449C47.835 31.5587 47.8018 31.1183 47.8031 30.9854C47.9002 30.941 49.55 30.1855 50.2694 29.7734C50.5391 29.6415 50.6483 29.3451 50.5828 29.081C50.517 28.8169 50.2651 28.5998 49.8253 28.6422C48.8369 28.7814 46.0467 29.1606 45.0922 29.2705C44.7488 29.3099 44.2337 29.4132 44.1992 29.4201L31.6371 32.308C31.4733 31.9883 31.1086 31.8867 30.7573 31.9893C30.232 32.1301 27.4418 32.703 24.7187 33.2507C24.7099 33.2021 24.7031 33.1531 24.6983 33.104C26.656 32.8586 28.1078 31.2374 28.1078 29.2589V27.5377C29.5663 26.9213 29.4205 25.3527 29.0995 24.8202C29.357 24.6221 29.5655 24.3675 29.7088 24.076C29.8521 23.7845 29.9265 23.4639 29.9261 23.1391C29.9274 22.8497 29.869 22.5632 29.7547 22.2974C29.6403 22.0316 29.4724 21.7922 29.2613 21.5942C29.3382 21.3224 29.3593 21.0379 29.3236 20.7577C29.2879 20.4776 29.196 20.2075 29.0535 19.9637C28.8716 19.6472 28.6111 19.383 28.2971 19.1968C27.9832 19.0105 27.6265 18.9089 27.2615 18.901ZM27.2559 19.1628C27.5759 19.1694 27.8887 19.2587 28.164 19.422C28.4393 19.5853 28.6676 19.817 28.8268 20.0946C29.1021 20.5712 29.1439 21.1143 28.9887 21.5965C28.9808 21.6208 28.9803 21.647 28.9871 21.6716C28.9939 21.6963 29.0079 21.7184 29.0272 21.7353C29.228 21.9098 29.3889 22.1256 29.4989 22.3679C29.6089 22.6102 29.6654 22.8733 29.6646 23.1394C29.6655 23.3841 29.618 23.6266 29.5248 23.8528C29.4316 24.079 29.2945 24.2846 29.1215 24.4576C28.9484 24.6306 28.7429 24.7677 28.5166 24.8609C28.2904 24.9542 28.0479 25.0017 27.8032 25.0008H21.8682C21.8474 25.0007 21.8269 25.0056 21.8083 25.0151C21.7897 25.0246 21.7737 25.0384 21.7616 25.0553C21.7494 25.0722 21.7415 25.0918 21.7384 25.1124C21.7353 25.133 21.7372 25.154 21.7439 25.1738C21.8462 25.4734 21.8629 25.7956 21.7922 26.1041C21.7215 26.4127 21.5661 26.6955 21.3436 26.9207C21.1896 26.7477 21.0013 26.6087 20.7907 26.5124C20.58 26.4161 20.3517 26.3646 20.1201 26.3613C19.8886 26.3579 19.6588 26.4028 19.4455 26.493C19.2322 26.5831 19.04 26.7167 18.881 26.8851C18.727 26.7196 18.6075 26.5252 18.5293 26.3131C18.4511 26.101 18.4159 25.8755 18.4256 25.6496C18.4353 25.4238 18.4897 25.2021 18.5858 24.9975C18.6819 24.7929 18.8177 24.6094 18.9853 24.4577C19.0096 24.4355 19.0246 24.405 19.0274 24.3722C19.0302 24.3394 19.0206 24.3068 19.0004 24.2808C18.7469 23.9544 18.6097 23.5527 18.6106 23.1394C18.6098 22.8947 18.6573 22.6522 18.7506 22.4259C18.8439 22.1996 18.981 21.994 19.1541 21.821C19.3272 21.6479 19.5328 21.5108 19.7591 21.4176C19.9854 21.3244 20.2279 21.2768 20.4726 21.2777H23.0201C23.0431 21.2777 23.0658 21.2715 23.0859 21.26L26.2843 19.4134C26.579 19.2422 26.9152 19.1555 27.2559 19.1628ZM28.8824 24.9695C29.1373 25.4399 29.2633 26.6338 28.1078 27.2512V25.2415C28.3813 25.2023 28.6445 25.1099 28.8824 24.9695ZM27.8463 25.2609V29.2589C27.8463 31.1568 26.4004 32.6994 24.5456 32.8563C24.0624 32.8975 23.5759 32.8415 23.1147 32.6916C22.6535 32.5417 22.227 32.3009 21.8604 31.9834C21.7291 31.8683 21.5577 32.0673 21.6887 32.1807C22.3695 32.7721 23.3684 33.1948 24.4378 33.1257C24.496 33.6737 24.7348 34.2506 25.1716 34.6447C25.4156 34.892 25.7311 35.3091 25.3054 35.5985C24.0082 36.3718 20.2269 35.7409 19.0734 34.5591C20.1809 33.623 20.542 31.9426 20.7739 30.3355C20.7764 30.317 20.7748 30.2981 20.7693 30.2802C20.6952 30.0261 20.6491 29.7646 20.6318 29.5004C20.6141 29.3612 20.4845 29.3829 20.421 29.405C20.2139 29.4543 19.9983 29.456 19.7904 29.41C19.5826 29.364 19.3878 29.2715 19.2209 29.1394C19.0539 29.0073 18.9191 28.839 18.8266 28.6473C18.7341 28.4555 18.6862 28.2453 18.6866 28.0324C18.6864 27.8472 18.7227 27.6638 18.7935 27.4927C18.8643 27.3216 18.9681 27.1661 19.0991 27.0352C19.23 26.9043 19.3855 26.8005 19.5566 26.7297C19.7278 26.659 19.9112 26.6227 20.0964 26.623C20.5598 26.623 20.9696 26.845 21.2269 27.1891C21.2696 27.247 21.3624 27.2575 21.4242 27.2045C22.2754 26.4529 22.0965 25.4488 22.0426 25.2623L27.8463 25.2609ZM20.0424 27.4104C19.8861 27.4109 19.7363 27.4733 19.6257 27.5838C19.5152 27.6944 19.4529 27.8442 19.4523 28.0005C19.4529 28.1568 19.5152 28.3066 19.6257 28.4172C19.7363 28.5277 19.8861 28.5901 20.0424 28.5906C20.3667 28.5906 20.6318 28.3245 20.6318 28.0005C20.6318 27.6762 20.3667 27.4104 20.0424 27.4104ZM20.0424 27.6722C20.0856 27.6719 20.1284 27.6802 20.1684 27.6966C20.2083 27.713 20.2446 27.7372 20.2751 27.7677C20.3056 27.7983 20.3298 27.8346 20.3461 27.8745C20.3625 27.9145 20.3707 27.9573 20.3704 28.0005C20.3704 28.1834 20.2253 28.3294 20.0424 28.3294C19.8595 28.3294 19.7135 28.1834 19.7135 28.0005C19.7133 27.9573 19.7216 27.9144 19.7381 27.8745C19.7546 27.8345 19.7788 27.7982 19.8094 27.7677C19.84 27.7371 19.8763 27.713 19.9163 27.6966C19.9563 27.6802 19.9992 27.6719 20.0424 27.6722ZM50.3286 29.1445C50.3638 29.3287 50.2828 29.4602 50.147 29.5428C49.4451 29.9464 47.6222 30.7835 47.6222 30.7835C47.5996 30.7938 47.5804 30.8103 47.5669 30.8311C47.5533 30.8519 47.5459 30.8761 47.5456 30.9009C47.5439 31.068 47.5693 31.4147 47.4144 31.5357C47.194 31.6834 46.5789 31.5643 46.2036 31.4726C45.6007 31.3246 44.8465 31.0825 44.8465 31.0825C44.8164 31.0729 44.784 31.0746 44.755 31.0871L32.4344 36.3619C32.4295 34.9552 31.9877 33.0925 31.7493 32.5517L44.2538 29.6767C44.5084 29.6257 44.8182 29.5681 45.1244 29.53C46.0809 29.4106 48.8616 29.0419 49.8569 28.9017C50.1694 28.8688 50.2967 29.0155 50.3286 29.1445ZM31.4003 32.4189C31.7062 32.9136 32.1729 35.045 32.1729 36.3823C32.1081 37.0918 32.0831 37.0829 31.6302 37.3355C31.5335 37.3915 31.1747 37.601 30.9961 37.7049C30.873 35.2259 30.4037 33.4217 30.0698 32.4162C30.3226 32.3628 30.5744 32.3047 30.825 32.2419C31.2332 32.1367 31.373 32.3748 31.4003 32.4189ZM29.8129 32.4715C30.1465 33.4698 30.6303 35.3087 30.7418 37.8526C29.857 38.367 28.7226 39.0275 27.9795 39.461C27.9103 39.0652 27.8266 38.6721 27.7286 38.2825C27.7042 38.1411 27.4385 38.1394 27.4753 38.347C27.576 38.7423 27.7108 39.3975 27.7536 39.6942C28.1628 42.9972 27.9148 46.8015 27.3053 50.7205C26.9454 52.1392 26.1738 52.3132 25.0686 52.3441H18.3899C16.9404 52.3056 16.3256 51.5994 16.2852 50.5804L16.0671 45.0786C16.4667 45.9571 17.0443 47.2195 17.5334 48.0866C18.1679 49.2111 19.0688 49.5345 19.9135 49.3809C20.7299 49.2328 21.436 48.6523 21.7035 48.0001L21.7048 47.9968L24.1898 41.4875C24.6164 40.8869 25.3482 39.8189 25.5893 39.1357C25.6682 38.9124 25.6732 38.6071 25.4587 38.3506C25.0535 37.8661 24.1874 37.1931 23.4892 37.0678C23.3842 37.0487 22.9218 37.0027 22.7208 37.4033C22.6165 37.6079 22.5412 37.8901 22.4833 38.2101C22.332 38.2447 21.935 38.3384 21.8143 38.7002C21.7646 38.8469 21.7597 39.0252 21.7923 39.262C21.8192 39.4567 21.9409 39.8347 22.0574 40.1902C22.156 40.4908 22.2366 40.7218 22.2636 40.7987L20.1477 43.9465L19.6056 42.5084C19.6622 42.463 19.7227 42.413 19.7809 42.365C19.7809 42.365 20.1661 42.0029 20.0131 41.5441C19.9155 41.1987 19.4178 40.5415 19.4178 40.5415C19.4052 40.5253 19.389 40.5122 19.3705 40.5033C19.352 40.4944 19.3316 40.49 19.3111 40.4904C19.2905 40.4908 19.2704 40.496 19.2522 40.5055C19.234 40.5151 19.2183 40.5287 19.2063 40.5455C19.2063 40.5455 17.8189 42.5203 14.7419 43.2261C14.6301 42.9512 14.1373 41.668 13.8844 40.725C13.7479 40.2284 13.6611 39.8008 13.6575 39.5719C13.6575 39.1936 13.7055 38.7318 13.8834 38.4062C14.4498 37.3681 15.6967 36.4142 16.822 35.7423C17.4731 35.3525 18.1491 35.0057 18.8455 34.7042C20.3503 36.2593 24.4683 36.5409 25.4528 35.8149C26.1175 35.3281 25.6268 34.7302 25.3466 34.4499C25.0729 34.2032 24.8782 33.8631 24.7785 33.5059C26.7162 33.1158 28.6463 32.7228 29.8129 32.4715ZM52.5103 34.5917C52.2386 34.5919 51.9782 34.6999 51.7861 34.892C51.5941 35.0841 51.4861 35.3446 51.486 35.6163V51.5784C51.4862 51.85 51.5942 52.1104 51.7862 52.3024C51.9783 52.4945 52.2387 52.6024 52.5103 52.6026H54.4716C54.7432 52.6024 55.0036 52.4945 55.1957 52.3024C55.3877 52.1104 55.4957 51.85 55.4959 51.5784V35.616C55.4957 35.3444 55.3877 35.0839 55.1957 34.8919C55.0036 34.6998 54.7432 34.5919 54.4716 34.5917H52.5103ZM52.5103 34.8529H54.4716C54.572 34.8523 54.6714 34.8716 54.7642 34.9098C54.857 34.948 54.9413 35.0042 55.0122 35.0751C55.0832 35.1461 55.1393 35.2305 55.1774 35.3233C55.2154 35.4161 55.2347 35.5156 55.2341 35.616V51.5784C55.2347 51.6787 55.2154 51.7781 55.1773 51.8709C55.1392 51.9636 55.083 52.0479 55.0121 52.1189C54.9412 52.1898 54.8569 52.2459 54.7641 52.284C54.6713 52.3221 54.5719 52.3414 54.4716 52.3408H52.5103C52.41 52.3414 52.3106 52.3221 52.2178 52.284C52.1251 52.2459 52.0408 52.1898 51.9699 52.1188C51.899 52.0479 51.8429 51.9636 51.8049 51.8708C51.7668 51.7781 51.7475 51.6786 51.7482 51.5784V35.616C51.7475 35.5156 51.7668 35.4162 51.8048 35.3234C51.8429 35.2306 51.899 35.1462 51.9699 35.0753C52.0408 35.0043 52.125 34.9481 52.2178 34.9099C52.3106 34.8717 52.41 34.8523 52.5103 34.8529ZM23.4428 37.325C24.0069 37.4266 24.8989 38.0894 25.2577 38.5187C25.4081 38.6982 25.4002 38.8864 25.3429 39.0489C25.1285 39.6561 24.3878 40.7583 23.9664 41.3513C23.9601 41.3602 23.9549 41.3698 23.951 41.3799L21.4617 47.9004C21.2519 48.4497 20.5888 48.9924 19.8671 49.1236C19.1553 49.2463 18.3538 49.0082 17.7614 47.9576C17.195 46.9541 16.4875 45.3677 16.1053 44.5323C17.0973 44.2945 18.3117 43.5238 19.3902 42.6785L19.9704 44.2182L19.2251 45.5088C19.1379 45.6611 19.3678 45.7838 19.4517 45.6394L20.226 44.2981L22.5169 40.8905C22.5311 40.8697 22.5389 40.8453 22.5396 40.8201C22.5478 40.383 22.5705 39.7123 22.6327 39.0719C22.6951 38.4318 22.8053 37.8141 22.9537 37.5227C23.0803 37.2744 23.4096 37.3188 23.4428 37.325ZM47.1193 37.4266C46.8476 37.4269 46.5871 37.535 46.395 37.7271C46.2029 37.9193 46.0949 38.1798 46.0947 38.4516V51.5784C46.0949 51.85 46.2029 52.1105 46.395 52.3025C46.5872 52.4946 46.8477 52.6025 47.1193 52.6026H49.0797C49.3513 52.6024 49.6117 52.4945 49.8037 52.3024C49.9958 52.1104 50.1037 51.85 50.1039 51.5784V38.4516C50.1037 38.1799 49.9958 37.9194 49.8038 37.7273C49.6117 37.5351 49.3513 37.427 49.0797 37.4266H47.1193ZM47.1193 37.6888H49.0797C49.18 37.6882 49.2796 37.7075 49.3724 37.7456C49.4653 37.7838 49.5496 37.84 49.6206 37.9109C49.6916 37.9819 49.7478 38.0663 49.7859 38.1591C49.824 38.252 49.8434 38.3515 49.8428 38.4519V51.5784C49.8433 51.6787 49.824 51.7782 49.7858 51.871C49.7477 51.9638 49.6915 52.0481 49.6205 52.119C49.5495 52.1899 49.4651 52.246 49.3723 52.2841C49.2795 52.3222 49.18 52.3415 49.0797 52.3408H47.1193C47.019 52.3415 46.9195 52.3222 46.8267 52.2841C46.7338 52.246 46.6495 52.1899 46.5785 52.119C46.5075 52.0481 46.4513 51.9638 46.4132 51.871C46.375 51.7782 46.3557 51.6787 46.3562 51.5784V38.4516C46.3557 38.3512 46.375 38.2517 46.4132 38.1589C46.4513 38.066 46.5075 37.9817 46.5785 37.9107C46.6494 37.8397 46.7338 37.7835 46.8266 37.7454C46.9195 37.7073 47.0189 37.6882 47.1193 37.6888ZM22.4376 38.4927C22.4116 38.6768 22.3897 38.8615 22.3718 39.0466C22.3391 39.3953 22.3156 39.7448 22.3014 40.0948C22.1873 39.7458 22.0682 39.3465 22.0515 39.2255C22.0219 39.0107 22.0317 38.8729 22.062 38.7834C22.1376 38.5782 22.3488 38.5193 22.4376 38.4927ZM41.727 40.3231C41.4554 40.3235 41.195 40.4316 41.0029 40.6237C40.8109 40.8159 40.7029 41.0764 40.7028 41.348V51.578C40.7029 51.8496 40.8109 52.1101 41.003 52.3021C41.195 52.4941 41.4554 52.6021 41.727 52.6023H43.6884C43.96 52.6021 44.2204 52.4941 44.4124 52.3021C44.6045 52.1101 44.7124 51.8496 44.7126 51.578V41.3483C44.7124 41.0767 44.6045 40.8162 44.4125 40.624C44.2204 40.4319 43.96 40.3238 43.6884 40.3234L41.727 40.3231ZM41.727 40.5849H43.6884C43.7887 40.5844 43.8882 40.6037 43.981 40.6419C44.0738 40.68 44.1581 40.7362 44.229 40.8072C44.2999 40.8782 44.356 40.9625 44.3941 41.0554C44.4322 41.1482 44.4515 41.2477 44.4508 41.348V51.578C44.4514 51.6783 44.4321 51.7777 44.394 51.8705C44.3559 51.9633 44.2998 52.0476 44.2288 52.1185C44.1579 52.1894 44.0736 52.2456 43.9809 52.2837C43.8881 52.3218 43.7887 52.3411 43.6884 52.3405H41.727C41.6267 52.3411 41.5273 52.3218 41.4345 52.2837C41.3418 52.2456 41.2575 52.1894 41.1865 52.1185C41.1156 52.0476 41.0595 51.9633 41.0214 51.8705C40.9833 51.7777 40.964 51.6783 40.9646 51.578V41.3483C40.9639 41.248 40.9832 41.1485 41.0213 41.0557C41.0594 40.9629 41.1155 40.8785 41.1864 40.8075C41.2573 40.7365 41.3416 40.6803 41.4344 40.6422C41.5272 40.604 41.6267 40.5844 41.727 40.5849ZM19.3106 40.8375C19.4201 40.9888 19.6869 41.3901 19.7655 41.6269C19.8609 41.9134 19.6385 42.1384 19.601 42.1743C18.3508 43.2021 17.417 43.7366 16.8013 44.0119C16.1842 44.2882 15.9388 44.2987 15.9017 44.3047C15.3649 44.3698 15.2974 44.381 15.2004 44.2132C15.058 43.9728 14.8873 43.5754 14.8429 43.4718C17.6081 42.8387 19.0458 41.1556 19.3106 40.8375ZM36.3357 42.665C36.064 42.6653 35.8035 42.7735 35.6115 42.9657C35.4195 43.158 35.3116 43.4185 35.3115 43.6902V51.5777C35.3116 51.8494 35.4195 52.1099 35.6115 52.302C35.8036 52.4941 36.0641 52.6021 36.3357 52.6023H38.2964C38.568 52.6021 38.8284 52.4941 39.0205 52.3021C39.2125 52.1101 39.3205 51.8496 39.3207 51.578V43.6902C39.3206 43.4185 39.2127 43.158 39.0206 42.9657C38.8286 42.7735 38.5681 42.6653 38.2964 42.665H36.3357ZM36.3357 42.9271H38.2964C38.3968 42.9265 38.4963 42.9459 38.5891 42.984C38.682 43.0221 38.7664 43.0783 38.8374 43.1493C38.9083 43.2203 38.9645 43.3046 39.0027 43.3975C39.0408 43.4904 39.0601 43.5899 39.0595 43.6902V51.5777C39.0601 51.6781 39.0408 51.7776 39.0026 51.8704C38.9645 51.9632 38.9083 52.0476 38.8373 52.1185C38.7663 52.1895 38.682 52.2457 38.5891 52.2837C38.4963 52.3218 38.3968 52.3411 38.2964 52.3405H36.3361C36.2357 52.3411 36.1362 52.3219 36.0434 52.2838C35.9506 52.2457 35.8662 52.1896 35.7952 52.1187C35.7243 52.0477 35.6681 51.9634 35.6299 51.8706C35.5917 51.7778 35.5724 51.6784 35.573 51.578V43.6902C35.5723 43.5899 35.5917 43.4904 35.6298 43.3975C35.6679 43.3046 35.7241 43.2203 35.7951 43.1493C35.8661 43.0783 35.9505 43.0221 36.0433 42.984C36.1362 42.9459 36.2353 42.9265 36.3357 42.9271ZM30.9447 46.9801C30.673 46.9802 30.4125 47.0881 30.2202 47.2801C30.028 47.4722 29.9199 47.7326 29.9195 48.0043V51.578C29.9199 51.8497 30.028 52.1101 30.2201 52.3021C30.4123 52.4942 30.6728 52.6021 30.9444 52.6023H32.9048C33.1764 52.6022 33.4369 52.4943 33.629 52.3022C33.8212 52.1102 33.9292 51.8497 33.9294 51.578V48.0043C33.9292 47.7327 33.8212 47.4723 33.6292 47.2803C33.4371 47.0882 33.1767 46.9803 32.9051 46.9801H30.9447ZM30.9447 47.2412H32.9051C33.0054 47.2407 33.1049 47.26 33.1977 47.2982C33.2905 47.3363 33.3748 47.3925 33.4457 47.4635C33.5166 47.5345 33.5728 47.6189 33.6108 47.7117C33.6489 47.8045 33.6682 47.904 33.6675 48.0043V51.578C33.6681 51.6783 33.6488 51.7777 33.6107 51.8705C33.5726 51.9633 33.5165 52.0476 33.4456 52.1185C33.3747 52.1894 33.2904 52.2456 33.1976 52.2837C33.1048 52.3218 33.0054 52.3411 32.9051 52.3405H30.9447C30.8444 52.3411 30.7449 52.3219 30.6521 52.2838C30.5593 52.2457 30.4749 52.1896 30.4039 52.1187C30.333 52.0477 30.2768 51.9634 30.2386 51.8706C30.2004 51.7778 30.1811 51.6784 30.1817 51.578V48.0043C30.1811 47.904 30.2004 47.8045 30.2386 47.7116C30.2767 47.6188 30.3329 47.5345 30.4039 47.4635C30.4749 47.3925 30.5592 47.3363 30.6521 47.2982C30.7449 47.26 30.8444 47.2407 30.9447 47.2412Z" fill="#691A36"/>
<defs>
<linearGradient id="paint0_linear_2877_7881" x1="35" y1="0" x2="35" y2="70" gradientUnits="userSpaceOnUse">
<stop stop-color="white"/>
<stop offset="0.802671" stop-color="#DFCEFF"/>
<stop offset="1" stop-color="#B58FFF"/>
</linearGradient>
</defs>
</svg>
