<svg width="1838" height="1059" viewBox="0 0 1838 1059" fill="none" xmlns="http://www.w3.org/2000/svg">
<g filter="url(#filter0_d_2411_488)">
<g clip-path="url(#clip0_2411_488)">
<rect x="9" width="1820" height="1026" rx="30" fill="url(#paint0_radial_2411_488)"/>
<path d="M330.641 471.953C347.368 472.826 363.084 480.18 374.469 492.432L326.612 535.538L278.756 578.645C267.757 566.046 262.08 549.65 262.953 532.922C263.844 515.861 271.476 499.853 284.17 488.419C296.864 476.985 313.58 471.062 330.641 471.953L330.692 470.97L330.641 471.953Z" stroke="white" stroke-width="2"/>
<path d="M329.301 497.617C339.222 498.134 348.551 502.445 355.37 509.634L326.613 535.537L297.855 561.441C291.415 553.91 288.1 544.183 288.618 534.261C289.153 524.007 293.741 514.385 301.37 507.513C308.999 500.641 319.047 497.081 329.301 497.617L329.353 496.618L329.301 497.617Z" stroke="white" stroke-width="2"/>
<g filter="url(#filter1_f_2411_488)">
<circle cx="33" cy="13" r="134" fill="url(#paint1_linear_2411_488)"/>
</g>
<g filter="url(#filter2_f_2411_488)">
<circle cx="315.529" cy="1014.53" r="134" transform="rotate(-64.5961 315.529 1014.53)" fill="url(#paint2_linear_2411_488)"/>
</g>
<g filter="url(#filter3_f_2411_488)">
<ellipse cx="1807.5" cy="13" rx="126.5" ry="134" fill="url(#paint3_linear_2411_488)"/>
</g>
<g filter="url(#filter4_f_2411_488)">
<ellipse cx="1551.36" cy="978.253" rx="132.618" ry="134" transform="rotate(120 1551.36 978.253)" fill="url(#paint4_linear_2411_488)"/>
</g>
<g filter="url(#filter5_f_2411_488)">
<ellipse cx="953" rx="541" ry="127" fill="url(#paint5_linear_2411_488)" fill-opacity="0.8"/>
</g>
<circle cx="82" cy="992" r="168.25" fill="url(#paint6_linear_2411_488)" fill-opacity="0.09" stroke="url(#paint7_linear_2411_488)" stroke-width="1.5"/>
<circle cx="76.2054" cy="992" r="120.93" fill="url(#paint8_linear_2411_488)" fill-opacity="0.09" stroke="url(#paint9_linear_2411_488)" stroke-width="1.5"/>
<circle cx="65.5831" cy="991.999" r="78.4386" fill="url(#paint10_linear_2411_488)" fill-opacity="0.09" stroke="url(#paint11_linear_2411_488)" stroke-width="1.5"/>
<circle cx="1793" cy="976" r="167.75" transform="rotate(-90 1793 976)" fill="url(#paint12_linear_2411_488)" fill-opacity="0.09" stroke="url(#paint13_linear_2411_488)" stroke-width="2.5"/>
<circle cx="1793" cy="981.795" r="120.43" transform="rotate(-90 1793 981.795)" fill="url(#paint14_linear_2411_488)" fill-opacity="0.09" stroke="url(#paint15_linear_2411_488)" stroke-width="2.5"/>
<circle cx="1793" cy="992.417" r="77.9386" transform="rotate(-90 1793 992.417)" fill="url(#paint16_linear_2411_488)" fill-opacity="0.09" stroke="url(#paint17_linear_2411_488)" stroke-width="2.5"/>
<path opacity="0.8" fill-rule="evenodd" clip-rule="evenodd" d="M219.688 123.638C221.87 123.638 223.689 122.183 224.235 120H219.688H215.14C215.686 122.001 217.505 123.638 219.688 123.638ZM201.681 121.091C200.408 121.273 199.18 121.455 197.952 121.637C196.725 121.819 195.497 122 194.224 122.182C195.133 123.092 196.224 123.456 197.498 123.456C199.316 123.637 200.953 122.546 201.681 121.091ZM245.152 122.365C244.243 123.092 243.151 123.638 241.878 123.638C240.059 123.638 238.604 122.547 237.695 121.273C239.496 121.402 241.297 121.713 243.034 122.012C243.752 122.136 244.46 122.258 245.152 122.365ZM153.299 147.283C155.911 147.283 158.028 145.166 158.028 142.554C158.028 139.942 155.911 137.825 153.299 137.825C150.688 137.825 148.57 139.942 148.57 142.554C148.57 145.166 150.688 147.283 153.299 147.283ZM180.219 142.554C180.219 145.166 178.101 147.283 175.49 147.283C172.878 147.283 170.76 145.166 170.76 142.554C170.76 139.942 172.878 137.825 175.49 137.825C178.101 137.825 180.219 139.942 180.219 142.554ZM197.498 147.283C200.109 147.283 202.227 145.166 202.227 142.554C202.227 139.942 200.109 137.825 197.498 137.825C194.886 137.825 192.769 139.942 192.769 142.554C192.769 145.166 194.886 147.283 197.498 147.283ZM224.417 142.554C224.417 145.166 222.3 147.283 219.688 147.283C217.076 147.283 214.959 145.166 214.959 142.554C214.959 139.942 217.076 137.825 219.688 137.825C222.3 137.825 224.417 139.942 224.417 142.554ZM241.878 147.283C244.49 147.283 246.607 145.166 246.607 142.554C246.607 139.942 244.49 137.825 241.878 137.825C239.266 137.825 237.149 139.942 237.149 142.554C237.149 145.166 239.266 147.283 241.878 147.283ZM268.797 142.554C268.797 145.166 266.68 147.283 264.068 147.283C261.456 147.283 259.339 145.166 259.339 142.554C259.339 139.942 261.456 137.825 264.068 137.825C266.68 137.825 268.797 139.942 268.797 142.554ZM286.076 147.283C288.688 147.283 290.805 145.166 290.805 142.554C290.805 139.942 288.688 137.825 286.076 137.825C283.465 137.825 281.347 139.942 281.347 142.554C281.347 145.166 283.465 147.283 286.076 147.283ZM135.838 166.017C135.838 168.629 133.721 170.746 131.109 170.746C128.497 170.746 126.38 168.629 126.38 166.017C126.38 163.405 128.497 161.288 131.109 161.288C133.721 161.288 135.838 163.405 135.838 166.017ZM153.299 170.746C155.911 170.746 158.028 168.629 158.028 166.017C158.028 163.405 155.911 161.288 153.299 161.288C150.688 161.288 148.57 163.405 148.57 166.017C148.57 168.629 150.688 170.746 153.299 170.746ZM180.219 166.017C180.219 168.629 178.101 170.746 175.49 170.746C172.878 170.746 170.76 168.629 170.76 166.017C170.76 163.405 172.878 161.288 175.49 161.288C178.101 161.288 180.219 163.405 180.219 166.017ZM197.498 170.746C200.109 170.746 202.227 168.629 202.227 166.017C202.227 163.405 200.109 161.288 197.498 161.288C194.886 161.288 192.769 163.405 192.769 166.017C192.769 168.629 194.886 170.746 197.498 170.746ZM224.417 166.017C224.417 168.629 222.3 170.746 219.688 170.746C217.076 170.746 214.959 168.629 214.959 166.017C214.959 163.405 217.076 161.288 219.688 161.288C222.3 161.288 224.417 163.405 224.417 166.017ZM241.878 170.746C244.49 170.746 246.607 168.629 246.607 166.017C246.607 163.405 244.49 161.288 241.878 161.288C239.266 161.288 237.149 163.405 237.149 166.017C237.149 168.629 239.266 170.746 241.878 170.746ZM268.797 166.017C268.797 168.629 266.68 170.746 264.068 170.746C261.456 170.746 259.339 168.629 259.339 166.017C259.339 163.405 261.456 161.288 264.068 161.288C266.68 161.288 268.797 163.405 268.797 166.017ZM286.076 170.746C288.688 170.746 290.805 168.629 290.805 166.017C290.805 163.405 288.688 161.288 286.076 161.288C283.465 161.288 281.347 163.405 281.347 166.017C281.347 168.629 283.465 170.746 286.076 170.746ZM312.996 166.017C312.996 168.629 310.878 170.746 308.267 170.746C305.655 170.746 303.538 168.629 303.538 166.017C303.538 163.405 305.655 161.288 308.267 161.288C310.878 161.288 312.996 163.405 312.996 166.017ZM108.919 194.391C111.531 194.391 113.648 192.274 113.648 189.662C113.648 187.051 111.531 184.933 108.919 184.933C106.307 184.933 104.19 187.051 104.19 189.662C104.19 192.274 106.307 194.391 108.919 194.391ZM135.838 189.662C135.838 192.274 133.721 194.391 131.109 194.391C128.497 194.391 126.38 192.274 126.38 189.662C126.38 187.051 128.497 184.933 131.109 184.933C133.721 184.933 135.838 187.051 135.838 189.662ZM153.299 194.391C155.911 194.391 158.028 192.274 158.028 189.662C158.028 187.051 155.911 184.933 153.299 184.933C150.688 184.933 148.57 187.051 148.57 189.662C148.57 192.274 150.688 194.391 153.299 194.391ZM180.219 189.662C180.219 192.274 178.101 194.391 175.49 194.391C172.878 194.391 170.76 192.274 170.76 189.662C170.76 187.051 172.878 184.933 175.49 184.933C178.101 184.933 180.219 187.051 180.219 189.662ZM197.498 194.391C200.109 194.391 202.227 192.274 202.227 189.662C202.227 187.051 200.109 184.933 197.498 184.933C194.886 184.933 192.769 187.051 192.769 189.662C192.769 192.274 194.886 194.391 197.498 194.391ZM224.417 189.662C224.417 192.274 222.3 194.391 219.688 194.391C217.076 194.391 214.959 192.274 214.959 189.662C214.959 187.051 217.076 184.933 219.688 184.933C222.3 184.933 224.417 187.051 224.417 189.662ZM241.878 194.391C244.49 194.391 246.607 192.274 246.607 189.662C246.607 187.051 244.49 184.933 241.878 184.933C239.266 184.933 237.149 187.051 237.149 189.662C237.149 192.274 239.266 194.391 241.878 194.391ZM268.797 189.662C268.797 192.274 266.68 194.391 264.068 194.391C261.456 194.391 259.339 192.274 259.339 189.662C259.339 187.051 261.456 184.933 264.068 184.933C266.68 184.933 268.797 187.051 268.797 189.662ZM286.076 194.391C288.688 194.391 290.805 192.274 290.805 189.662C290.805 187.051 288.688 184.933 286.076 184.933C283.465 184.933 281.347 187.051 281.347 189.662C281.347 192.274 283.465 194.391 286.076 194.391ZM312.996 189.662C312.996 192.274 310.878 194.391 308.267 194.391C305.655 194.391 303.538 192.274 303.538 189.662C303.538 187.051 305.655 184.933 308.267 184.933C310.878 184.933 312.996 187.051 312.996 189.662ZM330.456 194.391C333.068 194.391 335.185 192.274 335.185 189.662C335.185 187.051 333.068 184.933 330.456 184.933C327.845 184.933 325.727 187.051 325.727 189.662C325.727 192.274 327.845 194.391 330.456 194.391ZM88.7298 208.942C90.3668 209.67 91.4581 211.307 91.4581 213.307C91.4581 216.036 89.4574 218.037 86.911 218.037C86.3653 218.037 86.0015 218.036 85.6377 217.855C86.5471 214.763 87.6383 211.853 88.7295 208.943L88.7298 208.942ZM108.919 218.037C111.531 218.037 113.648 215.92 113.648 213.308C113.648 210.696 111.531 208.579 108.919 208.579C106.307 208.579 104.19 210.696 104.19 213.308C104.19 215.92 106.307 218.037 108.919 218.037ZM135.838 213.308C135.838 215.92 133.721 218.037 131.109 218.037C128.497 218.037 126.38 215.92 126.38 213.308C126.38 210.696 128.497 208.579 131.109 208.579C133.721 208.579 135.838 210.696 135.838 213.308ZM153.299 218.037C155.911 218.037 158.028 215.92 158.028 213.308C158.028 210.696 155.911 208.579 153.299 208.579C150.688 208.579 148.57 210.696 148.57 213.308C148.57 215.92 150.688 218.037 153.299 218.037ZM180.219 213.308C180.219 215.92 178.101 218.037 175.49 218.037C172.878 218.037 170.76 215.92 170.76 213.308C170.76 210.696 172.878 208.579 175.49 208.579C178.101 208.579 180.219 210.696 180.219 213.308ZM197.498 218.037C200.109 218.037 202.227 215.92 202.227 213.308C202.227 210.696 200.109 208.579 197.498 208.579C194.886 208.579 192.769 210.696 192.769 213.308C192.769 215.92 194.886 218.037 197.498 218.037ZM224.417 213.308C224.417 215.92 222.3 218.037 219.688 218.037C217.076 218.037 214.959 215.92 214.959 213.308C214.959 210.696 217.076 208.579 219.688 208.579C222.3 208.579 224.417 210.696 224.417 213.308ZM241.878 218.037C244.49 218.037 246.607 215.92 246.607 213.308C246.607 210.696 244.49 208.579 241.878 208.579C239.266 208.579 237.149 210.696 237.149 213.308C237.149 215.92 239.266 218.037 241.878 218.037ZM268.797 213.308C268.797 215.92 266.68 218.037 264.068 218.037C261.456 218.037 259.339 215.92 259.339 213.308C259.339 210.696 261.456 208.579 264.068 208.579C266.68 208.579 268.797 210.696 268.797 213.308ZM286.076 218.037C288.688 218.037 290.805 215.92 290.805 213.308C290.805 210.696 288.688 208.579 286.076 208.579C283.465 208.579 281.347 210.696 281.347 213.308C281.347 215.92 283.465 218.037 286.076 218.037ZM312.996 213.308C312.996 215.92 310.878 218.037 308.267 218.037C305.655 218.037 303.538 215.92 303.538 213.308C303.538 210.696 305.655 208.579 308.267 208.579C310.878 208.579 312.996 210.696 312.996 213.308ZM330.456 218.037C333.068 218.037 335.185 215.92 335.185 213.308C335.185 210.696 333.068 208.579 330.456 208.579C327.845 208.579 325.727 210.696 325.727 213.308C325.727 215.92 327.845 218.037 330.456 218.037ZM352.646 218.037C350.1 218.037 347.917 215.854 347.917 213.307C347.917 211.489 349.009 209.852 350.827 208.942C351.919 211.852 353.01 214.944 353.92 217.855C353.556 218.036 353.01 218.037 352.646 218.037ZM86.729 241.682C89.3408 241.682 91.4581 239.565 91.4581 236.953C91.4581 234.341 89.3408 232.224 86.729 232.224C84.1173 232.224 82 234.341 82 236.953C82 239.565 84.1173 241.682 86.729 241.682ZM113.648 236.953C113.648 239.565 111.531 241.682 108.919 241.682C106.307 241.682 104.19 239.565 104.19 236.953C104.19 234.341 106.307 232.224 108.919 232.224C111.531 232.224 113.648 234.341 113.648 236.953ZM131.109 241.682C133.721 241.682 135.838 239.565 135.838 236.953C135.838 234.341 133.721 232.224 131.109 232.224C128.497 232.224 126.38 234.341 126.38 236.953C126.38 239.565 128.497 241.682 131.109 241.682ZM158.028 236.953C158.028 239.565 155.911 241.682 153.299 241.682C150.688 241.682 148.57 239.565 148.57 236.953C148.57 234.341 150.688 232.224 153.299 232.224C155.911 232.224 158.028 234.341 158.028 236.953ZM175.49 241.682C178.101 241.682 180.219 239.565 180.219 236.953C180.219 234.341 178.101 232.224 175.49 232.224C172.878 232.224 170.76 234.341 170.76 236.953C170.76 239.565 172.878 241.682 175.49 241.682ZM202.227 236.953C202.227 239.565 200.109 241.682 197.498 241.682C194.886 241.682 192.769 239.565 192.769 236.953C192.769 234.341 194.886 232.224 197.498 232.224C200.109 232.224 202.227 234.341 202.227 236.953ZM219.688 241.682C222.3 241.682 224.417 239.565 224.417 236.953C224.417 234.341 222.3 232.224 219.688 232.224C217.076 232.224 214.959 234.341 214.959 236.953C214.959 239.565 217.076 241.682 219.688 241.682ZM246.607 236.953C246.607 239.565 244.49 241.682 241.878 241.682C239.266 241.682 237.149 239.565 237.149 236.953C237.149 234.341 239.266 232.224 241.878 232.224C244.49 232.224 246.607 234.341 246.607 236.953ZM264.068 241.682C266.68 241.682 268.797 239.565 268.797 236.953C268.797 234.341 266.68 232.224 264.068 232.224C261.456 232.224 259.339 234.341 259.339 236.953C259.339 239.565 261.456 241.682 264.068 241.682ZM290.805 236.953C290.805 239.565 288.688 241.682 286.076 241.682C283.465 241.682 281.347 239.565 281.347 236.953C281.347 234.341 283.465 232.224 286.076 232.224C288.688 232.224 290.805 234.341 290.805 236.953ZM308.267 241.682C310.878 241.682 312.996 239.565 312.996 236.953C312.996 234.341 310.878 232.224 308.267 232.224C305.655 232.224 303.538 234.341 303.538 236.953C303.538 239.565 305.655 241.682 308.267 241.682ZM335.185 236.953C335.185 239.565 333.068 241.682 330.456 241.682C327.845 241.682 325.727 239.565 325.727 236.953C325.727 234.341 327.845 232.224 330.456 232.224C333.068 232.224 335.185 234.341 335.185 236.953ZM352.646 241.682C355.258 241.682 357.375 239.565 357.375 236.953C357.375 234.341 355.258 232.224 352.646 232.224C350.035 232.224 347.917 234.341 347.917 236.953C347.917 239.565 350.035 241.682 352.646 241.682ZM91.4581 260.598C91.4581 263.21 89.3408 265.327 86.729 265.327C84.1173 265.327 82 263.21 82 260.598C82 257.986 84.1173 255.869 86.729 255.869C89.3408 255.869 91.4581 257.986 91.4581 260.598ZM108.919 265.327C111.531 265.327 113.648 263.21 113.648 260.598C113.648 257.986 111.531 255.869 108.919 255.869C106.307 255.869 104.19 257.986 104.19 260.598C104.19 263.21 106.307 265.327 108.919 265.327ZM135.838 260.598C135.838 263.21 133.721 265.327 131.109 265.327C128.497 265.327 126.38 263.21 126.38 260.598C126.38 257.986 128.497 255.869 131.109 255.869C133.721 255.869 135.838 257.986 135.838 260.598ZM153.299 265.327C155.911 265.327 158.028 263.21 158.028 260.598C158.028 257.986 155.911 255.869 153.299 255.869C150.688 255.869 148.57 257.986 148.57 260.598C148.57 263.21 150.688 265.327 153.299 265.327ZM180.219 260.598C180.219 263.21 178.101 265.327 175.49 265.327C172.878 265.327 170.76 263.21 170.76 260.598C170.76 257.986 172.878 255.869 175.49 255.869C178.101 255.869 180.219 257.986 180.219 260.598ZM197.498 265.327C200.109 265.327 202.227 263.21 202.227 260.598C202.227 257.986 200.109 255.869 197.498 255.869C194.886 255.869 192.769 257.986 192.769 260.598C192.769 263.21 194.886 265.327 197.498 265.327ZM224.417 260.598C224.417 263.21 222.3 265.327 219.688 265.327C217.076 265.327 214.959 263.21 214.959 260.598C214.959 257.986 217.076 255.869 219.688 255.869C222.3 255.869 224.417 257.986 224.417 260.598ZM241.878 265.327C244.49 265.327 246.607 263.21 246.607 260.598C246.607 257.986 244.49 255.869 241.878 255.869C239.266 255.869 237.149 257.986 237.149 260.598C237.149 263.21 239.266 265.327 241.878 265.327ZM268.797 260.598C268.797 263.21 266.68 265.327 264.068 265.327C261.456 265.327 259.339 263.21 259.339 260.598C259.339 257.986 261.456 255.869 264.068 255.869C266.68 255.869 268.797 257.986 268.797 260.598ZM286.076 265.327C288.688 265.327 290.805 263.21 290.805 260.598C290.805 257.986 288.688 255.869 286.076 255.869C283.465 255.869 281.347 257.986 281.347 260.598C281.347 263.21 283.465 265.327 286.076 265.327ZM312.996 260.598C312.996 263.21 310.878 265.327 308.267 265.327C305.655 265.327 303.538 263.21 303.538 260.598C303.538 257.986 305.655 255.869 308.267 255.869C310.878 255.869 312.996 257.986 312.996 260.598ZM330.456 265.327C333.068 265.327 335.185 263.21 335.185 260.598C335.185 257.986 333.068 255.869 330.456 255.869C327.845 255.869 325.727 257.986 325.727 260.598C325.727 263.21 327.845 265.327 330.456 265.327ZM357.375 260.598C357.375 263.21 355.258 265.327 352.646 265.327C350.035 265.327 347.917 263.21 347.917 260.598C347.917 257.986 350.035 255.869 352.646 255.869C355.258 255.869 357.375 257.986 357.375 260.598ZM86.729 288.972C89.3408 288.972 91.4581 286.855 91.4581 284.243C91.4581 281.632 89.3408 279.514 86.729 279.514C84.1173 279.514 82 281.632 82 284.243C82 286.855 84.1173 288.972 86.729 288.972ZM113.648 284.243C113.648 286.855 111.531 288.972 108.919 288.972C106.307 288.972 104.19 286.855 104.19 284.243C104.19 281.632 106.307 279.514 108.919 279.514C111.531 279.514 113.648 281.632 113.648 284.243ZM131.109 288.972C133.721 288.972 135.838 286.855 135.838 284.243C135.838 281.632 133.721 279.514 131.109 279.514C128.497 279.514 126.38 281.632 126.38 284.243C126.38 286.855 128.497 288.972 131.109 288.972ZM158.028 284.243C158.028 286.855 155.911 288.972 153.299 288.972C150.688 288.972 148.57 286.855 148.57 284.243C148.57 281.632 150.688 279.514 153.299 279.514C155.911 279.514 158.028 281.632 158.028 284.243ZM175.49 288.972C178.101 288.972 180.219 286.855 180.219 284.243C180.219 281.632 178.101 279.514 175.49 279.514C172.878 279.514 170.76 281.632 170.76 284.243C170.76 286.855 172.878 288.972 175.49 288.972ZM202.227 284.243C202.227 286.855 200.109 288.972 197.498 288.972C194.886 288.972 192.769 286.855 192.769 284.243C192.769 281.632 194.886 279.514 197.498 279.514C200.109 279.514 202.227 281.632 202.227 284.243ZM219.688 288.972C222.3 288.972 224.417 286.855 224.417 284.243C224.417 281.632 222.3 279.514 219.688 279.514C217.076 279.514 214.959 281.632 214.959 284.243C214.959 286.855 217.076 288.972 219.688 288.972ZM246.607 284.243C246.607 286.855 244.49 288.972 241.878 288.972C239.266 288.972 237.149 286.855 237.149 284.243C237.149 281.632 239.266 279.514 241.878 279.514C244.49 279.514 246.607 281.632 246.607 284.243ZM264.068 288.972C266.68 288.972 268.797 286.855 268.797 284.243C268.797 281.632 266.68 279.514 264.068 279.514C261.456 279.514 259.339 281.632 259.339 284.243C259.339 286.855 261.456 288.972 264.068 288.972ZM290.805 284.243C290.805 286.855 288.688 288.972 286.076 288.972C283.465 288.972 281.347 286.855 281.347 284.243C281.347 281.632 283.465 279.514 286.076 279.514C288.688 279.514 290.805 281.632 290.805 284.243ZM308.267 288.972C310.878 288.972 312.996 286.855 312.996 284.243C312.996 281.632 310.878 279.514 308.267 279.514C305.655 279.514 303.538 281.632 303.538 284.243C303.538 286.855 305.655 288.972 308.267 288.972ZM335.185 284.243C335.185 286.855 333.068 288.972 330.456 288.972C327.845 288.972 325.727 286.855 325.727 284.243C325.727 281.632 327.845 279.514 330.456 279.514C333.068 279.514 335.185 281.632 335.185 284.243ZM352.646 288.972C355.258 288.972 357.375 286.855 357.375 284.243C357.375 281.632 355.258 279.514 352.646 279.514C350.035 279.514 347.917 281.632 347.917 284.243C347.917 286.855 350.035 288.972 352.646 288.972ZM86.7287 303.159C89.2751 303.159 91.4578 305.342 91.4578 307.888C91.4578 309.889 90.3664 311.526 88.5476 312.253C87.4563 309.343 86.365 306.251 85.4555 303.341C85.8193 303.159 86.3649 303.159 86.7287 303.159ZM108.919 312.617C111.531 312.617 113.648 310.5 113.648 307.888C113.648 305.276 111.531 303.159 108.919 303.159C106.307 303.159 104.19 305.276 104.19 307.888C104.19 310.5 106.307 312.617 108.919 312.617ZM135.838 307.888C135.838 310.5 133.721 312.617 131.109 312.617C128.497 312.617 126.38 310.5 126.38 307.888C126.38 305.276 128.497 303.159 131.109 303.159C133.721 303.159 135.838 305.276 135.838 307.888ZM153.299 312.617C155.911 312.617 158.028 310.5 158.028 307.888C158.028 305.276 155.911 303.159 153.299 303.159C150.688 303.159 148.57 305.276 148.57 307.888C148.57 310.5 150.688 312.617 153.299 312.617ZM180.219 307.888C180.219 310.5 178.101 312.617 175.49 312.617C172.878 312.617 170.76 310.5 170.76 307.888C170.76 305.276 172.878 303.159 175.49 303.159C178.101 303.159 180.219 305.276 180.219 307.888ZM197.498 312.617C200.109 312.617 202.227 310.5 202.227 307.888C202.227 305.276 200.109 303.159 197.498 303.159C194.886 303.159 192.769 305.276 192.769 307.888C192.769 310.5 194.886 312.617 197.498 312.617ZM224.417 307.888C224.417 310.5 222.3 312.617 219.688 312.617C217.076 312.617 214.959 310.5 214.959 307.888C214.959 305.276 217.076 303.159 219.688 303.159C222.3 303.159 224.417 305.276 224.417 307.888ZM241.878 312.617C244.49 312.617 246.607 310.5 246.607 307.888C246.607 305.276 244.49 303.159 241.878 303.159C239.266 303.159 237.149 305.276 237.149 307.888C237.149 310.5 239.266 312.617 241.878 312.617ZM268.797 307.888C268.797 310.5 266.68 312.617 264.068 312.617C261.456 312.617 259.339 310.5 259.339 307.888C259.339 305.276 261.456 303.159 264.068 303.159C266.68 303.159 268.797 305.276 268.797 307.888ZM286.076 312.617C288.688 312.617 290.805 310.5 290.805 307.888C290.805 305.276 288.688 303.159 286.076 303.159C283.465 303.159 281.347 305.276 281.347 307.888C281.347 310.5 283.465 312.617 286.076 312.617ZM312.996 307.888C312.996 310.5 310.878 312.617 308.267 312.617C305.655 312.617 303.538 310.5 303.538 307.888C303.538 305.276 305.655 303.159 308.267 303.159C310.878 303.159 312.996 305.276 312.996 307.888ZM330.456 312.617C333.068 312.617 335.185 310.5 335.185 307.888C335.185 305.276 333.068 303.159 330.456 303.159C327.845 303.159 325.727 305.276 325.727 307.888C325.727 310.5 327.845 312.617 330.456 312.617ZM350.646 312.253C349.009 311.526 347.917 309.889 347.917 307.888C347.917 305.342 349.918 303.159 352.464 303.159C353.01 303.159 353.374 303.159 353.738 303.341C352.828 306.432 351.737 309.342 350.646 312.252L350.646 312.252L350.646 312.253ZM108.919 336.262C111.531 336.262 113.648 334.145 113.648 331.533C113.648 328.922 111.531 326.804 108.919 326.804C106.307 326.804 104.19 328.922 104.19 331.533C104.19 334.145 106.307 336.262 108.919 336.262ZM135.838 331.533C135.838 334.145 133.721 336.262 131.109 336.262C128.497 336.262 126.38 334.145 126.38 331.533C126.38 328.922 128.497 326.804 131.109 326.804C133.721 326.804 135.838 328.922 135.838 331.533ZM153.299 336.262C155.911 336.262 158.028 334.145 158.028 331.533C158.028 328.922 155.911 326.804 153.299 326.804C150.688 326.804 148.57 328.922 148.57 331.533C148.57 334.145 150.688 336.262 153.299 336.262ZM180.219 331.533C180.219 334.145 178.101 336.262 175.49 336.262C172.878 336.262 170.76 334.145 170.76 331.533C170.76 328.922 172.878 326.804 175.49 326.804C178.101 326.804 180.219 328.922 180.219 331.533ZM197.498 336.262C200.109 336.262 202.227 334.145 202.227 331.533C202.227 328.922 200.109 326.804 197.498 326.804C194.886 326.804 192.769 328.922 192.769 331.533C192.769 334.145 194.886 336.262 197.498 336.262ZM224.417 331.533C224.417 334.145 222.3 336.262 219.688 336.262C217.076 336.262 214.959 334.145 214.959 331.533C214.959 328.922 217.076 326.804 219.688 326.804C222.3 326.804 224.417 328.922 224.417 331.533ZM241.878 336.262C244.49 336.262 246.607 334.145 246.607 331.533C246.607 328.922 244.49 326.804 241.878 326.804C239.266 326.804 237.149 328.922 237.149 331.533C237.149 334.145 239.266 336.262 241.878 336.262ZM268.797 331.533C268.797 334.145 266.68 336.262 264.068 336.262C261.456 336.262 259.339 334.145 259.339 331.533C259.339 328.922 261.456 326.804 264.068 326.804C266.68 326.804 268.797 328.922 268.797 331.533ZM286.076 336.262C288.688 336.262 290.805 334.145 290.805 331.533C290.805 328.922 288.688 326.804 286.076 326.804C283.465 326.804 281.347 328.922 281.347 331.533C281.347 334.145 283.465 336.262 286.076 336.262ZM312.996 331.533C312.996 334.145 310.878 336.262 308.267 336.262C305.655 336.262 303.538 334.145 303.538 331.533C303.538 328.922 305.655 326.804 308.267 326.804C310.878 326.804 312.996 328.922 312.996 331.533ZM330.456 336.262C333.068 336.262 335.185 334.145 335.185 331.533C335.185 328.922 333.068 326.804 330.456 326.804C327.845 326.804 325.727 328.922 325.727 331.533C325.727 334.145 327.845 336.262 330.456 336.262ZM135.838 355.178C135.838 357.79 133.721 359.908 131.109 359.908C128.497 359.908 126.38 357.79 126.38 355.178C126.38 352.567 128.497 350.449 131.109 350.449C133.721 350.449 135.838 352.567 135.838 355.178ZM153.299 359.908C155.911 359.908 158.028 357.79 158.028 355.178C158.028 352.567 155.911 350.449 153.299 350.449C150.688 350.449 148.57 352.567 148.57 355.178C148.57 357.79 150.688 359.908 153.299 359.908ZM180.219 355.178C180.219 357.79 178.101 359.908 175.49 359.908C172.878 359.908 170.76 357.79 170.76 355.178C170.76 352.567 172.878 350.449 175.49 350.449C178.101 350.449 180.219 352.567 180.219 355.178ZM197.498 359.908C200.109 359.908 202.227 357.79 202.227 355.178C202.227 352.567 200.109 350.449 197.498 350.449C194.886 350.449 192.769 352.567 192.769 355.178C192.769 357.79 194.886 359.908 197.498 359.908ZM224.417 355.178C224.417 357.79 222.3 359.908 219.688 359.908C217.076 359.908 214.959 357.79 214.959 355.178C214.959 352.567 217.076 350.449 219.688 350.449C222.3 350.449 224.417 352.567 224.417 355.178ZM241.878 359.908C244.49 359.908 246.607 357.79 246.607 355.178C246.607 352.567 244.49 350.449 241.878 350.449C239.266 350.449 237.149 352.567 237.149 355.178C237.149 357.79 239.266 359.908 241.878 359.908ZM268.797 355.178C268.797 357.79 266.68 359.908 264.068 359.908C261.456 359.908 259.339 357.79 259.339 355.178C259.339 352.567 261.456 350.449 264.068 350.449C266.68 350.449 268.797 352.567 268.797 355.178ZM286.076 359.908C288.688 359.908 290.805 357.79 290.805 355.178C290.805 352.567 288.688 350.449 286.076 350.449C283.465 350.449 281.347 352.567 281.347 355.178C281.347 357.79 283.465 359.908 286.076 359.908ZM312.996 355.178C312.996 357.79 310.878 359.908 308.267 359.908C305.655 359.908 303.538 357.79 303.538 355.178C303.538 352.567 305.655 350.449 308.267 350.449C310.878 350.449 312.996 352.567 312.996 355.178ZM153.299 383.553C155.911 383.553 158.028 381.436 158.028 378.824C158.028 376.212 155.911 374.095 153.299 374.095C150.688 374.095 148.57 376.212 148.57 378.824C148.57 381.436 150.688 383.553 153.299 383.553ZM180.219 378.824C180.219 381.436 178.101 383.553 175.49 383.553C172.878 383.553 170.76 381.436 170.76 378.824C170.76 376.212 172.878 374.095 175.49 374.095C178.101 374.095 180.219 376.212 180.219 378.824ZM197.498 383.553C200.109 383.553 202.227 381.436 202.227 378.824C202.227 376.212 200.109 374.095 197.498 374.095C194.886 374.095 192.769 376.212 192.769 378.824C192.769 381.436 194.886 383.553 197.498 383.553ZM224.417 378.824C224.417 381.436 222.3 383.553 219.688 383.553C217.076 383.553 214.959 381.436 214.959 378.824C214.959 376.212 217.076 374.095 219.688 374.095C222.3 374.095 224.417 376.212 224.417 378.824ZM241.878 383.553C244.49 383.553 246.607 381.436 246.607 378.824C246.607 376.212 244.49 374.095 241.878 374.095C239.266 374.095 237.149 376.212 237.149 378.824C237.149 381.436 239.266 383.553 241.878 383.553ZM268.797 378.824C268.797 381.436 266.68 383.553 264.068 383.553C261.456 383.553 259.339 381.436 259.339 378.824C259.339 376.212 261.456 374.095 264.068 374.095C266.68 374.095 268.797 376.212 268.797 378.824ZM286.076 383.553C288.688 383.553 290.805 381.436 290.805 378.824C290.805 376.212 288.688 374.095 286.076 374.095C283.465 374.095 281.347 376.212 281.347 378.824C281.347 381.436 283.465 383.553 286.076 383.553ZM194.224 399.013C195.133 398.286 196.224 397.74 197.498 397.74C199.316 397.74 200.953 398.831 201.681 400.104C199.88 399.976 198.079 399.665 196.342 399.366L196.341 399.365C195.622 399.241 194.915 399.119 194.224 399.013ZM219.688 397.74C217.505 397.74 215.686 399.195 215.14 401.378H219.688H224.235C223.689 399.195 221.87 397.74 219.688 397.74ZM241.421 399.741C240.194 399.923 238.967 400.105 237.695 400.287C238.604 398.832 240.059 397.74 241.878 397.922C243.151 397.922 244.243 398.286 245.152 399.195C243.878 399.377 242.65 399.559 241.421 399.741Z" fill="url(#paint18_radial_2411_488)"/>
<path opacity="0.7" fill-rule="evenodd" clip-rule="evenodd" d="M1670.69 20.6377C1672.87 20.6377 1674.69 19.1826 1675.23 17H1670.69H1666.14C1666.69 19.0007 1668.5 20.6377 1670.69 20.6377ZM1652.68 18.091C1651.41 18.2729 1650.18 18.4548 1648.95 18.6367C1647.72 18.8186 1646.5 19.0005 1645.22 19.1823C1646.13 20.0918 1647.22 20.4555 1648.5 20.4555C1650.32 20.6374 1651.95 19.5461 1652.68 18.091ZM1696.15 19.3647C1695.24 20.0922 1694.15 20.6379 1692.88 20.6379C1691.06 20.6379 1689.6 19.5466 1688.69 18.2734C1690.5 18.402 1692.3 18.7127 1694.03 19.0122C1694.75 19.1362 1695.46 19.2582 1696.15 19.3647ZM1604.3 44.2831C1606.91 44.2831 1609.03 42.1658 1609.03 39.554C1609.03 36.9422 1606.91 34.825 1604.3 34.825C1601.69 34.825 1599.57 36.9422 1599.57 39.554C1599.57 42.1658 1601.69 44.2831 1604.3 44.2831ZM1631.22 39.554C1631.22 42.1658 1629.1 44.2831 1626.49 44.2831C1623.88 44.2831 1621.76 42.1658 1621.76 39.554C1621.76 36.9422 1623.88 34.825 1626.49 34.825C1629.1 34.825 1631.22 36.9422 1631.22 39.554ZM1648.5 44.2831C1651.11 44.2831 1653.23 42.1658 1653.23 39.554C1653.23 36.9422 1651.11 34.825 1648.5 34.825C1645.89 34.825 1643.77 36.9422 1643.77 39.554C1643.77 42.1658 1645.89 44.2831 1648.5 44.2831ZM1675.42 39.554C1675.42 42.1658 1673.3 44.2831 1670.69 44.2831C1668.08 44.2831 1665.96 42.1658 1665.96 39.554C1665.96 36.9422 1668.08 34.825 1670.69 34.825C1673.3 34.825 1675.42 36.9422 1675.42 39.554ZM1692.88 44.2831C1695.49 44.2831 1697.61 42.1658 1697.61 39.554C1697.61 36.9422 1695.49 34.825 1692.88 34.825C1690.27 34.825 1688.15 36.9422 1688.15 39.554C1688.15 42.1658 1690.27 44.2831 1692.88 44.2831ZM1719.8 39.554C1719.8 42.1658 1717.68 44.2831 1715.07 44.2831C1712.46 44.2831 1710.34 42.1658 1710.34 39.554C1710.34 36.9422 1712.46 34.825 1715.07 34.825C1717.68 34.825 1719.8 36.9422 1719.8 39.554ZM1737.08 44.2831C1739.69 44.2831 1741.81 42.1658 1741.81 39.554C1741.81 36.9422 1739.69 34.825 1737.08 34.825C1734.46 34.825 1732.35 36.9422 1732.35 39.554C1732.35 42.1658 1734.46 44.2831 1737.08 44.2831ZM1586.84 63.017C1586.84 65.6288 1584.72 67.7461 1582.11 67.7461C1579.5 67.7461 1577.38 65.6288 1577.38 63.017C1577.38 60.4053 1579.5 58.288 1582.11 58.288C1584.72 58.288 1586.84 60.4053 1586.84 63.017ZM1604.3 67.7461C1606.91 67.7461 1609.03 65.6288 1609.03 63.017C1609.03 60.4053 1606.91 58.288 1604.3 58.288C1601.69 58.288 1599.57 60.4053 1599.57 63.017C1599.57 65.6288 1601.69 67.7461 1604.3 67.7461ZM1631.22 63.017C1631.22 65.6288 1629.1 67.7461 1626.49 67.7461C1623.88 67.7461 1621.76 65.6288 1621.76 63.017C1621.76 60.4053 1623.88 58.288 1626.49 58.288C1629.1 58.288 1631.22 60.4053 1631.22 63.017ZM1648.5 67.7461C1651.11 67.7461 1653.23 65.6288 1653.23 63.017C1653.23 60.4053 1651.11 58.288 1648.5 58.288C1645.89 58.288 1643.77 60.4053 1643.77 63.017C1643.77 65.6288 1645.89 67.7461 1648.5 67.7461ZM1675.42 63.017C1675.42 65.6288 1673.3 67.7461 1670.69 67.7461C1668.08 67.7461 1665.96 65.6288 1665.96 63.017C1665.96 60.4053 1668.08 58.288 1670.69 58.288C1673.3 58.288 1675.42 60.4053 1675.42 63.017ZM1692.88 67.7461C1695.49 67.7461 1697.61 65.6288 1697.61 63.017C1697.61 60.4053 1695.49 58.288 1692.88 58.288C1690.27 58.288 1688.15 60.4053 1688.15 63.017C1688.15 65.6288 1690.27 67.7461 1692.88 67.7461ZM1719.8 63.017C1719.8 65.6288 1717.68 67.7461 1715.07 67.7461C1712.46 67.7461 1710.34 65.6288 1710.34 63.017C1710.34 60.4053 1712.46 58.288 1715.07 58.288C1717.68 58.288 1719.8 60.4053 1719.8 63.017ZM1737.08 67.7461C1739.69 67.7461 1741.81 65.6288 1741.81 63.017C1741.81 60.4053 1739.69 58.288 1737.08 58.288C1734.46 58.288 1732.35 60.4053 1732.35 63.017C1732.35 65.6288 1734.46 67.7461 1737.08 67.7461ZM1764 63.017C1764 65.6288 1761.88 67.7461 1759.27 67.7461C1756.65 67.7461 1754.54 65.6288 1754.54 63.017C1754.54 60.4053 1756.65 58.288 1759.27 58.288C1761.88 58.288 1764 60.4053 1764 63.017ZM1559.92 91.3915C1562.53 91.3915 1564.65 89.2742 1564.65 86.6624C1564.65 84.0506 1562.53 81.9334 1559.92 81.9334C1557.31 81.9334 1555.19 84.0506 1555.19 86.6624C1555.19 89.2742 1557.31 91.3915 1559.92 91.3915ZM1586.84 86.6624C1586.84 89.2742 1584.72 91.3915 1582.11 91.3915C1579.5 91.3915 1577.38 89.2742 1577.38 86.6624C1577.38 84.0506 1579.5 81.9334 1582.11 81.9334C1584.72 81.9334 1586.84 84.0506 1586.84 86.6624ZM1604.3 91.3915C1606.91 91.3915 1609.03 89.2742 1609.03 86.6624C1609.03 84.0506 1606.91 81.9334 1604.3 81.9334C1601.69 81.9334 1599.57 84.0506 1599.57 86.6624C1599.57 89.2742 1601.69 91.3915 1604.3 91.3915ZM1631.22 86.6624C1631.22 89.2742 1629.1 91.3915 1626.49 91.3915C1623.88 91.3915 1621.76 89.2742 1621.76 86.6624C1621.76 84.0506 1623.88 81.9334 1626.49 81.9334C1629.1 81.9334 1631.22 84.0506 1631.22 86.6624ZM1648.5 91.3915C1651.11 91.3915 1653.23 89.2742 1653.23 86.6624C1653.23 84.0506 1651.11 81.9334 1648.5 81.9334C1645.89 81.9334 1643.77 84.0506 1643.77 86.6624C1643.77 89.2742 1645.89 91.3915 1648.5 91.3915ZM1675.42 86.6624C1675.42 89.2742 1673.3 91.3915 1670.69 91.3915C1668.08 91.3915 1665.96 89.2742 1665.96 86.6624C1665.96 84.0506 1668.08 81.9334 1670.69 81.9334C1673.3 81.9334 1675.42 84.0506 1675.42 86.6624ZM1692.88 91.3915C1695.49 91.3915 1697.61 89.2742 1697.61 86.6624C1697.61 84.0506 1695.49 81.9334 1692.88 81.9334C1690.27 81.9334 1688.15 84.0506 1688.15 86.6624C1688.15 89.2742 1690.27 91.3915 1692.88 91.3915ZM1719.8 86.6624C1719.8 89.2742 1717.68 91.3915 1715.07 91.3915C1712.46 91.3915 1710.34 89.2742 1710.34 86.6624C1710.34 84.0506 1712.46 81.9334 1715.07 81.9334C1717.68 81.9334 1719.8 84.0506 1719.8 86.6624ZM1737.08 91.3915C1739.69 91.3915 1741.81 89.2742 1741.81 86.6624C1741.81 84.0506 1739.69 81.9334 1737.08 81.9334C1734.46 81.9334 1732.35 84.0506 1732.35 86.6624C1732.35 89.2742 1734.46 91.3915 1737.08 91.3915ZM1764 86.6624C1764 89.2742 1761.88 91.3915 1759.27 91.3915C1756.65 91.3915 1754.54 89.2742 1754.54 86.6624C1754.54 84.0506 1756.65 81.9334 1759.27 81.9334C1761.88 81.9334 1764 84.0506 1764 86.6624ZM1781.46 91.3915C1784.07 91.3915 1786.19 89.2742 1786.19 86.6624C1786.19 84.0506 1784.07 81.9334 1781.46 81.9334C1778.84 81.9334 1776.73 84.0506 1776.73 86.6624C1776.73 89.2742 1778.84 91.3915 1781.46 91.3915ZM1539.73 105.942C1541.37 106.67 1542.46 108.307 1542.46 110.307C1542.46 113.036 1540.46 115.037 1537.91 115.037C1537.37 115.037 1537 115.036 1536.64 114.855C1537.55 111.763 1538.64 108.853 1539.73 105.943L1539.73 105.942ZM1559.92 115.037C1562.53 115.037 1564.65 112.92 1564.65 110.308C1564.65 107.696 1562.53 105.579 1559.92 105.579C1557.31 105.579 1555.19 107.696 1555.19 110.308C1555.19 112.92 1557.31 115.037 1559.92 115.037ZM1586.84 110.308C1586.84 112.92 1584.72 115.037 1582.11 115.037C1579.5 115.037 1577.38 112.92 1577.38 110.308C1577.38 107.696 1579.5 105.579 1582.11 105.579C1584.72 105.579 1586.84 107.696 1586.84 110.308ZM1604.3 115.037C1606.91 115.037 1609.03 112.92 1609.03 110.308C1609.03 107.696 1606.91 105.579 1604.3 105.579C1601.69 105.579 1599.57 107.696 1599.57 110.308C1599.57 112.92 1601.69 115.037 1604.3 115.037ZM1631.22 110.308C1631.22 112.92 1629.1 115.037 1626.49 115.037C1623.88 115.037 1621.76 112.92 1621.76 110.308C1621.76 107.696 1623.88 105.579 1626.49 105.579C1629.1 105.579 1631.22 107.696 1631.22 110.308ZM1648.5 115.037C1651.11 115.037 1653.23 112.92 1653.23 110.308C1653.23 107.696 1651.11 105.579 1648.5 105.579C1645.89 105.579 1643.77 107.696 1643.77 110.308C1643.77 112.92 1645.89 115.037 1648.5 115.037ZM1675.42 110.308C1675.42 112.92 1673.3 115.037 1670.69 115.037C1668.08 115.037 1665.96 112.92 1665.96 110.308C1665.96 107.696 1668.08 105.579 1670.69 105.579C1673.3 105.579 1675.42 107.696 1675.42 110.308ZM1692.88 115.037C1695.49 115.037 1697.61 112.92 1697.61 110.308C1697.61 107.696 1695.49 105.579 1692.88 105.579C1690.27 105.579 1688.15 107.696 1688.15 110.308C1688.15 112.92 1690.27 115.037 1692.88 115.037ZM1719.8 110.308C1719.8 112.92 1717.68 115.037 1715.07 115.037C1712.46 115.037 1710.34 112.92 1710.34 110.308C1710.34 107.696 1712.46 105.579 1715.07 105.579C1717.68 105.579 1719.8 107.696 1719.8 110.308ZM1737.08 115.037C1739.69 115.037 1741.81 112.92 1741.81 110.308C1741.81 107.696 1739.69 105.579 1737.08 105.579C1734.46 105.579 1732.35 107.696 1732.35 110.308C1732.35 112.92 1734.46 115.037 1737.08 115.037ZM1764 110.308C1764 112.92 1761.88 115.037 1759.27 115.037C1756.65 115.037 1754.54 112.92 1754.54 110.308C1754.54 107.696 1756.65 105.579 1759.27 105.579C1761.88 105.579 1764 107.696 1764 110.308ZM1781.46 115.037C1784.07 115.037 1786.19 112.92 1786.19 110.308C1786.19 107.696 1784.07 105.579 1781.46 105.579C1778.84 105.579 1776.73 107.696 1776.73 110.308C1776.73 112.92 1778.84 115.037 1781.46 115.037ZM1803.65 115.037C1801.1 115.037 1798.92 112.854 1798.92 110.307C1798.92 108.489 1800.01 106.852 1801.83 105.942C1802.92 108.852 1804.01 111.944 1804.92 114.855C1804.56 115.036 1804.01 115.037 1803.65 115.037ZM1537.73 138.682C1540.34 138.682 1542.46 136.565 1542.46 133.953C1542.46 131.341 1540.34 129.224 1537.73 129.224C1535.12 129.224 1533 131.341 1533 133.953C1533 136.565 1535.12 138.682 1537.73 138.682ZM1564.65 133.953C1564.65 136.565 1562.53 138.682 1559.92 138.682C1557.31 138.682 1555.19 136.565 1555.19 133.953C1555.19 131.341 1557.31 129.224 1559.92 129.224C1562.53 129.224 1564.65 131.341 1564.65 133.953ZM1582.11 138.682C1584.72 138.682 1586.84 136.565 1586.84 133.953C1586.84 131.341 1584.72 129.224 1582.11 129.224C1579.5 129.224 1577.38 131.341 1577.38 133.953C1577.38 136.565 1579.5 138.682 1582.11 138.682ZM1609.03 133.953C1609.03 136.565 1606.91 138.682 1604.3 138.682C1601.69 138.682 1599.57 136.565 1599.57 133.953C1599.57 131.341 1601.69 129.224 1604.3 129.224C1606.91 129.224 1609.03 131.341 1609.03 133.953ZM1626.49 138.682C1629.1 138.682 1631.22 136.565 1631.22 133.953C1631.22 131.341 1629.1 129.224 1626.49 129.224C1623.88 129.224 1621.76 131.341 1621.76 133.953C1621.76 136.565 1623.88 138.682 1626.49 138.682ZM1653.23 133.953C1653.23 136.565 1651.11 138.682 1648.5 138.682C1645.89 138.682 1643.77 136.565 1643.77 133.953C1643.77 131.341 1645.89 129.224 1648.5 129.224C1651.11 129.224 1653.23 131.341 1653.23 133.953ZM1670.69 138.682C1673.3 138.682 1675.42 136.565 1675.42 133.953C1675.42 131.341 1673.3 129.224 1670.69 129.224C1668.08 129.224 1665.96 131.341 1665.96 133.953C1665.96 136.565 1668.08 138.682 1670.69 138.682ZM1697.61 133.953C1697.61 136.565 1695.49 138.682 1692.88 138.682C1690.27 138.682 1688.15 136.565 1688.15 133.953C1688.15 131.341 1690.27 129.224 1692.88 129.224C1695.49 129.224 1697.61 131.341 1697.61 133.953ZM1715.07 138.682C1717.68 138.682 1719.8 136.565 1719.8 133.953C1719.8 131.341 1717.68 129.224 1715.07 129.224C1712.46 129.224 1710.34 131.341 1710.34 133.953C1710.34 136.565 1712.46 138.682 1715.07 138.682ZM1741.81 133.953C1741.81 136.565 1739.69 138.682 1737.08 138.682C1734.46 138.682 1732.35 136.565 1732.35 133.953C1732.35 131.341 1734.46 129.224 1737.08 129.224C1739.69 129.224 1741.81 131.341 1741.81 133.953ZM1759.27 138.682C1761.88 138.682 1764 136.565 1764 133.953C1764 131.341 1761.88 129.224 1759.27 129.224C1756.65 129.224 1754.54 131.341 1754.54 133.953C1754.54 136.565 1756.65 138.682 1759.27 138.682ZM1786.19 133.953C1786.19 136.565 1784.07 138.682 1781.46 138.682C1778.84 138.682 1776.73 136.565 1776.73 133.953C1776.73 131.341 1778.84 129.224 1781.46 129.224C1784.07 129.224 1786.19 131.341 1786.19 133.953ZM1803.65 138.682C1806.26 138.682 1808.38 136.565 1808.38 133.953C1808.38 131.341 1806.26 129.224 1803.65 129.224C1801.03 129.224 1798.92 131.341 1798.92 133.953C1798.92 136.565 1801.03 138.682 1803.65 138.682ZM1542.46 157.598C1542.46 160.21 1540.34 162.327 1537.73 162.327C1535.12 162.327 1533 160.21 1533 157.598C1533 154.986 1535.12 152.869 1537.73 152.869C1540.34 152.869 1542.46 154.986 1542.46 157.598ZM1559.92 162.327C1562.53 162.327 1564.65 160.21 1564.65 157.598C1564.65 154.986 1562.53 152.869 1559.92 152.869C1557.31 152.869 1555.19 154.986 1555.19 157.598C1555.19 160.21 1557.31 162.327 1559.92 162.327ZM1586.84 157.598C1586.84 160.21 1584.72 162.327 1582.11 162.327C1579.5 162.327 1577.38 160.21 1577.38 157.598C1577.38 154.986 1579.5 152.869 1582.11 152.869C1584.72 152.869 1586.84 154.986 1586.84 157.598ZM1604.3 162.327C1606.91 162.327 1609.03 160.21 1609.03 157.598C1609.03 154.986 1606.91 152.869 1604.3 152.869C1601.69 152.869 1599.57 154.986 1599.57 157.598C1599.57 160.21 1601.69 162.327 1604.3 162.327ZM1631.22 157.598C1631.22 160.21 1629.1 162.327 1626.49 162.327C1623.88 162.327 1621.76 160.21 1621.76 157.598C1621.76 154.986 1623.88 152.869 1626.49 152.869C1629.1 152.869 1631.22 154.986 1631.22 157.598ZM1648.5 162.327C1651.11 162.327 1653.23 160.21 1653.23 157.598C1653.23 154.986 1651.11 152.869 1648.5 152.869C1645.89 152.869 1643.77 154.986 1643.77 157.598C1643.77 160.21 1645.89 162.327 1648.5 162.327ZM1675.42 157.598C1675.42 160.21 1673.3 162.327 1670.69 162.327C1668.08 162.327 1665.96 160.21 1665.96 157.598C1665.96 154.986 1668.08 152.869 1670.69 152.869C1673.3 152.869 1675.42 154.986 1675.42 157.598ZM1692.88 162.327C1695.49 162.327 1697.61 160.21 1697.61 157.598C1697.61 154.986 1695.49 152.869 1692.88 152.869C1690.27 152.869 1688.15 154.986 1688.15 157.598C1688.15 160.21 1690.27 162.327 1692.88 162.327ZM1719.8 157.598C1719.8 160.21 1717.68 162.327 1715.07 162.327C1712.46 162.327 1710.34 160.21 1710.34 157.598C1710.34 154.986 1712.46 152.869 1715.07 152.869C1717.68 152.869 1719.8 154.986 1719.8 157.598ZM1737.08 162.327C1739.69 162.327 1741.81 160.21 1741.81 157.598C1741.81 154.986 1739.69 152.869 1737.08 152.869C1734.46 152.869 1732.35 154.986 1732.35 157.598C1732.35 160.21 1734.46 162.327 1737.08 162.327ZM1764 157.598C1764 160.21 1761.88 162.327 1759.27 162.327C1756.65 162.327 1754.54 160.21 1754.54 157.598C1754.54 154.986 1756.65 152.869 1759.27 152.869C1761.88 152.869 1764 154.986 1764 157.598ZM1781.46 162.327C1784.07 162.327 1786.19 160.21 1786.19 157.598C1786.19 154.986 1784.07 152.869 1781.46 152.869C1778.84 152.869 1776.73 154.986 1776.73 157.598C1776.73 160.21 1778.84 162.327 1781.46 162.327ZM1808.38 157.598C1808.38 160.21 1806.26 162.327 1803.65 162.327C1801.03 162.327 1798.92 160.21 1798.92 157.598C1798.92 154.986 1801.03 152.869 1803.65 152.869C1806.26 152.869 1808.38 154.986 1808.38 157.598ZM1537.73 185.972C1540.34 185.972 1542.46 183.855 1542.46 181.243C1542.46 178.632 1540.34 176.514 1537.73 176.514C1535.12 176.514 1533 178.632 1533 181.243C1533 183.855 1535.12 185.972 1537.73 185.972ZM1564.65 181.243C1564.65 183.855 1562.53 185.972 1559.92 185.972C1557.31 185.972 1555.19 183.855 1555.19 181.243C1555.19 178.632 1557.31 176.514 1559.92 176.514C1562.53 176.514 1564.65 178.632 1564.65 181.243ZM1582.11 185.972C1584.72 185.972 1586.84 183.855 1586.84 181.243C1586.84 178.632 1584.72 176.514 1582.11 176.514C1579.5 176.514 1577.38 178.632 1577.38 181.243C1577.38 183.855 1579.5 185.972 1582.11 185.972ZM1609.03 181.243C1609.03 183.855 1606.91 185.972 1604.3 185.972C1601.69 185.972 1599.57 183.855 1599.57 181.243C1599.57 178.632 1601.69 176.514 1604.3 176.514C1606.91 176.514 1609.03 178.632 1609.03 181.243ZM1626.49 185.972C1629.1 185.972 1631.22 183.855 1631.22 181.243C1631.22 178.632 1629.1 176.514 1626.49 176.514C1623.88 176.514 1621.76 178.632 1621.76 181.243C1621.76 183.855 1623.88 185.972 1626.49 185.972ZM1653.23 181.243C1653.23 183.855 1651.11 185.972 1648.5 185.972C1645.89 185.972 1643.77 183.855 1643.77 181.243C1643.77 178.632 1645.89 176.514 1648.5 176.514C1651.11 176.514 1653.23 178.632 1653.23 181.243ZM1670.69 185.972C1673.3 185.972 1675.42 183.855 1675.42 181.243C1675.42 178.632 1673.3 176.514 1670.69 176.514C1668.08 176.514 1665.96 178.632 1665.96 181.243C1665.96 183.855 1668.08 185.972 1670.69 185.972ZM1697.61 181.243C1697.61 183.855 1695.49 185.972 1692.88 185.972C1690.27 185.972 1688.15 183.855 1688.15 181.243C1688.15 178.632 1690.27 176.514 1692.88 176.514C1695.49 176.514 1697.61 178.632 1697.61 181.243ZM1715.07 185.972C1717.68 185.972 1719.8 183.855 1719.8 181.243C1719.8 178.632 1717.68 176.514 1715.07 176.514C1712.46 176.514 1710.34 178.632 1710.34 181.243C1710.34 183.855 1712.46 185.972 1715.07 185.972ZM1741.81 181.243C1741.81 183.855 1739.69 185.972 1737.08 185.972C1734.46 185.972 1732.35 183.855 1732.35 181.243C1732.35 178.632 1734.46 176.514 1737.08 176.514C1739.69 176.514 1741.81 178.632 1741.81 181.243ZM1759.27 185.972C1761.88 185.972 1764 183.855 1764 181.243C1764 178.632 1761.88 176.514 1759.27 176.514C1756.65 176.514 1754.54 178.632 1754.54 181.243C1754.54 183.855 1756.65 185.972 1759.27 185.972ZM1786.19 181.243C1786.19 183.855 1784.07 185.972 1781.46 185.972C1778.84 185.972 1776.73 183.855 1776.73 181.243C1776.73 178.632 1778.84 176.514 1781.46 176.514C1784.07 176.514 1786.19 178.632 1786.19 181.243ZM1803.65 185.972C1806.26 185.972 1808.38 183.855 1808.38 181.243C1808.38 178.632 1806.26 176.514 1803.65 176.514C1801.03 176.514 1798.92 178.632 1798.92 181.243C1798.92 183.855 1801.03 185.972 1803.65 185.972ZM1537.73 200.159C1540.28 200.159 1542.46 202.342 1542.46 204.888C1542.46 206.889 1541.37 208.526 1539.55 209.253C1538.46 206.343 1537.36 203.251 1536.46 200.341C1536.82 200.159 1537.36 200.159 1537.73 200.159ZM1559.92 209.617C1562.53 209.617 1564.65 207.5 1564.65 204.888C1564.65 202.276 1562.53 200.159 1559.92 200.159C1557.31 200.159 1555.19 202.276 1555.19 204.888C1555.19 207.5 1557.31 209.617 1559.92 209.617ZM1586.84 204.888C1586.84 207.5 1584.72 209.617 1582.11 209.617C1579.5 209.617 1577.38 207.5 1577.38 204.888C1577.38 202.276 1579.5 200.159 1582.11 200.159C1584.72 200.159 1586.84 202.276 1586.84 204.888ZM1604.3 209.617C1606.91 209.617 1609.03 207.5 1609.03 204.888C1609.03 202.276 1606.91 200.159 1604.3 200.159C1601.69 200.159 1599.57 202.276 1599.57 204.888C1599.57 207.5 1601.69 209.617 1604.3 209.617ZM1631.22 204.888C1631.22 207.5 1629.1 209.617 1626.49 209.617C1623.88 209.617 1621.76 207.5 1621.76 204.888C1621.76 202.276 1623.88 200.159 1626.49 200.159C1629.1 200.159 1631.22 202.276 1631.22 204.888ZM1648.5 209.617C1651.11 209.617 1653.23 207.5 1653.23 204.888C1653.23 202.276 1651.11 200.159 1648.5 200.159C1645.89 200.159 1643.77 202.276 1643.77 204.888C1643.77 207.5 1645.89 209.617 1648.5 209.617ZM1675.42 204.888C1675.42 207.5 1673.3 209.617 1670.69 209.617C1668.08 209.617 1665.96 207.5 1665.96 204.888C1665.96 202.276 1668.08 200.159 1670.69 200.159C1673.3 200.159 1675.42 202.276 1675.42 204.888ZM1692.88 209.617C1695.49 209.617 1697.61 207.5 1697.61 204.888C1697.61 202.276 1695.49 200.159 1692.88 200.159C1690.27 200.159 1688.15 202.276 1688.15 204.888C1688.15 207.5 1690.27 209.617 1692.88 209.617ZM1719.8 204.888C1719.8 207.5 1717.68 209.617 1715.07 209.617C1712.46 209.617 1710.34 207.5 1710.34 204.888C1710.34 202.276 1712.46 200.159 1715.07 200.159C1717.68 200.159 1719.8 202.276 1719.8 204.888ZM1737.08 209.617C1739.69 209.617 1741.81 207.5 1741.81 204.888C1741.81 202.276 1739.69 200.159 1737.08 200.159C1734.46 200.159 1732.35 202.276 1732.35 204.888C1732.35 207.5 1734.46 209.617 1737.08 209.617ZM1764 204.888C1764 207.5 1761.88 209.617 1759.27 209.617C1756.65 209.617 1754.54 207.5 1754.54 204.888C1754.54 202.276 1756.65 200.159 1759.27 200.159C1761.88 200.159 1764 202.276 1764 204.888ZM1781.46 209.617C1784.07 209.617 1786.19 207.5 1786.19 204.888C1786.19 202.276 1784.07 200.159 1781.46 200.159C1778.84 200.159 1776.73 202.276 1776.73 204.888C1776.73 207.5 1778.84 209.617 1781.46 209.617ZM1801.65 209.253C1800.01 208.526 1798.92 206.889 1798.92 204.888C1798.92 202.342 1800.92 200.159 1803.46 200.159C1804.01 200.159 1804.37 200.159 1804.74 200.341C1803.83 203.432 1802.74 206.342 1801.65 209.252L1801.65 209.252L1801.65 209.253ZM1559.92 233.262C1562.53 233.262 1564.65 231.145 1564.65 228.533C1564.65 225.922 1562.53 223.804 1559.92 223.804C1557.31 223.804 1555.19 225.922 1555.19 228.533C1555.19 231.145 1557.31 233.262 1559.92 233.262ZM1586.84 228.533C1586.84 231.145 1584.72 233.262 1582.11 233.262C1579.5 233.262 1577.38 231.145 1577.38 228.533C1577.38 225.922 1579.5 223.804 1582.11 223.804C1584.72 223.804 1586.84 225.922 1586.84 228.533ZM1604.3 233.262C1606.91 233.262 1609.03 231.145 1609.03 228.533C1609.03 225.922 1606.91 223.804 1604.3 223.804C1601.69 223.804 1599.57 225.922 1599.57 228.533C1599.57 231.145 1601.69 233.262 1604.3 233.262ZM1631.22 228.533C1631.22 231.145 1629.1 233.262 1626.49 233.262C1623.88 233.262 1621.76 231.145 1621.76 228.533C1621.76 225.922 1623.88 223.804 1626.49 223.804C1629.1 223.804 1631.22 225.922 1631.22 228.533ZM1648.5 233.262C1651.11 233.262 1653.23 231.145 1653.23 228.533C1653.23 225.922 1651.11 223.804 1648.5 223.804C1645.89 223.804 1643.77 225.922 1643.77 228.533C1643.77 231.145 1645.89 233.262 1648.5 233.262ZM1675.42 228.533C1675.42 231.145 1673.3 233.262 1670.69 233.262C1668.08 233.262 1665.96 231.145 1665.96 228.533C1665.96 225.922 1668.08 223.804 1670.69 223.804C1673.3 223.804 1675.42 225.922 1675.42 228.533ZM1692.88 233.262C1695.49 233.262 1697.61 231.145 1697.61 228.533C1697.61 225.922 1695.49 223.804 1692.88 223.804C1690.27 223.804 1688.15 225.922 1688.15 228.533C1688.15 231.145 1690.27 233.262 1692.88 233.262ZM1719.8 228.533C1719.8 231.145 1717.68 233.262 1715.07 233.262C1712.46 233.262 1710.34 231.145 1710.34 228.533C1710.34 225.922 1712.46 223.804 1715.07 223.804C1717.68 223.804 1719.8 225.922 1719.8 228.533ZM1737.08 233.262C1739.69 233.262 1741.81 231.145 1741.81 228.533C1741.81 225.922 1739.69 223.804 1737.08 223.804C1734.46 223.804 1732.35 225.922 1732.35 228.533C1732.35 231.145 1734.46 233.262 1737.08 233.262ZM1764 228.533C1764 231.145 1761.88 233.262 1759.27 233.262C1756.65 233.262 1754.54 231.145 1754.54 228.533C1754.54 225.922 1756.65 223.804 1759.27 223.804C1761.88 223.804 1764 225.922 1764 228.533ZM1781.46 233.262C1784.07 233.262 1786.19 231.145 1786.19 228.533C1786.19 225.922 1784.07 223.804 1781.46 223.804C1778.84 223.804 1776.73 225.922 1776.73 228.533C1776.73 231.145 1778.84 233.262 1781.46 233.262ZM1586.84 252.178C1586.84 254.79 1584.72 256.908 1582.11 256.908C1579.5 256.908 1577.38 254.79 1577.38 252.178C1577.38 249.567 1579.5 247.449 1582.11 247.449C1584.72 247.449 1586.84 249.567 1586.84 252.178ZM1604.3 256.908C1606.91 256.908 1609.03 254.79 1609.03 252.178C1609.03 249.567 1606.91 247.449 1604.3 247.449C1601.69 247.449 1599.57 249.567 1599.57 252.178C1599.57 254.79 1601.69 256.908 1604.3 256.908ZM1631.22 252.178C1631.22 254.79 1629.1 256.908 1626.49 256.908C1623.88 256.908 1621.76 254.79 1621.76 252.178C1621.76 249.567 1623.88 247.449 1626.49 247.449C1629.1 247.449 1631.22 249.567 1631.22 252.178ZM1648.5 256.908C1651.11 256.908 1653.23 254.79 1653.23 252.178C1653.23 249.567 1651.11 247.449 1648.5 247.449C1645.89 247.449 1643.77 249.567 1643.77 252.178C1643.77 254.79 1645.89 256.908 1648.5 256.908ZM1675.42 252.178C1675.42 254.79 1673.3 256.908 1670.69 256.908C1668.08 256.908 1665.96 254.79 1665.96 252.178C1665.96 249.567 1668.08 247.449 1670.69 247.449C1673.3 247.449 1675.42 249.567 1675.42 252.178ZM1692.88 256.908C1695.49 256.908 1697.61 254.79 1697.61 252.178C1697.61 249.567 1695.49 247.449 1692.88 247.449C1690.27 247.449 1688.15 249.567 1688.15 252.178C1688.15 254.79 1690.27 256.908 1692.88 256.908ZM1719.8 252.178C1719.8 254.79 1717.68 256.908 1715.07 256.908C1712.46 256.908 1710.34 254.79 1710.34 252.178C1710.34 249.567 1712.46 247.449 1715.07 247.449C1717.68 247.449 1719.8 249.567 1719.8 252.178ZM1737.08 256.908C1739.69 256.908 1741.81 254.79 1741.81 252.178C1741.81 249.567 1739.69 247.449 1737.08 247.449C1734.46 247.449 1732.35 249.567 1732.35 252.178C1732.35 254.79 1734.46 256.908 1737.08 256.908ZM1764 252.178C1764 254.79 1761.88 256.908 1759.27 256.908C1756.65 256.908 1754.54 254.79 1754.54 252.178C1754.54 249.567 1756.65 247.449 1759.27 247.449C1761.88 247.449 1764 249.567 1764 252.178ZM1604.3 280.553C1606.91 280.553 1609.03 278.436 1609.03 275.824C1609.03 273.212 1606.91 271.095 1604.3 271.095C1601.69 271.095 1599.57 273.212 1599.57 275.824C1599.57 278.436 1601.69 280.553 1604.3 280.553ZM1631.22 275.824C1631.22 278.436 1629.1 280.553 1626.49 280.553C1623.88 280.553 1621.76 278.436 1621.76 275.824C1621.76 273.212 1623.88 271.095 1626.49 271.095C1629.1 271.095 1631.22 273.212 1631.22 275.824ZM1648.5 280.553C1651.11 280.553 1653.23 278.436 1653.23 275.824C1653.23 273.212 1651.11 271.095 1648.5 271.095C1645.89 271.095 1643.77 273.212 1643.77 275.824C1643.77 278.436 1645.89 280.553 1648.5 280.553ZM1675.42 275.824C1675.42 278.436 1673.3 280.553 1670.69 280.553C1668.08 280.553 1665.96 278.436 1665.96 275.824C1665.96 273.212 1668.08 271.095 1670.69 271.095C1673.3 271.095 1675.42 273.212 1675.42 275.824ZM1692.88 280.553C1695.49 280.553 1697.61 278.436 1697.61 275.824C1697.61 273.212 1695.49 271.095 1692.88 271.095C1690.27 271.095 1688.15 273.212 1688.15 275.824C1688.15 278.436 1690.27 280.553 1692.88 280.553ZM1719.8 275.824C1719.8 278.436 1717.68 280.553 1715.07 280.553C1712.46 280.553 1710.34 278.436 1710.34 275.824C1710.34 273.212 1712.46 271.095 1715.07 271.095C1717.68 271.095 1719.8 273.212 1719.8 275.824ZM1737.08 280.553C1739.69 280.553 1741.81 278.436 1741.81 275.824C1741.81 273.212 1739.69 271.095 1737.08 271.095C1734.46 271.095 1732.35 273.212 1732.35 275.824C1732.35 278.436 1734.46 280.553 1737.08 280.553ZM1645.22 296.013C1646.13 295.286 1647.22 294.74 1648.5 294.74C1650.32 294.74 1651.95 295.831 1652.68 297.104C1650.88 296.976 1649.08 296.665 1647.34 296.366L1647.34 296.365C1646.62 296.241 1645.92 296.119 1645.22 296.013ZM1670.69 294.74C1668.5 294.74 1666.69 296.195 1666.14 298.378H1670.69H1675.23C1674.69 296.195 1672.87 294.74 1670.69 294.74ZM1692.42 296.741C1691.19 296.923 1689.97 297.105 1688.69 297.287C1689.6 295.832 1691.06 294.74 1692.88 294.922C1694.15 294.922 1695.24 295.286 1696.15 296.195C1694.88 296.377 1693.65 296.559 1692.42 296.741Z" fill="url(#paint19_radial_2411_488)"/>
</g>
</g>
<defs>
<filter id="filter0_d_2411_488" x="0" y="0" width="1838" height="1059" filterUnits="userSpaceOnUse" color-interpolation-filters="sRGB">
<feFlood flood-opacity="0" result="BackgroundImageFix"/>
<feColorMatrix in="SourceAlpha" type="matrix" values="0 0 0 0 0 0 0 0 0 0 0 0 0 0 0 0 0 0 127 0" result="hardAlpha"/>
<feMorphology radius="15" operator="erode" in="SourceAlpha" result="effect1_dropShadow_2411_488"/>
<feOffset dy="24"/>
<feGaussianBlur stdDeviation="12"/>
<feComposite in2="hardAlpha" operator="out"/>
<feColorMatrix type="matrix" values="0 0 0 0 0.5125 0 0 0 0 0.5125 0 0 0 0 0.5125 0 0 0 0.14 0"/>
<feBlend mode="normal" in2="BackgroundImageFix" result="effect1_dropShadow_2411_488"/>
<feBlend mode="normal" in="SourceGraphic" in2="effect1_dropShadow_2411_488" result="shape"/>
</filter>
<filter id="filter1_f_2411_488" x="-535" y="-555" width="1136" height="1136" filterUnits="userSpaceOnUse" color-interpolation-filters="sRGB">
<feFlood flood-opacity="0" result="BackgroundImageFix"/>
<feBlend mode="normal" in="SourceGraphic" in2="BackgroundImageFix" result="shape"/>
<feGaussianBlur stdDeviation="217" result="effect1_foregroundBlur_2411_488"/>
</filter>
<filter id="filter2_f_2411_488" x="-332.503" y="366.496" width="1296.06" height="1296.06" filterUnits="userSpaceOnUse" color-interpolation-filters="sRGB">
<feFlood flood-opacity="0" result="BackgroundImageFix"/>
<feBlend mode="normal" in="SourceGraphic" in2="BackgroundImageFix" result="shape"/>
<feGaussianBlur stdDeviation="257" result="effect1_foregroundBlur_2411_488"/>
</filter>
<filter id="filter3_f_2411_488" x="1247" y="-555" width="1121" height="1136" filterUnits="userSpaceOnUse" color-interpolation-filters="sRGB">
<feFlood flood-opacity="0" result="BackgroundImageFix"/>
<feBlend mode="normal" in="SourceGraphic" in2="BackgroundImageFix" result="shape"/>
<feGaussianBlur stdDeviation="217" result="effect1_foregroundBlur_2411_488"/>
</filter>
<filter id="filter4_f_2411_488" x="913.678" y="341.266" width="1275.36" height="1273.97" filterUnits="userSpaceOnUse" color-interpolation-filters="sRGB">
<feFlood flood-opacity="0" result="BackgroundImageFix"/>
<feBlend mode="normal" in="SourceGraphic" in2="BackgroundImageFix" result="shape"/>
<feGaussianBlur stdDeviation="252" result="effect1_foregroundBlur_2411_488"/>
</filter>
<filter id="filter5_f_2411_488" x="-22" y="-561" width="1950" height="1122" filterUnits="userSpaceOnUse" color-interpolation-filters="sRGB">
<feFlood flood-opacity="0" result="BackgroundImageFix"/>
<feBlend mode="normal" in="SourceGraphic" in2="BackgroundImageFix" result="shape"/>
<feGaussianBlur stdDeviation="217" result="effect1_foregroundBlur_2411_488"/>
</filter>
<radialGradient id="paint0_radial_2411_488" cx="0" cy="0" r="1" gradientUnits="userSpaceOnUse" gradientTransform="translate(919 513) rotate(90) scale(513 910)">
<stop stop-color="white"/>
<stop offset="1" stop-color="#F5F7F9"/>
</radialGradient>
<linearGradient id="paint1_linear_2411_488" x1="33" y1="27" x2="121" y2="203.5" gradientUnits="userSpaceOnUse">
<stop stop-color="#04A78C"/>
<stop offset="0.212729" stop-color="#21C6AB"/>
<stop offset="1" stop-color="white"/>
</linearGradient>
<linearGradient id="paint2_linear_2411_488" x1="322.029" y1="1041.53" x2="438.816" y2="857.972" gradientUnits="userSpaceOnUse">
<stop stop-color="#008670"/>
<stop offset="1" stop-color="white"/>
</linearGradient>
<linearGradient id="paint3_linear_2411_488" x1="1822.13" y1="23.5" x2="1656.05" y2="253.888" gradientUnits="userSpaceOnUse">
<stop stop-color="#FF6D16"/>
<stop offset="1" stop-color="white"/>
</linearGradient>
<linearGradient id="paint4_linear_2411_488" x1="1612.51" y1="1004.39" x2="1412.02" y2="964.274" gradientUnits="userSpaceOnUse">
<stop stop-color="#FF6204" stop-opacity="0.87"/>
<stop offset="1" stop-color="white"/>
</linearGradient>
<linearGradient id="paint5_linear_2411_488" x1="742.559" y1="-127" x2="794.587" y2="162.539" gradientUnits="userSpaceOnUse">
<stop stop-color="#0CC3A5" stop-opacity="0.36"/>
<stop offset="1" stop-color="white"/>
</linearGradient>
<linearGradient id="paint6_linear_2411_488" x1="171.194" y1="865.25" x2="-5.85315" y2="1070.46" gradientUnits="userSpaceOnUse">
<stop stop-color="white" stop-opacity="0.4"/>
<stop offset="1" stop-color="white" stop-opacity="0"/>
</linearGradient>
<linearGradient id="paint7_linear_2411_488" x1="161.348" y1="842.579" x2="99.5183" y2="940.476" gradientUnits="userSpaceOnUse">
<stop stop-color="white"/>
<stop offset="1" stop-color="white" stop-opacity="0"/>
</linearGradient>
<linearGradient id="paint8_linear_2411_488" x1="140.425" y1="900.74" x2="12.9511" y2="1048.49" gradientUnits="userSpaceOnUse">
<stop stop-color="white" stop-opacity="0.4"/>
<stop offset="1" stop-color="white" stop-opacity="0"/>
</linearGradient>
<linearGradient id="paint9_linear_2411_488" x1="133.336" y1="884.417" x2="88.8186" y2="954.903" gradientUnits="userSpaceOnUse">
<stop stop-color="white"/>
<stop offset="1" stop-color="white" stop-opacity="0"/>
</linearGradient>
<linearGradient id="paint10_linear_2411_488" x1="107.377" y1="932.608" x2="24.4176" y2="1028.77" gradientUnits="userSpaceOnUse">
<stop stop-color="white" stop-opacity="0.4"/>
<stop offset="1" stop-color="white" stop-opacity="0"/>
</linearGradient>
<linearGradient id="paint11_linear_2411_488" x1="102.763" y1="921.985" x2="73.7917" y2="967.856" gradientUnits="userSpaceOnUse">
<stop stop-color="white"/>
<stop offset="1" stop-color="white" stop-opacity="0"/>
</linearGradient>
<linearGradient id="paint12_linear_2411_488" x1="1882.19" y1="849.25" x2="1705.15" y2="1054.46" gradientUnits="userSpaceOnUse">
<stop stop-color="white" stop-opacity="0.4"/>
<stop offset="1" stop-color="white" stop-opacity="0"/>
</linearGradient>
<linearGradient id="paint13_linear_2411_488" x1="1872.35" y1="826.579" x2="1810.52" y2="924.476" gradientUnits="userSpaceOnUse">
<stop stop-color="white"/>
<stop offset="1" stop-color="white" stop-opacity="0"/>
</linearGradient>
<linearGradient id="paint14_linear_2411_488" x1="1857.22" y1="890.535" x2="1729.75" y2="1038.29" gradientUnits="userSpaceOnUse">
<stop stop-color="white" stop-opacity="0.4"/>
<stop offset="1" stop-color="white" stop-opacity="0"/>
</linearGradient>
<linearGradient id="paint15_linear_2411_488" x1="1850.13" y1="874.212" x2="1805.61" y2="944.697" gradientUnits="userSpaceOnUse">
<stop stop-color="white"/>
<stop offset="1" stop-color="white" stop-opacity="0"/>
</linearGradient>
<linearGradient id="paint16_linear_2411_488" x1="1834.79" y1="933.025" x2="1751.83" y2="1029.18" gradientUnits="userSpaceOnUse">
<stop stop-color="white" stop-opacity="0.4"/>
<stop offset="1" stop-color="white" stop-opacity="0"/>
</linearGradient>
<linearGradient id="paint17_linear_2411_488" x1="1830.18" y1="922.403" x2="1801.21" y2="968.274" gradientUnits="userSpaceOnUse">
<stop stop-color="white"/>
<stop offset="1" stop-color="white" stop-opacity="0"/>
</linearGradient>
<radialGradient id="paint18_radial_2411_488" cx="0" cy="0" r="1" gradientUnits="userSpaceOnUse" gradientTransform="translate(219.688 260.689) rotate(90) scale(140.689 137.688)">
<stop stop-color="white" stop-opacity="0.87"/>
<stop offset="0.415543" stop-color="white" stop-opacity="0.67"/>
<stop offset="1" stop-color="white" stop-opacity="0.08"/>
</radialGradient>
<radialGradient id="paint19_radial_2411_488" cx="0" cy="0" r="1" gradientUnits="userSpaceOnUse" gradientTransform="translate(1670.69 157.689) rotate(90) scale(140.689 137.688)">
<stop stop-color="white" stop-opacity="0.87"/>
<stop offset="0.415543" stop-color="white" stop-opacity="0.67"/>
<stop offset="1" stop-color="white" stop-opacity="0.08"/>
</radialGradient>
<clipPath id="clip0_2411_488">
<rect x="9" width="1820" height="1026" rx="30" fill="white"/>
</clipPath>
</defs>
</svg>
