<svg width="70" height="70" viewBox="0 0 70 70" fill="none" xmlns="http://www.w3.org/2000/svg">
<rect x="0.5" y="0.5" width="69" height="69" rx="34.5" fill="url(#paint0_linear_2877_7657)" stroke="white"/>
<g clip-path="url(#clip0_2877_7657)">
<path d="M44.6611 31.9595V32.4688C44.6611 33.0929 44.7617 33.7129 44.9591 34.3049L46.1127 37.7659H48.2901V29.782H46.8385C45.636 29.7821 44.6611 30.7569 44.6611 31.9595Z" fill="#5A4146"/>
<path d="M54.5991 33.4673L53.3709 37.766L47.5644 32.6854C46.7627 32.6854 46.1128 32.0354 46.1128 31.2338C46.1128 30.0313 47.0877 29.0564 48.2902 29.0564H53.3708C54.1725 29.0564 54.8224 29.7063 54.8224 30.508V31.8722C54.8224 32.4117 54.7473 32.9486 54.5991 33.4673Z" fill="#694B4B"/>
<path d="M47.564 39.9438H51.9188V43.1562H47.564V39.9438Z" fill="#E6AF78"/>
<path d="M47.5645 41.2766C48.2376 41.5501 48.9717 41.7041 49.7419 41.7041C50.512 41.7041 51.2461 41.5501 51.9193 41.2766V39.9434H47.5645V41.2766Z" fill="#D29B6E"/>
<path d="M55.4207 42.7046L51.9191 41.7042L49.7419 43.149L47.5645 41.7041L44.0631 42.7046C43.6081 42.8346 43.2079 43.1092 42.923 43.487C42.638 43.8647 42.4839 44.325 42.4839 44.7982V50.1047C42.4839 50.2972 42.5604 50.4818 42.6965 50.6179C42.8326 50.754 43.0172 50.8305 43.2097 50.8305H56.2742C56.4667 50.8305 56.6513 50.754 56.7874 50.6179C56.9235 50.4818 57 50.2972 57 50.1047V44.7982C57 44.325 56.8458 43.8647 56.5609 43.487C56.2759 43.1092 55.8757 42.8345 55.4207 42.7046Z" fill="#00987F"/>
<path d="M50.4677 50.8305H49.0161L49.379 43.1558H50.1048L50.4677 50.8305Z" fill="white"/>
<path d="M49.742 40.6691C47.3369 40.6691 45.3872 38.7193 45.3872 36.3143V35.4639C45.3872 35.079 45.5401 34.7097 45.8123 34.4375L47.1285 33.1213C47.4072 32.8426 47.7883 32.6824 48.1822 32.6948C50.5024 32.768 52.556 33.265 53.6786 34.3614C53.9535 34.6298 54.0969 35.0053 54.0969 35.3894V36.3143C54.0969 38.7194 52.1471 40.6691 49.742 40.6691Z" fill="#F0C087"/>
<path d="M47.5646 35.644C47.5646 34.8068 48.2677 34.1413 49.1033 34.1945C50.5685 34.288 52.7428 34.5329 54.0767 35.1745C54.0332 34.8683 53.9016 34.5792 53.6786 34.3614C52.556 33.265 50.5024 32.768 48.1822 32.6948L48.1821 32.6948C47.7883 32.6825 47.4071 32.8427 47.1285 33.1213L45.8124 34.4374C45.6776 34.5722 45.5707 34.7322 45.4977 34.9083C45.4247 35.0844 45.3872 35.2732 45.3872 35.4638V36.3142C45.3872 38.3002 46.718 39.9723 48.5354 40.4959C47.9305 39.7496 47.5647 38.8021 47.5647 37.7658L47.5646 35.644Z" fill="#E6AF78"/>
<path d="M54.0967 46.9609C54.0967 46.3834 54.3261 45.8296 54.7344 45.4213L56.6027 43.553C56.8524 43.9099 56.9999 44.3396 56.9999 44.7983V50.1048C56.9999 50.2973 56.9234 50.4819 56.7873 50.618C56.6512 50.7541 56.4666 50.8306 56.2741 50.8306H54.0967V46.9609Z" fill="#00987F"/>
<path d="M50.1048 44.6074H49.379C49.2828 44.6073 49.1905 44.5691 49.1224 44.501C49.0544 44.433 49.0161 44.3407 49.0161 44.2445V43.1558H50.4677V44.2445C50.4677 44.2921 50.4583 44.3393 50.4401 44.3833C50.4219 44.4274 50.3951 44.4674 50.3614 44.5011C50.3277 44.5348 50.2877 44.5615 50.2437 44.5797C50.1997 44.598 50.1525 44.6074 50.1048 44.6074Z" fill="#E3E3E3"/>
<path d="M49.7418 43.149L48.5116 44.0887C48.4618 44.1268 48.4043 44.1536 48.3431 44.1674C48.2818 44.1812 48.2184 44.1816 48.157 44.1686C48.0956 44.1556 48.0378 44.1295 47.9874 44.0921C47.9371 44.0547 47.8954 44.0068 47.8653 43.9517L46.7617 41.9364L47.2059 41.2589C47.2291 41.2235 47.2596 41.1937 47.2955 41.1714C47.3314 41.1491 47.3717 41.1349 47.4136 41.1298C47.4555 41.1247 47.498 41.1288 47.5382 41.1418C47.5784 41.1548 47.6152 41.1764 47.6462 41.2052L49.7418 43.149ZM49.7418 43.149L50.972 44.0888C51.0219 44.1269 51.0794 44.1537 51.1406 44.1675C51.2018 44.1813 51.2653 44.1817 51.3267 44.1687C51.388 44.1557 51.4459 44.1296 51.4962 44.0922C51.5466 44.0547 51.5882 44.0069 51.6184 43.9518L52.7219 41.9365L52.2777 41.259C52.2546 41.2236 52.224 41.1938 52.1882 41.1715C52.1523 41.1492 52.112 41.135 52.0701 41.1299C52.0282 41.1248 51.9856 41.1289 51.9455 41.1419C51.9053 41.1549 51.8684 41.1765 51.8375 41.2053L49.7418 43.149Z" fill="white"/>
<path d="M24.9919 40.3661C24.3717 38.7227 23.8798 35.8976 23.7735 34.4268C23.5714 31.6278 21.4621 29.3462 18.6107 29.3462C15.7594 29.3462 13.6501 31.6279 13.4479 34.4268C13.3417 35.8976 12.8498 38.7227 12.2295 40.3661C12.0928 40.7284 12.2506 41.1278 12.6074 41.2896C13.272 41.5908 14.689 42.1809 16.3981 42.4107H20.8233C22.5243 42.1803 23.9513 41.5899 24.614 41.2896C24.9708 41.1278 25.1286 40.7284 24.9919 40.3661Z" fill="#5A4146"/>
<path d="M24.6143 41.2898C24.9709 41.1281 25.1288 40.7286 24.992 40.3663C24.3719 38.723 23.8799 35.8979 23.7737 34.427C23.5716 31.6281 21.4623 29.3464 18.611 29.3464L18.5895 29.3465C16.4016 29.3554 15.6284 32.3392 17.5118 33.4525C17.6249 33.5194 17.6975 33.5516 17.6975 33.5516L19.3471 42.4109H20.8236C22.5246 42.1804 23.9516 41.59 24.6143 41.2898Z" fill="#694B4B"/>
<path d="M23.8608 43.8681L21.5121 42.6938C21.2709 42.5732 21.0681 42.3878 20.9264 42.1585C20.7846 41.9292 20.7096 41.6649 20.7096 41.3953L20.7098 39.2178H16.3548V41.3954C16.3548 41.6649 16.2797 41.9292 16.138 42.1585C15.9963 42.3878 15.7935 42.5731 15.5524 42.6937L13.2036 43.8681C12.8419 44.0489 12.5377 44.3268 12.3252 44.6708C12.1126 45.0148 12 45.4111 12 45.8155V50.1047C12 50.2972 12.0765 50.4818 12.2126 50.6179C12.3487 50.754 12.5333 50.8305 12.7258 50.8305H24.3387C24.5312 50.8305 24.7158 50.754 24.8519 50.6179C24.988 50.4818 25.0645 50.2972 25.0645 50.1047V45.8155C25.0645 45.4112 24.9519 45.0148 24.7393 44.6708C24.5267 44.3269 24.2225 44.0489 23.8608 43.8681Z" fill="#E6AF78"/>
<path d="M18.5321 42.1207C19.3136 42.1207 20.0622 41.9596 20.7485 41.6728C20.7304 41.5813 20.7094 41.4904 20.7094 41.395L20.7096 39.2175H16.3546V41.3951C16.3546 41.491 16.3336 41.5824 16.3154 41.6742C17.0021 41.9595 17.7503 42.1207 18.5321 42.1207Z" fill="#D29B6E"/>
<path d="M23.8608 43.868L22.1876 43.0313C21.4117 44.2295 20.066 45.0241 18.5323 45.0241C16.9986 45.0241 15.6528 44.2295 14.8769 43.0312L13.2037 43.868C12.842 44.0488 12.5378 44.3267 12.3252 44.6707C12.1126 45.0146 12 45.411 12 45.8154V50.1046C12 50.2971 12.0765 50.4817 12.2126 50.6178C12.3487 50.7539 12.5333 50.8304 12.7258 50.8304H24.3387C24.5312 50.8304 24.7158 50.7539 24.8519 50.6178C24.988 50.4817 25.0645 50.2971 25.0645 50.1046V45.8154C25.0645 45.4111 24.9519 45.0147 24.7393 44.6707C24.5267 44.3268 24.2225 44.0488 23.8608 43.868Z" fill="#00987F"/>
<path d="M18.5322 40.6693C16.318 40.6693 14.4899 39.0169 14.2135 36.8781C14.1734 36.5682 14.3224 36.2644 14.6013 36.1237C14.9355 35.9551 15.4211 35.6708 15.886 35.256C16.4038 34.794 16.7075 34.3069 16.8791 33.9492C17.0269 33.6413 17.3665 33.4671 17.6975 33.5515C20.253 34.2033 21.9928 35.5329 22.624 36.0757C22.7934 36.2214 22.8911 36.4363 22.8737 36.6592C22.6978 38.903 20.8213 40.6693 18.5322 40.6693Z" fill="#F0C087"/>
<path d="M22.6239 36.0754C21.9927 35.5326 20.2529 34.2031 17.6973 33.5513C17.3664 33.4668 17.0267 33.641 16.879 33.949C16.7491 34.2199 16.5344 34.5649 16.2158 34.9172L16.2153 34.9197C16.1165 35.0317 16.0112 35.144 15.886 35.2558C15.4211 35.6708 14.9355 35.9549 14.6013 36.1235C14.3223 36.2642 14.1735 36.5681 14.2135 36.878C14.4617 38.7989 15.9648 40.3278 17.8719 40.6195C17.0029 40.0283 16.3547 39.2153 16.3547 37.766V36.731C16.5196 36.6093 16.6856 36.4879 16.8525 36.339C17.2537 35.9811 17.6031 35.5689 17.8904 35.1144C19.8454 35.7245 21.1708 36.7406 21.6733 37.1727C21.8108 37.2932 22.1522 37.6079 22.5515 37.9826C22.7234 37.569 22.837 37.1254 22.8735 36.6591C22.891 36.4361 22.7933 36.2212 22.6239 36.0754Z" fill="#E6AF78"/>
<path d="M12.4424 44.5071C12.1629 44.8782 12 45.3333 12 45.8154V50.1047C12 50.2972 12.0765 50.4818 12.2126 50.6179C12.3487 50.754 12.5333 50.8305 12.7258 50.8305H14.9032V47.1733C14.9032 46.7324 14.7027 46.3153 14.3584 46.0398L12.4424 44.5071Z" fill="#00987F"/>
<path d="M44.9274 42.8775L38.8546 40.6692L34.4998 42.1209L30.145 40.6693L24.0722 42.8776C23.5122 43.0813 23.0283 43.4523 22.6864 43.9405C22.3445 44.4286 22.1611 45.0101 22.1611 45.606V50.1048C22.1611 50.2973 22.2376 50.4819 22.3737 50.618C22.5098 50.7541 22.6944 50.8306 22.8869 50.8306H46.1127C46.3052 50.8306 46.4898 50.7541 46.626 50.618C46.7621 50.4819 46.8385 50.2973 46.8385 50.1048V45.606C46.8386 45.01 46.6552 44.4285 46.3133 43.9404C45.9714 43.4523 45.4875 43.0812 44.9274 42.8775Z" fill="#FF507D"/>
<path d="M33.7396 43.5725L33.0483 50.8304H35.9515L35.2603 43.5725H33.7396Z" fill="#707487"/>
<path d="M35.2621 44.5697H33.7381C33.6713 44.5697 33.6053 44.5565 33.5436 44.531C33.482 44.5055 33.426 44.468 33.3788 44.4209C33.3316 44.3737 33.2942 44.3177 33.2686 44.256C33.2431 44.1944 33.23 44.1283 33.23 44.0616V42.1208H35.7701V44.0616C35.7701 44.1283 35.757 44.1944 35.7315 44.256C35.7059 44.3176 35.6685 44.3737 35.6213 44.4208C35.5742 44.468 35.5182 44.5054 35.4565 44.531C35.3949 44.5565 35.3288 44.5697 35.2621 44.5697Z" fill="#5B5D6E"/>
<path d="M46.0574 43.6277C46.5475 44.1537 46.8387 44.8543 46.8387 45.6058V50.1045C46.8387 50.297 46.7622 50.4816 46.6261 50.6177C46.49 50.7539 46.3054 50.8303 46.1129 50.8303H42.4839V48.4038C42.4839 47.6338 42.7897 46.8954 43.3342 46.351L46.0574 43.6277Z" fill="#D23C69"/>
<path d="M42.4839 25.7011V19.6208C42.4839 18.8191 41.834 18.1692 41.0323 18.1692H32.3226C29.1158 18.1692 26.5161 20.7688 26.5161 23.9757V25.7011C26.5161 26.4812 26.6419 27.2562 26.8886 27.9962L27.1302 28.7211C27.2042 28.9431 27.2419 29.1756 27.2419 29.4096V29.7821H41.758V29.4096C41.758 29.1756 41.7957 28.9431 41.8697 28.7211L42.1113 27.9962C42.3581 27.2562 42.4839 26.4812 42.4839 25.7011Z" fill="#5A4146"/>
<path d="M30.145 21.1177C30.145 22.7462 31.4651 24.0663 33.0936 24.0663H33.5018L33.6989 29.782H41.7578V29.4095C41.7578 29.1755 41.7955 28.943 41.8695 28.721L42.1112 27.9962C42.3579 27.2561 42.4836 26.4811 42.4836 25.701V19.6208C42.4836 18.8191 41.8337 18.1692 41.032 18.1692H33.0936C31.4651 18.1692 30.145 19.4893 30.145 21.1177Z" fill="#694B4B"/>
<path d="M30.145 35.5889H38.855V42.1209H30.145V35.5889Z" fill="#E6AF78"/>
<path d="M30.1451 38.0426C31.4273 38.7854 32.9116 39.2174 34.4999 39.2174C36.0882 39.2174 37.5727 38.7854 38.8547 38.0426V35.5884H30.145L30.1451 38.0426Z" fill="#D29B6E"/>
<path d="M34.4998 42.1208L32.1849 44.4357C31.8738 44.7468 31.3595 44.7117 31.0936 44.3612L28.6934 41.1986L29.3212 39.8755C29.5064 39.4851 29.9897 39.342 30.3576 39.5688L34.4998 42.1208ZM34.4998 42.1208L36.8146 44.4357C37.1258 44.7468 37.64 44.7117 37.906 44.3612L40.3062 41.1986L39.6784 39.8755C39.4931 39.4851 39.0099 39.342 38.642 39.5688L34.4998 42.1208Z" fill="#D23C69"/>
<path d="M34.4998 37.7661C30.4913 37.7661 27.2417 34.5165 27.2417 30.508V29.6576C27.2417 29.2727 27.3946 28.9035 27.6668 28.6312L28.2681 28.0299C28.4029 27.8951 28.5098 27.7351 28.5827 27.559C28.6557 27.3828 28.6932 27.1941 28.6932 27.0034V25.2636C28.6932 24.9275 28.9189 24.6355 29.246 24.5582C30.9625 24.1528 36.3043 23.1924 39.9395 25.866C40.1756 26.0396 40.3061 26.3248 40.3061 26.6179V27.0034C40.3061 27.3884 40.459 27.7576 40.7312 28.0299L41.3325 28.6312C41.4673 28.766 41.5742 28.926 41.6472 29.1021C41.7201 29.2783 41.7576 29.467 41.7576 29.6576V30.508C41.7579 34.5165 38.5083 37.7661 34.4998 37.7661Z" fill="#F0C087"/>
<path d="M39.9396 25.866C37.3829 23.9856 33.9867 23.9042 31.5966 24.1617C30.5884 24.2702 29.7554 24.438 29.2461 24.5582C28.9191 24.6355 28.6934 24.9275 28.6934 25.2636V27.0034C28.6934 27.3884 28.5405 27.7576 28.2682 28.0299L27.6669 28.6312C27.5321 28.766 27.4252 28.926 27.3522 29.1022C27.2792 29.2783 27.2417 29.4671 27.2417 29.6577V30.508C27.2417 34.2191 30.0287 37.2743 33.6227 37.708C32.3704 36.4038 31.5965 34.6364 31.5965 32.6854V27.3802C31.5965 26.6447 32.1434 26.03 32.8732 25.9385C34.615 25.7201 37.8053 25.5888 40.3061 27.0035V26.6179C40.3063 26.3248 40.1755 26.0395 39.9396 25.866Z" fill="#E6AF78"/>
<path d="M22.9424 43.6277C22.4523 44.1537 22.1611 44.8543 22.1611 45.6058V50.1045C22.1611 50.297 22.2376 50.4816 22.3737 50.6177C22.5098 50.7539 22.6944 50.8303 22.8869 50.8303H26.5159V48.4038C26.5159 47.6338 26.2101 46.8954 25.6656 46.351L22.9424 43.6277Z" fill="#D23C69"/>
</g>
<defs>
<linearGradient id="paint0_linear_2877_7657" x1="35" y1="0" x2="35" y2="70" gradientUnits="userSpaceOnUse">
<stop stop-color="white"/>
<stop offset="0.802671" stop-color="#FFE2EA"/>
<stop offset="1" stop-color="#FFC1D1"/>
</linearGradient>
<clipPath id="clip0_2877_7657">
<rect width="45" height="45" fill="white" transform="translate(12 12)"/>
</clipPath>
</defs>
</svg>
