<svg width="70" height="70" viewBox="0 0 70 70" fill="none" xmlns="http://www.w3.org/2000/svg">
<rect x="0.5" y="0.5" width="69" height="69" rx="34.5" fill="url(#paint0_linear_2877_7964)" stroke="white"/>
<g clip-path="url(#clip0_2877_7964)">
<path d="M52.9999 26.2112V50.2581C52.7895 50.7468 52.6363 51.2715 52.3545 51.7152C51.8781 52.467 51.1006 52.8051 50.2579 52.9997H34.0859C34.174 52.8896 34.2515 52.7752 34.3422 52.6704C35.7299 51.0857 37.1062 49.4869 38.5107 47.9163C39.3128 47.0201 39.5673 45.9953 39.407 44.8297C39.2635 43.7732 39.1429 42.7167 39.0099 41.6603C38.791 39.8995 38.5714 38.1361 38.3513 36.37C38.1276 34.584 37.9034 32.7977 37.6785 31.0111C37.4514 29.201 37.2254 27.3912 37.0005 25.5817C36.9125 24.8668 36.8244 24.1502 36.7364 23.3975H37.1229C41.3149 23.3975 45.5074 23.3975 49.7006 23.3975C50.7766 23.3975 51.6897 23.7778 52.3008 24.6661C52.6178 25.1221 52.7728 25.6926 52.9999 26.2112ZM44.4913 32.9576H44.0748C43.1846 32.9576 42.2935 32.9506 41.4032 32.9576C40.7648 32.9647 40.3008 33.3978 40.277 33.9789C40.2541 34.545 40.7173 35.0353 41.3407 35.0556C41.5793 35.0644 41.6568 35.1621 41.7211 35.362C42.1057 36.5293 42.6466 37.6393 43.329 38.6617C43.5579 39.0138 43.823 39.336 44.0818 39.6855C43.9136 39.8326 43.7666 39.9655 43.6134 40.0914C43.0076 40.5885 42.4 41.0851 41.7907 41.581C41.4596 41.8513 41.2694 42.1885 41.3557 42.6243C41.5151 43.4254 42.3771 43.7609 43.0402 43.2538C43.7833 42.6842 44.5098 42.0899 45.2098 41.4683C45.4881 41.2218 45.6342 41.2632 45.894 41.4824C46.619 42.0946 47.3613 42.6847 48.1209 43.2529C48.8015 43.7609 49.6829 43.4087 49.815 42.5926C49.8881 42.1418 49.668 41.8082 49.321 41.5361C48.547 40.9339 47.7766 40.3247 47.0096 39.7225C47.0313 39.6746 47.056 39.6282 47.0836 39.5834C48.1332 38.276 48.9644 36.8498 49.4954 35.2519C49.5244 35.1639 49.6917 35.082 49.8027 35.0758C50.4393 35.0133 50.8946 34.574 50.8875 34.0035C50.8805 33.4137 50.4032 32.9717 49.7481 32.9585C49.3959 32.9514 49.0437 32.9585 48.6915 32.9585H46.6011C46.6011 32.6063 46.6072 32.2912 46.6011 31.9777C46.5843 31.328 46.1273 30.8491 45.5444 30.8535C44.9615 30.8579 44.5115 31.3368 44.4966 31.9909C44.4851 32.2956 44.4913 32.6002 44.4913 32.9576Z" fill="#0DBE62"/>
<path d="M17.0018 31.7987V20.4108C17.0018 18.3287 18.3226 17.002 20.3927 17.002C23.919 17.002 27.4455 17.002 30.9724 17.002C32.4006 17.002 33.5955 17.8163 34.0103 19.1642C34.2181 19.8386 34.2683 20.564 34.3625 21.2701C34.617 23.2536 34.8547 25.2398 35.1004 27.225C35.324 29.0351 35.5489 30.8458 35.7749 32.657L36.4458 38.0538C36.6677 39.841 36.8891 41.6285 37.1098 43.4163C37.1925 44.0898 37.2727 44.7633 37.3634 45.4359C37.4188 45.8506 37.1749 46.4272 36.828 46.6271C36.7445 46.6617 36.6539 46.6756 36.5638 46.6676C31.1045 46.6676 25.6451 46.6676 20.1858 46.6676C18.3719 46.6676 17.0158 45.2686 17.0158 43.4321C17.0018 39.5549 16.9971 35.6771 17.0018 31.7987ZM28.0138 32.9757C28.0428 33.0849 28.0754 33.1835 28.0948 33.2848C28.2885 34.2585 28.4805 35.2328 28.6707 36.2076C28.7992 36.8583 29.3187 37.2641 29.8823 37.162C30.5198 37.044 30.865 36.5105 30.7294 35.8264C30.0455 32.3771 29.359 28.9283 28.6698 25.4801C28.5474 24.8691 28.1415 24.5372 27.5057 24.5258C26.8506 24.5134 26.1937 24.5126 25.5386 24.5258C24.8835 24.539 24.5075 24.8779 24.3789 25.5259C24.2988 25.9265 24.2213 26.3279 24.1403 26.7294C23.5292 29.7878 22.9178 32.8463 22.3061 35.9048C22.189 36.4903 22.5315 37.0044 23.1153 37.1479C23.6437 37.2756 24.1597 36.9604 24.3279 36.4013C24.3851 36.2112 24.4159 36.0148 24.4573 35.8203C24.6487 34.873 24.8391 33.9248 25.0288 32.9757H28.0138Z" fill="#0DBE62"/>
<path d="M29.3232 48.7958H34.8266C34.7945 48.8493 34.7595 48.901 34.7218 48.9507C33.6529 50.1296 32.5786 51.304 31.5176 52.4908C31.3635 52.6668 31.2534 52.658 31.0773 52.5515C30.1193 51.9713 29.5962 51.1191 29.4677 50.0151C29.4183 49.6207 29.3734 49.2263 29.3232 48.7958Z" fill="#0DBE62"/>
<path d="M43.8267 35.0889H47.333C46.9191 36.2096 46.3045 37.1789 45.5525 38.1209C44.8133 37.2127 44.2301 36.1881 43.8267 35.0889Z" fill="#0DBE62"/>
<path d="M25.4541 30.8362C25.735 29.4276 26.0132 28.0428 26.2924 26.6473H26.7591L27.5982 30.8362H25.4541Z" fill="#0DBE62"/>
</g>
<defs>
<linearGradient id="paint0_linear_2877_7964" x1="35" y1="0" x2="35" y2="70" gradientUnits="userSpaceOnUse">
<stop stop-color="white"/>
<stop offset="0.802671" stop-color="#CDFFE5"/>
<stop offset="1" stop-color="#81FFBD"/>
</linearGradient>
<clipPath id="clip0_2877_7964">
<rect width="36" height="36" fill="white" transform="translate(17 17)"/>
</clipPath>
</defs>
</svg>
