<svg width="70" height="70" viewBox="0 0 70 70" fill="none" xmlns="http://www.w3.org/2000/svg">
<rect x="0.5" y="0.5" width="69" height="69" rx="34.5" fill="url(#paint0_linear_2877_7697)" stroke="white"/>
<g clip-path="url(#clip0_2877_7697)">
<path d="M40.9949 42.3476L46.7416 36.7397C47.0444 36.4465 47.4427 36.2723 47.8635 36.249C48.2843 36.2257 48.6994 36.355 49.0326 36.6131C49.3658 36.8711 49.5947 37.2407 49.6774 37.6539C49.7602 38.0672 49.6911 38.4964 49.4829 38.8629L45.3352 46.0743L40.9949 42.3476Z" fill="#F4AA88"/>
<path d="M42.903 40.4798L40.9949 42.3476L45.3352 46.0743C47.194 42.8358 48.2332 41.0352 48.8334 40.0095C48.9072 39.8655 48.9406 39.7041 48.9301 39.5426C48.9196 39.3812 48.8655 39.2255 48.7736 39.0923C48.6818 38.9591 48.5555 38.8533 48.4083 38.786C48.2611 38.7188 48.0984 38.6927 47.9376 38.7105L45.8548 39.0151C44.7407 39.179 43.7073 39.6918 42.903 40.4798Z" fill="#F48C74"/>
<path d="M25.2371 37.9536V48.7036H26.6211C27.4856 48.6767 27.1094 48.6274 35.7631 51.839C37.2641 52.3907 38.8876 52.5208 40.4574 52.2152C42.0271 51.9097 43.4832 51.18 44.6677 50.1055L54.8354 40.9322C55.2507 40.569 55.5116 40.0608 55.5646 39.5116C55.6177 38.9625 55.4589 38.4138 55.1207 37.9778C54.7826 37.5418 54.2907 37.2515 53.7455 37.1662C53.2004 37.0809 52.6433 37.2072 52.1882 37.5191L43.3911 43.342C43.4981 43.0743 43.5508 42.788 43.5463 42.4997C43.5417 42.2114 43.4799 41.9269 43.3644 41.6627C43.249 41.3985 43.0823 41.1599 42.8738 40.9607C42.6654 40.7614 42.4195 40.6056 42.1504 40.5022L32.0185 36.6143C31.2077 36.3012 30.3378 36.1705 29.4707 36.2317C28.6037 36.2929 27.7607 36.5443 27.0019 36.9681L25.2371 37.9536Z" fill="#F4CDA6"/>
<path d="M44.8022 46.9835L45.5188 46.3429C45.647 46.2213 45.7255 46.0564 45.7389 45.8802C45.7523 45.7041 45.6997 45.5292 45.5914 45.3896C45.483 45.25 45.3267 45.1556 45.1527 45.1249C44.9787 45.0941 44.7995 45.1292 44.6499 45.2232C44.5827 45.25 43.866 45.7338 43.9063 45.6979C43.8104 45.7641 43.7319 45.8523 43.6773 45.9553C43.6227 46.0582 43.5937 46.1727 43.5928 46.2892V46.4549C43.589 46.5966 43.6276 46.7362 43.7036 46.8558C43.7797 46.9754 43.8896 47.0696 44.0195 47.1264C44.1494 47.1831 44.2932 47.1999 44.4326 47.1744C44.5721 47.1489 44.7007 47.0825 44.8022 46.9835Z" fill="#F4CDA6"/>
<path d="M54.8354 40.9322L44.6677 50.1055C43.4809 51.1763 42.0238 51.9018 40.4541 52.2034C38.8844 52.505 37.2622 52.3712 35.7631 51.8166L27.8887 48.9096C27.1989 48.6498 26.8899 48.6901 25.2371 48.717V45.1874C26.6749 45.1874 27.1049 45.0934 27.8887 45.38L35.7631 48.2915C37.2613 48.8459 38.8824 48.9808 40.4516 48.6816C42.0208 48.3825 43.4786 47.6606 44.6677 46.5939L54.6562 37.5684C54.9182 37.7575 55.1345 38.0028 55.2892 38.2865C55.4439 38.5701 55.5332 38.8848 55.5503 39.2074C55.5675 39.5301 55.5122 39.8525 55.3885 40.1509C55.2648 40.4494 55.0758 40.7164 54.8354 40.9322Z" fill="#F4AA88"/>
<path d="M24.3814 37.407H13.4478V51.0729H25.2369V38.267C25.2369 38.0397 25.1469 37.8216 24.9866 37.6604C24.8263 37.4993 24.6087 37.4082 24.3814 37.407Z" fill="#D1EBF6"/>
<path d="M20.4442 37.407H15.1543V39.4719C15.1543 39.7337 15.257 39.9851 15.4405 40.1719C15.624 40.3587 15.8734 40.466 16.1352 40.4707H19.4498C19.5808 40.4707 19.7105 40.4449 19.8314 40.3946C19.9523 40.3444 20.0621 40.2707 20.1545 40.1779C20.2469 40.0851 20.3201 39.9749 20.3698 39.8538C20.4195 39.7326 20.4448 39.6028 20.4442 39.4719V37.407Z" fill="#F9FFF6"/>
<path d="M13.4478 42.8984H25.2369V51.064H13.4478V42.8984Z" fill="#A9C3F6"/>
<path d="M13.4478 49.2993H25.2369V51.0641H13.4478V49.2993Z" fill="#86A0F6"/>
<path d="M24.3816 37.407H22.5452V51.0729H25.2327V38.267C25.2327 38.0404 25.1433 37.823 24.984 37.662C24.8246 37.501 24.6082 37.4093 24.3816 37.407Z" fill="#00987F"/>
<path d="M22.5452 42.8716H25.2371V51.0685H22.5452V42.8716Z" fill="#00987F"/>
<path d="M25.237 46.4773V51.0729H15.7456V48.8333C15.7456 48.2097 15.9934 47.6115 16.4344 47.1705C16.8754 46.7295 17.4735 46.4818 18.0972 46.4818L25.237 46.4773Z" fill="#00987F"/>
<path d="M15.7456 49.2993H25.237V51.0641H15.7456V49.2993Z" fill="#00987F"/>
<path d="M43.548 36.0275C45.7225 36.0275 47.4852 34.2647 47.4852 32.0903C47.4852 29.9158 45.7225 28.1531 43.548 28.1531C41.3736 28.1531 39.6108 29.9158 39.6108 32.0903C39.6108 34.2647 41.3736 36.0275 43.548 36.0275Z" fill="#4895EF"/>
<path d="M46.3653 29.3445C46.0043 28.9601 45.5698 28.6522 45.0876 28.439C44.6053 28.2258 44.0852 28.1116 43.558 28.1033C43.0307 28.0949 42.5072 28.1925 42.0185 28.3904C41.5297 28.5882 41.0856 28.8821 40.7126 29.2548C40.3397 29.6275 40.0453 30.0713 39.8471 30.56C39.6489 31.0486 39.5509 31.572 39.5588 32.0992C39.5667 32.6264 39.6805 33.1467 39.8933 33.6291C40.1061 34.1115 40.4137 34.5463 40.7977 34.9076L46.3653 29.3445Z" fill="white"/>
<path d="M27.9111 25.2953C28.3554 24.8511 28.958 24.6016 29.5863 24.6016C30.2146 24.6016 30.8172 24.8511 31.2615 25.2953L35.1539 29.1877C35.394 29.4023 35.5879 29.6637 35.7236 29.9557C35.8594 30.2478 35.9342 30.5645 35.9434 30.8864C35.9526 31.2083 35.8961 31.5288 35.7774 31.8282C35.6586 32.1275 35.48 32.3995 35.2526 32.6276C35.0252 32.8556 34.7536 33.0349 34.4546 33.1545C34.1555 33.2741 33.8352 33.3314 33.5133 33.323C33.1913 33.3147 32.8744 33.2407 32.582 33.1058C32.2896 32.9708 32.0277 32.7777 31.8125 32.5381L27.9201 28.6457C27.699 28.4266 27.5234 28.166 27.4032 27.8788C27.2831 27.5917 27.2208 27.2836 27.22 26.9724C27.2191 26.6611 27.2798 26.3527 27.3984 26.0649C27.517 25.7772 27.6912 25.5156 27.9111 25.2953Z" fill="#F4504C"/>
<path d="M29.8596 30.5942L33.21 27.2393L35.154 29.1832C35.3892 29.3991 35.5783 29.6604 35.71 29.9512C35.8417 30.2421 35.9132 30.5565 35.9203 30.8757C35.9275 31.1949 35.87 31.5122 35.7514 31.8087C35.6329 32.1051 35.4556 32.3745 35.2303 32.6007C35.005 32.8269 34.7363 33.0052 34.4403 33.125C34.1444 33.2448 33.8273 33.3035 33.5081 33.2977C33.1889 33.2918 32.8741 33.2215 32.5828 33.091C32.2914 32.9605 32.0294 32.7724 31.8125 32.5381L29.8596 30.5942Z" fill="white"/>
<path d="M44.6945 18.075L44.5288 16.6372L43.1492 17.0851C41.6064 17.5576 40.2771 18.5544 39.3913 19.9031C38.5056 21.2518 38.1189 22.8677 38.2983 24.4713L38.464 25.9091L39.8436 25.488C41.391 25.014 42.7234 24.0129 43.6096 22.6588C44.4957 21.3046 44.8796 19.6828 44.6945 18.075Z" fill="#38C6A5"/>
<path d="M41.3577 45.1694C40.8067 45.1694 41.2412 45.2545 31.7678 42.3385C31.661 42.2987 31.5734 42.2196 31.5229 42.1175C31.4723 42.0153 31.4626 41.8978 31.4957 41.7887C31.5289 41.6797 31.6023 41.5873 31.7011 41.5305C31.7999 41.4737 31.9166 41.4567 32.0275 41.483L40.8605 44.2019C41.2941 44.3515 41.7694 44.3228 42.1818 44.1221C42.5943 43.9213 42.9101 43.5649 43.0597 43.1313C43.2094 42.6977 43.1807 42.2224 42.98 41.81C42.7792 41.3975 42.4228 41.0818 41.9892 40.9321L31.8573 37.0307C31.1073 36.7411 30.3027 36.6202 29.5007 36.6767C28.6986 36.7332 27.9189 36.9657 27.2169 37.3577L25.4566 38.3431C25.3527 38.4025 25.2294 38.4182 25.1139 38.3867C24.9984 38.3552 24.9001 38.2791 24.8407 38.1751C24.7813 38.0712 24.7657 37.9479 24.7972 37.8324C24.8287 37.7169 24.9047 37.6187 25.0087 37.5593L26.7735 36.5783C27.5862 36.1233 28.4893 35.8532 29.4184 35.7874C30.3476 35.7216 31.2797 35.8616 32.1485 36.1976L42.3117 40.0989C42.882 40.3212 43.3567 40.7358 43.6537 41.271C43.9507 41.8062 44.0513 42.4284 43.9381 43.0299C43.8249 43.6315 43.5051 44.1745 43.0339 44.5652C42.5627 44.9559 41.9697 45.1696 41.3577 45.1694ZM38.4641 26.3569C38.3827 26.3581 38.3025 26.3371 38.2321 26.2961C38.1617 26.2551 38.1038 26.1958 38.0647 26.1244C38.0255 26.053 38.0066 25.9722 38.0099 25.8909C38.0132 25.8095 38.0386 25.7306 38.0834 25.6626L41.4159 20.6683C41.4488 20.6194 41.491 20.5775 41.5401 20.545C41.5892 20.5124 41.6443 20.4899 41.7021 20.4787C41.7599 20.4674 41.8194 20.4677 41.8771 20.4795C41.9349 20.4913 41.9897 20.5144 42.0385 20.5474C42.1359 20.6138 42.2033 20.7159 42.2259 20.8316C42.2486 20.9473 42.2247 21.0673 42.1594 21.1655L38.8359 26.1598C38.7948 26.2206 38.7394 26.2703 38.6746 26.3047C38.6098 26.3391 38.5375 26.357 38.4641 26.3569Z" fill="#302D3D"/>
<path d="M42.6118 41.2187C42.5232 41.2184 42.4367 41.1917 42.3633 41.1422C42.2898 41.0927 42.2327 41.0225 42.1992 40.9405C42.1656 40.8585 42.1571 40.7684 42.1747 40.6816C42.1924 40.5948 42.2354 40.5152 42.2983 40.4528L46.4281 36.4215C46.8079 36.052 47.3083 35.8321 47.8373 35.8021C48.3664 35.7721 48.8884 35.9342 49.3075 36.2585C49.7266 36.5827 50.0145 37.0474 50.1184 37.567C50.2222 38.0866 50.1349 38.6263 49.8725 39.0867L49.4246 39.8526C49.3952 39.9038 49.356 39.9486 49.3093 39.9847C49.2625 40.0207 49.2091 40.0472 49.1521 40.0625C49.0951 40.0779 49.0357 40.082 48.9771 40.0744C48.9186 40.0668 48.8621 40.0477 48.811 40.0183C48.7598 39.9889 48.7149 39.9497 48.6789 39.903C48.6429 39.8562 48.6164 39.8028 48.601 39.7458C48.5856 39.6888 48.5816 39.6294 48.5892 39.5708C48.5968 39.5123 48.6158 39.4558 48.6452 39.4047L49.0932 38.6387C49.3052 38.3667 49.4005 38.0216 49.3581 37.6793C49.3157 37.337 49.139 37.0255 48.867 36.8135C48.5949 36.6014 48.2498 36.5061 47.9075 36.5486C47.5652 36.591 47.2538 36.7676 47.0417 37.0397L42.9119 41.0709C42.8347 41.1571 42.7272 41.2101 42.6118 41.2187Z" fill="#302D3D"/>
<path d="M35.6063 52.2376L27.7364 49.3261C27.0914 49.0932 26.8406 49.138 25.246 49.1649C25.1272 49.1649 25.0133 49.1177 24.9293 49.0337C24.8453 48.9497 24.7981 48.8357 24.7981 48.7169V37.9669C24.7974 37.8868 24.8183 37.808 24.8585 37.7386C24.8987 37.6693 24.9567 37.612 25.0265 37.5728L26.7913 36.5918C27.6075 36.1349 28.5144 35.8638 29.4475 35.798C30.3805 35.7322 31.3165 35.8732 32.1887 36.2111L42.3117 40.099C42.7866 40.281 43.1983 40.5973 43.4966 41.0093C43.7949 41.4213 43.9668 41.9112 43.9913 42.4192L51.9419 37.1428C52.4924 36.7789 53.1602 36.6366 53.8112 36.7443C54.4623 36.8521 55.0486 37.2019 55.4526 37.7238C55.8566 38.2456 56.0484 38.9008 55.9896 39.5581C55.9308 40.2155 55.6257 40.8262 55.1355 41.2681L44.9678 50.4414C43.7205 51.5676 42.1884 52.3305 40.538 52.6472C38.8875 52.9638 37.1819 52.8222 35.6063 52.2376ZM35.9199 51.4C37.3404 51.9235 38.877 52.0487 40.3636 51.7622C41.8501 51.4756 43.23 50.7881 44.3542 49.774L54.5219 40.6007C54.8149 40.3031 54.9896 39.909 55.0135 39.4921C55.0373 39.0751 54.9086 38.6637 54.6514 38.3347C54.3942 38.0056 54.026 37.7814 53.6157 37.7038C53.2053 37.6263 52.7807 37.7007 52.4211 37.9132L43.6375 43.7271C43.5581 43.7793 43.4641 43.8048 43.3692 43.8C43.2744 43.7952 43.1835 43.7604 43.1097 43.7006C43.0359 43.6407 42.983 43.559 42.9587 43.4672C42.9345 43.3753 42.94 43.2781 42.9746 43.1896C43.0577 42.978 43.0981 42.7519 43.0935 42.5246C43.089 42.2972 43.0394 42.073 42.9479 41.8648C42.8563 41.6567 42.7244 41.4687 42.5599 41.3117C42.3953 41.1547 42.2014 41.0318 41.9892 40.9501L31.8573 37.0353C31.1084 36.7447 30.3046 36.623 29.5033 36.6787C28.7019 36.7344 27.9228 36.9663 27.2213 37.3578L25.685 38.2133V48.2601C27.8753 48.2242 26.6346 47.9644 35.9199 51.4Z" fill="#302D3D"/>
<path d="M25.2371 51.521H13.4479C13.3291 51.521 13.2152 51.4738 13.1312 51.3898C13.0472 51.3058 13 51.1919 13 51.0731V37.4071C13 37.2884 13.0472 37.1744 13.1312 37.0904C13.2152 37.0064 13.3291 36.9592 13.4479 36.9592H24.3816C24.7277 36.9604 25.0592 37.0987 25.3035 37.3439C25.5478 37.589 25.685 37.921 25.685 38.2671V51.0731C25.685 51.1919 25.6378 51.3058 25.5538 51.3898C25.4698 51.4738 25.3559 51.521 25.2371 51.521ZM13.8958 50.6252H24.7892V38.2671C24.7892 38.1586 24.7464 38.0545 24.6701 37.9773C24.5937 37.9002 24.4901 37.8562 24.3816 37.8551H13.8958V50.6252Z" fill="#302D3D"/>
<path d="M25.2371 51.521H22.5496C22.4308 51.521 22.3168 51.4738 22.2328 51.3898C22.1488 51.3058 22.1016 51.1919 22.1016 51.0731C22.1016 50.9543 22.1488 50.8404 22.2328 50.7564C22.3168 50.6724 22.4308 50.6252 22.5496 50.6252H24.7891V38.2671C24.7892 38.1586 24.7464 38.0545 24.67 37.9773C24.5937 37.9002 24.4901 37.8562 24.3815 37.8551H22.993V46.4775C22.993 46.5963 22.9458 46.7102 22.8618 46.7942C22.7778 46.8782 22.6639 46.9254 22.5451 46.9254C22.4263 46.9254 22.3124 46.8782 22.2284 46.7942C22.1444 46.7102 22.0972 46.5963 22.0972 46.4775V37.4071C22.0972 37.2884 22.1444 37.1744 22.2284 37.0904C22.3124 37.0064 22.4263 36.9592 22.5451 36.9592H24.3815C24.7276 36.9604 25.0592 37.0987 25.3035 37.3439C25.5478 37.589 25.685 37.921 25.685 38.2671V51.0731C25.685 51.1919 25.6378 51.3058 25.5538 51.3898C25.4698 51.4738 25.3559 51.521 25.2371 51.521Z" fill="#302D3D"/>
<path d="M25.2371 51.521H15.7458C15.627 51.521 15.513 51.4738 15.429 51.3898C15.345 51.3058 15.2979 51.1919 15.2979 51.0731V48.8335C15.299 48.0914 15.5944 47.38 16.1191 46.8553C16.6439 46.3305 17.3552 46.0352 18.0973 46.034H25.2371C25.3559 46.034 25.4698 46.0812 25.5538 46.1652C25.6378 46.2492 25.685 46.3631 25.685 46.4819V51.0731C25.685 51.1919 25.6378 51.3058 25.5538 51.3898C25.4698 51.4738 25.3559 51.521 25.2371 51.521ZM16.1937 50.6251H24.7892V46.9254H18.0973C17.592 46.9265 17.1079 47.1281 16.751 47.4858C16.3941 47.8435 16.1937 48.3282 16.1937 48.8335V50.6251ZM43.548 36.4755C42.5322 36.4764 41.5476 36.1251 40.7619 35.4814C39.9762 34.8376 39.438 33.9413 39.2392 32.9452C39.0403 31.9492 39.193 30.9149 39.6713 30.0189C40.1496 29.1228 40.9239 28.4203 41.8622 28.0312C42.8004 27.6421 43.8446 27.5904 44.8167 27.8849C45.7888 28.1794 46.6286 28.802 47.1931 29.6464C47.7576 30.4909 48.0118 31.5049 47.9123 32.5158C47.8128 33.5267 47.3658 34.4717 46.6475 35.1899C46.2415 35.5984 45.7585 35.9223 45.2264 36.143C44.6944 36.3636 44.1239 36.4766 43.548 36.4755ZM43.548 28.6011C42.9741 28.6006 42.4089 28.7417 41.9026 29.0118C41.3962 29.2819 40.9643 29.6728 40.6451 30.1497C40.3259 30.6267 40.1293 31.175 40.0727 31.7461C40.0161 32.3172 40.1012 32.8934 40.3205 33.4238C40.5398 33.9541 40.8866 34.4222 41.33 34.7865C41.7734 35.1508 42.2999 35.4001 42.8627 35.5123C43.4255 35.6245 44.0074 35.5961 44.5566 35.4297C45.1058 35.2634 45.6056 34.9641 46.0115 34.5584C46.4973 34.0698 46.8279 33.4485 46.9615 32.7726C47.0952 32.0967 47.0261 31.3964 46.7628 30.7597C46.4995 30.123 46.0538 29.5783 45.4818 29.1943C44.9098 28.8102 44.2369 28.6038 43.548 28.6011Z" fill="#302D3D"/>
<path d="M40.7978 35.3555C40.7304 35.3549 40.6639 35.3398 40.6028 35.3112C40.5418 35.2826 40.4876 35.2412 40.4439 35.1898C39.6282 34.3659 39.172 33.2523 39.1751 32.0929C39.1782 30.9334 39.6404 29.8224 40.4606 29.0028C41.2807 28.1832 42.3921 27.7219 43.5516 27.7196C44.711 27.7173 45.8242 28.1743 46.6476 28.9907C46.6942 29.0323 46.732 29.0828 46.7591 29.1392C46.7861 29.1956 46.8017 29.2567 46.805 29.3191C46.8084 29.3816 46.7993 29.444 46.7785 29.503C46.7576 29.5619 46.7253 29.6161 46.6834 29.6625L41.1158 35.2257C41.074 35.2672 41.0243 35.3 40.9697 35.3223C40.9152 35.3446 40.8567 35.3559 40.7978 35.3555ZM43.548 28.601C42.8914 28.6006 42.248 28.7856 41.6918 29.1345C41.1356 29.4835 40.6891 29.9823 40.4037 30.5737C40.1184 31.165 40.0056 31.8249 40.0785 32.4775C40.1514 33.13 40.4069 33.7488 40.8157 34.2626L45.698 29.3579C45.0877 28.8696 44.3297 28.6027 43.548 28.601ZM33.4788 33.6803C32.731 33.6787 32.0142 33.3807 31.4856 32.8517L27.5932 28.9593C27.0646 28.4307 26.7676 27.7137 26.7676 26.9661C26.7676 26.2185 27.0646 25.5015 27.5932 24.9728C28.1218 24.4442 28.8388 24.1472 29.5864 24.1472C30.334 24.1472 31.051 24.4442 31.5797 24.9728L35.4721 28.8652C35.8637 29.2607 36.1298 29.763 36.2371 30.3091C36.3445 30.8552 36.2881 31.4208 36.0753 31.935C35.8624 32.4493 35.5025 32.8892 35.0406 33.1997C34.5787 33.5102 34.0354 33.6774 33.4788 33.6803ZM29.573 25.049C29.1955 25.0543 28.8279 25.1705 28.5158 25.383C28.2038 25.5955 27.9611 25.8951 27.8179 26.2444C27.6748 26.5938 27.6374 26.9775 27.7105 27.3479C27.7837 27.7183 27.964 28.059 28.2292 28.3277L32.1216 32.2201C32.4874 32.555 32.9681 32.7359 33.4639 32.7252C33.9596 32.7145 34.4322 32.513 34.7831 32.1626C35.134 31.8123 35.3363 31.3401 35.3478 30.8444C35.3593 30.3486 35.1792 29.8676 34.845 29.5013L30.9526 25.6089C30.7719 25.4279 30.5566 25.285 30.3196 25.1888C30.0826 25.0926 29.8287 25.0451 29.573 25.049Z" fill="#302D3D"/>
<path d="M33.4788 33.6804C32.7309 33.6788 32.0142 33.3808 31.4856 32.8517L29.5416 30.9167C29.4582 30.8328 29.4114 30.7193 29.4114 30.601C29.4114 30.4826 29.4582 30.3691 29.5416 30.2852L32.8965 26.9303C32.9804 26.8469 33.094 26.8 33.2123 26.8C33.3306 26.8 33.4442 26.8469 33.5281 26.9303L35.472 28.8742C35.8606 29.2701 36.1242 29.7716 36.2297 30.3162C36.3353 30.8608 36.2783 31.4244 36.0658 31.9369C35.8533 32.4493 35.4947 32.8878 35.0346 33.1979C34.5746 33.5079 34.0335 33.6757 33.4788 33.6804ZM30.4912 30.5942L32.1171 32.2202C32.4829 32.555 32.9637 32.7359 33.4594 32.7252C33.9552 32.7145 34.4277 32.513 34.7786 32.1627C35.1295 31.8123 35.3318 31.3401 35.3433 30.8444C35.3548 30.3487 35.1747 29.8676 34.8405 29.5013L33.2101 27.8709L30.4912 30.5942ZM38.4641 26.3569C38.3541 26.3577 38.2476 26.318 38.165 26.2453C38.0824 26.1726 38.0294 26.072 38.0162 25.9628L37.8505 24.525C37.655 22.8141 38.0638 21.0888 39.0061 19.6475C39.9484 18.2063 41.3649 17.1398 43.0105 16.6327L44.3945 16.2116C44.4574 16.1913 44.5239 16.1852 44.5894 16.1936C44.6548 16.202 44.7176 16.2248 44.7733 16.2603C44.8289 16.2959 44.876 16.3432 44.9112 16.3991C44.9464 16.4549 44.9688 16.5179 44.9768 16.5834L45.1426 18.0212C45.3387 19.7328 44.9296 21.459 43.9863 22.9005C43.043 24.342 41.625 25.408 39.9781 25.9135C38.4955 26.3704 38.5582 26.3569 38.4641 26.3569ZM44.1482 17.2239L43.2792 17.4792C41.8307 17.9236 40.5836 18.8615 39.7546 20.1298C38.9257 21.3981 38.5674 22.9168 38.7418 24.4219L38.8449 25.3178L39.7138 25.049C41.1592 24.6068 42.4042 23.6727 43.2329 22.4087C44.0617 21.1447 44.4219 19.6305 44.2512 18.1287L44.1482 17.2239Z" fill="#302D3D"/>
<path d="M33.9445 39.9602C34.023 39.9571 34.098 39.927 34.1568 39.8751C34.2156 39.8231 34.2546 39.7523 34.2673 39.6749C34.2799 39.5974 34.2654 39.5179 34.2262 39.4499C34.1869 39.3819 34.1254 39.3296 34.052 39.3017L31.2033 38.2043C30.6514 37.9937 30.0577 37.916 29.4702 37.9775C28.8826 38.0389 28.3179 38.2379 27.8215 38.5582C27.6836 38.6424 27.5763 38.7685 27.5152 38.9181C27.4541 39.0677 27.4425 39.2329 27.482 39.3895C27.5215 39.5462 27.6102 39.6861 27.7349 39.7888C27.8597 39.8914 28.014 39.9515 28.1754 39.9602H33.9445Z" fill="white"/>
</g>
<defs>
<linearGradient id="paint0_linear_2877_7697" x1="35" y1="0" x2="35" y2="70" gradientUnits="userSpaceOnUse">
<stop stop-color="white"/>
<stop offset="0.802671" stop-color="#C2FFDF"/>
<stop offset="1" stop-color="#81F1B5"/>
</linearGradient>
<clipPath id="clip0_2877_7697">
<rect width="43" height="43" fill="white" transform="translate(13 13)"/>
</clipPath>
</defs>
</svg>
