<svg width="320" height="63" viewBox="0 0 320 63" fill="none" xmlns="http://www.w3.org/2000/svg">
<mask id="path-1-outside-1_5412_4115" maskUnits="userSpaceOnUse" x="57" y="12" width="260" height="32" fill="black">
<rect fill="white" x="57" y="12" width="260" height="32"/>
<path d="M63.8455 36H58.7376L66.5206 13.4545H72.6634L80.4354 36H75.3274L69.68 18.6065H69.5039L63.8455 36ZM63.5263 27.1381H75.5916V30.859H63.5263V27.1381ZM89.9137 36.3303C88.1817 36.3303 86.6919 35.9633 85.4442 35.2294C84.204 34.4882 83.2499 33.4607 82.582 32.147C81.9215 30.8333 81.5913 29.3215 81.5913 27.6115C81.5913 25.8795 81.9252 24.3603 82.593 23.054C83.2682 21.7403 84.226 20.7165 85.4663 19.9826C86.7066 19.2414 88.1817 18.8707 89.8917 18.8707C91.3668 18.8707 92.6585 19.1386 93.7667 19.6744C94.8749 20.2101 95.7519 20.9624 96.3977 21.9311C97.0436 22.8999 97.3995 24.0374 97.4656 25.3438H93.0401C92.9154 24.4998 92.5851 23.8209 92.0494 23.3072C91.521 22.7861 90.8274 22.5256 89.9688 22.5256C89.2422 22.5256 88.6074 22.7237 88.0643 23.12C87.5285 23.509 87.1102 24.0778 86.8093 24.8263C86.5084 25.5749 86.358 26.4813 86.358 27.5455C86.358 28.6243 86.5047 29.5417 86.7983 30.2976C87.0992 31.0535 87.5212 31.6296 88.0643 32.0259C88.6074 32.4222 89.2422 32.6204 89.9688 32.6204C90.5045 32.6204 90.9852 32.5103 91.4109 32.2901C91.8439 32.07 92.1998 31.7507 92.4787 31.3324C92.7649 30.9067 92.9521 30.3967 93.0401 29.8022H97.4656C97.3922 31.0939 97.0399 32.2314 96.4087 33.2148C95.7849 34.1909 94.9226 34.9542 93.8217 35.5046C92.7209 36.055 91.4182 36.3303 89.9137 36.3303ZM105.158 26.2244V36H100.468V19.0909H104.938V22.0742H105.136C105.51 21.0908 106.138 20.3129 107.018 19.7404C107.899 19.1606 108.967 18.8707 110.222 18.8707C111.396 18.8707 112.42 19.1276 113.293 19.6413C114.166 20.1551 114.845 20.889 115.33 21.843C115.814 22.7898 116.056 23.92 116.056 25.2337V36H111.367V26.0703C111.374 25.0355 111.11 24.2282 110.574 23.6484C110.038 23.0613 109.301 22.7678 108.361 22.7678C107.73 22.7678 107.172 22.9035 106.688 23.1751C106.211 23.4466 105.837 23.8429 105.565 24.364C105.301 24.8777 105.165 25.4979 105.158 26.2244ZM127.392 36.3303C125.682 36.3303 124.203 35.967 122.956 35.2404C121.715 34.5065 120.758 33.4864 120.083 32.18C119.407 30.8664 119.07 29.3435 119.07 27.6115C119.07 25.8648 119.407 24.3383 120.083 23.032C120.758 21.7183 121.715 20.6982 122.956 19.9716C124.203 19.2377 125.682 18.8707 127.392 18.8707C129.102 18.8707 130.577 19.2377 131.818 19.9716C133.065 20.6982 134.027 21.7183 134.702 23.032C135.377 24.3383 135.715 25.8648 135.715 27.6115C135.715 29.3435 135.377 30.8664 134.702 32.18C134.027 33.4864 133.065 34.5065 131.818 35.2404C130.577 35.967 129.102 36.3303 127.392 36.3303ZM127.414 32.6974C128.192 32.6974 128.842 32.4773 129.363 32.0369C129.884 31.5893 130.276 30.9801 130.541 30.2095C130.812 29.4389 130.948 28.5619 130.948 27.5785C130.948 26.5951 130.812 25.718 130.541 24.9474C130.276 24.1768 129.884 23.5677 129.363 23.12C128.842 22.6723 128.192 22.4485 127.414 22.4485C126.629 22.4485 125.968 22.6723 125.433 23.12C124.904 23.5677 124.504 24.1768 124.233 24.9474C123.969 25.718 123.836 26.5951 123.836 27.5785C123.836 28.5619 123.969 29.4389 124.233 30.2095C124.504 30.9801 124.904 31.5893 125.433 32.0369C125.968 32.4773 126.629 32.6974 127.414 32.6974ZM146.404 36.3303C144.694 36.3303 143.215 35.967 141.968 35.2404C140.727 34.5065 139.769 33.4864 139.094 32.18C138.419 30.8664 138.081 29.3435 138.081 27.6115C138.081 25.8648 138.419 24.3383 139.094 23.032C139.769 21.7183 140.727 20.6982 141.968 19.9716C143.215 19.2377 144.694 18.8707 146.404 18.8707C148.114 18.8707 149.589 19.2377 150.829 19.9716C152.077 20.6982 153.038 21.7183 153.714 23.032C154.389 24.3383 154.726 25.8648 154.726 27.6115C154.726 29.3435 154.389 30.8664 153.714 32.18C153.038 33.4864 152.077 34.5065 150.829 35.2404C149.589 35.967 148.114 36.3303 146.404 36.3303ZM146.426 32.6974C147.204 32.6974 147.853 32.4773 148.374 32.0369C148.896 31.5893 149.288 30.9801 149.552 30.2095C149.824 29.4389 149.96 28.5619 149.96 27.5785C149.96 26.5951 149.824 25.718 149.552 24.9474C149.288 24.1768 148.896 23.5677 148.374 23.12C147.853 22.6723 147.204 22.4485 146.426 22.4485C145.641 22.4485 144.98 22.6723 144.444 23.12C143.916 23.5677 143.516 24.1768 143.244 24.9474C142.98 25.718 142.848 26.5951 142.848 27.5785C142.848 28.5619 142.98 29.4389 143.244 30.2095C143.516 30.9801 143.916 31.5893 144.444 32.0369C144.98 32.4773 145.641 32.6974 146.426 32.6974ZM165.039 36V13.4545H173.934C175.643 13.4545 177.1 13.7811 178.304 14.4343C179.507 15.0801 180.425 15.9792 181.056 17.1314C181.695 18.2763 182.014 19.5973 182.014 21.0945C182.014 22.5916 181.691 23.9126 181.045 25.0575C180.399 26.2024 179.463 27.0941 178.238 27.7326C177.02 28.3711 175.544 28.6903 173.812 28.6903H168.143V24.8704H173.042C173.959 24.8704 174.715 24.7126 175.31 24.397C175.911 24.0741 176.359 23.6301 176.653 23.065C176.954 22.4925 177.104 21.8357 177.104 21.0945C177.104 20.3459 176.954 19.6927 176.653 19.1349C176.359 18.5698 175.911 18.1332 175.31 17.8249C174.708 17.5094 173.945 17.3516 173.02 17.3516H169.805V36H165.039ZM189.711 26.2244V36H185.022V13.4545H189.579V22.0742H189.778C190.159 21.0761 190.776 20.2945 191.627 19.7294C192.478 19.157 193.546 18.8707 194.83 18.8707C196.005 18.8707 197.028 19.1276 197.902 19.6413C198.782 20.1477 199.465 20.878 199.949 21.832C200.441 22.7788 200.683 23.9126 200.676 25.2337V36H195.986V26.0703C195.994 25.0282 195.729 24.2172 195.194 23.6374C194.665 23.0576 193.924 22.7678 192.97 22.7678C192.331 22.7678 191.766 22.9035 191.275 23.1751C190.79 23.4466 190.409 23.8429 190.13 24.364C189.858 24.8777 189.719 25.4979 189.711 26.2244ZM209.188 36.3192C208.109 36.3192 207.148 36.1321 206.304 35.7578C205.46 35.3762 204.792 34.8147 204.301 34.0735C203.816 33.3249 203.574 32.3929 203.574 31.2773C203.574 30.3379 203.746 29.549 204.091 28.9105C204.436 28.272 204.906 27.7583 205.5 27.3693C206.095 26.9804 206.77 26.6868 207.526 26.4886C208.289 26.2905 209.089 26.151 209.926 26.0703C210.909 25.9676 211.702 25.8722 212.304 25.7841C212.906 25.6887 213.342 25.5492 213.614 25.3658C213.885 25.1823 214.021 24.9107 214.021 24.5511V24.4851C214.021 23.7879 213.801 23.2485 213.361 22.8668C212.928 22.4852 212.311 22.2944 211.511 22.2944C210.667 22.2944 209.996 22.4815 209.497 22.8558C208.997 23.2228 208.667 23.6851 208.506 24.2429L204.168 23.8906C204.389 22.8632 204.822 21.9751 205.467 21.2266C206.113 20.4706 206.946 19.8909 207.966 19.4872C208.994 19.0762 210.183 18.8707 211.533 18.8707C212.473 18.8707 213.372 18.9808 214.23 19.201C215.096 19.4212 215.863 19.7624 216.531 20.2248C217.206 20.6871 217.738 21.2816 218.127 22.0082C218.516 22.7274 218.711 23.5897 218.711 24.5952V36H214.263V33.6552H214.131C213.86 34.1836 213.496 34.6496 213.041 35.0533C212.586 35.4496 212.04 35.7615 211.401 35.989C210.763 36.2092 210.025 36.3192 209.188 36.3192ZM210.531 33.0827C211.221 33.0827 211.83 32.947 212.359 32.6754C212.887 32.3965 213.302 32.0223 213.603 31.5526C213.904 31.0829 214.054 30.5508 214.054 29.9563V28.1619C213.907 28.2573 213.705 28.3454 213.449 28.4261C213.199 28.4995 212.917 28.5692 212.601 28.6353C212.285 28.694 211.97 28.7491 211.654 28.8004C211.339 28.8445 211.052 28.8848 210.796 28.9215C210.245 29.0022 209.764 29.1307 209.353 29.3068C208.942 29.483 208.623 29.7215 208.396 30.0224C208.168 30.3159 208.054 30.6829 208.054 31.1232C208.054 31.7617 208.286 32.2498 208.748 32.5874C209.218 32.9176 209.812 33.0827 210.531 33.0827ZM222.349 36V19.0909H226.896V22.0412H227.072C227.38 20.9917 227.897 20.1991 228.624 19.6634C229.35 19.1203 230.187 18.8487 231.134 18.8487C231.369 18.8487 231.622 18.8634 231.893 18.8928C232.165 18.9221 232.403 18.9625 232.609 19.0138V23.1751C232.389 23.109 232.084 23.0503 231.695 22.9989C231.306 22.9476 230.95 22.9219 230.627 22.9219C229.938 22.9219 229.321 23.0723 228.778 23.3732C228.242 23.6668 227.817 24.0778 227.501 24.6062C227.193 25.1346 227.039 25.7437 227.039 26.4336V36H222.349ZM235.034 36V19.0909H239.503V22.0742H239.701C240.053 21.0835 240.641 20.3018 241.463 19.7294C242.285 19.157 243.268 18.8707 244.413 18.8707C245.572 18.8707 246.559 19.1606 247.374 19.7404C248.189 20.3129 248.732 21.0908 249.003 22.0742H249.18C249.524 21.1055 250.148 20.3312 251.051 19.7514C251.961 19.1643 253.036 18.8707 254.276 18.8707C255.854 18.8707 257.135 19.3735 258.118 20.3789C259.109 21.377 259.605 22.7934 259.605 24.6282V36H254.926V25.5529C254.926 24.6135 254.676 23.909 254.177 23.4393C253.678 22.9696 253.055 22.7347 252.306 22.7347C251.455 22.7347 250.79 23.0063 250.313 23.5494C249.836 24.0851 249.598 24.7933 249.598 25.674V36H245.051V25.4538C245.051 24.6245 244.813 23.964 244.336 23.4723C243.866 22.9806 243.246 22.7347 242.475 22.7347C241.954 22.7347 241.485 22.8668 241.066 23.131C240.655 23.3879 240.329 23.7512 240.086 24.2209C239.844 24.6832 239.723 25.2263 239.723 25.8501V36H235.034ZM268.131 36.3192C267.052 36.3192 266.09 36.1321 265.246 35.7578C264.402 35.3762 263.735 34.8147 263.243 34.0735C262.759 33.3249 262.516 32.3929 262.516 31.2773C262.516 30.3379 262.689 29.549 263.034 28.9105C263.379 28.272 263.848 27.7583 264.443 27.3693C265.037 26.9804 265.712 26.6868 266.468 26.4886C267.232 26.2905 268.032 26.151 268.868 26.0703C269.852 25.9676 270.644 25.8722 271.246 25.7841C271.848 25.6887 272.285 25.5492 272.556 25.3658C272.828 25.1823 272.963 24.9107 272.963 24.5511V24.4851C272.963 23.7879 272.743 23.2485 272.303 22.8668C271.87 22.4852 271.253 22.2944 270.453 22.2944C269.609 22.2944 268.938 22.4815 268.439 22.8558C267.94 23.2228 267.61 23.6851 267.448 24.2429L263.111 23.8906C263.331 22.8632 263.764 21.9751 264.41 21.2266C265.056 20.4706 265.889 19.8909 266.909 19.4872C267.936 19.0762 269.125 18.8707 270.475 18.8707C271.415 18.8707 272.314 18.9808 273.173 19.201C274.039 19.4212 274.806 19.7624 275.473 20.2248C276.149 20.6871 276.681 21.2816 277.07 22.0082C277.459 22.7274 277.653 23.5897 277.653 24.5952V36H273.206V33.6552H273.074C272.802 34.1836 272.439 34.6496 271.984 35.0533C271.529 35.4496 270.982 35.7615 270.343 35.989C269.705 36.2092 268.967 36.3192 268.131 36.3192ZM269.474 33.0827C270.164 33.0827 270.773 32.947 271.301 32.6754C271.83 32.3965 272.244 32.0223 272.545 31.5526C272.846 31.0829 272.996 30.5508 272.996 29.9563V28.1619C272.85 28.2573 272.648 28.3454 272.391 28.4261C272.141 28.4995 271.859 28.5692 271.543 28.6353C271.228 28.694 270.912 28.7491 270.597 28.8004C270.281 28.8445 269.995 28.8848 269.738 28.9215C269.188 29.0022 268.707 29.1307 268.296 29.3068C267.885 29.483 267.566 29.7215 267.338 30.0224C267.111 30.3159 266.997 30.6829 266.997 31.1232C266.997 31.7617 267.228 32.2498 267.69 32.5874C268.16 32.9176 268.754 33.0827 269.474 33.0827ZM288.931 36.3303C287.199 36.3303 285.709 35.9633 284.462 35.2294C283.222 34.4882 282.267 33.4607 281.6 32.147C280.939 30.8333 280.609 29.3215 280.609 27.6115C280.609 25.8795 280.943 24.3603 281.611 23.054C282.286 21.7403 283.244 20.7165 284.484 19.9826C285.724 19.2414 287.199 18.8707 288.909 18.8707C290.384 18.8707 291.676 19.1386 292.784 19.6744C293.892 20.2101 294.769 20.9624 295.415 21.9311C296.061 22.8999 296.417 24.0374 296.483 25.3438H292.058C291.933 24.4998 291.603 23.8209 291.067 23.3072C290.539 22.7861 289.845 22.5256 288.986 22.5256C288.26 22.5256 287.625 22.7237 287.082 23.12C286.546 23.509 286.128 24.0778 285.827 24.8263C285.526 25.5749 285.376 26.4813 285.376 27.5455C285.376 28.6243 285.522 29.5417 285.816 30.2976C286.117 31.0535 286.539 31.6296 287.082 32.0259C287.625 32.4222 288.26 32.6204 288.986 32.6204C289.522 32.6204 290.003 32.5103 290.428 32.2901C290.861 32.07 291.217 31.7507 291.496 31.3324C291.782 30.9067 291.97 30.3967 292.058 29.8022H296.483C296.41 31.0939 296.057 32.2314 295.426 33.2148C294.802 34.1909 293.94 34.9542 292.839 35.5046C291.738 36.055 290.436 36.3303 288.931 36.3303ZM302.381 42.3409C301.786 42.3409 301.229 42.2932 300.708 42.1978C300.194 42.1097 299.768 41.996 299.431 41.8565L300.487 38.3558C301.038 38.5246 301.533 38.6164 301.974 38.631C302.421 38.6457 302.807 38.543 303.13 38.3228C303.46 38.1026 303.728 37.7283 303.933 37.1999L304.208 36.4844L298.143 19.0909H303.074L306.575 31.5085H306.751L310.285 19.0909H315.25L308.678 37.8274C308.362 38.7375 307.933 39.5301 307.39 40.2053C306.854 40.8878 306.175 41.4125 305.353 41.7795C304.531 42.1538 303.541 42.3409 302.381 42.3409Z"/>
</mask>
<path d="M63.8455 36H58.7376L66.5206 13.4545H72.6634L80.4354 36H75.3274L69.68 18.6065H69.5039L63.8455 36ZM63.5263 27.1381H75.5916V30.859H63.5263V27.1381ZM89.9137 36.3303C88.1817 36.3303 86.6919 35.9633 85.4442 35.2294C84.204 34.4882 83.2499 33.4607 82.582 32.147C81.9215 30.8333 81.5913 29.3215 81.5913 27.6115C81.5913 25.8795 81.9252 24.3603 82.593 23.054C83.2682 21.7403 84.226 20.7165 85.4663 19.9826C86.7066 19.2414 88.1817 18.8707 89.8917 18.8707C91.3668 18.8707 92.6585 19.1386 93.7667 19.6744C94.8749 20.2101 95.7519 20.9624 96.3977 21.9311C97.0436 22.8999 97.3995 24.0374 97.4656 25.3438H93.0401C92.9154 24.4998 92.5851 23.8209 92.0494 23.3072C91.521 22.7861 90.8274 22.5256 89.9688 22.5256C89.2422 22.5256 88.6074 22.7237 88.0643 23.12C87.5285 23.509 87.1102 24.0778 86.8093 24.8263C86.5084 25.5749 86.358 26.4813 86.358 27.5455C86.358 28.6243 86.5047 29.5417 86.7983 30.2976C87.0992 31.0535 87.5212 31.6296 88.0643 32.0259C88.6074 32.4222 89.2422 32.6204 89.9688 32.6204C90.5045 32.6204 90.9852 32.5103 91.4109 32.2901C91.8439 32.07 92.1998 31.7507 92.4787 31.3324C92.7649 30.9067 92.9521 30.3967 93.0401 29.8022H97.4656C97.3922 31.0939 97.0399 32.2314 96.4087 33.2148C95.7849 34.1909 94.9226 34.9542 93.8217 35.5046C92.7209 36.055 91.4182 36.3303 89.9137 36.3303ZM105.158 26.2244V36H100.468V19.0909H104.938V22.0742H105.136C105.51 21.0908 106.138 20.3129 107.018 19.7404C107.899 19.1606 108.967 18.8707 110.222 18.8707C111.396 18.8707 112.42 19.1276 113.293 19.6413C114.166 20.1551 114.845 20.889 115.33 21.843C115.814 22.7898 116.056 23.92 116.056 25.2337V36H111.367V26.0703C111.374 25.0355 111.11 24.2282 110.574 23.6484C110.038 23.0613 109.301 22.7678 108.361 22.7678C107.73 22.7678 107.172 22.9035 106.688 23.1751C106.211 23.4466 105.837 23.8429 105.565 24.364C105.301 24.8777 105.165 25.4979 105.158 26.2244ZM127.392 36.3303C125.682 36.3303 124.203 35.967 122.956 35.2404C121.715 34.5065 120.758 33.4864 120.083 32.18C119.407 30.8664 119.07 29.3435 119.07 27.6115C119.07 25.8648 119.407 24.3383 120.083 23.032C120.758 21.7183 121.715 20.6982 122.956 19.9716C124.203 19.2377 125.682 18.8707 127.392 18.8707C129.102 18.8707 130.577 19.2377 131.818 19.9716C133.065 20.6982 134.027 21.7183 134.702 23.032C135.377 24.3383 135.715 25.8648 135.715 27.6115C135.715 29.3435 135.377 30.8664 134.702 32.18C134.027 33.4864 133.065 34.5065 131.818 35.2404C130.577 35.967 129.102 36.3303 127.392 36.3303ZM127.414 32.6974C128.192 32.6974 128.842 32.4773 129.363 32.0369C129.884 31.5893 130.276 30.9801 130.541 30.2095C130.812 29.4389 130.948 28.5619 130.948 27.5785C130.948 26.5951 130.812 25.718 130.541 24.9474C130.276 24.1768 129.884 23.5677 129.363 23.12C128.842 22.6723 128.192 22.4485 127.414 22.4485C126.629 22.4485 125.968 22.6723 125.433 23.12C124.904 23.5677 124.504 24.1768 124.233 24.9474C123.969 25.718 123.836 26.5951 123.836 27.5785C123.836 28.5619 123.969 29.4389 124.233 30.2095C124.504 30.9801 124.904 31.5893 125.433 32.0369C125.968 32.4773 126.629 32.6974 127.414 32.6974ZM146.404 36.3303C144.694 36.3303 143.215 35.967 141.968 35.2404C140.727 34.5065 139.769 33.4864 139.094 32.18C138.419 30.8664 138.081 29.3435 138.081 27.6115C138.081 25.8648 138.419 24.3383 139.094 23.032C139.769 21.7183 140.727 20.6982 141.968 19.9716C143.215 19.2377 144.694 18.8707 146.404 18.8707C148.114 18.8707 149.589 19.2377 150.829 19.9716C152.077 20.6982 153.038 21.7183 153.714 23.032C154.389 24.3383 154.726 25.8648 154.726 27.6115C154.726 29.3435 154.389 30.8664 153.714 32.18C153.038 33.4864 152.077 34.5065 150.829 35.2404C149.589 35.967 148.114 36.3303 146.404 36.3303ZM146.426 32.6974C147.204 32.6974 147.853 32.4773 148.374 32.0369C148.896 31.5893 149.288 30.9801 149.552 30.2095C149.824 29.4389 149.96 28.5619 149.96 27.5785C149.96 26.5951 149.824 25.718 149.552 24.9474C149.288 24.1768 148.896 23.5677 148.374 23.12C147.853 22.6723 147.204 22.4485 146.426 22.4485C145.641 22.4485 144.98 22.6723 144.444 23.12C143.916 23.5677 143.516 24.1768 143.244 24.9474C142.98 25.718 142.848 26.5951 142.848 27.5785C142.848 28.5619 142.98 29.4389 143.244 30.2095C143.516 30.9801 143.916 31.5893 144.444 32.0369C144.98 32.4773 145.641 32.6974 146.426 32.6974ZM165.039 36V13.4545H173.934C175.643 13.4545 177.1 13.7811 178.304 14.4343C179.507 15.0801 180.425 15.9792 181.056 17.1314C181.695 18.2763 182.014 19.5973 182.014 21.0945C182.014 22.5916 181.691 23.9126 181.045 25.0575C180.399 26.2024 179.463 27.0941 178.238 27.7326C177.02 28.3711 175.544 28.6903 173.812 28.6903H168.143V24.8704H173.042C173.959 24.8704 174.715 24.7126 175.31 24.397C175.911 24.0741 176.359 23.6301 176.653 23.065C176.954 22.4925 177.104 21.8357 177.104 21.0945C177.104 20.3459 176.954 19.6927 176.653 19.1349C176.359 18.5698 175.911 18.1332 175.31 17.8249C174.708 17.5094 173.945 17.3516 173.02 17.3516H169.805V36H165.039ZM189.711 26.2244V36H185.022V13.4545H189.579V22.0742H189.778C190.159 21.0761 190.776 20.2945 191.627 19.7294C192.478 19.157 193.546 18.8707 194.83 18.8707C196.005 18.8707 197.028 19.1276 197.902 19.6413C198.782 20.1477 199.465 20.878 199.949 21.832C200.441 22.7788 200.683 23.9126 200.676 25.2337V36H195.986V26.0703C195.994 25.0282 195.729 24.2172 195.194 23.6374C194.665 23.0576 193.924 22.7678 192.97 22.7678C192.331 22.7678 191.766 22.9035 191.275 23.1751C190.79 23.4466 190.409 23.8429 190.13 24.364C189.858 24.8777 189.719 25.4979 189.711 26.2244ZM209.188 36.3192C208.109 36.3192 207.148 36.1321 206.304 35.7578C205.46 35.3762 204.792 34.8147 204.301 34.0735C203.816 33.3249 203.574 32.3929 203.574 31.2773C203.574 30.3379 203.746 29.549 204.091 28.9105C204.436 28.272 204.906 27.7583 205.5 27.3693C206.095 26.9804 206.77 26.6868 207.526 26.4886C208.289 26.2905 209.089 26.151 209.926 26.0703C210.909 25.9676 211.702 25.8722 212.304 25.7841C212.906 25.6887 213.342 25.5492 213.614 25.3658C213.885 25.1823 214.021 24.9107 214.021 24.5511V24.4851C214.021 23.7879 213.801 23.2485 213.361 22.8668C212.928 22.4852 212.311 22.2944 211.511 22.2944C210.667 22.2944 209.996 22.4815 209.497 22.8558C208.997 23.2228 208.667 23.6851 208.506 24.2429L204.168 23.8906C204.389 22.8632 204.822 21.9751 205.467 21.2266C206.113 20.4706 206.946 19.8909 207.966 19.4872C208.994 19.0762 210.183 18.8707 211.533 18.8707C212.473 18.8707 213.372 18.9808 214.23 19.201C215.096 19.4212 215.863 19.7624 216.531 20.2248C217.206 20.6871 217.738 21.2816 218.127 22.0082C218.516 22.7274 218.711 23.5897 218.711 24.5952V36H214.263V33.6552H214.131C213.86 34.1836 213.496 34.6496 213.041 35.0533C212.586 35.4496 212.04 35.7615 211.401 35.989C210.763 36.2092 210.025 36.3192 209.188 36.3192ZM210.531 33.0827C211.221 33.0827 211.83 32.947 212.359 32.6754C212.887 32.3965 213.302 32.0223 213.603 31.5526C213.904 31.0829 214.054 30.5508 214.054 29.9563V28.1619C213.907 28.2573 213.705 28.3454 213.449 28.4261C213.199 28.4995 212.917 28.5692 212.601 28.6353C212.285 28.694 211.97 28.7491 211.654 28.8004C211.339 28.8445 211.052 28.8848 210.796 28.9215C210.245 29.0022 209.764 29.1307 209.353 29.3068C208.942 29.483 208.623 29.7215 208.396 30.0224C208.168 30.3159 208.054 30.6829 208.054 31.1232C208.054 31.7617 208.286 32.2498 208.748 32.5874C209.218 32.9176 209.812 33.0827 210.531 33.0827ZM222.349 36V19.0909H226.896V22.0412H227.072C227.38 20.9917 227.897 20.1991 228.624 19.6634C229.35 19.1203 230.187 18.8487 231.134 18.8487C231.369 18.8487 231.622 18.8634 231.893 18.8928C232.165 18.9221 232.403 18.9625 232.609 19.0138V23.1751C232.389 23.109 232.084 23.0503 231.695 22.9989C231.306 22.9476 230.95 22.9219 230.627 22.9219C229.938 22.9219 229.321 23.0723 228.778 23.3732C228.242 23.6668 227.817 24.0778 227.501 24.6062C227.193 25.1346 227.039 25.7437 227.039 26.4336V36H222.349ZM235.034 36V19.0909H239.503V22.0742H239.701C240.053 21.0835 240.641 20.3018 241.463 19.7294C242.285 19.157 243.268 18.8707 244.413 18.8707C245.572 18.8707 246.559 19.1606 247.374 19.7404C248.189 20.3129 248.732 21.0908 249.003 22.0742H249.18C249.524 21.1055 250.148 20.3312 251.051 19.7514C251.961 19.1643 253.036 18.8707 254.276 18.8707C255.854 18.8707 257.135 19.3735 258.118 20.3789C259.109 21.377 259.605 22.7934 259.605 24.6282V36H254.926V25.5529C254.926 24.6135 254.676 23.909 254.177 23.4393C253.678 22.9696 253.055 22.7347 252.306 22.7347C251.455 22.7347 250.79 23.0063 250.313 23.5494C249.836 24.0851 249.598 24.7933 249.598 25.674V36H245.051V25.4538C245.051 24.6245 244.813 23.964 244.336 23.4723C243.866 22.9806 243.246 22.7347 242.475 22.7347C241.954 22.7347 241.485 22.8668 241.066 23.131C240.655 23.3879 240.329 23.7512 240.086 24.2209C239.844 24.6832 239.723 25.2263 239.723 25.8501V36H235.034ZM268.131 36.3192C267.052 36.3192 266.09 36.1321 265.246 35.7578C264.402 35.3762 263.735 34.8147 263.243 34.0735C262.759 33.3249 262.516 32.3929 262.516 31.2773C262.516 30.3379 262.689 29.549 263.034 28.9105C263.379 28.272 263.848 27.7583 264.443 27.3693C265.037 26.9804 265.712 26.6868 266.468 26.4886C267.232 26.2905 268.032 26.151 268.868 26.0703C269.852 25.9676 270.644 25.8722 271.246 25.7841C271.848 25.6887 272.285 25.5492 272.556 25.3658C272.828 25.1823 272.963 24.9107 272.963 24.5511V24.4851C272.963 23.7879 272.743 23.2485 272.303 22.8668C271.87 22.4852 271.253 22.2944 270.453 22.2944C269.609 22.2944 268.938 22.4815 268.439 22.8558C267.94 23.2228 267.61 23.6851 267.448 24.2429L263.111 23.8906C263.331 22.8632 263.764 21.9751 264.41 21.2266C265.056 20.4706 265.889 19.8909 266.909 19.4872C267.936 19.0762 269.125 18.8707 270.475 18.8707C271.415 18.8707 272.314 18.9808 273.173 19.201C274.039 19.4212 274.806 19.7624 275.473 20.2248C276.149 20.6871 276.681 21.2816 277.07 22.0082C277.459 22.7274 277.653 23.5897 277.653 24.5952V36H273.206V33.6552H273.074C272.802 34.1836 272.439 34.6496 271.984 35.0533C271.529 35.4496 270.982 35.7615 270.343 35.989C269.705 36.2092 268.967 36.3192 268.131 36.3192ZM269.474 33.0827C270.164 33.0827 270.773 32.947 271.301 32.6754C271.83 32.3965 272.244 32.0223 272.545 31.5526C272.846 31.0829 272.996 30.5508 272.996 29.9563V28.1619C272.85 28.2573 272.648 28.3454 272.391 28.4261C272.141 28.4995 271.859 28.5692 271.543 28.6353C271.228 28.694 270.912 28.7491 270.597 28.8004C270.281 28.8445 269.995 28.8848 269.738 28.9215C269.188 29.0022 268.707 29.1307 268.296 29.3068C267.885 29.483 267.566 29.7215 267.338 30.0224C267.111 30.3159 266.997 30.6829 266.997 31.1232C266.997 31.7617 267.228 32.2498 267.69 32.5874C268.16 32.9176 268.754 33.0827 269.474 33.0827ZM288.931 36.3303C287.199 36.3303 285.709 35.9633 284.462 35.2294C283.222 34.4882 282.267 33.4607 281.6 32.147C280.939 30.8333 280.609 29.3215 280.609 27.6115C280.609 25.8795 280.943 24.3603 281.611 23.054C282.286 21.7403 283.244 20.7165 284.484 19.9826C285.724 19.2414 287.199 18.8707 288.909 18.8707C290.384 18.8707 291.676 19.1386 292.784 19.6744C293.892 20.2101 294.769 20.9624 295.415 21.9311C296.061 22.8999 296.417 24.0374 296.483 25.3438H292.058C291.933 24.4998 291.603 23.8209 291.067 23.3072C290.539 22.7861 289.845 22.5256 288.986 22.5256C288.26 22.5256 287.625 22.7237 287.082 23.12C286.546 23.509 286.128 24.0778 285.827 24.8263C285.526 25.5749 285.376 26.4813 285.376 27.5455C285.376 28.6243 285.522 29.5417 285.816 30.2976C286.117 31.0535 286.539 31.6296 287.082 32.0259C287.625 32.4222 288.26 32.6204 288.986 32.6204C289.522 32.6204 290.003 32.5103 290.428 32.2901C290.861 32.07 291.217 31.7507 291.496 31.3324C291.782 30.9067 291.97 30.3967 292.058 29.8022H296.483C296.41 31.0939 296.057 32.2314 295.426 33.2148C294.802 34.1909 293.94 34.9542 292.839 35.5046C291.738 36.055 290.436 36.3303 288.931 36.3303ZM302.381 42.3409C301.786 42.3409 301.229 42.2932 300.708 42.1978C300.194 42.1097 299.768 41.996 299.431 41.8565L300.487 38.3558C301.038 38.5246 301.533 38.6164 301.974 38.631C302.421 38.6457 302.807 38.543 303.13 38.3228C303.46 38.1026 303.728 37.7283 303.933 37.1999L304.208 36.4844L298.143 19.0909H303.074L306.575 31.5085H306.751L310.285 19.0909H315.25L308.678 37.8274C308.362 38.7375 307.933 39.5301 307.39 40.2053C306.854 40.8878 306.175 41.4125 305.353 41.7795C304.531 42.1538 303.541 42.3409 302.381 42.3409Z" fill="white"/>
<path d="M63.8455 36V37H64.5718L64.7965 36.3094L63.8455 36ZM58.7376 36L57.7923 35.6737L57.3344 37H58.7376V36ZM66.5206 13.4545V12.4545H65.8079L65.5753 13.1282L66.5206 13.4545ZM72.6634 13.4545L73.6088 13.1286L73.3764 12.4545H72.6634V13.4545ZM80.4354 36V37H81.8378L81.3808 35.6741L80.4354 36ZM75.3274 36L74.3763 36.3088L74.6007 37H75.3274V36ZM69.68 18.6065L70.6312 18.2977L70.4067 17.6065H69.68V18.6065ZM69.5039 18.6065V17.6065H68.7776L68.553 18.2972L69.5039 18.6065ZM63.5263 27.1381V26.1381H62.5263V27.1381H63.5263ZM75.5916 27.1381H76.5916V26.1381H75.5916V27.1381ZM75.5916 30.859V31.859H76.5916V30.859H75.5916ZM63.5263 30.859H62.5263V31.859H63.5263V30.859ZM63.8455 35H58.7376V37H63.8455V35ZM59.6828 36.3263L67.4659 13.7809L65.5753 13.1282L57.7923 35.6737L59.6828 36.3263ZM66.5206 14.4545H72.6634V12.4545H66.5206V14.4545ZM71.718 13.7805L79.49 36.3259L81.3808 35.6741L73.6088 13.1286L71.718 13.7805ZM80.4354 35H75.3274V37H80.4354V35ZM76.2785 35.6912L70.6312 18.2977L68.7289 18.9153L74.3763 36.3088L76.2785 35.6912ZM69.68 17.6065H69.5039V19.6065H69.68V17.6065ZM68.553 18.2972L62.8946 35.6906L64.7965 36.3094L70.4549 18.9159L68.553 18.2972ZM63.5263 28.1381H75.5916V26.1381H63.5263V28.1381ZM74.5916 27.1381V30.859H76.5916V27.1381H74.5916ZM75.5916 29.859H63.5263V31.859H75.5916V29.859ZM64.5263 30.859V27.1381H62.5263V30.859H64.5263ZM85.4442 35.2294L84.9312 36.0878L84.9372 36.0913L85.4442 35.2294ZM82.582 32.147L81.6886 32.5962L81.6906 32.6002L82.582 32.147ZM82.593 23.054L81.7036 22.5969L81.7027 22.5988L82.593 23.054ZM85.4663 19.9826L85.9755 20.8432L85.9793 20.841L85.4663 19.9826ZM93.7667 19.6744L94.2019 18.774L94.2019 18.774L93.7667 19.6744ZM96.3977 21.9311L95.5657 22.4858L96.3977 21.9311ZM97.4656 25.3438V26.3438H98.5174L98.4643 25.2933L97.4656 25.3438ZM93.0401 25.3438L92.0509 25.49L92.1771 26.3438H93.0401V25.3438ZM92.0494 23.3072L91.3471 24.0193L91.3572 24.029L92.0494 23.3072ZM88.0643 23.12L88.6518 23.9292L88.6537 23.9278L88.0643 23.12ZM86.7983 30.2976L85.8661 30.6596L85.8692 30.6674L86.7983 30.2976ZM88.0643 32.0259L88.6537 31.2181L88.6537 31.2181L88.0643 32.0259ZM91.4109 32.2901L90.9576 31.3987L90.9514 31.4019L91.4109 32.2901ZM92.4787 31.3324L91.6488 30.7744L91.6466 30.7777L92.4787 31.3324ZM93.0401 29.8022V28.8022H92.1774L92.0509 29.6557L93.0401 29.8022ZM97.4656 29.8022L98.4639 29.8589L98.524 28.8022H97.4656V29.8022ZM96.4087 33.2148L95.5671 32.6747L95.5661 32.6763L96.4087 33.2148ZM93.8217 35.5046L93.3745 34.6102L93.3745 34.6102L93.8217 35.5046ZM89.9137 35.3303C88.3248 35.3303 87.0175 34.9947 85.9513 34.3675L84.9372 36.0913C86.3663 36.9319 88.0386 37.3303 89.9137 37.3303V35.3303ZM85.9572 34.371C84.8821 33.7285 84.0577 32.843 83.4735 31.6938L81.6906 32.6002C82.4421 34.0784 83.5258 35.2478 84.9312 36.0878L85.9572 34.371ZM83.4755 31.6978C82.8956 30.5446 82.5913 29.1909 82.5913 27.6115H80.5913C80.5913 29.4521 80.9474 31.1221 81.6886 32.5962L83.4755 31.6978ZM82.5913 27.6115C82.5913 26.0093 82.8996 24.6513 83.4834 23.5092L81.7027 22.5988C80.9508 24.0694 80.5913 25.7497 80.5913 27.6115H82.5913ZM83.4824 23.5111C84.0737 22.3607 84.9016 21.4786 85.9755 20.8432L84.957 19.122C83.5503 19.9544 82.4627 21.1199 81.7036 22.5969L83.4824 23.5111ZM85.9793 20.841C87.0381 20.2082 88.3289 19.8707 89.8917 19.8707V17.8707C88.0345 17.8707 86.375 18.2745 84.9533 19.1242L85.9793 20.841ZM89.8917 19.8707C91.2456 19.8707 92.3833 20.1163 93.3314 20.5747L94.2019 18.774C92.9337 18.1609 91.488 17.8707 89.8917 17.8707V19.8707ZM93.3314 20.5747C94.2885 21.0373 95.0246 21.6742 95.5657 22.4858L97.2298 21.3764C96.4792 20.2505 95.4613 19.3829 94.2019 18.774L93.3314 20.5747ZM95.5657 22.4858C96.0996 23.2867 96.4087 24.2452 96.4668 25.3942L98.4643 25.2933C98.3903 23.8296 97.9875 22.513 97.2298 21.3764L95.5657 22.4858ZM97.4656 24.3438H93.0401V26.3438H97.4656V24.3438ZM94.0294 25.1975C93.8772 24.1683 93.4607 23.2751 92.7415 22.5854L91.3572 24.029C91.7095 24.3667 91.9535 24.8312 92.0509 25.49L94.0294 25.1975ZM92.7515 22.5951C92.0065 21.8604 91.0456 21.5256 89.9688 21.5256V23.5256C90.6092 23.5256 91.0354 23.7118 91.3472 24.0192L92.7515 22.5951ZM89.9688 21.5256C89.0484 21.5256 88.2031 21.7808 87.4748 22.3122L88.6537 23.9278C89.0116 23.6667 89.436 23.5256 89.9688 23.5256V21.5256ZM87.4768 22.3108C86.7585 22.8323 86.2371 23.5686 85.8815 24.4534L87.7372 25.1993C87.9833 24.587 88.2985 24.1857 88.6518 23.9292L87.4768 22.3108ZM85.8815 24.4534C85.5203 25.3518 85.358 26.3921 85.358 27.5455H87.358C87.358 26.5705 87.4965 25.7981 87.7372 25.1993L85.8815 24.4534ZM85.358 27.5455C85.358 28.7095 85.5156 29.757 85.8661 30.6596L87.7305 29.9356C87.4939 29.3263 87.358 28.539 87.358 27.5455H85.358ZM85.8692 30.6674C86.225 31.5614 86.7502 32.305 87.4748 32.8337L88.6537 31.2181C88.2921 30.9543 87.9733 30.5456 87.7274 29.9278L85.8692 30.6674ZM87.4748 32.8337C88.2031 33.3652 89.0484 33.6204 89.9688 33.6204V31.6204C89.436 31.6204 89.0116 31.4793 88.6537 31.2181L87.4748 32.8337ZM89.9688 33.6204C90.6453 33.6204 91.2866 33.4803 91.8703 33.1783L90.9514 31.4019C90.6838 31.5403 90.3637 31.6204 89.9688 31.6204V33.6204ZM91.8641 33.1815C92.4557 32.8807 92.9401 32.4431 93.3107 31.8871L91.6466 30.7777C91.4595 31.0583 91.2321 31.2592 90.9576 31.3987L91.8641 33.1815ZM93.3085 31.8904C93.6909 31.3217 93.9232 30.6654 94.0293 29.9488L92.0509 29.6557C91.981 30.1279 91.8389 30.4918 91.6489 30.7744L93.3085 31.8904ZM93.0401 30.8022H97.4656V28.8022H93.0401V30.8022ZM96.4672 29.7455C96.4025 30.884 96.0956 31.8513 95.5671 32.6747L97.2503 33.755C97.9842 32.6115 98.3819 31.3037 98.4639 29.8589L96.4672 29.7455ZM95.5661 32.6763C95.0457 33.4907 94.3244 34.1353 93.3745 34.6102L94.2689 36.399C95.5208 35.7731 96.5242 34.8912 97.2514 33.7534L95.5661 32.6763ZM93.3745 34.6102C92.44 35.0774 91.2969 35.3303 89.9137 35.3303V37.3303C91.5395 37.3303 93.0017 37.0326 94.2689 36.399L93.3745 34.6102ZM105.158 26.2244L104.158 26.2143V26.2244H105.158ZM105.158 36V37H106.158V36H105.158ZM100.468 36H99.4681V37H100.468V36ZM100.468 19.0909V18.0909H99.4681V19.0909H100.468ZM104.938 19.0909H105.938V18.0909H104.938V19.0909ZM104.938 22.0742H103.938V23.0742H104.938V22.0742ZM105.136 22.0742V23.0742H105.825L106.07 22.4299L105.136 22.0742ZM107.018 19.7404L107.563 20.5789L107.568 20.5757L107.018 19.7404ZM113.293 19.6413L112.786 20.5033L113.293 19.6413ZM115.33 21.843L114.438 22.2957L114.439 22.2985L115.33 21.843ZM116.056 36V37H117.056V36H116.056ZM111.367 36H110.367V37H111.367V36ZM111.367 26.0703L110.367 26.0632V26.0703H111.367ZM110.574 23.6484L109.835 24.3225L109.84 24.3271L110.574 23.6484ZM106.688 23.1751L106.199 22.3028L106.193 22.306L106.688 23.1751ZM105.565 24.364L104.678 23.9018L104.676 23.9066L105.565 24.364ZM104.158 26.2244V36H106.158V26.2244H104.158ZM105.158 35H100.468V37H105.158V35ZM101.468 36V19.0909H99.4681V36H101.468ZM100.468 20.0909H104.938V18.0909H100.468V20.0909ZM103.938 19.0909V22.0742H105.938V19.0909H103.938ZM104.938 23.0742H105.136V21.0742H104.938V23.0742ZM106.07 22.4299C106.369 21.6443 106.861 21.0355 107.563 20.5789L106.473 18.902C105.414 19.5902 104.651 20.5373 104.201 21.7185L106.07 22.4299ZM107.568 20.5757C108.257 20.1224 109.124 19.8707 110.222 19.8707V17.8707C108.809 17.8707 107.541 18.1989 106.468 18.9052L107.568 20.5757ZM110.222 19.8707C111.246 19.8707 112.089 20.0935 112.786 20.5033L113.8 18.7794C112.75 18.1617 111.546 17.8707 110.222 17.8707V19.8707ZM112.786 20.5033C113.485 20.9146 114.035 21.502 114.438 22.2957L116.221 21.3903C115.656 20.2759 114.848 19.3955 113.8 18.7794L112.786 20.5033ZM114.439 22.2985C114.837 23.0749 115.056 24.0417 115.056 25.2337H117.056C117.056 23.7982 116.791 22.5046 116.22 21.3876L114.439 22.2985ZM115.056 25.2337V36H117.056V25.2337H115.056ZM116.056 35H111.367V37H116.056V35ZM112.367 36V26.0703H110.367V36H112.367ZM112.367 26.0774C112.375 24.8699 112.065 23.7883 111.308 22.9698L109.84 24.3271C110.155 24.6681 110.373 25.2012 110.367 26.0632L112.367 26.0774ZM111.313 22.9744C110.553 22.1417 109.526 21.7678 108.361 21.7678V23.7678C109.075 23.7678 109.524 23.9809 109.835 24.3225L111.313 22.9744ZM108.361 21.7678C107.583 21.7678 106.852 21.9366 106.199 22.3028L107.177 24.0474C107.493 23.8704 107.878 23.7678 108.361 23.7678V21.7678ZM106.193 22.306C105.537 22.6794 105.032 23.2228 104.678 23.9019L106.452 24.8261C106.641 24.463 106.885 24.2138 107.183 24.0441L106.193 22.306ZM104.676 23.9066C104.324 24.5899 104.166 25.3712 104.158 26.2143L106.158 26.2345C106.164 25.6245 106.277 25.1656 106.454 24.8213L104.676 23.9066ZM122.956 35.2404L122.447 36.1011L122.453 36.1046L122.956 35.2404ZM120.083 32.18L119.193 32.6372L119.194 32.6392L120.083 32.18ZM120.083 23.032L120.971 23.4911L120.972 23.4891L120.083 23.032ZM122.956 19.9716L123.461 20.8344L123.463 20.8335L122.956 19.9716ZM131.818 19.9716L131.308 20.8322L131.314 20.8357L131.818 19.9716ZM134.702 23.032L133.812 23.4891L133.814 23.4911L134.702 23.032ZM134.702 32.18L135.59 32.6392L135.591 32.6372L134.702 32.18ZM131.818 35.2404L132.323 36.1033L132.325 36.1023L131.818 35.2404ZM129.363 32.0369L130.008 32.8008L130.014 32.7954L129.363 32.0369ZM130.541 30.2095L129.597 29.8772L129.595 29.8852L130.541 30.2095ZM130.541 24.9474L129.595 25.2718L129.598 25.2798L130.541 24.9474ZM125.433 23.12L124.791 22.3527L124.786 22.357L125.433 23.12ZM124.233 24.9474L123.29 24.6151L123.287 24.6231L124.233 24.9474ZM124.233 30.2095L123.287 30.5339L123.29 30.5419L124.233 30.2095ZM125.433 32.0369L124.786 32.7999L124.792 32.8047L124.798 32.8095L125.433 32.0369ZM127.392 35.3303C125.826 35.3303 124.528 34.9987 123.459 34.3763L122.453 36.1046C123.879 36.9353 125.538 37.3303 127.392 37.3303V35.3303ZM123.465 34.3798C122.39 33.7435 121.562 32.8641 120.971 31.7209L119.194 32.6392C119.954 34.1087 121.041 35.2695 122.447 36.101L123.465 34.3798ZM120.972 31.7229C120.381 30.5732 120.07 29.2119 120.07 27.6115H118.07C118.07 29.4751 118.434 31.1595 119.193 32.6372L120.972 31.7229ZM120.07 27.6115C120.07 25.9947 120.382 24.6312 120.971 23.4911L119.194 22.5728C118.433 24.0454 118.07 25.7349 118.07 27.6115H120.07ZM120.972 23.4891C121.563 22.3395 122.39 21.4622 123.461 20.8344L122.45 19.1087C121.041 19.9341 119.953 21.0971 119.193 22.5748L120.972 23.4891ZM123.463 20.8335C124.531 20.2052 125.828 19.8707 127.392 19.8707V17.8707C125.537 17.8707 123.876 18.2702 122.449 19.1097L123.463 20.8335ZM127.392 19.8707C128.957 19.8707 130.249 20.2053 131.308 20.8322L132.327 19.111C130.906 18.2701 129.248 17.8707 127.392 17.8707V19.8707ZM131.314 20.8357C132.393 21.4639 133.222 22.341 133.812 23.4891L135.591 22.5748C134.831 21.0955 133.737 19.9324 132.321 19.1074L131.314 20.8357ZM133.814 23.4911C134.403 24.6312 134.715 25.9947 134.715 27.6115H136.715C136.715 25.7349 136.351 24.0454 135.59 22.5728L133.814 23.4911ZM134.715 27.6115C134.715 29.2119 134.403 30.5732 133.812 31.7229L135.591 32.6372C136.351 31.1595 136.715 29.4751 136.715 27.6115H134.715ZM133.814 31.7209C133.223 32.8625 132.393 33.7418 131.311 34.3785L132.325 36.1023C133.738 35.2712 134.83 34.1103 135.59 32.6392L133.814 31.7209ZM131.312 34.3776C130.252 34.9986 128.958 35.3303 127.392 35.3303V37.3303C129.246 37.3303 130.903 36.9353 132.323 36.1033L131.312 34.3776ZM127.414 33.6974C128.393 33.6974 129.281 33.4149 130.008 32.8007L128.717 31.2731C128.402 31.5397 127.991 31.6974 127.414 31.6974V33.6974ZM130.014 32.7954C130.694 32.2119 131.175 31.4413 131.487 30.5338L129.595 29.8852C129.377 30.5189 129.074 30.9666 128.711 31.2784L130.014 32.7954ZM131.484 30.5419C131.8 29.6453 131.948 28.6527 131.948 27.5785H129.948C129.948 28.4711 129.825 29.2326 129.598 29.8772L131.484 30.5419ZM131.948 27.5785C131.948 26.5042 131.8 25.5117 131.484 24.6151L129.598 25.2798C129.825 25.9244 129.948 26.6859 129.948 27.5785H131.948ZM131.487 24.6231C131.175 23.7157 130.694 22.9451 130.014 22.3615L128.711 23.8785C129.074 24.1903 129.377 24.638 129.595 25.2718L131.487 24.6231ZM130.014 22.3615C129.288 21.7374 128.398 21.4485 127.414 21.4485V23.4485C127.987 23.4485 128.395 23.6073 128.711 23.8785L130.014 22.3615ZM127.414 21.4485C126.426 21.4485 125.53 21.7359 124.791 22.3527L126.074 23.8874C126.407 23.6088 126.832 23.4485 127.414 23.4485V21.4485ZM124.786 22.357C124.1 22.9385 123.609 23.7075 123.29 24.6151L125.176 25.2798C125.399 24.6462 125.709 24.1969 126.079 23.883L124.786 22.357ZM123.287 24.6231C122.98 25.5172 122.836 26.5068 122.836 27.5785H124.836C124.836 26.6833 124.957 25.9189 125.179 25.2718L123.287 24.6231ZM122.836 27.5785C122.836 28.6501 122.98 29.6398 123.287 30.5338L125.179 29.8852C124.957 29.238 124.836 28.4737 124.836 27.5785H122.836ZM123.29 30.5419C123.609 31.4495 124.1 32.2184 124.786 32.7999L126.079 31.2739C125.709 30.9601 125.399 30.5107 125.176 29.8772L123.29 30.5419ZM124.798 32.8095C125.536 33.4162 126.43 33.6974 127.414 33.6974V31.6974C126.828 31.6974 126.401 31.5383 126.068 31.2644L124.798 32.8095ZM141.968 35.2404L141.458 36.1011L141.464 36.1046L141.968 35.2404ZM139.094 32.18L138.205 32.6372L138.206 32.6392L139.094 32.18ZM139.094 23.032L139.983 23.4911L139.984 23.4891L139.094 23.032ZM141.968 19.9716L142.473 20.8344L142.475 20.8335L141.968 19.9716ZM150.829 19.9716L150.32 20.8322L150.326 20.8357L150.829 19.9716ZM153.714 23.032L152.824 23.4891L152.825 23.4911L153.714 23.032ZM153.714 32.18L154.602 32.6392L154.603 32.6372L153.714 32.18ZM150.829 35.2404L151.335 36.1033L151.336 36.1023L150.829 35.2404ZM148.374 32.0369L149.02 32.8008L149.026 32.7954L148.374 32.0369ZM149.552 30.2095L148.609 29.8772L148.606 29.8852L149.552 30.2095ZM149.552 24.9474L148.606 25.2718L148.609 25.2798L149.552 24.9474ZM144.444 23.12L143.803 22.3527L143.798 22.357L144.444 23.12ZM143.244 24.9474L142.301 24.6151L142.299 24.6231L143.244 24.9474ZM143.244 30.2095L142.299 30.5339L142.301 30.5419L143.244 30.2095ZM144.444 32.0369L143.798 32.7999L143.804 32.8047L143.809 32.8095L144.444 32.0369ZM146.404 35.3303C144.838 35.3303 143.54 34.9987 142.471 34.3763L141.464 36.1046C142.891 36.9353 144.55 37.3303 146.404 37.3303V35.3303ZM142.477 34.3798C141.401 33.7435 140.573 32.8641 139.983 31.7209L138.206 32.6392C138.965 34.1087 140.053 35.2695 141.458 36.101L142.477 34.3798ZM139.984 31.7229C139.393 30.5732 139.081 29.2119 139.081 27.6115H137.081C137.081 29.4751 137.445 31.1595 138.205 32.6372L139.984 31.7229ZM139.081 27.6115C139.081 25.9947 139.393 24.6312 139.983 23.4911L138.206 22.5728C137.445 24.0454 137.081 25.7349 137.081 27.6115H139.081ZM139.984 23.4891C140.575 22.3395 141.401 21.4622 142.473 20.8344L141.462 19.1087C140.053 19.9341 138.964 21.0971 138.205 22.5748L139.984 23.4891ZM142.475 20.8335C143.543 20.2052 144.84 19.8707 146.404 19.8707V17.8707C144.548 17.8707 142.888 18.2702 141.46 19.1097L142.475 20.8335ZM146.404 19.8707C147.968 19.8707 149.261 20.2053 150.32 20.8322L151.339 19.111C149.918 18.2701 148.259 17.8707 146.404 17.8707V19.8707ZM150.326 20.8357C151.405 21.4639 152.234 22.341 152.824 23.4891L154.603 22.5748C153.843 21.0955 152.749 19.9324 151.333 19.1074L150.326 20.8357ZM152.825 23.4911C153.414 24.6312 153.726 25.9947 153.726 27.6115H155.726C155.726 25.7349 155.363 24.0454 154.602 22.5728L152.825 23.4911ZM153.726 27.6115C153.726 29.2119 153.415 30.5732 152.824 31.7229L154.603 32.6372C155.362 31.1595 155.726 29.4751 155.726 27.6115H153.726ZM152.825 31.7209C152.235 32.8625 151.405 33.7418 150.322 34.3785L151.336 36.1023C152.749 35.2712 153.842 34.1103 154.602 32.6392L152.825 31.7209ZM150.324 34.3776C149.264 34.9986 147.97 35.3303 146.404 35.3303V37.3303C148.258 37.3303 149.914 36.9353 151.335 36.1033L150.324 34.3776ZM146.426 33.6974C147.405 33.6974 148.293 33.4149 149.02 32.8007L147.729 31.2731C147.414 31.5397 147.003 31.6974 146.426 31.6974V33.6974ZM149.026 32.7954C149.705 32.2119 150.187 31.4413 150.498 30.5338L148.606 29.8852C148.389 30.5189 148.086 30.9666 147.723 31.2784L149.026 32.7954ZM150.496 30.5419C150.811 29.6453 150.96 28.6527 150.96 27.5785H148.96C148.96 28.4711 148.836 29.2326 148.609 29.8772L150.496 30.5419ZM150.96 27.5785C150.96 26.5042 150.811 25.5117 150.496 24.6151L148.609 25.2798C148.836 25.9244 148.96 26.6859 148.96 27.5785H150.96ZM150.498 24.6231C150.187 23.7157 149.705 22.9451 149.026 22.3615L147.723 23.8785C148.086 24.1903 148.389 24.638 148.606 25.2718L150.498 24.6231ZM149.026 22.3615C148.3 21.7374 147.409 21.4485 146.426 21.4485V23.4485C146.999 23.4485 147.407 23.6073 147.723 23.8785L149.026 22.3615ZM146.426 21.4485C145.437 21.4485 144.541 21.7359 143.803 22.3527L145.086 23.8874C145.419 23.6088 145.844 23.4485 146.426 23.4485V21.4485ZM143.798 22.357C143.112 22.9385 142.621 23.7075 142.301 24.6151L144.188 25.2798C144.411 24.6462 144.72 24.1969 145.091 23.883L143.798 22.357ZM142.299 24.6231C141.992 25.5172 141.848 26.5068 141.848 27.5785H143.848C143.848 26.6833 143.969 25.9189 144.19 25.2718L142.299 24.6231ZM141.848 27.5785C141.848 28.6501 141.992 29.6398 142.299 30.5338L144.19 29.8852C143.969 29.238 143.848 28.4737 143.848 27.5785H141.848ZM142.301 30.5419C142.621 31.4495 143.112 32.2184 143.798 32.7999L145.091 31.2739C144.72 30.9601 144.411 30.5107 144.188 29.8772L142.301 30.5419ZM143.809 32.8095C144.548 33.4162 145.442 33.6974 146.426 33.6974V31.6974C145.84 31.6974 145.413 31.5383 145.079 31.2644L143.809 32.8095ZM165.039 36H164.039V37H165.039V36ZM165.039 13.4545V12.4545H164.039V13.4545H165.039ZM178.304 14.4343L177.827 15.3132L177.831 15.3155L178.304 14.4343ZM181.056 17.1314L180.179 17.6118L180.183 17.6185L181.056 17.1314ZM178.238 27.7326L177.776 26.8457L177.774 26.8469L178.238 27.7326ZM168.143 28.6903H167.143V29.6903H168.143V28.6903ZM168.143 24.8704V23.8704H167.143V24.8704H168.143ZM175.31 24.397L175.778 25.2803L175.782 25.2782L175.31 24.397ZM176.653 23.065L175.767 22.5997L175.765 22.604L176.653 23.065ZM176.653 19.1349L175.765 19.5959L175.769 19.6029L175.773 19.6097L176.653 19.1349ZM175.31 17.8249L174.845 18.7106L174.854 18.715L175.31 17.8249ZM169.805 17.3516V16.3516H168.805V17.3516H169.805ZM169.805 36V37H170.805V36H169.805ZM166.039 36V13.4545H164.039V36H166.039ZM165.039 14.4545H173.934V12.4545H165.039V14.4545ZM173.934 14.4545C175.518 14.4545 176.802 14.7569 177.827 15.3132L178.781 13.5554C177.399 12.8054 175.769 12.4545 173.934 12.4545V14.4545ZM177.831 15.3155C178.871 15.8735 179.645 16.6365 180.179 17.6118L181.933 16.651C181.205 15.3219 180.144 14.2867 178.777 13.5531L177.831 15.3155ZM180.183 17.6185C180.727 18.5944 181.014 19.7433 181.014 21.0945H183.014C183.014 19.4513 182.662 17.9582 181.929 16.6443L180.183 17.6185ZM181.014 21.0945C181.014 22.4438 180.724 23.5911 180.174 24.5662L181.916 25.5488C182.658 24.2342 183.014 22.7395 183.014 21.0945H181.014ZM180.174 24.5662C179.628 25.5335 178.839 26.2919 177.776 26.8457L178.7 28.6195C180.088 27.8963 181.17 26.8713 181.916 25.5488L180.174 24.5662ZM177.774 26.8469C176.731 27.3933 175.424 27.6903 173.812 27.6903V29.6903C175.665 29.6903 177.308 29.3488 178.702 28.6183L177.774 26.8469ZM173.812 27.6903H168.143V29.6903H173.812V27.6903ZM169.143 28.6903V24.8704H167.143V28.6903H169.143ZM168.143 25.8704H173.042V23.8704H168.143V25.8704ZM173.042 25.8704C174.066 25.8704 174.997 25.6952 175.778 25.2803L174.841 23.5138C174.433 23.7299 173.852 23.8704 173.042 23.8704V25.8704ZM175.782 25.2782C176.548 24.8674 177.147 24.2828 177.54 23.526L175.765 22.604C175.571 22.9774 175.275 23.2808 174.837 23.5159L175.782 25.2782ZM177.538 23.5303C177.924 22.7946 178.104 21.9739 178.104 21.0945H176.104C176.104 21.6975 175.983 22.1905 175.767 22.5997L177.538 23.5303ZM178.104 21.0945C178.104 20.2102 177.925 19.3881 177.533 18.6602L175.773 19.6097C175.982 19.9973 176.104 20.4816 176.104 21.0945H178.104ZM177.54 18.674C177.145 17.9128 176.54 17.3316 175.765 16.9349L174.854 18.715C175.283 18.9347 175.574 19.2269 175.765 19.5959L177.54 18.674ZM175.774 16.9393C174.987 16.5264 174.051 16.3516 173.02 16.3516V18.3516C173.838 18.3516 174.429 18.4923 174.845 18.7105L175.774 16.9393ZM173.02 16.3516H169.805V18.3516H173.02V16.3516ZM168.805 17.3516V36H170.805V17.3516H168.805ZM169.805 35H165.039V37H169.805V35ZM189.711 26.2244L188.711 26.2143V26.2244H189.711ZM189.711 36V37H190.711V36H189.711ZM185.022 36H184.022V37H185.022V36ZM185.022 13.4545V12.4545H184.022V13.4545H185.022ZM189.579 13.4545H190.579V12.4545H189.579V13.4545ZM189.579 22.0742H188.579V23.0742H189.579V22.0742ZM189.778 22.0742V23.0742H190.466L190.712 22.4314L189.778 22.0742ZM191.627 19.7294L192.18 20.5626L192.185 20.5592L191.627 19.7294ZM197.902 19.6413L197.395 20.5033L197.403 20.5082L197.902 19.6413ZM199.949 21.832L199.058 22.2847L199.062 22.293L199.949 21.832ZM200.676 25.2337L199.676 25.2281V25.2337H200.676ZM200.676 36V37H201.676V36H200.676ZM195.986 36H194.986V37H195.986V36ZM195.986 26.0703L194.986 26.0633V26.0703H195.986ZM195.194 23.6374L194.455 24.311L194.459 24.3161L195.194 23.6374ZM191.275 23.1751L190.791 22.2997L190.786 22.3028L191.275 23.1751ZM190.13 24.364L189.248 23.8921L189.246 23.8967L190.13 24.364ZM188.711 26.2244V36H190.711V26.2244H188.711ZM189.711 35H185.022V37H189.711V35ZM186.022 36V13.4545H184.022V36H186.022ZM185.022 14.4545H189.579V12.4545H185.022V14.4545ZM188.579 13.4545V22.0742H190.579V13.4545H188.579ZM189.579 23.0742H189.778V21.0742H189.579V23.0742ZM190.712 22.4314C191.022 21.6182 191.51 21.007 192.18 20.5626L191.074 18.8962C190.041 19.582 189.296 20.534 188.843 21.7171L190.712 22.4314ZM192.185 20.5592C192.834 20.1228 193.695 19.8707 194.83 19.8707V17.8707C193.398 17.8707 192.122 18.1912 191.069 18.8996L192.185 20.5592ZM194.83 19.8707C195.855 19.8707 196.698 20.0935 197.395 20.5033L198.409 18.7794C197.359 18.1617 196.154 17.8707 194.83 17.8707V19.8707ZM197.403 20.5082C198.106 20.9124 198.656 21.4943 199.058 22.2847L200.841 21.3793C200.274 20.2616 199.459 19.383 198.4 18.7744L197.403 20.5082ZM199.062 22.293C199.463 23.0653 199.683 24.0314 199.676 25.2281L201.676 25.2392C201.684 23.7939 201.419 22.4923 200.837 21.3711L199.062 22.293ZM199.676 25.2337V36H201.676V25.2337H199.676ZM200.676 35H195.986V37H200.676V35ZM196.986 36V26.0703H194.986V36H196.986ZM196.986 26.0774C196.995 24.8647 196.686 23.7785 195.928 22.9588L194.459 24.3161C194.773 24.6559 194.992 25.1916 194.986 26.0633L196.986 26.0774ZM195.933 22.9638C195.175 22.132 194.14 21.7678 192.97 21.7678V23.7678C193.709 23.7678 194.156 23.9833 194.455 24.311L195.933 22.9638ZM192.97 21.7678C192.186 21.7678 191.45 21.9358 190.791 22.2997L191.758 24.0505C192.083 23.8713 192.477 23.7678 192.97 23.7678V21.7678ZM190.786 22.3028C190.124 22.6737 189.611 23.2142 189.248 23.8921L191.011 24.8359C191.206 24.4717 191.457 24.2195 191.764 24.0474L190.786 22.3028ZM189.246 23.8967C188.883 24.5823 188.72 25.3674 188.712 26.2143L190.711 26.2345C190.718 25.6283 190.833 25.1731 191.014 24.8313L189.246 23.8967ZM206.304 35.7578L205.892 36.669L205.899 36.672L206.304 35.7578ZM204.301 34.0735L203.461 34.6168L203.467 34.6263L204.301 34.0735ZM204.091 28.9105L203.212 28.4352L203.212 28.4352L204.091 28.9105ZM205.5 27.3693L204.953 26.5325L204.953 26.5325L205.5 27.3693ZM207.526 26.4886L207.275 25.5207L207.272 25.5213L207.526 26.4886ZM209.926 26.0703L210.022 27.0657L210.03 27.0649L209.926 26.0703ZM212.304 25.7841L212.449 26.7736L212.46 26.7718L212.304 25.7841ZM213.614 25.3658L213.054 24.5372L213.054 24.5372L213.614 25.3658ZM213.361 22.8668L212.699 23.6171L212.706 23.6225L213.361 22.8668ZM209.497 22.8558L210.089 23.6615L210.097 23.6558L209.497 22.8558ZM208.506 24.2429L208.425 25.2396L209.239 25.3058L209.466 24.521L208.506 24.2429ZM204.168 23.8906L203.191 23.6811L202.952 24.7951L204.087 24.8873L204.168 23.8906ZM205.467 21.2266L206.225 21.8798L206.228 21.8761L205.467 21.2266ZM207.966 19.4872L208.334 20.4171L208.338 20.4157L207.966 19.4872ZM214.23 19.201L213.982 20.1697L213.984 20.1702L214.23 19.201ZM216.531 20.2248L215.962 21.047L215.966 21.0499L216.531 20.2248ZM218.127 22.0082L217.246 22.4801L217.248 22.4839L218.127 22.0082ZM218.711 36V37H219.711V36H218.711ZM214.263 36H213.263V37H214.263V36ZM214.263 33.6552H215.263V32.6552H214.263V33.6552ZM214.131 33.6552V32.6552H213.521L213.242 33.1981L214.131 33.6552ZM213.041 35.0533L213.698 35.8074L213.705 35.8013L213.041 35.0533ZM211.401 35.989L211.727 36.9344L211.737 36.931L211.401 35.989ZM212.359 32.6754L212.816 33.5649L212.826 33.5598L212.359 32.6754ZM213.603 31.5526L212.761 31.0131L212.761 31.0131L213.603 31.5526ZM214.054 28.1619H215.054V26.3192L213.509 27.3235L214.054 28.1619ZM213.449 28.4261L213.731 29.3855L213.74 29.3829L213.748 29.3801L213.449 28.4261ZM212.601 28.6353L212.784 29.6184L212.795 29.6164L212.806 29.6141L212.601 28.6353ZM211.654 28.8004L211.792 29.7908L211.804 29.7893L211.815 29.7874L211.654 28.8004ZM210.796 28.9215L210.654 27.9316L210.65 27.9321L210.796 28.9215ZM209.353 29.3068L209.747 30.226L209.747 30.226L209.353 29.3068ZM208.396 30.0224L209.186 30.635L209.193 30.6255L208.396 30.0224ZM208.748 32.5874L208.158 33.395L208.165 33.4003L208.173 33.4054L208.748 32.5874ZM209.188 35.3192C208.226 35.3192 207.406 35.1526 206.709 34.8437L205.899 36.672C206.89 37.1116 207.993 37.3192 209.188 37.3192V35.3192ZM206.716 34.8466C206.036 34.5391 205.517 34.0986 205.134 33.5207L203.467 34.6263C204.067 35.5309 204.884 36.2133 205.892 36.669L206.716 34.8466ZM205.14 33.5303C204.784 32.9798 204.574 32.2484 204.574 31.2773H202.574C202.574 32.5373 202.848 33.6701 203.461 34.6168L205.14 33.5303ZM204.574 31.2773C204.574 30.4564 204.725 29.8416 204.971 29.3858L203.212 28.4352C202.768 29.2564 202.574 30.2195 202.574 31.2773H204.574ZM204.971 29.3858C205.239 28.8903 205.596 28.502 206.048 28.2061L204.953 26.5325C204.216 27.0145 203.634 27.6538 203.212 28.4352L204.971 29.3858ZM206.048 28.2061C206.544 27.8818 207.118 27.6295 207.78 27.456L207.272 25.5213C206.423 25.7441 205.646 26.0789 204.953 26.5325L206.048 28.2061ZM207.777 27.4565C208.486 27.2725 209.234 27.1417 210.022 27.0657L209.83 25.0749C208.944 25.1604 208.092 25.3085 207.275 25.5207L207.777 27.4565ZM210.03 27.0649C211.02 26.9615 211.827 26.8644 212.449 26.7736L212.159 24.7946C211.576 24.8799 210.799 24.9736 209.822 25.0757L210.03 27.0649ZM212.46 26.7718C213.103 26.6698 213.717 26.503 214.174 26.1944L213.054 24.5372C212.968 24.5955 212.708 24.7075 212.147 24.7964L212.46 26.7718ZM214.174 26.1944C214.75 25.8046 215.021 25.2048 215.021 24.5511H213.021C213.021 24.5782 213.018 24.5916 213.018 24.594C213.018 24.5959 213.019 24.5892 213.025 24.5773C213.031 24.5651 213.039 24.5537 213.047 24.5447C213.055 24.536 213.059 24.534 213.054 24.5372L214.174 26.1944ZM215.021 24.5511V24.4851H213.021V24.5511H215.021ZM215.021 24.4851C215.021 23.5604 214.718 22.7201 214.015 22.1111L212.706 23.6225C212.884 23.7768 213.021 24.0154 213.021 24.4851H215.021ZM214.022 22.1166C213.346 21.5212 212.461 21.2944 211.511 21.2944V23.2944C212.162 23.2944 212.509 23.4492 212.699 23.617L214.022 22.1166ZM211.511 21.2944C210.526 21.2944 209.621 21.5128 208.897 22.0558L210.097 23.6558C210.371 23.4503 210.808 23.2944 211.511 23.2944V21.2944ZM208.904 22.0502C208.24 22.5383 207.772 23.1808 207.545 23.9648L209.466 24.521C209.562 24.1894 209.755 23.9072 210.089 23.6615L208.904 22.0502ZM208.587 23.2462L204.249 22.8939L204.087 24.8873L208.425 25.2396L208.587 23.2462ZM205.146 24.1002C205.334 23.2261 205.695 22.4933 206.225 21.8798L204.71 20.5733C203.948 21.4569 203.444 22.5002 203.191 23.6811L205.146 24.1002ZM206.228 21.8761C206.757 21.2567 207.45 20.767 208.334 20.4171L207.598 18.5574C206.443 19.0147 205.47 19.6846 204.707 20.577L206.228 21.8761ZM208.338 20.4157C209.224 20.0611 210.283 19.8707 211.533 19.8707V17.8707C210.083 17.8707 208.763 18.0914 207.595 18.5587L208.338 20.4157ZM211.533 19.8707C212.394 19.8707 213.209 19.9715 213.982 20.1697L214.479 18.2323C213.534 17.9901 212.551 17.8707 211.533 17.8707V19.8707ZM213.984 20.1702C214.746 20.3639 215.401 20.6589 215.962 21.047L217.1 19.4026C216.325 18.8659 215.447 18.4784 214.477 18.2318L213.984 20.1702ZM215.966 21.0499C216.508 21.421 216.932 21.8939 217.246 22.4801L219.009 21.5362C218.545 20.6693 217.904 19.9533 217.096 19.3997L215.966 21.0499ZM217.248 22.4839C217.541 23.0271 217.711 23.7181 217.711 24.5952H219.711C219.711 23.4613 219.491 22.4277 219.007 21.5325L217.248 22.4839ZM217.711 24.5952V36H219.711V24.5952H217.711ZM218.711 35H214.263V37H218.711V35ZM215.263 36V33.6552H213.263V36H215.263ZM214.263 32.6552H214.131V34.6552H214.263V32.6552ZM213.242 33.1981C213.028 33.6137 212.742 33.9817 212.378 34.3052L213.705 35.8013C214.25 35.3175 214.691 34.7535 215.021 34.1123L213.242 33.1981ZM212.385 34.2992C212.035 34.6038 211.6 34.8563 211.065 35.047L211.737 36.931C212.479 36.6666 213.138 36.2953 213.698 35.8073L212.385 34.2992ZM211.075 35.0436C210.563 35.2202 209.939 35.3192 209.188 35.3192V37.3192C210.11 37.3192 210.962 37.1982 211.727 36.9344L211.075 35.0436ZM210.531 34.0827C211.355 34.0827 212.125 33.92 212.816 33.5649L211.902 31.786C211.536 31.974 211.088 32.0827 210.531 32.0827V34.0827ZM212.826 33.5598C213.495 33.2062 214.044 32.7175 214.445 32.092L212.761 31.0131C212.56 31.327 212.279 31.5869 211.892 31.791L212.826 33.5598ZM214.445 32.092C214.856 31.4506 215.054 30.7289 215.054 29.9563H213.054C213.054 30.3727 212.952 30.7152 212.761 31.0131L214.445 32.092ZM215.054 29.9563V28.1619H213.054V29.9563H215.054ZM213.509 27.3235C213.468 27.3504 213.36 27.4057 213.149 27.4721L213.748 29.3801C214.051 29.2851 214.347 29.1643 214.599 29.0004L213.509 27.3235ZM213.166 27.4668C212.948 27.5311 212.692 27.5947 212.396 27.6565L212.806 29.6141C213.142 29.5438 213.451 29.4679 213.731 29.3855L213.166 27.4668ZM212.418 27.6522C212.11 27.7095 211.802 27.7633 211.494 27.8134L211.815 29.7874C212.138 29.7348 212.461 29.6785 212.784 29.6184L212.418 27.6522ZM211.516 27.81C211.2 27.8542 210.912 27.8947 210.654 27.9316L210.937 29.9115C211.193 29.875 211.478 29.8347 211.792 29.7908L211.516 27.81ZM210.65 27.9321C210.034 28.0225 209.467 28.1703 208.96 28.3877L209.747 30.226C210.062 30.091 210.456 29.982 210.941 29.9109L210.65 27.9321ZM208.96 28.3877C208.418 28.6195 207.948 28.956 207.598 29.4193L209.193 30.6255C209.298 30.4869 209.466 30.3464 209.747 30.226L208.96 28.3877ZM207.605 29.4098C207.218 29.9096 207.054 30.5038 207.054 31.1232H209.054C209.054 30.862 209.118 30.7222 209.186 30.6349L207.605 29.4098ZM207.054 31.1232C207.054 32.0385 207.406 32.8454 208.158 33.395L209.338 31.7797C209.166 31.6542 209.054 31.485 209.054 31.1232H207.054ZM208.173 33.4054C208.849 33.881 209.659 34.0827 210.531 34.0827V32.0827C209.966 32.0827 209.586 31.9542 209.323 31.7693L208.173 33.4054ZM222.349 36H221.349V37H222.349V36ZM222.349 19.0909V18.0909H221.349V19.0909H222.349ZM226.896 19.0909H227.896V18.0909H226.896V19.0909ZM226.896 22.0412H225.896V23.0412H226.896V22.0412ZM227.072 22.0412V23.0412H227.82L228.031 22.323L227.072 22.0412ZM228.624 19.6634L229.217 20.4682L229.223 20.4643L228.624 19.6634ZM231.893 18.8928L232.001 17.8985L232.001 17.8985L231.893 18.8928ZM232.609 19.0138H233.609V18.2331L232.851 18.0437L232.609 19.0138ZM232.609 23.1751L232.322 24.1329L233.609 24.5191V23.1751H232.609ZM228.778 23.3732L229.259 24.2502L229.263 24.2479L228.778 23.3732ZM227.501 24.6062L226.642 24.0934L226.637 24.1023L227.501 24.6062ZM227.039 36V37H228.039V36H227.039ZM223.349 36V19.0909H221.349V36H223.349ZM222.349 20.0909H226.896V18.0909H222.349V20.0909ZM225.896 19.0909V22.0412H227.896V19.0909H225.896ZM226.896 23.0412H227.072V21.0412H226.896V23.0412ZM228.031 22.323C228.291 21.4376 228.701 20.8487 229.217 20.4682L228.03 18.8585C227.093 19.5495 226.469 20.5458 226.112 21.7594L228.031 22.323ZM229.223 20.4643C229.768 20.0564 230.393 19.8487 231.134 19.8487V17.8487C229.981 17.8487 228.932 18.1842 228.025 18.8624L229.223 20.4643ZM231.134 19.8487C231.328 19.8487 231.544 19.8609 231.786 19.887L232.001 17.8985C231.699 17.8659 231.41 17.8487 231.134 17.8487V19.8487ZM231.786 19.887C232.024 19.9127 232.216 19.9464 232.366 19.984L232.851 18.0437C232.591 17.9786 232.306 17.9315 232.001 17.8985L231.786 19.887ZM231.609 19.0138V23.1751H233.609V19.0138H231.609ZM232.896 22.2172C232.602 22.1288 232.237 22.0618 231.826 22.0075L231.564 23.9903C231.932 24.0389 232.176 24.0892 232.322 24.1329L232.896 22.2172ZM231.826 22.0075C231.403 21.9516 231.002 21.9219 230.627 21.9219V23.9219C230.898 23.9219 231.21 23.9435 231.564 23.9903L231.826 22.0075ZM230.627 21.9219C229.787 21.9219 229.001 22.1066 228.293 22.4985L229.263 24.2479C229.641 24.0381 230.088 23.9219 230.627 23.9219V21.9219ZM228.297 22.4962C227.604 22.8761 227.049 23.4133 226.642 24.0934L228.36 25.1189C228.584 24.7422 228.88 24.4575 229.258 24.2502L228.297 22.4962ZM226.637 24.1023C226.229 24.8024 226.039 25.5898 226.039 26.4336H228.039C228.039 25.8977 228.157 25.4667 228.365 25.11L226.637 24.1023ZM226.039 26.4336V36H228.039V26.4336H226.039ZM227.039 35H222.349V37H227.039V35ZM235.034 36H234.034V37H235.034V36ZM235.034 19.0909V18.0909H234.034V19.0909H235.034ZM239.503 19.0909H240.503V18.0909H239.503V19.0909ZM239.503 22.0742H238.503V23.0742H239.503V22.0742ZM239.701 22.0742V23.0742H240.407L240.643 22.4092L239.701 22.0742ZM241.463 19.7294L240.891 18.9088L240.891 18.9088L241.463 19.7294ZM247.374 19.7404L246.794 20.5552L246.799 20.5586L247.374 19.7404ZM249.003 22.0742L248.039 22.3404L248.242 23.0742H249.003V22.0742ZM249.18 22.0742V23.0742H249.885L250.122 22.4097L249.18 22.0742ZM251.051 19.7514L251.591 20.5928L251.593 20.5917L251.051 19.7514ZM258.118 20.3789L257.404 21.0782L257.409 21.0834L258.118 20.3789ZM259.605 36V37H260.605V36H259.605ZM254.926 36H253.926V37H254.926V36ZM254.177 23.4393L253.492 24.1675L253.492 24.1675L254.177 23.4393ZM250.313 23.5494L251.06 24.2144L251.065 24.2093L250.313 23.5494ZM249.598 36V37H250.598V36H249.598ZM245.051 36H244.051V37H245.051V36ZM244.336 23.4723L243.613 24.1631L243.618 24.1686L244.336 23.4723ZM241.066 23.131L241.596 23.979L241.6 23.9765L241.066 23.131ZM240.086 24.2209L240.972 24.6849L240.975 24.6792L240.086 24.2209ZM239.723 36V37H240.723V36H239.723ZM236.034 36V19.0909H234.034V36H236.034ZM235.034 20.0909H239.503V18.0909H235.034V20.0909ZM238.503 19.0909V22.0742H240.503V19.0909H238.503ZM239.503 23.0742H239.701V21.0742H239.503V23.0742ZM240.643 22.4092C240.929 21.6046 241.392 20.9971 242.034 20.55L240.891 18.9088C239.889 19.6066 239.177 20.5623 238.759 21.7392L240.643 22.4092ZM242.034 20.55C242.665 20.1105 243.442 19.8707 244.413 19.8707V17.8707C243.094 17.8707 241.904 18.2034 240.891 18.9088L242.034 20.55ZM244.413 19.8707C245.399 19.8707 246.175 20.1143 246.794 20.5551L247.954 18.9257C246.944 18.2069 245.746 17.8707 244.413 17.8707V19.8707ZM246.799 20.5586C247.419 20.9942 247.828 21.5745 248.039 22.3404L249.967 21.8081C249.636 20.6071 248.958 19.6315 247.949 18.9222L246.799 20.5586ZM249.003 23.0742H249.18V21.0742H249.003V23.0742ZM250.122 22.4097C250.389 21.6588 250.866 21.0586 251.591 20.5928L250.511 18.91C249.43 19.6038 248.66 20.5521 248.237 21.7388L250.122 22.4097ZM251.593 20.5917C252.319 20.1234 253.2 19.8707 254.276 19.8707V17.8707C252.873 17.8707 251.603 18.2052 250.509 18.9111L251.593 20.5917ZM254.276 19.8707C255.621 19.8707 256.632 20.2893 257.404 21.0781L258.833 19.6797C257.638 18.4576 256.087 17.8707 254.276 17.8707V19.8707ZM257.409 21.0834C258.162 21.8422 258.605 22.9738 258.605 24.6282H260.605C260.605 22.6131 260.056 20.9118 258.828 19.6744L257.409 21.0834ZM258.605 24.6282V36H260.605V24.6282H258.605ZM259.605 35H254.926V37H259.605V35ZM255.926 36V25.5529H253.926V36H255.926ZM255.926 25.5529C255.926 24.4433 255.628 23.4316 254.863 22.7111L253.492 24.1675C253.725 24.3863 253.926 24.7837 253.926 25.5529H255.926ZM254.863 22.7111C254.16 22.05 253.284 21.7347 252.306 21.7347V23.7347C252.825 23.7347 253.196 23.8892 253.492 24.1675L254.863 22.7111ZM252.306 21.7347C251.223 21.7347 250.263 22.0912 249.562 22.8894L251.065 24.2093C251.318 23.9213 251.686 23.7347 252.306 23.7347V21.7347ZM249.567 22.8844C248.891 23.6426 248.598 24.6064 248.598 25.674H250.598C250.598 24.9802 250.781 24.5277 251.06 24.2144L249.567 22.8844ZM248.598 25.674V36H250.598V25.674H248.598ZM249.598 35H245.051V37H249.598V35ZM246.051 36V25.4538H244.051V36H246.051ZM246.051 25.4538C246.051 24.4227 245.748 23.4922 245.053 22.776L243.618 24.1686C243.877 24.4358 244.051 24.8264 244.051 25.4538H246.051ZM245.059 22.7816C244.375 22.0652 243.479 21.7347 242.475 21.7347V23.7347C243.013 23.7347 243.358 23.896 243.613 24.163L245.059 22.7816ZM242.475 21.7347C241.776 21.7347 241.119 21.9149 240.532 22.2855L241.6 23.9765C241.85 23.8187 242.133 23.7347 242.475 23.7347V21.7347ZM240.536 22.283C239.959 22.6437 239.515 23.148 239.198 23.7626L240.975 24.6792C241.143 24.3544 241.351 24.1321 241.596 23.979L240.536 22.283ZM239.201 23.7569C238.87 24.3878 238.723 25.0961 238.723 25.8501H240.723C240.723 25.3566 240.818 24.9787 240.972 24.6849L239.201 23.7569ZM238.723 25.8501V36H240.723V25.8501H238.723ZM239.723 35H235.034V37H239.723V35ZM265.246 35.7578L264.834 36.669L264.841 36.672L265.246 35.7578ZM263.243 34.0735L262.403 34.6168L262.41 34.6263L263.243 34.0735ZM263.034 28.9105L262.154 28.4352L262.154 28.4352L263.034 28.9105ZM264.443 27.3693L263.895 26.5325L263.895 26.5325L264.443 27.3693ZM266.468 26.4886L266.217 25.5207L266.215 25.5213L266.468 26.4886ZM268.868 26.0703L268.964 27.0657L268.972 27.0649L268.868 26.0703ZM271.246 25.7841L271.391 26.7736L271.403 26.7718L271.246 25.7841ZM272.556 25.3658L271.996 24.5372L271.996 24.5372L272.556 25.3658ZM272.303 22.8668L271.642 23.6171L271.648 23.6225L272.303 22.8668ZM268.439 22.8558L269.031 23.6615L269.039 23.6558L268.439 22.8558ZM267.448 24.2429L267.367 25.2396L268.182 25.3058L268.409 24.521L267.448 24.2429ZM263.111 23.8906L262.133 23.6811L261.894 24.7951L263.03 24.8873L263.111 23.8906ZM264.41 21.2266L265.167 21.8798L265.17 21.8761L264.41 21.2266ZM266.909 19.4872L267.277 20.4171L267.28 20.4157L266.909 19.4872ZM273.173 19.201L272.924 20.1697L272.926 20.1702L273.173 19.201ZM275.473 20.2248L274.904 21.047L274.908 21.0499L275.473 20.2248ZM277.07 22.0082L276.188 22.4801L276.19 22.4839L277.07 22.0082ZM277.653 36V37H278.653V36H277.653ZM273.206 36H272.206V37H273.206V36ZM273.206 33.6552H274.206V32.6552H273.206V33.6552ZM273.074 33.6552V32.6552H272.463L272.184 33.1981L273.074 33.6552ZM271.984 35.0533L272.64 35.8074L272.647 35.8013L271.984 35.0533ZM270.343 35.989L270.669 36.9344L270.679 36.931L270.343 35.989ZM271.301 32.6754L271.758 33.5649L271.768 33.5598L271.301 32.6754ZM272.545 31.5526L271.703 31.0131L271.703 31.0131L272.545 31.5526ZM272.996 28.1619H273.996V26.3192L272.451 27.3235L272.996 28.1619ZM272.391 28.4261L272.673 29.3855L272.682 29.3829L272.691 29.3801L272.391 28.4261ZM271.543 28.6353L271.726 29.6184L271.737 29.6164L271.748 29.6141L271.543 28.6353ZM270.597 28.8004L270.735 29.7908L270.746 29.7893L270.757 29.7874L270.597 28.8004ZM269.738 28.9215L269.597 27.9316L269.593 27.9321L269.738 28.9215ZM268.296 29.3068L268.69 30.226L268.69 30.226L268.296 29.3068ZM267.338 30.0224L268.129 30.635L268.136 30.6255L267.338 30.0224ZM267.69 32.5874L267.101 33.395L267.108 33.4003L267.115 33.4054L267.69 32.5874ZM268.131 35.3192C267.168 35.3192 266.348 35.1526 265.652 34.8437L264.841 36.672C265.832 37.1116 266.935 37.3192 268.131 37.3192V35.3192ZM265.658 34.8466C264.978 34.5391 264.46 34.0986 264.076 33.5207L262.41 34.6263C263.01 35.5309 263.827 36.2133 264.834 36.669L265.658 34.8466ZM264.082 33.5303C263.726 32.9798 263.516 32.2484 263.516 31.2773H261.516C261.516 32.5373 261.791 33.6701 262.403 34.6168L264.082 33.5303ZM263.516 31.2773C263.516 30.4564 263.667 29.8416 263.914 29.3858L262.154 28.4352C261.71 29.2564 261.516 30.2195 261.516 31.2773H263.516ZM263.914 29.3858C264.181 28.8903 264.538 28.502 264.99 28.2061L263.895 26.5325C263.159 27.0145 262.576 27.6538 262.154 28.4352L263.914 29.3858ZM264.99 28.2061C265.486 27.8818 266.06 27.6295 266.722 27.456L266.215 25.5213C265.365 25.7441 264.589 26.0789 263.895 26.5325L264.99 28.2061ZM266.72 27.4565C267.429 27.2725 268.177 27.1417 268.964 27.0657L268.772 25.0749C267.887 25.1604 267.035 25.3085 266.217 25.5207L266.72 27.4565ZM268.972 27.0649C269.962 26.9615 270.77 26.8644 271.391 26.7736L271.101 24.7946C270.519 24.8799 269.741 24.9736 268.764 25.0757L268.972 27.0649ZM271.403 26.7718C272.046 26.6698 272.659 26.503 273.116 26.1944L271.996 24.5372C271.91 24.5955 271.65 24.7075 271.09 24.7964L271.403 26.7718ZM273.116 26.1944C273.693 25.8046 273.963 25.2048 273.963 24.5511H271.963C271.963 24.5782 271.961 24.5916 271.96 24.594C271.96 24.5959 271.961 24.5892 271.967 24.5773C271.973 24.5651 271.981 24.5537 271.989 24.5447C271.997 24.536 272.001 24.534 271.996 24.5372L273.116 26.1944ZM273.963 24.5511V24.4851H271.963V24.5511H273.963ZM273.963 24.4851C273.963 23.5604 273.661 22.7201 272.958 22.1111L271.648 23.6225C271.826 23.7768 271.963 24.0154 271.963 24.4851H273.963ZM272.964 22.1166C272.289 21.5212 271.403 21.2944 270.453 21.2944V23.2944C271.104 23.2944 271.451 23.4492 271.642 23.617L272.964 22.1166ZM270.453 21.2944C269.469 21.2944 268.563 21.5128 267.839 22.0558L269.039 23.6558C269.313 23.4503 269.75 23.2944 270.453 23.2944V21.2944ZM267.847 22.0502C267.183 22.5383 266.715 23.1808 266.488 23.9648L268.409 24.521C268.505 24.1894 268.697 23.9072 269.031 23.6615L267.847 22.0502ZM267.529 23.2462L263.192 22.8939L263.03 24.8873L267.367 25.2396L267.529 23.2462ZM264.089 24.1002C264.276 23.2261 264.638 22.4933 265.167 21.8798L263.653 20.5733C262.89 21.4569 262.386 22.5002 262.133 23.6811L264.089 24.1002ZM265.17 21.8761C265.699 21.2567 266.392 20.767 267.277 20.4171L266.541 18.5574C265.385 19.0147 264.412 19.6846 263.65 20.577L265.17 21.8761ZM267.28 20.4157C268.167 20.0611 269.225 19.8707 270.475 19.8707V17.8707C269.025 17.8707 267.706 18.0914 266.537 18.5587L267.28 20.4157ZM270.475 19.8707C271.336 19.8707 272.151 19.9715 272.924 20.1697L273.421 18.2323C272.476 17.9901 271.494 17.8707 270.475 17.8707V19.8707ZM272.926 20.1702C273.688 20.3639 274.344 20.6589 274.904 21.047L276.043 19.4026C275.267 18.8659 274.389 18.4784 273.419 18.2318L272.926 20.1702ZM274.908 21.0499C275.45 21.421 275.874 21.8939 276.188 22.4801L277.951 21.5362C277.487 20.6693 276.847 19.9533 276.038 19.3997L274.908 21.0499ZM276.19 22.4839C276.484 23.0271 276.653 23.7181 276.653 24.5952H278.653C278.653 23.4613 278.433 22.4277 277.949 21.5325L276.19 22.4839ZM276.653 24.5952V36H278.653V24.5952H276.653ZM277.653 35H273.206V37H277.653V35ZM274.206 36V33.6552H272.206V36H274.206ZM273.206 32.6552H273.074V34.6552H273.206V32.6552ZM272.184 33.1981C271.97 33.6137 271.685 33.9817 271.32 34.3052L272.647 35.8013C273.193 35.3175 273.633 34.7535 273.963 34.1123L272.184 33.1981ZM271.327 34.2992C270.977 34.6038 270.543 34.8563 270.008 35.047L270.679 36.931C271.421 36.6666 272.08 36.2953 272.64 35.8073L271.327 34.2992ZM270.017 35.0436C269.505 35.2202 268.882 35.3192 268.131 35.3192V37.3192C269.053 37.3192 269.904 37.1982 270.669 36.9344L270.017 35.0436ZM269.474 34.0827C270.297 34.0827 271.067 33.92 271.758 33.5649L270.844 31.786C270.478 31.974 270.03 32.0827 269.474 32.0827V34.0827ZM271.768 33.5598C272.438 33.2062 272.986 32.7175 273.387 32.092L271.703 31.0131C271.502 31.327 271.221 31.5869 270.834 31.791L271.768 33.5598ZM273.387 32.092C273.798 31.4506 273.996 30.7289 273.996 29.9563H271.996C271.996 30.3727 271.894 30.7152 271.703 31.0131L273.387 32.092ZM273.996 29.9563V28.1619H271.996V29.9563H273.996ZM272.451 27.3235C272.41 27.3504 272.303 27.4057 272.091 27.4721L272.691 29.3801C272.993 29.2851 273.289 29.1643 273.541 29.0004L272.451 27.3235ZM272.109 27.4668C271.89 27.5311 271.634 27.5947 271.338 27.6565L271.748 29.6141C272.084 29.5438 272.393 29.4679 272.673 29.3855L272.109 27.4668ZM271.36 27.6522C271.052 27.7095 270.744 27.7633 270.436 27.8134L270.757 29.7874C271.08 29.7348 271.403 29.6785 271.726 29.6184L271.36 27.6522ZM270.458 27.81C270.142 27.8542 269.855 27.8947 269.597 27.9316L269.879 29.9115C270.135 29.875 270.42 29.8347 270.735 29.7908L270.458 27.81ZM269.593 27.9321C268.977 28.0225 268.409 28.1703 267.902 28.3877L268.69 30.226C269.005 30.091 269.398 29.982 269.883 29.9109L269.593 27.9321ZM267.902 28.3877C267.361 28.6195 266.891 28.956 266.54 29.4193L268.136 30.6255C268.24 30.4869 268.409 30.3464 268.69 30.226L267.902 28.3877ZM266.548 29.4098C266.16 29.9096 265.997 30.5038 265.997 31.1232H267.997C267.997 30.862 268.061 30.7222 268.128 30.6349L266.548 29.4098ZM265.997 31.1232C265.997 32.0385 266.348 32.8454 267.101 33.395L268.28 31.7797C268.108 31.6542 267.997 31.485 267.997 31.1232H265.997ZM267.115 33.4054C267.792 33.881 268.601 34.0827 269.474 34.0827V32.0827C268.908 32.0827 268.529 31.9542 268.266 31.7693L267.115 33.4054ZM284.462 35.2294L283.949 36.0878L283.955 36.0913L284.462 35.2294ZM281.6 32.147L280.706 32.5962L280.708 32.6002L281.6 32.147ZM281.611 23.054L280.721 22.5969L280.72 22.5988L281.611 23.054ZM284.484 19.9826L284.993 20.8432L284.997 20.841L284.484 19.9826ZM292.784 19.6744L293.22 18.774L293.22 18.774L292.784 19.6744ZM295.415 21.9311L294.583 22.4858L295.415 21.9311ZM296.483 25.3438V26.3438H297.535L297.482 25.2933L296.483 25.3438ZM292.058 25.3438L291.068 25.49L291.195 26.3438H292.058V25.3438ZM291.067 23.3072L290.365 24.0193L290.375 24.029L291.067 23.3072ZM287.082 23.12L287.669 23.9292L287.671 23.9278L287.082 23.12ZM285.816 30.2976L284.884 30.6596L284.887 30.6674L285.816 30.2976ZM287.082 32.0259L287.671 31.2181L287.671 31.2181L287.082 32.0259ZM290.428 32.2901L289.975 31.3987L289.969 31.4019L290.428 32.2901ZM291.496 31.3324L290.666 30.7744L290.664 30.7777L291.496 31.3324ZM292.058 29.8022V28.8022H291.195L291.069 29.6557L292.058 29.8022ZM296.483 29.8022L297.482 29.8589L297.542 28.8022H296.483V29.8022ZM295.426 33.2148L294.585 32.6747L294.584 32.6763L295.426 33.2148ZM292.839 35.5046L292.392 34.6102L292.392 34.6102L292.839 35.5046ZM288.931 35.3303C287.342 35.3303 286.035 34.9947 284.969 34.3675L283.955 36.0913C285.384 36.9319 287.056 37.3303 288.931 37.3303V35.3303ZM284.975 34.371C283.9 33.7285 283.075 32.843 282.491 31.6938L280.708 32.6002C281.46 34.0784 282.543 35.2478 283.949 36.0878L284.975 34.371ZM282.493 31.6978C281.913 30.5446 281.609 29.1909 281.609 27.6115H279.609C279.609 29.4521 279.965 31.1221 280.706 32.5962L282.493 31.6978ZM281.609 27.6115C281.609 26.0093 281.917 24.6513 282.501 23.5092L280.72 22.5988C279.968 24.0694 279.609 25.7497 279.609 27.6115H281.609ZM282.5 23.5111C283.091 22.3607 283.919 21.4786 284.993 20.8432L283.975 19.122C282.568 19.9544 281.48 21.1199 280.721 22.5969L282.5 23.5111ZM284.997 20.841C286.056 20.2082 287.347 19.8707 288.909 19.8707V17.8707C287.052 17.8707 285.393 18.2745 283.971 19.1242L284.997 20.841ZM288.909 19.8707C290.263 19.8707 291.401 20.1163 292.349 20.5747L293.22 18.774C291.951 18.1609 290.506 17.8707 288.909 17.8707V19.8707ZM292.349 20.5747C293.306 21.0373 294.042 21.6742 294.583 22.4858L296.247 21.3764C295.497 20.2505 294.479 19.3829 293.22 18.774L292.349 20.5747ZM294.583 22.4858C295.117 23.2867 295.426 24.2452 295.484 25.3942L297.482 25.2933C297.408 23.8296 297.005 22.513 296.247 21.3764L294.583 22.4858ZM296.483 24.3438H292.058V26.3438H296.483V24.3438ZM293.047 25.1975C292.895 24.1683 292.478 23.2751 291.759 22.5854L290.375 24.029C290.727 24.3667 290.971 24.8312 291.068 25.49L293.047 25.1975ZM291.769 22.5951C291.024 21.8604 290.063 21.5256 288.986 21.5256V23.5256C289.627 23.5256 290.053 23.7118 290.365 24.0192L291.769 22.5951ZM288.986 21.5256C288.066 21.5256 287.221 21.7808 286.492 22.3122L287.671 23.9278C288.029 23.6667 288.454 23.5256 288.986 23.5256V21.5256ZM286.494 22.3108C285.776 22.8323 285.255 23.5686 284.899 24.4534L286.755 25.1993C287.001 24.587 287.316 24.1857 287.669 23.9292L286.494 22.3108ZM284.899 24.4534C284.538 25.3518 284.376 26.3921 284.376 27.5455H286.376C286.376 26.5705 286.514 25.7981 286.755 25.1993L284.899 24.4534ZM284.376 27.5455C284.376 28.7095 284.533 29.757 284.884 30.6596L286.748 29.9356C286.511 29.3263 286.376 28.539 286.376 27.5455H284.376ZM284.887 30.6674C285.243 31.5614 285.768 32.305 286.492 32.8337L287.671 31.2181C287.31 30.9543 286.991 30.5456 286.745 29.9278L284.887 30.6674ZM286.492 32.8337C287.221 33.3652 288.066 33.6204 288.986 33.6204V31.6204C288.454 31.6204 288.029 31.4793 287.671 31.2181L286.492 32.8337ZM288.986 33.6204C289.663 33.6204 290.304 33.4803 290.888 33.1783L289.969 31.4019C289.701 31.5403 289.381 31.6204 288.986 31.6204V33.6204ZM290.882 33.1815C291.473 32.8807 291.958 32.4431 292.328 31.8871L290.664 30.7777C290.477 31.0583 290.25 31.2592 289.975 31.3987L290.882 33.1815ZM292.326 31.8904C292.709 31.3217 292.941 30.6654 293.047 29.9488L291.069 29.6557C290.999 30.1279 290.856 30.4918 290.666 30.7744L292.326 31.8904ZM292.058 30.8022H296.483V28.8022H292.058V30.8022ZM295.485 29.7455C295.42 30.884 295.113 31.8513 294.585 32.6747L296.268 33.755C297.002 32.6115 297.399 31.3037 297.482 29.8589L295.485 29.7455ZM294.584 32.6763C294.063 33.4907 293.342 34.1353 292.392 34.6102L293.287 36.399C294.538 35.7731 295.542 34.8912 296.269 33.7534L294.584 32.6763ZM292.392 34.6102C291.458 35.0774 290.315 35.3303 288.931 35.3303V37.3303C290.557 37.3303 292.019 37.0326 293.287 36.399L292.392 34.6102ZM300.708 42.1978L300.888 41.2141L300.877 41.2122L300.708 42.1978ZM299.431 41.8565L298.473 41.5675L298.211 42.4349L299.049 42.7808L299.431 41.8565ZM300.487 38.3558L300.781 37.3998L299.82 37.1053L299.53 38.0668L300.487 38.3558ZM301.974 38.631L301.94 39.6305L301.941 39.6305L301.974 38.631ZM303.13 38.3228L302.575 37.4907L302.566 37.4966L303.13 38.3228ZM303.933 37.1999L304.865 37.5624L304.866 37.5589L303.933 37.1999ZM304.208 36.4844L305.142 36.8434L305.273 36.5012L305.153 36.1551L304.208 36.4844ZM298.143 19.0909V18.0909H296.735L297.198 19.4202L298.143 19.0909ZM303.074 19.0909L304.037 18.8196L303.832 18.0909H303.074V19.0909ZM306.575 31.5085L305.613 31.7799L305.818 32.5085H306.575V31.5085ZM306.751 31.5085V32.5085H307.506L307.713 31.7822L306.751 31.5085ZM310.285 19.0909V18.0909H309.53L309.323 18.8172L310.285 19.0909ZM315.25 19.0909L316.194 19.4219L316.66 18.0909H315.25V19.0909ZM308.678 37.8274L307.734 37.4964L307.733 37.4998L308.678 37.8274ZM307.39 40.2053L306.611 39.5785L306.603 39.5878L307.39 40.2053ZM305.353 41.7795L304.946 40.8663L304.939 40.8694L305.353 41.7795ZM302.381 41.3409C301.84 41.3409 301.343 41.2975 300.888 41.2142L300.528 43.1814C301.115 43.289 301.733 43.3409 302.381 43.3409V41.3409ZM300.877 41.2122C300.408 41.1318 300.059 41.0343 299.812 40.9323L299.049 42.7808C299.477 42.9577 299.98 43.0877 300.539 43.1834L300.877 41.2122ZM300.388 42.1455L301.445 38.6448L299.53 38.0668L298.473 41.5675L300.388 42.1455ZM300.194 39.3119C300.805 39.4991 301.39 39.6121 301.94 39.6305L302.007 37.6316C301.677 37.6206 301.271 37.5501 300.781 37.3998L300.194 39.3119ZM301.941 39.6305C302.568 39.6511 303.17 39.5057 303.693 39.149L302.566 37.4966C302.443 37.5803 302.274 37.6404 302.006 37.6316L301.941 39.6305ZM303.684 39.1548C304.245 38.7813 304.616 38.2035 304.865 37.5624L303.001 36.8375C302.839 37.2532 302.675 37.424 302.575 37.4907L303.684 39.1548ZM304.866 37.5589L305.142 36.8434L303.275 36.1254L303 36.8409L304.866 37.5589ZM305.153 36.1551L299.087 18.7616L297.198 19.4202L303.264 36.8137L305.153 36.1551ZM298.143 20.0909H303.074V18.0909H298.143V20.0909ZM302.112 19.3622L305.613 31.7799L307.538 31.2372L304.037 18.8196L302.112 19.3622ZM306.575 32.5085H306.751V30.5085H306.575V32.5085ZM307.713 31.7822L311.247 19.3646L309.323 18.8172L305.79 31.2348L307.713 31.7822ZM310.285 20.0909H315.25V18.0909H310.285V20.0909ZM314.306 18.7599L307.734 37.4964L309.621 38.1584L316.194 19.4219L314.306 18.7599ZM307.733 37.4998C307.451 38.3134 307.074 39.0022 306.611 39.5785L308.169 40.832C308.792 40.0579 309.274 39.1615 309.623 38.155L307.733 37.4998ZM306.603 39.5878C306.172 40.1376 305.625 40.5631 304.946 40.8663L305.761 42.6926C306.726 42.2619 307.536 41.638 308.176 40.8227L306.603 39.5878ZM304.939 40.8694C304.278 41.1701 303.437 41.3409 302.381 41.3409V43.3409C303.644 43.3409 304.784 43.1374 305.768 42.6896L304.939 40.8694Z" fill="white" fill-opacity="0.2" mask="url(#path-1-outside-1_5412_4115)"/>
<path d="M19.8864 10.75C14.8218 11.0381 9.57366 13.0329 5.97122 16.6044C2.36877 20.176 0.331755 24.913 0 29.9749H10.1913C10.3568 27.45 11.5075 25.7827 13.3045 24.0012C15.1014 22.2196 17.3601 20.5682 19.8864 20.4245V10.75Z" fill="#FF5F00"/>
<path d="M6.32324 16.9595C9.70026 13.6115 14.5884 11.6722 19.3864 11.2855V19.9684C16.866 20.2858 14.6632 21.95 12.9524 23.6461C11.2227 25.361 10.0179 27.0346 9.73461 29.4749H0.540387C0.968359 24.7285 2.93932 20.3144 6.32324 16.9595Z" stroke="white" stroke-opacity="0.2"/>
<path d="M11.2866 49.9865C14.3176 51.5381 17.9726 52.219 21.3772 52.1647C24.7818 52.1104 28.1209 51.2204 31.1009 49.5729C34.0808 47.9255 36.6103 45.5711 38.4669 42.7168C40.3235 39.8624 41.0871 35.642 41.385 32.25L31.6161 32.2711C31.4674 33.9631 30.6618 35.6137 29.7357 37.0375C28.8096 38.4613 27.8223 39.4903 26.3358 40.3121C24.8494 41.1338 23.1968 41.8974 21.4986 41.9245C19.8003 41.9516 14.5929 42.2828 11.2866 37.0872V49.9865Z" fill="#FF5F00"/>
<path d="M21.3693 51.6648C18.1319 51.7164 14.6772 51.089 11.7866 49.6776V38.6201C15.0828 42.5647 19.5467 42.4669 21.2817 42.4289C21.3628 42.4272 21.4378 42.4255 21.5065 42.4244C23.3375 42.3952 25.0838 41.5756 26.5777 40.7496C28.1508 39.88 29.1944 38.7867 30.1548 37.3101C31.0191 35.9814 31.8103 34.4162 32.0595 32.7702L40.8356 32.7512C40.5066 36.0195 39.738 39.8455 38.0478 42.4441C36.2358 45.2298 33.7672 47.5276 30.8589 49.1354C27.9507 50.7432 24.6919 51.6118 21.3693 51.6648Z" stroke="white" stroke-opacity="0.2"/>
<path d="M0 31.1758H10.212V62.3491C10.212 62.3491 6.66513 62.0968 4.63855 61.4045C2.56207 60.6951 0 58.7522 0 58.7522V31.1758Z" fill="#FF5F00"/>
<path d="M0.5 31.6758H9.71197V61.8048C9.69924 61.8036 9.68633 61.8024 9.67323 61.8011C9.31352 61.7671 8.81299 61.7145 8.25029 61.6407C7.1146 61.4916 5.76329 61.2603 4.80019 60.9313C3.8202 60.5966 2.70136 59.9599 1.80958 59.3908C1.3678 59.1089 0.989488 58.8486 0.721892 58.6589C0.635848 58.5979 0.561357 58.5443 0.5 58.4998V31.6758Z" stroke="white" stroke-opacity="0.2"/>
<rect x="20.9614" y="10.75" width="31.1733" height="9.67448" fill="white"/>
<rect x="21.4614" y="11.25" width="30.1733" height="8.67448" stroke="white" stroke-opacity="0.2"/>
<rect x="41.3857" width="31.1733" height="9.67448" transform="rotate(90 41.3857 0)" fill="white"/>
<rect x="40.8857" y="0.5" width="30.1733" height="8.67448" transform="rotate(90 40.8857 0.5)" stroke="white" stroke-opacity="0.2"/>
</svg>
