<svg width="681" height="594" viewBox="0 0 681 594" fill="none" xmlns="http://www.w3.org/2000/svg">
<path d="M515.846 36.2155L516.211 49.0836L111.137 61.8791L110.773 49.011C110.422 36.6608 120.533 26.3289 133.353 25.9231L492.011 14.5982C504.831 14.1924 515.496 23.8741 515.846 36.2155Z" fill="#FFD0D2"/>
<path fill-rule="evenodd" clip-rule="evenodd" d="M468.404 33.3498C468.629 35.6734 466.927 37.7398 464.603 37.9641C462.279 38.1887 460.213 36.4867 459.989 34.163C459.764 31.8391 461.466 29.7736 463.79 29.549C466.114 29.3241 468.179 31.0259 468.404 33.3498ZM482.43 32.9893C482.655 35.3132 480.953 37.3793 478.63 37.6039C476.305 37.8285 474.24 36.1264 474.015 33.8028C473.79 31.4789 475.492 29.4133 477.816 29.1888C480.14 28.9639 482.206 30.6654 482.43 32.9893ZM496.457 32.6291C496.681 34.953 494.979 37.0191 492.656 37.2437C490.331 37.4682 488.266 35.7662 488.041 33.4426C487.817 31.1187 489.518 29.0531 491.843 28.8285C494.166 28.6037 496.232 30.3052 496.457 32.6291Z" fill="#C52127"/>
<path d="M516.21 49.0859L522.161 260.394L522.525 273.262C522.876 285.612 512.765 295.944 499.945 296.35L141.287 307.675C128.467 308.08 117.802 298.399 117.452 286.057L117.087 273.189L111.137 61.8817L516.21 49.0859Z" fill="#F5EBEF"/>
<path opacity="0.5" d="M522.52 273.265C522.879 285.607 512.76 295.941 499.943 296.352L141.291 307.672C128.464 308.083 117.799 298.399 117.45 286.056L117.084 273.192L111.367 70.5859C175.304 75.6245 407.979 85.003 517.144 82.2629L522.163 260.391L522.52 273.265Z" fill="#FFD0D2"/>
<path d="M82 533.111C82 506.804 668.579 505.077 679.838 535.247C690.704 564.364 573.878 601.026 517.658 591.462C461.438 581.898 393.911 572.124 339.444 572.5C284.976 572.876 82 549.357 82 533.111Z" fill="#FFC9CB" fill-opacity="0.32"/>
<path d="M611.292 66.0235C597.73 20.4941 551.5 -19.1369 539.182 9.92214C531.445 28.174 566.482 32.7525 583.32 59.0098C594.897 77.0635 616.416 83.2279 611.292 66.0235Z" fill="#FFD0D2" fill-opacity="0.4"/>
<path d="M573.18 62.3235C575.544 57.447 571.385 50.5493 563.892 46.9171C556.398 43.2849 548.407 44.2936 546.044 49.1702C543.68 54.0467 547.838 60.9445 555.332 64.5767C562.825 68.2089 570.816 67.2001 573.18 62.3235Z" fill="#FFD0D2" fill-opacity="0.4"/>
<path d="M87.3928 56.4721C91.5055 47.9873 84.2699 35.9858 71.2316 29.6661C58.1934 23.3463 44.2898 25.1014 40.1771 33.5861C36.0644 42.0709 43.3001 54.0724 56.3383 60.3922C69.3766 66.712 83.2801 64.9569 87.3928 56.4721Z" fill="#FFD0D2" fill-opacity="0.4"/>
<path d="M600.007 82.6093C602.84 76.4066 617.622 81.0653 612.981 88.7516C608.339 96.4383 598.545 85.8082 600.007 82.6093Z" fill="#FFD0D2" fill-opacity="0.4"/>
<path d="M34.273 491.478C15.372 491.478 0 476.099 0 457.197V136.625C0 117.727 15.372 102.352 34.273 102.352H572.526C591.428 102.352 606.8 117.727 606.8 136.625V457.198C606.8 476.099 591.428 491.478 572.526 491.478L34.273 491.478Z" fill="#E68184"/>
<path d="M593.445 136.653V457.197C593.445 468.764 584.059 478.089 572.552 478.089H34.2954C22.7281 478.089 13.3418 468.764 13.3418 457.197V136.653C13.3418 125.087 22.7281 115.699 34.2954 115.699H572.552C584.059 115.699 593.445 125.087 593.445 136.653Z" fill="#FFD0D2"/>
<path opacity="0.2" d="M504.163 112.387L56.0942 91.1398C40.0777 90.3816 26.4591 102.26 25.6788 117.685L24.8645 133.757L11.4471 397.671L10.6328 413.742C9.85192 429.157 22.1876 442.273 38.2041 443.032L486.272 464.279C502.288 465.037 515.907 453.159 516.688 437.734L517.502 421.662L530.919 157.748L531.734 141.676C532.514 126.262 520.178 113.146 504.163 112.387Z" fill="#FF8A8F"/>
<path d="M524.6 126.883L523.786 142.955L17.7305 118.964L18.5448 102.892C19.3254 87.4671 32.9437 75.5886 48.9604 76.3469L497.029 97.5943C513.045 98.3523 525.38 111.469 524.6 126.883Z" fill="#FA9598"/>
<path d="M523.787 142.956L510.369 406.869L509.555 422.941C508.774 438.367 495.156 450.245 479.139 449.487L31.0712 428.239C15.0548 427.481 2.71911 414.364 3.49996 398.95L4.31426 382.878L17.7317 118.965L523.787 142.956Z" fill="white"/>
<path opacity="0.25" d="M523.786 142.957L510.365 406.869L509.553 422.941C508.776 438.37 495.16 450.245 479.141 449.486L31.0702 428.236C15.0517 427.486 2.72095 414.369 3.49766 398.949L3.74791 394.056L412.174 413.423C428.193 414.182 441.809 402.306 442.595 386.877L443.408 370.805L455.158 139.707L523.786 142.957Z" fill="#FFD0D2"/>
<path opacity="0.25" fill-rule="evenodd" clip-rule="evenodd" d="M60.7861 98.5302C60.7861 102.115 57.8803 105.021 54.2958 105.021C50.711 105.021 47.8047 102.115 47.8047 98.5302C47.8047 94.9449 50.7113 92.0391 54.2958 92.0391C57.8803 92.0393 60.7861 94.9449 60.7861 98.5302Z" fill="#931F26"/>
<path fill-rule="evenodd" clip-rule="evenodd" d="M59.3799 96.7989C59.3799 100.383 56.4741 103.29 52.8896 103.29C49.3043 103.29 46.3984 100.384 46.3984 96.7989C46.3984 93.2142 49.3043 90.3086 52.8896 90.3086C56.4741 90.3083 59.3799 93.2142 59.3799 96.7989Z" fill="#C52127"/>
<path opacity="0.25" fill-rule="evenodd" clip-rule="evenodd" d="M82.2764 100.05C82.2764 103.634 79.3705 106.54 75.786 106.54C72.2013 106.54 69.2949 103.634 69.2949 100.05C69.2949 96.4644 72.2015 93.5586 75.786 93.5586C79.3705 93.5586 82.2764 96.4644 82.2764 100.05Z" fill="#931F26"/>
<path fill-rule="evenodd" clip-rule="evenodd" d="M80.8701 98.3185C80.8701 101.903 77.9643 104.81 74.3798 104.81C70.7945 104.81 67.8887 101.903 67.8887 98.3185C67.8887 94.7339 70.7945 91.8281 74.3798 91.8281C77.9643 91.8281 80.8701 94.7339 80.8701 98.3185Z" fill="#C52127"/>
<path opacity="0.25" fill-rule="evenodd" clip-rule="evenodd" d="M103.767 101.569C103.767 105.154 100.861 108.06 97.2763 108.06C93.6918 108.06 90.7852 105.154 90.7852 101.569C90.7852 97.9839 93.6918 95.0781 97.2763 95.0781C100.861 95.0781 103.767 97.9839 103.767 101.569Z" fill="#931F26"/>
<path fill-rule="evenodd" clip-rule="evenodd" d="M102.36 99.838C102.36 103.422 99.4545 106.329 95.87 106.329C92.2847 106.329 89.3789 103.422 89.3789 99.838C89.3789 96.2532 92.2847 93.3477 95.87 93.3477C99.4545 93.3477 102.36 96.2535 102.36 99.838Z" fill="#C52127"/>
<path d="M548.852 147.328C549.578 147.799 550.677 148.269 550.717 148.477C550.757 148.685 541.92 166.347 541.168 166.708C540.417 167.069 536.333 166.421 536.556 164.868C536.778 163.316 548.852 147.328 548.852 147.328Z" fill="#D66D53"/>
<path d="M521.504 185.991C540.811 193.431 543.783 205.126 545.367 208.87C545.367 208.87 592.807 131.591 552.37 145.141C549.218 146.197 542.014 164.632 521.504 185.991Z" fill="#FF9C83"/>
<path d="M547.887 522.879L548.211 548.879L563.557 549.348L566.19 522.94L547.887 522.879Z" fill="#D7A28E"/>
<path d="M563.837 541.244C557.88 546.315 548.434 542.904 548.06 537.941C547.76 533.961 542.212 542.205 536.591 550.049C532.881 555.225 509.777 555.131 513.831 566.904C516.189 573.754 556.351 567.332 565.885 559.668C567.665 558.237 567.302 538.265 563.837 541.244Z" fill="#121212"/>
<path d="M565.889 559.666C556.346 567.33 516.192 573.75 513.831 566.899C513.555 566.111 513.407 565.378 513.367 564.687C534.165 571.199 560.845 560.066 562.818 556.328C564.111 553.891 564.607 546.287 564.806 541.008C567.348 542.168 567.481 558.379 565.889 559.666Z" fill="#1C2959"/>
<path d="M532.387 284.34H600.295L567.528 532.782C567.528 532.782 560.078 541.909 544.76 532.177L532.387 284.34Z" fill="#121535"/>
<path opacity="0.5" d="M564.966 397.348C559.764 392.294 536.74 392.166 544.898 396.077C553.056 399.988 567.441 399.753 564.966 397.348ZM560.916 401.195C552.08 399.991 543.048 405.324 548.487 406.242C553.925 407.159 564.283 401.654 560.916 401.195ZM600.289 284.34L583.306 413.153C579.881 380.736 563.866 313.73 556.608 284.34H600.289Z" fill="#3D3C3C"/>
<path d="M618.164 524.405L621.218 550.227L636.528 549.081L636.372 522.543L618.164 524.405Z" fill="#D7A28E"/>
<path d="M635.956 540.991C630.565 546.66 620.813 544.26 619.919 539.363C619.203 535.438 614.552 544.218 609.785 552.609C606.64 558.147 583.654 560.48 588.922 571.762C591.987 578.326 631.252 567.721 639.928 559.098C641.547 557.488 639.088 537.665 635.956 540.991Z" fill="#121212"/>
<path d="M639.933 559.098C631.248 567.722 591.99 578.324 588.922 571.759C588.565 571.004 588.341 570.291 588.229 569.608C609.595 573.899 634.958 560.025 636.528 556.101C637.558 553.542 637.252 545.927 636.895 540.656C639.546 541.543 641.381 557.65 639.933 559.098Z" fill="#1C2959"/>
<path d="M564.215 291.694L631.25 280.84L638.615 531.325C638.615 531.325 629.626 538.401 615.864 535.302L564.215 291.694Z" fill="#121535"/>
<path opacity="0.5" d="M638.62 531.326C638.62 531.326 635.857 534.343 630.118 535.301C636.836 472.873 619.098 328.238 613.267 283.752L631.249 280.836L638.62 531.326ZM595.241 399.623C599.433 393.704 622.046 389.374 614.739 394.709C607.432 400.044 593.246 402.439 595.241 399.623ZM599.925 402.667C608.393 399.869 618.246 403.463 613.067 405.358C607.888 407.253 596.699 403.732 599.925 402.667Z" fill="#3D3C3C"/>
<path d="M530.955 288.56C539.457 297.062 632.238 290.832 636.528 285.471C640.817 280.109 607.443 143.112 604.557 141.271C601.672 139.43 575.343 128.921 552.369 145.141C542.342 150.211 530.955 288.56 530.955 288.56Z" fill="#FF9C83"/>
<path opacity="0.5" d="M636.531 285.475C632.239 290.827 539.463 297.066 530.961 288.564C530.961 288.564 542.348 150.209 552.369 145.143C555.743 142.757 559.199 140.953 562.634 139.618C562.97 146.845 563.99 163.411 566.345 166.968C569.373 171.556 574.266 171.107 574.266 171.107C574.266 171.107 593.167 171.106 593.736 137.609C599.516 138.853 603.533 140.617 604.563 141.269C607.447 143.114 640.823 280.113 636.531 285.475Z" fill="#CD6A51"/>
<path d="M549.877 86.8271C549.877 86.8271 545.702 91.495 547.161 95.6332C548.62 99.7709 572.019 104.888 572.019 104.888L575.662 122.405C575.662 122.405 579.545 125.601 580.963 119.673C580.963 119.673 585.762 119.512 584.157 111.374C584.157 111.374 586.472 108.295 587.827 102.133C587.31 100.217 588.155 97.3137 585.995 93.202C583.836 89.0902 561.026 83.1137 549.877 86.8271Z" fill="#1C2959"/>
<path d="M566.946 113.843L565.102 139.757C565.102 139.757 578.435 145.662 583.437 134.152L578.897 109.219L566.946 113.843Z" fill="#D7A28E"/>
<path d="M575.538 119.07C575.538 119.07 575.561 136.014 565.092 138.778L566.232 125.213L575.538 119.07Z" fill="#CE9784"/>
<path d="M579.65 96.1233C579.588 97.5466 579.281 112.194 579.281 112.194L579.281 112.203C576.765 121.908 570.46 129.64 559.823 128.737C548.965 127.823 545.042 108.676 548.728 90.4271C557.921 86.0438 572.875 93.0738 572.875 93.0738C574.32 97.4929 577.361 102.394 579.65 96.1233Z" fill="#D7A28E"/>
<path d="M576.193 94.3711C576.193 94.3711 574.64 110.979 572.585 115.382C570.531 119.785 570.531 116.262 563.927 114.648C557.323 113.034 547.783 114.648 549.398 119.051C551.012 123.454 552.186 130.645 564.22 130.058C576.254 129.471 579.63 109.218 579.63 109.218L579.771 96.5399L576.193 94.3711Z" fill="#1C2959"/>
<path d="M583.14 132.73C583.14 132.73 578.523 140.134 571.349 139.362C565.479 138.729 565.398 135.389 565.398 135.389C565.398 135.389 564.112 138.231 563.764 139.028C563.886 140.222 564.523 145.654 571.932 145.365C583.257 144.923 586.925 136.836 586.925 136.836L583.14 132.73Z" fill="#D66D53"/>
<path d="M590.019 99.085C590.019 99.085 594.964 76.6776 580.324 71.9528C565.683 67.2282 555.075 73.1156 555.075 73.1156L547.588 83.4355C547.588 83.4355 577.79 89.0488 590.019 99.085Z" fill="#EB962C"/>
<path opacity="0.5" d="M590.03 99.0988C577.787 89.0574 547.59 83.4397 547.59 83.4397L555.082 73.1188C555.082 73.1188 559.956 70.4114 567.661 70.1367C560.768 74.242 557.925 81.9903 560.349 83.2727C563.797 85.1114 584.105 91.6977 586.852 88.8995C588.914 86.8466 587.717 80.3902 587.022 76.7033C593.158 84.8645 590.03 99.0988 590.03 99.0988Z" fill="#D88225"/>
<path d="M569.854 84.0649C569.854 84.0649 572.831 73.5936 579.556 71.7266C579.556 71.7266 570.547 68.7173 562.391 70.3234C555.459 71.6882 551.623 82.4511 551.623 82.4511L569.854 84.0649Z" fill="#EB962C"/>
<path d="M556.369 77.7532L569.672 79.1967C569.672 79.1967 574.25 69.487 580.269 71.9976L576.956 67.7427L568.003 66.8047L561.206 70.2969L556.412 76.8676L556.369 77.7532Z" fill="#D88225"/>
<path d="M562.005 70.2305C562.005 70.2305 570.31 71.071 571.893 71.2173C571.716 71.4953 569.222 75.933 569.103 77.553L557.275 76.6596C557.275 76.6596 565.739 76.6067 566.879 75.6381C568.02 74.6695 569.041 73.8861 567.784 72.6664C566.527 71.4463 562.005 70.2305 562.005 70.2305ZM562.986 69.8005C562.986 69.8005 571.818 70.8099 571.965 70.7419C572.112 70.6734 576.497 68.0046 576.414 67.9958C576.332 67.9873 568.273 67.0586 568.273 67.0586L562.986 69.8005Z" fill="#EB962C"/>
<path d="M572.116 87.2695C572.116 87.2695 590.682 95.5959 591.051 98.4541C591.419 101.312 586.948 104.331 586.948 104.331L587.56 102.021C587.56 102.021 578.349 95.0459 573.872 93.1668C569.395 91.2879 572.116 87.2695 572.116 87.2695Z" fill="#D88225"/>
<path d="M577.873 109.011C576.078 106.531 577.781 99.2955 579.69 96.9034C580.976 95.293 585.722 95.4924 587.064 99.2115C588.472 103.112 585.1 107.774 581.336 109.496C580.102 110.061 578.565 109.967 577.873 109.011Z" fill="#D7A28E"/>
<path d="M580.171 104.044C580.462 102.288 584.821 99.4885 585.095 100.102C585.095 100.102 582.029 102.201 582.137 103.16C582.246 104.119 583.232 104.268 582.254 104.828C581.276 105.388 579.931 105.49 580.171 104.044Z" fill="#1C2959"/>
<path d="M540.551 85.4455C540.551 85.4455 540.233 82.8154 541.361 81.9692C542.488 81.1227 554.116 78.4835 566.084 81.8149C578.051 85.1463 576.652 92.9509 576.652 92.9509L576.194 94.3744L564.886 86.6356L540.551 85.4455Z" fill="#D88225"/>
<path d="M547.193 90.7404C547.193 90.7404 561.452 87.783 576.193 94.3732C576.193 94.3732 577.689 86.0794 566.126 82.9433C557.433 80.5855 542.778 80.4841 540.794 83.8372C538.81 87.1912 547.193 90.7404 547.193 90.7404Z" fill="#FEAA32"/>
<path d="M560.781 101.95C559.963 102.92 560.313 106.371 559.503 106.882C558.691 107.394 557.116 106.555 557.173 107.798C557.231 109.041 559.755 110.879 560.033 110.398C560.312 109.918 558.928 108.552 558.928 108.552C558.928 108.552 560.173 108.407 560.68 107.622C561.188 106.837 561.513 101.082 560.781 101.95ZM569.33 101.761C569.161 102.719 568.219 103.374 567.245 103.187C566.288 103.001 565.632 102.075 565.819 101.102C566.003 100.162 566.875 99.5334 567.82 99.6667C567.649 99.82 567.508 100.028 567.464 100.28C567.353 100.851 567.74 101.406 568.311 101.517C568.716 101.576 569.108 101.429 569.328 101.126C569.377 101.32 569.37 101.542 569.33 101.761ZM558.511 93.985C557.933 93.6001 557.297 93.4251 556.638 93.2902C555.979 93.1631 555.277 93.0677 554.606 93.0042C553.253 92.887 551.925 92.8535 550.569 93.3423C550.465 93.3779 550.12 92.916 550.213 92.8237C550.78 92.2425 551.529 91.8123 552.323 91.5734C553.117 91.3281 553.952 91.2578 554.76 91.3247C555.572 91.3932 556.347 91.5802 557.106 91.9181C557.855 92.2547 558.594 92.8009 559.003 93.556C559.074 93.6839 558.6 94.0431 558.511 93.985ZM554.939 100.205C554.77 101.164 553.827 101.819 552.854 101.631C551.897 101.445 551.24 100.52 551.428 99.5464C551.612 98.6055 552.483 97.9779 553.428 98.1115C553.258 98.2645 553.116 98.4725 553.073 98.7245C552.961 99.2953 553.348 99.85 553.92 99.9608C554.324 100.021 554.716 99.8734 554.937 99.5708C554.985 99.7642 554.979 99.9865 554.939 100.205ZM570.795 95.2726C570.217 94.8877 569.582 94.7121 568.923 94.5773C568.263 94.4505 567.562 94.355 566.89 94.2915C565.537 94.174 564.21 94.1406 562.854 94.6294C562.75 94.6652 562.404 94.2031 562.498 94.111C563.065 93.5298 563.814 93.0993 564.607 92.8608C565.402 92.6154 566.237 92.5449 567.044 92.6121C567.856 92.6808 568.632 92.8672 569.391 93.2057C570.139 93.542 570.878 94.0884 571.288 94.8434C571.359 94.971 570.885 95.3304 570.795 95.2726Z" fill="#1C2959"/>
<path d="M556.146 120.17C556.828 120.301 557.482 120.217 558.142 120.085C558.798 119.946 559.482 119.762 560.126 119.561C561.418 119.144 562.654 118.66 563.715 117.683C563.797 117.61 564.294 117.902 564.244 118.023C563.947 118.779 563.423 119.466 562.785 119.994C562.148 120.528 561.405 120.917 560.635 121.168C559.859 121.42 559.073 121.549 558.242 121.531C557.421 121.511 556.528 121.294 555.858 120.757C555.743 120.667 556.041 120.152 556.146 120.17Z" fill="#F2F6F9"/>
<path d="M570.134 184.349C579.654 197.212 563.424 264.686 569.275 293.29C549.142 292.801 530.324 291.659 529.651 289.743C528.275 285.838 538.52 206.1 538.52 206.1C554.311 180.564 554.155 143.407 554.155 143.407C554.155 143.407 558.317 139.278 561.212 140.196C564.097 141.103 560.845 180.564 563.515 181.023C564.678 181.227 567.813 181.212 570.134 184.349Z" fill="#FEAA32"/>
<path d="M569.28 293.296C549.146 292.807 530.328 291.665 529.655 289.748C528.952 287.76 531.266 266.129 533.702 245.363C550.38 250.909 562.083 240.755 562.715 223.048C563.245 208.522 548.677 202.589 541.613 200.57C548.81 186.37 551.878 169.886 553.183 158.285C555.355 162.495 558.464 167.205 562.378 169.744C562.389 176.033 562.592 180.865 563.52 181.028C564.682 181.232 567.812 181.212 570.136 184.352C579.657 197.216 563.428 264.691 569.28 293.296Z" fill="#EB962C"/>
<path d="M639.535 285.471C638.425 290.146 627.822 291.119 618.413 292.74C614.753 293.372 600.848 293.658 585.139 293.525C579.196 264.283 577.883 204.225 582.104 188.424C582.849 185.635 587.046 183.755 590.053 182.308C595.017 173.907 595.863 137.688 595.863 137.688C597.168 136.098 604.426 140.237 604.426 140.237C596.862 198.455 625.528 212.905 625.528 212.905C625.528 212.905 631.362 245.52 635.506 267.036C635.941 269.298 639.533 269.444 639.595 272.311C639.628 273.824 637.358 275.7 637.57 277.013C638.421 282.28 640.781 280.224 639.535 285.471Z" fill="#FEAA32"/>
<path d="M639.539 285.477C638.427 290.146 627.825 291.125 618.416 292.746C614.757 293.378 600.852 293.663 585.143 293.531C579.199 264.284 577.884 204.23 582.105 188.429C582.737 186.044 597.126 191.967 600.296 217.656C602.02 231.632 598.507 242.203 604.695 248.391C608.528 252.224 622.035 247.708 631.444 245.394C631.944 248.095 632.443 250.838 632.953 253.539C621.913 260.654 604.012 268.636 609.761 268.81C617.774 269.034 632.453 263.764 628.783 266.516C625.114 269.268 597.07 272.245 604.328 275.232C611.576 278.208 624.42 279.105 617.998 280.839C611.576 282.571 589.332 280.961 598.731 285.548C607.468 289.809 629.099 288.902 639.834 282.408C639.956 283.051 639.895 283.958 639.539 285.477Z" fill="#EB962C"/>
<path d="M531.614 257.211C537.178 261.465 548.145 260.422 548.145 262.257C548.145 264.092 551.357 272.35 548.145 272.579C544.934 272.808 530.564 272.414 529.722 270.547C528.879 268.68 530.716 256.525 531.614 257.211ZM633.306 255.625C627.742 259.878 615.73 258.297 615.73 260.132C615.73 261.967 612.519 270.224 615.73 270.453C618.941 270.683 634.716 269.604 635.559 267.737C636.402 265.87 634.204 254.939 633.306 255.625Z" fill="#D88225"/>
<path d="M609.856 214.248L596.653 213.033C595.287 206.448 592.678 200.331 589.11 194.888L597.608 184.676C598.204 183.958 598.156 182.904 597.496 182.244L586.433 171.18C585.772 170.52 584.717 170.472 584 171.069L573.788 179.576C568.345 175.998 562.228 173.399 555.653 172.022L554.438 158.82C554.353 157.891 553.573 157.18 552.64 157.18H536.994C536.06 157.18 535.281 157.891 535.195 158.82L533.98 172.022C527.395 173.399 521.289 175.998 515.835 179.576L505.623 171.069C504.906 170.472 503.851 170.52 503.19 171.18L492.127 182.243C491.467 182.903 491.419 183.958 492.017 184.676L500.524 194.888C496.945 200.331 494.346 206.458 492.97 213.033L479.768 214.248C478.838 214.334 478.127 215.113 478.127 216.046V231.693C478.127 232.626 478.838 233.405 479.767 233.491L492.97 234.706C494.346 241.291 496.945 247.418 500.524 252.851L492.016 263.073C491.419 263.791 491.467 264.846 492.128 265.506L503.191 276.561C503.851 277.22 504.905 277.268 505.622 276.671L515.835 268.173C515.836 268.173 515.837 268.173 515.839 268.173C521.277 271.739 527.387 274.346 533.98 275.717L534.187 288.884C534.203 289.87 535.007 290.661 535.993 290.661H553.641C554.627 290.661 555.431 289.87 555.447 288.884L555.653 275.717C558.61 275.105 569.324 272.648 573.789 268.173L584.001 276.671C584.718 277.268 585.772 277.22 586.433 276.561L597.497 265.505C598.157 264.845 598.206 263.791 597.609 263.073L589.11 252.851C592.678 247.418 595.288 241.291 596.654 234.706L609.856 233.491C610.786 233.405 611.497 232.626 611.497 231.693V216.046C611.496 215.113 610.785 214.334 609.856 214.248ZM544.806 251.393C529.637 251.393 517.343 239.089 517.343 223.92C517.343 208.752 529.637 196.458 544.806 196.458C559.985 196.458 572.269 208.752 572.269 223.92C572.269 239.089 559.985 251.393 544.806 251.393Z" fill="#C52127"/>
<path d="M603.781 217.317L593.659 216.378L593.117 213.769C591.871 207.764 589.505 202.085 586.092 196.866L584.621 194.626L591.14 186.798C592.63 185.001 592.512 182.364 590.86 180.712L587.962 177.813C586.309 176.161 583.672 176.044 581.876 177.533L574.038 184.062L571.808 182.59C566.616 179.186 560.937 176.811 554.914 175.556L552.305 175.005L551.366 164.892C551.158 162.563 549.207 160.793 546.869 160.793H542.761C540.422 160.793 538.481 162.563 538.264 164.892L537.334 175.005L534.716 175.556C528.702 176.811 523.022 179.177 517.812 182.59L515.582 184.062L507.745 177.533C505.948 176.044 503.312 176.161 501.668 177.813L498.761 180.712C497.108 182.364 496.991 185.001 498.49 186.798L505.009 194.635L503.537 196.866C500.133 202.048 497.767 207.737 496.503 213.769L495.962 216.387L485.84 217.317C483.519 217.525 481.74 219.475 481.74 221.814V225.922C481.74 228.261 483.519 230.202 485.84 230.419L495.962 231.349L496.503 233.967C497.767 240.008 500.133 245.688 503.537 250.862L505.009 253.101L498.481 260.947C496.991 262.744 497.108 265.381 498.761 267.024L501.668 269.932C503.312 271.575 505.948 271.701 507.745 270.203L515.565 263.702L518.219 265.408C523.312 268.686 528.865 270.961 534.716 272.18L537.542 272.767L537.705 282.6C537.741 285.065 539.745 287.051 542.21 287.051H547.42C549.885 287.051 551.89 285.065 551.935 282.6L552.089 272.767L554.924 272.18C560.603 271.006 568.278 268.577 571.231 265.616L573.561 263.286L581.877 270.203C583.673 271.702 586.31 271.575 587.962 269.932L590.861 267.024C592.513 265.372 592.639 262.735 591.141 260.947L584.621 253.101L586.093 250.871C589.506 245.661 591.872 239.981 593.118 233.967L593.66 231.349L603.782 230.419C606.111 230.202 607.881 228.261 607.881 225.922V221.814C607.88 219.475 606.111 217.525 603.781 217.317ZM541.442 254.825C527.031 253.299 515.446 241.724 513.911 227.313C511.852 207.972 527.654 191.674 546.841 192.911C562.3 193.904 574.833 206.446 575.817 221.895C577.036 241.074 560.756 256.866 541.442 254.825Z" fill="#FFE0D8"/>
<path d="M542.675 243.505C533.544 242.538 526.204 235.204 525.232 226.073C523.927 213.819 533.939 203.493 546.096 204.276C555.89 204.906 563.831 212.852 564.454 222.64C565.226 234.792 554.912 244.798 542.675 243.505Z" fill="#C52127"/>
<path d="M542.673 243.507C536.837 242.888 531.735 239.669 528.568 235.037C531.15 236.782 534.168 237.924 537.413 238.273C549.651 239.564 559.961 229.559 559.193 217.409C558.958 213.798 557.737 210.448 555.791 207.613C560.702 210.936 564.06 216.414 564.453 222.642C565.23 234.793 554.911 244.798 542.673 243.507Z" fill="#C52127"/>
<path d="M544.807 187.523C524.714 187.523 508.414 203.814 508.414 223.916C508.414 244.019 524.714 260.319 544.807 260.319C564.91 260.319 581.21 244.019 581.21 223.916C581.21 203.813 564.91 187.523 544.807 187.523ZM544.807 251.389C529.638 251.389 517.344 239.085 517.344 223.916C517.344 208.748 529.638 196.453 544.807 196.453C559.986 196.453 572.27 208.748 572.27 223.916C572.27 239.085 559.986 251.389 544.807 251.389Z" fill="#C52127"/>
<path d="M647.291 189.384C629.176 193.176 621.378 203.646 619.441 206.724L619.268 206.408C619.268 206.408 602.896 178.354 604.425 140.238C604.425 140.238 632.255 167.579 647.291 189.384Z" fill="#FF9C83"/>
<path opacity="0.5" d="M634.735 193.68C635.123 192.416 635.153 191.203 634.735 190.061C631.575 181.427 613.47 152.965 606.793 142.598C613.817 149.683 634.898 171.416 647.294 189.389C642.381 190.418 638.222 191.937 634.735 193.68Z" fill="#CD6A51"/>
<path d="M614.901 150.211C614.251 150.861 613.219 151.587 613.219 151.816C613.219 152.046 625.758 169.019 626.599 169.248C627.44 169.478 631.492 167.949 630.957 166.343C630.421 164.737 614.901 150.211 614.901 150.211Z" fill="#D66D53"/>
<path d="M496.438 195.545C496.438 195.545 493.849 192.6 498.755 190.686C503.662 188.772 505.559 191.746 504.581 193.144C503.603 194.541 503.08 195.511 500.186 195.341C500.186 195.341 502.386 196.573 501.523 198.304C500.66 200.034 498.777 200.423 498.777 200.423C498.777 200.423 500.957 201.113 500.97 202.101C500.983 203.088 499.376 204.993 496.864 205.069C496.864 205.069 498.946 206.574 496.586 208.503C494.226 210.431 494.109 209.445 494.109 209.445L492.929 212.806C492.929 212.806 489.096 209.827 492.521 205.319C492.521 205.319 490.603 202.198 494.669 200.802C494.669 200.801 491.639 196.786 496.438 195.545Z" fill="#D7A28E"/>
<path d="M496.477 195.571C496.534 195.728 497.375 195.52 498.412 195.482C499.451 195.428 500.289 195.575 500.34 195.438C500.406 195.289 499.531 194.869 498.388 194.927C497.243 194.972 496.42 195.444 496.477 195.571ZM494.559 200.761C494.592 200.835 494.827 200.806 495.198 200.774C495.57 200.741 496.086 200.71 496.663 200.682C497.815 200.626 498.765 200.578 498.776 200.423C498.789 200.273 497.833 200.069 496.635 200.127C496.036 200.156 495.493 200.253 495.113 200.391C494.731 200.528 494.528 200.696 494.559 200.761ZM492.52 205.319C492.564 205.391 492.804 205.321 493.186 205.261C493.571 205.205 494.109 205.17 494.715 205.179C495.927 205.193 496.929 205.303 496.961 205.149C496.997 205.004 496.012 204.64 494.72 204.623C494.077 204.613 493.484 204.716 493.081 204.883C492.675 205.054 492.483 205.262 492.52 205.319Z" fill="#CE9784"/>
<path d="M655.926 231.463C651.513 238.497 586.715 278.582 586.715 278.582C586.715 278.582 579.261 284.22 577.781 282.057C576.406 280.032 577.702 279.621 578.347 279.089C577.51 279.648 574.466 281.381 573.37 279.439C572.285 277.528 574.135 275.784 574.969 275.124C573.922 275.812 570.297 277.947 569.15 275.681C567.97 273.364 571.919 270.892 572.528 270.494C571.968 270.809 567.475 273.287 566.426 270.915C565.774 269.448 572.071 263.319 576.514 260.486C576.4 259.551 572.377 253.675 575.285 253.403C578.183 253.131 584.763 257.697 584.763 257.697L626.501 220.513L618.467 206.464C620.298 203.322 627.738 192.595 645.714 188.191C654.476 201.037 659.439 225.867 655.926 231.463Z" fill="#D7A28E"/>
<path d="M655.925 231.465C655.102 232.778 652.167 235.244 647.948 238.385C655.179 221.494 644.663 201.909 637.055 191.09C639.628 189.973 642.502 188.988 645.718 188.195C654.476 201.036 659.438 225.868 655.925 231.465Z" fill="#CE9784"/>
<path d="M616.604 204.953C616.604 204.953 618.58 208.369 620.066 208.726C621.553 209.084 629.483 197.692 636.91 194.863C644.336 192.034 649.229 192.263 648.924 190.275C648.618 188.288 646.706 183.853 645.254 183.624C643.801 183.394 622.893 189.124 616.604 204.953Z" fill="#D66D53"/>
<path d="M627.441 221.358C627.331 221.469 627.52 221.588 627.919 221.706C628.682 222.426 633.318 224.586 634.037 223.952C634.374 223.654 634.024 222.971 633.243 222.356C635.891 222.476 638.501 222.341 638.786 221.66C639.4 220.192 631.506 217.296 627.441 221.358Z" fill="#CE9784"/>
<path d="M161.144 288.192C144.911 287.366 126.977 285.478 107.343 282.529L108.345 262.845C129.753 265.397 145.755 266.942 156.351 267.481C158.587 267.595 160.369 267.053 161.697 265.853C163.127 264.562 163.899 262.798 164.013 260.562L164.384 253.272C164.681 247.439 161.913 244.374 156.081 244.077L113.795 241.925L116.839 182.142L186.828 185.705L185.789 206.119L142.045 203.892L141.08 222.847L164.41 224.035C173.937 224.52 180.824 227.063 185.073 231.665C189.327 236.17 191.229 242.845 190.778 251.691L190.259 261.898C189.774 271.424 187.182 278.31 182.483 282.553C177.783 286.797 170.671 288.677 161.144 288.192ZM261.182 217.266C261.479 211.434 258.712 208.369 252.879 208.072L236.84 207.256C231.007 206.959 227.943 209.726 227.646 215.559L225.271 262.219C224.974 268.051 227.742 271.116 233.574 271.413L249.613 272.229C255.446 272.526 258.51 269.758 258.807 263.926L261.182 217.266ZM285.053 265.262C284.534 275.469 281.822 282.786 276.919 287.215C272.117 291.551 264.613 293.459 254.407 292.939L226.702 291.529C216.496 291.01 209.176 288.347 204.742 283.54C200.411 278.642 198.505 271.089 199.025 260.882L201.4 214.223C201.919 204.016 204.58 196.745 209.381 192.408C214.285 187.98 221.84 186.026 232.047 186.545L259.751 187.955C269.958 188.475 277.227 191.184 281.558 196.083C285.991 200.889 287.948 208.395 287.429 218.602L285.053 265.262ZM346.256 297.615C330.023 296.789 312.089 294.901 292.455 291.953L293.457 272.268C314.865 274.82 330.867 276.365 341.463 276.905C343.699 277.018 345.481 276.476 346.809 275.276C348.239 273.985 349.011 272.221 349.125 269.985L349.422 264.153C349.718 258.32 346.951 255.256 341.118 254.959L310.498 253.4L311.537 232.986L339.241 234.397C345.074 234.694 348.138 231.926 348.435 226.093L348.584 223.177C348.88 217.345 346.113 214.28 340.28 213.983L297.995 211.831L299.034 191.417L348.61 193.941C358.136 194.426 365.024 196.969 369.273 201.571C373.527 206.076 375.428 212.751 374.978 221.597C374.681 227.429 373.078 232.123 370.168 235.679C367.36 239.142 363.732 241.491 359.284 242.726C367.049 245.266 372.128 250.787 374.521 259.29C375.34 262.353 375.648 265.878 375.445 269.863L375.371 271.321C374.886 280.848 372.294 287.733 367.594 291.977C362.895 296.221 355.783 298.1 346.256 297.615Z" fill="black"/>
<path d="M195.859 340.498C193.924 340.451 192.247 340.107 190.827 339.467C189.406 338.826 188.318 337.864 187.562 336.581C186.806 335.298 186.451 333.681 186.498 331.728L186.802 319.15C186.807 318.924 186.886 318.741 187.038 318.6C187.19 318.46 187.383 318.392 187.617 318.398L191.731 318.497C191.965 318.503 192.16 318.58 192.316 318.727C192.472 318.875 192.547 319.062 192.541 319.288L192.239 331.835C192.207 333.172 192.512 334.182 193.155 334.865C193.797 335.549 194.725 335.905 195.937 335.935C197.127 335.963 198.065 335.652 198.751 335C199.437 334.349 199.796 333.355 199.828 332.018L200.131 319.471C200.136 319.245 200.22 319.062 200.383 318.922C200.546 318.782 200.734 318.714 200.946 318.719L205.092 318.819C205.304 318.825 205.489 318.901 205.645 319.049C205.801 319.197 205.876 319.384 205.87 319.61L205.567 332.188C205.52 334.141 205.087 335.739 204.271 336.984C203.454 338.229 202.326 339.138 200.887 339.709C199.448 340.281 197.772 340.544 195.859 340.498ZM210.407 340.54C210.173 340.535 209.983 340.453 209.838 340.295C209.693 340.137 209.623 339.956 209.628 339.75L210.111 319.712C210.117 319.486 210.195 319.303 210.348 319.162C210.5 319.022 210.693 318.954 210.927 318.96L214.307 319.042C214.668 319.05 214.927 319.134 215.083 319.292C215.239 319.45 215.337 319.571 215.377 319.654L222.872 331.68L223.153 320.026C223.159 319.8 223.238 319.617 223.39 319.477C223.542 319.337 223.735 319.269 223.969 319.275L227.796 319.367C228.03 319.372 228.219 319.449 228.364 319.597C228.51 319.744 228.58 319.931 228.574 320.157L228.092 340.165C228.087 340.391 228.007 340.579 227.855 340.73C227.702 340.88 227.509 340.953 227.275 340.947L223.863 340.865C223.523 340.856 223.275 340.768 223.12 340.6C222.964 340.432 222.866 340.316 222.825 340.254L215.319 328.659L215.049 339.881C215.044 340.087 214.965 340.265 214.813 340.415C214.66 340.566 214.467 340.638 214.233 340.632L210.407 340.54ZM233.334 341.093C233.099 341.087 232.91 341.006 232.765 340.848C232.62 340.69 232.55 340.509 232.555 340.303L233.038 320.265C233.044 320.039 233.122 319.855 233.275 319.715C233.427 319.575 233.62 319.507 233.854 319.513L242.145 319.713C244.228 319.763 245.996 320.13 247.447 320.813C248.898 321.495 250.002 322.468 250.758 323.73C251.515 324.993 251.903 326.539 251.923 328.37C251.922 329.275 251.914 330.066 251.898 330.745C251.881 331.423 251.851 332.204 251.809 333.087C251.678 334.996 251.22 336.569 250.435 337.804C249.65 339.04 248.533 339.944 247.083 340.515C245.634 341.087 243.867 341.347 241.784 341.297L233.334 341.093ZM238.383 336.773L241.732 336.854C242.646 336.876 243.409 336.755 244.022 336.492C244.634 336.229 245.102 335.804 245.424 335.215C245.747 334.626 245.93 333.85 245.975 332.884C246.032 332.289 246.071 331.755 246.093 331.283C246.115 330.81 246.127 330.338 246.127 329.865C246.128 329.392 246.114 328.867 246.086 328.29C246.077 326.892 245.724 325.86 245.028 325.196C244.331 324.531 243.282 324.182 241.879 324.148L238.69 324.071L238.383 336.773ZM256.165 341.643C255.931 341.638 255.742 341.556 255.597 341.398C255.451 341.241 255.381 341.059 255.386 340.853L255.87 320.815C255.875 320.589 255.954 320.406 256.106 320.265C256.258 320.125 256.451 320.058 256.686 320.063L271.577 320.422C271.811 320.428 272 320.505 272.146 320.652C272.291 320.8 272.361 320.987 272.356 321.213L272.286 324.11C272.28 324.337 272.201 324.52 272.049 324.66C271.897 324.8 271.704 324.868 271.47 324.862L261.298 324.617L261.198 328.779L270.668 329.007C270.902 329.013 271.091 329.094 271.236 329.252C271.381 329.41 271.452 329.602 271.446 329.828L271.381 332.51C271.376 332.716 271.298 332.894 271.145 333.044C270.993 333.194 270.799 333.267 270.565 333.262L261.095 333.033L260.992 337.319L271.419 337.57C271.653 337.576 271.842 337.652 271.988 337.799C272.133 337.947 272.203 338.134 272.197 338.36L272.128 341.258C272.123 341.464 272.044 341.642 271.892 341.792C271.739 341.943 271.546 342.015 271.312 342.009L256.165 341.644L256.165 341.643ZM276.541 342.135C276.307 342.129 276.117 342.047 275.973 341.89C275.827 341.732 275.757 341.551 275.762 341.345L276.245 321.306C276.251 321.08 276.33 320.897 276.482 320.757C276.634 320.617 276.827 320.549 277.061 320.555L285.734 320.764C288.498 320.83 290.651 321.495 292.196 322.755C293.739 324.016 294.484 325.766 294.43 328.006C294.395 329.466 294.004 330.69 293.257 331.68C292.509 332.669 291.535 333.407 290.332 333.892L294.518 341.581C294.578 341.706 294.608 341.82 294.605 341.922C294.601 342.087 294.528 342.234 294.387 342.364C294.246 342.495 294.09 342.558 293.92 342.553L289.679 342.451C289.275 342.441 288.98 342.337 288.793 342.137C288.606 341.937 288.472 341.754 288.391 341.587L284.92 334.717L281.667 334.639L281.502 341.483C281.497 341.689 281.413 341.866 281.25 342.017C281.087 342.167 280.888 342.239 280.654 342.234L276.541 342.135ZM281.773 330.262L285.44 330.35C286.439 330.374 287.194 330.156 287.705 329.695C288.216 329.234 288.481 328.603 288.501 327.802C288.52 327 288.296 326.347 287.83 325.842C287.364 325.338 286.609 325.073 285.568 325.048L281.9 324.959L281.773 330.262Z" fill="#4D4D4D"/>
<path d="M125.344 367.302C125.131 367.297 124.948 367.213 124.792 367.049C124.637 366.885 124.562 366.696 124.567 366.483L125.069 345.683C125.074 345.448 125.159 345.258 125.321 345.113C125.484 344.967 125.671 344.897 125.884 344.902L129.322 344.985C129.683 344.994 129.946 345.091 130.112 345.276C130.277 345.462 130.38 345.608 130.42 345.716L135.78 355.931L141.626 345.986C141.693 345.881 141.807 345.74 141.971 345.562C142.135 345.385 142.396 345.3 142.758 345.309L146.164 345.391C146.397 345.397 146.592 345.476 146.748 345.629C146.903 345.782 146.978 345.977 146.973 346.211L146.471 367.011C146.466 367.225 146.382 367.409 146.219 367.565C146.056 367.721 145.857 367.797 145.624 367.791L141.835 367.7C141.602 367.694 141.408 367.609 141.252 367.446C141.097 367.282 141.022 367.093 141.027 366.88L141.316 354.88L137.589 361.482C137.478 361.672 137.336 361.839 137.163 361.984C136.989 362.129 136.754 362.198 136.457 362.191L134.802 362.151C134.504 362.144 134.273 362.064 134.107 361.91C133.94 361.757 133.807 361.583 133.705 361.388L130.269 354.613L129.979 366.613C129.974 366.827 129.895 367.012 129.743 367.168C129.59 367.324 129.397 367.4 129.164 367.394L125.344 367.302ZM149.636 367.888C149.465 367.884 149.313 367.811 149.179 367.669C149.044 367.527 148.979 367.37 148.983 367.2C148.985 367.093 148.998 366.997 149.022 366.912L156.999 346.549C157.068 346.316 157.206 346.111 157.412 345.935C157.618 345.759 157.901 345.674 158.262 345.683L162.974 345.796C163.335 345.805 163.614 345.903 163.811 346.089C164.008 346.275 164.136 346.487 164.194 346.722L171.149 367.446C171.189 367.532 171.208 367.629 171.206 367.736C171.201 367.906 171.129 368.059 170.987 368.194C170.846 368.33 170.68 368.395 170.489 368.391L166.573 368.296C166.255 368.288 166.018 368.203 165.862 368.039C165.707 367.875 165.61 367.728 165.57 367.599L164.407 364.306L155.907 364.101L154.618 367.335C154.572 367.462 154.473 367.604 154.321 367.761C154.169 367.917 153.912 367.991 153.551 367.982L149.636 367.888ZM157.323 359.524L163.245 359.667L160.488 351.147L157.323 359.524ZM174.5 368.487C174.266 368.482 174.077 368.397 173.933 368.233C173.788 368.07 173.718 367.882 173.723 367.668L174.225 346.868C174.23 346.634 174.309 346.443 174.461 346.297C174.613 346.152 174.806 346.081 175.04 346.087L179.306 346.19C179.539 346.196 179.734 346.275 179.89 346.428C180.045 346.582 180.12 346.776 180.115 347.01L179.613 367.81C179.608 368.024 179.524 368.208 179.361 368.364C179.198 368.52 178.999 368.596 178.766 368.59L174.5 368.487ZM184.815 368.736C184.581 368.73 184.392 368.646 184.248 368.482C184.103 368.319 184.033 368.13 184.038 367.917L184.54 347.117C184.545 346.882 184.624 346.692 184.777 346.546C184.928 346.401 185.121 346.33 185.355 346.336L188.73 346.417C189.09 346.426 189.349 346.512 189.504 346.676C189.659 346.84 189.757 346.965 189.798 347.052L197.27 359.527L197.561 347.431C197.567 347.197 197.646 347.006 197.798 346.86C197.95 346.715 198.142 346.644 198.376 346.65L202.197 346.742C202.43 346.748 202.619 346.827 202.764 346.98C202.909 347.133 202.979 347.327 202.974 347.562L202.473 368.329C202.467 368.564 202.388 368.76 202.236 368.916C202.083 369.073 201.89 369.148 201.657 369.142L198.25 369.06C197.91 369.052 197.663 368.961 197.508 368.786C197.353 368.612 197.255 368.492 197.214 368.427L189.732 356.4L189.451 368.048C189.446 368.262 189.366 368.446 189.214 368.603C189.062 368.759 188.869 368.835 188.636 368.829L184.815 368.737L184.815 368.736ZM212.609 369.406C212.375 369.4 212.186 369.316 212.041 369.152C211.897 368.989 211.827 368.8 211.832 368.587L212.231 352.011L206.564 351.874C206.331 351.868 206.142 351.784 205.997 351.62C205.852 351.456 205.782 351.268 205.788 351.055L205.87 347.631C205.876 347.396 205.955 347.206 206.107 347.06C206.259 346.915 206.452 346.844 206.686 346.85L223.814 347.263C224.047 347.268 224.237 347.348 224.382 347.501C224.526 347.654 224.597 347.848 224.591 348.082L224.508 351.506C224.503 351.719 224.424 351.904 224.272 352.061C224.119 352.217 223.926 352.293 223.693 352.287L218.026 352.15L217.626 368.726C217.621 368.94 217.542 369.125 217.39 369.281C217.237 369.438 217.044 369.513 216.811 369.507L212.609 369.406ZM227.763 369.771C227.529 369.766 227.34 369.681 227.195 369.518C227.05 369.354 226.981 369.166 226.986 368.952L227.487 348.152C227.493 347.918 227.572 347.727 227.724 347.582C227.876 347.436 228.069 347.366 228.303 347.371L243.171 347.73C243.404 347.735 243.593 347.815 243.738 347.968C243.883 348.121 243.953 348.315 243.947 348.549L243.875 351.557C243.869 351.792 243.79 351.982 243.638 352.128C243.486 352.273 243.293 352.344 243.06 352.338L232.904 352.093L232.799 356.413L242.255 356.641C242.488 356.647 242.677 356.731 242.822 356.895C242.967 357.059 243.037 357.258 243.031 357.493L242.964 360.276C242.959 360.49 242.88 360.675 242.727 360.831C242.575 360.987 242.382 361.063 242.149 361.057L232.693 360.829L232.586 365.277L242.997 365.528C243.23 365.534 243.419 365.613 243.564 365.766C243.709 365.919 243.779 366.113 243.773 366.347L243.701 369.356C243.696 369.569 243.617 369.754 243.464 369.91C243.312 370.067 243.119 370.142 242.885 370.137L227.763 369.772L227.763 369.771ZM248.107 370.262C247.873 370.256 247.684 370.172 247.539 370.008C247.394 369.845 247.325 369.656 247.33 369.442L247.831 348.643C247.837 348.408 247.916 348.218 248.068 348.072C248.22 347.927 248.413 347.856 248.647 347.862L252.021 347.943C252.382 347.952 252.64 348.038 252.796 348.202C252.951 348.366 253.049 348.491 253.089 348.577L260.561 361.053L260.853 348.957C260.859 348.722 260.937 348.532 261.09 348.386C261.241 348.241 261.434 348.17 261.668 348.176L265.489 348.268C265.722 348.274 265.911 348.353 266.056 348.506C266.201 348.659 266.271 348.853 266.265 349.087L265.765 369.855C265.759 370.09 265.68 370.286 265.527 370.442C265.375 370.598 265.182 370.674 264.948 370.668L261.542 370.586C261.202 370.578 260.955 370.487 260.8 370.312C260.645 370.138 260.547 370.018 260.506 369.953L253.023 357.926L252.742 369.574C252.737 369.788 252.658 369.972 252.506 370.129C252.354 370.285 252.161 370.36 251.927 370.355L248.107 370.263L248.107 370.262ZM268.928 370.764C268.758 370.76 268.606 370.687 268.471 370.545C268.337 370.403 268.271 370.247 268.275 370.076C268.278 369.969 268.291 369.874 268.315 369.789L276.291 349.425C276.361 349.192 276.498 348.988 276.705 348.811C276.911 348.635 277.194 348.55 277.555 348.559L282.266 348.673C282.627 348.681 282.906 348.779 283.104 348.965C283.301 349.152 283.429 349.363 283.486 349.599L290.441 370.322C290.482 370.409 290.5 370.505 290.498 370.612C290.494 370.783 290.421 370.935 290.28 371.071C290.138 371.206 289.972 371.271 289.782 371.267L285.865 371.172C285.547 371.165 285.31 371.079 285.155 370.915C284.999 370.751 284.902 370.605 284.863 370.475L283.7 367.182L275.199 366.977L273.911 370.211C273.865 370.338 273.766 370.48 273.614 370.637C273.462 370.793 273.205 370.867 272.844 370.858L268.928 370.764ZM276.616 362.4L282.538 362.543L279.78 354.023L276.616 362.4ZM293.793 371.363C293.558 371.358 293.369 371.273 293.225 371.11C293.08 370.946 293.011 370.758 293.016 370.544L293.517 349.744C293.523 349.51 293.602 349.319 293.754 349.174C293.906 349.028 294.099 348.958 294.333 348.963L297.707 349.045C298.068 349.053 298.326 349.14 298.481 349.304C298.637 349.467 298.734 349.593 298.775 349.679L306.247 362.154L306.539 350.058C306.544 349.824 306.623 349.634 306.775 349.488C306.927 349.342 307.12 349.272 307.354 349.277L311.174 349.37C311.408 349.375 311.597 349.455 311.742 349.608C311.887 349.76 311.957 349.954 311.951 350.189L311.45 370.957C311.445 371.192 311.365 371.387 311.213 371.544C311.061 371.7 310.868 371.775 310.634 371.77L307.228 371.688C306.888 371.679 306.641 371.588 306.486 371.414C306.331 371.24 306.232 371.119 306.192 371.055L298.709 359.027L298.428 370.675C298.423 370.889 298.344 371.074 298.192 371.23C298.039 371.387 297.846 371.462 297.613 371.456L293.793 371.364L293.793 371.363ZM325.017 372.436C323.022 372.388 321.311 372.016 319.883 371.32C318.455 370.624 317.36 369.626 316.595 368.327C315.829 367.028 315.427 365.428 315.388 363.527C315.388 362.652 315.4 361.713 315.425 360.71C315.449 359.708 315.482 358.748 315.525 357.831C315.655 355.977 316.139 354.409 316.977 353.127C317.815 351.846 318.963 350.891 320.423 350.264C321.882 349.638 323.599 349.348 325.573 349.396C326.973 349.43 328.263 349.637 329.444 350.018C330.624 350.398 331.652 350.935 332.527 351.629C333.402 352.323 334.078 353.15 334.554 354.111C335.029 355.073 335.264 356.151 335.256 357.346C335.273 357.539 335.211 357.698 335.07 357.822C334.928 357.947 334.762 358.007 334.571 358.002L330.274 357.898C329.998 357.892 329.787 357.828 329.641 357.707C329.495 357.587 329.373 357.365 329.275 357.042C329.005 355.904 328.541 355.119 327.882 354.687C327.224 354.255 326.406 354.028 325.43 354.004C324.262 353.976 323.331 354.279 322.637 354.913C321.941 355.548 321.544 356.621 321.444 358.134C321.338 359.882 321.295 361.674 321.314 363.51C321.342 365.027 321.687 366.118 322.35 366.785C323.014 367.452 323.929 367.8 325.097 367.828C326.073 367.851 326.906 367.658 327.596 367.248C328.285 366.837 328.781 366.081 329.084 364.978C329.176 364.66 329.304 364.445 329.466 364.331C329.628 364.218 329.847 364.164 330.123 364.171L334.421 364.274C334.612 364.279 334.774 364.347 334.91 364.478C335.045 364.61 335.099 364.771 335.073 364.963C335.023 366.157 334.737 367.223 334.216 368.16C333.694 369.097 332.979 369.891 332.071 370.541C331.164 371.192 330.111 371.679 328.915 372.002C327.717 372.325 326.418 372.47 325.017 372.436ZM339.033 372.454C338.799 372.448 338.61 372.364 338.466 372.2C338.321 372.037 338.251 371.848 338.256 371.635L338.758 350.835C338.763 350.6 338.842 350.41 338.995 350.264C339.146 350.119 339.339 350.048 339.573 350.054L354.441 350.412C354.674 350.418 354.863 350.497 355.008 350.65C355.153 350.803 355.223 350.997 355.218 351.232L355.145 354.24C355.139 354.474 355.06 354.665 354.908 354.81C354.756 354.956 354.563 355.026 354.33 355.021L344.174 354.776L344.07 359.096L353.525 359.324C353.759 359.33 353.948 359.414 354.093 359.578C354.237 359.741 354.307 359.941 354.301 360.175L354.234 362.959C354.229 363.173 354.15 363.358 353.998 363.514C353.845 363.67 353.652 363.746 353.419 363.74L343.963 363.512L343.856 367.96L354.267 368.211C354.5 368.217 354.689 368.296 354.835 368.449C354.979 368.602 355.049 368.796 355.043 369.03L354.971 372.038C354.966 372.252 354.887 372.437 354.735 372.593C354.582 372.75 354.389 372.825 354.156 372.819L339.033 372.455L339.033 372.454Z" fill="#4D4D4D"/>
</svg>
