<svg width="136" height="136" viewBox="0 0 136 136" fill="none" xmlns="http://www.w3.org/2000/svg">
<path d="M67.9996 13.5996C37.9436 13.5996 13.5996 37.9436 13.5996 67.9996C13.5996 98.0556 37.9436 122.4 67.9996 122.4C98.0556 122.4 122.4 98.0556 122.4 67.9996C122.4 37.9436 98.0556 13.5996 67.9996 13.5996ZM67.9996 116.96C40.9356 116.96 19.0396 95.0636 19.0396 67.9996C19.0396 40.9356 40.9356 19.0396 67.9996 19.0396C95.0636 19.0396 116.96 40.9356 116.96 67.9996C116.96 95.0636 95.0636 116.96 67.9996 116.96ZM34.1356 53.1756C34.8156 53.5836 35.4956 53.7196 36.1756 53.7196C37.5356 53.7196 38.8956 53.0396 39.7116 51.6796C40.2556 50.7276 40.3916 49.6396 40.1196 48.5516C39.8476 47.4636 39.1676 46.6476 38.2156 46.1036L34.8156 44.1996C37.3996 40.6636 40.5276 37.5356 44.0636 34.9516L45.9676 38.3516C46.5116 39.3036 47.3276 39.9836 48.4156 40.2556C48.8236 40.3916 49.0956 40.3916 49.5036 40.3916C50.1836 40.3916 50.8636 40.2556 51.5436 39.8476C53.4476 38.7596 54.1276 36.1756 53.0396 34.2716L51.1356 30.8716C55.0796 29.1036 59.2956 27.8796 63.7836 27.4716V31.2796C63.7836 33.5916 65.5516 35.3596 67.8636 35.3596C70.1756 35.3596 71.9436 33.5916 71.9436 31.2796V27.4716C76.2956 27.8796 80.6476 29.1036 84.5916 30.8716L82.6876 34.2716C81.5996 36.1756 82.2796 38.7596 84.1836 39.8476C84.8636 40.2556 85.5436 40.3916 86.2236 40.3916C86.6316 40.3916 86.9036 40.3916 87.3116 40.2556C88.3996 39.9836 89.2156 39.3036 89.7596 38.3516L91.6636 35.0876C92.0716 35.3596 92.3436 35.6316 92.7516 35.9036C93.2956 36.3116 94.2476 36.3116 94.6556 35.6316C95.0636 35.0876 95.0636 34.1356 94.3836 33.7276C86.9036 27.6076 77.6556 24.4796 67.9996 24.4796C44.0636 24.4796 24.4796 44.0636 24.4796 67.9996C24.4796 77.6556 27.6076 86.9036 33.5916 94.5196C33.8636 94.9276 34.2716 95.0636 34.6796 95.0636C34.9516 95.0636 35.2236 94.9276 35.4956 94.7916C36.0396 94.3836 36.1756 93.4316 35.7676 92.8876C35.4956 92.4796 35.2236 92.2076 34.9516 91.7996L38.2156 89.8956C39.1676 89.3516 39.8476 88.5356 40.1196 87.4476C40.3916 86.3596 40.2556 85.2716 39.7116 84.3196C38.6236 82.4156 36.0396 81.7356 34.1356 82.8236L30.7356 84.7276C28.9676 80.7836 27.7436 76.4316 27.3356 72.0796H31.2796C33.5916 72.0796 35.3596 70.3116 35.3596 67.9996C35.3596 65.6876 33.5916 63.9196 31.2796 63.9196H27.4716C27.8796 59.4316 29.1036 55.2156 30.8716 51.2716L34.1356 53.1756ZM50.8636 35.4956C51.2716 36.1756 50.9996 36.9916 50.3196 37.3996C49.6396 37.8076 48.8236 37.5356 48.4156 36.8556L46.3756 33.3196C47.1916 32.7756 47.8716 32.3676 48.6876 31.9596L50.8636 35.4956ZM87.5836 36.8556C87.4476 37.1276 87.1756 37.3996 86.7676 37.5356C86.3596 37.6716 86.0876 37.5356 85.6796 37.3996C84.9996 36.9916 84.8636 36.1756 85.1356 35.4956L87.1756 31.9596C87.9916 32.3676 88.8076 32.9116 89.4876 33.3196L87.5836 36.8556ZM69.3596 27.1996V31.2796C69.3596 32.0956 68.8156 32.6396 67.9996 32.6396C67.1836 32.6396 66.6396 32.0956 66.6396 31.2796V27.1996H67.9996H69.3596ZM36.8556 48.4156C37.1276 48.5516 37.3996 48.8236 37.5356 49.2316C37.6716 49.6396 37.5356 49.9116 37.3996 50.3196C36.9916 50.9996 36.1756 51.1356 35.4956 50.8636L31.9596 48.8236C32.3676 48.0076 32.9116 47.1916 33.3196 46.5116L36.8556 48.4156ZM35.4956 85.1356C36.1756 84.7276 36.9916 84.9996 37.3996 85.6796C37.8076 86.3596 37.5356 87.1756 36.8556 87.5836L33.3196 89.6236C32.7756 88.8076 32.3676 88.1276 31.9596 87.3116L35.4956 85.1356ZM31.2796 66.6396C32.0956 66.6396 32.6396 67.1836 32.6396 67.9996C32.6396 68.8156 32.0956 69.3596 31.2796 69.3596H27.1996V66.6396H31.2796ZM87.0396 72.0796C89.3516 72.0796 91.1196 70.3116 91.1196 67.9996C91.1196 65.6876 89.3516 63.9196 87.0396 63.9196H73.4396C73.0316 63.3756 72.6236 62.9676 72.0796 62.5596V42.1596C72.0796 39.8476 70.3116 38.0796 67.9996 38.0796C65.6876 38.0796 63.9196 39.8476 63.9196 42.1596V62.5596C62.2876 63.7836 61.1996 65.8236 61.1996 67.9996C61.1996 71.8076 64.1916 74.7996 67.9996 74.7996C70.1756 74.7996 72.2156 73.7116 73.4396 72.0796H87.0396ZM66.6396 42.1596C66.6396 41.3436 67.1836 40.7996 67.9996 40.7996C68.8156 40.7996 69.3596 41.3436 69.3596 42.1596V61.3356C68.9516 61.1996 68.4076 61.1996 67.9996 61.1996C67.5916 61.1996 67.0476 61.1996 66.6396 61.3356V42.1596ZM67.9996 72.0796C65.6876 72.0796 63.9196 70.3116 63.9196 67.9996C63.9196 65.6876 65.6876 63.9196 67.9996 63.9196C70.3116 63.9196 72.0796 65.6876 72.0796 67.9996C72.0796 70.3116 70.3116 72.0796 67.9996 72.0796ZM87.0396 66.6396C87.8556 66.6396 88.3996 67.1836 88.3996 67.9996C88.3996 68.8156 87.8556 69.3596 87.0396 69.3596H74.6636C74.7996 68.9516 74.7996 68.4076 74.7996 67.9996C74.7996 67.5916 74.7996 67.0476 74.6636 66.6396H87.0396ZM39.4396 97.9196C39.4396 98.7356 38.8956 99.2796 38.0796 99.2796C37.2636 99.2796 36.7196 98.7356 36.7196 97.9196C36.7196 97.1036 37.2636 96.5596 38.0796 96.5596C38.8956 96.5596 39.4396 97.1036 39.4396 97.9196ZM96.5596 38.0796C96.5596 37.2636 97.1036 36.7196 97.9196 36.7196C98.7356 36.7196 99.2796 37.2636 99.2796 38.0796C99.2796 38.8956 98.7356 39.4396 97.9196 39.4396C97.1036 39.4396 96.5596 38.8956 96.5596 38.0796ZM102.408 41.4796C102 40.9356 101.048 40.7996 100.504 41.2076C99.9596 41.6156 99.8236 42.5676 100.232 43.1116C100.504 43.5196 100.776 43.7916 101.048 44.1996L97.7836 46.1036C96.8316 46.6476 96.1516 47.4636 95.8796 48.5516C95.6076 49.6396 95.7436 50.7276 96.2876 51.6796C97.1036 53.0396 98.4636 53.7196 99.8236 53.7196C100.504 53.7196 101.184 53.5836 101.864 53.1756L105.264 51.2716C107.032 55.2156 108.256 59.5676 108.664 63.9196H104.72C102.408 63.9196 100.64 65.6876 100.64 67.9996C100.64 70.3116 102.408 72.0796 104.72 72.0796H108.528C108.12 76.5676 106.896 80.7836 105.128 84.7276L101.728 82.8236C99.8236 81.7356 97.2396 82.4156 96.1516 84.3196C95.6076 85.2716 95.4716 86.3596 95.7436 87.4476C96.0156 88.5356 96.6956 89.3516 97.6476 89.8956L101.048 91.7996C98.4636 95.3356 95.3356 98.4636 91.7996 101.048L89.8956 97.6476C89.3516 96.6956 88.5356 96.0156 87.4476 95.7436C86.3596 95.4716 85.2716 95.6076 84.3196 96.1516C82.4156 97.2396 81.7356 99.8236 82.8236 101.728L84.7276 105.128C80.7836 106.896 76.5676 108.12 72.0796 108.528V104.72C72.0796 102.408 70.3116 100.64 67.9996 100.64C65.6876 100.64 63.9196 102.408 63.9196 104.72V108.528C59.5676 108.12 55.2156 106.896 51.2716 105.128L53.1756 101.728C54.2636 99.8236 53.5836 97.2396 51.6796 96.1516C50.7276 95.6076 49.6396 95.4716 48.5516 95.7436C47.4636 96.0156 46.6476 96.6956 46.1036 97.6476L44.1996 100.912C43.7916 100.64 43.5196 100.368 43.1116 100.096C42.5676 99.6876 41.6156 99.6876 41.2076 100.368C40.7996 100.912 40.7996 101.864 41.4796 102.272C49.0956 108.392 58.3436 111.52 67.9996 111.52C91.9356 111.52 111.52 91.9356 111.52 67.9996C111.52 58.3436 108.392 49.0956 102.408 41.4796ZM85.1356 100.504C84.7276 99.8236 84.9996 99.0076 85.6796 98.5996C86.3596 98.1916 87.1756 98.4636 87.5836 99.1436L89.6236 102.68C88.8076 103.224 88.1276 103.632 87.3116 104.04L85.1356 100.504ZM48.4156 99.1436C48.5516 98.8716 48.8236 98.5996 49.2316 98.4636C49.6396 98.3276 49.9116 98.4636 50.3196 98.5996C50.9996 99.0076 51.1356 99.8236 50.8636 100.504L48.8236 104.04C48.0076 103.632 47.1916 103.088 46.5116 102.68L48.4156 99.1436ZM66.6396 108.8V104.72C66.6396 103.904 67.1836 103.36 67.9996 103.36C68.8156 103.36 69.3596 103.904 69.3596 104.72V108.8H66.6396ZM100.504 50.8636C99.8236 51.2716 99.0076 50.9996 98.5996 50.3196C98.1916 49.6396 98.4636 48.8236 99.1436 48.4156L102.68 46.3756C103.224 47.1916 103.632 47.8716 104.04 48.6876L100.504 50.8636ZM104.72 69.3596C103.904 69.3596 103.36 68.8156 103.36 67.9996C103.36 67.1836 103.904 66.6396 104.72 66.6396H108.8V69.3596H104.72ZM99.1436 87.5836C98.8716 87.4476 98.5996 87.1756 98.4636 86.7676C98.3276 86.3596 98.4636 86.0876 98.5996 85.6796C99.0076 84.9996 99.8236 84.8636 100.504 85.1356L104.04 87.1756C103.632 87.9916 103.088 88.8076 102.68 89.4876L99.1436 87.5836Z" fill="#CDD7E0"/>
</svg>
