<svg width="213" height="63" viewBox="0 0 213 63" fill="none" xmlns="http://www.w3.org/2000/svg">
<g clip-path="url(#clip0_2279_7805)">
<path fill-rule="evenodd" clip-rule="evenodd" d="M42.8205 24.9487V39.2012L49.4108 43.124V24.9487C49.4108 20.8855 47.4482 17.3986 44.0194 15.3677L35.4105 10.2683L27.9991 5.87889V13.6844L40.7249 21.2224C42.1142 22.046 42.8205 23.3042 42.8205 24.9487ZM33.3905 1.5229L41.9995 6.62227L50.6084 11.7216C54.0372 13.7526 55.9998 17.2395 55.9998 21.3013V41.6988C55.9998 45.7606 54.0372 49.2475 50.6084 51.2785L41.9995 56.3778L33.3905 61.4772C29.9618 63.5081 26.0365 63.5081 22.6078 61.4772L16.3759 57.7857C15.4097 57.2314 14.6074 56.4196 14.0538 55.4361C13.5003 54.4526 13.2161 53.3339 13.2312 52.1983V48.1178L25.901 55.6224C27.2915 56.4447 28.7055 56.4447 30.0947 55.6224L33.2354 53.7626C34.1563 53.2351 34.9211 52.4619 35.4487 51.5249C35.9764 50.5879 36.2473 49.522 36.2328 48.44V29.7338C36.2461 28.7067 35.9886 27.695 35.4876 26.8056C34.9866 25.9163 34.2607 25.1823 33.3866 24.6813L18.186 15.6738C17.2348 15.0923 16.148 14.7853 15.0407 14.7853C13.9334 14.7853 12.8467 15.0923 11.8954 15.6738L8.68696 17.5764C7.29644 18.3987 6.5901 19.6555 6.5901 21.3013V51.9884L5.39245 51.2785C1.96372 49.2475 0.00109863 45.7606 0.00109863 41.6988V21.3013C0.00109863 17.2395 1.96372 13.7526 5.39245 11.7216L14.0014 6.62227L22.6091 1.5229C26.0365 -0.50802 29.9618 -0.50802 33.3905 1.5229Z" fill="white"/>
<path fill-rule="evenodd" clip-rule="evenodd" d="M14.4395 41.0289L24.9955 47.2848H25.0046C26.674 48.1779 29.5841 46.3916 29.5841 44.4476V31.5374C29.5651 31.1222 29.4447 30.7186 29.2338 30.3637C29.0229 30.0088 28.7283 29.714 28.3773 29.5065L17.8213 23.252H17.8122C16.1402 22.3669 13.2314 24.1331 13.2314 26.0798V39.018C13.2524 39.4292 13.3738 39.8283 13.5845 40.1788C13.7951 40.5292 14.0882 40.8197 14.4369 41.0235" fill="#FF6600"/>
<g clip-path="url(#clip1_2279_7805)">
<path fill-rule="evenodd" clip-rule="evenodd" d="M42.8205 24.9487V39.2012L49.4108 43.124V24.9487C49.4108 20.8855 47.4482 17.3986 44.0194 15.3677L35.4105 10.2683L27.9991 5.87889V13.6844L40.7249 21.2224C42.1142 22.046 42.8205 23.3042 42.8205 24.9487ZM33.3905 1.5229L41.9995 6.62227L50.6084 11.7216C54.0372 13.7526 55.9998 17.2395 55.9998 21.3013V41.6988C55.9998 45.7606 54.0372 49.2475 50.6084 51.2785L41.9995 56.3778L33.3905 61.4772C29.9618 63.5081 26.0365 63.5081 22.6078 61.4772L16.3759 57.7857C15.4097 57.2314 14.6074 56.4197 14.0538 55.4361C13.5003 54.4526 13.2161 53.3339 13.2312 52.1983V48.1178L25.901 55.6224C27.2915 56.4447 28.7055 56.4447 30.0947 55.6224L33.2354 53.7626C34.1563 53.2351 34.9211 52.4619 35.4487 51.5249C35.9764 50.5879 36.2473 49.522 36.2328 48.44V29.7339C36.2461 28.7067 35.9886 27.695 35.4876 26.8056C34.9866 25.9163 34.2607 25.1823 33.3866 24.6813L18.186 15.6738C17.2348 15.0923 16.148 14.7853 15.0407 14.7853C13.9334 14.7853 12.8467 15.0923 11.8954 15.6738L8.68696 17.5764C7.29644 18.3987 6.5901 19.6555 6.5901 21.3013V51.9884L5.39246 51.2785C1.96372 49.2475 0.00109863 45.7606 0.00109863 41.6988V21.3013C0.00109863 17.2395 1.96372 13.7526 5.39246 11.7216L14.0014 6.62227L22.6091 1.5229C26.0365 -0.50802 29.9618 -0.50802 33.3905 1.5229Z" fill="url(#paint0_linear_2279_7805)"/>
<path fill-rule="evenodd" clip-rule="evenodd" d="M14.4395 41.0289L24.9955 47.2848H25.0046C26.674 48.1779 29.5841 46.3916 29.5841 44.4476V31.5374C29.5651 31.1222 29.4447 30.7186 29.2338 30.3637C29.0229 30.0088 28.7283 29.714 28.3773 29.5065L17.8213 23.252H17.8122C16.1402 22.3669 13.2314 24.1331 13.2314 26.0798V39.018C13.2524 39.4292 13.3738 39.8283 13.5845 40.1788C13.7951 40.5292 14.0882 40.8197 14.4369 41.0235" fill="#FFF6F7"/>
</g>
</g>
<path d="M66.5284 46V16.9091H78.0057C80.2121 16.9091 82.0919 17.3305 83.6449 18.1733C85.1979 19.0066 86.3816 20.1667 87.196 21.6534C88.0199 23.1307 88.4318 24.8352 88.4318 26.767C88.4318 28.6989 88.0152 30.4034 87.1818 31.8807C86.3485 33.358 85.1411 34.5085 83.5597 35.3324C81.9877 36.1562 80.0843 36.5682 77.8494 36.5682H70.5341V31.6392H76.8551C78.0388 31.6392 79.0142 31.4356 79.7812 31.0284C80.5578 30.6117 81.1354 30.0388 81.5142 29.3097C81.9025 28.571 82.0966 27.7235 82.0966 26.767C82.0966 25.8011 81.9025 24.9583 81.5142 24.2386C81.1354 23.5095 80.5578 22.946 79.7812 22.5483C79.0047 22.1411 78.0199 21.9375 76.8267 21.9375H72.679V46H66.5284ZM119.16 31.4545C119.16 34.6269 118.558 37.3258 117.356 39.5511C116.163 41.7765 114.534 43.4763 112.469 44.6506C110.415 45.8153 108.104 46.3977 105.538 46.3977C102.952 46.3977 100.632 45.8106 98.5774 44.6364C96.5225 43.4621 94.8984 41.7623 93.7053 39.5369C92.5121 37.3116 91.9155 34.6174 91.9155 31.4545C91.9155 28.2822 92.5121 25.5833 93.7053 23.358C94.8984 21.1326 96.5225 19.4375 98.5774 18.2727C100.632 17.0985 102.952 16.5114 105.538 16.5114C108.104 16.5114 110.415 17.0985 112.469 18.2727C114.534 19.4375 116.163 21.1326 117.356 23.358C118.558 25.5833 119.16 28.2822 119.16 31.4545ZM112.924 31.4545C112.924 29.3996 112.616 27.6667 112.001 26.2557C111.395 24.8447 110.538 23.7746 109.43 23.0455C108.322 22.3163 107.024 21.9517 105.538 21.9517C104.051 21.9517 102.754 22.3163 101.646 23.0455C100.538 23.7746 99.6759 24.8447 99.0604 26.2557C98.4543 27.6667 98.1513 29.3996 98.1513 31.4545C98.1513 33.5095 98.4543 35.2424 99.0604 36.6534C99.6759 38.0644 100.538 39.1345 101.646 39.8636C102.754 40.5928 104.051 40.9574 105.538 40.9574C107.024 40.9574 108.322 40.5928 109.43 39.8636C110.538 39.1345 111.395 38.0644 112.001 36.6534C112.616 35.2424 112.924 33.5095 112.924 31.4545ZM139.497 25.2756C139.384 24.1297 138.896 23.2396 138.034 22.6051C137.172 21.9706 136.003 21.6534 134.526 21.6534C133.522 21.6534 132.674 21.7955 131.983 22.0795C131.292 22.3542 130.761 22.7377 130.392 23.2301C130.032 23.7225 129.852 24.2812 129.852 24.9062C129.833 25.4271 129.942 25.8816 130.179 26.2699C130.425 26.6581 130.761 26.9943 131.188 27.2784C131.614 27.553 132.106 27.7945 132.665 28.0028C133.223 28.2017 133.82 28.3722 134.455 28.5142L137.068 29.1392C138.337 29.4233 139.502 29.8021 140.562 30.2756C141.623 30.7491 142.542 31.3314 143.318 32.0227C144.095 32.714 144.696 33.5284 145.122 34.4659C145.558 35.4034 145.78 36.4782 145.79 37.6903C145.78 39.4706 145.326 41.0142 144.426 42.321C143.536 43.6184 142.248 44.6269 140.562 45.3466C138.886 46.0568 136.865 46.4119 134.497 46.4119C132.149 46.4119 130.103 46.0521 128.361 45.3324C126.628 44.6127 125.274 43.5473 124.298 42.1364C123.332 40.7159 122.826 38.9593 122.778 36.8665H128.73C128.796 37.8419 129.076 38.6562 129.568 39.3097C130.07 39.9536 130.738 40.4413 131.571 40.7727C132.414 41.0947 133.366 41.2557 134.426 41.2557C135.468 41.2557 136.372 41.1042 137.139 40.8011C137.916 40.4981 138.517 40.0767 138.943 39.5369C139.369 38.9972 139.582 38.3769 139.582 37.6761C139.582 37.0227 139.388 36.4735 139 36.0284C138.621 35.5833 138.063 35.2045 137.324 34.892C136.595 34.5795 135.7 34.2955 134.639 34.0398L131.472 33.2443C129.019 32.6477 127.082 31.715 125.662 30.446C124.241 29.1771 123.536 27.4678 123.545 25.3182C123.536 23.5568 124.005 22.018 124.952 20.7017C125.908 19.3854 127.22 18.358 128.886 17.6193C130.553 16.8807 132.447 16.5114 134.568 16.5114C136.727 16.5114 138.612 16.8807 140.222 17.6193C141.841 18.358 143.1 19.3854 144 20.7017C144.9 22.018 145.364 23.5426 145.392 25.2756H139.497ZM149.813 54.1818V24.1818H155.779V27.8466H156.049C156.314 27.2595 156.698 26.6629 157.2 26.0568C157.711 25.4413 158.374 24.9299 159.188 24.5227C160.012 24.1061 161.035 23.8977 162.256 23.8977C163.847 23.8977 165.315 24.3144 166.66 25.1477C168.004 25.9716 169.079 27.2169 169.884 28.8835C170.689 30.5407 171.092 32.6193 171.092 35.1193C171.092 37.553 170.699 39.608 169.913 41.2841C169.136 42.9508 168.076 44.215 166.731 45.0767C165.396 45.929 163.899 46.3551 162.242 46.3551C161.068 46.3551 160.069 46.161 159.245 45.7727C158.431 45.3845 157.763 44.8968 157.242 44.3097C156.721 43.7131 156.324 43.1117 156.049 42.5057H155.864V54.1818H149.813ZM155.737 35.0909C155.737 36.3883 155.916 37.5199 156.276 38.4858C156.636 39.4517 157.157 40.2045 157.839 40.7443C158.521 41.2746 159.349 41.5398 160.325 41.5398C161.309 41.5398 162.143 41.2699 162.825 40.7301C163.506 40.1809 164.022 39.4233 164.373 38.4574C164.733 37.482 164.913 36.3598 164.913 35.0909C164.913 33.8314 164.737 32.7235 164.387 31.767C164.037 30.8106 163.521 30.0625 162.839 29.5227C162.157 28.983 161.319 28.7131 160.325 28.7131C159.34 28.7131 158.506 28.9735 157.825 29.4943C157.152 30.0152 156.636 30.7538 156.276 31.7102C155.916 32.6667 155.737 33.7936 155.737 35.0909ZM175.126 46V24.1818H180.992V27.9886H181.219C181.617 26.6345 182.285 25.6117 183.222 24.9205C184.16 24.2197 185.239 23.8693 186.461 23.8693C186.764 23.8693 187.091 23.8883 187.441 23.9261C187.791 23.964 188.099 24.0161 188.364 24.0824V29.4517C188.08 29.3665 187.687 29.2907 187.185 29.2244C186.683 29.1581 186.224 29.125 185.808 29.125C184.917 29.125 184.122 29.3191 183.421 29.7074C182.73 30.0862 182.181 30.6165 181.773 31.2983C181.376 31.9801 181.177 32.7661 181.177 33.6562V46H175.126ZM200.335 46.4261C198.129 46.4261 196.221 45.9574 194.611 45.0199C193.01 44.0729 191.775 42.7566 190.903 41.071C190.032 39.3759 189.597 37.411 189.597 35.1761C189.597 32.9223 190.032 30.9527 190.903 29.267C191.775 27.572 193.01 26.2557 194.611 25.3182C196.221 24.3712 198.129 23.8977 200.335 23.8977C202.542 23.8977 204.445 24.3712 206.045 25.3182C207.655 26.2557 208.896 27.572 209.767 29.267C210.638 30.9527 211.074 32.9223 211.074 35.1761C211.074 37.411 210.638 39.3759 209.767 41.071C208.896 42.7566 207.655 44.0729 206.045 45.0199C204.445 45.9574 202.542 46.4261 200.335 46.4261ZM200.364 41.7386C201.367 41.7386 202.205 41.4545 202.878 40.8864C203.55 40.3087 204.057 39.5227 204.398 38.5284C204.748 37.5341 204.923 36.4025 204.923 35.1335C204.923 33.8646 204.748 32.733 204.398 31.7386C204.057 30.7443 203.55 29.9583 202.878 29.3807C202.205 28.803 201.367 28.5142 200.364 28.5142C199.35 28.5142 198.498 28.803 197.807 29.3807C197.125 29.9583 196.609 30.7443 196.259 31.7386C195.918 32.733 195.747 33.8646 195.747 35.1335C195.747 36.4025 195.918 37.5341 196.259 38.5284C196.609 39.5227 197.125 40.3087 197.807 40.8864C198.498 41.4545 199.35 41.7386 200.364 41.7386Z" fill="white"/>
<defs>
<linearGradient id="paint0_linear_2279_7805" x1="28.0004" y1="-0.000289917" x2="28.0004" y2="63.0004" gradientUnits="userSpaceOnUse">
<stop stop-color="#FFF7F7"/>
<stop offset="0.71" stop-color="#FFF5F6"/>
<stop offset="0.95" stop-color="#FFF7F7" stop-opacity="0.1"/>
</linearGradient>
<clipPath id="clip0_2279_7805">
<rect width="56" height="63" fill="white"/>
</clipPath>
<clipPath id="clip1_2279_7805">
<rect width="56" height="63" fill="white"/>
</clipPath>
</defs>
</svg>
