<svg width="334" height="446" viewBox="0 0 334 446" fill="none" xmlns="http://www.w3.org/2000/svg">
<path d="M216.003 35.3476C215.035 34.5255 213.784 34.2973 213.57 33.1837C213.185 31.1848 210.551 33.4889 210.056 39.9421C209.869 42.381 210.854 51.9962 211.885 54.9712C215.481 65.3536 214.34 65.3756 214.923 65.3536C215.36 65.3371 217.719 73.2888 217.584 65.7C217.202 43.7998 219.044 37.9295 216.003 35.3476Z" fill="#1E2F47"/>
<path d="M232.784 366.433C210.247 338.154 206.29 341.662 192.551 369.81C186.646 381.905 226.023 426.329 185.884 399.598C177.201 393.816 173.687 415.386 173.047 445.997H233.84C236.256 391.187 243.1 379.375 232.784 366.433Z" fill="#121251"/>
<path d="M182.81 165.119C167.443 189.752 152.646 240.985 155.684 247.017C160.82 257.215 177.476 263.443 185.818 258.156C194.228 252.824 188.509 239.39 188.438 185.435C188.424 172.1 188.097 156.645 182.81 165.119Z" fill="#E4EBEF"/>
<path d="M300.931 378.127C278.017 350.151 205.885 357.863 192.52 386.192C187.019 397.853 195.275 404.969 208.649 446H303.499C305.643 401.037 310.628 389.967 300.931 378.127Z" fill="#191960"/>
<path d="M300.931 378.127C294.459 370.225 284.061 365.171 272.17 362.625C271.273 380.838 270.322 411.149 271.785 446H307.063C308.338 399.538 310.799 390.176 300.931 378.127Z" fill="#121251"/>
<path d="M215.311 59.0876C214.984 58.6779 213.332 56.6158 211.528 56.8962C209.513 57.2097 208.539 60.2617 208.341 60.8776C207.516 63.4567 208.311 66.8139 209.933 73.4211C210.469 75.6042 210.684 76.2504 210.929 77.8011C211.476 81.2491 211.049 82.0382 211.726 83.3772C213.004 85.9123 216.815 87.6116 218.297 86.564C219.969 85.3789 217.208 81.733 216.705 73.6218C216.246 66.2282 218.127 62.5988 215.311 59.0876Z" fill="#F8C39D"/>
<path d="M283.362 67.7406C284.594 62.8217 255.966 106.328 238.607 104.09C229.404 102.902 223.988 92.275 221.084 94.1337C218.978 95.4837 224.329 105.962 225.723 116.435C226.251 120.395 225.231 128.624 221.882 140.728C217.777 155.564 208.99 158.938 210.733 162.631C215.668 173.09 289.84 153.752 289.581 135.949C289.51 131.17 270.464 119.221 283.362 67.7406Z" fill="#F8C39D"/>
<path d="M238.606 104.087C229.404 102.899 223.988 92.2717 221.084 94.1304C219.135 95.3787 223.567 104.439 225.343 114.079C227.218 116.589 229.775 119.033 233.248 120.812C234.925 121.67 240.174 124.095 246.643 123.141C256.788 121.648 262.856 112.893 267.316 106.253C275.564 93.9737 279.336 80.8088 281.003 69.6621C273.904 77.9878 252.598 105.893 238.606 104.087Z" fill="#F8C39D"/>
<path d="M279.425 121.211C273.266 119.77 268.936 125.932 251.947 139.133C237.667 150.23 231.079 153.373 225.069 151.676C221.855 150.772 223.425 137.659 220.29 137.61C219.229 137.593 214.723 139.339 209.026 142.449C203.895 165.589 200.371 184.162 198.025 197.465C198.025 197.465 196.211 207.751 193.544 231.584C190.8 256.127 191.391 260.072 192.854 260.534C195.35 261.323 200.241 251.92 205.606 241.922C218.36 218.141 229.012 198.287 239.38 182.645C254.562 159.741 270.446 143.898 277.979 136.463C281.16 133.323 284.215 130.441 287.093 127.821C281.531 122.575 281.57 121.714 279.425 121.211Z" fill="#15B0ED"/>
<path d="M312.278 375.685C312.54 360.986 313.191 349.74 313.472 345.22C314.758 324.494 330.471 237.264 331.81 213.818C332.817 196.191 339.77 179.292 315.531 153.774C308.316 146.179 297.613 137.444 288.982 129.575C288.287 128.942 287.66 128.359 287.091 127.823C284.212 130.444 281.158 133.325 277.976 136.465C270.443 143.9 254.559 159.743 239.377 182.647C229.009 198.289 218.36 218.144 205.603 241.924C200.242 251.922 195.35 261.323 192.851 260.536C191.388 260.074 190.795 256.129 193.541 231.586C196.205 207.753 198.023 197.467 198.023 197.467C200.371 184.164 203.896 165.588 209.023 142.451C198.652 148.112 184.77 158.462 179.69 170.571C161.494 213.931 174.265 280.658 167.229 347.013C165.302 365.19 161.92 405.372 158.926 446H315.52C313.411 420.544 311.929 395.196 312.278 375.685Z" fill="#F7F7F7"/>
<path d="M221.522 167.442C220.219 166.928 218.608 167.91 217.928 169.636C217.247 171.363 217.752 173.181 219.058 173.695C220.362 174.209 221.973 173.227 222.652 171.501C223.331 169.774 222.825 167.956 221.522 167.442Z" fill="#191960"/>
<path d="M212.792 189.576C211.489 189.062 209.878 190.044 209.199 191.77C208.517 193.497 209.023 195.312 210.329 195.829C211.632 196.343 213.243 195.361 213.923 193.634C214.602 191.908 214.096 190.09 212.792 189.576Z" fill="#191960"/>
<path d="M258.664 14.0877C247.199 11.2391 232.583 13.3645 224.181 22.4518C219.559 27.4505 218.303 32.9551 215.971 43.1588C214.027 51.6686 213.978 58.3418 213.917 66.2578C213.857 74.171 214.462 78.6996 215.559 86.9648C216.326 92.7278 221.781 106.547 229.515 111.257C233.358 113.597 237.219 114.232 240.598 114.444C242.957 114.592 248.062 114.854 253.735 112.453C258.359 110.495 260.952 107.79 265.64 102.896C267.358 101.103 270.932 97.3361 274.259 92.1422C282.719 78.9415 283.915 65.3697 284.523 57.495C285.452 45.3996 285.919 39.3506 282.469 32.4052C275.587 18.5392 260.374 14.5111 258.664 14.0877Z" fill="#F8C39D"/>
<path d="M279.425 121.211C273.266 119.77 268.936 125.932 251.947 139.133C237.667 150.23 231.079 153.373 225.069 151.676C221.855 150.772 220.37 138.261 217.236 138.212C216.128 138.192 210.164 150.78 204.759 155.262C207.618 154.209 214.602 150.29 215.779 151.096C219.243 153.469 218.828 162.743 218.828 162.743C218.828 162.743 225.08 159.455 231.5 158.085C237.573 156.788 242.937 159.172 244.312 159.831C249.951 162.548 250.193 166.032 253.047 166.238C258.62 166.637 262.371 153.667 268.48 144.107C271.944 138.687 277.338 132.539 286.178 126.952C281.531 122.479 281.443 121.684 279.425 121.211Z" fill="#1A90E8"/>
<path d="M284.8 116.732C284.286 115.118 284.361 114.299 283.607 112.253C282.843 110.18 282.461 109.144 281.815 108.668C278.29 106.081 250.045 135.374 241.258 145.419C237.513 149.702 228.836 150.222 225.723 150.222C222.416 150.222 223.59 153.563 223.724 154.363C224.115 156.689 237.373 149.889 246.572 156.156C250.589 158.891 250.443 160.47 252.547 160.635C259.332 161.171 260.44 147.676 274.878 136.807C280.916 132.262 288.523 125.712 287.789 122.105C287.489 120.645 285.867 120.073 284.8 116.732Z" fill="#31D2F7"/>
<path d="M224.882 127.816C225.209 124.329 216.122 135.74 214.019 138.833C208.685 146.683 204.173 154.885 204.762 155.259C205.562 155.77 216.694 140.007 217.008 142.267C217.756 147.643 221.819 154.819 223.727 154.363C225.484 153.942 226.276 150.904 225.726 150.222C220.659 143.917 224.241 134.621 224.882 127.816Z" fill="#31D2F7"/>
<path d="M222.817 153.887C222.361 153.645 221.8 153.802 221.533 154.242C218.696 158.954 215.039 165.416 212.597 170.142C205.122 184.611 202.213 202.7 202.185 202.881L202.004 204.031L203.161 204.138C203.205 204.141 207.228 204.517 211.204 204.809C211.806 204.853 212.331 204.399 212.372 203.794C212.413 203.195 211.962 202.675 211.363 202.631C208.707 202.436 206.026 202.205 204.542 202.07C205.306 197.902 208.3 183.214 214.536 171.146C216.942 166.491 220.406 159.928 223.197 155.24C223.482 154.761 223.309 154.145 222.817 153.887Z" fill="#198BD8"/>
<path d="M259.785 297.947C257.492 296.71 255.697 295.863 254.429 295.42C253.932 295.247 253.393 295.538 253.28 296.053C253.184 296.482 253.42 296.919 253.836 297.062C254.993 297.466 256.766 298.302 258.952 299.484C262.395 301.343 264.646 303.952 266.013 306.031C266.271 306.424 266.788 306.542 267.192 306.3C267.621 306.042 267.742 305.478 267.464 305.06C265.488 302.049 262.848 299.6 259.785 297.947Z" fill="#C36252"/>
<path d="M246.454 75.8678L246.39 75.9063C246.006 76.1427 245.849 76.6432 246.006 77.0831C246.193 77.6165 246.3 78.2489 245.967 78.6146C245.434 79.2058 243.666 79.6154 241.329 79.2525C239.137 78.9143 237.68 78.0839 237.375 77.4405C237.35 77.3883 237.298 77.2783 237.317 77.0748C237.353 76.6899 237.196 76.316 236.883 76.1345L236.803 76.0878C236.27 75.7798 235.602 76.1372 235.514 76.7861C235.426 77.446 235.571 77.974 235.747 78.3479C236.712 80.3798 240.05 81.0425 241.051 81.1964C241.279 81.2322 241.628 81.2789 242.049 81.3119C243.561 81.4301 246.017 81.3669 247.273 79.9784C248.084 79.082 248.233 77.8172 247.716 76.3545C247.518 75.8128 246.927 75.5791 246.454 75.8678Z" fill="#C36252"/>
<path d="M235.894 54.4982C233.337 53.3434 229.809 52.3783 225.69 52.9227C224.297 53.1069 222.922 53.4561 221.583 53.962C220.741 54.281 220.324 55.3066 220.681 56.1782C220.997 56.9563 221.817 57.333 222.567 57.047C223.697 56.6209 224.857 56.3266 226.031 56.1699C229.518 55.708 232.52 56.5329 234.703 57.52C235.434 57.8499 236.281 57.5145 236.65 56.7528C237.062 55.9005 236.713 54.8666 235.894 54.4982Z" fill="#1C2546"/>
<path d="M229.655 59.2225C228.176 59.107 226.842 60.765 226.675 62.9261C226.507 65.0845 227.571 66.9295 229.05 67.0422C230.529 67.1577 231.863 65.4997 232.031 63.3386C232.198 61.1802 231.134 59.338 229.655 59.2225Z" fill="#1E2F47"/>
<path d="M264.336 57.2751C263.091 56.5684 261.787 56.013 260.437 55.6143C256.453 54.4403 252.819 54.8527 250.113 55.5978C249.25 55.8371 248.744 56.8049 249.022 57.7123C249.269 58.5234 250.055 58.9853 250.828 58.7708C253.135 58.1329 256.231 57.7782 259.604 58.7708C260.74 59.1063 261.84 59.5737 262.89 60.1704C263.585 60.5663 264.454 60.3216 264.886 59.6012C265.373 58.7956 265.12 57.7178 264.336 57.2751Z" fill="#1C2546"/>
<path d="M256.292 61.284C254.813 61.1685 253.476 62.8265 253.311 64.9877C253.144 67.1461 254.208 68.991 255.687 69.1038C257.166 69.2192 258.502 67.5613 258.667 65.4001C258.835 63.2417 257.771 61.3995 256.292 61.284Z" fill="#1E2F47"/>
<path d="M238.478 89.9098C232.27 89.3077 229.18 87.3582 228.861 88.0704C228.391 89.1124 234.164 95.2577 241.324 95.1697C247.521 95.0927 252.74 90.3717 252.357 89.2362C252.003 88.1693 246.919 90.7264 238.478 89.9098Z" fill="#C36252"/>
<path d="M279.48 14.5307C277.575 12.5868 276.357 11.179 275.966 10.7446C272.123 6.49923 262.799 2.46562 252.986 1.28331C246.85 0.543681 234.299 -2.55232 223.636 4.75601C218.126 8.53115 214.046 13.8543 211.588 17.7422C205.891 26.758 207.475 34.6107 208.38 36.9699C208.877 38.2704 209.606 39.5242 209.606 39.5242C210.114 40.4013 210.824 41.4571 211.896 42.6477C214.448 45.4907 221.208 51.2291 222.41 49.7911C226.661 44.7044 227.287 41.1492 248.95 39.5352C262.387 38.5344 269.736 33.5137 272.035 34.6245C282.284 39.5737 281.79 71.8755 281.79 71.8755L287.836 68.983C287.836 68.983 298.399 37.9817 285.971 20.7475C284.641 18.908 283.546 18.6743 279.48 14.5307Z" fill="#1E2F47"/>
<path d="M287.091 127.823C284.212 130.444 281.157 133.325 277.976 136.465C270.443 143.9 254.559 159.743 239.377 182.647C229.009 198.289 218.36 218.144 205.603 241.924C200.242 251.922 195.35 261.323 192.851 260.536C191.388 260.074 190.794 256.129 193.541 231.586C196.205 207.753 198.023 197.467 198.023 197.467C200.371 184.164 203.764 160.529 208.894 137.389C199.057 141.216 189.546 160.892 190.44 162.314C192.725 165.943 198.911 166.515 198.71 168.173C198.487 170.032 183.891 170.931 183.891 170.931L188.026 273.632L265.571 195.966C265.571 195.966 248.821 181.429 249.558 180.279C250.182 179.303 264.71 185.058 264.71 185.058C264.71 185.058 288.322 164.827 295.996 135.813C293.153 133.322 291.603 131.959 288.982 129.572C288.287 128.942 287.66 128.359 287.091 127.823Z" fill="#CBEAE7"/>
<path d="M288.881 120.631C288.4 119.71 287.171 119.512 286.423 120.232C272.505 133.664 254.172 156.21 239.724 176.788C209.282 220.14 194.234 256.399 194.234 256.399C194.234 256.399 194.506 227.377 216.001 134.827C216.073 134.522 215.803 134.236 215.498 134.307C202.048 137.412 193.2 159.727 193.2 159.727C193.2 159.727 203.467 166.309 203.021 169.032C202.579 171.732 189.582 173.167 189.582 173.167L191.133 266.22L256.784 194.363C256.784 194.363 242.77 179.892 244.378 177.302C245.805 175.004 262.989 180.577 262.989 180.577C262.989 180.577 281.669 167.632 294.215 135.286C294.715 133.999 294.655 132.561 294.041 131.327C292.669 128.583 290.319 123.386 288.881 120.631Z" fill="white"/>
<path d="M188.457 357.36C189.738 327.184 191.064 295.982 191.696 268.458L188.078 268.376C187.445 295.866 186.123 327.049 184.842 357.206C184.02 376.524 183.247 394.771 182.645 411.988C182.263 422.995 181.63 434.411 180.863 446H184.49C185.251 434.46 185.878 423.088 186.26 412.115C186.863 394.911 187.638 376.67 188.457 357.36Z" fill="#B4DDD9"/>
<path d="M284.671 380.316C277.217 379.202 245.593 379.672 238.766 381.866C236.732 382.521 237.977 384.151 238.665 401.608C239.008 410.338 241.315 432.585 243.55 434.999C245.296 436.882 283.843 435.876 285.562 434.479C288.198 432.335 288.732 380.921 284.671 380.316Z" fill="white"/>
<path d="M319.435 209.626C304.346 244.785 312.526 266.311 297.596 295.234C289.334 311.241 278.765 320.271 266.151 331.049C238.976 354.269 204.201 356.235 167.982 369.543C167.449 377.25 173.357 373.379 172.934 379.956C189.579 377.63 238.563 369.708 283.75 347.173C308.547 334.805 325.871 234.265 327.21 210.817C327.535 205.15 327.81 199.26 327.705 193.393C324.884 198.141 322.039 203.558 319.435 209.626Z" fill="#CBEAE7"/>
<path d="M284.976 392.26C277.299 391.559 269.529 391.336 261.853 391.597C254.449 391.85 246.995 392.559 239.665 393.703C238.672 393.857 238.002 394.8 238.167 395.793C238.329 396.774 239.253 397.432 240.234 397.278C247.416 396.156 254.721 395.46 261.977 395.213C269.499 394.957 277.112 395.174 284.638 395.862C285.627 395.952 286.507 395.235 286.606 394.245C286.705 393.25 285.976 392.353 284.976 392.26Z" fill="#B4DDD9"/>
<path d="M283.612 434.298C277.792 434.537 261.32 434.447 246.184 434.268C244.678 434.251 243.421 433.113 243.256 431.617C242.143 421.543 239.308 395.873 238.032 384.168C237.925 383.176 237.031 382.461 236.039 382.571C235.046 382.678 234.326 383.569 234.436 384.561C235.786 396.948 238.879 424.963 239.836 433.605C240.102 436.008 242.123 437.84 244.537 437.87C255.296 438.002 278.047 438.381 282.963 437.939C285.696 438.307 285.479 435.909 285.479 435.909C285.377 434.966 284.561 434.26 283.612 434.298Z" fill="#B4DDD9"/>
<path d="M27.7061 221.212L152.957 221.878V212.455L7.16504 212.276L27.7061 221.212Z" fill="#3845B8"/>
<path d="M137.158 128.096L86.2717 115.74C83.602 115.091 80.9103 116.729 80.2615 119.402L61.9172 194.941C61.2684 197.61 62.907 200.302 65.5795 200.951L116.466 213.308C119.136 213.957 121.827 212.318 122.476 209.645L140.821 134.107C141.469 131.437 139.831 128.745 137.158 128.096Z" fill="#BEE1F4"/>
<path d="M137.31 128.138C134.874 143.923 126.562 180.855 111.053 191.29C96.7419 200.916 78.9118 202.09 61.7773 196.123C61.7801 198.364 63.3033 200.399 65.5798 200.952L116.466 213.308C119.136 213.957 121.828 212.318 122.477 209.646L140.821 134.107C141.456 131.489 139.892 128.85 137.31 128.138Z" fill="#AAD5E8"/>
<path d="M111.333 123.493C110.775 123.359 110.214 123.699 110.08 124.258L90.4815 204.96C90.3468 205.518 90.6877 206.079 91.2459 206.214C91.804 206.349 92.3649 206.008 92.4996 205.449L112.098 124.747C112.232 124.189 111.891 123.628 111.333 123.493Z" fill="#DFECF4"/>
<path d="M101.927 124.39L90.1234 121.522C87.4784 120.879 84.8032 122.509 84.1599 125.157C83.5165 127.802 85.1469 130.477 87.7919 131.121L99.5952 133.989C102.24 134.632 104.915 133.002 105.559 130.354C106.202 127.709 104.574 125.033 101.927 124.39Z" fill="#AAD5E8"/>
<path d="M105.03 128.872C104.387 131.517 101.712 133.148 99.0669 132.507L87.2636 129.639C85.8641 129.298 84.7479 128.391 84.1045 127.217C84.4482 129.073 85.8449 130.648 87.7942 131.124L99.5976 133.992C102.243 134.635 104.918 133.005 105.561 130.357C105.864 129.111 105.663 127.858 105.088 126.815C105.209 127.475 105.201 128.174 105.03 128.872Z" fill="#89BEDB"/>
<path d="M101.52 126.07L89.7169 123.202C88.0012 122.787 86.2581 123.848 85.8429 125.564C85.4278 127.28 86.489 129.023 88.2047 129.438L100.008 132.306C101.724 132.721 103.467 131.66 103.882 129.944C104.297 128.231 103.233 126.488 101.52 126.07Z" fill="#F4D41E"/>
<path d="M101.52 126.07L95.6165 124.638L94.1016 130.874L100.005 132.306C101.72 132.721 103.463 131.66 103.879 129.944C104.296 128.231 103.232 126.488 101.52 126.07Z" fill="#FF766C"/>
<path opacity="0.15" d="M100.376 130.783L88.5731 127.915C87.1214 127.563 86.1371 126.257 86.1233 124.824C86.0024 125.052 85.9062 125.3 85.8429 125.564C85.4278 127.28 86.489 129.023 88.2047 129.438L100.008 132.306C101.724 132.721 103.467 131.66 103.882 129.944C103.945 129.68 103.975 129.416 103.973 129.158C103.299 130.425 101.828 131.134 100.376 130.783Z" fill="#AD0000"/>
<path opacity="0.31" d="M100.043 126.614L90.2964 124.247C90.0242 124.181 89.7493 124.349 89.6833 124.621C89.6173 124.893 89.785 125.168 90.0572 125.234L99.804 127.601C100.076 127.667 100.351 127.5 100.417 127.227C100.483 126.955 100.313 126.68 100.043 126.614Z" fill="white"/>
<path d="M97.8466 141.198L86.0433 138.33C83.3984 137.686 80.7231 139.317 80.0798 141.962C79.4364 144.607 81.0668 147.285 83.7118 147.926L95.5151 150.794C98.1601 151.437 100.835 149.806 101.479 147.159C102.122 144.516 100.492 141.841 97.8466 141.198Z" fill="#AAD5E8"/>
<path d="M100.95 145.68C100.307 148.325 97.6318 149.955 94.9868 149.312L83.1835 146.444C81.7841 146.103 80.6678 145.196 80.0244 144.022C80.3681 145.877 81.7648 147.453 83.7141 147.929L95.5175 150.796C98.1624 151.44 100.838 149.809 101.481 147.162C101.783 145.916 101.583 144.662 101.008 143.62C101.129 144.283 101.118 144.981 100.95 145.68Z" fill="#89BEDB"/>
<path d="M97.4372 142.878L85.6339 140.01C83.9182 139.595 82.1751 140.656 81.7599 142.372C81.3447 144.088 82.406 145.831 84.1217 146.246L95.925 149.114C97.6407 149.529 99.3838 148.468 99.799 146.752C100.214 145.039 99.1528 143.296 97.4372 142.878Z" fill="#F4D41E"/>
<path d="M97.4365 142.878L91.5335 141.445L90.0186 147.681L95.9216 149.114C97.6372 149.529 99.3804 148.468 99.7956 146.752C100.213 145.039 99.1522 143.296 97.4365 142.878Z" fill="#FF766C"/>
<path opacity="0.15" d="M96.2934 147.587L84.4901 144.719C83.0384 144.367 82.0541 143.061 82.0404 141.629C81.9194 141.857 81.8231 142.105 81.7599 142.369C81.3447 144.084 82.406 145.827 84.1217 146.243L95.925 149.11C97.6407 149.526 99.3838 148.464 99.799 146.749C99.8622 146.485 99.8925 146.221 99.8897 145.962C99.2188 147.233 97.7451 147.942 96.2934 147.587Z" fill="#AD0000"/>
<path opacity="0.31" d="M95.9602 143.422L86.2134 141.054C85.9412 140.988 85.6663 141.156 85.6003 141.428C85.5343 141.701 85.702 141.975 85.9742 142.041L95.721 144.409C95.9932 144.475 96.2681 144.307 96.3341 144.035C96.4001 143.763 96.2324 143.488 95.9602 143.422Z" fill="white"/>
<path d="M93.7636 158.006L81.9603 155.138C79.3153 154.495 76.6401 156.125 75.9968 158.771C75.3534 161.416 76.9838 164.094 79.6315 164.734L91.4349 167.602C94.0798 168.246 96.755 166.615 97.3984 163.967C98.039 161.325 96.4113 158.65 93.7636 158.006Z" fill="#AAD5E8"/>
<path d="M96.8674 162.485C96.224 165.13 93.5488 166.761 90.9038 166.12L79.1005 163.253C77.701 162.912 76.5848 162.004 75.9414 160.83C76.2851 162.686 77.6818 164.262 79.6311 164.737L91.4345 167.605C94.0794 168.248 96.7546 166.618 97.398 163.97C97.7004 162.725 97.4997 161.471 96.9251 160.429C97.0461 161.091 97.0378 161.79 96.8674 162.485Z" fill="#89BEDB"/>
<path d="M93.3571 159.686L81.5538 156.819C79.8381 156.403 78.095 157.465 77.6798 159.18C77.2647 160.896 78.3259 162.639 80.0416 163.055L91.8449 165.922C93.5606 166.337 95.3037 165.276 95.7189 163.56C96.134 161.847 95.0728 160.104 93.3571 159.686Z" fill="#F4D41E"/>
<path d="M93.3565 159.686L87.4534 158.254L85.9385 164.49L91.8415 165.922C93.5572 166.338 95.3003 165.276 95.7155 163.561C96.1334 161.848 95.0721 160.104 93.3565 159.686Z" fill="#FF766C"/>
<path opacity="0.15" d="M92.2133 164.396L80.41 161.528C78.9583 161.176 77.974 159.87 77.9603 158.438C77.8393 158.666 77.7431 158.913 77.6798 159.177C77.2647 160.893 78.3259 162.636 80.0416 163.051L91.8449 165.919C93.5606 166.334 95.3037 165.273 95.7189 163.557C95.7821 163.293 95.8124 163.029 95.8096 162.771C95.136 164.041 93.665 164.751 92.2133 164.396Z" fill="#AD0000"/>
<path opacity="0.31" d="M91.8801 160.23L82.1333 157.863C81.8611 157.797 81.5862 157.965 81.5202 158.237C81.4542 158.509 81.6219 158.784 81.8941 158.85L91.6409 161.217C91.9131 161.283 92.188 161.116 92.254 160.844C92.32 160.571 92.1523 160.296 91.8801 160.23Z" fill="white"/>
<path d="M89.6836 174.814L77.8802 171.946C75.2352 171.303 72.5601 172.933 71.9167 175.578C71.2733 178.223 72.9037 180.899 75.5487 181.542L87.352 184.41C89.997 185.053 92.6722 183.423 93.3155 180.775C93.9589 178.133 92.3285 175.457 89.6836 174.814Z" fill="#AAD5E8"/>
<path d="M92.7873 179.293C92.1439 181.938 89.4687 183.569 86.8238 182.928L75.0204 180.06C73.621 179.719 72.5047 178.812 71.8613 177.638C72.205 179.494 73.6017 181.069 75.5511 181.545L87.3544 184.413C89.9994 185.056 92.6746 183.426 93.3179 180.778C93.6204 179.532 93.4197 178.278 92.845 177.236C92.966 177.899 92.955 178.597 92.7873 179.293Z" fill="#89BEDB"/>
<path d="M89.2741 176.494L77.4708 173.626C75.7551 173.211 74.012 174.272 73.5968 175.988C73.1817 177.704 74.2429 179.447 75.9586 179.862L87.7619 182.73C89.4776 183.145 91.2207 182.084 91.6359 180.368C92.051 178.655 90.9898 176.912 89.2741 176.494Z" fill="#F4D41E"/>
<path d="M89.2734 176.494L83.3704 175.062L81.8555 181.298L87.7585 182.73C89.4741 183.145 91.2173 182.084 91.6324 180.368C92.0504 178.655 90.9891 176.912 89.2734 176.494Z" fill="#FF766C"/>
<path opacity="0.15" d="M88.1303 181.203L76.327 178.336C74.8753 177.984 73.891 176.678 73.8773 175.245C73.7563 175.473 73.6601 175.721 73.5968 175.985C73.1817 177.7 74.2429 179.444 75.9586 179.859L87.7619 182.727C89.4776 183.142 91.2207 182.081 91.6359 180.365C91.6991 180.101 91.7293 179.837 91.7266 179.578C91.0557 180.849 89.582 181.558 88.1303 181.203Z" fill="#AD0000"/>
<path opacity="0.31" d="M87.7971 177.038L78.0503 174.671C77.7781 174.605 77.5032 174.772 77.4372 175.045C77.3712 175.317 77.5389 175.592 77.8111 175.658L87.5579 178.025C87.8301 178.091 88.105 177.923 88.171 177.651C88.237 177.379 88.0693 177.104 87.7971 177.038Z" fill="white"/>
<path d="M85.6005 191.622L73.7972 188.755C71.1522 188.111 68.4771 189.742 67.8337 192.39C67.1903 195.035 68.8207 197.71 71.4657 198.353L83.269 201.221C85.9139 201.864 88.5892 200.234 89.2325 197.589C89.8759 194.941 88.2483 192.266 85.6005 191.622Z" fill="#AAD5E8"/>
<path d="M88.7043 196.102C88.0609 198.747 85.3857 200.377 82.7408 199.737L70.9374 196.869C69.538 196.528 68.4217 195.621 67.7783 194.447C68.122 196.302 69.5187 197.878 71.4681 198.354L83.2714 201.221C85.9163 201.865 88.5916 200.234 89.2349 197.589C89.5374 196.344 89.3367 195.09 88.762 194.048C88.883 194.708 88.8747 195.406 88.7043 196.102Z" fill="#89BEDB"/>
<path d="M85.194 193.303L73.3907 190.435C71.675 190.02 69.9319 191.081 69.5167 192.797C69.1016 194.512 70.1629 196.256 71.8785 196.671L83.6818 199.539C85.3975 199.954 87.1406 198.892 87.5558 197.177C87.971 195.464 86.9097 193.72 85.194 193.303Z" fill="#F4D41E"/>
<path d="M85.1934 193.303L79.2903 191.87L77.7754 198.106L83.6784 199.539C85.3941 199.954 87.1372 198.892 87.5524 197.177C87.9703 195.464 86.909 193.721 85.1934 193.303Z" fill="#FF766C"/>
<path opacity="0.15" d="M84.0503 198.012L72.2469 195.144C70.7952 194.792 69.8109 193.486 69.7972 192.054C69.6762 192.282 69.58 192.529 69.5167 192.793C69.1016 194.509 70.1629 196.252 71.8785 196.667L83.6818 199.535C85.3975 199.95 87.1406 198.889 87.5558 197.173C87.619 196.909 87.6493 196.645 87.6465 196.387C86.9729 197.657 85.502 198.367 84.0503 198.012Z" fill="#AD0000"/>
<path opacity="0.31" d="M83.717 193.847L73.9703 191.479C73.6981 191.413 73.4231 191.581 73.3571 191.853C73.2911 192.125 73.4589 192.4 73.7311 192.466L83.4778 194.834C83.75 194.9 84.0249 194.732 84.0909 194.46C84.1569 194.188 83.9892 193.913 83.717 193.847Z" fill="white"/>
<path d="M131.085 131.47L119.282 128.602C116.637 127.959 113.961 129.589 113.318 132.237C112.675 134.882 114.305 137.558 116.95 138.201L128.753 141.069C131.398 141.712 134.074 140.082 134.717 137.434C135.36 134.789 133.73 132.113 131.085 131.47Z" fill="#AAD5E8"/>
<path d="M134.189 135.952C133.545 138.597 130.87 140.228 128.225 139.587L116.422 136.719C115.022 136.378 113.906 135.471 113.263 134.297C113.606 136.153 115.003 137.728 116.952 138.204L128.756 141.072C131.401 141.715 134.076 140.085 134.719 137.437C135.022 136.191 134.821 134.938 134.246 133.896C134.367 134.555 134.356 135.254 134.189 135.952Z" fill="#89BEDB"/>
<path d="M130.675 133.153L118.872 130.285C117.156 129.87 115.413 130.931 114.998 132.647C114.583 134.363 115.644 136.106 117.36 136.521L129.163 139.389C130.879 139.804 132.622 138.743 133.037 137.027C133.455 135.311 132.391 133.568 130.675 133.153Z" fill="#F4D41E"/>
<path d="M130.675 133.153L124.772 131.721L123.257 137.957L129.16 139.389C130.876 139.804 132.619 138.743 133.034 137.027C133.454 135.312 132.39 133.568 130.675 133.153Z" fill="#FF766C"/>
<path opacity="0.15" d="M129.532 137.863L117.728 134.995C116.277 134.643 115.292 133.337 115.279 131.904C115.158 132.133 115.061 132.38 114.998 132.644C114.583 134.36 115.644 136.103 117.36 136.518L129.163 139.386C130.879 139.801 132.622 138.74 133.037 137.024C133.1 136.76 133.131 136.496 133.128 136.238C132.457 137.508 130.986 138.215 129.532 137.863Z" fill="#AD0000"/>
<path opacity="0.31" d="M129.198 133.694L119.452 131.327C119.18 131.261 118.905 131.429 118.839 131.701C118.773 131.973 118.94 132.248 119.213 132.314L128.959 134.681C129.231 134.747 129.506 134.58 129.572 134.307C129.638 134.035 129.471 133.76 129.198 133.694Z" fill="white"/>
<path d="M127.002 148.278L115.199 145.41C112.554 144.766 109.878 146.397 109.235 149.045C108.592 151.69 110.222 154.365 112.867 155.009L124.67 157.876C127.315 158.52 129.991 156.889 130.634 154.241C131.28 151.596 129.65 148.921 127.002 148.278Z" fill="#AAD5E8"/>
<path d="M130.106 152.76C129.462 155.405 126.787 157.035 124.142 156.395L112.339 153.527C110.939 153.186 109.823 152.279 109.18 151.105C109.523 152.961 110.92 154.536 112.869 155.012L124.673 157.879C127.318 158.523 129.993 156.892 130.636 154.245C130.939 152.999 130.738 151.745 130.163 150.703C130.287 151.363 130.276 152.061 130.106 152.76Z" fill="#89BEDB"/>
<path d="M126.595 149.961L114.792 147.093C113.076 146.678 111.333 147.739 110.918 149.455C110.503 151.171 111.564 152.914 113.28 153.329L125.083 156.197C126.799 156.612 128.542 155.551 128.957 153.835C129.372 152.119 128.311 150.376 126.595 149.961Z" fill="#F4D41E"/>
<path d="M126.595 149.961L120.692 148.528L119.177 154.764L125.08 156.197C126.795 156.612 128.539 155.551 128.954 153.835C129.372 152.119 128.31 150.376 126.595 149.961Z" fill="#FF766C"/>
<path opacity="0.15" d="M125.452 154.67L113.648 151.802C112.197 151.45 111.212 150.144 111.199 148.712C111.078 148.94 110.981 149.188 110.918 149.452C110.503 151.167 111.564 152.911 113.28 153.326L125.083 156.193C126.799 156.609 128.542 155.547 128.957 153.832C129.02 153.568 129.051 153.304 129.048 153.045C128.377 154.316 126.903 155.022 125.452 154.67Z" fill="#AD0000"/>
<path opacity="0.31" d="M125.118 150.502L115.372 148.134C115.099 148.068 114.824 148.236 114.759 148.508C114.693 148.781 114.86 149.056 115.132 149.122L124.879 151.489C125.151 151.555 125.426 151.387 125.492 151.115C125.558 150.843 125.391 150.568 125.118 150.502Z" fill="white"/>
<path d="M122.922 165.086L111.118 162.218C108.474 161.575 105.798 163.206 105.155 165.851C104.512 168.496 106.142 171.171 108.787 171.814L120.59 174.682C123.235 175.326 125.91 173.695 126.554 171.047C127.197 168.405 125.567 165.73 122.922 165.086Z" fill="#AAD5E8"/>
<path d="M126.026 169.568C125.382 172.213 122.707 173.844 120.062 173.203L108.259 170.336C106.859 169.995 105.743 169.087 105.1 167.913C105.443 169.769 106.84 171.345 108.789 171.82L120.593 174.688C123.238 175.331 125.913 173.701 126.556 171.053C126.859 169.808 126.658 168.554 126.083 167.512C126.204 168.172 126.193 168.87 126.026 169.568Z" fill="#89BEDB"/>
<path d="M122.515 166.769L110.712 163.902C108.996 163.486 107.253 164.548 106.838 166.263C106.423 167.979 107.484 169.722 109.2 170.138L121.003 173.005C122.719 173.421 124.462 172.359 124.877 170.643C125.292 168.928 124.228 167.185 122.515 166.769Z" fill="#F4D41E"/>
<path d="M122.515 166.769L116.612 165.337L115.097 171.573L121 173.005C122.715 173.421 124.459 172.359 124.874 170.644C125.292 168.928 124.228 167.185 122.515 166.769Z" fill="#FF766C"/>
<path opacity="0.15" d="M121.372 171.479L109.568 168.611C108.117 168.259 107.132 166.953 107.118 165.521C106.997 165.749 106.901 165.996 106.838 166.26C106.423 167.976 107.484 169.719 109.2 170.134L121.003 173.002C122.719 173.417 124.462 172.356 124.877 170.64C124.94 170.376 124.971 170.112 124.968 169.854C124.294 171.124 122.823 171.831 121.372 171.479Z" fill="#AD0000"/>
<path opacity="0.31" d="M121.038 167.31L111.292 164.943C111.019 164.877 110.744 165.045 110.678 165.317C110.612 165.589 110.78 165.864 111.052 165.93L120.799 168.298C121.071 168.364 121.346 168.196 121.412 167.924C121.475 167.651 121.308 167.376 121.038 167.31Z" fill="white"/>
<path d="M118.842 181.894L107.038 179.026C104.393 178.383 101.718 180.013 101.075 182.661C100.432 185.306 102.062 187.981 104.71 188.625L116.513 191.493C119.158 192.136 121.833 190.505 122.477 187.858C123.117 185.213 121.487 182.537 118.842 181.894Z" fill="#AAD5E8"/>
<path d="M121.944 186.376C121.3 189.021 118.625 190.652 115.98 190.011L104.177 187.143C102.777 186.802 101.661 185.895 101.018 184.721C101.361 186.577 102.758 188.152 104.707 188.628L116.511 191.496C119.156 192.139 121.831 190.509 122.474 187.861C122.777 186.615 122.576 185.361 122.001 184.319C122.125 184.979 122.114 185.678 121.944 186.376Z" fill="#89BEDB"/>
<path d="M118.432 183.577L106.629 180.709C104.913 180.294 103.17 181.355 102.755 183.071C102.34 184.787 103.401 186.53 105.117 186.945L116.92 189.813C118.636 190.228 120.379 189.167 120.794 187.451C121.209 185.735 120.148 183.992 118.432 183.577Z" fill="#F4D41E"/>
<path d="M118.432 183.577L112.529 182.145L111.014 188.381L116.917 189.813C118.632 190.228 120.376 189.167 120.791 187.451C121.209 185.735 120.147 183.992 118.432 183.577Z" fill="#FF766C"/>
<path opacity="0.15" d="M117.289 188.286L105.485 185.419C104.034 185.067 103.049 183.761 103.035 182.328C102.914 182.556 102.818 182.804 102.755 183.068C102.34 184.783 103.401 186.527 105.117 186.942L116.92 189.81C118.636 190.225 120.379 189.164 120.794 187.448C120.857 187.184 120.888 186.92 120.885 186.661C120.214 187.932 118.74 188.638 117.289 188.286Z" fill="#AD0000"/>
<path opacity="0.31" d="M116.955 184.118L107.209 181.751C106.936 181.685 106.661 181.852 106.595 182.125C106.529 182.397 106.697 182.672 106.969 182.738L116.716 185.105C116.988 185.171 117.263 185.003 117.329 184.731C117.395 184.459 117.227 184.184 116.955 184.118Z" fill="white"/>
<path d="M114.759 198.702L102.955 195.835C100.31 195.191 97.6353 196.822 96.9919 199.47C96.3485 202.115 97.9789 204.79 100.624 205.433L112.427 208.301C115.072 208.945 117.747 207.314 118.391 204.666C119.034 202.021 117.404 199.346 114.759 198.702Z" fill="#AAD5E8"/>
<path d="M117.862 203.184C117.219 205.829 114.544 207.459 111.899 206.819L100.096 203.951C98.6962 203.61 97.5799 202.702 96.9365 201.528C97.2802 203.384 98.6769 204.96 100.626 205.436L112.43 208.303C115.075 208.947 117.75 207.316 118.393 204.668C118.696 203.423 118.495 202.169 117.92 201.127C118.041 201.787 118.03 202.485 117.862 203.184Z" fill="#89BEDB"/>
<path d="M114.352 200.383L102.549 197.515C100.833 197.1 99.0901 198.161 98.6749 199.877C98.2598 201.592 99.3211 203.336 101.037 203.751L112.84 206.619C114.556 207.034 116.299 205.972 116.714 204.257C117.129 202.544 116.065 200.801 114.352 200.383Z" fill="#F4D41E"/>
<path d="M114.352 200.383L108.449 198.95L106.934 205.186L112.837 206.619C114.552 207.034 116.295 205.973 116.711 204.257C117.128 202.544 116.064 200.801 114.352 200.383Z" fill="#FF766C"/>
<path opacity="0.15" d="M113.208 205.095L101.405 202.227C99.9535 201.875 98.9691 200.569 98.9554 199.137C98.8344 199.365 98.7382 199.612 98.6749 199.876C98.2598 201.592 99.3211 203.335 101.037 203.75L112.84 206.618C114.556 207.033 116.299 205.972 116.714 204.256C116.777 203.992 116.807 203.728 116.805 203.47C116.131 204.738 114.66 205.447 113.208 205.095Z" fill="#AD0000"/>
<path opacity="0.31" d="M112.875 200.927L103.128 198.559C102.856 198.493 102.581 198.661 102.515 198.933C102.449 199.205 102.617 199.48 102.889 199.546L112.636 201.914C112.908 201.98 113.183 201.812 113.249 201.54C113.315 201.268 113.145 200.993 112.875 200.927Z" fill="white"/>
<path d="M164.232 161.888L137.919 150.89C134.524 149.471 130.622 151.072 129.204 154.467L98.1158 228.84C96.6971 232.236 98.2973 236.138 101.693 237.556L128.005 248.555C131.398 249.973 135.302 248.373 136.721 244.977L167.809 170.605C169.227 167.209 167.627 163.307 164.232 161.888Z" fill="#92C6FF"/>
<path d="M135.915 238.139C134.496 241.532 130.595 243.135 127.199 241.716L100.887 230.718C99.7847 230.259 98.8747 229.535 98.1928 228.653L98.1158 228.837C96.6971 232.233 98.2973 236.134 101.693 237.553L128.005 248.551C131.398 249.97 135.302 248.37 136.721 244.974L167.809 170.601C168.768 168.308 168.345 165.784 166.926 163.95L135.915 238.139Z" fill="#7CBDF7"/>
<path d="M139.53 159.706C136.481 158.43 132.962 159.873 131.689 162.925C130.413 165.975 131.857 169.494 134.909 170.767C137.958 172.043 141.477 170.597 142.75 167.547C144.023 164.498 142.579 160.979 139.53 159.706Z" fill="#71B7EA"/>
<path d="M142.109 166.162C140.834 169.211 137.317 170.655 134.268 169.381C133.08 168.884 132.137 168.048 131.502 167.031C132.013 168.658 133.212 170.058 134.906 170.767C137.955 172.043 141.474 170.597 142.747 167.548C143.525 165.686 143.289 163.649 142.293 162.057C142.706 163.357 142.678 164.806 142.109 166.162Z" fill="#5499DD"/>
<path d="M138.991 160.989C136.646 160.011 133.952 161.116 132.973 163.459C131.994 165.804 133.099 168.498 135.442 169.477C137.787 170.456 140.482 169.351 141.46 167.008C142.442 164.666 141.337 161.971 138.991 160.989Z" fill="#FFF16C"/>
<path d="M140.394 165.051C139.415 167.396 136.72 168.501 134.375 167.52C133.743 167.256 133.204 166.868 132.77 166.395C133.121 167.734 134.07 168.903 135.445 169.478C137.79 170.456 140.484 169.351 141.463 167.008C142.178 165.296 141.779 163.396 140.6 162.114C140.845 163.057 140.798 164.083 140.394 165.051Z" fill="#FFDE1A"/>
<path d="M135.439 162.354C134.705 162.915 134.438 163.803 134.848 164.339C135.257 164.875 136.184 164.856 136.918 164.295C137.652 163.734 137.919 162.846 137.509 162.31C137.099 161.774 136.173 161.793 135.439 162.354Z" fill="#FFFDD7"/>
<path d="M133.078 175.139C130.029 173.863 126.51 175.307 125.237 178.359C123.961 181.408 125.405 184.928 128.456 186.201C131.506 187.476 135.025 186.03 136.298 182.981C137.574 179.932 136.127 176.415 133.078 175.139Z" fill="#71B7EA"/>
<path d="M135.66 181.598C134.384 184.648 130.868 186.091 127.819 184.818C126.631 184.32 125.688 183.484 125.053 182.467C125.564 184.095 126.763 185.494 128.457 186.204C131.506 187.48 135.025 186.033 136.298 182.984C137.076 181.123 136.84 179.085 135.844 177.493C136.254 178.794 136.226 180.243 135.66 181.598Z" fill="#5499DD"/>
<path d="M132.542 176.426C130.197 175.447 127.502 176.552 126.524 178.895C125.545 181.24 126.65 183.935 128.993 184.914C131.338 185.893 134.032 184.787 135.011 182.445C135.993 180.099 134.885 177.405 132.542 176.426Z" fill="#FFF16C"/>
<path d="M133.942 180.487C132.963 182.833 130.268 183.938 127.923 182.956C127.291 182.692 126.752 182.305 126.317 181.832C126.669 183.171 127.618 184.339 128.993 184.914C131.338 185.893 134.032 184.788 135.011 182.445C135.726 180.732 135.327 178.832 134.148 177.551C134.395 178.491 134.346 179.519 133.942 180.487Z" fill="#FFDE1A"/>
<path d="M128.987 177.787C128.253 178.348 127.986 179.236 128.395 179.772C128.805 180.309 129.732 180.289 130.466 179.728C131.2 179.168 131.467 178.279 131.057 177.743C130.647 177.207 129.721 177.229 128.987 177.787Z" fill="#FFFDD7"/>
<path d="M126.628 190.575C123.579 189.299 120.06 190.742 118.787 193.794C117.511 196.844 118.954 200.363 122.006 201.636C125.055 202.912 128.575 201.469 129.848 198.416C131.121 195.367 129.677 191.848 126.628 190.575Z" fill="#71B7EA"/>
<path d="M129.207 197.031C127.931 200.08 124.415 201.524 121.366 200.251C120.178 199.753 119.235 198.917 118.6 197.9C119.111 199.527 120.31 200.927 122.003 201.636C125.053 202.912 128.572 201.466 129.845 198.417C130.623 196.555 130.386 194.518 129.391 192.926C129.804 194.226 129.773 195.675 129.207 197.031Z" fill="#5499DD"/>
<path d="M126.089 191.859C123.744 190.88 121.049 191.985 120.07 194.328C119.092 196.673 120.197 199.368 122.539 200.346C124.885 201.325 127.579 200.22 128.558 197.877C129.54 195.535 128.434 192.84 126.089 191.859Z" fill="#FFF16C"/>
<path d="M127.488 195.92C126.51 198.265 123.815 199.371 121.47 198.389C120.838 198.125 120.299 197.737 119.864 197.264C120.216 198.604 121.165 199.772 122.539 200.347C124.885 201.326 127.579 200.22 128.558 197.878C129.273 196.165 128.874 194.265 127.695 192.983C127.942 193.926 127.893 194.952 127.488 195.92Z" fill="#FFDE1A"/>
<path d="M122.536 193.223C121.802 193.784 121.536 194.672 121.945 195.208C122.355 195.744 123.282 195.725 124.016 195.164C124.75 194.603 125.014 193.715 124.607 193.179C124.197 192.643 123.271 192.662 122.536 193.223Z" fill="#FFFDD7"/>
<path d="M120.175 206.008C117.126 204.733 113.607 206.176 112.334 209.228C111.058 212.277 112.501 215.797 115.553 217.07C118.602 218.346 122.122 216.902 123.394 213.85C124.667 210.801 123.224 207.284 120.175 206.008Z" fill="#71B7EA"/>
<path d="M122.754 212.466C121.478 215.516 117.962 216.959 114.912 215.686C113.725 215.188 112.782 214.353 112.146 213.335C112.658 214.963 113.857 216.363 115.55 217.072C118.599 218.348 122.119 216.904 123.392 213.852C124.17 211.991 123.933 209.953 122.938 208.361C123.35 209.662 123.323 211.111 122.754 212.466Z" fill="#5499DD"/>
<path d="M121.475 214.388C123.053 212.397 122.719 209.504 120.728 207.925C118.738 206.347 115.844 206.681 114.266 208.672C112.688 210.663 113.022 213.556 115.013 215.134C117.003 216.713 119.897 216.379 121.475 214.388Z" fill="#FFF16C"/>
<path d="M121.038 211.355C120.059 213.701 117.365 214.806 115.02 213.825C114.39 213.561 113.848 213.173 113.414 212.7C113.766 214.039 114.715 215.208 116.089 215.782C118.435 216.761 121.129 215.656 122.108 213.313C122.823 211.6 122.424 209.7 121.244 208.419C121.489 209.359 121.442 210.388 121.038 211.355Z" fill="#FFDE1A"/>
<path d="M116.084 208.655C115.35 209.216 115.083 210.104 115.493 210.641C115.903 211.177 116.829 211.157 117.563 210.597C118.298 210.036 118.564 209.148 118.155 208.611C117.745 208.075 116.818 208.097 116.084 208.655Z" fill="#FFFDD7"/>
<path d="M113.722 221.444C110.673 220.168 107.153 221.612 105.88 224.664C104.605 227.713 106.048 231.232 109.1 232.505C112.149 233.781 115.668 232.338 116.941 229.286C118.217 226.236 116.774 222.717 113.722 221.444Z" fill="#71B7EA"/>
<path d="M116.304 227.9C115.028 230.949 111.511 232.393 108.462 231.12C107.274 230.622 106.331 229.786 105.696 228.769C106.208 230.397 107.406 231.796 109.1 232.506C112.149 233.781 115.669 232.338 116.941 229.286C117.72 227.424 117.483 225.387 116.488 223.795C116.897 225.095 116.87 226.544 116.304 227.9Z" fill="#5499DD"/>
<path d="M113.186 222.728C110.84 221.749 108.146 222.854 107.167 225.197C106.188 227.542 107.294 230.237 109.636 231.216C111.981 232.194 114.676 231.089 115.655 228.747C116.636 226.404 115.528 223.709 113.186 222.728Z" fill="#FFF16C"/>
<path d="M114.585 226.789C113.606 229.134 110.912 230.24 108.567 229.258C107.934 228.994 107.395 228.607 106.961 228.134C107.313 229.473 108.261 230.641 109.636 231.216C111.981 232.195 114.676 231.089 115.655 228.747C116.37 227.034 115.971 225.134 114.791 223.853C115.039 224.796 114.989 225.821 114.585 226.789Z" fill="#FFDE1A"/>
<path d="M109.631 224.092C108.897 224.653 108.63 225.541 109.04 226.077C109.447 226.613 110.376 226.594 111.11 226.033C111.844 225.472 112.108 224.584 111.701 224.048C111.295 223.512 110.365 223.531 109.631 224.092Z" fill="#FFFDD7"/>
<path d="M156.827 166.934C153.778 165.658 150.259 167.102 148.986 170.154C147.71 173.203 149.154 176.723 152.205 177.996C155.255 179.271 158.774 177.825 160.047 174.776C161.32 171.729 159.876 168.21 156.827 166.934Z" fill="#71B7EA"/>
<path d="M159.406 173.393C158.13 176.442 154.614 177.886 151.565 176.613C150.377 176.115 149.434 175.279 148.799 174.262C149.31 175.89 150.509 177.289 152.203 177.999C155.252 179.274 158.771 177.831 160.044 174.779C160.822 172.917 160.586 170.88 159.59 169.288C160.003 170.589 159.973 172.038 159.406 173.393Z" fill="#5499DD"/>
<path d="M156.288 168.221C153.943 167.242 151.248 168.347 150.27 170.69C149.291 173.035 150.396 175.73 152.739 176.709C155.084 177.688 157.778 176.582 158.757 174.24C159.739 171.897 158.633 169.202 156.288 168.221Z" fill="#FFF16C"/>
<path d="M157.688 172.282C156.709 174.628 154.014 175.733 151.669 174.751C151.037 174.487 150.498 174.1 150.063 173.627C150.415 174.966 151.364 176.134 152.739 176.709C155.084 177.688 157.778 176.583 158.757 174.24C159.472 172.527 159.073 170.627 157.894 169.346C158.141 170.289 158.095 171.314 157.688 172.282Z" fill="#FFDE1A"/>
<path d="M152.736 169.584C152.002 170.145 151.738 171.033 152.145 171.569C152.555 172.105 153.481 172.086 154.216 171.525C154.95 170.964 155.214 170.076 154.807 169.54C154.397 169.004 153.47 169.023 152.736 169.584Z" fill="#FFFDD7"/>
<path d="M150.375 182.37C147.326 181.094 143.807 182.541 142.534 185.59C141.258 188.639 142.701 192.159 145.753 193.432C148.802 194.708 152.322 193.264 153.595 190.212C154.868 187.163 153.424 183.646 150.375 182.37Z" fill="#71B7EA"/>
<path d="M152.957 188.829C151.681 191.878 148.165 193.321 145.116 192.048C143.928 191.551 142.985 190.715 142.35 189.698C142.861 191.325 144.06 192.725 145.753 193.434C148.803 194.71 152.322 193.267 153.595 190.214C154.373 188.353 154.136 186.316 153.141 184.724C153.551 186.024 153.523 187.47 152.957 188.829Z" fill="#5499DD"/>
<path d="M149.839 183.657C147.494 182.679 144.799 183.784 143.82 186.127C142.842 188.472 143.947 191.166 146.289 192.145C148.635 193.124 151.329 192.019 152.308 189.676C153.287 187.331 152.181 184.636 149.839 183.657Z" fill="#FFF16C"/>
<path d="M151.238 187.718C150.26 190.063 147.565 191.168 145.22 190.187C144.588 189.923 144.049 189.535 143.614 189.062C143.966 190.401 144.915 191.57 146.289 192.145C148.635 193.123 151.329 192.018 152.308 189.675C153.023 187.963 152.624 186.063 151.445 184.781C151.689 185.722 151.643 186.75 151.238 187.718Z" fill="#FFDE1A"/>
<path d="M146.283 185.018C145.549 185.579 145.283 186.467 145.692 187.003C146.102 187.539 147.029 187.52 147.763 186.959C148.497 186.398 148.761 185.51 148.354 184.974C147.944 184.438 147.018 184.457 146.283 185.018Z" fill="#FFFDD7"/>
<path d="M143.922 197.803C140.873 196.527 137.354 197.971 136.081 201.023C134.805 204.072 136.248 207.592 139.3 208.865C142.349 210.141 145.869 208.697 147.142 205.645C148.417 202.598 146.974 199.079 143.922 197.803Z" fill="#71B7EA"/>
<path d="M146.504 204.262C145.228 207.312 141.712 208.755 138.662 207.482C137.475 206.984 136.532 206.149 135.896 205.131C136.408 206.759 137.607 208.158 139.3 208.868C142.349 210.144 145.869 208.7 147.142 205.648C147.92 203.787 147.683 201.749 146.688 200.157C147.098 201.458 147.07 202.907 146.504 204.262Z" fill="#5499DD"/>
<path d="M143.386 199.09C141.041 198.111 138.346 199.216 137.367 201.559C136.389 203.905 137.494 206.599 139.836 207.578C142.182 208.557 144.876 207.451 145.855 205.109C146.836 202.766 145.731 200.072 143.386 199.09Z" fill="#FFF16C"/>
<path d="M144.785 203.151C143.807 205.497 141.112 206.602 138.767 205.62C138.137 205.357 137.596 204.969 137.161 204.496C137.513 205.835 138.462 207.004 139.836 207.578C142.182 208.557 144.876 207.452 145.855 205.109C146.57 203.396 146.171 201.496 144.992 200.215C145.239 201.158 145.189 202.184 144.785 203.151Z" fill="#FFDE1A"/>
<path d="M139.83 200.451C139.096 201.012 138.83 201.9 139.239 202.436C139.649 202.973 140.575 202.953 141.31 202.392C142.044 201.831 142.31 200.943 141.901 200.407C141.494 199.874 140.567 199.893 139.83 200.451Z" fill="#FFFDD7"/>
<path d="M137.472 213.239C134.423 211.964 130.903 213.41 129.63 216.459C128.355 219.508 129.798 223.028 132.85 224.301C135.899 225.577 139.418 224.133 140.691 221.081C141.964 218.032 140.521 214.515 137.472 213.239Z" fill="#71B7EA"/>
<path d="M140.051 219.698C138.775 222.747 135.258 224.191 132.209 222.918C131.022 222.42 130.078 221.584 129.443 220.567C129.955 222.194 131.154 223.594 132.847 224.303C135.896 225.579 139.416 224.136 140.689 221.084C141.467 219.222 141.23 217.185 140.235 215.593C140.647 216.893 140.617 218.34 140.051 219.698Z" fill="#5499DD"/>
<path d="M136.933 214.527C134.587 213.548 131.893 214.653 130.914 216.996C129.935 219.341 131.041 222.036 133.383 223.014C135.728 223.993 138.423 222.888 139.402 220.545C140.383 218.2 139.278 215.505 136.933 214.527Z" fill="#FFF16C"/>
<path d="M138.332 218.584C137.353 220.929 134.659 222.035 132.314 221.053C131.681 220.789 131.142 220.401 130.708 219.929C131.06 221.268 132.008 222.436 133.383 223.011C135.728 223.99 138.423 222.884 139.402 220.542C140.117 218.829 139.718 216.929 138.538 215.647C138.786 216.591 138.739 217.619 138.332 218.584Z" fill="#FFDE1A"/>
<path d="M133.381 215.887C132.647 216.448 132.383 217.336 132.79 217.872C133.197 218.408 134.126 218.389 134.86 217.828C135.594 217.267 135.858 216.379 135.451 215.843C135.042 215.307 134.115 215.326 133.381 215.887Z" fill="#FFFDD7"/>
<path d="M131.019 228.672C127.97 227.397 124.45 228.84 123.177 231.892C121.902 234.941 123.345 238.461 126.397 239.734C129.446 241.01 132.965 239.566 134.238 236.514C135.511 233.468 134.068 229.948 131.019 228.672Z" fill="#71B7EA"/>
<path d="M133.6 235.131C132.325 238.181 128.808 239.624 125.759 238.351C124.571 237.854 123.628 237.018 122.993 236C123.505 237.628 124.703 239.028 126.397 239.737C129.446 241.013 132.965 239.569 134.238 236.517C135.016 234.656 134.78 232.618 133.785 231.026C134.194 232.327 134.167 233.776 133.6 235.131Z" fill="#5499DD"/>
<path d="M130.483 229.959C128.137 228.98 125.443 230.086 124.464 232.428C123.485 234.774 124.591 237.468 126.933 238.447C129.278 239.426 131.973 238.321 132.952 235.978C133.93 233.635 132.825 230.941 130.483 229.959Z" fill="#FFF16C"/>
<path d="M131.882 234.021C130.903 236.366 128.209 237.471 125.863 236.49C125.231 236.226 124.692 235.838 124.258 235.365C124.61 236.704 125.558 237.873 126.933 238.447C129.278 239.426 131.973 238.321 132.952 235.978C133.666 234.265 133.268 232.365 132.088 231.084C132.336 232.027 132.286 233.053 131.882 234.021Z" fill="#FFDE1A"/>
<path d="M126.928 231.322C126.194 231.883 125.93 232.771 126.337 233.308C126.746 233.844 127.673 233.825 128.407 233.264C129.141 232.703 129.408 231.815 128.998 231.278C128.588 230.742 127.662 230.761 126.928 231.322Z" fill="#FFFDD7"/>
<path d="M151.527 156.576L150.628 156.199L142.429 175.812L123.576 167.932L123.199 168.831L142.052 176.714L135.869 191.504L117.019 183.623L116.642 184.522L135.492 192.403L129.551 206.615L110.7 198.735L110.324 199.634L129.174 207.517L123.018 222.246L104.168 214.366L103.791 215.265L122.641 223.146L114.398 242.863L115.3 243.239L123.54 223.522L142.393 231.405L142.77 230.503L123.917 222.623L130.076 207.891L148.926 215.774L149.302 214.872L130.452 206.992L136.394 192.779L155.244 200.66L155.621 199.761L136.768 191.88L142.951 177.088L161.804 184.971L162.178 184.069L143.328 176.189L151.527 156.576Z" fill="#BBDFFF"/>
<path d="M152.956 383.599L173.5 392.763V219.439L152.956 212.455V383.599Z" fill="#3845B8"/>
<path d="M7.16504 383.599L27.7061 393.866L18.1518 377.594L7.16504 383.599Z" fill="#F4C587"/>
<path d="M95.5367 173.104H93.3894H89.8152H67.9929H64.4159H62.2713H58.6943L44.5869 187.212H48.1639H50.3085H53.8855H103.922H107.5H109.644H113.221L99.1137 173.104H95.5367Z" fill="#E2EEF2"/>
<path d="M44.5869 224.039H58.6943V173.104L44.5869 187.212V224.039Z" fill="#F2F7F9"/>
<path d="M99.293 224.039H113.4V187.212L99.293 173.104V224.039Z" fill="#F2F7F9"/>
<path d="M78.0784 147.733C77.7072 144.073 74.4382 141.406 70.7759 141.78L42.4045 144.667C38.745 145.038 36.078 148.308 36.452 151.97L44.6095 232.164C44.9807 235.823 48.2498 238.49 51.912 238.116L80.2835 235.229C83.943 234.858 86.6099 231.589 86.236 227.927L78.0784 147.733Z" fill="#92C6FF"/>
<path d="M78.0789 147.732C77.826 145.261 76.2533 143.242 74.1308 142.308L82.2691 222.306C82.6403 225.966 79.9761 229.235 76.3166 229.609L47.9451 232.496C46.7574 232.617 45.6109 232.416 44.5908 231.968L44.6101 232.166C44.9812 235.826 48.2503 238.493 51.9126 238.119L80.284 235.232C83.9435 234.861 86.6105 231.591 86.2365 227.929L78.0789 147.732Z" fill="#7CBDF7"/>
<path d="M48.0268 151.646C44.7385 151.981 42.3355 154.929 42.6709 158.217C43.0063 161.506 45.9537 163.909 49.242 163.574C52.5304 163.238 54.9334 160.291 54.598 157.002C54.2625 153.716 51.3151 151.313 48.0268 151.646Z" fill="#71B7EA"/>
<path d="M51.5788 152.394C52.5603 153.342 53.2257 154.629 53.3769 156.092C53.7124 159.38 51.3094 162.328 48.021 162.663C46.7398 162.792 45.5135 162.506 44.4688 161.915C45.695 163.1 47.4161 163.76 49.2418 163.576C52.5301 163.241 54.9331 160.293 54.5977 157.005C54.3915 154.995 53.212 153.32 51.5788 152.394Z" fill="#5499DD"/>
<path d="M48.1668 153.035C45.6401 153.293 43.798 155.551 44.0564 158.078C44.3149 160.604 46.5722 162.447 49.0989 162.188C51.6256 161.93 53.4677 159.672 53.2093 157.146C52.9536 154.619 50.6963 152.776 48.1668 153.035Z" fill="#FF766C"/>
<path d="M50.1162 153.255C50.7815 153.964 51.2297 154.891 51.3342 155.933C51.5926 158.46 49.7505 160.717 47.2238 160.976C46.5446 161.044 45.882 160.962 45.2744 160.753C46.223 161.765 47.6114 162.337 49.0961 162.185C51.6229 161.927 53.465 159.67 53.2065 157.143C53.0223 155.298 51.7658 153.819 50.1162 153.255Z" fill="#F75B57"/>
<path d="M47.4928 154.902C46.8797 154.627 46.0741 155.086 45.6947 155.928C45.3153 156.772 45.5077 157.676 46.1209 157.954C46.734 158.229 47.5396 157.77 47.919 156.928C48.2984 156.084 48.106 155.177 47.4928 154.902Z" fill="#FFA69F"/>
<path d="M49.7202 168.289C46.4319 168.624 44.0288 171.572 44.3643 174.86C44.6997 178.149 47.6471 180.552 50.9354 180.216C54.2237 179.881 56.6268 176.933 56.2913 173.645C55.9559 170.359 53.0085 167.956 49.7202 168.289Z" fill="#71B7EA"/>
<path d="M53.27 169.036C54.2516 169.985 54.9169 171.272 55.0654 172.734C55.4008 176.023 52.9978 178.97 49.7095 179.306C48.4283 179.435 47.202 179.149 46.1572 178.558C47.3835 179.743 49.1046 180.403 50.9302 180.219C54.2186 179.883 56.6216 176.936 56.2862 173.647C56.0855 171.637 54.9059 169.963 53.27 169.036Z" fill="#5499DD"/>
<path d="M49.8602 169.678C47.3334 169.936 45.4913 172.193 45.7498 174.72C46.0082 177.247 48.2655 179.089 50.7922 178.831C53.319 178.572 55.1611 176.315 54.9027 173.788C54.6442 171.261 52.3869 169.419 49.8602 169.678Z" fill="#FF766C"/>
<path d="M51.8095 169.9C52.4749 170.61 52.923 171.536 53.0275 172.578C53.286 175.105 51.4438 177.363 48.9171 177.621C48.238 177.69 47.5754 177.607 46.9678 177.398C47.9163 178.408 49.3048 178.982 50.7895 178.831C53.3162 178.573 55.1583 176.315 54.8999 173.788C54.7157 171.941 53.4592 170.461 51.8095 169.9Z" fill="#F75B57"/>
<path d="M49.1843 171.545C48.5711 171.27 47.7655 171.729 47.3861 172.57C47.0067 173.414 47.1992 174.319 47.8123 174.597C48.4254 174.872 49.231 174.412 49.6104 173.571C49.9899 172.727 49.8001 171.82 49.1843 171.545Z" fill="#FFA69F"/>
<path d="M51.4135 184.932C48.1252 185.268 45.7222 188.215 46.0576 191.504C46.3931 194.792 49.3405 197.195 52.6288 196.86C55.9171 196.524 58.3201 193.577 57.9847 190.288C57.6492 187.003 54.7018 184.599 51.4135 184.932Z" fill="#71B7EA"/>
<path d="M54.9634 185.68C55.9449 186.628 56.6103 187.915 56.7588 189.378C57.0942 192.666 54.6912 195.614 51.4029 195.949C50.1216 196.079 48.8954 195.793 47.8506 195.201C49.0768 196.386 50.798 197.046 52.6236 196.862C55.9119 196.527 58.3149 193.579 57.9795 190.291C57.7788 188.281 56.5993 186.606 54.9634 185.68Z" fill="#5499DD"/>
<path d="M53.3423 195.283C55.7757 194.554 57.1572 191.99 56.4278 189.556C55.6985 187.122 53.1345 185.741 50.7011 186.47C48.2676 187.2 46.8862 189.764 47.6155 192.197C48.3449 194.631 50.9088 196.012 53.3423 195.283Z" fill="#FF766C"/>
<path d="M53.5 186.541C54.1654 187.25 54.6135 188.177 54.718 189.219C54.9764 191.746 53.1343 194.003 50.6076 194.262C49.9285 194.331 49.2658 194.248 48.6582 194.039C49.6068 195.048 50.9952 195.623 52.4799 195.472C55.0067 195.213 56.8488 192.956 56.5904 190.429C56.4061 188.584 55.1497 187.105 53.5 186.541Z" fill="#F75B57"/>
<path d="M50.8776 188.187C50.2617 187.912 49.4589 188.371 49.0795 189.213C48.7001 190.057 48.8925 190.961 49.5057 191.239C50.1215 191.514 50.9243 191.055 51.3038 190.214C51.6832 189.369 51.4935 188.462 50.8776 188.187Z" fill="#FFA69F"/>
<path d="M53.1049 201.575C49.8166 201.91 47.4136 204.858 47.749 208.146C48.0845 211.435 51.0319 213.838 54.3202 213.502C57.6085 213.167 60.0115 210.219 59.6761 206.931C59.3407 203.645 56.3933 201.242 53.1049 201.575Z" fill="#71B7EA"/>
<path d="M56.6569 202.322C57.6385 203.271 58.3038 204.558 58.455 206.02C58.7905 209.309 56.3875 212.256 53.0991 212.592C51.8179 212.721 50.5917 212.435 49.5469 211.844C50.7731 213.029 52.4943 213.689 54.3199 213.505C57.6082 213.169 60.0112 210.222 59.6758 206.933C59.4723 204.923 58.2928 203.249 56.6569 202.322Z" fill="#5499DD"/>
<path d="M53.2479 202.964C50.7211 203.222 48.879 205.479 49.1375 208.006C49.3959 210.533 51.6532 212.375 54.1799 212.117C56.7067 211.858 58.5488 209.601 58.2903 207.074C58.0319 204.547 55.7746 202.705 53.2479 202.964Z" fill="#FF766C"/>
<path d="M55.1943 203.186C55.8597 203.895 56.3078 204.822 56.4123 205.864C56.6708 208.39 54.8286 210.648 52.3019 210.906C51.6228 210.975 50.9602 210.893 50.3525 210.684C51.3011 211.695 52.6896 212.267 54.1743 212.116C56.701 211.858 58.5431 209.6 58.2847 207.073C58.1004 205.226 56.844 203.746 55.1943 203.186Z" fill="#F75B57"/>
<path d="M52.572 204.831C51.9561 204.556 51.1532 205.015 50.7738 205.856C50.3944 206.7 50.5869 207.605 51.2 207.883C51.8131 208.158 52.6187 207.698 52.9981 206.857C53.3775 206.013 53.1878 205.106 52.572 204.831Z" fill="#FFA69F"/>
<path d="M54.7983 218.218C51.51 218.554 49.107 221.501 49.4424 224.79C49.7778 228.078 52.7252 230.481 56.0135 230.146C59.3018 229.81 61.7049 226.863 61.3694 223.574C61.034 220.289 58.0866 217.886 54.7983 218.218Z" fill="#71B7EA"/>
<path d="M58.3503 218.966C59.3318 219.914 59.9972 221.201 60.1484 222.664C60.4838 225.952 58.0808 228.9 54.7925 229.235C53.5113 229.365 52.285 229.079 51.2402 228.488C52.4665 229.673 54.1876 230.332 56.0133 230.148C59.3016 229.813 61.7046 226.865 61.3692 223.577C61.1657 221.567 59.9862 219.892 58.3503 218.966Z" fill="#5499DD"/>
<path d="M54.9383 219.607C52.4116 219.866 50.5695 222.123 50.8279 224.65C51.0863 227.177 53.3437 229.019 55.8704 228.76C58.3971 228.502 60.2392 226.245 59.9808 223.718C59.7251 221.191 57.4678 219.349 54.9383 219.607Z" fill="#FF766C"/>
<path d="M56.8878 219.829C57.5532 220.538 58.0013 221.465 58.1086 222.507C58.367 225.034 56.5249 227.291 53.9982 227.55C53.3191 227.619 52.6565 227.536 52.0488 227.327C52.9974 228.336 54.3886 228.911 55.8706 228.76C58.3973 228.501 60.2394 226.244 59.9809 223.717C59.794 221.869 58.5375 220.39 56.8878 219.829Z" fill="#F75B57"/>
<path d="M54.2653 221.474C53.6522 221.199 52.8466 221.658 52.4672 222.5C52.0878 223.344 52.2802 224.249 52.8933 224.526C53.5092 224.801 54.312 224.342 54.6915 223.501C55.0709 222.657 54.8784 221.749 54.2653 221.474Z" fill="#FFA69F"/>
<path d="M66.6762 149.749C63.3879 150.084 60.9849 153.032 61.3203 156.32C61.6557 159.608 64.6032 162.012 67.8915 161.676C71.1798 161.341 73.5828 158.393 73.2474 155.105C72.9119 151.819 69.9645 149.416 66.6762 149.749Z" fill="#71B7EA"/>
<path d="M70.228 150.497C71.2096 151.446 71.8749 152.732 72.0234 154.195C72.3588 157.484 69.9558 160.431 66.6675 160.767C65.3862 160.896 64.16 160.61 63.1152 160.019C64.3415 161.204 66.0626 161.864 67.8883 161.68C71.1766 161.344 73.5796 158.397 73.2441 155.108C73.0434 153.098 71.8639 151.424 70.228 150.497Z" fill="#5499DD"/>
<path d="M66.8192 151.138C64.2924 151.396 62.4503 153.653 62.7088 156.18C62.9672 158.707 65.2245 160.549 67.7512 160.291C70.278 160.032 72.1201 157.775 71.8616 155.248C71.6032 152.719 69.3459 150.879 66.8192 151.138Z" fill="#FF766C"/>
<path d="M68.7656 151.357C69.4309 152.067 69.8791 152.993 69.9836 154.035C70.242 156.562 68.3999 158.82 65.8732 159.078C65.1941 159.147 64.5315 159.064 63.9238 158.855C64.8724 159.865 66.2609 160.439 67.7456 160.288C70.2723 160.03 72.1144 157.772 71.8559 155.245C71.6717 153.4 70.4152 151.921 68.7656 151.357Z" fill="#F75B57"/>
<path d="M66.1432 153.002C65.5301 152.727 64.7245 153.186 64.3451 154.027C63.9657 154.871 64.1582 155.776 64.7713 156.054C65.3872 156.329 66.19 155.869 66.5694 155.028C66.9488 154.187 66.7564 153.279 66.1432 153.002Z" fill="#FFA69F"/>
<path d="M68.3696 166.392C65.0812 166.728 62.6782 169.675 63.0137 172.964C63.3491 176.252 66.2965 178.655 69.5848 178.32C72.8732 177.984 75.2762 175.037 74.9407 171.748C74.6053 168.463 71.6579 166.059 68.3696 166.392Z" fill="#71B7EA"/>
<path d="M71.9216 167.14C72.9031 168.088 73.5685 169.375 73.7197 170.838C74.0551 174.126 71.6521 177.074 68.3638 177.409C67.0826 177.538 65.8563 177.253 64.8115 176.661C66.0378 177.846 67.7589 178.506 69.5846 178.322C72.8729 177.987 75.2759 175.039 74.9405 171.751C74.7343 169.741 73.5575 168.066 71.9216 167.14Z" fill="#5499DD"/>
<path d="M68.5096 167.781C65.9829 168.039 64.1407 170.297 64.3992 172.824C64.6576 175.351 66.9149 177.193 69.4417 176.934C71.9684 176.676 73.8105 174.418 73.5521 171.892C73.2964 169.365 71.0391 167.523 68.5096 167.781Z" fill="#FF766C"/>
<path d="M70.4591 168.001C71.1245 168.71 71.5727 169.637 71.6799 170.679C71.9383 173.206 70.0962 175.463 67.5695 175.722C66.8903 175.79 66.2277 175.708 65.6201 175.499C66.5687 176.508 67.9571 177.083 69.4418 176.932C71.9686 176.673 73.8107 174.416 73.5522 171.889C73.3653 170.044 72.1088 168.565 70.4591 168.001Z" fill="#F75B57"/>
<path d="M67.8366 169.645C67.2207 169.37 66.4179 169.829 66.0385 170.671C65.6591 171.515 65.8515 172.419 66.4646 172.697C67.0805 172.972 67.8833 172.513 68.2628 171.672C68.6422 170.83 68.4497 169.923 67.8366 169.645Z" fill="#FFA69F"/>
<path d="M70.0639 183.035C66.7756 183.37 64.3726 186.318 64.708 189.606C65.0434 192.895 67.9908 195.298 71.2792 194.962C74.5675 194.627 76.9705 191.679 76.6351 188.391C76.2996 185.105 73.3523 182.702 70.0639 183.035Z" fill="#71B7EA"/>
<path d="M73.6157 183.782C74.5973 184.731 75.2626 186.018 75.4111 187.48C75.7465 190.769 73.3435 193.716 70.0552 194.052C68.774 194.181 67.5477 193.895 66.5029 193.304C67.7292 194.489 69.4503 195.149 71.2759 194.965C74.5643 194.629 76.9673 191.682 76.6319 188.393C76.4284 186.383 75.2489 184.709 73.6157 183.782Z" fill="#5499DD"/>
<path d="M70.204 184.424C67.6772 184.682 65.8351 186.939 66.0935 189.466C66.352 191.993 68.6093 193.835 71.136 193.577C73.6627 193.318 75.5049 191.061 75.2464 188.534C74.9907 186.007 72.7334 184.165 70.204 184.424Z" fill="#FF766C"/>
<path d="M72.1535 184.644C72.8188 185.353 73.267 186.28 73.3742 187.322C73.6326 189.848 71.7905 192.106 69.2638 192.364C68.5847 192.433 67.9221 192.351 67.3145 192.142C68.263 193.151 69.6514 193.725 71.1361 193.574C73.6629 193.316 75.505 191.058 75.2466 188.531C75.0596 186.686 73.8031 185.207 72.1535 184.644Z" fill="#F75B57"/>
<path d="M69.53 186.288C68.9168 186.013 68.1112 186.472 67.7318 187.313C67.3524 188.155 67.5449 189.062 68.158 189.34C68.7711 189.615 69.5767 189.156 69.9561 188.314C70.3356 187.473 70.1431 186.565 69.53 186.288Z" fill="#FFA69F"/>
<path d="M78.2697 206.697C78.8444 203.437 76.6675 200.328 73.4075 199.753C70.1476 199.179 67.039 201.356 66.4643 204.616C65.8897 207.876 68.0665 210.984 71.3265 211.559C74.5864 212.134 77.695 209.957 78.2697 206.697Z" fill="#71B7EA"/>
<path d="M75.3063 200.427C76.2879 201.375 76.9533 202.662 77.1045 204.125C77.4399 207.413 75.0369 210.361 71.7486 210.696C70.4673 210.826 69.2411 210.54 68.1963 209.948C69.4225 211.134 71.1437 211.793 72.9693 211.609C76.2576 211.274 78.6606 208.326 78.3252 205.038C78.1217 203.028 76.9422 201.353 75.3063 200.427Z" fill="#5499DD"/>
<path d="M71.8973 201.067C69.3705 201.326 67.5284 203.583 67.7869 206.11C68.0453 208.637 70.3026 210.479 72.8293 210.22C75.3561 209.962 77.1982 207.705 76.9398 205.178C76.6813 202.651 74.424 200.809 71.8973 201.067Z" fill="#FF766C"/>
<path d="M73.8467 201.287C74.512 201.996 74.9602 202.923 75.0647 203.965C75.3203 206.492 73.481 208.749 70.9543 209.008C70.2751 209.077 69.6125 208.994 69.0049 208.785C69.9534 209.794 71.3419 210.369 72.8266 210.218C75.3533 209.962 77.1955 207.702 76.937 205.175C76.7528 203.33 75.4963 201.851 73.8467 201.287Z" fill="#F75B57"/>
<path d="M71.2204 202.931C70.6073 202.656 69.8017 203.116 69.4223 203.957C69.0428 204.801 69.2353 205.706 69.8484 205.983C70.4616 206.258 71.2671 205.799 71.6466 204.958C72.026 204.116 71.8363 203.209 71.2204 202.931Z" fill="#FFA69F"/>
<path d="M73.4506 216.321C70.1623 216.656 67.7593 219.604 68.0947 222.892C68.4302 226.181 71.3776 228.584 74.6659 228.248C77.9542 227.913 80.3572 224.965 80.0218 221.677C79.6864 218.391 76.739 215.988 73.4506 216.321Z" fill="#71B7EA"/>
<path d="M76.9997 217.068C77.9812 218.017 78.6466 219.304 78.7978 220.767C79.1332 224.055 76.7302 227.003 73.4419 227.338C72.1607 227.467 70.9344 227.181 69.8896 226.59C71.1159 227.775 72.837 228.435 74.6627 228.251C77.951 227.915 80.354 224.968 80.0186 221.679C79.8151 219.669 78.6356 217.995 76.9997 217.068Z" fill="#5499DD"/>
<path d="M73.5906 217.71C71.0639 217.968 69.2218 220.226 69.4802 222.752C69.7387 225.279 71.996 227.121 74.5227 226.863C77.0494 226.605 78.8915 224.347 78.6331 221.82C78.3747 219.293 76.1174 217.451 73.5906 217.71Z" fill="#FF766C"/>
<path d="M75.5371 217.93C76.2024 218.639 76.6506 219.566 76.7551 220.608C77.0135 223.135 75.1714 225.392 72.6447 225.65C71.9656 225.719 71.3029 225.637 70.6953 225.428C71.6439 226.437 73.0323 227.011 74.517 226.86C77.0438 226.602 78.8859 224.344 78.6274 221.818C78.4432 219.973 77.1867 218.493 75.5371 217.93Z" fill="#F75B57"/>
<path d="M72.9147 219.574C72.3016 219.299 71.496 219.758 71.1166 220.599C70.7372 221.444 70.9296 222.348 71.5428 222.626C72.1559 222.901 72.9615 222.442 73.3409 221.6C73.7203 220.759 73.5306 219.852 72.9147 219.574Z" fill="#FFA69F"/>
<path d="M84.65 212.323L64.3235 214.393L62.7068 198.509L83.0334 196.438L82.9344 195.468L62.6078 197.538L61.0489 182.212L81.3755 180.144L81.2765 179.174L60.9499 181.241L59.3277 165.291L79.6543 163.224L79.5553 162.253L59.2288 164.321L57.0787 143.174L56.1054 143.273L58.2582 164.42L37.9316 166.487L38.0306 167.461L58.3572 165.39L59.9794 181.34L39.6528 183.408L39.7518 184.379L60.0783 182.311L61.6373 197.637L41.3107 199.705L41.4097 200.675L61.7363 198.608L63.3529 214.489L43.0263 216.56L43.1226 217.53L63.4519 215.463L65.613 236.722L66.5835 236.623L64.4225 215.364L84.749 213.293L84.65 212.323Z" fill="#BBDFFF"/>
<path d="M102.862 164.786C101.177 161.415 88.958 161.203 87.7895 164.786C87.0664 167.005 83.2282 171.421 80.3771 174.492C78.326 176.703 77.1904 179.603 77.1904 182.617V231.831C77.1904 234.086 79.0188 235.914 81.2733 235.914H109.378C111.633 235.914 113.461 234.086 113.461 231.831V182.545C113.461 179.581 112.364 176.719 110.371 174.525C107.756 171.646 104.226 167.514 102.862 164.786Z" fill="#243B9B"/>
<path d="M102.862 164.786C101.817 162.696 96.7278 161.822 92.7273 162.311C94.4182 164.783 96.9395 167.7 98.9273 169.892C100.921 172.086 102.018 174.948 102.018 177.912C102.018 177.912 104.907 219.414 101.594 225.799C96.2548 236.09 77.1875 231.281 77.1875 231.281V231.834C77.1875 234.089 79.0159 235.917 81.2704 235.917H109.375C111.63 235.917 113.458 234.089 113.458 231.834V182.545C113.458 179.581 112.361 176.719 110.368 174.525C107.756 171.646 104.225 167.513 102.862 164.786Z" fill="#1B2C89"/>
<path d="M87.7889 164.786C87.6019 165.355 87.2115 166.07 86.6836 166.87H104.118C103.609 166.122 103.177 165.416 102.861 164.786C101.176 161.415 88.9574 161.203 87.7889 164.786Z" fill="#0A1A60"/>
<path d="M96.3121 135.445H93.8679C91.5941 135.445 89.752 137.288 89.752 139.561V151.035C89.752 153.309 91.5941 155.151 93.8679 155.151H96.3121C98.5859 155.151 100.428 153.309 100.428 151.035V139.561C100.428 137.288 98.5859 135.445 96.3121 135.445Z" fill="white"/>
<path d="M96.3124 135.445H95.1136C96.4003 136.141 97.2774 137.502 97.2774 139.069V150.543C97.2774 152.817 95.4353 154.659 93.1615 154.659H91.916C92.4961 154.973 93.1615 155.151 93.8681 155.151H96.3124C98.5861 155.151 100.428 153.309 100.428 151.035V139.561C100.428 137.288 98.5861 135.445 96.3124 135.445Z" fill="#EFF5F9"/>
<path d="M100.428 148.748H89.752V153.081H100.428V148.748Z" fill="#EFF5F9"/>
<path d="M101.787 149.869H88.3913C86.8022 149.869 85.5127 151.159 85.5127 152.748V163.708H104.668V152.748C104.668 151.159 103.379 149.869 101.787 149.869Z" fill="white"/>
<path d="M101.787 149.869H96.7056C98.1546 149.869 99.3286 151.043 99.3286 152.492V161.354H85.5127V163.708H104.668V152.748C104.668 151.159 103.379 149.869 101.787 149.869Z" fill="#EFF5F9"/>
<path d="M105.012 162.177H85.1691C84.2315 162.177 83.4727 162.936 83.4727 163.873C83.4727 164.811 84.2315 165.57 85.1691 165.57H105.012C105.949 165.57 106.708 164.811 106.708 163.873C106.708 162.938 105.949 162.177 105.012 162.177Z" fill="white"/>
<path d="M83.5113 182.823C82.4088 182.823 81.5098 183.725 81.5098 184.825V223.794C81.5098 224.897 82.4116 225.796 83.5113 225.796C84.6111 225.796 85.5129 224.894 85.5129 223.794V184.828C85.5129 183.725 84.6111 182.823 83.5113 182.823Z" fill="#4465CC"/>
<path d="M87.0605 172.683C85.9662 172.237 84.5145 173.255 83.8244 174.954C83.1315 176.653 83.4587 178.394 84.5557 178.839C85.6528 179.284 87.1017 178.267 87.7918 176.568C88.4847 174.869 88.1575 173.128 87.0605 172.683Z" fill="#4465CC"/>
<path d="M154.496 195.468C153.995 197.448 153.47 199.474 153.093 202.345C152.813 204.484 152.827 205.477 152.511 209.362C152.483 209.686 152.458 209.997 152.434 210.299L167.184 214.545C167.325 214.256 167.47 213.962 167.624 213.651C169.351 210.156 169.871 209.312 170.728 207.333C171.878 204.677 172.471 202.669 173.057 200.712C173.819 198.177 183.252 166.458 187.918 150.763L168.207 145.091C163.888 160.904 155.15 192.886 154.496 195.468Z" fill="white"/>
<path d="M160.118 211.215C156.811 210.338 154.378 208.416 152.717 206.609C152.665 207.349 152.601 208.232 152.511 209.362C152.318 211.74 152.148 213.409 151.906 215.796C151.614 218.663 151.392 220.42 150.339 228.562C149.096 238.185 149.027 238.669 148.851 239.722C148.194 243.695 147.548 246.684 146.784 250.239C146.401 252.007 145.706 254.947 144.312 260.831C143.281 265.183 143.039 266.124 142.734 266.984C142.571 267.438 142.448 267.905 142.2 268.843C141.843 270.193 141.818 270.52 141.906 270.867C141.972 271.133 142.231 271.862 143.218 272.448C144.367 272.453 144.933 272.06 145.128 271.867C145.381 271.614 145.53 271.323 145.915 269.981C146.181 269.052 146.316 268.587 146.41 268.114C146.591 267.218 146.866 266.289 148.216 262.024C150.042 256.261 150.954 253.379 151.537 251.666C152.706 248.224 153.69 245.329 155.167 241.581C155.557 240.588 155.747 240.135 159.626 231.24C162.906 223.714 163.618 222.092 164.842 219.483C165.859 217.308 166.571 215.79 167.627 213.651C168.218 212.455 168.669 211.567 169.038 210.841C166.101 211.817 163.019 211.982 160.118 211.215Z" fill="#7BB7FF"/>
<path d="M183.508 129.44L183.244 129.363C177.822 127.802 172.158 130.933 170.599 136.358C170.599 136.358 169.414 140.692 167.685 147.013L187.354 152.672C189.221 146.392 190.502 142.086 190.502 142.086C192.061 136.664 188.929 131.002 183.508 129.44Z" fill="#7BB7FF"/>
<path d="M142.734 266.984C142.571 267.438 142.448 267.905 142.2 268.843C141.843 270.193 141.818 270.52 141.906 270.867C141.972 271.133 142.231 271.862 143.218 272.448C144.367 272.453 144.933 272.06 145.128 271.867C145.381 271.614 145.53 271.323 145.915 269.981C146.181 269.052 146.316 268.587 146.41 268.114C146.544 267.449 146.729 266.767 147.364 264.73L143.638 263.657C143.146 265.678 142.956 266.352 142.734 266.984Z" fill="white"/>
<path d="M166.377 170.496L160.765 190.002L170.319 192.751L175.931 173.245L166.377 170.496Z" fill="#92C3FC"/>
<path d="M167.037 171.692L161.96 189.34L169.657 191.554L174.734 173.906L167.037 171.692Z" fill="#3845B8"/>
<path d="M176.139 155.05C173.72 154.354 171.196 155.751 170.5 158.168C169.804 160.587 171.201 163.112 173.618 163.807C176.037 164.503 178.561 163.106 179.257 160.689C179.953 158.27 178.559 155.745 176.139 155.05Z" fill="#F4D41E"/>
<path d="M177.836 155.963C178.025 156.716 178.025 157.527 177.794 158.328C177.099 160.747 174.575 162.141 172.155 161.446C171.509 161.259 170.937 160.942 170.459 160.533C170.841 162.056 172.001 163.34 173.618 163.805C176.038 164.5 178.562 163.103 179.257 160.687C179.769 158.916 179.153 157.087 177.836 155.963Z" fill="#F2C020"/>
<path opacity="0.12" d="M183.508 129.441L183.244 129.364C181.135 128.756 178.99 128.863 177.066 129.534C178.146 129.485 179.254 129.606 180.354 129.922L180.618 129.999C186.043 131.561 189.172 137.222 187.613 142.644C187.613 142.644 171.185 197.888 170.17 201.267C169.585 203.222 168.993 205.232 167.841 207.888C166.984 209.868 166.461 210.712 164.737 214.207C163.682 216.346 162.969 217.864 161.952 220.039C160.729 222.648 160.017 224.27 156.736 231.796C152.86 240.691 152.67 241.142 152.277 242.137C150.8 245.885 149.816 248.78 148.648 252.22C148.067 253.933 147.155 256.814 145.326 262.577C143.976 266.842 143.699 267.771 143.52 268.667C143.424 269.14 143.292 269.605 143.025 270.534C142.819 271.252 142.681 271.667 142.558 271.939C142.731 272.11 142.945 272.283 143.217 272.445C144.367 272.451 144.933 272.058 145.128 271.865C145.381 271.612 145.53 271.321 145.915 269.979C146.181 269.05 146.316 268.585 146.41 268.112C146.591 267.216 146.866 266.286 148.216 262.022C150.042 256.259 150.954 253.377 151.537 251.664C152.706 248.222 153.69 245.326 155.167 241.579C155.557 240.586 155.747 240.133 159.626 231.238C162.906 223.712 163.618 222.09 164.842 219.481C165.859 217.306 166.571 215.788 167.627 213.649C169.354 210.154 169.873 209.31 170.731 207.33C171.88 204.674 172.474 202.667 173.06 200.709C174.074 197.327 190.502 142.086 190.502 142.086C192.061 136.664 188.93 131.002 183.508 129.441Z" fill="#001635"/>
<path d="M171.163 180.568C169.316 184.805 168.546 185.713 167.776 186.348C166.17 187.67 164.171 188.118 162.296 188.165L161.961 189.334L169.657 191.547L174.735 173.9L173.858 173.647C173.184 175.605 172.302 177.956 171.163 180.568Z" fill="#1B2C89"/>
<path d="M166.225 174.517L165.469 177.137L171.056 172.84L169.125 172.284L166.225 174.517Z" fill="#4F62D3"/>
<path d="M164.993 178.798L164.468 180.621L173.406 173.516L172.276 173.191L164.993 178.798Z" fill="#4F62D3"/>
<path d="M173.753 156.579C172.917 156.832 172.372 157.489 172.543 158.047C172.711 158.605 173.527 158.853 174.363 158.6C175.199 158.347 175.743 157.69 175.573 157.132C175.402 156.576 174.589 156.329 173.753 156.579Z" fill="#FFEC66"/>
<path d="M155.122 213.593C154.669 213.533 154.256 213.852 154.196 214.305C153.786 217.39 153.327 220.506 152.835 223.574C152.329 226.717 151.774 229.898 151.18 233.038C151.095 233.486 151.389 233.918 151.837 234.006C152.288 234.091 152.722 233.797 152.807 233.346C153.404 230.19 153.962 226.995 154.471 223.835C154.966 220.75 155.425 217.621 155.837 214.523C155.898 214.072 155.576 213.654 155.122 213.593Z" fill="#92C9FF"/>
<path d="M175.024 136.279C174.416 136.103 173.775 136.457 173.599 137.065L171.372 144.805C171.196 145.413 171.551 146.053 172.159 146.229C172.766 146.405 173.407 146.05 173.583 145.443L175.81 137.703C175.986 137.092 175.631 136.452 175.024 136.279Z" fill="#92C9FF"/>
<path d="M39.273 181.26L5.06445 190.781L22.9825 255.151C23.7111 257.766 26.4221 259.298 29.0368 258.569L53.7735 251.681C56.3882 250.953 57.9196 248.242 57.191 245.627L39.273 181.26Z" fill="#FF7A01"/>
<path d="M39.2725 181.26L29.9684 183.85L47.2541 245.951C47.9827 248.566 46.4513 251.277 43.8366 252.006L24.3623 257.428C25.5721 258.555 27.3262 259.048 29.0363 258.572L53.7731 251.684C56.3878 250.956 57.9192 248.245 57.1906 245.63L39.2725 181.26Z" fill="#F76F00"/>
<path d="M39.2865 181.26L5.07715 190.784L5.73122 193.134L39.9406 183.61L39.2865 181.26Z" fill="#EF6C00"/>
<path d="M33.2028 164.517L1.63965 173.305L3.36664 179.508L34.9298 170.721L33.2028 164.517Z" fill="#FCFCFC"/>
<path d="M33.2017 164.522L25.9043 166.554L27.6313 172.757L34.9287 170.726L33.2017 164.522Z" fill="#F0F4F7"/>
<path d="M34.5134 169.953L3.34301 178.631C2.79313 178.785 2.47145 179.354 2.62542 179.901L3.46673 182.92L36.6277 173.69L35.7864 170.671C35.6324 170.124 35.0633 169.802 34.5134 169.953Z" fill="#F0F4F7"/>
<path d="M34.5135 169.953L27.1973 171.991C27.6812 171.856 28.1815 172.139 28.3163 172.623L29.1906 175.76L36.6251 173.69L35.7838 170.671C35.6325 170.124 35.0634 169.802 34.5135 169.953Z" fill="#E1E6EA"/>
<path d="M37.711 170.736L0.874036 180.992C0.238916 181.168 -0.132263 181.825 0.043701 182.46L1.93256 189.249L41.068 178.355L39.1792 171.567C39.0032 170.929 38.3434 170.558 37.711 170.736Z" fill="#FCFCFC"/>
<path d="M37.7108 170.736L28.7256 173.238C29.3607 173.062 30.0178 173.434 30.1938 174.069L32.0827 180.857L41.0678 178.355L39.179 171.567C39.003 170.929 38.3431 170.558 37.7108 170.736Z" fill="#EAF0F4"/>
<path d="M8.40788 180.022C8.36664 179.87 8.20991 179.782 8.0587 179.824C7.90748 179.865 7.8195 180.022 7.86074 180.173L9.29594 185.328C9.33718 185.479 9.49391 185.567 9.64513 185.526C9.79634 185.485 9.88432 185.328 9.84308 185.177L8.40788 180.022Z" fill="#E4E8ED"/>
<path d="M7.17546 180.365C7.13421 180.214 6.97752 180.126 6.8263 180.167C6.67509 180.209 6.58708 180.365 6.62832 180.517L8.06355 185.672C8.10479 185.823 8.26148 185.911 8.4127 185.87C8.56392 185.829 8.65193 185.672 8.61069 185.521L7.17546 180.365Z" fill="#E4E8ED"/>
<path d="M5.94401 180.709C5.90277 180.558 5.74605 180.47 5.59483 180.511C5.44361 180.552 5.35564 180.709 5.39688 180.86L6.83207 186.016C6.87332 186.167 7.03004 186.255 7.18126 186.214C7.33248 186.172 7.42049 186.016 7.37924 185.865L5.94401 180.709Z" fill="#E4E8ED"/>
<path d="M4.7155 181.05C4.67426 180.899 4.51753 180.811 4.36631 180.852C4.21509 180.893 4.12712 181.05 4.16836 181.201L5.60356 186.357C5.6448 186.508 5.80152 186.596 5.95274 186.555C6.10396 186.513 6.19194 186.357 6.15069 186.205L4.7155 181.05Z" fill="#E4E8ED"/>
<path d="M3.48307 181.394C3.44183 181.242 3.28511 181.154 3.13389 181.196C2.98267 181.237 2.8947 181.394 2.93594 181.545L4.37114 186.7C4.41238 186.852 4.5691 186.94 4.72032 186.898C4.87154 186.857 4.95951 186.7 4.91827 186.549L3.48307 181.394Z" fill="#E4E8ED"/>
<path d="M2.25163 181.737C2.21039 181.586 2.05366 181.498 1.90245 181.539C1.75123 181.581 1.66325 181.737 1.70449 181.889L3.13969 187.044C3.18093 187.195 3.33766 187.283 3.48888 187.242C3.64009 187.201 3.72807 187.044 3.68683 186.893L2.25163 181.737Z" fill="#E4E8ED"/>
<path d="M9.63932 179.681C9.59808 179.53 9.44136 179.442 9.29014 179.483C9.13892 179.524 9.05095 179.681 9.09219 179.832L10.5274 184.987C10.5686 185.139 10.7254 185.227 10.8766 185.185C11.0278 185.144 11.1158 184.987 11.0745 184.836L9.63932 179.681Z" fill="#E4E8ED"/>
<path d="M10.8708 179.337C10.8295 179.186 10.6728 179.098 10.5216 179.139C10.3704 179.18 10.2824 179.337 10.3236 179.488L11.7588 184.644C11.8001 184.795 11.9568 184.883 12.108 184.842C12.2592 184.8 12.3472 184.644 12.306 184.492L10.8708 179.337Z" fill="#E4E8ED"/>
<path d="M12.1032 178.993C12.062 178.842 11.9052 178.754 11.754 178.795C11.6028 178.837 11.5148 178.993 11.5561 179.144L12.9913 184.3C13.0325 184.451 13.1892 184.539 13.3404 184.498C13.4917 184.457 13.5796 184.3 13.5384 184.149L12.1032 178.993Z" fill="#E4E8ED"/>
<path d="M13.3346 178.652C13.2934 178.501 13.1367 178.413 12.9855 178.454C12.8342 178.496 12.7463 178.652 12.7875 178.804L14.2227 183.959C14.2639 184.11 14.4207 184.198 14.5719 184.157C14.7231 184.116 14.8111 183.959 14.7699 183.808L13.3346 178.652Z" fill="#E4E8ED"/>
<path d="M14.5661 178.309C14.5248 178.157 14.3681 178.07 14.2169 178.111C14.0657 178.152 13.9777 178.309 14.0189 178.46L15.4542 183.615C15.4954 183.767 15.6521 183.855 15.8033 183.813C15.9545 183.772 16.0426 183.615 16.0013 183.464L14.5661 178.309Z" fill="#E4E8ED"/>
<path d="M15.7985 177.965C15.7573 177.814 15.6005 177.726 15.4493 177.767C15.2981 177.808 15.2101 177.965 15.2514 178.116L16.6866 183.272C16.7278 183.423 16.8845 183.511 17.0358 183.47C17.187 183.428 17.2749 183.272 17.2337 183.12L15.7985 177.965Z" fill="#E4E8ED"/>
<path d="M17.0299 177.621C16.9887 177.47 16.832 177.382 16.6808 177.423C16.5295 177.464 16.4416 177.621 16.4828 177.772L17.918 182.928C17.9593 183.079 18.116 183.167 18.2672 183.126C18.4184 183.085 18.5064 182.928 18.4651 182.777L17.0299 177.621Z" fill="#E4E8ED"/>
<path d="M18.2614 177.28C18.2202 177.129 18.0634 177.041 17.9122 177.082C17.761 177.124 17.673 177.28 17.7143 177.432L19.1495 182.587C19.1907 182.738 19.3474 182.826 19.4986 182.785C19.6499 182.744 19.7378 182.587 19.6966 182.436L18.2614 177.28Z" fill="#E4E8ED"/>
<path d="M19.4938 176.937C19.4526 176.785 19.2959 176.697 19.1446 176.739C18.9934 176.78 18.9054 176.937 18.9467 177.088L20.3819 182.243C20.4231 182.395 20.5798 182.483 20.7311 182.441C20.8823 182.4 20.9703 182.243 20.929 182.092L19.4938 176.937Z" fill="#E4E8ED"/>
<path d="M20.7253 176.593C20.684 176.442 20.5273 176.354 20.3761 176.395C20.2249 176.436 20.1369 176.593 20.1781 176.744L21.6133 181.9C21.6546 182.051 21.8113 182.139 21.9625 182.098C22.1137 182.056 22.2017 181.9 22.1605 181.748L20.7253 176.593Z" fill="#E4E8ED"/>
<path d="M21.9538 176.252C21.9125 176.101 21.7558 176.013 21.6046 176.054C21.4534 176.095 21.3654 176.252 21.4066 176.403L22.8419 181.559C22.8831 181.71 23.0398 181.798 23.191 181.757C23.3422 181.715 23.4302 181.559 23.389 181.408L21.9538 176.252Z" fill="#E4E8ED"/>
<path d="M23.1862 175.908C23.145 175.757 22.9882 175.669 22.837 175.71C22.6858 175.752 22.5978 175.908 22.6391 176.06L24.0743 181.215C24.1155 181.366 24.2722 181.454 24.4234 181.413C24.5747 181.372 24.6626 181.215 24.6214 181.064L23.1862 175.908Z" fill="#E4E8ED"/>
<path d="M24.4176 175.565C24.3764 175.413 24.2197 175.325 24.0685 175.367C23.9172 175.408 23.8293 175.565 23.8705 175.716L25.3057 180.871C25.3469 181.022 25.5037 181.11 25.6549 181.069C25.8061 181.028 25.8941 180.871 25.8528 180.72L24.4176 175.565Z" fill="#E4E8ED"/>
<path d="M25.6491 175.224C25.6078 175.073 25.4511 174.985 25.2999 175.026C25.1487 175.067 25.0607 175.224 25.102 175.375L26.5372 180.53C26.5784 180.682 26.7351 180.77 26.8863 180.728C27.0376 180.687 27.1255 180.53 27.0843 180.379L25.6491 175.224Z" fill="#E4E8ED"/>
<path d="M26.8815 174.88C26.8403 174.729 26.6835 174.641 26.5323 174.682C26.3811 174.723 26.2931 174.88 26.3344 175.031L27.7696 180.187C27.8108 180.338 27.9675 180.426 28.1188 180.385C28.27 180.343 28.358 180.187 28.3167 180.035L26.8815 174.88Z" fill="#E4E8ED"/>
<path d="M28.113 174.536C28.0717 174.385 27.915 174.297 27.7638 174.338C27.6126 174.38 27.5246 174.536 27.5658 174.687L29.001 179.843C29.0423 179.994 29.199 180.082 29.3502 180.041C29.5014 180 29.5894 179.843 29.5482 179.692L28.113 174.536Z" fill="#E4E8ED"/>
<path d="M29.3444 174.195C29.3032 174.044 29.1465 173.956 28.9953 173.997C28.844 174.039 28.756 174.195 28.7973 174.347L30.2325 179.502C30.2737 179.653 30.4304 179.741 30.5816 179.7C30.7329 179.659 30.8209 179.502 30.7796 179.351L29.3444 174.195Z" fill="#E4E8ED"/>
<path d="M30.5768 173.852C30.5356 173.7 30.3789 173.612 30.2276 173.654C30.0764 173.695 29.9884 173.852 30.0297 174.003L31.4649 179.158C31.5061 179.31 31.6629 179.398 31.8141 179.356C31.9653 179.315 32.0533 179.158 32.012 179.007L30.5768 173.852Z" fill="#E4E8ED"/>
<path d="M31.8083 173.508C31.767 173.357 31.6103 173.269 31.4591 173.31C31.3079 173.351 31.2199 173.508 31.2611 173.659L32.6963 178.815C32.7376 178.966 32.8943 179.054 33.0455 179.013C33.1967 178.971 33.2847 178.815 33.2435 178.663L31.8083 173.508Z" fill="#E4E8ED"/>
<path d="M33.0397 173.167C32.9985 173.016 32.8418 172.928 32.6905 172.969C32.5393 173.01 32.4513 173.167 32.4926 173.318L33.9278 178.474C33.969 178.625 34.1257 178.713 34.277 178.672C34.4282 178.63 34.5162 178.474 34.4749 178.323L33.0397 173.167Z" fill="#E4E8ED"/>
<path d="M34.2712 172.823C34.2299 172.672 34.0732 172.584 33.922 172.625C33.7708 172.667 33.6828 172.823 33.724 172.975L35.1592 178.13C35.2005 178.281 35.3572 178.369 35.5084 178.328C35.6596 178.287 35.7476 178.13 35.7064 177.979L34.2712 172.823Z" fill="#E4E8ED"/>
<path d="M35.5036 172.48C35.4623 172.328 35.3056 172.24 35.1544 172.282C35.0032 172.323 34.9152 172.48 34.9564 172.631L36.3916 177.786C36.4329 177.937 36.5896 178.025 36.7408 177.984C36.892 177.943 36.98 177.786 36.9388 177.635L35.5036 172.48Z" fill="#E4E8ED"/>
<path d="M36.7321 172.139C36.6909 171.988 36.5342 171.9 36.3829 171.941C36.2317 171.982 36.1437 172.139 36.185 172.29L37.6202 177.445C37.6614 177.597 37.8181 177.685 37.9693 177.643C38.1206 177.602 38.2086 177.445 38.1673 177.294L36.7321 172.139Z" fill="#E4E8ED"/>
<path d="M37.9645 171.795C37.9233 171.644 37.7666 171.556 37.6153 171.597C37.4641 171.638 37.3761 171.795 37.4174 171.946L38.8526 177.102C38.8938 177.253 39.0505 177.341 39.2018 177.3C39.353 177.258 39.441 177.102 39.3997 176.95L37.9645 171.795Z" fill="#E4E8ED"/>
<path d="M42.6631 177.72C42.5503 177.314 42.1269 177.074 41.72 177.187L0.868883 188.559C0.461966 188.672 0.222781 189.095 0.335508 189.502L1.01736 191.947C1.13009 192.354 1.55348 192.593 1.9604 192.48L42.8116 181.108C43.2185 180.995 43.4576 180.572 43.3449 180.165L42.6631 177.72Z" fill="white"/>
<path d="M42.6626 177.72C42.5498 177.314 42.1264 177.074 41.7195 177.187L31.959 179.904C32.3659 179.791 32.7893 180.03 32.9021 180.437L33.5839 182.881C33.6966 183.288 33.4575 183.712 33.0505 183.825L42.811 181.108C43.218 180.995 43.4571 180.572 43.3444 180.165L42.6626 177.72Z" fill="#EFF5F9"/>
<path d="M43.1684 179.538L0.84082 191.323L1.04152 192.043C1.1405 192.401 1.51168 192.61 1.86911 192.511L42.9017 181.089C43.2591 180.99 43.4681 180.619 43.3691 180.261L43.1684 179.538Z" fill="#FFB206"/>
<path d="M43.1684 179.538L0.84082 191.323L1.04152 192.043C1.1405 192.401 1.51168 192.61 1.86911 192.511L42.9017 181.089C43.2591 180.99 43.4681 180.619 43.3691 180.261L43.1684 179.538Z" fill="#FFB206"/>
<path d="M43.1691 179.538L33.6368 182.191L33.8375 182.912C33.9365 183.269 33.7275 183.64 33.3701 183.739L42.9024 181.086C43.2599 180.987 43.4688 180.616 43.3698 180.258L43.1691 179.538Z" fill="#FF9A08"/>
<path d="M9.34779 171.161L3.98926 172.652L5.48102 178.011L10.8396 176.519L9.34779 171.161Z" fill="white"/>
<path d="M6.99396 172.997L1.56658 174.51C1.34112 174.573 1.2174 174.848 1.29438 175.126C1.37137 175.403 1.61882 175.576 1.84427 175.513L7.27166 174.001C7.49711 173.938 7.62083 173.663 7.54385 173.385C7.46687 173.107 7.21942 172.934 6.99396 172.997Z" fill="#EDEDED"/>
<path d="M20.0427 171.328L2.07243 176.333C1.84698 176.396 1.72326 176.671 1.80024 176.949C1.87723 177.226 2.12468 177.399 2.35013 177.336L20.3204 172.335C20.5459 172.272 20.6696 171.997 20.5899 171.719C20.5156 171.438 20.271 171.265 20.0427 171.328Z" fill="#EDEDED"/>
<path d="M34.1204 166.28L28.5555 167.828C28.3301 167.891 28.2091 168.177 28.2916 168.466C28.3713 168.755 28.6215 168.939 28.847 168.876L34.4118 167.328C34.6373 167.264 34.7583 166.978 34.6758 166.69C34.596 166.401 34.3458 166.217 34.1204 166.28Z" fill="#E1E6EA"/>
<path d="M10.4642 176.992L5.49321 178.375C5.24301 178.444 5.09455 178.708 5.16329 178.958C5.23202 179.209 5.49597 179.357 5.74617 179.288L10.7171 177.905C10.9673 177.837 11.1158 177.573 11.0471 177.322C10.9784 177.072 10.7144 176.924 10.4642 176.992Z" fill="white"/>
<path d="M6.92844 172.769L1.50105 174.281C1.2756 174.344 1.14086 174.578 1.20409 174.806C1.26733 175.032 1.50104 175.166 1.72925 175.103L7.15663 173.591C7.38208 173.528 7.51679 173.294 7.45356 173.066C7.39032 172.837 7.15664 172.706 6.92844 172.769Z" fill="white"/>
<path d="M19.9802 171.099L2.00984 176.1C1.78439 176.164 1.64965 176.397 1.71288 176.625C1.77612 176.851 2.00983 176.986 2.23803 176.922L20.2083 171.918C20.4338 171.855 20.5685 171.621 20.5053 171.393C20.4421 171.168 20.2084 171.036 19.9802 171.099Z" fill="white"/>
<path d="M34.0678 166.098L28.503 167.646C28.2775 167.709 28.1428 167.943 28.206 168.171C28.2693 168.396 28.503 168.531 28.7312 168.468L34.296 166.92C34.5215 166.857 34.6562 166.623 34.593 166.395C34.5297 166.167 34.296 166.035 34.0678 166.098Z" fill="white"/>
<path d="M17.808 204.254C17.5578 203.352 16.612 202.818 15.7102 203.069L14.319 203.456C13.4172 203.706 12.8838 204.652 13.134 205.554L24.8741 247.732C25.1243 248.634 26.0701 249.168 26.9719 248.917L28.3631 248.53C29.2649 248.28 29.7983 247.334 29.5481 246.432L17.808 204.254Z" fill="#FF9E03"/>
<path d="M14.9894 196.253C14.7392 195.351 13.7934 194.817 12.8916 195.068L12.0475 195.301C11.1457 195.552 10.6123 196.497 10.8625 197.399L11.4619 199.555C11.7121 200.457 12.6579 200.99 13.5597 200.74L14.4038 200.506C15.3056 200.256 15.839 199.31 15.5888 198.408L14.9894 196.253Z" fill="#FF9E03"/>
<path d="M44.0924 198.512L23.1562 204.341L29.5768 227.405L50.513 221.576L44.0924 198.512Z" fill="#F4F4F4"/>
<path d="M39.2236 199.871C42.1407 205.706 42.5559 212.044 40.0182 216.883C37.6316 221.431 33.535 223.603 33.535 223.603C31.8413 224.499 30.2219 224.931 28.9297 225.137L29.562 227.411L50.499 221.582L44.0763 198.519L39.2236 199.871Z" fill="#DFE7ED"/>
<path d="M34.6293 211.681L30.0598 212.954C29.7106 213.05 29.4879 213.342 29.5621 213.603C29.6336 213.864 29.9773 213.999 30.3237 213.903L34.8933 212.63C35.2425 212.533 35.4652 212.242 35.3909 211.981C35.3195 211.717 34.9785 211.582 34.6293 211.681Z" fill="#90AFBF"/>
<path d="M38.7394 213.168L30.7385 215.395C30.3893 215.491 30.1666 215.783 30.2408 216.044C30.3151 216.305 30.656 216.44 31.0024 216.344L39.0033 214.117C39.3525 214.02 39.5752 213.729 39.5009 213.468C39.4295 213.204 39.0885 213.072 38.7394 213.168Z" fill="#90AFBF"/>
<path d="M40.2081 218.433L32.2072 220.661C31.858 220.757 31.6353 221.048 31.7096 221.309C31.7838 221.571 32.1247 221.705 32.4712 221.609L40.472 219.382C40.8212 219.286 41.0439 218.994 40.9697 218.733C40.8954 218.472 40.5545 218.337 40.2081 218.433Z" fill="#90AFBF"/>
<path d="M36.0043 216.616L31.4348 217.889C31.0856 217.986 30.8629 218.277 30.9371 218.538C31.0114 218.8 31.3523 218.934 31.6987 218.838L36.2683 217.565C36.6175 217.469 36.8402 217.177 36.7659 216.916C36.6945 216.652 36.3535 216.52 36.0043 216.616Z" fill="#90AFBF"/>
<path d="M44.227 214.325L39.6574 215.598C39.3082 215.695 39.0855 215.986 39.1598 216.247C39.234 216.508 39.575 216.643 39.9214 216.547L44.4909 215.274C44.8401 215.178 45.0628 214.886 44.9886 214.625C44.9171 214.361 44.5762 214.229 44.227 214.325Z" fill="#90AFBF"/>
<path d="M44.0677 209.052L37.0676 211.001C36.7184 211.098 36.4957 211.389 36.5699 211.65C36.6442 211.911 36.9851 212.046 37.3315 211.95L44.3316 210.001C44.6808 209.904 44.9035 209.613 44.8293 209.352C44.7578 209.088 44.4168 208.956 44.0677 209.052Z" fill="#90AFBF"/>
<path d="M37.9561 204.413L29.1029 206.877C28.4898 207.047 28.1296 207.683 28.3001 208.299C28.4706 208.912 29.1057 209.272 29.7216 209.101L38.5748 206.638C39.1879 206.467 39.5481 205.832 39.3776 205.216C39.2044 204.603 38.5693 204.243 37.9561 204.413Z" fill="#F4D41E"/>
<path d="M173.5 219.439H27.7061V393.869H173.5V219.439Z" fill="#3DB8E8"/>
<path d="M121.594 359.777C102.87 375.848 77.1576 378.634 59.7152 381.24C47.263 383.102 36.323 383.459 27.709 383.28V393.866H173.503V219.439H161.939C164.826 266.229 157.755 328.74 121.594 359.777Z" fill="#33A0E2"/>
<path d="M53.9406 242.651C50.3966 242.651 47.5234 245.525 47.5234 249.069C47.5234 252.613 50.3966 255.486 53.9406 255.486C57.4847 255.486 60.3578 252.613 60.3578 249.069C60.3578 245.525 57.4847 242.651 53.9406 242.651Z" fill="#52C9F7"/>
<path d="M53.9413 265.511C50.4825 265.511 47.6533 268.34 47.6533 271.799V355.919C47.6533 359.378 50.4825 362.207 53.9413 362.207C57.4001 362.207 60.2292 359.378 60.2292 355.919V271.799C60.2292 268.34 57.4001 265.511 53.9413 265.511Z" fill="#52C9F7"/>
<path d="M7.16504 383.599L27.7061 393.866V219.439L7.16504 212.276V383.599Z" fill="#F9CE8F"/>
<path d="M7.16504 383.599L27.7061 393.866V219.439L7.16504 212.276V383.599Z" fill="#57D1F7"/>
<path d="M119.023 184.55H116.879H113.302H91.4821H87.9051H85.7606H82.1835L68.0762 198.658H71.6532H73.7978H77.3748H127.409H130.986H133.131H136.708L122.6 184.55H119.023Z" fill="#95D8EF"/>
<path d="M68.0762 235.485H82.1835V184.55L68.0762 198.658V235.485Z" fill="#AAE8F7"/>
<path d="M122.781 235.485H136.889V198.658L122.781 184.55V235.485Z" fill="#AAE8F7"/>
<path d="M17.7115 380.476L18.6875 381.639V216.294L17.6152 215.92L17.7115 380.476Z" fill="#3DB8E8"/>
<path d="M7.16504 382.395V383.599L18.3112 380.679L17.9923 379.656L7.16504 382.395Z" fill="#3DB8E8"/>
<path d="M17.7119 380.475L27.7061 393.866V392.186L18.5917 379.859L17.7119 380.475Z" fill="#3DB8E8"/>
<path d="M144.321 288.994C145.676 265.866 128.027 246.019 104.901 244.664C81.7744 243.309 61.9281 260.958 60.5729 284.086C59.2177 307.213 76.8668 327.061 99.9933 328.416C123.12 329.771 142.966 312.121 144.321 288.994Z" fill="white"/>
<path d="M109.694 258.013H95.7543V279.294H74.4736V293.235H95.7543V314.516H109.694V293.235H130.975V279.294H109.694V258.013Z" fill="#57D1F7"/>
<path d="M88.3612 151.616C87.8031 151.616 87.3467 152.073 87.3467 152.631V158.842C87.3467 159.4 87.8031 159.857 88.3612 159.857C88.9193 159.857 89.3758 159.4 89.3758 158.842V152.631C89.3758 152.073 88.9193 151.616 88.3612 151.616Z" fill="white"/>
<path d="M92.1532 138.192C91.7765 138.192 91.4658 138.5 91.4658 138.88V146.592C91.4658 146.969 91.7738 147.28 92.1532 147.28C92.5299 147.28 92.8405 146.972 92.8405 146.592V138.88C92.8405 138.5 92.5326 138.192 92.1532 138.192Z" fill="white"/>
<path d="M93.0158 162.831H85.727C85.4851 162.831 85.2871 163.029 85.2871 163.271C85.2871 163.513 85.4851 163.711 85.727 163.711H93.0158C93.2577 163.711 93.4557 163.513 93.4557 163.271C93.4557 163.029 93.2577 162.831 93.0158 162.831Z" fill="white"/>
<path d="M262.637 247.097C257.71 263.657 253.547 290.664 253.297 295.995C253.121 299.767 228.882 309.537 207.783 320.626C198.94 325.272 191.665 327.937 185.141 330.323C169.865 335.916 165.084 335.787 155.783 341.121C154.067 342.105 151.763 343.524 148.211 344.484C143.036 345.883 140.828 344.792 132.357 344.572C127.249 344.44 121.827 344.297 115.099 345.597C109.949 346.592 109.364 347.401 104.481 347.948C101.399 348.292 97.3598 348.743 92.2981 347.956C86.0321 346.98 83.4531 344.924 81.2068 346.557C79.6754 347.67 79.1723 349.87 79.4142 351.478C80.1153 356.131 87.3821 357.912 88.2427 358.11C91.4375 358.853 92.2238 358.011 99.6446 357.948C107.162 357.885 108.223 358.732 108.704 359.348C110.213 361.275 109.026 364.731 107.304 368.408C99.6665 384.729 89.7136 395.708 89.3617 399.346C89.2984 400.008 89.7081 403.511 91.6299 404.265C93.8102 405.12 98.0911 403.682 98.0911 403.682C98.0911 403.682 98.0114 406.28 99.7545 408.323C101.443 410.297 103.785 408.843 106.942 410.973C109.433 412.656 108.833 414.141 110.615 414.955C114.838 416.88 122.718 411.276 122.718 411.276C122.718 411.276 120.428 416.88 122.33 417.289C128.17 418.551 138.093 395.254 148.629 385.172C153.165 380.83 153.327 378.474 156.198 375.716C159.659 372.392 163.514 370.896 167.987 369.538C186.983 363.766 218.901 360.601 270.195 337.53C276.29 334.789 278.839 333.078 281.748 330.494C287.789 325.127 290.571 319.072 291.97 315.883C301.404 294.367 309.564 262.541 311.065 256.748C319.476 224.292 323.267 220.132 319.863 216.676C310.54 207.212 270.033 222.235 262.637 247.097Z" fill="#EB8E6C"/>
<path d="M112.18 385.166C111.779 384.899 111.24 385.009 110.973 385.411C108.592 388.988 106.104 392.554 103.577 396.021C102.826 397.05 101.537 398.463 100.289 399.832C99.4336 400.767 98.617 401.666 97.9654 402.442C97.6437 402.824 97.7069 403.393 98.1028 403.698C98.474 403.981 99.0019 403.926 99.3016 403.569C99.9257 402.824 100.734 401.936 101.581 401.012C102.859 399.61 104.185 398.161 104.99 397.053C107.533 393.566 110.033 389.978 112.427 386.381C112.697 385.977 112.584 385.433 112.18 385.166Z" fill="#C36252"/>
<path d="M120.117 391.163C119.685 390.957 119.171 391.138 118.959 391.57C116.815 395.917 114.205 400.011 111.195 403.745C110.136 405.059 108.289 406.849 106.807 408.285C106.493 408.59 106.193 408.879 105.918 409.148C105.569 409.489 105.569 410.047 105.916 410.391C106.254 410.726 106.798 410.729 107.139 410.396C107.411 410.13 107.708 409.844 108.019 409.541C109.537 408.07 111.426 406.239 112.553 404.842C115.646 401.007 118.324 396.803 120.526 392.337C120.741 391.903 120.554 391.372 120.117 391.163Z" fill="#C36252"/>
<path d="M127.994 398.141C127.436 397.889 122.517 410.385 113.433 414.045C112.375 414.471 111.374 414.735 110.505 414.9C110.541 414.919 110.574 414.939 110.612 414.955C114.511 416.734 121.525 412.093 122.575 411.372C125.151 405.354 130.532 399.296 127.994 398.141Z" fill="#C36252"/>
<path d="M86.357 347.813C85.4002 347.422 83.9457 346.828 82.4775 347.42C82.1641 347.546 81.6279 347.769 81.2348 348.313C80.5144 349.306 80.6464 350.823 81.397 351.695C81.5647 351.89 81.8836 352.19 83.1978 352.586C85.4689 353.271 86.6044 353.614 87.5337 352.993C88.6472 352.25 89.1559 350.428 88.5125 349.229C88.1386 348.539 87.5035 348.28 86.357 347.813Z" fill="#FFE8E1"/>
<path d="M321.235 169.037C317.606 166.114 311.532 164.217 305.613 163.893C290.356 163.057 279.656 174.146 278.053 175.859C273.161 181.088 271.261 186.189 268.223 194.608C264.228 205.691 264.864 209.736 261.916 224.212C257.072 248.018 255.722 268.414 255.722 268.414C258.397 270.936 302.82 292.965 303.303 291.552C312.036 266.088 343.979 187.352 321.235 169.037Z" fill="#FDFDFF"/>
<path d="M168.856 335.215C164.43 336.592 160.82 337.909 156.025 340.659C154.287 341.654 151.953 343.092 148.348 344.068C143.105 345.487 140.867 344.382 132.281 344.159C127.103 344.024 121.61 343.881 114.789 345.198C109.57 346.208 108.976 347.027 104.025 347.58C100.901 347.929 96.8075 348.385 91.677 347.588C85.3258 346.598 82.7111 344.514 80.4373 346.169C78.8839 347.299 78.3752 349.526 78.6199 351.157C79.332 355.872 86.695 358.193 87.5693 358.396C90.8082 359.15 91.6028 358.812 99.1252 358.748C106.741 358.682 107.819 358.509 108.308 359.133C109.84 361.085 108.633 364.588 106.89 368.317C99.15 384.861 89.0595 395.986 88.7049 399.673C88.6389 400.344 89.054 403.896 91.0034 404.658C93.2139 405.524 97.5498 404.067 97.5498 404.067C97.5498 404.067 97.4673 406.698 99.238 408.768C100.948 410.77 103.324 409.293 106.521 411.455C109.045 413.159 108.438 414.666 110.244 415.488C114.522 417.44 121.616 412.024 121.616 412.024C121.616 412.024 120.189 417.438 122.119 417.853C128.036 419.131 138.093 395.521 148.772 385.304C153.372 380.904 153.534 378.515 156.443 375.721C159.951 372.35 163.858 370.838 168.389 369.461C172.04 368.353 176.164 367.338 180.803 366.263C177.905 361.602 175.073 356.098 172.761 349.727C170.866 344.511 169.646 339.606 168.856 335.215Z" fill="#35D8E5"/>
<path d="M111.207 386.376C110.816 386.118 110.291 386.225 110.033 386.613C107.712 390.097 105.292 393.569 102.832 396.946C102.1 397.947 100.847 399.324 99.6314 400.655C98.7983 401.565 98.0037 402.439 97.3686 403.195C97.0552 403.567 97.1157 404.122 97.5033 404.419C97.8635 404.697 98.3776 404.642 98.6691 404.293C99.2767 403.567 100.066 402.703 100.888 401.801C102.133 400.435 103.423 399.024 104.206 397.947C106.684 394.551 109.117 391.059 111.448 387.556C111.707 387.166 111.597 386.635 111.207 386.376Z" fill="#26C6DB"/>
<path d="M119.254 391.795C118.833 391.595 118.333 391.773 118.127 392.191C116.037 396.426 113.497 400.41 110.566 404.047C109.535 405.326 107.737 407.069 106.293 408.469C105.988 408.766 105.696 409.049 105.43 409.307C105.092 409.64 105.092 410.184 105.427 410.517C105.757 410.844 106.288 410.847 106.62 410.523C106.884 410.264 107.173 409.984 107.478 409.689C108.957 408.257 110.794 406.475 111.891 405.114C114.902 401.378 117.511 397.286 119.655 392.939C119.864 392.513 119.68 391.999 119.254 391.795Z" fill="#26C6DB"/>
<path d="M127.296 399.17C126.754 398.922 121.962 411.089 113.117 414.652C112.086 415.068 111.112 415.323 110.266 415.483C110.301 415.499 110.332 415.519 110.37 415.538C114.167 417.27 120.59 412.725 121.615 412.024C124.123 406.165 129.765 400.292 127.296 399.17Z" fill="#26C6DB"/>
<path d="M214.018 73.179C214.266 77.3885 213.543 81.9748 214.263 87.3887C215.03 93.1628 220.499 107.012 228.249 111.733C232.101 114.079 235.97 114.714 239.357 114.926C241.722 115.074 246.836 115.335 252.521 112.929C257.154 110.969 260.786 109.704 265.482 104.799C267.203 103.003 271.636 97.2569 274.971 92.0519C277.495 88.1118 277.492 84.6639 278.902 80.82C270.508 77.2813 242.437 68.436 240.966 67.9355C240.391 68.0318 221.464 70.5476 214.018 73.179Z" fill="white"/>
<path d="M278.891 67.8314C274.14 71.7357 275.493 75.1754 270.814 83.4736C269.057 86.5861 267.814 88.2304 268.235 88.6318C268.85 89.2147 272.878 86.993 275.798 83.4736C281.025 77.1799 279.389 70.7459 284.22 68.5188C285.597 67.8836 287.395 67.6389 287.657 66.4566C287.882 65.442 284.715 63.0444 278.891 67.8314Z" fill="white"/>
<path d="M290.475 63.5661C289.485 62.9007 287.992 63.5276 287.189 63.8658C284.038 65.1883 281.847 68.1578 279.722 73.7229C278.564 76.7584 273.753 89.3597 277.333 91.6446C279.062 92.7471 282.471 91.2651 284.201 89.2552C285.9 87.281 285.245 85.656 286.89 80.891C288.009 77.6521 288.424 78.0782 289.579 74.9162C289.889 74.0666 293.029 65.2845 290.475 63.5661Z" fill="#F8C39D"/>
<path d="M260.66 249.161C256.756 251.705 255.989 260.162 254.457 277.078C253.36 289.176 254.312 291.639 251.873 295.948C247.716 303.289 157.793 332.446 155.288 339.306C152.142 347.926 155.299 365.616 167.611 371.165C180.726 377.076 267.85 343.573 278.493 335.753C291.157 326.449 309.905 287.622 321.104 238.075C322.55 231.677 270.528 242.738 260.66 249.161Z" fill="#FDFDFF"/>
<path d="M261.96 216.596C260.984 216.367 260.002 216.978 259.782 217.957C257.885 226.321 256.362 234.729 255.249 242.975C253.789 253.77 252.901 264.1 252.188 272.401C251.399 281.565 250.709 289.61 249.678 292.602C249.535 293.014 249.252 293.361 248.873 293.575C245.337 295.582 230.493 302.08 217.271 307.867C202.63 314.277 186.136 321.497 175.71 326.54C174.806 326.977 174.434 328.066 174.88 328.965C175.32 329.858 176.395 330.227 177.291 329.795C187.651 324.785 204.115 317.579 218.725 311.183C246.835 298.876 251.553 296.657 252.373 295.357C254.009 292.753 254.638 286.168 255.796 272.709C256.505 264.446 257.39 254.163 258.837 243.456C259.936 235.315 261.44 227.014 263.313 218.757C263.53 217.789 262.931 216.821 261.96 216.596Z" fill="#CBEAE7"/>
<path d="M258.705 297.296C257.091 295.792 255.32 294.453 253.421 293.304C252.538 292.767 251.38 293.103 250.897 294.016V294.018C250.446 294.871 250.748 295.916 251.573 296.416C253.25 297.433 254.812 298.616 256.236 299.944C259.04 302.561 261.267 305.677 262.87 309.226C263.269 310.106 264.273 310.532 265.174 310.186C266.137 309.815 266.607 308.707 266.181 307.766C264.383 303.793 261.823 300.202 258.705 297.296Z" fill="#CBEAE7"/>
</svg>
