<svg width="610" height="426" viewBox="0 0 610 426" fill="none" xmlns="http://www.w3.org/2000/svg">
<path d="M609.466 281.071H-38.7148V425.984H609.466V281.071Z" fill="url(#paint0_linear_1682_129)"/>
<path d="M199.913 62.9785L197.264 67.9517C196.518 68.8103 195.546 69.8065 194.331 70.9243C193.958 71.2726 193.537 71.2726 193.115 71.0539L193.091 70.7542C193.253 70.819 193.318 70.7866 193.302 70.657C192.151 61.0183 185.718 51.4121 178.264 45.4264C178.158 45.3454 178.013 45.3697 177.94 45.4669C177.932 45.475 177.923 45.4831 177.915 45.4993L176.684 47.751C169.359 60.3056 155.448 66.1131 141.228 65.5704C140.264 65.5299 139.778 65.3598 138.944 65.9673C132.964 70.3087 127.187 73.3704 119.928 74.8041C119.757 74.8365 119.644 74.7717 119.595 74.6016C118.161 69.5878 115.123 64.4364 109.07 65.376C107.717 65.5785 106.381 66.4776 105.06 68.0651C102.435 69.2396 102.2 74.2128 102.167 76.6589C102.167 76.7075 102.127 76.748 102.078 76.748C102.038 76.748 102.005 76.7237 101.997 76.6913C96.4796 62.4439 95.0131 46.293 99.6962 31.7135C101.438 26.2786 104.314 21.2082 108.325 16.4941C122.156 1.54202 144.72 -1.64928 163.566 2.32769C187.549 7.39002 204.953 33.1391 201.477 57.4706C201.234 59.2202 200.707 61.0507 199.913 62.9785Z" fill="#212C44"/>
<path d="M108.333 16.494C104.323 21.208 101.455 26.2785 99.7046 31.7134C95.0215 46.2929 96.488 62.4357 102.006 76.6912C102.022 76.7398 102.07 76.7641 102.119 76.7398C102.151 76.7236 102.176 76.6912 102.176 76.6588C102.208 74.2208 102.443 69.2394 105.068 68.065C101.544 74.4476 102.743 82.0451 106.754 87.804C109.46 91.7 112.725 92.6801 117.165 93.0931C117.351 93.1093 117.449 93.2146 117.457 93.4009C117.837 103.858 117.562 114.298 116.614 124.714C115.982 131.753 114.021 140.801 107.191 144.583C106.113 145.183 104.825 144.948 103.521 145.021C98.8376 147.556 94.9566 149.832 91.8859 151.857C90.0791 153.039 88.3614 154.886 86.2872 156.012C84.2049 157.138 82.0011 158.223 79.6758 159.276C79.773 158.11 81.0451 157.413 81.6041 156.279C91.9183 135.252 98.3434 112.533 89.5281 89.6184C88.6126 87.2451 87.1785 83.2682 85.6715 80.1903C85.5985 80.0364 85.4284 79.9554 85.2582 79.9797C84.9585 80.0364 84.6263 80.2146 84.2617 80.5062C81.7095 65.2949 79.2545 47.9209 84.1158 32.9121C87.535 22.3663 96.2368 13.9669 108.333 16.494Z" fill="#171D2F"/>
<path d="M193.098 70.7539C192.799 69.9358 192.232 69.2635 191.389 68.7452C191.065 66.6878 190.295 64.7358 189.08 62.8971C185.49 57.446 181.642 52.0678 176.691 47.7507L177.923 45.4989C177.988 45.3855 178.126 45.345 178.239 45.4098C178.247 45.4179 178.263 45.426 178.271 45.426C185.717 51.4198 192.151 61.0261 193.309 70.6567C193.325 70.7944 193.252 70.8268 193.098 70.7539Z" fill="#E9A280"/>
<path d="M175.501 120.907C172.908 123.159 169.432 126.026 165.981 127.063C165.608 127.169 165.503 127.314 165.041 127.476C164.085 127.8 163.753 127.825 162.456 127.857C161.792 127.881 162.019 127.8 160.876 127.687C146.989 127.16 134.374 117.287 126.085 106.822C125.332 105.866 125.251 105.923 125.842 106.992C134.423 122.422 146.957 142.987 164.579 149.046C164.806 149.127 165.009 149.135 165.203 149.078C165.584 148.973 165.746 148.819 165.681 148.617C166.029 148.357 166.459 148.398 166.985 148.738C166.637 159.551 150.919 162.305 142.93 162.354C132.34 162.41 122.35 160.07 112.952 155.315C108.568 153.104 105.425 149.67 103.529 145.028C104.833 144.956 106.113 145.19 107.199 144.591C114.021 140.808 115.99 131.761 116.622 124.722C117.562 114.298 117.845 103.866 117.464 93.4089C117.456 93.2226 117.359 93.1173 117.173 93.1011C112.733 92.6961 109.476 91.7079 106.761 87.812C102.751 82.0531 101.552 74.4555 105.076 68.0729C106.397 66.4854 107.742 65.5944 109.087 65.3838C115.139 64.4442 118.169 69.5957 119.612 74.6094C119.66 74.7714 119.774 74.8443 119.944 74.8119C127.203 73.3782 132.98 70.3165 138.96 65.9751C139.794 65.3676 140.28 65.5377 141.245 65.5782C155.464 66.129 169.376 60.3134 176.7 47.7588C181.651 52.084 185.499 57.4542 189.088 62.9053C190.304 64.7439 191.073 66.696 191.398 68.7533C185.613 66.615 180.216 67.02 175.201 69.9764C174.95 70.1222 174.828 70.4137 174.901 70.6972C175.614 73.3377 176.724 73.0381 178.855 72.1066C183.255 70.1789 188.1 68.8262 192.605 71.1022L192.451 74.0343C192.2 76.7963 191.884 80.5546 193.131 83.1141C193.755 84.3939 193.871 85.5825 194.001 87L194.023 87.9416C192.621 85.1714 190.004 83.8026 187.03 85.1066C179.981 88.2007 182.801 99.2245 191.211 96.8351C188.683 102.869 185.523 108.482 181.707 113.682" fill="#F8C39D"/>
<path d="M159.297 72.6496C153.747 70.1873 148.496 70.2359 142.719 71.4833C142.29 71.5805 142.079 71.4023 142.071 70.9649C142.071 70.6004 142.339 70.2197 142.882 69.8147C147.775 66.1374 154.557 66.7044 159.872 68.9885C161.468 69.6689 162.295 70.5032 161.152 72.2041C160.625 72.9817 160.172 73.0384 159.297 72.6496Z" fill="#171D2F"/>
<path d="M191.389 68.754C192.232 69.2724 192.799 69.9366 193.099 70.7628L193.123 71.0624C192.969 71.2406 192.791 71.2568 192.596 71.1029C188.1 68.835 183.255 70.1796 178.847 72.1073C176.724 73.0388 175.606 73.3304 174.893 70.698C174.82 70.4145 174.942 70.1229 175.193 69.9771C180.208 67.0207 185.604 66.6157 191.389 68.754Z" fill="#171D2F"/>
<path d="M111.866 71.6857C110.731 71.3131 109.946 71.1673 108.868 71.1673C108.755 71.1754 108.657 71.0863 108.657 70.9648C108.657 70.8676 108.722 70.7704 108.819 70.7461C112.749 69.6932 115.779 72.3013 115.763 76.2864C115.763 76.4484 115.714 76.6023 115.617 76.74C114.515 78.2303 113.235 78.2465 112.287 79.4048C111.38 80.5225 111.85 82.4665 111.866 83.8758C111.866 84.0702 111.785 84.216 111.615 84.3132C111.104 84.5967 110.578 84.5805 110.043 84.2808C104.493 81.1867 107.547 75.0714 111.955 73.0141C112.311 72.844 112.465 72.4147 112.303 72.0583C112.206 71.8801 112.052 71.7424 111.866 71.6857Z" fill="#E9A280"/>
<path d="M113.988 77.4451C111.8 78.8301 109.621 80.3124 110.536 82.8962C110.617 83.1311 110.496 83.3822 110.261 83.4713C110.164 83.5037 110.066 83.5037 109.969 83.4713C105.554 81.9566 108.632 72.407 113.445 75.5416C113.939 75.8656 114.191 76.3597 114.207 77.0401C114.215 77.2021 114.134 77.356 113.988 77.4451Z" fill="#F8C39D"/>
<path d="M151.243 79.9957C151.275 79.8904 151.211 79.769 151.105 79.7366C151.065 79.7204 151.016 79.7204 150.976 79.7366C148.456 80.668 145.871 81.3322 143.206 81.7291C143.068 81.7534 142.93 81.6562 142.906 81.5185C142.89 81.4213 142.93 81.316 143.019 81.2593C147.54 78.1166 155.886 73.9372 159.102 81.1945C159.183 81.3889 159.135 81.5266 158.94 81.6157L158.203 81.964C158.049 82.0288 157.927 82.1341 157.822 82.2718C156.153 84.4263 154.306 84.6855 152.28 83.0655C151.308 82.2718 150.862 81.1702 151.243 79.9957Z" fill="#171D2F"/>
<path d="M179.47 80.6761L175.273 82.2393C175.111 82.3041 174.925 82.2231 174.868 82.0611C174.828 81.9558 174.844 81.8343 174.917 81.7452C177.753 78.2624 182.857 75.962 187.241 78.3596C188.626 79.1209 190.028 80.0605 191.429 81.1783C191.494 81.2188 191.51 81.316 191.47 81.3808C191.438 81.4375 191.365 81.4536 191.308 81.4374L186.544 80.3278C186.357 80.2873 186.26 80.3602 186.26 80.5465C186.195 84.402 180.208 85.3496 179.762 80.8624C179.73 80.668 179.641 80.6113 179.47 80.6761Z" fill="#171D2F"/>
<path d="M79.6757 159.284L75.1951 161.674C75.0169 161.771 74.9277 161.714 74.9277 161.512L74.9358 161.026C79.8782 146.47 85.4607 131.421 86.7975 116.38C87.8022 105.113 86.1737 92.1212 84.2615 80.5224C84.6261 80.2308 84.9502 80.0607 85.2581 79.9959C85.4283 79.9635 85.5903 80.0526 85.6713 80.2065C87.1784 83.2763 88.6124 87.2613 89.528 89.6346C98.3433 112.541 91.9182 135.268 81.604 156.295C81.0449 157.429 79.7729 158.118 79.6757 159.284Z" fill="#212C44"/>
<path d="M115.868 81.535H115.917C116.217 81.5107 116.476 81.7375 116.492 82.0372L116.76 85.9088C116.784 86.2085 116.557 86.4677 116.257 86.492H116.209C115.909 86.5082 115.65 86.2895 115.633 85.9898L115.366 82.1263C115.342 81.8104 115.569 81.5593 115.868 81.535Z" fill="#E9A280"/>
<path d="M193.999 87.7132C194.028 91.215 192.917 94.5183 190.674 97.623C180.726 100.295 177.391 88.011 185.729 84.5543C189.246 83.1012 192.342 84.6265 193.999 87.7132Z" fill="#F8C39D"/>
<path d="M165.51 98.083C166.321 98.083 166.977 98.2288 166.977 98.4151C166.977 98.6014 166.321 98.7472 165.51 98.7472C164.7 98.7472 164.044 98.6014 164.044 98.4151C164.044 98.2288 164.7 98.083 165.51 98.083Z" fill="#E9A280"/>
<path d="M162.789 113.756C158.179 112.055 154.524 107.899 151.535 104.174C151.446 104.06 151.462 103.898 151.575 103.809C151.64 103.76 151.721 103.736 151.802 103.76C154.371 104.384 156.769 104.789 159.532 104.781C165.082 104.757 170.632 104.643 176.182 104.441C176.311 104.441 176.433 104.4 176.538 104.319L177.543 103.615C177.616 103.566 177.713 103.582 177.762 103.655C177.794 103.704 177.802 103.769 177.77 103.825C174.513 109.56 171.231 116.882 162.789 113.756Z" fill="#E9A280"/>
<path d="M160.884 127.696C159.855 129.907 159.596 132.491 160.106 135.447C159.961 137.197 160.098 138.906 160.528 140.574C160.949 141.368 161.281 141.797 161.516 141.87C161.233 141.83 161.046 141.886 160.949 142.04C160.884 142.146 160.884 142.308 160.949 142.518C161.516 144.308 163.477 148.609 165.689 148.625C165.754 148.828 165.592 148.982 165.211 149.095C165.016 149.152 164.806 149.136 164.587 149.055C146.965 143.004 134.43 122.431 125.85 107.001C125.259 105.94 125.34 105.883 126.093 106.831C134.382 117.296 146.997 127.169 160.884 127.696Z" fill="#E9A280"/>
<path d="M157.724 107.398C157.562 107.3 157.506 107.09 157.595 106.928C157.66 106.823 157.773 106.758 157.895 106.758L173.329 107.066C173.524 107.066 173.564 107.147 173.451 107.3C169.481 112.703 162.391 109.965 157.724 107.398Z" fill="#FEFEFE"/>
<path d="M160.52 140.574L173.718 140.558L171.482 146.827C170.915 146.681 170.258 146.705 169.513 146.908C168.719 145.523 167.269 144.194 165.154 142.931C164.384 142.372 163.169 142.024 161.508 141.87C161.273 141.797 160.941 141.368 160.52 140.574Z" fill="#6D7480"/>
<path d="M161.508 141.861C163.177 142.015 164.385 142.364 165.154 142.922C166.216 144.931 166.823 146.867 166.985 148.73C166.459 148.39 166.029 148.349 165.681 148.608C163.469 148.592 161.5 144.291 160.941 142.501C160.876 142.291 160.876 142.129 160.941 142.023C161.038 141.878 161.225 141.821 161.508 141.861Z" fill="#F4F2EB"/>
<path d="M165.154 142.923C167.269 144.186 168.719 145.515 169.513 146.9C174.699 169.401 182.509 191.197 190.101 212.986C190.223 213.334 190.101 213.52 189.736 213.561C167.86 215.958 146.049 218.825 124.303 222.154C124.116 222.187 123.995 222.106 123.946 221.92C117.294 196.438 108.811 172.673 100.952 148.196C100.838 147.856 100.474 147.669 100.134 147.775C100.093 147.791 100.053 147.807 100.012 147.831L94.4863 151.031C93.7895 151.436 93.5464 152.027 93.7652 152.805C100.393 176.367 108.9 199.329 114.645 223.151C114.701 223.386 114.604 223.523 114.369 223.564L108.528 224.439C108.333 224.471 108.228 224.584 108.22 224.787C107.685 240.703 107.466 256.611 107.571 272.51C107.409 272.551 107.272 272.543 107.174 272.486C107.102 272.438 107.045 272.34 107.02 272.186C105.368 261.462 103.577 250.763 101.649 240.087C99.218 226.642 95.7584 213.463 91.2616 200.561C90.103 197.24 88.7823 194.065 87.3077 191.035C86.1086 188.573 85.9546 188.638 86.8378 191.23C90.2164 201.103 92.8578 211.852 94.9076 222.414C99.1208 244.186 102.864 266.039 106.121 287.981C106.145 288.159 106.259 288.248 106.445 288.248C107.49 288.232 108.495 287.997 109.459 287.544C124.132 283.656 138.717 279.436 153.365 275.434C159.499 273.766 164.846 272.818 169.432 272.6C171.579 272.494 173.005 273.288 173.726 274.973C170.607 282.117 172.203 288.54 178.499 294.242C179.649 295.287 181.091 295.546 182.825 295.036C181.448 299.15 171.134 305.403 166.661 308.352C149.687 319.57 132.421 328.779 114.872 335.988C111.039 337.559 106.178 338.993 100.288 340.281C94.1784 340.103 90.0139 337.673 84.8122 334.344C83.6941 333.42 82.4383 332.311 81.0366 331.039C77.747 328.042 75.1138 324.559 73.1288 320.574C72.5454 319.408 71.5893 316.63 70.2606 312.248C69.3855 309.291 68.5996 306.489 67.9109 303.824C67.8542 303.621 67.7489 303.484 67.5949 303.419C63.9975 287.414 61.6236 271.255 60.4811 254.926L59.2577 238.483C58.5123 224.884 58.5852 213.075 58.0343 197.588C57.5157 183.008 58.4718 168.777 73.8823 162.233C74.0362 162.168 74.1172 162.054 74.1253 161.892C74.2145 160.694 74.4899 160.394 74.9437 161.001L74.9356 161.487C74.9356 161.69 75.0247 161.747 75.2029 161.649L79.6835 159.26C82.0088 158.207 84.2126 157.114 86.303 155.996C88.3772 154.878 90.0949 153.031 91.9017 151.841C94.9724 149.816 98.8534 147.532 103.537 145.004C105.432 149.646 108.576 153.08 112.959 155.291C122.358 160.038 132.348 162.386 142.938 162.33C150.927 162.281 166.653 159.519 166.993 148.714C166.823 146.867 166.216 144.932 165.154 142.923Z" fill="#FEFEFE"/>
<path d="M171.482 146.827C171.255 147.046 171.409 147.256 171.944 147.459C174.042 148.261 176.027 149.095 177.915 149.961C183.287 170.689 191.268 193.951 197.709 212.508C197.758 212.653 197.863 212.726 198.025 212.718L200.577 212.54C200.877 212.524 201.153 212.71 201.242 213.002C202.554 217.303 204.142 221.514 206.006 225.645C206.168 227.273 206.751 229.096 207.732 231.129L213.265 251.5C213.298 251.621 213.371 251.654 213.484 251.581L213.598 251.5L213.881 255.282C203.591 258.069 197.077 259.931 189.809 264.484C184.575 267.756 179.212 271.263 173.718 275.005C173.005 273.32 171.571 272.527 169.424 272.632C164.846 272.851 159.491 273.798 153.357 275.467C138.708 279.46 124.124 283.68 109.451 287.568L107.547 272.535C107.442 256.635 107.661 240.727 108.195 224.811C108.203 224.609 108.301 224.495 108.503 224.463L114.345 223.588C114.588 223.547 114.677 223.41 114.62 223.175C108.876 199.354 100.377 176.391 93.7409 152.829C93.5222 152.051 93.7652 151.46 94.462 151.055L99.9878 147.856C100.296 147.677 100.701 147.783 100.879 148.09C100.903 148.131 100.92 148.171 100.936 148.212C108.795 172.689 117.286 196.446 123.93 221.936C123.979 222.122 124.1 222.195 124.286 222.171C146.033 218.833 167.844 215.966 189.72 213.577C190.085 213.536 190.206 213.35 190.085 213.002C182.493 191.221 174.674 169.417 169.497 146.916C170.259 146.705 170.915 146.681 171.482 146.827Z" fill="url(#paint1_linear_1682_129)"/>
<path d="M224.179 241.156C224.13 241.075 224.017 241.003 224.041 240.922C224.341 239.739 224.001 239.366 223.879 238.224C223.831 237.698 223.903 237.252 223.49 236.726C223.482 236.694 223.458 236.677 223.458 236.637L223.223 232.433L222.275 222.802L222.17 221.976L221.789 219.141C220.825 213.212 219.399 207.259 217.519 201.281C217.511 201.257 217.511 201.233 217.511 201.209L197.344 159.195L191.17 155.154C187.014 153.218 182.59 151.492 177.915 149.97C183.287 170.697 191.268 193.959 197.709 212.516C197.757 212.662 197.863 212.735 198.025 212.726L200.577 212.548C200.877 212.532 201.152 212.718 201.241 213.01C202.554 217.311 204.142 221.523 206.006 225.654L202.724 204.821C202.716 204.74 202.74 204.708 202.805 204.708C202.821 204.708 202.838 204.708 202.854 204.716C202.886 204.724 202.911 204.74 202.919 204.773C204.547 211.082 206.151 218.672 207.748 227.549C208.015 229.064 208.015 230.262 207.739 231.129L213.273 251.5C213.306 251.629 213.379 251.654 213.492 251.581L213.605 251.5C214.043 250.39 214.788 249.702 215.842 249.434C216.069 249.378 216.141 249.451 216.069 249.669C215.728 250.682 215.915 251.613 216.628 252.464C216.668 252.512 216.733 252.545 216.798 252.545C216.935 252.553 217.049 252.447 217.057 252.31L217.17 249.888C217.179 249.758 217.243 249.677 217.365 249.645L224.325 247.644L224.171 241.165C224.179 241.165 224.179 241.165 224.179 241.156Z" fill="#FEFEFE"/>
<path d="M107.555 272.535L109.459 287.568C108.495 288.022 107.49 288.257 106.445 288.273C106.259 288.273 106.154 288.184 106.121 288.006C102.856 266.063 99.1208 244.21 94.9077 222.438C92.8578 211.876 90.2165 201.128 86.8378 191.254C85.9547 188.671 86.1086 188.606 87.3078 191.06C88.7824 194.097 90.103 197.272 91.2617 200.585C95.7584 213.488 99.2181 226.666 101.649 240.112C103.577 250.787 105.368 261.487 107.021 272.211C107.045 272.365 107.093 272.462 107.174 272.511C107.264 272.567 107.393 272.584 107.555 272.535Z" fill="#E7EBEE"/>
<path d="M276.066 190.808C283.933 191.869 291.995 192.922 300.235 193.959C302.901 194.291 306.433 194.235 308.499 196.106C309.293 200.706 308.11 203.306 306.247 208.83C304.999 212.556 303.735 216.322 302.463 220.146C301.896 220.065 301.313 219.813 300.705 219.384C301.629 216.347 303.038 211.957 304.91 206.214C305.501 204.4 305.777 202.577 305.736 200.739C305.453 200.309 305.477 199.734 305.801 199.013C305.939 198.714 305.801 198.357 305.501 198.22C305.453 198.195 305.396 198.179 305.339 198.171C302.139 197.693 298.89 197.329 295.592 197.061C293.753 196.916 293.137 197.977 292.943 199.597C290.674 200.228 288.073 200.164 285.132 199.41C284.022 199.119 283.188 198.649 282.621 198.001L282.661 195.458C282.661 195.263 282.564 195.142 282.369 195.101C280.06 194.688 272.55 192.971 270.767 194.137C270.621 194.235 270.516 194.372 270.467 194.534C270.232 195.271 269.957 195.709 269.649 195.838C260.056 217.853 252.18 240.686 244.872 263.56L242.766 263.171L243.43 260.183L250.114 240.476L253.987 229.233L256.337 222.713L256.71 221.701L257.779 218.623L259.075 214.824L262.478 206.255L264.447 200.982L266.189 196.195L266.619 195.231L268.474 192.064C271.553 190.063 272.955 190.541 276.066 190.808Z" fill="#171D2F"/>
<path d="M282.636 198.009L282.175 197.936L280.692 196.713C280.562 196.608 280.425 196.6 280.271 196.689C280.076 196.811 279.979 197.013 279.963 197.313C279.614 197.378 279.266 197.361 278.926 197.272C278.78 197.232 278.699 197.135 278.691 196.981L278.666 196.649C278.65 196.43 278.545 196.381 278.358 196.487C278.124 196.624 277.945 196.811 277.84 197.045C277.767 197.216 277.654 197.24 277.508 197.126C277.443 197.07 277.394 196.997 277.378 196.908C277.54 196.73 277.556 196.551 277.427 196.373C277.329 196.235 277.2 196.195 277.038 196.252L276.446 196.462C276.138 196.438 275.936 196.252 275.847 195.903C275.831 195.83 275.758 195.79 275.685 195.814C275.644 195.822 275.612 195.855 275.596 195.903L275.498 196.195C275.45 196.349 275.361 196.454 275.215 196.519C275.02 196.608 274.891 196.6 274.818 196.487C274.567 195.32 274.21 195.28 273.756 196.365L269.673 195.847C269.981 195.717 270.256 195.28 270.491 194.543C270.54 194.381 270.645 194.235 270.791 194.146C272.573 192.979 280.084 194.696 282.393 195.11C282.588 195.15 282.685 195.263 282.685 195.466L282.636 198.009Z" fill="#FEFEFE"/>
<path d="M271.48 195.765C271.31 195.733 271.156 195.554 271.14 195.384C271.124 195.206 271.253 195.093 271.424 195.133C272.056 195.23 272.623 195.465 273.117 195.83C273.295 195.959 273.271 196.016 273.052 196C272.517 195.959 271.991 195.878 271.48 195.765Z" fill="#171D2F"/>
<path d="M308.913 195.555L311.019 195.765C312.478 197.523 313.418 198.641 313.102 200.82L308.102 215.828C307.77 217.878 307.122 219.83 306.158 221.676L302.479 220.154C303.743 216.33 305.007 212.556 306.263 208.838C308.119 203.314 309.31 200.714 308.508 196.114C308.799 195.903 308.937 195.725 308.913 195.555Z" fill="#A6BADA"/>
<path d="M274.826 196.478C274.389 196.324 274.032 196.284 273.765 196.357C274.218 195.28 274.575 195.32 274.826 196.478Z" fill="#171D2F"/>
<path d="M276.447 196.462C276.617 196.673 276.933 196.819 277.379 196.908C277.395 196.997 277.444 197.07 277.508 197.127C277.654 197.24 277.76 197.216 277.841 197.046C277.946 196.811 278.116 196.624 278.359 196.479C278.546 196.365 278.651 196.422 278.667 196.641L278.691 196.973C278.699 197.127 278.781 197.224 278.934 197.264C279.275 197.353 279.623 197.37 279.972 197.305L280.733 197.353C280.895 197.362 281.017 197.434 281.106 197.572C281.349 197.953 281.705 198.074 282.183 197.928L282.645 198.001C283.204 198.657 284.047 199.127 285.157 199.411C288.09 200.164 290.699 200.229 292.968 199.597C294.142 199.362 294.799 199.014 294.912 198.552C294.961 198.374 295.066 198.301 295.252 198.342L296.784 198.657C296.962 198.69 297.075 198.86 297.051 199.038L296.954 199.727C296.435 199.208 295.99 198.925 295.601 198.876C295.301 198.844 295.236 198.941 295.423 199.184C295.771 199.638 296.322 199.808 297.075 199.71C297.27 199.597 297.416 199.597 297.529 199.719L304.886 200.998C304.991 201.014 305.056 200.974 305.072 200.877C305.08 200.836 305.097 200.788 305.113 200.731C305.032 200.844 305.242 200.844 305.753 200.739C305.793 202.578 305.518 204.4 304.927 206.215C303.055 211.957 301.645 216.355 300.721 219.385C299.571 218.939 298.485 218.785 297.464 218.939C295.001 219.296 294.24 222.608 295.892 224.334C297.027 225.516 298.218 226.488 299.466 227.241L299.62 230.773C297.651 229.939 295.131 228.335 293.138 228.343C292.968 228.343 292.806 228.392 292.668 228.497C289.856 230.506 292.595 234.175 294.507 235.519C294.134 236.475 294.75 237.309 293.859 237.957C292.822 236.985 291.582 236.75 290.132 237.236C289.962 237.293 289.832 237.407 289.751 237.56C288.665 239.674 288.949 241.708 290.618 243.66C290.545 244.121 290.845 244.769 291.517 245.587C288.949 253.541 286.275 261.374 283.504 269.077C282.896 270.761 282.273 272.081 281.624 273.045C281.519 273.199 281.357 273.296 281.171 273.305C278.456 273.45 276.082 273.134 274.041 272.349C277.598 264.014 280.83 254.983 283.739 245.263C283.982 244.453 284.152 243.797 284.258 243.271C284.298 243.084 284.217 242.971 284.031 242.939C274.875 241.489 265.906 240.331 256.572 238.654C256.208 238.589 255.965 238.727 255.835 239.075C255.6 239.707 255.187 240.347 254.944 240.979C252.148 248.244 249.604 255.607 247.295 263.042C247.028 263.909 246.809 264.8 246.639 265.699L246.234 265.966C246.461 264.654 246.023 263.852 244.913 263.561C252.221 240.687 260.097 217.854 269.69 195.839L273.773 196.357C274.041 196.284 274.397 196.325 274.835 196.479C274.908 196.592 275.037 196.608 275.232 196.519C275.369 196.454 275.467 196.341 275.515 196.195L275.613 195.904C275.637 195.839 275.71 195.798 275.775 195.823C275.815 195.839 275.848 195.871 275.864 195.912C275.937 196.252 276.139 196.438 276.447 196.462Z" fill="url(#paint2_linear_1682_129)"/>
<path d="M277.378 196.907C276.932 196.818 276.616 196.673 276.446 196.462L277.038 196.251C277.2 196.195 277.329 196.235 277.427 196.373C277.556 196.551 277.54 196.729 277.378 196.907Z" fill="#212C44"/>
<path d="M282.175 197.936C281.705 198.082 281.34 197.96 281.097 197.579C281.008 197.442 280.887 197.369 280.725 197.353L279.963 197.304C279.971 197.013 280.076 196.802 280.271 196.68C280.417 196.591 280.562 196.599 280.692 196.705L282.175 197.936Z" fill="#212C44"/>
<path d="M305.745 200.738C305.234 200.843 305.024 200.835 305.105 200.73L303.112 199.847C302.95 199.782 302.796 199.79 302.65 199.888C302.301 200.114 301.953 200.171 301.597 200.042C301.394 199.969 301.297 199.823 301.305 199.612L301.329 199.118C301.337 198.924 301.289 198.9 301.167 199.062L300.616 199.799C300.47 199.993 300.203 200.05 299.992 199.928L298.89 199.272C298.761 199.199 298.631 199.191 298.502 199.256L297.513 199.726C297.4 199.612 297.254 199.612 297.059 199.718C296.857 199.491 296.816 199.491 296.93 199.726L297.027 199.037C297.051 198.859 296.93 198.689 296.76 198.657L295.228 198.341C295.05 198.3 294.937 198.373 294.888 198.551C294.766 199.021 294.118 199.369 292.943 199.596C293.138 197.976 293.754 196.923 295.593 197.061C298.899 197.32 302.148 197.693 305.34 198.171C305.664 198.219 305.891 198.519 305.842 198.851C305.834 198.908 305.818 198.964 305.794 199.013C305.486 199.742 305.461 200.317 305.745 200.738Z" fill="#FEFEFE"/>
<path d="M296.945 199.726C296.832 199.491 296.872 199.491 297.075 199.718C296.321 199.815 295.762 199.645 295.422 199.191C295.236 198.948 295.292 198.843 295.6 198.883C295.973 198.932 296.427 199.207 296.945 199.726Z" fill="#BBD1EF"/>
<path d="M305.113 200.731C305.097 200.787 305.081 200.836 305.072 200.885C305.048 200.99 304.983 201.022 304.886 201.006L297.529 199.726L298.518 199.256C298.647 199.192 298.777 199.2 298.907 199.273L300.009 199.929C300.219 200.05 300.487 199.994 300.632 199.799L301.183 199.062C301.297 198.9 301.354 198.924 301.345 199.119L301.321 199.613C301.313 199.823 301.41 199.969 301.613 200.042C301.969 200.164 302.326 200.115 302.666 199.888C302.812 199.791 302.974 199.775 303.128 199.848L305.113 200.731Z" fill="#212C44"/>
<path d="M207.739 231.121C206.751 229.088 206.175 227.265 206.013 225.637L202.732 204.805C202.724 204.724 202.748 204.691 202.813 204.691C202.829 204.691 202.845 204.691 202.862 204.699C202.894 204.708 202.918 204.724 202.926 204.756C204.555 211.066 206.159 218.655 207.755 227.533C208.007 229.055 208.007 230.246 207.739 231.121Z" fill="#E7EBEE"/>
<path d="M294.936 212.07L294.952 211.333C294.952 211.13 294.855 211.009 294.652 210.977C285.699 209.47 276.439 208.271 266.87 207.372C265.549 206.044 265.906 205.299 267.939 205.129C268.466 205.08 269.155 205.112 269.997 205.218C278.278 206.238 286.534 207.461 294.758 208.895C294.904 208.927 295.001 209.008 295.049 209.154C295.479 210.588 295.438 211.56 294.936 212.07Z" fill="#545B74"/>
<path d="M262.503 206.254L259.1 214.824C258.282 213.747 257.78 212.605 257.609 211.414C257.342 209.656 257.674 207.801 259.287 206.74C260.567 205.906 261.636 205.744 262.503 206.254Z" fill="#F0B178"/>
<path d="M266.878 207.372C276.438 208.271 285.699 209.47 294.66 210.976C294.863 211.009 294.96 211.13 294.952 211.333L294.936 212.07L293.453 216.031C292.335 215.375 291.541 215.002 291.063 214.929C288.381 214.492 281.891 213.617 271.601 212.313L268.741 212.159C268.449 212.143 268.174 212.305 268.052 212.564C267.631 213.423 267.307 214.289 267.088 215.172C266.602 217.14 268.782 217.375 270.029 216.97C270.199 216.914 270.329 216.808 270.418 216.654C270.921 215.836 271.228 214.881 271.334 213.779C277.159 214.581 282.961 215.504 288.794 216.209C290.52 216.419 291.144 217.481 293.218 216.533L290.366 224.357C289.888 223.685 289.426 223.329 288.98 223.296C288.835 223.28 288.737 223.353 288.689 223.491L288.502 224.138C288.43 224.373 288.3 224.422 288.097 224.284C287.684 224.017 287.303 223.855 286.947 223.806C281.851 223.118 276.77 222.381 271.723 221.579L262.438 220.275L266.878 207.372Z" fill="#FEFEFE"/>
<path d="M271.602 212.313L271.334 213.779C271.229 214.881 270.921 215.837 270.419 216.655C270.322 216.809 270.192 216.914 270.03 216.971C268.79 217.376 266.603 217.141 267.089 215.172C267.308 214.29 267.632 213.423 268.053 212.564C268.183 212.305 268.458 212.143 268.75 212.159L271.602 212.313Z" fill="url(#paint3_linear_1682_129)"/>
<path d="M293.453 216.031C293.405 216.265 293.332 216.427 293.226 216.525C291.152 217.48 290.528 216.419 288.794 216.201C282.961 215.496 277.151 214.573 271.334 213.771L271.601 212.305C281.891 213.609 288.381 214.484 291.063 214.921C291.541 215.002 292.335 215.374 293.453 216.031Z" fill="#BBD1EF"/>
<path d="M291.598 244.801C291.695 244.914 291.816 244.979 291.97 244.995C292.667 245.068 292.853 245.708 293.25 246.048C295.041 247.587 296.71 249.248 298.274 251.03C298.436 251.216 298.395 251.329 298.16 251.378L297.496 251.516C297.326 251.548 297.245 251.653 297.237 251.823C297.14 254.334 297.01 256.829 296.848 259.316C296.726 261.179 296.815 262.88 297.107 264.427C299.27 264.338 301.499 264.281 303.476 263.592C304.237 263.333 305.064 263.123 305.906 262.912C306.579 262.418 307.381 262.232 308.183 262.288C308.223 262.28 308.256 262.256 308.296 262.248H308.313C309.026 262.021 309.698 261.738 310.314 261.389L314.098 253.208C314.13 253.144 314.138 253.063 314.122 252.998C313.895 251.767 313.441 250.617 312.769 249.572C312.696 249.458 312.728 249.296 312.842 249.223C312.963 249.142 313.117 249.175 313.19 249.296L314.033 250.544C314.13 250.681 314.243 250.706 314.381 250.625C316.066 249.669 315.75 246.299 315.888 244.825C316.05 243.1 315.864 241.561 315.921 239.884C315.921 239.836 315.945 239.787 315.953 239.739C315.953 239.658 315.953 239.585 315.961 239.512C316.058 238.759 316.075 237.997 316.18 237.244C316.18 237.203 316.188 237.171 316.188 237.131C316.115 237.082 316.075 237.009 316.075 236.888L316.099 235.648C315.88 235.122 315.702 234.676 315.402 234.126C315.248 233.85 315.118 233.68 315.021 233.583C314.916 233.51 314.875 233.469 314.892 233.478C314.308 233.089 313.854 232.554 313.571 231.922C313.393 231.809 313.231 231.647 313.093 231.445C310.994 228.156 309.074 224.309 306.149 221.676L302.471 220.153C301.904 220.072 301.32 219.821 300.713 219.392C299.562 218.947 298.476 218.793 297.456 218.947C294.992 219.303 294.231 222.616 295.884 224.341C297.018 225.524 298.209 226.496 299.457 227.249C304.302 231.315 308.904 236.248 311.302 242.169C311.318 242.201 311.294 242.25 311.254 242.266C311.205 242.282 311.165 242.298 311.116 242.314C311.075 242.322 311.051 242.314 311.035 242.282C309.577 239.236 306.044 232.959 302.592 231.971C301.093 231.542 300.097 231.145 299.595 230.788C297.626 229.954 295.106 228.35 293.113 228.359C292.943 228.359 292.781 228.407 292.643 228.512C289.831 230.521 292.57 234.19 294.482 235.535C298.638 238.354 302.05 241.31 304.731 244.396C305.971 245.83 305.874 245.927 304.44 244.696C301.474 242.144 297.942 239.909 293.826 237.981C292.789 237.009 291.549 236.774 290.099 237.26C289.929 237.317 289.799 237.43 289.718 237.584C288.632 239.706 288.916 241.731 290.585 243.683L291.598 244.801Z" fill="#F8C39D"/>
<path d="M262.446 220.275L271.731 221.579C271.301 222.09 271.115 222.649 271.172 223.272L261.943 221.758C261.838 221.296 262.008 220.81 262.446 220.275Z" fill="#86A1CD"/>
<path d="M271.731 221.579C276.779 222.381 281.859 223.118 286.956 223.807C287.312 223.855 287.693 224.017 288.106 224.284C288.309 224.422 288.438 224.373 288.511 224.139L288.698 223.491C288.738 223.353 288.835 223.28 288.989 223.296C289.435 223.329 289.897 223.677 290.375 224.357L289.038 226.884L288.276 225.872C288.179 225.742 288.049 225.661 287.887 225.637L271.181 223.272C271.116 222.648 271.302 222.081 271.731 221.579Z" fill="#D2DCEE"/>
<path d="M261.944 221.749L271.172 223.264L287.879 225.629C288.041 225.653 288.171 225.726 288.268 225.864L289.029 226.868L287.109 232.279C287.052 232.433 286.882 232.514 286.72 232.457C286.712 232.457 286.704 232.449 286.688 232.449C285.918 232.068 285.335 231.736 284.533 231.606C277.192 230.367 269.219 229.039 260.615 227.613C260.088 227.524 259.918 227.233 260.104 226.738L261.944 221.749Z" fill="#FEFEFE"/>
<path d="M299.457 227.249C304.302 231.315 308.904 236.248 311.303 242.161C311.319 242.193 311.303 242.242 311.262 242.258C311.213 242.274 311.173 242.29 311.124 242.306C311.084 242.315 311.059 242.306 311.043 242.274C309.585 239.229 306.052 232.951 302.601 231.963C301.102 231.534 300.105 231.137 299.603 230.78L299.457 227.249Z" fill="#E9A280"/>
<path d="M257.666 234.579C257.52 234.555 257.423 234.417 257.439 234.264C257.439 234.247 257.447 234.231 257.447 234.215L258.817 230.165C258.89 229.963 259.027 229.874 259.246 229.906L285.57 234.126C285.781 234.158 285.927 234.361 285.894 234.571C285.886 234.596 285.878 234.62 285.87 234.636L284.776 237.617C284.639 237.989 284.274 238.224 283.877 238.184C275.102 237.269 266.36 236.054 257.666 234.579Z" fill="#D2DCEE"/>
<path d="M294.49 235.527C298.647 238.346 302.058 241.302 304.74 244.388C305.979 245.822 305.882 245.919 304.448 244.688C301.483 242.137 297.95 239.901 293.834 237.973C294.733 237.317 294.118 236.483 294.49 235.527Z" fill="#E9A280"/>
<path d="M274.024 272.357C265.541 271.158 257.301 269.846 249.304 268.412C247.667 268.121 246.768 267.222 246.622 265.707C246.792 264.8 247.011 263.917 247.278 263.05C249.587 255.607 252.132 248.252 254.927 240.987C255.17 240.355 255.583 239.715 255.818 239.083C255.948 238.735 256.191 238.597 256.555 238.662C265.889 240.339 274.858 241.497 284.014 242.947C284.2 242.979 284.281 243.084 284.241 243.279C284.136 243.805 283.957 244.47 283.722 245.271C280.814 254.991 277.581 264.022 274.024 272.357Z" fill="#E7EBEE"/>
<path d="M285.302 241.901C285.286 241.982 285.205 242.031 285.124 242.023L285.027 242.007C278.828 240.8 273.837 239.658 273.854 239.439L273.894 239.212C273.926 239.002 278.99 239.804 285.197 241.01C285.205 241.01 285.213 241.01 285.213 241.01L285.31 241.035C285.391 241.051 285.448 241.132 285.432 241.213L285.302 241.901Z" fill="#BBD1EF"/>
<path d="M250.138 240.492L243.454 260.199C243.568 259.073 243.689 257.963 243.819 256.886C244.386 252.261 243.811 247.191 244.054 242.46C244.054 242.371 244.078 242.29 244.118 242.226C244.175 242.12 244.232 242.064 244.289 242.047C245.399 242.209 246.403 242.096 247.319 241.715L250.138 240.492Z" fill="#E9A280"/>
<path d="M244.289 242.047C244.232 242.063 244.175 242.12 244.119 242.225C244.078 242.29 244.062 242.371 244.054 242.46C243.803 247.182 244.378 252.261 243.819 256.886C243.681 257.971 243.56 259.073 243.454 260.199L242.79 263.187C233.569 262.969 224.398 263.706 215.137 263.633C215.161 261.276 214.667 259.194 213.646 257.372C214.083 257.137 214.165 256.44 213.889 255.282L213.605 251.499C214.043 250.39 214.788 249.701 215.842 249.434C216.069 249.377 216.141 249.45 216.069 249.669C215.728 250.681 215.915 251.613 216.628 252.463C216.717 252.569 216.871 252.577 216.976 252.488C217.025 252.447 217.057 252.382 217.057 252.318L217.17 249.896C217.179 249.766 217.243 249.685 217.365 249.653L224.325 247.66L241.461 241.521C241.55 241.488 241.639 241.48 241.736 241.496L242.077 241.545C242.133 241.553 242.174 241.529 242.215 241.488C242.684 240.897 243.292 240.759 244.038 241.075C244.2 241.148 244.289 241.27 244.289 241.448V242.047Z" fill="#917468"/>
<path d="M257.593 244.291C257.374 244.299 257.212 244.275 257.107 244.226C256.945 244.153 256.872 243.959 256.937 243.797C256.993 243.667 257.123 243.586 257.269 243.611L270.743 245.555C270.856 245.571 270.937 245.684 270.921 245.798V245.806L270.84 246.195C270.816 246.332 270.686 246.421 270.548 246.397C270.516 246.389 270.484 246.373 270.451 246.357C270.135 246.146 269.811 246.114 269.463 246.276C269.309 246.348 269.155 246.357 269.001 246.292C268.247 245.992 267.486 245.717 266.716 245.474C265.485 245.077 264.042 245.295 262.738 244.988C261.96 244.81 261.19 244.712 260.421 244.696C259.513 244.664 258.387 244.267 257.593 244.291Z" fill="#A6BADA"/>
<path d="M292.919 247.434C294.572 249.459 296.435 252.342 295.65 254.958C294.977 257.186 294.037 259.365 292.846 261.479C293.891 263.455 293.762 263.269 295.787 264.508C296.217 264.484 296.662 264.459 297.1 264.443C296.808 262.896 296.711 261.195 296.841 259.332C297.003 256.846 297.132 254.351 297.229 251.84C297.238 251.67 297.327 251.565 297.489 251.532L298.153 251.395C298.396 251.346 298.437 251.224 298.267 251.046C296.711 249.264 295.034 247.604 293.243 246.065C292.854 245.725 292.66 245.085 291.963 245.012C291.809 244.996 291.688 244.931 291.59 244.818L290.594 243.684C290.521 244.145 290.821 244.793 291.493 245.611C292.238 245.644 292.708 246.251 292.919 247.434Z" fill="#E9A280"/>
<path d="M265.371 254.844L255.268 253.192L258.079 245.562C258.144 245.384 258.274 245.311 258.46 245.343L270.508 247.214C270.727 247.247 270.808 247.368 270.759 247.579C269.989 250.884 269.447 252.957 269.122 253.824C268.685 254.95 267.437 255.298 265.371 254.844Z" fill="url(#paint4_linear_1682_129)"/>
<path d="M292.918 247.433C290.277 255.808 287.498 264.022 284.573 272.073C283.649 274.6 281.769 275.629 278.934 275.159C269.073 273.523 259.083 271.992 248.939 270.558C248.988 267.391 245.982 267.723 243.665 268.12C243.316 268.031 243.178 267.893 243.251 267.691C244.151 267.642 245.01 267.399 245.82 266.97C246.022 266.865 246.16 266.735 246.233 266.589C246.355 266.354 246.346 266.152 246.217 265.974L246.622 265.714C246.768 267.221 247.667 268.128 249.304 268.42C257.301 269.853 265.541 271.166 274.024 272.364C276.065 273.15 278.439 273.466 281.154 273.32C281.34 273.312 281.51 273.215 281.607 273.061C282.256 272.097 282.879 270.777 283.487 269.092C286.258 261.389 288.932 253.557 291.5 245.595C292.238 245.643 292.708 246.251 292.918 247.433Z" fill="#212C44"/>
<path d="M264.245 247.943L264.026 248.016C263.84 248.081 263.816 248.186 263.953 248.324C264.01 248.381 264.075 248.421 264.164 248.438C263.929 248.681 263.897 249.102 264.075 249.693C264.115 249.823 264.034 249.96 263.905 250.001C263.864 250.009 263.824 250.009 263.783 250.009L261.15 249.458C261.02 249.426 260.947 249.296 260.972 249.175C260.988 249.118 261.028 249.061 261.077 249.029C261.847 248.583 262.462 248.762 262.924 249.563C262.973 249.636 263.062 249.653 263.135 249.604C263.184 249.572 263.208 249.523 263.2 249.466C262.957 247.919 260.761 247.441 260.421 249.288C260.388 249.458 260.299 249.499 260.153 249.41L260.016 249.329C259.902 249.256 259.87 249.158 259.918 249.037L260.826 247.101C260.915 246.907 261.061 246.842 261.271 246.915L264.245 247.943Z" fill="#A6BADA"/>
<path d="M273.927 247.798L273.246 248.633C272.744 248.819 272.468 249.143 272.411 249.604C272.387 249.815 272.484 249.928 272.695 249.937L274.842 250.034C275.053 250.042 275.239 250.188 275.296 250.39C275.474 250.957 275.401 251.435 275.077 251.816C274.721 252.237 274.089 252.294 273.667 251.937C273.594 251.881 273.53 251.808 273.481 251.735L273.003 251.022C272.906 250.884 272.711 250.844 272.573 250.941C272.525 250.973 272.484 251.022 272.46 251.079L271.666 253.063C271.609 253.217 271.682 253.387 271.828 253.444C271.852 253.452 271.877 253.46 271.893 253.46L275.701 253.97C275.871 253.995 275.993 254.148 275.976 254.319C275.831 255.598 275.45 256.797 274.818 257.915C274.737 258.069 274.583 258.166 274.413 258.182C272.727 258.328 271.099 258.117 269.519 257.542C269.357 257.486 269.26 257.315 269.284 257.145C269.859 253.565 271.747 250.771 272.736 247.369C272.776 247.231 272.898 247.134 273.035 247.118C273.465 247.061 273.756 247.288 273.927 247.798Z" fill="url(#paint5_linear_1682_129)"/>
<path d="M292.919 247.434C294.571 249.459 296.435 252.342 295.649 254.958C294.977 257.186 294.037 259.364 292.846 261.479C291.314 264.783 289.913 268.258 288.665 271.911C287.247 276.042 285.926 278.318 281.235 277.475L248.227 272.356C248.834 271.749 248.964 271.304 248.632 271.004C248.988 270.777 249.094 270.623 248.948 270.558C259.084 271.992 269.082 273.531 278.942 275.159C281.786 275.629 283.666 274.6 284.581 272.073C287.49 264.022 290.277 255.809 292.919 247.434Z" fill="#A6BADA"/>
<path d="M273.927 247.798L275.11 248.154C275.385 248.235 275.385 248.324 275.118 248.422C274.486 248.64 273.862 248.713 273.238 248.632L273.927 247.798Z" fill="#86A1CD"/>
<path d="M264.244 247.944L266.594 248.139C266.861 248.163 267.056 248.398 267.032 248.657C267.023 248.746 266.991 248.827 266.942 248.892C266.716 249.208 266.489 249.548 266.262 249.921C266.148 250.107 266.019 250.228 265.897 250.277C265.808 250.309 265.727 250.326 265.638 250.318C265.492 250.309 265.444 250.237 265.5 250.107L266.051 248.714C266.092 248.609 266.043 248.495 265.946 248.455C265.873 248.422 265.792 248.438 265.735 248.487C265.346 248.835 265.128 249.273 265.087 249.799C265.071 249.961 264.933 250.083 264.771 250.066C264.731 250.058 264.682 250.05 264.65 250.026L264.471 249.921C264.342 249.84 264.317 249.734 264.39 249.605C264.747 248.997 264.674 248.609 264.171 248.438C264.09 248.414 264.018 248.374 263.961 248.325C263.823 248.179 263.847 248.082 264.034 248.009L264.244 247.944Z" fill="#BBD1EF"/>
<path d="M258.978 250.584L265.314 251.807C265.387 251.823 265.435 251.888 265.419 251.969L265.379 252.172C265.362 252.244 265.298 252.293 265.225 252.277L258.889 251.054C258.816 251.038 258.767 250.965 258.783 250.9L258.824 250.697C258.84 250.616 258.905 250.576 258.978 250.584Z" fill="#A6BADA"/>
<path d="M255.267 253.192L265.371 254.845C265.46 256.181 265.176 256.991 264.52 257.283C264.382 257.348 264.269 257.461 264.212 257.599L260.542 266.071C260.331 266.557 259.967 266.735 259.448 266.622C256.588 265.958 253.687 265.642 250.746 265.682C250.544 265.682 250.463 265.585 250.503 265.399C251.111 262.078 252.699 257.372 255.089 254.926C255.373 254.634 255.389 254.286 255.13 253.865C255.041 253.719 255.041 253.565 255.13 253.419L255.267 253.192Z" fill="#D2DCEE"/>
<path d="M271.415 254.189L273.83 254.724C273.951 254.748 274.024 254.87 274 254.991L273.984 255.072C273.959 255.194 273.838 255.267 273.716 255.242L271.302 254.708C271.18 254.683 271.107 254.562 271.132 254.44L271.148 254.359C271.172 254.238 271.294 254.165 271.415 254.189Z" fill="#A6BADA"/>
<path d="M213.881 255.274C214.157 256.441 214.076 257.137 213.638 257.364C212.512 257.891 209.231 260.296 210.827 261.787C212.058 262.945 213.492 263.552 215.129 263.625C224.39 263.69 233.562 262.961 242.782 263.18L244.889 263.569C245.991 263.86 246.436 264.662 246.209 265.974C246.339 266.152 246.347 266.355 246.226 266.59C246.153 266.736 246.015 266.865 245.812 266.97C245.002 267.408 244.143 267.643 243.244 267.691C236 267.643 227.744 269.619 221.238 271.028C221.181 271.036 221.133 271.085 221.141 271.15C221.149 271.207 221.198 271.255 221.262 271.247C221.335 271.247 221.408 271.271 221.481 271.296C221.635 271.369 221.797 271.393 221.967 271.369C226.894 270.631 231.876 269.441 236.657 268.906C238.99 268.647 241.316 268.38 243.657 268.112C245.974 267.708 248.988 267.375 248.932 270.551C249.078 270.615 248.972 270.769 248.616 270.996C247.749 271.765 247.157 271.425 246.355 271.644C245.456 271.903 244.629 272.397 243.73 272.535C237.807 273.442 229.065 274.592 224.066 277.962C223.823 278.132 223.847 278.197 224.139 278.164C225.63 278.018 227.501 277.686 228.473 279.063C228.668 279.339 228.627 279.566 228.352 279.76C227.639 280.27 227.315 280.667 227.372 280.959L219.99 283.85C217.811 284.757 215.21 286.24 212.204 288.305C203.859 294.024 192.613 295.303 182.817 295.068C181.083 295.579 179.641 295.311 178.491 294.275C172.195 288.572 170.607 282.149 173.718 275.005C179.212 271.263 184.575 267.756 189.81 264.484C197.085 259.932 203.591 258.061 213.881 255.274Z" fill="#F8C39D"/>
<path d="M213.646 257.372C214.667 259.195 215.17 261.276 215.137 263.633C213.5 263.56 212.066 262.953 210.835 261.795C209.239 260.304 212.512 257.899 213.646 257.372Z" fill="#E9A280"/>
<path d="M269.795 268.234C268.636 267.999 267.745 268.056 266.578 268.007C266.4 267.999 266.327 267.902 266.343 267.732C266.683 264.759 267.575 261.965 269.025 259.357C269.114 259.195 269.26 259.065 269.43 259C270.799 258.49 272.031 258.685 273.149 259.592C273.279 259.697 273.327 259.867 273.287 260.029C272.663 262.354 271.812 264.881 270.743 267.61C270.548 268.113 270.232 268.323 269.795 268.234Z" fill="#A6BADA"/>
<path d="M243.252 267.691C243.179 267.894 243.317 268.031 243.665 268.12C241.332 268.388 238.999 268.655 236.665 268.914C231.885 269.449 226.902 270.639 221.976 271.376C221.806 271.401 221.644 271.376 221.49 271.304C221.417 271.271 221.344 271.255 221.271 271.255C221.214 271.263 221.157 271.214 221.149 271.158C221.141 271.101 221.19 271.044 221.247 271.036C227.745 269.619 236.009 267.651 243.252 267.691Z" fill="#E9A280"/>
<path d="M248.624 271.004C248.964 271.295 248.826 271.749 248.219 272.357C246.72 273.037 245.002 273.62 243.082 274.09C241.923 274.373 240.87 274.77 239.922 275.281C235.871 277.459 231.69 279.355 227.38 280.967C227.323 280.675 227.655 280.27 228.36 279.768C228.636 279.582 228.668 279.347 228.482 279.079C227.509 277.702 225.638 278.034 224.147 278.18C223.855 278.213 223.831 278.14 224.074 277.978C229.081 274.608 237.815 273.458 243.738 272.551C244.637 272.413 245.464 271.919 246.363 271.66C247.165 271.433 247.757 271.765 248.624 271.004Z" fill="#E9A280"/>
<path d="M239.266 425.037C203.94 423.959 128.605 424.842 93.6766 425.174C93.5226 425.158 96.0991 414.693 96.1072 414.539L99.34 357.947L100.28 341.82C106.17 340.532 111.032 339.098 114.864 337.527C132.422 330.318 149.687 321.101 166.654 309.883C171.118 306.934 181.432 300.681 182.818 296.567C192.605 296.802 203.859 295.522 212.204 289.803C215.21 287.746 217.811 286.256 219.991 285.349L218.913 288.143C218.848 288.305 218.832 288.467 218.865 288.637L223.143 311.835L223.847 315.561C225.897 326.528 227.712 337.608 229.3 348.794" fill="url(#paint6_linear_1682_129)"/>
<path d="M609.457 380.357C607.78 379.224 583.854 379.726 582.072 379.734C502.888 379.904 423.705 379.596 344.53 379.766C308.661 379.839 272.809 379.774 236.948 379.572C235.052 379.564 233.124 379.515 231.163 379.418L231.204 363.048L600.691 363.032C600.828 363.032 609.457 362.903 609.457 363.032C609.457 363.073 609.482 366.126 609.457 366.167C609.457 373.246 609.457 372.93 609.457 380.357Z" fill="#D9B491"/>
<path d="M231.156 379.418C233.116 379.515 235.045 379.564 236.941 379.572C272.801 379.774 308.662 379.839 344.522 379.766C423.698 379.596 502.881 379.904 582.064 379.734C583.847 379.726 607.773 379.224 609.45 380.358C609.45 389.162 609.458 416.126 609.458 425.813C565.398 425.675 485.623 425.991 444.091 425.813C409.786 426.21 374.112 425.854 339.45 425.708C304.578 425.562 269.471 425.91 234.753 425.991C233.538 425.975 232.703 425.991 231.147 425.991L231.156 379.418Z" fill="#EBC8A7"/>
<path d="M609.458 344.16H201.995V363.033H609.458V344.16Z" fill="#FEFEFE"/>
<path d="M609.458 344.16L201.995 344.136L306.085 305.225L609.458 306.82V344.16Z" fill="#DDE1E4"/>
<path d="M423.154 284.749C409.583 292.395 394.91 299.183 382.489 309.939C377.871 313.94 375.083 317.35 373.22 322.461C373.098 322.802 373.179 323.288 373.463 323.911C369.922 323.919 366.908 323.83 364.421 323.628C352.13 322.648 338.477 321.376 323.472 319.805C322.192 319.667 320.75 319.359 319.154 318.865C318.594 315.552 319.623 312.58 322.232 309.939C324.542 307.606 326.745 305.395 328.836 303.289L332.984 299.936C333.041 299.896 333.057 299.839 333.033 299.774C332.984 299.653 332.952 299.628 332.919 299.717C332.968 299.62 333.089 299.563 333.284 299.563C333.438 299.563 333.584 299.515 333.705 299.426C338.178 296.04 342.958 292.233 347.301 289.447C354.277 284.968 361.674 281.274 369.493 278.391C370.984 277.84 373.204 277.338 375.019 277.119C381.079 276.39 387.148 276.147 393.232 276.406C402.266 276.787 416.47 277.921 423.154 284.749Z" fill="#ADE2DC"/>
<path d="M377.627 281.833L370.919 285.883C369.339 286.32 366.519 285.024 364.137 284.668C363.764 284.077 363.886 283.542 364.494 283.072C366.438 281.582 369.93 282.489 372.247 282.935C372.353 282.951 372.45 282.886 372.474 282.781C372.482 282.716 372.466 282.659 372.426 282.611L372.215 282.4C372.118 282.303 371.988 282.238 371.85 282.222C370.943 282.1 370.019 281.922 369.096 281.671C368.01 281.379 367.969 280.991 368.99 280.505C371.883 279.128 374.767 279.209 377.66 280.748C377.765 280.796 377.814 280.885 377.83 280.999C377.854 281.29 377.789 281.566 377.627 281.833Z" fill="#FEFEFE"/>
<path d="M400.249 283.356C399.731 283.477 399.398 283.712 399.244 284.06C399.196 284.174 399.228 284.214 399.35 284.198C399.812 284.109 400.233 283.939 400.614 283.672C403.036 282.465 407.136 283.518 409.696 284.141C409.785 284.166 409.867 284.198 409.939 284.247C410.628 284.676 410.717 285.089 410.199 285.478C409.291 286.158 408.4 286.774 407.517 287.325C404.389 287.819 401.254 287.446 398.118 286.199C397.916 286.118 397.681 286.215 397.6 286.426C397.583 286.474 397.567 286.523 397.567 286.58V286.847C397.567 286.993 397.64 287.074 397.786 287.098C400.176 287.398 402.469 288.102 404.657 289.22L398.151 292.824C396.311 293.011 394.488 292.687 392.706 291.852C392.568 291.788 392.406 291.763 392.244 291.788C391.061 291.958 389.919 291.861 388.809 291.48C388.428 291.35 388.08 291.366 387.764 291.528C387.602 291.618 387.537 291.82 387.618 291.982C387.666 292.087 387.772 292.152 387.893 292.16C390.567 292.322 393.2 292.986 395.785 294.161L392.374 296.267L387.107 296.17C387.051 296.17 387.018 296.137 387.018 296.08C387.018 296.04 387.018 295.983 387.026 295.927C387.034 295.821 386.986 295.773 386.872 295.789L381.59 296.469C380.812 296.566 380.585 296.259 380.909 295.546L381.695 293.829C381.752 293.699 381.906 293.642 382.035 293.699C382.084 293.723 382.124 293.756 382.149 293.804L382.635 294.663C382.716 294.801 382.87 294.874 383.024 294.849L385.082 294.509C385.163 294.493 385.219 294.412 385.203 294.331C385.187 294.266 385.138 294.226 385.082 294.218L383.21 293.983C383.072 293.966 382.959 293.869 382.918 293.732L382.692 292.784C383.453 292.346 384.085 292.193 384.571 292.314L384.612 293.286C384.62 293.448 384.668 293.464 384.766 293.327C385.001 292.962 385.057 292.549 384.928 292.071C386.257 291.01 387.723 288.92 389.611 289.852C389.894 289.998 390.251 289.884 390.389 289.593C390.453 289.463 390.47 289.309 390.429 289.171C390.283 288.661 390.486 288.24 391.021 287.9C392.114 287.211 393.168 286.547 394.181 285.907C394.561 286.231 395.072 286.312 395.712 286.166C396.279 286.118 396.619 285.867 396.733 285.397C397.008 285.089 397.195 284.717 397.316 284.279L398.215 283.105C398.28 283.016 398.264 282.886 398.175 282.821C398.143 282.797 398.11 282.789 398.07 282.781C391.92 282.214 385.779 281.736 379.637 281.339C379.459 281.323 379.289 281.226 379.135 281.031C379.094 280.456 379.313 280.173 379.791 280.165C386.856 280.003 393.913 280.48 400.962 281.614C401.181 281.647 401.327 281.857 401.286 282.068C401.278 282.141 401.246 282.206 401.197 282.262L400.249 283.356Z" fill="#FEFEFE"/>
<path d="M379.142 281.007C379.296 281.201 379.467 281.298 379.645 281.315C385.786 281.712 391.928 282.189 398.077 282.756C398.191 282.764 398.272 282.862 398.264 282.975C398.264 283.016 398.248 283.048 398.223 283.08L397.324 284.255L394.188 285.891C393.176 286.531 392.122 287.195 391.029 287.883C390.494 288.224 390.291 288.653 390.437 289.155C390.526 289.463 390.348 289.787 390.04 289.876C389.902 289.917 389.748 289.908 389.619 289.836C387.739 288.904 386.264 290.994 384.936 292.055L384.579 292.298C384.093 292.176 383.461 292.33 382.699 292.768C380.998 293.634 379.71 295.092 378.835 297.133C378.689 297.482 378.802 297.676 379.175 297.717C382.853 298.13 386.718 298.186 390.777 297.887C390.153 298.778 389.116 299.758 387.658 300.819C383.113 304.148 378.592 307.315 374.095 310.295C371.567 311.438 369.039 311.826 366.487 311.446C355.395 309.801 344.141 309.494 333.105 307.323C334.742 305.76 336.144 304.091 337.327 302.293C339.028 302.536 340.673 302.779 342.269 303.022C345.777 303.556 348.07 301.831 350.93 300.381C351.198 300.252 351.327 299.993 351.311 299.612L352.04 299.393C352.47 299.264 352.713 298.802 352.583 298.373C352.543 298.235 352.47 298.122 352.365 298.016C351.295 296.996 349.075 296.882 347.633 296.712L348.808 294.323C351.733 295.068 354.666 295.449 357.599 295.449C357.777 295.513 357.858 295.643 357.858 295.829C356.302 296.801 354.803 297.854 353.361 298.98C351.943 300.106 350.533 302.909 353.353 303.33C356.991 303.872 360.337 304.051 363.392 303.872L365.717 302.941C365.92 302.957 366.138 303.038 366.381 303.184C365.652 304.569 365.628 305.719 367.386 306.148C369.687 306.715 371.98 306.869 374.265 306.626C377.044 306.318 379.621 304.172 381.654 302.317C381.703 301.167 380.901 300.43 379.256 300.098C376.436 299.531 373.682 299.385 370.975 299.644C370.894 299.579 370.87 299.442 370.902 299.215L372.628 298.016C374.63 296.656 376.639 295.279 378.664 293.885C379.783 293.108 379.037 290.848 377.903 290.678C376.007 290.394 373.406 290.111 370.1 289.819C368.593 289.69 367.167 290.119 365.612 290.151C365.433 290.022 365.328 289.892 365.312 289.746L370.449 286.936C373.171 285.575 375.731 283.963 378.114 282.108C378.446 281.59 378.778 281.217 379.142 281.007Z" fill="#212C44"/>
<path d="M377.627 281.833C377.676 281.971 377.846 282.068 378.13 282.117C375.748 283.971 373.187 285.583 370.465 286.944C370.87 286.482 371.024 286.126 370.919 285.883L377.627 281.833Z" fill="#648BC1"/>
<path d="M400.249 283.355L400.613 283.671C400.241 283.939 399.811 284.109 399.349 284.198C399.228 284.222 399.187 284.174 399.244 284.06C399.398 283.712 399.73 283.477 400.249 283.355Z" fill="#D2DCEE"/>
<path d="M397.332 284.255C397.218 284.692 397.024 285.065 396.749 285.373C396.627 285.041 396.287 285.3 395.728 286.142C395.088 286.296 394.569 286.207 394.196 285.883L397.332 284.255Z" fill="#E7EBEE"/>
<path d="M364.138 284.668C366.528 285.024 369.339 286.32 370.919 285.883C371.025 286.126 370.879 286.474 370.474 286.944L365.337 289.755L363.83 290.419C363.595 290.394 363.506 290.338 363.554 290.241C363.862 289.86 363.927 289.528 363.741 289.236C363.627 289.058 363.384 288.928 363.003 288.847C361.367 288.483 359.77 287.981 358.215 287.349L359.365 286.66C360.346 287.438 361.537 287.867 362.914 287.948C364.283 288.029 365.742 287.308 367.241 287.13C367.411 287.106 367.565 287.001 367.646 286.839C367.905 286.296 367.719 285.98 367.071 285.883C365.977 285.713 364.932 285.462 363.935 285.138C364.081 284.887 364.146 284.733 364.138 284.668Z" fill="#D2DCEE"/>
<path d="M423.154 284.749L425.795 289.18C420.682 291.78 415.999 294.614 411.77 297.684C406.285 301.661 394.617 310.239 376.776 323.425C375.601 323.838 374.5 324 373.479 323.911C373.187 323.288 373.106 322.802 373.236 322.461C375.099 317.35 377.886 313.94 382.505 309.939C394.909 299.175 409.574 292.395 423.154 284.749Z" fill="#6CC9BE"/>
<path d="M363.926 285.129C364.923 285.461 365.968 285.704 367.062 285.874C367.71 285.972 367.896 286.296 367.637 286.83C367.556 286.992 367.402 287.098 367.232 287.122C365.733 287.3 364.266 288.021 362.905 287.94C361.52 287.859 360.337 287.43 359.356 286.652C360.442 285.137 361.965 284.627 363.926 285.129Z" fill="#FEFEFE"/>
<path d="M396.748 285.373C396.635 285.843 396.295 286.094 395.728 286.142C396.278 285.292 396.619 285.041 396.748 285.373Z" fill="#648BC1"/>
<path d="M407.517 287.325L404.657 289.22C402.461 288.102 400.176 287.398 397.786 287.098C397.64 287.082 397.567 286.993 397.567 286.855V286.588C397.567 286.361 397.746 286.183 397.972 286.183C398.021 286.183 398.078 286.191 398.118 286.215C401.262 287.446 404.39 287.827 407.517 287.325Z" fill="#E5EEEF"/>
<path d="M358.207 287.349C359.762 287.989 361.359 288.483 362.995 288.847C363.376 288.928 363.619 289.058 363.732 289.236C363.911 289.527 363.846 289.86 363.546 290.24C360.953 290.848 358.377 290.589 355.808 289.463C355.574 289.357 355.476 289.09 355.574 288.863C355.614 288.766 355.687 288.693 355.776 288.645L358.207 287.349Z" fill="#FEFEFE"/>
<path d="M394.723 289.333C394.561 289.228 394.383 289.18 394.197 289.171C393.881 289.155 393.711 289.001 393.686 288.694C393.67 288.491 393.767 288.41 393.97 288.442C396.279 288.831 398.118 289.909 400.581 290.232C400.751 290.257 400.784 290.338 400.679 290.467C399.787 291.593 395.201 289.617 394.723 289.333Z" fill="#E5EEEF"/>
<path d="M425.48 313.228L383.469 334.708C383.307 334.789 383.186 334.757 383.097 334.595L376.761 323.425C394.61 310.239 406.269 301.653 411.754 297.684C415.992 294.615 420.667 291.78 425.779 289.18C426.898 291.229 427.602 293.748 427.91 296.745L428.477 304.699" fill="#ADE2DC"/>
<path d="M360.774 292.808C357.639 293.367 354.228 293.262 350.533 292.476C351.627 291.342 352.834 290.419 354.147 289.714C354.293 289.633 354.447 289.625 354.609 289.69C356.537 290.467 358.66 291.933 361.09 291.634C361.285 291.609 361.382 291.69 361.382 291.893C361.382 292.112 361.18 292.419 360.774 292.808Z" fill="#FEFEFE"/>
<path d="M365.328 289.755C365.344 289.901 365.449 290.038 365.628 290.16C365.514 290.694 365.441 290.994 364.947 291.294C362.557 292.76 360.199 294.275 357.866 295.838C357.866 295.651 357.777 295.522 357.606 295.457L361.009 292.711C362.136 292.169 363.075 291.407 363.821 290.419L365.328 289.755Z" fill="#A6BADA"/>
<path d="M372.653 298.033C370.562 298.511 369.177 299.531 367.281 300.455C366.479 300.843 366.122 301.499 365.555 302.131C365.442 302.253 365.312 302.318 365.15 302.318C363.603 302.358 363.019 302.884 363.424 303.889C360.37 304.067 357.024 303.889 353.386 303.346C350.566 302.925 351.968 300.122 353.394 298.997C354.828 297.863 356.327 296.81 357.89 295.846C360.224 294.283 362.582 292.768 364.972 291.302C365.458 291.002 365.539 290.703 365.652 290.168C367.208 290.136 368.634 289.706 370.141 289.836C373.447 290.119 376.056 290.411 377.944 290.694C379.078 290.864 379.823 293.132 378.705 293.902C376.663 295.295 374.654 296.672 372.653 298.033Z" fill="#E7EBEE"/>
<path d="M398.15 292.824C397.332 293.504 396.546 293.95 395.793 294.16C393.208 292.986 390.575 292.322 387.901 292.16C387.715 292.144 387.577 291.99 387.593 291.803C387.601 291.69 387.674 291.585 387.771 291.528C388.087 291.366 388.436 291.35 388.817 291.471C389.927 291.852 391.069 291.949 392.252 291.779C392.414 291.755 392.568 291.779 392.714 291.844C394.496 292.694 396.311 293.018 398.15 292.824Z" fill="#E5EEEF"/>
<path d="M384.943 292.055C385.065 292.533 385.016 292.954 384.781 293.31C384.692 293.448 384.644 293.432 384.627 293.27L384.587 292.298L384.943 292.055Z" fill="#B9C1C4"/>
<path d="M350.533 292.477C354.228 293.254 357.639 293.368 360.774 292.809C360.855 292.776 360.928 292.744 361.009 292.711L357.606 295.457C354.665 295.457 351.74 295.085 348.815 294.331C349.221 293.521 349.796 292.898 350.533 292.477Z" fill="#D2DCEE"/>
<path d="M382.708 292.775L382.935 293.723C382.967 293.861 383.089 293.958 383.227 293.974L385.098 294.209C385.179 294.225 385.236 294.298 385.22 294.379C385.212 294.436 385.163 294.493 385.106 294.501L383.048 294.841C382.894 294.865 382.732 294.792 382.659 294.655L382.173 293.796C382.1 293.674 381.946 293.634 381.825 293.707C381.776 293.731 381.744 293.772 381.719 293.82L380.934 295.537C380.609 296.25 380.836 296.558 381.614 296.461L386.897 295.78C387.002 295.764 387.051 295.813 387.051 295.918C387.051 295.975 387.043 296.023 387.043 296.072C387.043 296.137 387.075 296.161 387.132 296.161L392.398 296.258L390.802 297.886C386.743 298.186 382.878 298.129 379.2 297.716C378.827 297.676 378.714 297.481 378.859 297.133C379.718 295.1 381.006 293.642 382.708 292.775Z" fill="#D2DCEE"/>
<path d="M347.641 296.729C349.083 296.899 351.303 297.012 352.372 298.033C352.696 298.34 352.713 298.859 352.405 299.191C352.307 299.296 352.186 299.369 352.048 299.41L351.319 299.628C349.439 299.944 347.535 300.584 345.761 300.56C343.703 300.543 341.71 300.147 339.806 299.385C341.677 296.129 344.473 296.988 347.641 296.729Z" fill="#FEFEFE"/>
<path d="M372.653 298.032L370.927 299.231C370.757 299.32 370.563 299.361 370.352 299.361C370.206 299.361 370.068 299.401 369.963 299.498L365.742 302.965L363.417 303.896C363.019 302.9 363.595 302.374 365.142 302.325C365.304 302.325 365.442 302.26 365.547 302.139C366.123 301.499 366.471 300.843 367.273 300.462C369.177 299.531 370.563 298.502 372.653 298.032Z" fill="#A6BADA"/>
<path d="M370.927 299.224C370.894 299.45 370.919 299.596 371 299.653L366.916 302.642C366.754 302.958 366.584 303.136 366.406 303.192C366.163 303.047 365.944 302.966 365.741 302.95L369.962 299.483C370.076 299.394 370.214 299.345 370.351 299.345C370.57 299.361 370.757 299.313 370.927 299.224Z" fill="#648BC1"/>
<path d="M339.806 299.394C341.71 300.155 343.703 300.544 345.761 300.568C347.536 300.584 349.44 299.944 351.319 299.637C351.336 300.017 351.206 300.268 350.939 300.406C348.079 301.856 345.786 303.581 342.277 303.047C340.681 302.804 339.028 302.552 337.335 302.318C337.497 301.257 338.315 300.285 339.806 299.394Z" fill="#D2DCEE"/>
<path d="M381.678 302.325C379.434 302.649 377.651 303.5 376.314 304.893C375.512 305.735 374.807 306.075 373.714 305.881C371.696 305.516 369.468 304.949 367.029 304.164C366.875 304.115 366.802 304.01 366.819 303.856L366.908 302.641L370.991 299.652C373.689 299.393 376.452 299.539 379.272 300.106C380.925 300.438 381.719 301.175 381.678 302.325Z" fill="#FEFEFE"/>
<path d="M381.679 302.325C379.645 304.18 377.061 306.326 374.29 306.634C372.005 306.885 369.712 306.723 367.411 306.156C365.653 305.719 365.677 304.577 366.406 303.192C366.593 303.135 366.763 302.957 366.917 302.641L366.828 303.856C366.819 304.018 366.884 304.115 367.038 304.164C369.477 304.941 371.705 305.517 373.723 305.881C374.816 306.075 375.521 305.735 376.323 304.893C377.644 303.508 379.435 302.649 381.679 302.325Z" fill="#D2DCEE"/>
<path d="M333.114 307.331C344.149 309.502 355.403 309.81 366.495 311.454C369.039 311.835 371.575 311.446 374.103 310.304C374.047 311.681 374.03 313.041 374.063 314.386C374.095 315.941 373.577 316.314 372.297 316.921C369.274 318.355 366.487 319.278 363.951 319.691L364.178 314.661C364.186 314.467 364.089 314.354 363.903 314.313C363.327 314.208 362.444 314.102 361.245 313.981C351.239 312.96 341.233 311.948 331.226 310.944C330.562 310.879 329.808 310.911 328.982 311.057C328.828 311.089 328.706 311.162 328.617 311.3L326.251 314.985C326.008 314.354 326.187 313.657 326.794 312.92C326.9 312.79 326.956 312.644 326.964 312.474C327.11 310.449 327.969 308.829 329.533 307.615C329.671 307.509 329.825 307.453 329.995 307.453L333.114 307.331Z" fill="#FEFEFE"/>
<path d="M363.959 319.699C362.703 319.813 361.836 319.853 361.374 319.804C355.905 319.27 345.745 318.176 330.918 316.524C329.548 316.37 328.22 316.07 326.883 315.779C326.372 315.674 326.17 315.406 326.251 314.993L328.617 311.308C328.706 311.178 328.827 311.097 328.981 311.065C329.816 310.919 330.561 310.879 331.225 310.951C341.232 311.956 351.238 312.968 361.244 313.989C362.443 314.11 363.335 314.224 363.902 314.321C364.088 314.353 364.185 314.467 364.177 314.669L363.959 319.699Z" fill="#171D2F"/>
<path d="M425.56 331.776C425.917 333.622 423.689 334.044 422.789 334.781C416.064 332.335 404.908 334.886 398.037 337.146C392.6 338.669 386.686 340.791 381.387 341.447C376.201 342.087 371.324 341.439 366.333 340.928L353.645 339.551C346.45 338.774 339.287 337.98 332.157 337.154C327.345 336.595 325.327 334.319 323.439 330.099C322.662 328.349 321.859 326.535 321.049 324.648L319.153 318.873C320.749 319.367 322.192 319.675 323.472 319.812C338.477 321.384 352.129 322.655 364.421 323.635C366.916 323.83 369.93 323.927 373.463 323.919C374.484 324.008 375.586 323.846 376.76 323.433L383.096 334.602C383.185 334.756 383.307 334.797 383.469 334.716L425.479 313.235C426.476 314.305 426.946 315.617 426.881 317.156" fill="#171D2F"/>
<path d="M517.327 167.376C515.844 168.162 514.823 169.603 514.272 171.701C513.575 174.358 512.708 177.039 511.679 179.744C510.618 181.623 508.86 182.563 506.421 182.571C496.731 182.595 487.008 182.506 477.269 182.296C476.985 182.288 476.767 182.061 476.767 181.777C476.767 181.729 476.775 181.688 476.791 181.648L479.797 171.126L481.369 170.972C482.041 171.969 483.127 172.455 484.61 172.43C485.031 172.43 485.379 172.762 485.387 173.184C485.387 173.208 485.387 173.232 485.387 173.256C485.323 174.083 485.298 174.965 485.315 175.897C485.323 176.172 485.404 176.31 485.558 176.294C485.703 176.286 485.898 176.18 486.141 175.986C485.89 177.403 486.003 178.027 486.497 177.857C485.938 178.051 485.371 178.084 484.788 177.938C484.626 177.898 484.529 177.962 484.496 178.124L484.407 178.708C484.375 178.926 484.472 179.032 484.691 179.04C491.731 179.266 498.78 179.266 505.821 179.032C505.983 179.023 506.105 178.951 506.186 178.805C506.405 178.392 506.437 178.068 506.291 177.833L506.648 171.863L510.683 171.742C510.837 171.734 510.958 171.677 511.055 171.564C511.525 171.037 511.695 170.413 511.566 169.693C511.533 169.49 511.412 169.385 511.201 169.385L482.738 169.053L483.184 168.194C483.783 168.154 484.31 167.789 484.926 167.773C497.273 167.441 506.615 167.838 516.881 167.19C516.994 167.182 517.1 167.214 517.189 167.271L517.327 167.376Z" fill="#BBD1EF"/>
<path d="M517.326 167.376C517.626 167.376 517.869 167.433 518.063 167.554C518.201 167.635 518.282 167.757 518.306 167.911C518.663 170.073 517.529 171.944 516.167 173.532C516.054 173.653 516.038 173.791 516.111 173.937L516.175 174.083C515.868 174.172 515.762 174.601 515.835 175.387C514.798 177.347 513.413 178.805 511.679 179.744C512.708 177.039 513.575 174.358 514.271 171.701C514.822 169.603 515.835 168.162 517.326 167.376Z" fill="#A6BADA"/>
<path d="M483.191 168.202L482.746 169.061L481.377 170.972L479.805 171.126C480.291 169.36 481.417 168.38 483.191 168.202Z" fill="#648BC1"/>
<path d="M482.746 169.069L511.209 169.401C511.42 169.401 511.534 169.507 511.574 169.709C511.704 170.438 511.534 171.062 511.064 171.58C510.966 171.694 510.837 171.75 510.683 171.758L506.648 171.88L486.968 171.864C486.481 171.864 486.238 172.107 486.23 172.593L486.149 175.995C485.906 176.189 485.712 176.294 485.566 176.302C485.412 176.319 485.331 176.181 485.323 175.906C485.307 174.966 485.331 174.091 485.396 173.257C485.436 172.836 485.12 172.471 484.699 172.431C484.675 172.431 484.65 172.431 484.618 172.431C483.127 172.455 482.049 171.969 481.377 170.973L482.746 169.069Z" fill="#FEFEFE"/>
<path d="M506.647 171.879L506.291 177.849L486.497 177.865C486.003 178.035 485.881 177.412 486.141 175.994L486.222 172.592C486.23 172.106 486.481 171.863 486.959 171.863L506.647 171.879Z" fill="#648BC1"/>
<path d="M516.176 174.074C516.289 174.131 516.403 174.139 516.492 174.107C516.549 174.082 516.622 174.09 516.678 174.123C528.216 180.109 522.269 196.154 518.971 205.08L516.233 212.232L515.941 211.074C515.909 210.928 515.917 210.782 515.965 210.645C516.2 210.029 517.61 207.307 516.322 206.757C519.952 197.944 526.928 182.02 515.836 175.378C515.763 174.601 515.868 174.163 516.176 174.074Z" fill="#212C44"/>
<path d="M506.291 177.849C506.445 178.075 506.404 178.399 506.185 178.821C506.104 178.966 505.991 179.039 505.821 179.047C498.78 179.282 491.731 179.282 484.69 179.056C484.471 179.047 484.374 178.942 484.406 178.723L484.496 178.14C484.528 177.97 484.625 177.905 484.787 177.954C485.371 178.1 485.938 178.067 486.497 177.873L506.291 177.849Z" fill="#FEFEFE"/>
<path d="M511.59 193.968C511.453 200.958 507.596 204.125 501.949 207.405C481.288 219.409 461.64 231.356 442.389 246.9C437.244 251.055 432.439 255.558 427.983 260.426C427.862 260.556 427.659 260.564 427.529 260.442C427.497 260.41 427.473 260.378 427.456 260.337C426.573 258.288 425.382 256.757 423.219 255.834C417.41 253.339 411.333 252.254 404.973 252.561C404.657 252.578 404.381 252.334 404.373 252.011C404.365 251.873 404.406 251.743 404.487 251.638C405.443 250.391 405.913 249.078 405.88 247.693L414.841 234.305C414.963 233.543 414.687 232.952 414.031 232.523L421.007 225.379L428.348 219.028C429.92 217.692 431.621 216.534 433.452 215.546C435.332 214.533 437.803 214.16 439.82 213.221C442.632 211.909 445.873 210.127 449.551 207.867C458.788 202.635 467.911 197.062 476.937 191.157C477.075 191.068 477.22 191.036 477.374 191.044C477.788 191.076 478.136 190.939 478.493 190.963C485.379 191.36 492.266 191.773 499.153 192.21C504.063 192.526 508.212 193.109 511.59 193.968Z" fill="#212C44"/>
<path d="M511.59 193.968C512.724 194.859 513.364 195.628 513.51 196.292C514.571 201.096 515.114 204.433 515.131 206.304C515.147 207.413 515.203 208.28 515.317 208.92C515.39 209.349 515.495 209.349 515.625 208.936L516.313 206.765C517.602 207.316 516.2 210.03 515.957 210.653C515.908 210.791 515.9 210.937 515.933 211.083L516.224 212.241L513.632 218.34C512.651 218.721 511.728 219.207 510.869 219.79C509.491 220.729 508.633 221.296 508.3 221.483C480.817 236.823 454.112 253.468 429.36 272.956C428.056 273.985 426.33 274.9 424.158 275.702C423.721 275.492 423.04 275.443 422.1 275.564C418.56 274.358 415.003 273.159 411.438 271.976C409.096 271.199 407.8 270.948 406.771 269.085C404.721 265.383 401.026 257.259 402.793 253.031L405.88 247.693C405.912 249.07 405.442 250.382 404.486 251.638C404.292 251.889 404.34 252.253 404.591 252.448C404.697 252.529 404.834 252.569 404.964 252.561C411.324 252.245 417.401 253.339 423.21 255.834C425.374 256.765 426.565 258.296 427.448 260.337C427.521 260.499 427.707 260.572 427.869 260.499C427.91 260.483 427.942 260.458 427.975 260.426C432.431 255.558 437.227 251.055 442.38 246.9C461.631 231.356 481.279 219.401 501.94 207.405C507.604 204.125 511.452 200.958 511.59 193.968Z" fill="#171D2F"/>
<path d="M497.071 203.614C495.815 203.638 494.607 203.144 493.546 203.023C487.672 202.375 481.79 201.937 475.883 201.727C474.603 201.686 472.642 201.492 471.443 201.881C470.455 202.205 470.268 202.464 470.9 202.666L451.722 213.771C451.374 213.998 450.807 214.087 450.013 214.047C449.859 214.038 449.721 214.087 449.608 214.2L448.83 214.954C446.691 213.925 444.252 213.463 441.521 213.552C442.761 212.888 444.211 212.459 445.321 211.876C450.863 208.936 456.349 205.898 461.785 202.755C467.53 199.443 471.354 196.754 477.22 196.737C481.287 196.729 486.424 197.24 492.614 198.26C495.661 198.77 498.683 199.864 497.071 203.614Z" fill="#6CC9BE"/>
<path d="M497.07 203.614C496.479 204.756 495.839 205.509 495.15 205.874C486.959 204.165 478.864 203.095 470.892 202.674C470.268 202.472 470.446 202.213 471.435 201.889C472.634 201.5 474.595 201.686 475.875 201.735C481.781 201.945 487.663 202.375 493.538 203.031C494.607 203.144 495.814 203.638 497.07 203.614Z" fill="#4EABA0"/>
<path d="M495.15 205.874C494.397 206.498 493.878 206.895 493.578 207.057C483.345 212.954 473.007 218.688 462.538 224.261L462.417 224.123C462.36 224.058 462.336 223.977 462.344 223.888C463.381 216.104 457.726 214.979 451.714 213.772L470.892 202.667C478.873 203.096 486.959 204.165 495.15 205.874Z" fill="#ADE2DC"/>
<path d="M441.514 213.545C444.252 213.456 446.683 213.926 448.822 214.946C452.435 216.914 454.583 219.887 455.247 223.856C455.279 224.042 455.215 224.18 455.061 224.285C454.745 224.496 454.307 224.755 453.74 225.063C450.288 226.942 445.962 229.639 440.752 233.146C439.877 233.737 439.156 234.369 438.597 235.033C438.329 235.349 437.892 235.463 437.519 235.301C430.835 232.563 425.504 232.79 418.058 232.749C418.681 232.045 419.322 231.672 419.986 231.648C422.959 231.518 426.978 231.429 432.058 231.356C436.539 231.308 441.919 227.055 444.852 224.042C446.934 221.896 449.462 217.433 445.759 215.383C444.463 214.671 442.559 214.501 441.003 214.42C440.817 214.411 440.663 214.258 440.671 214.063C440.679 213.917 440.768 213.796 440.898 213.747L441.514 213.545Z" fill="#171D2F"/>
<path d="M451.714 213.779C457.726 214.986 463.381 216.112 462.344 223.896C462.336 223.985 462.36 224.066 462.417 224.131L462.538 224.268C451.049 231.898 439.795 239.779 428.784 247.912C427.229 246.632 425.341 245.619 423.121 244.874C419.005 243.497 414.784 242.768 410.457 242.695L418.049 232.765C425.495 232.806 430.826 232.579 437.51 235.316C437.883 235.478 438.329 235.365 438.588 235.049C439.147 234.385 439.86 233.753 440.743 233.162C445.953 229.655 450.28 226.958 453.731 225.078C454.298 224.771 454.744 224.511 455.052 224.301C455.206 224.196 455.271 224.05 455.238 223.872C454.574 219.903 452.435 216.938 448.813 214.962L449.591 214.209C449.704 214.095 449.842 214.047 449.996 214.055C450.806 214.095 451.373 214.006 451.714 213.779Z" fill="#6CC9BE"/>
<path d="M513.64 218.331C513.615 218.461 513.599 218.59 513.575 218.72C512.611 220.542 511.444 222.195 510.075 223.653C509.216 223.491 508.333 223.774 507.417 224.511C506.356 225.37 505.667 225.88 505.367 226.058C485.946 237.438 467.368 249.823 448.287 262.904C441.692 267.424 435.509 271.392 429.741 274.81C427.966 275.855 426.111 276.155 424.158 275.701C426.322 274.891 428.055 273.976 429.36 272.956C454.112 253.468 480.817 236.815 508.3 221.482C508.632 221.296 509.491 220.729 510.869 219.789C511.736 219.198 512.659 218.712 513.64 218.331Z" fill="#212C44"/>
<path d="M510.083 223.661C508.746 225.281 507.83 226.269 507.344 226.634C501.535 230.935 495.717 235.122 489.892 239.188L469.061 252.942L460.74 258.36C460.602 258.45 460.57 258.571 460.635 258.717C461.566 260.677 460.894 266.622 460.829 269.036C460.829 269.214 460.683 269.352 460.505 269.352H452.67C452.435 269.352 452.241 269.165 452.241 268.922C452.241 268.914 452.241 268.906 452.241 268.906L452.419 263.909C452.427 263.65 452.305 263.552 452.054 263.625C451.511 263.787 451.147 264.046 450.961 264.387L443.814 268.218C438.378 271.612 434.246 274.163 431.41 275.856C427.764 278.043 425.625 277.662 422.108 275.556C423.048 275.443 423.729 275.483 424.166 275.694C426.119 276.147 427.974 275.856 429.749 274.803C435.518 271.385 441.7 267.416 448.287 262.896C467.368 249.823 485.946 237.431 505.367 226.051C505.667 225.872 506.348 225.354 507.417 224.504C508.341 223.775 509.224 223.491 510.083 223.661Z" fill="#ADE2DC"/>
<path d="M428.129 243.464C424.969 242.493 421.307 241.229 417.993 241.026C417.709 241.01 417.701 240.945 417.952 240.832C418.868 240.411 420.399 237.511 421.347 235.891C421.428 235.754 421.55 235.673 421.712 235.64C425.876 234.911 433.144 237.438 429.166 243.108C428.931 243.44 428.518 243.586 428.129 243.464Z" fill="#4EABA0"/>
<path d="M493.838 311.972L493.417 304.172C493.409 304.083 493.441 304.002 493.498 303.937L493.328 299.709L491.586 269.011L489.9 239.18L469.07 252.933C468.276 272.623 467.611 292.249 467.068 311.81L446.035 311.68L442.494 331.679H494.081V311.972H493.838Z" fill="#171D2F"/>
<path d="M410.458 242.688C414.785 242.76 419.006 243.489 423.122 244.866C425.334 245.612 427.222 246.624 428.785 247.904C427.878 248.617 426.266 250.172 425.058 249.726C419.605 247.726 415.781 247.142 408.959 246.097C408.838 246.081 408.748 245.96 408.765 245.83C408.765 245.806 408.781 245.782 408.789 245.757L410.458 242.688Z" fill="#4EABA0"/>
<path d="M469.062 252.934C468.259 272.835 467.587 292.663 467.044 312.434C467.02 313.398 466.517 317.569 465.999 318.209L462.442 317.237L457.548 317.48L458.318 314.654L458.115 313.536C458.253 313.439 458.326 313.317 458.342 313.147L458.739 307.412C458.755 307.161 458.642 307.032 458.383 307.032L448.393 306.894C448.198 306.894 448.028 307.04 448.004 307.242L446.383 322.688C446.367 322.826 446.472 322.948 446.61 322.964C446.626 322.964 446.643 322.964 446.659 322.964C447.485 322.883 448.028 322.794 448.279 322.705C448.539 322.616 448.927 322.178 449.438 321.384C449.47 321.814 449.64 322.194 449.948 322.518C448.83 323.215 448.539 324.689 449.065 326.933L445.298 327.111L444.73 319.157C445.209 317.464 445.622 315.099 445.978 312.078C447.623 297.903 449.162 283.696 450.596 269.465L450.969 264.395C451.156 264.055 451.52 263.803 452.063 263.641C452.314 263.569 452.436 263.666 452.428 263.925L452.249 268.922C452.241 269.157 452.42 269.36 452.654 269.368C452.663 269.368 452.671 269.368 452.679 269.368H460.514C460.692 269.368 460.838 269.222 460.838 269.052C460.894 266.638 461.567 260.693 460.643 258.733C460.57 258.587 460.603 258.466 460.749 258.377L469.062 252.934Z" fill="#212C44"/>
<path d="M451.99 273.475H460.197C460.392 273.475 460.554 273.637 460.554 273.831C460.554 273.839 460.554 273.847 460.554 273.855L459.995 285.244C459.987 285.43 459.833 285.584 459.638 285.584H450.774C450.58 285.584 450.418 285.422 450.418 285.227C450.418 285.211 450.418 285.203 450.418 285.195L451.625 273.807C451.65 273.612 451.803 273.475 451.99 273.475Z" fill="#ADE2DC"/>
<path d="M459.686 290.767L459.103 301.807C459.087 302.001 458.933 302.155 458.73 302.155H448.911C448.708 302.155 448.546 301.985 448.546 301.783C448.546 301.767 448.546 301.75 448.546 301.742L449.85 290.581C449.875 290.395 450.037 290.257 450.223 290.257L459.306 290.378C459.508 290.378 459.67 290.548 459.67 290.751C459.686 290.759 459.686 290.759 459.686 290.767Z" fill="#ADE2DC"/>
<path d="M457.507 323.353C456.989 324.146 448.546 323.353 448.287 323.442C448.036 323.531 447.485 322.883 446.658 322.964C446.521 322.98 446.399 322.875 446.383 322.737C446.383 322.721 446.383 322.705 446.383 322.688L448.003 307.242C448.028 307.04 448.19 306.886 448.392 306.894L458.382 307.032C458.633 307.032 458.755 307.161 458.739 307.412L458.342 313.147C458.326 313.309 458.593 313.617 458.455 313.706" fill="#ADE2DC"/>
<path d="M462.441 317.237L465.998 318.209C467.003 320.882 466.217 323.579 466.111 326.56C466.103 326.738 465.949 326.876 465.771 326.868H465.763C463.349 326.706 460.967 326.779 458.625 327.095L452.508 327.111L449.064 326.925C448.74 326.625 448.692 323.531 449.064 323.531L453.043 323.353C453.043 323.523 453.132 323.612 453.302 323.604L457.029 323.482C457.199 323.474 457.337 323.353 457.361 323.191C457.58 321.862 458.268 318.549 457.539 317.48L458.179 317.351L462.441 317.237Z" fill="#212C44"/>
<path d="M485.775 298.996C486.091 300.009 486.148 301.005 485.945 301.977L481.7 302.098C482.445 300.527 482.421 299.45 481.627 298.883L485.775 298.996Z" fill="#B9C1C4"/>
<path d="M480.534 299.021L481.627 298.875C482.421 299.442 482.446 300.519 481.7 302.091L481.06 302.22C479.27 302.884 477.949 304.059 477.098 305.752C476.782 305.825 476.604 305.784 476.58 305.638C476.353 304.472 476.013 303.387 475.551 302.398C476.248 300.373 478.605 299.523 480.534 299.021Z" fill="#FEFEFE"/>
<path d="M485.775 298.996L489.729 299.571C492.841 300.924 494.882 303.265 495.846 306.602C495.903 306.796 495.83 306.926 495.636 306.991C494.753 307.274 493.861 307.315 492.962 307.112C492.784 307.072 492.646 306.942 492.597 306.764C492.111 305.087 491.082 303.807 489.502 302.949L485.946 301.977C486.148 300.997 486.091 300.009 485.775 298.996Z" fill="#FEFEFE"/>
<path d="M510.301 301.037L510.188 303.597C510.188 303.767 510.164 303.832 510.107 303.791C508.162 304.139 506.574 305.047 505.327 306.529C503.941 308.173 504.038 310.433 504.128 312.506L500.425 312.49C500.619 311.024 500.822 309.599 501.049 308.205C501.308 306.61 502.531 307.225 503.52 307.444C503.585 307.46 503.641 307.42 503.666 307.363C503.682 307.323 503.658 307.274 503.625 307.242L502.637 306.432C502.305 306.164 502.224 305.695 502.434 305.33C503.998 302.625 506.412 301.118 509.686 300.819C510.002 300.77 510.212 300.851 510.301 301.037Z" fill="#FEFEFE"/>
<path d="M517.577 300.997L517.771 304.034L510.106 303.791C510.155 303.832 510.187 303.767 510.187 303.597C510.252 303.597 510.317 303.581 510.374 303.548C510.512 303.475 510.584 303.362 510.593 303.2L510.69 300.924L517.577 300.997Z" fill="#ABB4B5"/>
<path d="M510.301 301.037C510.528 301.094 510.658 301.053 510.682 300.924L510.585 303.2C510.577 303.362 510.504 303.475 510.366 303.548C510.309 303.581 510.245 303.597 510.18 303.597L510.301 301.037Z" fill="#6D7480"/>
<path d="M475.551 302.391C476.004 303.379 476.353 304.464 476.58 305.631C476.612 305.776 476.782 305.817 477.098 305.744C477.025 306.303 476.847 306.683 476.563 306.878C476.191 306.878 476.013 306.967 476.021 307.145L473.468 307.25C473.161 306.926 472.99 306.546 472.958 306.117C473.477 304.788 474.343 303.541 475.551 302.391Z" fill="#E5EEEF"/>
<path d="M526.36 310.676C526.116 311.349 526.57 312.725 525.8 313.074L523.67 313.066L523.621 308.724C522.997 308.611 522.778 308.4 522.94 308.092C522.308 306.432 519.448 305.079 517.771 304.026C517.714 303.872 517.269 301.021 517.423 300.989C520.672 300.333 527.956 307.979 526.36 310.676Z" fill="#FEFEFE"/>
<path d="M476.013 307.153L476.021 311.859L472.577 311.673C472.051 309.429 472.351 307.955 473.461 307.259L476.013 307.153Z" fill="#FEFEFE"/>
<path d="M496.731 312.313C496.163 312.353 495.912 312.272 495.985 312.07L495.491 308.052C495.467 307.874 495.41 307.866 495.329 308.02C494.818 308.935 495.183 310.936 495.394 312.167C494.357 312.539 493.627 312.556 493.214 312.199L493.206 307.688C493.206 307.55 493.319 307.437 493.457 307.437C493.465 307.437 493.473 307.437 493.473 307.437L495.734 307.599C495.92 307.615 496.026 307.712 496.05 307.89L496.731 312.313Z" fill="#FEFEFE"/>
<path d="M495.985 312.062C495.815 312.183 495.612 312.216 495.394 312.167C495.183 310.936 494.818 308.943 495.329 308.028C495.418 307.866 495.475 307.874 495.491 308.06L495.985 312.062Z" fill="#ABB4B5"/>
<path d="M472.577 311.664L476.021 311.85L482.138 311.834L493.214 312.199C493.627 312.555 494.356 312.539 495.393 312.166C495.612 312.215 495.815 312.182 495.985 312.061C495.92 312.272 496.171 312.353 496.73 312.304L500.425 312.474L504.119 312.49L518.76 312.749L523.67 313.065L525.801 313.073L536.95 313.146L539.858 312.944C539.883 312.855 539.988 312.887 540.174 313.025L545.886 313.26C543.845 315.568 543.099 317.285 543.35 320.525C543.666 324.64 544.266 328.536 543.691 332.853L542.759 337.089L541.989 339.479C540.968 342.467 539.421 345.116 537.355 347.424C536.399 348.485 535.216 348.599 533.895 348.599C516.67 348.607 499.444 348.599 482.219 348.591C477.333 348.583 473.849 348.323 471.435 343.699C469.515 340.021 468.251 336.133 467.651 332.019L467.635 326.503C467.635 326.333 467.602 326.163 467.538 326.001C467.384 325.612 467.408 325.207 467.611 324.794C467.692 324.624 467.659 324.486 467.513 324.364C467.449 324.316 467.343 324.283 467.214 324.275C467.278 322.736 466.808 321.424 465.812 320.355L463.146 313.762C462.563 312.328 463.049 311.64 464.588 311.688L468.81 311.826L472.577 311.664Z" fill="#FCC28D"/>
<defs>
<linearGradient id="paint0_linear_1682_129" x1="77.0003" y1="297.5" x2="597" y2="426" gradientUnits="userSpaceOnUse">
<stop stop-color="#CFF9E4"/>
<stop offset="1" stop-color="#D7EDE2"/>
</linearGradient>
<linearGradient id="paint1_linear_1682_129" x1="213.881" y1="177.073" x2="83.2812" y2="193.337" gradientUnits="userSpaceOnUse">
<stop stop-color="#14B8A6"/>
<stop offset="1" stop-color="#00987F"/>
</linearGradient>
<linearGradient id="paint2_linear_1682_129" x1="305.757" y1="212.516" x2="239.502" y2="220.102" gradientUnits="userSpaceOnUse">
<stop stop-color="#14B8A6"/>
<stop offset="1" stop-color="#00987F"/>
</linearGradient>
<linearGradient id="paint3_linear_1682_129" x1="271.602" y1="213.231" x2="266.636" y2="213.898" gradientUnits="userSpaceOnUse">
<stop stop-color="#14B8A6"/>
<stop offset="1" stop-color="#00987F"/>
</linearGradient>
<linearGradient id="paint4_linear_1682_129" x1="270.773" y1="247.426" x2="254.549" y2="251.208" gradientUnits="userSpaceOnUse">
<stop stop-color="#14B8A6"/>
<stop offset="1" stop-color="#00987F"/>
</linearGradient>
<linearGradient id="paint5_linear_1682_129" x1="275.978" y1="249.504" x2="268.646" y2="250.149" gradientUnits="userSpaceOnUse">
<stop stop-color="#14B8A6"/>
<stop offset="1" stop-color="#00987F"/>
</linearGradient>
<linearGradient id="paint6_linear_1682_129" x1="239.266" y1="315.471" x2="82.2664" y2="339.32" gradientUnits="userSpaceOnUse">
<stop stop-color="#14B8A6"/>
<stop offset="1" stop-color="#00987F"/>
</linearGradient>
</defs>
</svg>
