<svg width="294" height="57" viewBox="0 0 294 57" fill="none" xmlns="http://www.w3.org/2000/svg">
<path d="M18.1185 9.79395C13.5041 10.0564 8.72256 11.8739 5.44037 15.1279C2.15819 18.3819 0.302262 22.6978 0 27.3098H9.28527C9.43604 25.0093 10.4845 23.4902 12.1217 21.8671C13.7589 20.2439 15.8168 18.7393 18.1185 18.6084V9.79395Z" fill="#FF5F00"/>
<path d="M10.2832 45.5416C13.0447 46.9552 16.3748 47.5756 19.4767 47.5261C22.5787 47.4766 25.6209 46.6658 28.3359 45.1648C31.051 43.6638 33.3556 41.5187 35.0471 38.9181C36.7387 36.3175 37.4344 32.4722 37.7058 29.3818L28.8053 29.4011C28.6699 30.9426 27.9359 32.4465 27.0921 33.7437C26.2483 35.0409 25.3488 35.9785 23.9945 36.7272C22.6402 37.4759 21.1346 38.1716 19.5873 38.1962C18.04 38.2209 13.2955 38.5227 10.2832 33.789V45.5416Z" fill="#FF5F00"/>
<path d="M0 28.4023H9.30412V56.8044C9.30412 56.8044 6.0726 56.5745 4.22618 55.9437C2.3343 55.2974 0 53.5272 0 53.5272V28.4023Z" fill="#FF5F00"/>
<rect x="19.0977" y="9.79395" width="28.402" height="8.81441" fill="#00987F"/>
<rect x="37.7061" width="28.402" height="8.81441" transform="rotate(90 37.7061 0)" fill="#00987F"/>
<path d="M61.2755 39.4023H56.3323L63.8643 17.5842H69.8089L77.3302 39.4023H72.387L66.9218 22.57H66.7514L61.2755 39.4023ZM60.9666 30.8263H72.6427V34.4272H60.9666V30.8263ZM85.6028 39.7219C83.9267 39.7219 82.4849 39.3668 81.2775 38.6566C80.0772 37.9393 79.1539 36.945 78.5076 35.6737C77.8684 34.4023 77.5488 32.9393 77.5488 31.2844C77.5488 29.6083 77.872 28.1381 78.5183 26.8739C79.1717 25.6026 80.0985 24.6119 81.2988 23.9016C82.4991 23.1843 83.9267 22.8256 85.5815 22.8256C87.009 22.8256 88.259 23.0849 89.3315 23.6033C90.4039 24.1218 91.2526 24.8498 91.8776 25.7873C92.5026 26.7248 92.8471 27.8256 92.911 29.0898H88.6284C88.5076 28.2731 88.188 27.6161 87.6695 27.119C87.1582 26.6147 86.487 26.3626 85.6561 26.3626C84.9529 26.3626 84.3386 26.5543 83.813 26.9379C83.2945 27.3143 82.8897 27.8647 82.5985 28.5891C82.3073 29.3136 82.1617 30.1907 82.1617 31.2205C82.1617 32.2646 82.3038 33.1523 82.5879 33.8839C82.8791 34.6154 83.2874 35.1729 83.813 35.5565C84.3386 35.94 84.9529 36.1317 85.6561 36.1317C86.1745 36.1317 86.6397 36.0252 87.0517 35.8121C87.4707 35.5991 87.8151 35.2901 88.085 34.8853C88.362 34.4734 88.5431 33.9798 88.6284 33.4045H92.911C92.84 34.6545 92.4991 35.7553 91.8883 36.707C91.2846 37.6516 90.4501 38.3903 89.3847 38.9229C88.3194 39.4556 87.0588 39.7219 85.6028 39.7219ZM99.4551 29.9421V39.4023H94.9167V23.0387H99.242V25.9258H99.4338C99.796 24.9741 100.403 24.2212 101.256 23.6673C102.108 23.1062 103.141 22.8256 104.356 22.8256C105.492 22.8256 106.483 23.0742 107.328 23.5714C108.173 24.0685 108.83 24.7788 109.299 25.7021C109.768 26.6183 110.002 27.712 110.002 28.9833V39.4023H105.464V29.793C105.471 28.7915 105.215 28.0103 104.697 27.4492C104.178 26.881 103.464 26.5969 102.555 26.5969C101.944 26.5969 101.405 26.7283 100.936 26.9911C100.474 27.2539 100.112 27.6374 99.8493 28.1417C99.5936 28.6388 99.4622 29.239 99.4551 29.9421ZM120.072 39.7219C118.417 39.7219 116.986 39.3704 115.779 38.6673C114.579 37.957 113.652 36.9698 112.998 35.7056C112.345 34.4343 112.018 32.9606 112.018 31.2844C112.018 29.5941 112.345 28.1168 112.998 26.8526C113.652 25.5813 114.579 24.5941 115.779 23.891C116.986 23.1808 118.417 22.8256 120.072 22.8256C121.727 22.8256 123.155 23.1808 124.355 23.891C125.562 24.5941 126.493 25.5813 127.146 26.8526C127.8 28.1168 128.126 29.5941 128.126 31.2844C128.126 32.9606 127.8 34.4343 127.146 35.7056C126.493 36.9698 125.562 37.957 124.355 38.6673C123.155 39.3704 121.727 39.7219 120.072 39.7219ZM120.094 36.2063C120.846 36.2063 121.475 35.9933 121.979 35.5671C122.484 35.1339 122.864 34.5444 123.119 33.7987C123.382 33.0529 123.513 32.2042 123.513 31.2525C123.513 30.3008 123.382 29.4521 123.119 28.7063C122.864 27.9606 122.484 27.3711 121.979 26.9379C121.475 26.5046 120.846 26.288 120.094 26.288C119.334 26.288 118.694 26.5046 118.176 26.9379C117.665 27.3711 117.278 27.9606 117.015 28.7063C116.759 29.4521 116.631 30.3008 116.631 31.2525C116.631 32.2042 116.759 33.0529 117.015 33.7987C117.278 34.5444 117.665 35.1339 118.176 35.5671C118.694 35.9933 119.334 36.2063 120.094 36.2063ZM137.571 39.7219C135.916 39.7219 134.485 39.3704 133.277 38.6673C132.077 37.957 131.15 36.9698 130.497 35.7056C129.843 34.4343 129.517 32.9606 129.517 31.2844C129.517 29.5941 129.843 28.1168 130.497 26.8526C131.15 25.5813 132.077 24.5941 133.277 23.891C134.485 23.1808 135.916 22.8256 137.571 22.8256C139.226 22.8256 140.653 23.1808 141.853 23.891C143.061 24.5941 143.991 25.5813 144.645 26.8526C145.298 28.1168 145.625 29.5941 145.625 31.2844C145.625 32.9606 145.298 34.4343 144.645 35.7056C143.991 36.9698 143.061 37.957 141.853 38.6673C140.653 39.3704 139.226 39.7219 137.571 39.7219ZM137.592 36.2063C138.345 36.2063 138.973 35.9933 139.478 35.5671C139.982 35.1339 140.362 34.5444 140.618 33.7987C140.88 33.0529 141.012 32.2042 141.012 31.2525C141.012 30.3008 140.88 29.4521 140.618 28.7063C140.362 27.9606 139.982 27.3711 139.478 26.9379C138.973 26.5046 138.345 26.288 137.592 26.288C136.832 26.288 136.193 26.5046 135.674 26.9379C135.163 27.3711 134.776 27.9606 134.513 28.7063C134.258 29.4521 134.13 30.3008 134.13 31.2525C134.13 32.2042 134.258 33.0529 134.513 33.7987C134.776 34.5444 135.163 35.1339 135.674 35.5671C136.193 35.9933 136.832 36.2063 137.592 36.2063ZM153.804 39.4023V17.5842H162.412C164.067 17.5842 165.477 17.9002 166.642 18.5323C167.806 19.1573 168.694 20.0273 169.305 21.1424C169.923 22.2504 170.232 23.5288 170.232 24.9776C170.232 26.4265 169.919 27.7049 169.294 28.8129C168.669 29.9208 167.764 30.7837 166.578 31.4016C165.399 32.0195 163.971 32.3285 162.295 32.3285H156.809V28.6317H161.549C162.437 28.6317 163.169 28.479 163.744 28.1737C164.326 27.8612 164.76 27.4315 165.044 26.8846C165.335 26.3306 165.48 25.695 165.48 24.9776C165.48 24.2532 165.335 23.6211 165.044 23.0813C164.76 22.5344 164.326 22.1119 163.744 21.8136C163.162 21.5082 162.423 21.3555 161.528 21.3555H158.417V39.4023H153.804ZM176.781 29.9421V39.4023H172.243V17.5842H176.653V25.9258H176.845C177.215 24.9599 177.811 24.2035 178.635 23.6566C179.459 23.1026 180.492 22.8256 181.735 22.8256C182.871 22.8256 183.862 23.0742 184.707 23.5714C185.56 24.0614 186.22 24.7681 186.689 25.6914C187.165 26.6076 187.399 27.7049 187.392 28.9833V39.4023H182.854V29.793C182.861 28.7844 182.605 27.9996 182.087 27.4386C181.575 26.8775 180.858 26.5969 179.935 26.5969C179.317 26.5969 178.77 26.7283 178.294 26.9911C177.825 27.2539 177.456 27.6374 177.186 28.1417C176.923 28.6388 176.788 29.239 176.781 29.9421ZM194.73 39.7113C193.686 39.7113 192.755 39.5302 191.939 39.168C191.122 38.7987 190.476 38.2553 190 37.538C189.531 36.8136 189.297 35.9116 189.297 34.832C189.297 33.9229 189.463 33.1594 189.797 32.5415C190.131 31.9237 190.586 31.4265 191.161 31.0501C191.736 30.6737 192.39 30.3896 193.121 30.1978C193.86 30.006 194.634 29.8711 195.444 29.793C196.395 29.6935 197.162 29.6012 197.745 29.516C198.327 29.4237 198.75 29.2887 199.012 29.1112C199.275 28.9336 199.407 28.6708 199.407 28.3228V28.2589C199.407 27.5842 199.194 27.0621 198.767 26.6928C198.348 26.3235 197.752 26.1388 196.978 26.1388C196.161 26.1388 195.511 26.32 195.028 26.6822C194.545 27.0373 194.226 27.4847 194.069 28.0245L189.872 27.6836C190.085 26.6893 190.504 25.8299 191.129 25.1055C191.754 24.3739 192.56 23.8129 193.547 23.4222C194.542 23.0245 195.692 22.8256 196.999 22.8256C197.908 22.8256 198.778 22.9322 199.609 23.1452C200.447 23.3583 201.189 23.6886 201.836 24.136C202.489 24.5835 203.004 25.1587 203.38 25.8619C203.757 26.5579 203.945 27.3924 203.945 28.3654V39.4023H199.641V37.1332H199.513C199.25 37.6445 198.899 38.0955 198.458 38.4862C198.018 38.8697 197.489 39.1715 196.871 39.3917C196.253 39.6048 195.539 39.7113 194.73 39.7113ZM196.03 36.5792C196.697 36.5792 197.287 36.4478 197.798 36.185C198.309 35.9151 198.711 35.5529 199.002 35.0984C199.293 34.6438 199.439 34.1289 199.439 33.5536V31.8171C199.297 31.9094 199.101 31.9947 198.853 32.0728C198.611 32.1438 198.338 32.2113 198.032 32.2752C197.727 32.332 197.422 32.3853 197.116 32.435C196.811 32.4776 196.534 32.5167 196.285 32.5522C195.753 32.6303 195.287 32.7546 194.89 32.9251C194.492 33.0955 194.183 33.3263 193.963 33.6175C193.743 33.9016 193.633 34.2567 193.633 34.6829C193.633 35.3008 193.856 35.7731 194.304 36.0998C194.758 36.4194 195.333 36.5792 196.03 36.5792ZM206.566 39.4023V23.0387H210.966V25.8938H211.136C211.435 24.8782 211.935 24.1112 212.638 23.5927C213.342 23.0671 214.151 22.8043 215.067 22.8043C215.295 22.8043 215.54 22.8185 215.802 22.8469C216.065 22.8754 216.296 22.9144 216.495 22.9641V26.9911C216.282 26.9272 215.987 26.8704 215.611 26.8207C215.234 26.771 214.89 26.7461 214.577 26.7461C213.91 26.7461 213.313 26.8917 212.788 27.1829C212.269 27.467 211.857 27.8647 211.552 28.3761C211.253 28.8874 211.104 29.4769 211.104 30.1445V39.4023H206.566ZM217.941 39.4023V23.0387H222.267V25.9258H222.458C222.799 24.967 223.367 24.2106 224.163 23.6566C224.958 23.1026 225.91 22.8256 227.018 22.8256C228.14 22.8256 229.095 23.1062 229.884 23.6673C230.672 24.2212 231.198 24.9741 231.461 25.9258H231.631C231.965 24.9883 232.568 24.239 233.442 23.6779C234.323 23.1097 235.363 22.8256 236.564 22.8256C238.091 22.8256 239.33 23.3121 240.282 24.2852C241.24 25.2511 241.72 26.6218 241.72 28.3974V39.4023H237.192V29.2923C237.192 28.3832 236.951 27.7013 236.468 27.2468C235.985 26.7923 235.381 26.565 234.657 26.565C233.833 26.565 233.19 26.8278 232.728 27.3533C232.267 27.8718 232.036 28.5572 232.036 29.4094V39.4023H227.636V29.1964C227.636 28.3938 227.405 27.7546 226.943 27.2788C226.489 26.8029 225.889 26.565 225.143 26.565C224.639 26.565 224.184 26.6928 223.779 26.9485C223.382 27.1971 223.066 27.5487 222.831 28.0032C222.597 28.4506 222.48 28.9762 222.48 29.5799V39.4023H217.941ZM249.071 39.7113C248.027 39.7113 247.096 39.5302 246.28 39.168C245.463 38.7987 244.817 38.2553 244.341 37.538C243.872 36.8136 243.638 35.9116 243.638 34.832C243.638 33.9229 243.805 33.1594 244.138 32.5415C244.472 31.9237 244.927 31.4265 245.502 31.0501C246.077 30.6737 246.731 30.3896 247.462 30.1978C248.201 30.006 248.975 29.8711 249.785 29.793C250.736 29.6935 251.503 29.6012 252.086 29.516C252.668 29.4237 253.091 29.2887 253.354 29.1112C253.616 28.9336 253.748 28.6708 253.748 28.3228V28.2589C253.748 27.5842 253.535 27.0621 253.108 26.6928C252.689 26.3235 252.093 26.1388 251.319 26.1388C250.502 26.1388 249.852 26.32 249.369 26.6822C248.886 27.0373 248.567 27.4847 248.41 28.0245L244.213 27.6836C244.426 26.6893 244.845 25.8299 245.47 25.1055C246.095 24.3739 246.901 23.8129 247.888 23.4222C248.883 23.0245 250.033 22.8256 251.34 22.8256C252.249 22.8256 253.119 22.9322 253.95 23.1452C254.788 23.3583 255.53 23.6886 256.177 24.136C256.83 24.5835 257.345 25.1587 257.721 25.8619C258.098 26.5579 258.286 27.3924 258.286 28.3654V39.4023H253.982V37.1332H253.854C253.591 37.6445 253.24 38.0955 252.8 38.4862C252.359 38.8697 251.83 39.1715 251.212 39.3917C250.594 39.6048 249.88 39.7113 249.071 39.7113ZM250.371 36.5792C251.038 36.5792 251.628 36.4478 252.139 36.185C252.65 35.9151 253.052 35.5529 253.343 35.0984C253.634 34.6438 253.78 34.1289 253.78 33.5536V31.8171C253.638 31.9094 253.442 31.9947 253.194 32.0728C252.952 32.1438 252.679 32.2113 252.373 32.2752C252.068 32.332 251.763 32.3853 251.457 32.435C251.152 32.4776 250.875 32.5167 250.626 32.5522C250.094 32.6303 249.628 32.7546 249.231 32.9251C248.833 33.0955 248.524 33.3263 248.304 33.6175C248.084 33.9016 247.974 34.2567 247.974 34.6829C247.974 35.3008 248.197 35.7731 248.645 36.0998C249.099 36.4194 249.675 36.5792 250.371 36.5792ZM268.3 39.7219C266.624 39.7219 265.183 39.3668 263.975 38.6566C262.775 37.9393 261.852 36.945 261.205 35.6737C260.566 34.4023 260.246 32.9393 260.246 31.2844C260.246 29.6083 260.57 28.1381 261.216 26.8739C261.869 25.6026 262.796 24.6119 263.996 23.9016C265.197 23.1843 266.624 22.8256 268.279 22.8256C269.707 22.8256 270.957 23.0849 272.029 23.6033C273.102 24.1218 273.95 24.8498 274.575 25.7873C275.2 26.7248 275.545 27.8256 275.609 29.0898H271.326C271.205 28.2731 270.886 27.6161 270.367 27.119C269.856 26.6147 269.185 26.3626 268.354 26.3626C267.651 26.3626 267.036 26.5543 266.511 26.9379C265.992 27.3143 265.587 27.8647 265.296 28.5891C265.005 29.3136 264.859 30.1907 264.859 31.2205C264.859 32.2646 265.001 33.1523 265.286 33.8839C265.577 34.6154 265.985 35.1729 266.511 35.5565C267.036 35.94 267.651 36.1317 268.354 36.1317C268.872 36.1317 269.337 36.0252 269.749 35.8121C270.168 35.5991 270.513 35.2901 270.783 34.8853C271.06 34.4734 271.241 33.9798 271.326 33.4045H275.609C275.538 34.6545 275.197 35.7553 274.586 36.707C273.982 37.6516 273.148 38.3903 272.082 38.9229C271.017 39.4556 269.756 39.7219 268.3 39.7219ZM280.416 45.5387C279.841 45.5387 279.301 45.4925 278.797 45.4002C278.3 45.315 277.888 45.2049 277.561 45.07L278.584 41.6822C279.117 41.8455 279.596 41.9343 280.022 41.9485C280.455 41.9627 280.828 41.8633 281.141 41.6502C281.46 41.4371 281.72 41.0749 281.918 40.5636L282.185 39.8711L276.315 23.0387H281.087L284.475 35.0558H284.646L288.065 23.0387H292.87L286.51 41.1708C286.205 42.0515 285.789 42.8185 285.264 43.4719C284.745 44.1325 284.088 44.6403 283.293 44.9954C282.497 45.3576 281.538 45.5387 280.416 45.5387Z" fill="#00987F"/>
</svg>
