<svg width="40" height="40" viewBox="0 0 40 40" fill="none" xmlns="http://www.w3.org/2000/svg">
<rect width="40" height="40" rx="20" fill="#FF2A1E"/>
<path d="M21.0281 10.0012C21.7578 9.99843 22.4876 10.0058 23.2171 10.0232L23.4111 10.0302C23.6351 10.0382 23.8561 10.0482 24.1231 10.0602C25.1871 10.1102 25.9131 10.2782 26.5501 10.5252C27.2101 10.7792 27.7661 11.1232 28.3221 11.6792C28.8305 12.1788 29.2239 12.7832 29.4751 13.4502C29.7221 14.0872 29.8901 14.8142 29.9401 15.8782C29.9521 16.1442 29.9621 16.3662 29.9701 16.5902L29.9761 16.7842C29.9939 17.5134 30.0015 18.2428 29.9991 18.9722L30.0001 19.7182V21.0282C30.0026 21.758 29.9949 22.4877 29.9771 23.2172L29.9711 23.4112C29.9631 23.6352 29.9531 23.8562 29.9411 24.1232C29.8911 25.1872 29.7211 25.9132 29.4751 26.5502C29.2247 27.218 28.8312 27.8228 28.3221 28.3222C27.8221 28.8306 27.2174 29.224 26.5501 29.4752C25.9131 29.7222 25.1871 29.8902 24.1231 29.9402C23.8561 29.9522 23.6351 29.9622 23.4111 29.9702L23.2171 29.9762C22.4876 29.994 21.7578 30.0017 21.0281 29.9992L20.2821 30.0002H18.9731C18.2434 30.0027 17.5136 29.995 16.7841 29.9772L16.5901 29.9712C16.3527 29.9626 16.1154 29.9526 15.8781 29.9412C14.8141 29.8912 14.0881 29.7212 13.4501 29.4752C12.7828 29.2246 12.1783 28.8311 11.6791 28.3222C11.1701 27.8225 10.7763 27.2178 10.5251 26.5502C10.2781 25.9132 10.1101 25.1872 10.0601 24.1232C10.049 23.8859 10.039 23.6486 10.0301 23.4112L10.0251 23.2172C10.0067 22.4877 9.99832 21.758 10.0001 21.0282V18.9722C9.9973 18.2428 10.0046 17.5134 10.0221 16.7842L10.0291 16.5902C10.0371 16.3662 10.0471 16.1442 10.0591 15.8782C10.1091 14.8132 10.2771 14.0882 10.5241 13.4502C10.7755 12.7829 11.1701 12.1787 11.6801 11.6802C12.179 11.171 12.7831 10.7768 13.4501 10.5252C14.0881 10.2782 14.8131 10.1102 15.8781 10.0602L16.5901 10.0302L16.7841 10.0252C17.5133 10.0068 18.2427 9.99847 18.9721 10.0002L21.0281 10.0012ZM20.0001 15.0012C19.3376 14.9919 18.6798 15.1143 18.0651 15.3613C17.4503 15.6083 16.8907 15.9751 16.4189 16.4403C15.9471 16.9055 15.5725 17.4598 15.3168 18.071C15.0611 18.6822 14.9294 19.3382 14.9294 20.0007C14.9294 20.6633 15.0611 21.3192 15.3168 21.9305C15.5725 22.5417 15.9471 23.096 16.4189 23.5612C16.8907 24.0264 17.4503 24.3931 18.0651 24.6402C18.6798 24.8872 19.3376 25.0096 20.0001 25.0002C21.3262 25.0002 22.5979 24.4734 23.5356 23.5358C24.4733 22.5981 25.0001 21.3263 25.0001 20.0002C25.0001 18.6741 24.4733 17.4024 23.5356 16.4647C22.5979 15.527 21.3262 15.0012 20.0001 15.0012ZM20.0001 17.0012C20.3986 16.9939 20.7946 17.066 21.1649 17.2134C21.5352 17.3608 21.8724 17.5806 22.1569 17.8598C22.4413 18.139 22.6673 18.4721 22.8215 18.8396C22.9758 19.2071 23.0553 19.6016 23.0554 20.0002C23.0554 20.3988 22.9761 20.7934 22.8219 21.1609C22.6678 21.5285 22.4419 21.8617 22.1576 22.141C21.8732 22.4203 21.5361 22.6401 21.1658 22.7876C20.7955 22.9352 20.3996 23.0074 20.0011 23.0002C19.2054 23.0002 18.4424 22.6842 17.8798 22.1216C17.3172 21.5589 17.0011 20.7959 17.0011 20.0002C17.0011 19.2046 17.3172 18.4415 17.8798 17.8789C18.4424 17.3163 19.2054 17.0002 20.0011 17.0002L20.0001 17.0012ZM25.2501 13.5012C24.9275 13.5141 24.6224 13.6514 24.3987 13.8842C24.175 14.117 24.0501 14.4274 24.0501 14.7502C24.0501 15.0731 24.175 15.3834 24.3987 15.6163C24.6224 15.8491 24.9275 15.9863 25.2501 15.9992C25.5816 15.9992 25.8996 15.8675 26.134 15.6331C26.3684 15.3987 26.5001 15.0808 26.5001 14.7492C26.5001 14.4177 26.3684 14.0998 26.134 13.8653C25.8996 13.6309 25.5816 13.4992 25.2501 13.4992V13.5012Z" fill="#F6F7F9"/>
</svg>
