<svg width="45" height="45" viewBox="0 0 45 45" fill="none" xmlns="http://www.w3.org/2000/svg">
<rect width="45" height="45" rx="22.5" fill="#0076B2"/>
<path d="M32.1766 12.1667H13.8249C13.6186 12.1638 13.4138 12.2016 13.2221 12.2779C13.0304 12.3542 12.8557 12.4675 12.7078 12.6114C12.5599 12.7552 12.4418 12.9268 12.3602 13.1163C12.2787 13.3058 12.2352 13.5095 12.2324 13.7158V32.2842C12.2352 32.4904 12.2787 32.6942 12.3602 32.8837C12.4418 33.0732 12.5599 33.2447 12.7078 33.3886C12.8557 33.5325 13.0304 33.6458 13.2221 33.7221C13.4138 33.7984 13.6186 33.8362 13.8249 33.8333H32.1766C32.3829 33.8362 32.5877 33.7984 32.7794 33.7221C32.9711 33.6458 33.1458 33.5325 33.2937 33.3886C33.4416 33.2447 33.5597 33.0732 33.6413 32.8837C33.7228 32.6942 33.7663 32.4904 33.7691 32.2842V13.7158C33.7663 13.5095 33.7228 13.3058 33.6413 13.1163C33.5597 12.9268 33.4416 12.7552 33.2937 12.6114C33.1458 12.4675 32.9711 12.3542 32.7794 12.2779C32.5877 12.2016 32.3829 12.1638 32.1766 12.1667ZM18.7649 30.3017H15.5149V20.5517H18.7649V30.3017ZM17.1399 19.1867C16.6917 19.1867 16.2618 19.0086 15.9449 18.6917C15.628 18.3747 15.4499 17.9449 15.4499 17.4967C15.4499 17.0484 15.628 16.6186 15.9449 16.3016C16.2618 15.9847 16.6917 15.8067 17.1399 15.8067C17.3779 15.7797 17.6189 15.8032 17.8472 15.8759C18.0755 15.9485 18.2858 16.0685 18.4645 16.228C18.6431 16.3876 18.7861 16.5831 18.8839 16.8017C18.9818 17.0203 19.0324 17.2571 19.0324 17.4967C19.0324 17.7362 18.9818 17.973 18.8839 18.1916C18.7861 18.4103 18.6431 18.6057 18.4645 18.7653C18.2858 18.9248 18.0755 19.0448 17.8472 19.1174C17.6189 19.1901 17.3779 19.2136 17.1399 19.1867ZM30.4866 30.3017H27.2366V25.0692C27.2366 23.7583 26.7708 22.9025 25.5899 22.9025C25.2245 22.9052 24.8686 23.0198 24.5703 23.2309C24.272 23.4421 24.0456 23.7396 23.9216 24.0833C23.8368 24.3379 23.8001 24.6061 23.8133 24.8742V30.2908H20.5633V20.5408H23.8133V21.9167C24.1085 21.4044 24.5379 20.9823 25.0552 20.696C25.5726 20.4096 26.1582 20.2698 26.7491 20.2917C28.9158 20.2917 30.4866 21.6892 30.4866 24.69V30.3017Z" fill="white"/>
</svg>
