<svg width="40" height="40" viewBox="0 0 40 40" fill="none" xmlns="http://www.w3.org/2000/svg">
<rect width="40" height="40" rx="4" fill="#0D9AFF"/>
<path d="M29.4354 10.582C28.9352 10.0686 28.1949 9.87734 27.5046 10.0787L11.408 14.7595C10.6797 14.9619 10.1635 15.5427 10.0244 16.2806C9.88237 17.0315 10.3786 17.9848 11.0268 18.3834L16.0599 21.4768C16.5761 21.7939 17.2424 21.7144 17.6696 21.2835L23.4329 15.4843C23.723 15.1823 24.2032 15.1823 24.4934 15.4843C24.7835 15.7762 24.7835 16.2493 24.4934 16.5513L18.72 22.3516C18.2918 22.7814 18.2118 23.4508 18.5269 23.9702L21.6022 29.0538C21.9623 29.6577 22.5826 30 23.2628 30C23.3429 30 23.4329 30 23.513 29.9899C24.2933 29.8893 24.9135 29.3558 25.1436 28.6008L29.9156 12.5248C30.1257 11.8403 29.9356 11.0954 29.4354 10.582Z" fill="white"/>
</svg>
