<svg width="40" height="40" viewBox="0 0 40 40" fill="none" xmlns="http://www.w3.org/2000/svg">
<rect width="40" height="40" rx="20" fill="#E9581E"/>
<path d="M31.7931 14.6964C31.7931 13.6607 31.4483 12.7857 30.7586 12.0714C30.069 11.3571 29.2414 11 28.2759 11H11.5172C10.5517 11 9.72414 11.3571 9.03448 12.0714C8.34483 12.7857 8 13.6607 8 14.6964V24.6071C8 25.6429 8.34483 26.5179 9.03448 27.2321C9.72414 27.9464 10.5517 28.3036 11.5172 28.3036H28.2759C29.2414 28.3036 30.069 27.9464 30.7586 27.2321C31.4483 26.5179 31.7931 25.6429 31.7931 24.6071V14.6964ZM17.5172 23.8571V14.5357L24.3448 19.1964L17.5172 23.8571Z" fill="#F6F7F9"/>
</svg>
