<svg width="23" height="23" viewBox="0 0 23 23" fill="none" xmlns="http://www.w3.org/2000/svg">
<path d="M5.18224 22.0957C4.67402 21.7885 4.59903 21.5245 4.86843 20.9925C6.04792 18.6607 7.2276 16.3296 8.40748 13.999C8.44266 13.9298 8.47381 13.8589 8.52631 13.7477H8.25057C6.98455 13.7477 5.71795 13.7477 4.45078 13.7477C3.67605 13.7477 3.08188 13.4347 2.75134 12.7206C2.65344 12.4975 2.60164 12.2569 2.59905 12.0133C2.58174 11.1222 2.59212 10.2299 2.59212 9.33825V9.08694C2.00026 9.08694 1.43321 9.08694 0.866157 9.08694C0.75857 9.08985 0.650918 9.08407 0.544263 9.06964C0.393011 9.04876 0.25457 8.97349 0.15486 8.85795C0.0551505 8.7424 0.00101805 8.5945 0.00259588 8.44194C-0.000865293 7.43478 -0.000865293 6.42781 0.00259588 5.42104C0.00259588 5.02966 0.284679 4.76337 0.699443 4.75991C1.27631 4.7553 1.85201 4.7553 2.42656 4.75991C2.57078 4.75991 2.6527 4.73282 2.71096 4.57892C2.97459 3.88724 3.59933 3.47165 4.35155 3.46358C4.68729 3.46013 5.0236 3.46358 5.34318 3.46358C5.39222 3.09526 5.40722 2.74827 5.48798 2.41684C5.65889 1.72767 6.05572 1.11548 6.61523 0.677797C7.17474 0.240114 7.86476 0.00211934 8.57534 0.0017292C10.5394 -0.000576399 12.504 -0.000576399 14.4691 0.0017292C14.8833 0.0017292 15.1821 0.272061 15.185 0.644991C15.1879 1.01792 14.8862 1.29402 14.4755 1.29459C12.5395 1.29459 10.6036 1.29459 8.66764 1.29459C7.66044 1.29459 6.89783 1.92229 6.71496 2.89756C6.68208 3.07048 6.69189 3.25262 6.67978 3.46301H6.97397C9.57985 3.46301 12.1852 3.46301 14.7899 3.46301C15.6759 3.46301 16.3699 3.98868 16.5557 4.81582C16.6133 5.07174 16.6081 5.34149 16.6341 5.63085H17.8894V11.5678H16.626C16.6116 11.8047 16.6076 12.0122 16.5857 12.2179C16.4997 13.0249 15.8473 13.6762 15.0345 13.7252C14.4391 13.761 13.8409 13.746 13.2462 13.7489C12.4761 13.7517 11.706 13.7489 10.9387 13.7489H10.6757C10.7184 13.8428 10.7449 13.9079 10.7766 13.9696C11.9634 16.3136 13.1502 18.6577 14.337 21.0017C14.5984 21.517 14.502 21.8277 13.9967 22.0968H13.6506C13.406 21.9816 13.2629 21.7798 13.1429 21.5412C12.2319 19.7267 11.3162 17.9143 10.3959 16.104C10.3636 16.04 10.3227 15.9807 10.2857 15.919L10.2488 15.9346V16.1651C10.2488 17.8695 10.2419 19.5739 10.254 21.2778C10.254 21.6686 10.1311 21.9447 9.76426 22.0957H9.41814C9.05875 21.9228 8.93761 21.6386 8.94107 21.2438C8.95492 19.5469 8.94684 17.8499 8.94684 16.153V15.9259C8.88801 15.9698 8.84136 16.0279 8.81128 16.0948C7.8883 17.9197 6.96532 19.7449 6.04234 21.5706C5.92697 21.8052 5.77814 21.9937 5.53182 22.0945L5.18224 22.0957ZM7.98291 11.1441C8.83147 11.1441 9.68003 11.1441 10.5286 11.1441C10.9636 11.1441 11.226 10.8807 11.2266 10.4449C11.2301 9.22297 11.2301 8.00119 11.2266 6.77961C11.2266 6.33059 10.9659 6.07525 10.513 6.07467C8.82089 6.07467 7.13088 6.07467 5.44298 6.07467C4.98553 6.07467 4.74209 6.32253 4.74151 6.78422C4.74151 7.9985 4.74151 9.21298 4.74151 10.4276C4.74151 10.898 4.98668 11.1435 5.45798 11.1447C6.3002 11.1435 7.14126 11.1418 7.98291 11.1418V11.1441ZM13.3558 6.07179C13.2307 6.07372 13.109 6.11254 13.006 6.18338C12.9029 6.25421 12.8231 6.35389 12.7766 6.46991C12.7301 6.58592 12.7189 6.71308 12.7445 6.83542C12.77 6.95776 12.8312 7.06982 12.9204 7.15751C13.0095 7.24521 13.1226 7.30463 13.2454 7.32831C13.3682 7.35199 13.4953 7.33887 13.6106 7.29061C13.726 7.24235 13.8246 7.16109 13.8939 7.05704C13.9632 6.953 14.0001 6.83081 14.0002 6.70583C14.0013 6.62142 13.9853 6.53766 13.9532 6.45959C13.9211 6.38151 13.8735 6.31072 13.8133 6.25149C13.7531 6.19227 13.6816 6.14581 13.6029 6.11493C13.5243 6.08405 13.4402 6.06937 13.3558 6.07179ZM13.3639 9.93367C13.489 9.93309 13.6111 9.89559 13.7149 9.82588C13.8187 9.75616 13.8996 9.65735 13.9474 9.54185C13.9952 9.42634 14.0077 9.29931 13.9835 9.1767C13.9592 9.05409 13.8992 8.94137 13.8111 8.85272C13.7229 8.76406 13.6105 8.70342 13.4879 8.67842C13.3654 8.65341 13.2381 8.66515 13.1223 8.71216C13.0064 8.75918 12.907 8.83937 12.8365 8.94266C12.7661 9.04595 12.7278 9.16774 12.7264 9.29271C12.7245 9.37707 12.7396 9.46096 12.7709 9.53935C12.8022 9.61773 12.849 9.68898 12.9085 9.74884C12.9681 9.8087 13.0391 9.85593 13.1173 9.88769C13.1956 9.91945 13.2794 9.93509 13.3639 9.93367Z" fill="#635F60"/>
<path d="M22.1097 12.8169C21.8265 13.3391 21.5028 13.4273 20.9831 13.1218C20.4385 12.8014 19.8963 12.4757 19.3494 12.1593C19.2947 12.1348 19.2489 12.0939 19.2185 12.0422C19.1881 11.9906 19.1746 11.9307 19.1798 11.8711C19.1852 9.69303 19.1852 7.51501 19.1798 5.33699C19.1746 5.27736 19.188 5.21757 19.2183 5.16593C19.2486 5.11428 19.2942 5.07334 19.3488 5.04879C19.8836 4.73984 20.4137 4.42224 20.9444 4.10695C21.4925 3.78186 21.752 3.8372 22.1097 4.35423V12.8169Z" fill="#635F60"/>
<path d="M9.92339 7.35596V9.84773H6.04053V7.35596H9.92339Z" fill="#635F60"/>
</svg>
