<svg width="24" height="24" viewBox="0 0 24 24" fill="none" xmlns="http://www.w3.org/2000/svg">
<path d="M3.70994 14.1864V13.9634C3.70994 10.912 3.70994 7.86036 3.70994 4.80856C3.70553 4.68138 3.7164 4.55414 3.7423 4.42955C3.79278 4.23283 3.9041 4.05706 4.0604 3.92726C4.21671 3.79747 4.41003 3.72028 4.61281 3.70669C4.7048 3.69988 4.79679 3.69932 4.88878 3.69932C9.5224 3.69932 14.156 3.69932 18.7896 3.69932C18.9451 3.69269 19.1008 3.70565 19.253 3.7379C19.4494 3.78994 19.6242 3.9031 19.7521 4.06101C19.8799 4.21891 19.9541 4.41337 19.9639 4.61622C19.9702 4.70813 19.9702 4.80005 19.9702 4.89253V14.1847L3.70994 14.1864ZM11.2623 8.41886C11.2476 8.41742 11.2332 8.41457 11.2191 8.41035C9.80518 7.55926 8.09938 8.60042 8.11527 10.1449C8.11527 10.2112 8.04032 10.3032 7.97502 10.3417C7.28906 10.7497 6.96539 11.493 7.15675 12.2448C7.24654 12.6089 7.45658 12.9321 7.75292 13.1622C8.04926 13.3923 8.41459 13.5159 8.78987 13.5129C10.8216 13.5242 12.8537 13.5242 14.8863 13.5129C15.2582 13.5125 15.6195 13.3893 15.9141 13.1625C16.2087 12.9357 16.4201 12.6179 16.5153 12.2587C16.6105 11.8995 16.5842 11.5189 16.4406 11.1761C16.2969 10.8333 16.044 10.5476 15.721 10.3633C15.558 10.2759 15.512 10.1829 15.5438 10.0229C15.5505 9.98102 15.5541 9.93872 15.5546 9.89634C15.646 8.39843 14.2139 7.16549 12.7495 7.47359C12.1543 7.59381 11.6251 7.9307 11.2645 8.41886H11.2623ZM11.8369 4.38642C11.6307 4.38456 11.429 4.44687 11.2598 4.5647C11.0906 4.68253 10.9622 4.85005 10.8926 5.04403C10.7472 5.43496 10.8358 5.89511 11.1731 6.13455C11.4133 6.30477 11.5394 6.46874 11.5138 6.774C11.4991 6.94705 11.6359 7.0679 11.8313 7.07358C12.0141 7.07925 12.1481 6.9601 12.172 6.76889C12.1816 6.69874 12.1828 6.62768 12.1754 6.55726C12.16 6.41711 12.2032 6.33484 12.3389 6.26051C12.5358 6.15217 12.6899 5.98013 12.776 5.77267C12.862 5.56521 12.8749 5.33466 12.8125 5.11892C12.7519 4.90733 12.6238 4.7213 12.4477 4.58909C12.2717 4.45687 12.0572 4.38572 11.8369 4.38642ZM16.6823 5.40375C15.9799 5.39978 15.4802 5.87809 15.5529 6.44037C15.5927 6.74393 15.5881 6.96407 15.3366 7.17174C15.2088 7.27784 15.2338 7.46167 15.3564 7.59217C15.4064 7.65377 15.4786 7.69336 15.5574 7.70248C15.6363 7.7116 15.7156 7.68952 15.7783 7.64097C15.8479 7.593 15.9106 7.53573 15.9646 7.47075C16.0543 7.36578 16.135 7.32891 16.2894 7.37373C16.6914 7.49288 17.048 7.38167 17.3206 7.06223C17.5932 6.74279 17.6431 6.37342 17.4694 5.9927C17.2956 5.61198 16.9856 5.41623 16.6841 5.40375H16.6823ZM7.13631 5.40375C7.0038 5.4018 6.8722 5.42595 6.74902 5.47483C6.62585 5.5237 6.51352 5.59634 6.41844 5.6886C6.32337 5.78086 6.24741 5.89092 6.19492 6.01251C6.14242 6.13411 6.11441 6.26484 6.11249 6.39725C6.10454 6.95897 6.57131 7.44692 7.14086 7.39926C7.4509 7.37373 7.69224 7.36749 7.90802 7.63416C8.0142 7.76523 8.20102 7.72097 8.32368 7.59104C8.44633 7.4611 8.44633 7.30734 8.3481 7.16436C8.2975 7.09601 8.23833 7.03441 8.17206 6.98109C8.07666 6.89996 8.05452 6.82336 8.092 6.68946C8.27655 6.02731 7.81034 5.40716 7.13802 5.40318L7.13631 5.40375Z" fill="#635F60"/>
<path d="M15.2502 21.0405H16.2809C16.4722 20.4873 16.8396 20.1469 17.4205 20.0493C18.1258 19.9307 18.8623 20.4879 18.9406 21.2051C19.0287 22.0028 18.4654 22.7087 17.7135 22.7433C17.065 22.7728 16.5818 22.4726 16.3314 21.8661C16.2871 21.7594 16.2354 21.7299 16.1298 21.731C15.7471 21.7356 15.3649 21.7345 14.9822 21.731C14.6597 21.731 14.5518 21.6215 14.5512 21.2953C14.5512 20.1556 14.5512 19.0157 14.5512 17.8756V17.6067H12.181V17.8081C12.181 18.4952 12.1844 19.1818 12.181 19.8689C12.181 20.013 12.2128 20.0885 12.3616 20.1475C12.6271 20.2525 12.8518 20.4398 13.0028 20.682C13.1538 20.9242 13.223 21.2083 13.2003 21.4927C13.1765 21.802 13.0475 22.0938 12.8347 22.3196C12.6218 22.5455 12.338 22.6916 12.0305 22.7339C11.7229 22.7761 11.4102 22.7119 11.1443 22.5518C10.8784 22.3918 10.6753 22.1456 10.5689 21.8542C10.4491 21.5324 10.4578 21.1769 10.5934 20.8614C10.7289 20.5459 10.9809 20.2947 11.2969 20.16C11.4672 20.0896 11.511 20.0079 11.5087 19.8377C11.4996 19.1721 11.5053 18.5066 11.5053 17.841V17.6016H9.1351V17.8643C9.1351 18.99 9.1351 20.1157 9.1351 21.2414C9.1351 21.6386 9.04538 21.7305 8.65129 21.7316C8.30434 21.7316 7.95682 21.7379 7.60987 21.7282C7.4628 21.7242 7.39182 21.7668 7.33276 21.9126C7.21779 22.1976 7.00853 22.4346 6.73986 22.5841C6.4712 22.7336 6.15938 22.7866 5.85636 22.7342C5.55437 22.6799 5.27945 22.5256 5.0759 22.2962C4.87236 22.0668 4.75203 21.7756 4.7343 21.4695C4.71509 21.1668 4.79889 20.8665 4.97208 20.6174C5.14527 20.3684 5.39768 20.1851 5.68828 20.0975C6.41285 19.8706 7.10165 20.2456 7.4026 21.036H8.43835V17.5885H8.18396C6.24988 17.5885 4.31561 17.5885 2.38115 17.5885C1.66055 17.5885 1.13189 17.197 1.02627 16.5542C0.981413 16.2852 1.0081 16.0038 1.00583 15.7281C1.00356 15.4523 1.00583 15.1777 1.00583 14.8872H9.45195C9.46445 15.0353 9.47126 15.1817 9.49 15.3269C9.52719 15.6571 9.68267 15.9626 9.92774 16.1872C10.1728 16.4117 10.4909 16.5401 10.8233 16.5485C11.4604 16.5644 12.0987 16.5582 12.7358 16.5536C13.5995 16.5474 14.181 15.9726 14.2122 15.1062C14.2122 15.037 14.2179 14.9678 14.2218 14.8855H22.6685C22.6685 15.4432 22.7145 15.9982 22.6566 16.5423C22.5885 17.1874 22.032 17.5874 21.3165 17.5885C19.3824 17.5908 17.4482 17.5908 15.5137 17.5885H15.2502V21.0405Z" fill="#635F60"/>
<path d="M21.664 14.1927H20.6419V13.9271C20.6419 10.8897 20.6419 7.85265 20.6419 4.81598C20.6419 3.71581 19.9542 3.0287 18.8537 3.0287C14.1781 3.0287 9.50245 3.04005 4.82795 3.02019C3.80072 3.01565 3.02051 3.78844 3.02846 4.81371C3.05231 7.85038 3.03698 10.8848 3.03698 13.9248V14.1875H2.01486V13.964C2.01486 10.8558 2.03019 7.74768 2.00691 4.64009C1.99782 3.39183 2.87684 2.24457 4.16472 2.03804C4.33403 2.01489 4.50492 2.00521 4.67578 2.0091C9.45022 2.0091 14.2247 2.01989 18.9997 2.00003C20.3114 1.99435 21.4329 2.89423 21.6356 4.17256C21.6556 4.31976 21.6639 4.46831 21.6606 4.61683C21.6606 7.7386 21.6606 10.8606 21.6606 13.9827L21.664 14.1927Z" fill="#635F60"/>
<path d="M10.1646 14.8802H13.507C13.6432 15.451 13.3008 15.8913 12.7211 15.8953C12.1532 15.8993 11.5854 15.8953 11.0175 15.8953C10.3935 15.8953 10.0794 15.5322 10.1646 14.8802Z" fill="#635F60"/>
<path d="M11.8427 12.8435C10.8444 12.8435 9.84596 12.8435 8.84731 12.8435C8.27946 12.8435 7.87005 12.503 7.7792 11.9538C7.70027 11.4795 8.01372 11.0165 8.53102 10.844C8.77747 10.7617 8.85583 10.6346 8.81495 10.3782C8.72295 9.77277 8.98076 9.22524 9.49068 8.94382C10.0006 8.66239 10.5895 8.73048 11.0523 9.12084C11.343 9.36595 11.5116 9.33248 11.7013 8.99204C12.0988 8.28281 12.8938 7.94521 13.6518 8.16309C14.0194 8.26701 14.3413 8.49132 14.5659 8.80002C14.7905 9.10871 14.9047 9.48388 14.8903 9.86526C14.8807 10.0059 14.856 10.1452 14.8165 10.2806C14.7245 10.621 14.7881 10.7458 15.1277 10.8395C15.5331 10.9529 15.7903 11.2049 15.8812 11.6162C15.9141 11.7634 15.9135 11.916 15.8795 12.0629C15.8455 12.2097 15.779 12.3471 15.6849 12.4649C15.5907 12.5827 15.4713 12.678 15.3355 12.7436C15.1997 12.8092 15.0508 12.8435 14.9 12.844C13.8813 12.8475 12.8625 12.8435 11.8427 12.8435Z" fill="#635F60"/>
<path d="M12.1776 5.39172C12.1826 5.43947 12.1774 5.48773 12.1625 5.53333C12.1475 5.57894 12.123 5.62086 12.0906 5.65635C12.0583 5.69184 12.0188 5.72009 11.9747 5.73925C11.9307 5.75841 11.8831 5.76804 11.835 5.76752C11.787 5.76699 11.7396 5.75632 11.696 5.73621C11.6524 5.7161 11.6135 5.68699 11.5819 5.65081C11.5504 5.61462 11.5268 5.57218 11.5128 5.52625C11.4988 5.48033 11.4947 5.43197 11.5007 5.38435C11.5112 5.30149 11.5519 5.22537 11.6149 5.17049C11.6779 5.1156 11.7589 5.08578 11.8425 5.08669C11.9261 5.0876 12.0064 5.11918 12.0682 5.17543C12.13 5.23167 12.1689 5.30865 12.1776 5.39172Z" fill="#635F60"/>
<path d="M16.5591 6.06605C16.6499 6.06853 16.7359 6.10693 16.7983 6.1728C16.8607 6.23866 16.8944 6.3266 16.8919 6.41726C16.8894 6.50792 16.851 6.59389 16.7851 6.65625C16.7192 6.7186 16.6311 6.75224 16.5404 6.74975C16.4955 6.74852 16.4512 6.73846 16.4102 6.72015C16.3692 6.70183 16.3321 6.67562 16.3012 6.64301C16.2703 6.61039 16.2462 6.57202 16.2301 6.53007C16.214 6.48813 16.2064 6.44343 16.2076 6.39854C16.2089 6.35365 16.219 6.30943 16.2373 6.26843C16.2556 6.22742 16.2818 6.19043 16.3145 6.15955C16.3471 6.12868 16.3855 6.10453 16.4275 6.08849C16.4695 6.07244 16.5142 6.06482 16.5591 6.06605Z" fill="#635F60"/>
<path d="M7.46443 6.40408C7.46583 6.49285 7.43249 6.57865 7.37149 6.6432C7.3105 6.70775 7.22668 6.74594 7.13791 6.74962C7.09299 6.75018 7.04839 6.74189 7.00666 6.72523C6.96494 6.70857 6.92692 6.68386 6.89475 6.65251C6.86259 6.62116 6.83691 6.58378 6.8192 6.54252C6.80149 6.50126 6.79209 6.45692 6.79153 6.41203C6.79097 6.36713 6.79927 6.32257 6.81594 6.28088C6.83262 6.23919 6.85735 6.20119 6.88873 6.16906C6.9201 6.13692 6.9575 6.11127 6.9988 6.09357C7.04009 6.07587 7.08447 6.06648 7.1294 6.06592C7.21838 6.0674 7.30325 6.10361 7.36586 6.1668C7.42847 6.23 7.46384 6.31516 7.46443 6.40408Z" fill="#635F60"/>
</svg>
