<svg width="24" height="24" viewBox="0 0 24 24" fill="none" xmlns="http://www.w3.org/2000/svg">
<path d="M7.25618 12.8038V12.0461C6.83935 12.0461 6.43283 12.0461 6.02631 12.0461C5.7017 12.0461 5.34373 11.9705 5.0622 12.0823C4.78067 12.1941 4.59804 12.5011 4.36323 12.7138C4.21822 12.8449 4.1442 12.9682 4.16544 13.1893C4.1761 13.3098 4.16078 13.4312 4.12053 13.5454C4.08027 13.6595 4.01601 13.7638 3.93203 13.8512C3.84805 13.9386 3.74629 14.0072 3.63356 14.0523C3.52084 14.0973 3.39974 14.1179 3.27838 14.1127C3.15907 14.1079 3.04198 14.079 2.93421 14.0278C2.82644 13.9766 2.73023 13.9042 2.65142 13.8149C2.57262 13.7255 2.51285 13.6212 2.47576 13.5081C2.43866 13.3951 2.425 13.2757 2.43562 13.1573C2.49083 12.631 2.95438 12.2926 3.48225 12.3784C3.52779 12.3827 3.57373 12.3781 3.61746 12.3647C3.66119 12.3513 3.70184 12.3295 3.73708 12.3004C4.02103 12.04 4.28314 11.7536 4.57256 11.5028C4.69511 11.3985 4.848 11.336 5.0088 11.3246C5.75024 11.3064 6.49168 11.3161 7.25375 11.3161V10.0121C7.19307 10.0084 7.12937 9.99999 7.06444 9.99999C6.14098 9.99999 5.21753 9.99999 4.29407 9.99999C4.23957 9.99512 4.18479 10.0058 4.13613 10.0307C4.08747 10.0556 4.04693 10.0938 4.01921 10.1408C3.91501 10.2956 3.76206 10.4116 3.58444 10.4703C3.40681 10.529 3.21461 10.5273 3.03811 10.4653C2.86236 10.4086 2.70923 10.2977 2.60082 10.1488C2.49241 9.99977 2.43432 9.82034 2.43492 9.63635C2.43553 9.45235 2.49481 9.27331 2.6042 9.12504C2.71359 8.97677 2.86744 8.86694 3.04357 8.81139C3.40761 8.69053 3.79047 8.82529 4.03074 9.13709C4.08348 9.21014 4.16309 9.25944 4.2522 9.27426C5.22299 9.28333 6.19013 9.2797 7.1591 9.27909C7.19243 9.27716 7.22564 9.27352 7.25861 9.26821V7.96239H7.00802C6.35699 7.96239 5.70595 7.95574 5.05492 7.96602C4.95729 7.97068 4.85983 7.95369 4.7696 7.91628C4.67936 7.87887 4.59859 7.82196 4.53312 7.74968C4.27586 7.483 4.01072 7.22457 3.73768 6.97441C3.66654 6.91616 3.57513 6.88835 3.48346 6.89706C2.95074 6.97803 2.48901 6.63722 2.44169 6.1115C2.43146 5.99114 2.44638 5.86998 2.48552 5.75565C2.52465 5.64132 2.58715 5.5363 2.66907 5.44722C2.75098 5.35814 2.85055 5.28693 2.96147 5.23809C3.0724 5.18924 3.19229 5.16381 3.31357 5.16341C3.43688 5.16341 3.55875 5.18969 3.671 5.24049C3.78326 5.29129 3.8833 5.36544 3.9644 5.45794C4.04549 5.55044 4.10577 5.65916 4.14118 5.77679C4.17659 5.89442 4.18631 6.01823 4.16968 6.13991C4.15718 6.2074 4.16372 6.27701 4.18857 6.34102C4.21342 6.40503 4.25561 6.46092 4.31044 6.50247C4.56649 6.73693 4.77764 7.06928 5.07676 7.19315C5.37588 7.31703 5.74418 7.22458 6.08759 7.22578C6.47166 7.22578 6.85633 7.22578 7.27134 7.22578C7.27908 7.03383 7.27665 6.84161 7.26406 6.64991C7.25739 6.59371 7.17063 6.52483 7.10631 6.50005C6.63427 6.31877 6.16222 6.13749 5.6835 5.97494C5.58701 5.94453 5.49764 5.89511 5.42072 5.8296C5.34379 5.7641 5.28088 5.68386 5.23572 5.59365C4.90444 4.98515 4.558 4.38511 4.22126 3.78084C4.1998 3.73043 4.16376 3.68753 4.11773 3.65761C4.07169 3.6277 4.01775 3.61211 3.96278 3.61285C3.58842 3.59049 3.2717 3.29017 3.19525 2.91854C3.16257 2.74316 3.18411 2.56203 3.25702 2.39911C3.32994 2.23618 3.45079 2.09914 3.6036 2.00609C3.75987 1.91185 3.94185 1.86869 4.124 1.88267C4.30615 1.89665 4.47935 1.96707 4.61928 2.08405C4.9178 2.33724 5.02397 2.73182 4.85833 3.08411C4.82539 3.14457 4.81009 3.213 4.81417 3.28166C4.81824 3.35033 4.84153 3.41649 4.88139 3.47266C5.19932 4.02013 5.50148 4.57666 5.82062 5.12292C5.87759 5.21602 5.96249 5.28895 6.06332 5.3314C6.47712 5.49576 6.8988 5.63897 7.31442 5.7991C7.43577 5.84563 7.51525 5.84563 7.61233 5.74351C7.8162 5.52839 8.0862 5.4595 8.37622 5.45829H8.8246C8.8246 4.88121 8.8246 4.33254 8.8246 3.78326C8.82071 3.29234 8.9197 2.80602 9.11523 2.35536C9.7062 1.02597 11.1278 0.202346 12.5476 0.373958C14.0644 0.55524 15.247 1.6677 15.4909 3.14877C15.5246 3.38737 15.5404 3.62812 15.5382 3.86906C15.5449 4.38813 15.5382 4.9072 15.5382 5.45829H15.9817C16.1372 5.45237 16.2923 5.47856 16.4371 5.53524C16.5819 5.59192 16.7134 5.67785 16.8233 5.78762C16.8531 5.80956 16.8876 5.82441 16.9241 5.83101C16.9606 5.83761 16.9981 5.83579 17.0338 5.82569C17.4901 5.66737 17.9439 5.5018 18.3929 5.32535C18.4865 5.28367 18.5648 5.21398 18.6168 5.12594C18.942 4.56578 19.2521 3.99656 19.5773 3.43399C19.61 3.38605 19.6283 3.32974 19.6298 3.27177C19.6313 3.21381 19.616 3.15663 19.5858 3.10707C19.5048 2.93921 19.4818 2.74945 19.5202 2.56722C19.5586 2.38499 19.6563 2.22046 19.7981 2.09915C19.9343 1.97787 20.1053 1.90219 20.287 1.88278C20.4686 1.86338 20.6518 1.90122 20.8108 1.99099C20.9727 2.08353 21.101 2.22478 21.1773 2.39446C21.2536 2.56414 21.274 2.75353 21.2355 2.93546C21.1918 3.11605 21.0935 3.27891 20.9538 3.40202C20.8142 3.52512 20.6399 3.60251 20.4546 3.62373C20.4074 3.63321 20.3626 3.65193 20.3227 3.67879C20.2828 3.70566 20.2487 3.74013 20.2222 3.78023C19.8703 4.3845 19.5265 4.99502 19.1908 5.61178C19.1058 5.78052 18.9573 5.90891 18.7776 5.9689C18.2922 6.1387 17.8165 6.33146 17.3317 6.49462C17.1655 6.55504 17.0751 6.6203 17.1024 6.81005C17.1129 6.94879 17.1141 7.08809 17.106 7.22699H17.3888C17.9791 7.22699 18.5701 7.22034 19.1598 7.23062C19.2343 7.23596 19.309 7.22363 19.3778 7.19464C19.4466 7.16565 19.5074 7.12082 19.5554 7.06384C19.6822 6.9239 19.8171 6.79154 19.9595 6.66744C20.1664 6.48616 20.3017 6.31152 20.2726 5.98884C20.2301 5.51993 20.7046 5.13078 21.1827 5.16401C21.3019 5.17239 21.418 5.20496 21.524 5.25971C21.6301 5.31447 21.7238 5.39025 21.7993 5.4824C21.8748 5.57455 21.9306 5.68111 21.9633 5.79554C21.9959 5.90997 22.0047 6.02983 21.9891 6.14777C21.9284 6.63783 21.4661 6.98891 20.9849 6.89162C20.9279 6.87558 20.8674 6.87654 20.8109 6.89436C20.7544 6.91219 20.7043 6.94611 20.667 6.99193C20.4073 7.256 20.1512 7.5255 19.8697 7.76419C19.7408 7.87292 19.5807 7.93828 19.4122 7.95091C18.6568 7.96964 17.9002 7.95937 17.1254 7.95937V9.26217C17.1916 9.2664 17.2577 9.27426 17.3232 9.27426C18.2619 9.27426 19.2005 9.27426 20.1391 9.27426C20.1937 9.27988 20.2487 9.26983 20.2977 9.24531C20.3468 9.22079 20.3877 9.18283 20.4158 9.13588C20.5192 8.98054 20.6715 8.86384 20.8488 8.80412C21.026 8.74439 21.2182 8.74504 21.3951 8.80595C21.5708 8.86243 21.7241 8.97295 21.8328 9.12165C21.9415 9.27035 22.0001 9.44956 22.0001 9.6335C22.0001 9.81744 21.9415 9.99664 21.8328 10.1453C21.7241 10.294 21.5708 10.4046 21.3951 10.4611C21.031 10.5819 20.65 10.4532 20.4073 10.139C20.36 10.0785 20.2756 10.003 20.2077 10.0024C19.2084 9.99394 18.2091 9.99697 17.2104 9.99818C17.1784 10.0013 17.1467 10.0072 17.1157 10.0157V11.3137H17.3584C18.0392 11.3137 18.7206 11.3191 19.4019 11.3137C19.4926 11.3093 19.5831 11.3249 19.667 11.3594C19.7509 11.3939 19.8261 11.4463 19.8873 11.5131C20.1506 11.7838 20.4206 12.0485 20.6997 12.3029C20.7348 12.3314 20.7753 12.3527 20.8187 12.3655C20.8622 12.3782 20.9077 12.3822 20.9528 12.3772C21.0707 12.3554 21.1919 12.3579 21.3088 12.3845C21.4258 12.4111 21.536 12.4613 21.6328 12.5319C21.7295 12.6026 21.8108 12.6922 21.8714 12.7953C21.9321 12.8983 21.971 13.0127 21.9856 13.1313C22.0002 13.2498 21.9903 13.3702 21.9565 13.4848C21.9227 13.5994 21.8658 13.706 21.7891 13.7978C21.7124 13.8897 21.6176 13.965 21.5106 14.019C21.4036 14.0731 21.2867 14.1047 21.1669 14.112C20.6633 14.1411 20.2186 13.7199 20.2665 13.2026C20.289 12.9609 20.1986 12.8316 20.0445 12.692C19.8151 12.4847 19.6282 12.1844 19.3613 12.0769C19.0943 11.9693 18.7509 12.0473 18.4402 12.0461C18.0034 12.0461 17.5665 12.0461 17.1054 12.0461C17.1054 12.2763 17.0945 12.4793 17.1127 12.6793C17.1181 12.7343 17.2043 12.8062 17.2674 12.828C17.7682 12.996 18.271 13.1571 18.7758 13.3114C18.8623 13.3361 18.9428 13.3785 19.012 13.4359C19.0811 13.4934 19.1375 13.5646 19.1774 13.6449C19.5176 14.2661 19.8661 14.8829 20.2228 15.4952C20.2494 15.5355 20.2837 15.57 20.3238 15.5969C20.3639 15.6237 20.409 15.6424 20.4564 15.6517C20.6418 15.6722 20.8162 15.7494 20.9557 15.8726C21.0953 15.9959 21.193 16.1592 21.2355 16.34C21.2732 16.5165 21.255 16.7003 21.1835 16.8661C21.112 17.0319 20.9907 17.1715 20.8363 17.2659C20.6818 17.3602 20.5018 17.4045 20.321 17.3928C20.1402 17.3811 19.9675 17.3139 19.8266 17.2005C19.5233 16.9521 19.4056 16.5533 19.573 16.2053C19.6549 16.0348 19.6228 15.9212 19.5384 15.7762C19.2351 15.2481 18.942 14.7109 18.632 14.1852C18.5679 14.0802 18.4715 13.9986 18.3571 13.9525C17.9166 13.7966 17.4658 13.6685 17.0223 13.5187C16.9009 13.4782 16.8263 13.5078 16.7189 13.5658C16.512 13.6746 16.2815 13.7785 16.0515 13.7996C15.6462 13.8365 15.2348 13.8105 14.8265 13.8099C14.7736 13.8129 14.7206 13.8078 14.6693 13.7948C14.366 13.6927 14.0626 13.5857 13.721 13.4661V13.1005C13.721 12.3391 13.7162 11.5771 13.721 10.8157C13.7253 10.4048 13.61 10.0399 13.3321 9.73834C13.2332 9.63078 13.2787 9.55706 13.3236 9.46098C13.3945 9.30274 13.4316 9.13157 13.4327 8.9583C13.4338 8.78502 13.3988 8.61341 13.3298 8.45431C13.2609 8.29521 13.1596 8.15207 13.0323 8.03397C12.905 7.91586 12.7544 7.82534 12.5902 7.76814C12.426 7.71093 12.2516 7.68828 12.0781 7.70162C11.9047 7.71496 11.7359 7.764 11.5824 7.84564C11.4289 7.92728 11.2941 8.03974 11.1865 8.17591C11.0789 8.31208 11.0009 8.469 10.9573 8.63675C10.8833 8.92137 10.9324 9.23438 11.1181 9.63562C10.6934 10.029 10.6187 10.542 10.6278 11.0973C10.6412 11.9119 10.6315 12.7289 10.6315 13.541V13.8148H10.1188C9.55148 13.8148 8.98357 13.8148 8.41566 13.8148C8.11835 13.8148 7.84897 13.7543 7.61537 13.5549C7.58708 13.5358 7.55504 13.5228 7.52137 13.5169C7.48771 13.511 7.45316 13.5122 7.41999 13.5205C6.95098 13.6637 6.48379 13.8123 6.01964 13.97C5.93768 14.0004 5.86812 14.0569 5.82184 14.1308C5.48631 14.7121 5.15442 15.2952 4.8371 15.8832C4.79887 15.9539 4.81829 16.0789 4.85227 16.1617C4.90007 16.2708 4.92514 16.3883 4.92596 16.5073C4.92678 16.6263 4.90333 16.7442 4.85704 16.8538C4.81074 16.9635 4.74256 17.0627 4.65664 17.1453C4.57071 17.228 4.46883 17.2924 4.35716 17.3346C4.24719 17.3761 4.12994 17.395 4.01244 17.3903C3.89494 17.3855 3.77962 17.3571 3.67342 17.3068C3.56721 17.2565 3.47231 17.1854 3.39441 17.0976C3.31652 17.0099 3.25724 16.9074 3.22013 16.7962C3.05935 16.3213 3.32631 15.7762 3.82687 15.6916C4.10658 15.6445 4.21094 15.4958 4.32441 15.2904C4.62778 14.7363 4.95177 14.1906 5.25393 13.6347C5.2949 13.5548 5.35216 13.4843 5.42206 13.4277C5.49195 13.3711 5.57294 13.3296 5.65984 13.3059C6.1968 13.1464 6.7271 12.973 7.25618 12.8038ZM13.9346 5.44198C13.9346 4.80266 13.9764 4.17301 13.9249 3.55423C13.8913 3.10944 13.6853 2.6951 13.3504 2.39886C13.0156 2.10261 12.5782 1.94767 12.1307 1.96681C11.149 2.01637 10.447 2.7421 10.4355 3.72766C10.4294 4.24008 10.4355 4.75492 10.4355 5.26492C10.4384 5.3242 10.4442 5.38329 10.4531 5.44198H13.9346Z" fill="#635F60"/>
<path d="M11.357 16.96V16.7183C11.357 14.7351 11.357 12.7521 11.357 10.7693C11.352 10.5946 11.4027 10.4228 11.5018 10.2785C11.6009 10.1343 11.7432 10.0249 11.9085 9.9662C12.2404 9.85079 12.6366 9.94082 12.8186 10.2375C12.9326 10.4293 12.9943 10.6474 12.9976 10.8702C13.014 12.1065 13.0055 13.3429 13.0055 14.5798V14.8656C13.2549 14.3991 13.591 14.181 14.054 14.317C14.6401 14.4898 14.674 14.9865 14.6498 15.5666C14.9174 15.1098 15.2565 14.9055 15.7025 15.0445C16.2795 15.2258 16.3244 15.7146 16.3092 16.2343C16.4554 15.9962 16.6338 15.8216 16.8947 15.7575C17.4044 15.6318 17.9062 15.969 17.9213 16.5008C17.9596 17.8652 17.9486 19.2297 17.5306 20.5524C17.2794 21.3458 17.28 21.3458 16.4615 21.3458H11.1938C10.7782 19.7747 9.69756 18.5571 9.01922 17.1335C8.84145 16.7594 8.64304 16.3938 8.48711 16.0113C8.40551 15.8104 8.36428 15.5954 8.36576 15.3787C8.37244 14.9224 8.81293 14.6221 9.25828 14.7357C9.57014 14.8161 9.78007 15.0264 9.96937 15.2681C10.4143 15.8377 10.8615 16.4067 11.3109 16.9751L11.357 16.96Z" fill="#635F60"/>
<path d="M11.2358 22.6994V22.0697H16.9641V22.6994H11.2358Z" fill="#635F60"/>
</svg>
