<svg width="44" height="40" viewBox="0 0 44 40" fill="none" xmlns="http://www.w3.org/2000/svg">
<rect x="0.5" y="0.5" width="43" height="39" rx="3.5" fill="white" stroke="#D8D8D8" stroke-dasharray="2 2"/>
<g clip-path="url(#clip0_1469_142)">
<path d="M9.5 17.7995L18.1634 22.7596L20.4141 19.9357L11.2917 15.119L9.5 17.7995ZM22.5617 19.9251L24.8207 22.7596L33.5 17.7904L31.6839 14.9234L22.5617 19.9251ZM12.6065 14.224L21.4858 18.9123L30.3778 14.0368L21.5051 9.8457L12.6065 14.224Z" fill="#4D4D4D" fill-opacity="0.3"/>
<path d="M11.7617 25.3867L20.7892 30.1533V21.7187L18.8859 24.1067C18.7814 24.2379 18.6334 24.3274 18.4687 24.3589C18.3039 24.3904 18.1334 24.3619 17.9878 24.2785L11.7617 20.7139V25.3867ZM22.194 21.7187V30.1315L31.2215 25.1747V20.7139L24.9954 24.2785C24.8499 24.3618 24.6793 24.3903 24.5146 24.3588C24.3499 24.3273 24.2019 24.2378 24.0974 24.1067L22.194 21.7187Z" fill="#4D4D4D" fill-opacity="0.3"/>
</g>
<defs>
<clipPath id="clip0_1469_142">
<rect width="24" height="24" fill="white" transform="translate(9.5 8)"/>
</clipPath>
</defs>
</svg>
