<svg width="410" height="220" viewBox="0 0 410 220" fill="none" xmlns="http://www.w3.org/2000/svg">
<path d="M401.905 4.67608C401.513 4.32369 401.028 4.09208 400.508 4.00911C399.987 3.92614 399.454 3.99536 398.972 4.20844L354.383 23.836L354.374 23.8365C353.86 24.066 353.43 24.4486 353.141 24.932C352.853 25.4154 352.721 25.976 352.763 26.5373C352.805 27.0985 353.019 27.6331 353.377 28.068C353.734 28.5029 354.217 28.8168 354.759 28.967L354.807 28.9793L370.776 34.8221C371.086 34.8984 371.41 34.8923 371.716 34.8042C372.022 34.7162 372.3 34.5493 372.522 34.3203L396.351 9.64051C396.422 9.56188 396.507 9.49795 396.603 9.45237C396.698 9.40679 396.801 9.38046 396.907 9.37487C397.013 9.36929 397.118 9.38456 397.218 9.41982C397.318 9.45508 397.41 9.50963 397.488 9.58036C397.567 9.6511 397.631 9.73663 397.676 9.83207C397.722 9.92751 397.748 10.031 397.754 10.1366C397.759 10.2422 397.744 10.3479 397.709 10.4476C397.674 10.5473 397.619 10.6391 397.548 10.7178L375.518 37.0053C375.313 37.25 375.177 37.5439 375.122 37.8579C375.066 38.1718 375.094 38.4948 375.203 38.7945L382.7 54.0674C382.708 54.0897 382.716 54.1099 382.725 54.1311C383.145 55.1662 384.106 55.8613 385.222 55.8525L385.335 55.8465C385.898 55.8199 386.439 55.6249 386.889 55.2866C387.339 54.9483 387.677 54.4825 387.858 53.9497L402.672 7.552C402.836 7.04979 402.851 6.51091 402.714 6.00052C402.578 5.49013 402.297 5.03011 401.905 4.67608Z" fill="#00987F"/>
<path opacity="0.5" d="M5.03993 151.681C149.954 93.6028 246.867 118.888 242.992 171.417C240.195 209.339 117.613 239.633 120.633 164.086C123.459 93.3863 218.944 87.0377 272.877 104.88C308.196 116.565 359.367 66.0631 373.753 36.6119" stroke="#00987F" stroke-width="2" stroke-dasharray="5 10"/>
</svg>
