<svg width="1440" height="611" viewBox="0 0 1440 611" fill="none" xmlns="http://www.w3.org/2000/svg">
<g clip-path="url(#clip0_2445_477)">
<rect width="1440" height="611" fill="url(#paint0_linear_2445_477)"/>
<path d="M281.5 68.5C160.692 256.92 36.9875 274.167 -37.8458 291C-74.1792 248.667 -148.546 161.7 -155.346 152.5C-163.846 141 -86.8458 -47.5 -78.8458 -54C-72.4458 -59.2 41.1542 -161.5 97.1542 -212L478.154 -233L810.154 -212L1370.15 -109.5L1519.65 25.5C1531.65 118.333 1497.96 464.428 1460.5 358.5C1370.15 103 1258 180 1100 29.5C1035.73 -31.7146 859.966 -52.0525 694.5 -54C558.798 -55.5972 339.846 -22.5 281.5 68.5Z" fill="white" fill-opacity="0.04"/>
<path opacity="0.6" fill-rule="evenodd" clip-rule="evenodd" d="M42.9582 -77.1477C44.6695 -77.1477 46.0957 -78.2886 46.5235 -80H42.9582H39.3929C39.8207 -78.4313 41.2468 -77.1477 42.9582 -77.1477ZM28.8394 -79.1445C27.8411 -79.0019 26.8784 -78.8593 25.9158 -78.7167L25.9157 -78.7167L25.9156 -78.7166L25.9156 -78.7166L25.9155 -78.7166L25.9154 -78.7166L25.9154 -78.7166L25.9153 -78.7166L25.9152 -78.7166L25.9152 -78.7166L25.9151 -78.7166L25.915 -78.7166L25.9149 -78.7165L25.9149 -78.7165L25.9148 -78.7165L25.9147 -78.7165L25.9147 -78.7165L25.9146 -78.7165L25.9145 -78.7165L25.9145 -78.7165L25.9144 -78.7165L25.9143 -78.7165L25.9143 -78.7165L25.9142 -78.7164L25.9141 -78.7164L25.9141 -78.7164L25.914 -78.7164L25.9139 -78.7164L25.9138 -78.7164L25.9138 -78.7164L25.9137 -78.7164L25.9136 -78.7164L25.9136 -78.7164L25.9135 -78.7163L25.9134 -78.7163L25.9134 -78.7163L25.9133 -78.7163L25.9132 -78.7163L25.9132 -78.7163L25.9131 -78.7163L25.913 -78.7163L25.913 -78.7163L25.9129 -78.7163L25.9128 -78.7162L25.9128 -78.7162L25.9127 -78.7162L25.9126 -78.7162L25.9125 -78.7162L25.9125 -78.7162L25.9124 -78.7162L25.9123 -78.7162L25.9123 -78.7162L25.9122 -78.7162L25.9121 -78.7162L25.9121 -78.7161L25.912 -78.7161L25.9119 -78.7161L25.9119 -78.7161L25.9118 -78.7161L25.9117 -78.7161L25.9117 -78.7161L25.9116 -78.7161L25.9115 -78.7161L25.9114 -78.7161L25.9114 -78.716L25.9113 -78.716L25.9112 -78.716L25.9112 -78.716L25.9111 -78.716L25.911 -78.716L25.911 -78.716L25.9109 -78.716L25.9108 -78.716L25.9108 -78.716L25.9107 -78.7159L25.9106 -78.7159L25.9106 -78.7159L25.9105 -78.7159L25.9104 -78.7159L25.9103 -78.7159L25.9103 -78.7159L25.9102 -78.7159L25.9101 -78.7159L25.9101 -78.7159L25.91 -78.7159L25.9099 -78.7158L25.9099 -78.7158L25.9098 -78.7158L25.9097 -78.7158L25.9097 -78.7158L25.9096 -78.7158L25.9095 -78.7158L25.9095 -78.7158L25.9094 -78.7158L25.9093 -78.7158L25.9092 -78.7157L25.9092 -78.7157L25.9091 -78.7157L25.909 -78.7157L25.909 -78.7157L25.9089 -78.7157L25.9088 -78.7157L25.9088 -78.7157L25.9087 -78.7157L25.9086 -78.7157L25.9086 -78.7156L25.9085 -78.7156L25.9084 -78.7156L25.9084 -78.7156L25.9083 -78.7156L25.9082 -78.7156L25.9081 -78.7156L25.9081 -78.7156L25.908 -78.7156L25.9079 -78.7156L25.9079 -78.7156L25.9078 -78.7155L25.9077 -78.7155L25.9077 -78.7155L25.9076 -78.7155L25.9075 -78.7155L25.9075 -78.7155L25.9074 -78.7155L25.9073 -78.7155C24.9475 -78.5733 23.9877 -78.431 22.9923 -78.2888C23.7053 -77.5758 24.561 -77.2905 25.5593 -77.2905C26.9854 -77.1479 28.269 -78.0036 28.8394 -79.1445ZM62.9243 -78.1459C62.2112 -77.5754 61.3555 -77.1475 60.3572 -77.1475C58.9311 -77.1475 57.7902 -78.0032 57.0771 -79.0015C58.4894 -78.9006 59.9017 -78.6571 61.2634 -78.4222L61.2636 -78.4222C61.827 -78.325 62.3817 -78.2293 62.9243 -78.1459ZM-9.09562 -58.6079C-7.04778 -58.6079 -5.38767 -60.268 -5.38767 -62.3159C-5.38767 -64.3637 -7.04778 -66.0238 -9.09562 -66.0238C-11.1435 -66.0238 -12.8036 -64.3637 -12.8036 -62.3159C-12.8036 -60.268 -11.1435 -58.6079 -9.09562 -58.6079ZM12.011 -62.3159C12.011 -60.268 10.3509 -58.6079 8.30307 -58.6079C6.25523 -58.6079 4.59512 -60.268 4.59512 -62.3159C4.59512 -64.3637 6.25523 -66.0238 8.30307 -66.0238C10.3509 -66.0238 12.011 -64.3637 12.011 -62.3159ZM25.5593 -58.6079C27.6071 -58.6079 29.2672 -60.268 29.2672 -62.3159C29.2672 -64.3637 27.6071 -66.0238 25.5593 -66.0238C23.5114 -66.0238 21.8514 -64.3637 21.8514 -62.3159C21.8514 -60.268 23.5114 -58.6079 25.5593 -58.6079ZM46.6663 -62.3159C46.6663 -60.268 45.0062 -58.6079 42.9584 -58.6079C40.9106 -58.6079 39.2504 -60.268 39.2504 -62.3159C39.2504 -64.3637 40.9106 -66.0238 42.9584 -66.0238C45.0062 -66.0238 46.6663 -64.3637 46.6663 -62.3159ZM60.3571 -58.6079C62.405 -58.6079 64.065 -60.268 64.065 -62.3159C64.065 -64.3637 62.405 -66.0238 60.3571 -66.0238C58.3093 -66.0238 56.6491 -64.3637 56.6491 -62.3159C56.6491 -60.268 58.3093 -58.6079 60.3571 -58.6079ZM81.4637 -62.3159C81.4637 -60.268 79.8036 -58.6079 77.7558 -58.6079C75.708 -58.6079 74.0478 -60.268 74.0478 -62.3159C74.0478 -64.3637 75.708 -66.0238 77.7558 -66.0238C79.8036 -66.0238 81.4637 -64.3637 81.4637 -62.3159ZM95.0124 -58.6079C97.0602 -58.6079 98.7203 -60.268 98.7203 -62.3159C98.7203 -64.3637 97.0602 -66.0238 95.0124 -66.0238C92.9645 -66.0238 91.3045 -64.3637 91.3045 -62.3159C91.3045 -60.268 92.9645 -58.6079 95.0124 -58.6079ZM-22.7868 -43.9189C-22.7868 -41.8711 -24.4469 -40.2109 -26.4947 -40.2109C-28.5426 -40.2109 -30.2026 -41.8711 -30.2026 -43.9189C-30.2026 -45.9667 -28.5426 -47.6269 -26.4947 -47.6269C-24.4469 -47.6269 -22.7868 -45.9667 -22.7868 -43.9189ZM-9.09562 -40.2109C-7.04778 -40.2109 -5.38767 -41.8711 -5.38767 -43.9189C-5.38767 -45.9667 -7.04778 -47.6269 -9.09562 -47.6269C-11.1435 -47.6269 -12.8036 -45.9667 -12.8036 -43.9189C-12.8036 -41.8711 -11.1435 -40.2109 -9.09562 -40.2109ZM12.011 -43.9189C12.011 -41.8711 10.3509 -40.2109 8.30307 -40.2109C6.25523 -40.2109 4.59512 -41.8711 4.59512 -43.9189C4.59512 -45.9667 6.25523 -47.6269 8.30307 -47.6269C10.3509 -47.6269 12.011 -45.9667 12.011 -43.9189ZM25.5593 -40.2109C27.6071 -40.2109 29.2672 -41.8711 29.2672 -43.9189C29.2672 -45.9667 27.6071 -47.6269 25.5593 -47.6269C23.5114 -47.6269 21.8514 -45.9667 21.8514 -43.9189C21.8514 -41.8711 23.5114 -40.2109 25.5593 -40.2109ZM46.6663 -43.9189C46.6663 -41.8711 45.0062 -40.2109 42.9584 -40.2109C40.9106 -40.2109 39.2504 -41.8711 39.2504 -43.9189C39.2504 -45.9667 40.9106 -47.6269 42.9584 -47.6269C45.0062 -47.6269 46.6663 -45.9667 46.6663 -43.9189ZM60.3571 -40.2109C62.405 -40.2109 64.065 -41.8711 64.065 -43.9189C64.065 -45.9667 62.405 -47.6269 60.3571 -47.6269C58.3093 -47.6269 56.6491 -45.9667 56.6491 -43.9189C56.6491 -41.8711 58.3093 -40.2109 60.3571 -40.2109ZM81.4637 -43.9189C81.4637 -41.8711 79.8036 -40.2109 77.7558 -40.2109C75.708 -40.2109 74.0478 -41.8711 74.0478 -43.9189C74.0478 -45.9667 75.708 -47.6269 77.7558 -47.6269C79.8036 -47.6269 81.4637 -45.9667 81.4637 -43.9189ZM95.0124 -40.2109C97.0602 -40.2109 98.7203 -41.8711 98.7203 -43.9189C98.7203 -45.9667 97.0602 -47.6269 95.0124 -47.6269C92.9645 -47.6269 91.3045 -45.9667 91.3045 -43.9189C91.3045 -41.8711 92.9645 -40.2109 95.0124 -40.2109ZM116.119 -43.9189C116.119 -41.8711 114.459 -40.2109 112.411 -40.2109C110.363 -40.2109 108.703 -41.8711 108.703 -43.9189C108.703 -45.9667 110.363 -47.6269 112.411 -47.6269C114.459 -47.6269 116.119 -45.9667 116.119 -43.9189ZM-43.8934 -21.6712C-41.8455 -21.6712 -40.1854 -23.3313 -40.1854 -25.3791C-40.1854 -27.427 -41.8455 -29.0871 -43.8934 -29.0871C-45.9412 -29.0871 -47.6013 -27.427 -47.6013 -25.3791C-47.6013 -23.3313 -45.9412 -21.6712 -43.8934 -21.6712ZM-22.7868 -25.3791C-22.7868 -23.3313 -24.4469 -21.6712 -26.4947 -21.6712C-28.5426 -21.6712 -30.2026 -23.3313 -30.2026 -25.3791C-30.2026 -27.427 -28.5426 -29.0871 -26.4947 -29.0871C-24.4469 -29.0871 -22.7868 -27.427 -22.7868 -25.3791ZM-9.09562 -21.6712C-7.04778 -21.6712 -5.38767 -23.3313 -5.38767 -25.3791C-5.38767 -27.427 -7.04778 -29.0871 -9.09562 -29.0871C-11.1435 -29.0871 -12.8036 -27.427 -12.8036 -25.3791C-12.8036 -23.3313 -11.1435 -21.6712 -9.09562 -21.6712ZM12.011 -25.3791C12.011 -23.3313 10.3509 -21.6712 8.30307 -21.6712C6.25523 -21.6712 4.59512 -23.3313 4.59512 -25.3791C4.59512 -27.427 6.25523 -29.0871 8.30307 -29.0871C10.3509 -29.0871 12.011 -27.427 12.011 -25.3791ZM25.5593 -21.6712C27.6071 -21.6712 29.2672 -23.3313 29.2672 -25.3791C29.2672 -27.427 27.6071 -29.0871 25.5593 -29.0871C23.5114 -29.0871 21.8514 -27.427 21.8514 -25.3791C21.8514 -23.3313 23.5114 -21.6712 25.5593 -21.6712ZM46.6663 -25.3791C46.6663 -23.3313 45.0062 -21.6712 42.9584 -21.6712C40.9106 -21.6712 39.2504 -23.3313 39.2504 -25.3791C39.2504 -27.427 40.9106 -29.0871 42.9584 -29.0871C45.0062 -29.0871 46.6663 -27.427 46.6663 -25.3791ZM60.3571 -21.6712C62.405 -21.6712 64.065 -23.3313 64.065 -25.3791C64.065 -27.427 62.405 -29.0871 60.3571 -29.0871C58.3093 -29.0871 56.6491 -27.427 56.6491 -25.3791C56.6491 -23.3313 58.3093 -21.6712 60.3571 -21.6712ZM81.4637 -25.3791C81.4637 -23.3313 79.8036 -21.6712 77.7558 -21.6712C75.708 -21.6712 74.0478 -23.3313 74.0478 -25.3791C74.0478 -27.427 75.708 -29.0871 77.7558 -29.0871C79.8036 -29.0871 81.4637 -27.427 81.4637 -25.3791ZM95.0124 -21.6712C97.0602 -21.6712 98.7203 -23.3313 98.7203 -25.3791C98.7203 -27.427 97.0602 -29.0871 95.0124 -29.0871C92.9645 -29.0871 91.3045 -27.427 91.3045 -25.3791C91.3045 -23.3313 92.9645 -21.6712 95.0124 -21.6712ZM116.119 -25.3791C116.119 -23.3313 114.459 -21.6712 112.411 -21.6712C110.363 -21.6712 108.703 -23.3313 108.703 -25.3791C108.703 -27.427 110.363 -29.0871 112.411 -29.0871C114.459 -29.0871 116.119 -27.427 116.119 -25.3791ZM129.81 -21.6712C131.858 -21.6712 133.518 -23.3313 133.518 -25.3791C133.518 -27.427 131.858 -29.0871 129.81 -29.0871C127.762 -29.0871 126.102 -27.427 126.102 -25.3791C126.102 -23.3313 127.762 -21.6712 129.81 -21.6712ZM-59.7233 -10.2623C-58.4398 -9.69183 -57.5841 -8.40831 -57.5841 -6.83957C-57.5841 -4.70037 -59.1529 -3.13161 -61.1494 -3.13161C-61.5773 -3.13161 -61.8625 -3.13162 -62.1478 -3.27424C-61.4348 -5.69837 -60.5792 -7.97991 -59.7236 -10.2615L-59.7233 -10.2623ZM-43.8934 -3.13141C-41.8455 -3.13141 -40.1854 -4.79152 -40.1854 -6.83936C-40.1854 -8.8872 -41.8455 -10.5473 -43.8934 -10.5473C-45.9412 -10.5473 -47.6013 -8.8872 -47.6013 -6.83936C-47.6013 -4.79152 -45.9412 -3.13141 -43.8934 -3.13141ZM-22.7868 -6.83936C-22.7868 -4.79152 -24.4469 -3.13141 -26.4947 -3.13141C-28.5426 -3.13141 -30.2026 -4.79152 -30.2026 -6.83936C-30.2026 -8.8872 -28.5426 -10.5473 -26.4947 -10.5473C-24.4469 -10.5473 -22.7868 -8.8872 -22.7868 -6.83936ZM-9.09562 -3.13141C-7.04778 -3.13141 -5.38767 -4.79152 -5.38767 -6.83936C-5.38767 -8.8872 -7.04778 -10.5473 -9.09562 -10.5473C-11.1435 -10.5473 -12.8036 -8.8872 -12.8036 -6.83936C-12.8036 -4.79152 -11.1435 -3.13141 -9.09562 -3.13141ZM12.011 -6.83936C12.011 -4.79152 10.3509 -3.13141 8.30307 -3.13141C6.25523 -3.13141 4.59512 -4.79152 4.59512 -6.83936C4.59512 -8.8872 6.25523 -10.5473 8.30307 -10.5473C10.3509 -10.5473 12.011 -8.8872 12.011 -6.83936ZM25.5593 -3.13141C27.6071 -3.13141 29.2672 -4.79152 29.2672 -6.83936C29.2672 -8.8872 27.6071 -10.5473 25.5593 -10.5473C23.5114 -10.5473 21.8514 -8.8872 21.8514 -6.83936C21.8514 -4.79152 23.5114 -3.13141 25.5593 -3.13141ZM46.6663 -6.83936C46.6663 -4.79152 45.0062 -3.13141 42.9584 -3.13141C40.9106 -3.13141 39.2504 -4.79152 39.2504 -6.83936C39.2504 -8.8872 40.9106 -10.5473 42.9584 -10.5473C45.0062 -10.5473 46.6663 -8.8872 46.6663 -6.83936ZM60.3571 -3.13141C62.405 -3.13141 64.065 -4.79152 64.065 -6.83936C64.065 -8.8872 62.405 -10.5473 60.3571 -10.5473C58.3093 -10.5473 56.6491 -8.8872 56.6491 -6.83936C56.6491 -4.79152 58.3093 -3.13141 60.3571 -3.13141ZM81.4637 -6.83936C81.4637 -4.79152 79.8036 -3.13141 77.7558 -3.13141C75.708 -3.13141 74.0478 -4.79152 74.0478 -6.83936C74.0478 -8.8872 75.708 -10.5473 77.7558 -10.5473C79.8036 -10.5473 81.4637 -8.8872 81.4637 -6.83936ZM95.0124 -3.13141C97.0602 -3.13141 98.7203 -4.79152 98.7203 -6.83936C98.7203 -8.8872 97.0602 -10.5473 95.0124 -10.5473C92.9645 -10.5473 91.3045 -8.8872 91.3045 -6.83936C91.3045 -4.79152 92.9645 -3.13141 95.0124 -3.13141ZM116.119 -6.83936C116.119 -4.79152 114.459 -3.13141 112.411 -3.13141C110.363 -3.13141 108.703 -4.79152 108.703 -6.83936C108.703 -8.8872 110.363 -10.5473 112.411 -10.5473C114.459 -10.5473 116.119 -8.8872 116.119 -6.83936ZM129.81 -3.13141C131.858 -3.13141 133.518 -4.79152 133.518 -6.83936C133.518 -8.8872 131.858 -10.5473 129.81 -10.5473C127.762 -10.5473 126.102 -8.8872 126.102 -6.83936C126.102 -4.79152 127.762 -3.13141 129.81 -3.13141ZM147.208 -3.13161C145.212 -3.13161 143.501 -4.84299 143.501 -6.83957C143.501 -8.2657 144.356 -9.54921 145.782 -10.2623C146.638 -7.98046 147.494 -5.55605 148.207 -3.27424C147.921 -3.13162 147.494 -3.13161 147.208 -3.13161ZM-61.292 15.4084C-59.2442 15.4084 -57.5841 13.7483 -57.5841 11.7004C-57.5841 9.65257 -59.2442 7.99246 -61.292 7.99246C-63.3399 7.99246 -65 9.65257 -65 11.7004C-65 13.7483 -63.3399 15.4084 -61.292 15.4084ZM-40.1854 11.7004C-40.1854 13.7483 -41.8455 15.4084 -43.8934 15.4084C-45.9412 15.4084 -47.6013 13.7483 -47.6013 11.7004C-47.6013 9.65257 -45.9412 7.99246 -43.8934 7.99246C-41.8455 7.99246 -40.1854 9.65257 -40.1854 11.7004ZM-26.4947 15.4084C-24.4469 15.4084 -22.7868 13.7483 -22.7868 11.7004C-22.7868 9.65257 -24.4469 7.99246 -26.4947 7.99246C-28.5426 7.99246 -30.2026 9.65257 -30.2026 11.7004C-30.2026 13.7483 -28.5426 15.4084 -26.4947 15.4084ZM-5.38767 11.7004C-5.38767 13.7483 -7.04778 15.4084 -9.09562 15.4084C-11.1435 15.4084 -12.8036 13.7483 -12.8036 11.7004C-12.8036 9.65257 -11.1435 7.99246 -9.09562 7.99246C-7.04778 7.99246 -5.38767 9.65257 -5.38767 11.7004ZM8.30307 15.4084C10.3509 15.4084 12.011 13.7483 12.011 11.7004C12.011 9.65257 10.3509 7.99246 8.30307 7.99246C6.25523 7.99246 4.59512 9.65257 4.59512 11.7004C4.59512 13.7483 6.25523 15.4084 8.30307 15.4084ZM29.2672 11.7004C29.2672 13.7483 27.6071 15.4084 25.5593 15.4084C23.5114 15.4084 21.8514 13.7483 21.8514 11.7004C21.8514 9.65257 23.5114 7.99246 25.5593 7.99246C27.6071 7.99246 29.2672 9.65257 29.2672 11.7004ZM42.9584 15.4084C45.0062 15.4084 46.6663 13.7483 46.6663 11.7004C46.6663 9.65257 45.0062 7.99246 42.9584 7.99246C40.9106 7.99246 39.2504 9.65257 39.2504 11.7004C39.2504 13.7483 40.9106 15.4084 42.9584 15.4084ZM64.065 11.7004C64.065 13.7483 62.405 15.4084 60.3571 15.4084C58.3093 15.4084 56.6491 13.7483 56.6491 11.7004C56.6491 9.65257 58.3093 7.99246 60.3571 7.99246C62.405 7.99246 64.065 9.65257 64.065 11.7004ZM77.7558 15.4084C79.8036 15.4084 81.4637 13.7483 81.4637 11.7004C81.4637 9.65257 79.8036 7.99246 77.7558 7.99246C75.708 7.99246 74.0478 9.65257 74.0478 11.7004C74.0478 13.7483 75.708 15.4084 77.7558 15.4084ZM98.7203 11.7004C98.7203 13.7483 97.0602 15.4084 95.0124 15.4084C92.9645 15.4084 91.3045 13.7483 91.3045 11.7004C91.3045 9.65257 92.9645 7.99246 95.0124 7.99246C97.0602 7.99246 98.7203 9.65257 98.7203 11.7004ZM112.411 15.4084C114.459 15.4084 116.119 13.7483 116.119 11.7004C116.119 9.65257 114.459 7.99246 112.411 7.99246C110.363 7.99246 108.703 9.65257 108.703 11.7004C108.703 13.7483 110.363 15.4084 112.411 15.4084ZM133.518 11.7004C133.518 13.7483 131.858 15.4084 129.81 15.4084C127.762 15.4084 126.102 13.7483 126.102 11.7004C126.102 9.65257 127.762 7.99246 129.81 7.99246C131.858 7.99246 133.518 9.65257 133.518 11.7004ZM147.208 15.4084C149.256 15.4084 150.916 13.7483 150.916 11.7004C150.916 9.65257 149.256 7.99246 147.208 7.99246C145.161 7.99246 143.501 9.65257 143.501 11.7004C143.501 13.7483 145.161 15.4084 147.208 15.4084ZM-57.5841 30.24C-57.5841 32.2878 -59.2442 33.9479 -61.292 33.9479C-63.3399 33.9479 -65 32.2878 -65 30.24C-65 28.1922 -63.3399 26.532 -61.292 26.532C-59.2442 26.532 -57.5841 28.1922 -57.5841 30.24ZM-43.8934 33.9479C-41.8455 33.9479 -40.1854 32.2878 -40.1854 30.24C-40.1854 28.1922 -41.8455 26.532 -43.8934 26.532C-45.9412 26.532 -47.6013 28.1922 -47.6013 30.24C-47.6013 32.2878 -45.9412 33.9479 -43.8934 33.9479ZM-22.7868 30.24C-22.7868 32.2878 -24.4469 33.9479 -26.4947 33.9479C-28.5426 33.9479 -30.2026 32.2878 -30.2026 30.24C-30.2026 28.1922 -28.5426 26.532 -26.4947 26.532C-24.4469 26.532 -22.7868 28.1922 -22.7868 30.24ZM-9.09562 33.9479C-7.04778 33.9479 -5.38767 32.2878 -5.38767 30.24C-5.38767 28.1922 -7.04778 26.532 -9.09562 26.532C-11.1435 26.532 -12.8036 28.1922 -12.8036 30.24C-12.8036 32.2878 -11.1435 33.9479 -9.09562 33.9479ZM12.011 30.24C12.011 32.2878 10.3509 33.9479 8.30307 33.9479C6.25523 33.9479 4.59512 32.2878 4.59512 30.24C4.59512 28.1922 6.25523 26.532 8.30307 26.532C10.3509 26.532 12.011 28.1922 12.011 30.24ZM25.5593 33.9479C27.6071 33.9479 29.2672 32.2878 29.2672 30.24C29.2672 28.1922 27.6071 26.532 25.5593 26.532C23.5114 26.532 21.8514 28.1922 21.8514 30.24C21.8514 32.2878 23.5114 33.9479 25.5593 33.9479ZM46.6663 30.24C46.6663 32.2878 45.0062 33.9479 42.9584 33.9479C40.9106 33.9479 39.2504 32.2878 39.2504 30.24C39.2504 28.1922 40.9106 26.532 42.9584 26.532C45.0062 26.532 46.6663 28.1922 46.6663 30.24ZM60.3571 33.9479C62.405 33.9479 64.065 32.2878 64.065 30.24C64.065 28.1922 62.405 26.532 60.3571 26.532C58.3093 26.532 56.6491 28.1922 56.6491 30.24C56.6491 32.2878 58.3093 33.9479 60.3571 33.9479ZM81.4637 30.24C81.4637 32.2878 79.8036 33.9479 77.7558 33.9479C75.708 33.9479 74.0478 32.2878 74.0478 30.24C74.0478 28.1922 75.708 26.532 77.7558 26.532C79.8036 26.532 81.4637 28.1922 81.4637 30.24ZM95.0124 33.9479C97.0602 33.9479 98.7203 32.2878 98.7203 30.24C98.7203 28.1922 97.0602 26.532 95.0124 26.532C92.9645 26.532 91.3045 28.1922 91.3045 30.24C91.3045 32.2878 92.9645 33.9479 95.0124 33.9479ZM116.119 30.24C116.119 32.2878 114.459 33.9479 112.411 33.9479C110.363 33.9479 108.703 32.2878 108.703 30.24C108.703 28.1922 110.363 26.532 112.411 26.532C114.459 26.532 116.119 28.1922 116.119 30.24ZM129.81 33.9479C131.858 33.9479 133.518 32.2878 133.518 30.24C133.518 28.1922 131.858 26.532 129.81 26.532C127.762 26.532 126.102 28.1922 126.102 30.24C126.102 32.2878 127.762 33.9479 129.81 33.9479ZM150.916 30.24C150.916 32.2878 149.256 33.9479 147.208 33.9479C145.161 33.9479 143.501 32.2878 143.501 30.24C143.501 28.1922 145.161 26.532 147.208 26.532C149.256 26.532 150.916 28.1922 150.916 30.24ZM-61.292 52.4877C-59.2442 52.4877 -57.5841 50.8276 -57.5841 48.7798C-57.5841 46.7319 -59.2442 45.0718 -61.292 45.0718C-63.3399 45.0718 -65 46.7319 -65 48.7798C-65 50.8276 -63.3399 52.4877 -61.292 52.4877ZM-40.1854 48.7798C-40.1854 50.8276 -41.8455 52.4877 -43.8934 52.4877C-45.9412 52.4877 -47.6013 50.8276 -47.6013 48.7798C-47.6013 46.7319 -45.9412 45.0718 -43.8934 45.0718C-41.8455 45.0718 -40.1854 46.7319 -40.1854 48.7798ZM-26.4947 52.4877C-24.4469 52.4877 -22.7868 50.8276 -22.7868 48.7798C-22.7868 46.7319 -24.4469 45.0718 -26.4947 45.0718C-28.5426 45.0718 -30.2026 46.7319 -30.2026 48.7798C-30.2026 50.8276 -28.5426 52.4877 -26.4947 52.4877ZM-5.38767 48.7798C-5.38767 50.8276 -7.04778 52.4877 -9.09562 52.4877C-11.1435 52.4877 -12.8036 50.8276 -12.8036 48.7798C-12.8036 46.7319 -11.1435 45.0718 -9.09562 45.0718C-7.04778 45.0718 -5.38767 46.7319 -5.38767 48.7798ZM8.30307 52.4877C10.3509 52.4877 12.011 50.8276 12.011 48.7798C12.011 46.7319 10.3509 45.0718 8.30307 45.0718C6.25523 45.0718 4.59512 46.7319 4.59512 48.7798C4.59512 50.8276 6.25523 52.4877 8.30307 52.4877ZM29.2672 48.7798C29.2672 50.8276 27.6071 52.4877 25.5593 52.4877C23.5114 52.4877 21.8514 50.8276 21.8514 48.7798C21.8514 46.7319 23.5114 45.0718 25.5593 45.0718C27.6071 45.0718 29.2672 46.7319 29.2672 48.7798ZM42.9584 52.4877C45.0062 52.4877 46.6663 50.8276 46.6663 48.7798C46.6663 46.7319 45.0062 45.0718 42.9584 45.0718C40.9106 45.0718 39.2504 46.7319 39.2504 48.7798C39.2504 50.8276 40.9106 52.4877 42.9584 52.4877ZM64.065 48.7798C64.065 50.8276 62.405 52.4877 60.3571 52.4877C58.3093 52.4877 56.6491 50.8276 56.6491 48.7798C56.6491 46.7319 58.3093 45.0718 60.3571 45.0718C62.405 45.0718 64.065 46.7319 64.065 48.7798ZM77.7558 52.4877C79.8036 52.4877 81.4637 50.8276 81.4637 48.7798C81.4637 46.7319 79.8036 45.0718 77.7558 45.0718C75.708 45.0718 74.0478 46.7319 74.0478 48.7798C74.0478 50.8276 75.708 52.4877 77.7558 52.4877ZM98.7203 48.7798C98.7203 50.8276 97.0602 52.4877 95.0124 52.4877C92.9645 52.4877 91.3045 50.8276 91.3045 48.7798C91.3045 46.7319 92.9645 45.0718 95.0124 45.0718C97.0602 45.0718 98.7203 46.7319 98.7203 48.7798ZM112.411 52.4877C114.459 52.4877 116.119 50.8276 116.119 48.7798C116.119 46.7319 114.459 45.0718 112.411 45.0718C110.363 45.0718 108.703 46.7319 108.703 48.7798C108.703 50.8276 110.363 52.4877 112.411 52.4877ZM133.518 48.7798C133.518 50.8276 131.858 52.4877 129.81 52.4877C127.762 52.4877 126.102 50.8276 126.102 48.7798C126.102 46.7319 127.762 45.0718 129.81 45.0718C131.858 45.0718 133.518 46.7319 133.518 48.7798ZM147.208 52.4877C149.256 52.4877 150.916 50.8276 150.916 48.7798C150.916 46.7319 149.256 45.0718 147.208 45.0718C145.161 45.0718 143.501 46.7319 143.501 48.7798C143.501 50.8276 145.161 52.4877 147.208 52.4877ZM-61.2923 63.6112C-59.2957 63.6112 -57.5843 65.3226 -57.5843 67.3192C-57.5843 68.8879 -58.44 70.1714 -59.8662 70.7419C-60.7218 68.4601 -61.5775 66.0356 -62.2906 63.7538C-62.0053 63.6112 -61.5775 63.6112 -61.2923 63.6112ZM-43.8934 71.0271C-41.8455 71.0271 -40.1854 69.367 -40.1854 67.3192C-40.1854 65.2713 -41.8455 63.6112 -43.8934 63.6112C-45.9412 63.6112 -47.6013 65.2713 -47.6013 67.3192C-47.6013 69.367 -45.9412 71.0271 -43.8934 71.0271ZM-22.7868 67.3192C-22.7868 69.367 -24.4469 71.0271 -26.4947 71.0271C-28.5426 71.0271 -30.2026 69.367 -30.2026 67.3192C-30.2026 65.2713 -28.5426 63.6112 -26.4947 63.6112C-24.4469 63.6112 -22.7868 65.2713 -22.7868 67.3192ZM-9.09562 71.0271C-7.04778 71.0271 -5.38767 69.367 -5.38767 67.3192C-5.38767 65.2713 -7.04778 63.6112 -9.09562 63.6112C-11.1435 63.6112 -12.8036 65.2713 -12.8036 67.3192C-12.8036 69.367 -11.1435 71.0271 -9.09562 71.0271ZM12.011 67.3192C12.011 69.367 10.3509 71.0271 8.30307 71.0271C6.25523 71.0271 4.59512 69.367 4.59512 67.3192C4.59512 65.2713 6.25523 63.6112 8.30307 63.6112C10.3509 63.6112 12.011 65.2713 12.011 67.3192ZM25.5593 71.0271C27.6071 71.0271 29.2672 69.367 29.2672 67.3192C29.2672 65.2713 27.6071 63.6112 25.5593 63.6112C23.5114 63.6112 21.8514 65.2713 21.8514 67.3192C21.8514 69.367 23.5114 71.0271 25.5593 71.0271ZM46.6663 67.3192C46.6663 69.367 45.0062 71.0271 42.9584 71.0271C40.9106 71.0271 39.2504 69.367 39.2504 67.3192C39.2504 65.2713 40.9106 63.6112 42.9584 63.6112C45.0062 63.6112 46.6663 65.2713 46.6663 67.3192ZM60.3571 71.0271C62.405 71.0271 64.065 69.367 64.065 67.3192C64.065 65.2713 62.405 63.6112 60.3571 63.6112C58.3093 63.6112 56.6491 65.2713 56.6491 67.3192C56.6491 69.367 58.3093 71.0271 60.3571 71.0271ZM81.4637 67.3192C81.4637 69.367 79.8036 71.0271 77.7558 71.0271C75.708 71.0271 74.0478 69.367 74.0478 67.3192C74.0478 65.2713 75.708 63.6112 77.7558 63.6112C79.8036 63.6112 81.4637 65.2713 81.4637 67.3192ZM95.0124 71.0271C97.0602 71.0271 98.7203 69.367 98.7203 67.3192C98.7203 65.2713 97.0602 63.6112 95.0124 63.6112C92.9645 63.6112 91.3045 65.2713 91.3045 67.3192C91.3045 69.367 92.9645 71.0271 95.0124 71.0271ZM116.119 67.3192C116.119 69.367 114.459 71.0271 112.411 71.0271C110.363 71.0271 108.703 69.367 108.703 67.3192C108.703 65.2713 110.363 63.6112 112.411 63.6112C114.459 63.6112 116.119 65.2713 116.119 67.3192ZM129.81 71.0271C131.858 71.0271 133.518 69.367 133.518 67.3192C133.518 65.2713 131.858 63.6112 129.81 63.6112C127.762 63.6112 126.102 65.2713 126.102 67.3192C126.102 69.367 127.762 71.0271 129.81 71.0271ZM145.64 70.7419C144.356 70.1714 143.501 68.8879 143.501 67.3192C143.501 65.3226 145.069 63.6112 147.066 63.6112C147.494 63.6112 147.779 63.6112 148.064 63.7538C147.351 66.178 146.496 68.4596 145.64 70.7411L145.64 70.7419ZM-43.8934 89.5671C-41.8455 89.5671 -40.1854 87.907 -40.1854 85.8591C-40.1854 83.8113 -41.8455 82.1512 -43.8934 82.1512C-45.9412 82.1512 -47.6013 83.8113 -47.6013 85.8591C-47.6013 87.907 -45.9412 89.5671 -43.8934 89.5671ZM-22.7868 85.8591C-22.7868 87.907 -24.4469 89.5671 -26.4947 89.5671C-28.5426 89.5671 -30.2026 87.907 -30.2026 85.8591C-30.2026 83.8113 -28.5426 82.1512 -26.4947 82.1512C-24.4469 82.1512 -22.7868 83.8113 -22.7868 85.8591ZM-9.09562 89.5671C-7.04778 89.5671 -5.38767 87.907 -5.38767 85.8591C-5.38767 83.8113 -7.04778 82.1512 -9.09562 82.1512C-11.1435 82.1512 -12.8036 83.8113 -12.8036 85.8591C-12.8036 87.907 -11.1435 89.5671 -9.09562 89.5671ZM12.011 85.8591C12.011 87.907 10.3509 89.5671 8.30307 89.5671C6.25523 89.5671 4.59512 87.907 4.59512 85.8591C4.59512 83.8113 6.25523 82.1512 8.30307 82.1512C10.3509 82.1512 12.011 83.8113 12.011 85.8591ZM25.5593 89.5671C27.6071 89.5671 29.2672 87.907 29.2672 85.8591C29.2672 83.8113 27.6071 82.1512 25.5593 82.1512C23.5114 82.1512 21.8514 83.8113 21.8514 85.8591C21.8514 87.907 23.5114 89.5671 25.5593 89.5671ZM46.6663 85.8591C46.6663 87.907 45.0062 89.5671 42.9584 89.5671C40.9106 89.5671 39.2504 87.907 39.2504 85.8591C39.2504 83.8113 40.9106 82.1512 42.9584 82.1512C45.0062 82.1512 46.6663 83.8113 46.6663 85.8591ZM60.3571 89.5671C62.405 89.5671 64.065 87.907 64.065 85.8591C64.065 83.8113 62.405 82.1512 60.3571 82.1512C58.3093 82.1512 56.6491 83.8113 56.6491 85.8591C56.6491 87.907 58.3093 89.5671 60.3571 89.5671ZM81.4637 85.8591C81.4637 87.907 79.8036 89.5671 77.7558 89.5671C75.708 89.5671 74.0478 87.907 74.0478 85.8591C74.0478 83.8113 75.708 82.1512 77.7558 82.1512C79.8036 82.1512 81.4637 83.8113 81.4637 85.8591ZM95.0124 89.5671C97.0602 89.5671 98.7203 87.907 98.7203 85.8591C98.7203 83.8113 97.0602 82.1512 95.0124 82.1512C92.9645 82.1512 91.3045 83.8113 91.3045 85.8591C91.3045 87.907 92.9645 89.5671 95.0124 89.5671ZM116.119 85.8591C116.119 87.907 114.459 89.5671 112.411 89.5671C110.363 89.5671 108.703 87.907 108.703 85.8591C108.703 83.8113 110.363 82.1512 112.411 82.1512C114.459 82.1512 116.119 83.8113 116.119 85.8591ZM129.81 89.5671C131.858 89.5671 133.518 87.907 133.518 85.8591C133.518 83.8113 131.858 82.1512 129.81 82.1512C127.762 82.1512 126.102 83.8113 126.102 85.8591C126.102 87.907 127.762 89.5671 129.81 89.5671ZM-22.7868 104.399C-22.7868 106.447 -24.4469 108.107 -26.4947 108.107C-28.5426 108.107 -30.2026 106.447 -30.2026 104.399C-30.2026 102.351 -28.5426 100.691 -26.4947 100.691C-24.4469 100.691 -22.7868 102.351 -22.7868 104.399ZM-9.09562 108.107C-7.04778 108.107 -5.38767 106.447 -5.38767 104.399C-5.38767 102.351 -7.04778 100.691 -9.09562 100.691C-11.1435 100.691 -12.8036 102.351 -12.8036 104.399C-12.8036 106.447 -11.1435 108.107 -9.09562 108.107ZM12.011 104.399C12.011 106.447 10.3509 108.107 8.30307 108.107C6.25523 108.107 4.59512 106.447 4.59512 104.399C4.59512 102.351 6.25523 100.691 8.30307 100.691C10.3509 100.691 12.011 102.351 12.011 104.399ZM25.5593 108.107C27.6071 108.107 29.2672 106.447 29.2672 104.399C29.2672 102.351 27.6071 100.691 25.5593 100.691C23.5114 100.691 21.8514 102.351 21.8514 104.399C21.8514 106.447 23.5114 108.107 25.5593 108.107ZM46.6663 104.399C46.6663 106.447 45.0062 108.107 42.9584 108.107C40.9106 108.107 39.2504 106.447 39.2504 104.399C39.2504 102.351 40.9106 100.691 42.9584 100.691C45.0062 100.691 46.6663 102.351 46.6663 104.399ZM60.3571 108.107C62.405 108.107 64.065 106.447 64.065 104.399C64.065 102.351 62.405 100.691 60.3571 100.691C58.3093 100.691 56.6491 102.351 56.6491 104.399C56.6491 106.447 58.3093 108.107 60.3571 108.107ZM81.4637 104.399C81.4637 106.447 79.8036 108.107 77.7558 108.107C75.708 108.107 74.0478 106.447 74.0478 104.399C74.0478 102.351 75.708 100.691 77.7558 100.691C79.8036 100.691 81.4637 102.351 81.4637 104.399ZM95.0124 108.107C97.0602 108.107 98.7203 106.447 98.7203 104.399C98.7203 102.351 97.0602 100.691 95.0124 100.691C92.9645 100.691 91.3045 102.351 91.3045 104.399C91.3045 106.447 92.9645 108.107 95.0124 108.107ZM116.119 104.399C116.119 106.447 114.459 108.107 112.411 108.107C110.363 108.107 108.703 106.447 108.703 104.399C108.703 102.351 110.363 100.691 112.411 100.691C114.459 100.691 116.119 102.351 116.119 104.399ZM-9.09562 126.647C-7.04778 126.647 -5.38767 124.987 -5.38767 122.939C-5.38767 120.891 -7.04778 119.231 -9.09562 119.231C-11.1435 119.231 -12.8036 120.891 -12.8036 122.939C-12.8036 124.987 -11.1435 126.647 -9.09562 126.647ZM12.011 122.939C12.011 124.987 10.3509 126.647 8.30307 126.647C6.25523 126.647 4.59512 124.987 4.59512 122.939C4.59512 120.891 6.25523 119.231 8.30307 119.231C10.3509 119.231 12.011 120.891 12.011 122.939ZM25.5593 126.647C27.6071 126.647 29.2672 124.987 29.2672 122.939C29.2672 120.891 27.6071 119.231 25.5593 119.231C23.5114 119.231 21.8514 120.891 21.8514 122.939C21.8514 124.987 23.5114 126.647 25.5593 126.647ZM46.6663 122.939C46.6663 124.987 45.0062 126.647 42.9584 126.647C40.9106 126.647 39.2504 124.987 39.2504 122.939C39.2504 120.891 40.9106 119.231 42.9584 119.231C45.0062 119.231 46.6663 120.891 46.6663 122.939ZM60.3571 126.647C62.405 126.647 64.065 124.987 64.065 122.939C64.065 120.891 62.405 119.231 60.3571 119.231C58.3093 119.231 56.6491 120.891 56.6491 122.939C56.6491 124.987 58.3093 126.647 60.3571 126.647ZM81.4637 122.939C81.4637 124.987 79.8036 126.647 77.7558 126.647C75.708 126.647 74.0478 124.987 74.0478 122.939C74.0478 120.891 75.708 119.231 77.7558 119.231C79.8036 119.231 81.4637 120.891 81.4637 122.939ZM95.0124 126.647C97.0602 126.647 98.7203 124.987 98.7203 122.939C98.7203 120.891 97.0602 119.231 95.0124 119.231C92.9645 119.231 91.3045 120.891 91.3045 122.939C91.3045 124.987 92.9645 126.647 95.0124 126.647ZM22.9923 138.768C23.7053 138.198 24.561 137.77 25.5593 137.77C26.9854 137.77 28.269 138.626 28.8394 139.624C27.4272 139.523 26.015 139.28 24.6533 139.045L24.6531 139.045C24.0897 138.948 23.5349 138.852 22.9923 138.768ZM42.9582 137.77C41.2468 137.77 39.8207 138.911 39.3929 140.622H42.9582H46.5235C46.0957 138.911 44.6695 137.77 42.9582 137.77ZM60.0007 139.339C59.0381 139.482 58.0754 139.625 57.0771 139.767C57.7902 138.626 58.9311 137.771 60.3572 137.913C61.3555 137.913 62.2112 138.198 62.9243 138.911C61.926 139.054 60.9633 139.197 60.0007 139.339Z" fill="url(#paint1_radial_2445_477)"/>
<path opacity="0.6" fill-rule="evenodd" clip-rule="evenodd" d="M1412.96 -77.1477C1414.67 -77.1477 1416.1 -78.2886 1416.52 -80H1412.96H1409.39C1409.82 -78.4313 1411.25 -77.1477 1412.96 -77.1477ZM1398.84 -79.1445C1397.84 -79.0019 1396.88 -78.8593 1395.92 -78.7167L1395.92 -78.7167L1395.92 -78.7166L1395.92 -78.7166L1395.92 -78.7166L1395.92 -78.7166L1395.92 -78.7166L1395.92 -78.7166L1395.92 -78.7166L1395.92 -78.7166L1395.92 -78.7166L1395.92 -78.7166L1395.91 -78.7165L1395.91 -78.7165L1395.91 -78.7165L1395.91 -78.7165L1395.91 -78.7165L1395.91 -78.7165L1395.91 -78.7165L1395.91 -78.7165L1395.91 -78.7165L1395.91 -78.7165L1395.91 -78.7165L1395.91 -78.7164L1395.91 -78.7164L1395.91 -78.7164L1395.91 -78.7164L1395.91 -78.7164L1395.91 -78.7164L1395.91 -78.7164L1395.91 -78.7164L1395.91 -78.7164L1395.91 -78.7164L1395.91 -78.7163L1395.91 -78.7163L1395.91 -78.7163L1395.91 -78.7163L1395.91 -78.7163L1395.91 -78.7163L1395.91 -78.7163L1395.91 -78.7163L1395.91 -78.7163L1395.91 -78.7163L1395.91 -78.7162L1395.91 -78.7162L1395.91 -78.7162L1395.91 -78.7162L1395.91 -78.7162L1395.91 -78.7162L1395.91 -78.7162L1395.91 -78.7162L1395.91 -78.7162L1395.91 -78.7162L1395.91 -78.7162L1395.91 -78.7161L1395.91 -78.7161L1395.91 -78.7161L1395.91 -78.7161L1395.91 -78.7161L1395.91 -78.7161L1395.91 -78.7161L1395.91 -78.7161L1395.91 -78.7161L1395.91 -78.7161L1395.91 -78.716L1395.91 -78.716L1395.91 -78.716L1395.91 -78.716L1395.91 -78.716L1395.91 -78.716L1395.91 -78.716L1395.91 -78.716L1395.91 -78.716L1395.91 -78.716L1395.91 -78.7159L1395.91 -78.7159L1395.91 -78.7159L1395.91 -78.7159L1395.91 -78.7159L1395.91 -78.7159L1395.91 -78.7159L1395.91 -78.7159L1395.91 -78.7159L1395.91 -78.7159L1395.91 -78.7159L1395.91 -78.7158L1395.91 -78.7158L1395.91 -78.7158L1395.91 -78.7158L1395.91 -78.7158L1395.91 -78.7158L1395.91 -78.7158L1395.91 -78.7158L1395.91 -78.7158L1395.91 -78.7158L1395.91 -78.7157L1395.91 -78.7157L1395.91 -78.7157L1395.91 -78.7157L1395.91 -78.7157L1395.91 -78.7157L1395.91 -78.7157L1395.91 -78.7157L1395.91 -78.7157L1395.91 -78.7157L1395.91 -78.7156L1395.91 -78.7156L1395.91 -78.7156L1395.91 -78.7156L1395.91 -78.7156L1395.91 -78.7156L1395.91 -78.7156L1395.91 -78.7156L1395.91 -78.7156L1395.91 -78.7156L1395.91 -78.7156L1395.91 -78.7155L1395.91 -78.7155L1395.91 -78.7155L1395.91 -78.7155L1395.91 -78.7155L1395.91 -78.7155L1395.91 -78.7155L1395.91 -78.7155C1394.95 -78.5733 1393.99 -78.431 1392.99 -78.2888C1393.71 -77.5758 1394.56 -77.2905 1395.56 -77.2905C1396.99 -77.1479 1398.27 -78.0036 1398.84 -79.1445ZM1432.92 -78.1459C1432.21 -77.5754 1431.36 -77.1475 1430.36 -77.1475C1428.93 -77.1475 1427.79 -78.0032 1427.08 -79.0015C1428.49 -78.9006 1429.9 -78.6571 1431.26 -78.4222L1431.26 -78.4222C1431.83 -78.325 1432.38 -78.2293 1432.92 -78.1459ZM1360.9 -58.6079C1362.95 -58.6079 1364.61 -60.268 1364.61 -62.3159C1364.61 -64.3637 1362.95 -66.0238 1360.9 -66.0238C1358.86 -66.0238 1357.2 -64.3637 1357.2 -62.3159C1357.2 -60.268 1358.86 -58.6079 1360.9 -58.6079ZM1382.01 -62.3159C1382.01 -60.268 1380.35 -58.6079 1378.3 -58.6079C1376.26 -58.6079 1374.6 -60.268 1374.6 -62.3159C1374.6 -64.3637 1376.26 -66.0238 1378.3 -66.0238C1380.35 -66.0238 1382.01 -64.3637 1382.01 -62.3159ZM1395.56 -58.6079C1397.61 -58.6079 1399.27 -60.268 1399.27 -62.3159C1399.27 -64.3637 1397.61 -66.0238 1395.56 -66.0238C1393.51 -66.0238 1391.85 -64.3637 1391.85 -62.3159C1391.85 -60.268 1393.51 -58.6079 1395.56 -58.6079ZM1416.67 -62.3159C1416.67 -60.268 1415.01 -58.6079 1412.96 -58.6079C1410.91 -58.6079 1409.25 -60.268 1409.25 -62.3159C1409.25 -64.3637 1410.91 -66.0238 1412.96 -66.0238C1415.01 -66.0238 1416.67 -64.3637 1416.67 -62.3159ZM1430.36 -58.6079C1432.4 -58.6079 1434.07 -60.268 1434.07 -62.3159C1434.07 -64.3637 1432.4 -66.0238 1430.36 -66.0238C1428.31 -66.0238 1426.65 -64.3637 1426.65 -62.3159C1426.65 -60.268 1428.31 -58.6079 1430.36 -58.6079ZM1451.46 -62.3159C1451.46 -60.268 1449.8 -58.6079 1447.76 -58.6079C1445.71 -58.6079 1444.05 -60.268 1444.05 -62.3159C1444.05 -64.3637 1445.71 -66.0238 1447.76 -66.0238C1449.8 -66.0238 1451.46 -64.3637 1451.46 -62.3159ZM1465.01 -58.6079C1467.06 -58.6079 1468.72 -60.268 1468.72 -62.3159C1468.72 -64.3637 1467.06 -66.0238 1465.01 -66.0238C1462.96 -66.0238 1461.3 -64.3637 1461.3 -62.3159C1461.3 -60.268 1462.96 -58.6079 1465.01 -58.6079ZM1347.21 -43.9189C1347.21 -41.8711 1345.55 -40.2109 1343.51 -40.2109C1341.46 -40.2109 1339.8 -41.8711 1339.8 -43.9189C1339.8 -45.9667 1341.46 -47.6269 1343.51 -47.6269C1345.55 -47.6269 1347.21 -45.9667 1347.21 -43.9189ZM1360.9 -40.2109C1362.95 -40.2109 1364.61 -41.8711 1364.61 -43.9189C1364.61 -45.9667 1362.95 -47.6269 1360.9 -47.6269C1358.86 -47.6269 1357.2 -45.9667 1357.2 -43.9189C1357.2 -41.8711 1358.86 -40.2109 1360.9 -40.2109ZM1382.01 -43.9189C1382.01 -41.8711 1380.35 -40.2109 1378.3 -40.2109C1376.26 -40.2109 1374.6 -41.8711 1374.6 -43.9189C1374.6 -45.9667 1376.26 -47.6269 1378.3 -47.6269C1380.35 -47.6269 1382.01 -45.9667 1382.01 -43.9189ZM1395.56 -40.2109C1397.61 -40.2109 1399.27 -41.8711 1399.27 -43.9189C1399.27 -45.9667 1397.61 -47.6269 1395.56 -47.6269C1393.51 -47.6269 1391.85 -45.9667 1391.85 -43.9189C1391.85 -41.8711 1393.51 -40.2109 1395.56 -40.2109ZM1416.67 -43.9189C1416.67 -41.8711 1415.01 -40.2109 1412.96 -40.2109C1410.91 -40.2109 1409.25 -41.8711 1409.25 -43.9189C1409.25 -45.9667 1410.91 -47.6269 1412.96 -47.6269C1415.01 -47.6269 1416.67 -45.9667 1416.67 -43.9189ZM1430.36 -40.2109C1432.4 -40.2109 1434.07 -41.8711 1434.07 -43.9189C1434.07 -45.9667 1432.4 -47.6269 1430.36 -47.6269C1428.31 -47.6269 1426.65 -45.9667 1426.65 -43.9189C1426.65 -41.8711 1428.31 -40.2109 1430.36 -40.2109ZM1451.46 -43.9189C1451.46 -41.8711 1449.8 -40.2109 1447.76 -40.2109C1445.71 -40.2109 1444.05 -41.8711 1444.05 -43.9189C1444.05 -45.9667 1445.71 -47.6269 1447.76 -47.6269C1449.8 -47.6269 1451.46 -45.9667 1451.46 -43.9189ZM1465.01 -40.2109C1467.06 -40.2109 1468.72 -41.8711 1468.72 -43.9189C1468.72 -45.9667 1467.06 -47.6269 1465.01 -47.6269C1462.96 -47.6269 1461.3 -45.9667 1461.3 -43.9189C1461.3 -41.8711 1462.96 -40.2109 1465.01 -40.2109ZM1486.12 -43.9189C1486.12 -41.8711 1484.46 -40.2109 1482.41 -40.2109C1480.36 -40.2109 1478.7 -41.8711 1478.7 -43.9189C1478.7 -45.9667 1480.36 -47.6269 1482.41 -47.6269C1484.46 -47.6269 1486.12 -45.9667 1486.12 -43.9189ZM1326.11 -21.6712C1328.15 -21.6712 1329.81 -23.3313 1329.81 -25.3791C1329.81 -27.427 1328.15 -29.0871 1326.11 -29.0871C1324.06 -29.0871 1322.4 -27.427 1322.4 -25.3791C1322.4 -23.3313 1324.06 -21.6712 1326.11 -21.6712ZM1347.21 -25.3791C1347.21 -23.3313 1345.55 -21.6712 1343.51 -21.6712C1341.46 -21.6712 1339.8 -23.3313 1339.8 -25.3791C1339.8 -27.427 1341.46 -29.0871 1343.51 -29.0871C1345.55 -29.0871 1347.21 -27.427 1347.21 -25.3791ZM1360.9 -21.6712C1362.95 -21.6712 1364.61 -23.3313 1364.61 -25.3791C1364.61 -27.427 1362.95 -29.0871 1360.9 -29.0871C1358.86 -29.0871 1357.2 -27.427 1357.2 -25.3791C1357.2 -23.3313 1358.86 -21.6712 1360.9 -21.6712ZM1382.01 -25.3791C1382.01 -23.3313 1380.35 -21.6712 1378.3 -21.6712C1376.26 -21.6712 1374.6 -23.3313 1374.6 -25.3791C1374.6 -27.427 1376.26 -29.0871 1378.3 -29.0871C1380.35 -29.0871 1382.01 -27.427 1382.01 -25.3791ZM1395.56 -21.6712C1397.61 -21.6712 1399.27 -23.3313 1399.27 -25.3791C1399.27 -27.427 1397.61 -29.0871 1395.56 -29.0871C1393.51 -29.0871 1391.85 -27.427 1391.85 -25.3791C1391.85 -23.3313 1393.51 -21.6712 1395.56 -21.6712ZM1416.67 -25.3791C1416.67 -23.3313 1415.01 -21.6712 1412.96 -21.6712C1410.91 -21.6712 1409.25 -23.3313 1409.25 -25.3791C1409.25 -27.427 1410.91 -29.0871 1412.96 -29.0871C1415.01 -29.0871 1416.67 -27.427 1416.67 -25.3791ZM1430.36 -21.6712C1432.4 -21.6712 1434.07 -23.3313 1434.07 -25.3791C1434.07 -27.427 1432.4 -29.0871 1430.36 -29.0871C1428.31 -29.0871 1426.65 -27.427 1426.65 -25.3791C1426.65 -23.3313 1428.31 -21.6712 1430.36 -21.6712ZM1451.46 -25.3791C1451.46 -23.3313 1449.8 -21.6712 1447.76 -21.6712C1445.71 -21.6712 1444.05 -23.3313 1444.05 -25.3791C1444.05 -27.427 1445.71 -29.0871 1447.76 -29.0871C1449.8 -29.0871 1451.46 -27.427 1451.46 -25.3791ZM1465.01 -21.6712C1467.06 -21.6712 1468.72 -23.3313 1468.72 -25.3791C1468.72 -27.427 1467.06 -29.0871 1465.01 -29.0871C1462.96 -29.0871 1461.3 -27.427 1461.3 -25.3791C1461.3 -23.3313 1462.96 -21.6712 1465.01 -21.6712ZM1486.12 -25.3791C1486.12 -23.3313 1484.46 -21.6712 1482.41 -21.6712C1480.36 -21.6712 1478.7 -23.3313 1478.7 -25.3791C1478.7 -27.427 1480.36 -29.0871 1482.41 -29.0871C1484.46 -29.0871 1486.12 -27.427 1486.12 -25.3791ZM1499.81 -21.6712C1501.86 -21.6712 1503.52 -23.3313 1503.52 -25.3791C1503.52 -27.427 1501.86 -29.0871 1499.81 -29.0871C1497.76 -29.0871 1496.1 -27.427 1496.1 -25.3791C1496.1 -23.3313 1497.76 -21.6712 1499.81 -21.6712ZM1310.28 -10.2623C1311.56 -9.69183 1312.42 -8.40831 1312.42 -6.83957C1312.42 -4.70037 1310.85 -3.13161 1308.85 -3.13161C1308.42 -3.13161 1308.14 -3.13162 1307.85 -3.27424C1308.57 -5.69837 1309.42 -7.97991 1310.28 -10.2615L1310.28 -10.2623ZM1326.11 -3.13141C1328.15 -3.13141 1329.81 -4.79152 1329.81 -6.83936C1329.81 -8.8872 1328.15 -10.5473 1326.11 -10.5473C1324.06 -10.5473 1322.4 -8.8872 1322.4 -6.83936C1322.4 -4.79152 1324.06 -3.13141 1326.11 -3.13141ZM1347.21 -6.83936C1347.21 -4.79152 1345.55 -3.13141 1343.51 -3.13141C1341.46 -3.13141 1339.8 -4.79152 1339.8 -6.83936C1339.8 -8.8872 1341.46 -10.5473 1343.51 -10.5473C1345.55 -10.5473 1347.21 -8.8872 1347.21 -6.83936ZM1360.9 -3.13141C1362.95 -3.13141 1364.61 -4.79152 1364.61 -6.83936C1364.61 -8.8872 1362.95 -10.5473 1360.9 -10.5473C1358.86 -10.5473 1357.2 -8.8872 1357.2 -6.83936C1357.2 -4.79152 1358.86 -3.13141 1360.9 -3.13141ZM1382.01 -6.83936C1382.01 -4.79152 1380.35 -3.13141 1378.3 -3.13141C1376.26 -3.13141 1374.6 -4.79152 1374.6 -6.83936C1374.6 -8.8872 1376.26 -10.5473 1378.3 -10.5473C1380.35 -10.5473 1382.01 -8.8872 1382.01 -6.83936ZM1395.56 -3.13141C1397.61 -3.13141 1399.27 -4.79152 1399.27 -6.83936C1399.27 -8.8872 1397.61 -10.5473 1395.56 -10.5473C1393.51 -10.5473 1391.85 -8.8872 1391.85 -6.83936C1391.85 -4.79152 1393.51 -3.13141 1395.56 -3.13141ZM1416.67 -6.83936C1416.67 -4.79152 1415.01 -3.13141 1412.96 -3.13141C1410.91 -3.13141 1409.25 -4.79152 1409.25 -6.83936C1409.25 -8.8872 1410.91 -10.5473 1412.96 -10.5473C1415.01 -10.5473 1416.67 -8.8872 1416.67 -6.83936ZM1430.36 -3.13141C1432.4 -3.13141 1434.07 -4.79152 1434.07 -6.83936C1434.07 -8.8872 1432.4 -10.5473 1430.36 -10.5473C1428.31 -10.5473 1426.65 -8.8872 1426.65 -6.83936C1426.65 -4.79152 1428.31 -3.13141 1430.36 -3.13141ZM1451.46 -6.83936C1451.46 -4.79152 1449.8 -3.13141 1447.76 -3.13141C1445.71 -3.13141 1444.05 -4.79152 1444.05 -6.83936C1444.05 -8.8872 1445.71 -10.5473 1447.76 -10.5473C1449.8 -10.5473 1451.46 -8.8872 1451.46 -6.83936ZM1465.01 -3.13141C1467.06 -3.13141 1468.72 -4.79152 1468.72 -6.83936C1468.72 -8.8872 1467.06 -10.5473 1465.01 -10.5473C1462.96 -10.5473 1461.3 -8.8872 1461.3 -6.83936C1461.3 -4.79152 1462.96 -3.13141 1465.01 -3.13141ZM1486.12 -6.83936C1486.12 -4.79152 1484.46 -3.13141 1482.41 -3.13141C1480.36 -3.13141 1478.7 -4.79152 1478.7 -6.83936C1478.7 -8.8872 1480.36 -10.5473 1482.41 -10.5473C1484.46 -10.5473 1486.12 -8.8872 1486.12 -6.83936ZM1499.81 -3.13141C1501.86 -3.13141 1503.52 -4.79152 1503.52 -6.83936C1503.52 -8.8872 1501.86 -10.5473 1499.81 -10.5473C1497.76 -10.5473 1496.1 -8.8872 1496.1 -6.83936C1496.1 -4.79152 1497.76 -3.13141 1499.81 -3.13141ZM1517.21 -3.13161C1515.21 -3.13161 1513.5 -4.84299 1513.5 -6.83957C1513.5 -8.2657 1514.36 -9.54921 1515.78 -10.2623C1516.64 -7.98046 1517.49 -5.55605 1518.21 -3.27424C1517.92 -3.13162 1517.49 -3.13161 1517.21 -3.13161ZM1308.71 15.4084C1310.76 15.4084 1312.42 13.7483 1312.42 11.7004C1312.42 9.65257 1310.76 7.99246 1308.71 7.99246C1306.66 7.99246 1305 9.65257 1305 11.7004C1305 13.7483 1306.66 15.4084 1308.71 15.4084ZM1329.81 11.7004C1329.81 13.7483 1328.15 15.4084 1326.11 15.4084C1324.06 15.4084 1322.4 13.7483 1322.4 11.7004C1322.4 9.65257 1324.06 7.99246 1326.11 7.99246C1328.15 7.99246 1329.81 9.65257 1329.81 11.7004ZM1343.51 15.4084C1345.55 15.4084 1347.21 13.7483 1347.21 11.7004C1347.21 9.65257 1345.55 7.99246 1343.51 7.99246C1341.46 7.99246 1339.8 9.65257 1339.8 11.7004C1339.8 13.7483 1341.46 15.4084 1343.51 15.4084ZM1364.61 11.7004C1364.61 13.7483 1362.95 15.4084 1360.9 15.4084C1358.86 15.4084 1357.2 13.7483 1357.2 11.7004C1357.2 9.65257 1358.86 7.99246 1360.9 7.99246C1362.95 7.99246 1364.61 9.65257 1364.61 11.7004ZM1378.3 15.4084C1380.35 15.4084 1382.01 13.7483 1382.01 11.7004C1382.01 9.65257 1380.35 7.99246 1378.3 7.99246C1376.26 7.99246 1374.6 9.65257 1374.6 11.7004C1374.6 13.7483 1376.26 15.4084 1378.3 15.4084ZM1399.27 11.7004C1399.27 13.7483 1397.61 15.4084 1395.56 15.4084C1393.51 15.4084 1391.85 13.7483 1391.85 11.7004C1391.85 9.65257 1393.51 7.99246 1395.56 7.99246C1397.61 7.99246 1399.27 9.65257 1399.27 11.7004ZM1412.96 15.4084C1415.01 15.4084 1416.67 13.7483 1416.67 11.7004C1416.67 9.65257 1415.01 7.99246 1412.96 7.99246C1410.91 7.99246 1409.25 9.65257 1409.25 11.7004C1409.25 13.7483 1410.91 15.4084 1412.96 15.4084ZM1434.07 11.7004C1434.07 13.7483 1432.4 15.4084 1430.36 15.4084C1428.31 15.4084 1426.65 13.7483 1426.65 11.7004C1426.65 9.65257 1428.31 7.99246 1430.36 7.99246C1432.4 7.99246 1434.07 9.65257 1434.07 11.7004ZM1447.76 15.4084C1449.8 15.4084 1451.46 13.7483 1451.46 11.7004C1451.46 9.65257 1449.8 7.99246 1447.76 7.99246C1445.71 7.99246 1444.05 9.65257 1444.05 11.7004C1444.05 13.7483 1445.71 15.4084 1447.76 15.4084ZM1468.72 11.7004C1468.72 13.7483 1467.06 15.4084 1465.01 15.4084C1462.96 15.4084 1461.3 13.7483 1461.3 11.7004C1461.3 9.65257 1462.96 7.99246 1465.01 7.99246C1467.06 7.99246 1468.72 9.65257 1468.72 11.7004ZM1482.41 15.4084C1484.46 15.4084 1486.12 13.7483 1486.12 11.7004C1486.12 9.65257 1484.46 7.99246 1482.41 7.99246C1480.36 7.99246 1478.7 9.65257 1478.7 11.7004C1478.7 13.7483 1480.36 15.4084 1482.41 15.4084ZM1503.52 11.7004C1503.52 13.7483 1501.86 15.4084 1499.81 15.4084C1497.76 15.4084 1496.1 13.7483 1496.1 11.7004C1496.1 9.65257 1497.76 7.99246 1499.81 7.99246C1501.86 7.99246 1503.52 9.65257 1503.52 11.7004ZM1517.21 15.4084C1519.26 15.4084 1520.92 13.7483 1520.92 11.7004C1520.92 9.65257 1519.26 7.99246 1517.21 7.99246C1515.16 7.99246 1513.5 9.65257 1513.5 11.7004C1513.5 13.7483 1515.16 15.4084 1517.21 15.4084ZM1312.42 30.24C1312.42 32.2878 1310.76 33.9479 1308.71 33.9479C1306.66 33.9479 1305 32.2878 1305 30.24C1305 28.1922 1306.66 26.532 1308.71 26.532C1310.76 26.532 1312.42 28.1922 1312.42 30.24ZM1326.11 33.9479C1328.15 33.9479 1329.81 32.2878 1329.81 30.24C1329.81 28.1922 1328.15 26.532 1326.11 26.532C1324.06 26.532 1322.4 28.1922 1322.4 30.24C1322.4 32.2878 1324.06 33.9479 1326.11 33.9479ZM1347.21 30.24C1347.21 32.2878 1345.55 33.9479 1343.51 33.9479C1341.46 33.9479 1339.8 32.2878 1339.8 30.24C1339.8 28.1922 1341.46 26.532 1343.51 26.532C1345.55 26.532 1347.21 28.1922 1347.21 30.24ZM1360.9 33.9479C1362.95 33.9479 1364.61 32.2878 1364.61 30.24C1364.61 28.1922 1362.95 26.532 1360.9 26.532C1358.86 26.532 1357.2 28.1922 1357.2 30.24C1357.2 32.2878 1358.86 33.9479 1360.9 33.9479ZM1382.01 30.24C1382.01 32.2878 1380.35 33.9479 1378.3 33.9479C1376.26 33.9479 1374.6 32.2878 1374.6 30.24C1374.6 28.1922 1376.26 26.532 1378.3 26.532C1380.35 26.532 1382.01 28.1922 1382.01 30.24ZM1395.56 33.9479C1397.61 33.9479 1399.27 32.2878 1399.27 30.24C1399.27 28.1922 1397.61 26.532 1395.56 26.532C1393.51 26.532 1391.85 28.1922 1391.85 30.24C1391.85 32.2878 1393.51 33.9479 1395.56 33.9479ZM1416.67 30.24C1416.67 32.2878 1415.01 33.9479 1412.96 33.9479C1410.91 33.9479 1409.25 32.2878 1409.25 30.24C1409.25 28.1922 1410.91 26.532 1412.96 26.532C1415.01 26.532 1416.67 28.1922 1416.67 30.24ZM1430.36 33.9479C1432.4 33.9479 1434.07 32.2878 1434.07 30.24C1434.07 28.1922 1432.4 26.532 1430.36 26.532C1428.31 26.532 1426.65 28.1922 1426.65 30.24C1426.65 32.2878 1428.31 33.9479 1430.36 33.9479ZM1451.46 30.24C1451.46 32.2878 1449.8 33.9479 1447.76 33.9479C1445.71 33.9479 1444.05 32.2878 1444.05 30.24C1444.05 28.1922 1445.71 26.532 1447.76 26.532C1449.8 26.532 1451.46 28.1922 1451.46 30.24ZM1465.01 33.9479C1467.06 33.9479 1468.72 32.2878 1468.72 30.24C1468.72 28.1922 1467.06 26.532 1465.01 26.532C1462.96 26.532 1461.3 28.1922 1461.3 30.24C1461.3 32.2878 1462.96 33.9479 1465.01 33.9479ZM1486.12 30.24C1486.12 32.2878 1484.46 33.9479 1482.41 33.9479C1480.36 33.9479 1478.7 32.2878 1478.7 30.24C1478.7 28.1922 1480.36 26.532 1482.41 26.532C1484.46 26.532 1486.12 28.1922 1486.12 30.24ZM1499.81 33.9479C1501.86 33.9479 1503.52 32.2878 1503.52 30.24C1503.52 28.1922 1501.86 26.532 1499.81 26.532C1497.76 26.532 1496.1 28.1922 1496.1 30.24C1496.1 32.2878 1497.76 33.9479 1499.81 33.9479ZM1520.92 30.24C1520.92 32.2878 1519.26 33.9479 1517.21 33.9479C1515.16 33.9479 1513.5 32.2878 1513.5 30.24C1513.5 28.1922 1515.16 26.532 1517.21 26.532C1519.26 26.532 1520.92 28.1922 1520.92 30.24ZM1308.71 52.4877C1310.76 52.4877 1312.42 50.8276 1312.42 48.7798C1312.42 46.7319 1310.76 45.0718 1308.71 45.0718C1306.66 45.0718 1305 46.7319 1305 48.7798C1305 50.8276 1306.66 52.4877 1308.71 52.4877ZM1329.81 48.7798C1329.81 50.8276 1328.15 52.4877 1326.11 52.4877C1324.06 52.4877 1322.4 50.8276 1322.4 48.7798C1322.4 46.7319 1324.06 45.0718 1326.11 45.0718C1328.15 45.0718 1329.81 46.7319 1329.81 48.7798ZM1343.51 52.4877C1345.55 52.4877 1347.21 50.8276 1347.21 48.7798C1347.21 46.7319 1345.55 45.0718 1343.51 45.0718C1341.46 45.0718 1339.8 46.7319 1339.8 48.7798C1339.8 50.8276 1341.46 52.4877 1343.51 52.4877ZM1364.61 48.7798C1364.61 50.8276 1362.95 52.4877 1360.9 52.4877C1358.86 52.4877 1357.2 50.8276 1357.2 48.7798C1357.2 46.7319 1358.86 45.0718 1360.9 45.0718C1362.95 45.0718 1364.61 46.7319 1364.61 48.7798ZM1378.3 52.4877C1380.35 52.4877 1382.01 50.8276 1382.01 48.7798C1382.01 46.7319 1380.35 45.0718 1378.3 45.0718C1376.26 45.0718 1374.6 46.7319 1374.6 48.7798C1374.6 50.8276 1376.26 52.4877 1378.3 52.4877ZM1399.27 48.7798C1399.27 50.8276 1397.61 52.4877 1395.56 52.4877C1393.51 52.4877 1391.85 50.8276 1391.85 48.7798C1391.85 46.7319 1393.51 45.0718 1395.56 45.0718C1397.61 45.0718 1399.27 46.7319 1399.27 48.7798ZM1412.96 52.4877C1415.01 52.4877 1416.67 50.8276 1416.67 48.7798C1416.67 46.7319 1415.01 45.0718 1412.96 45.0718C1410.91 45.0718 1409.25 46.7319 1409.25 48.7798C1409.25 50.8276 1410.91 52.4877 1412.96 52.4877ZM1434.07 48.7798C1434.07 50.8276 1432.4 52.4877 1430.36 52.4877C1428.31 52.4877 1426.65 50.8276 1426.65 48.7798C1426.65 46.7319 1428.31 45.0718 1430.36 45.0718C1432.4 45.0718 1434.07 46.7319 1434.07 48.7798ZM1447.76 52.4877C1449.8 52.4877 1451.46 50.8276 1451.46 48.7798C1451.46 46.7319 1449.8 45.0718 1447.76 45.0718C1445.71 45.0718 1444.05 46.7319 1444.05 48.7798C1444.05 50.8276 1445.71 52.4877 1447.76 52.4877ZM1468.72 48.7798C1468.72 50.8276 1467.06 52.4877 1465.01 52.4877C1462.96 52.4877 1461.3 50.8276 1461.3 48.7798C1461.3 46.7319 1462.96 45.0718 1465.01 45.0718C1467.06 45.0718 1468.72 46.7319 1468.72 48.7798ZM1482.41 52.4877C1484.46 52.4877 1486.12 50.8276 1486.12 48.7798C1486.12 46.7319 1484.46 45.0718 1482.41 45.0718C1480.36 45.0718 1478.7 46.7319 1478.7 48.7798C1478.7 50.8276 1480.36 52.4877 1482.41 52.4877ZM1503.52 48.7798C1503.52 50.8276 1501.86 52.4877 1499.81 52.4877C1497.76 52.4877 1496.1 50.8276 1496.1 48.7798C1496.1 46.7319 1497.76 45.0718 1499.81 45.0718C1501.86 45.0718 1503.52 46.7319 1503.52 48.7798ZM1517.21 52.4877C1519.26 52.4877 1520.92 50.8276 1520.92 48.7798C1520.92 46.7319 1519.26 45.0718 1517.21 45.0718C1515.16 45.0718 1513.5 46.7319 1513.5 48.7798C1513.5 50.8276 1515.16 52.4877 1517.21 52.4877ZM1308.71 63.6112C1310.7 63.6112 1312.42 65.3226 1312.42 67.3192C1312.42 68.8879 1311.56 70.1714 1310.13 70.7419C1309.28 68.4601 1308.42 66.0356 1307.71 63.7538C1307.99 63.6112 1308.42 63.6112 1308.71 63.6112ZM1326.11 71.0271C1328.15 71.0271 1329.81 69.367 1329.81 67.3192C1329.81 65.2713 1328.15 63.6112 1326.11 63.6112C1324.06 63.6112 1322.4 65.2713 1322.4 67.3192C1322.4 69.367 1324.06 71.0271 1326.11 71.0271ZM1347.21 67.3192C1347.21 69.367 1345.55 71.0271 1343.51 71.0271C1341.46 71.0271 1339.8 69.367 1339.8 67.3192C1339.8 65.2713 1341.46 63.6112 1343.51 63.6112C1345.55 63.6112 1347.21 65.2713 1347.21 67.3192ZM1360.9 71.0271C1362.95 71.0271 1364.61 69.367 1364.61 67.3192C1364.61 65.2713 1362.95 63.6112 1360.9 63.6112C1358.86 63.6112 1357.2 65.2713 1357.2 67.3192C1357.2 69.367 1358.86 71.0271 1360.9 71.0271ZM1382.01 67.3192C1382.01 69.367 1380.35 71.0271 1378.3 71.0271C1376.26 71.0271 1374.6 69.367 1374.6 67.3192C1374.6 65.2713 1376.26 63.6112 1378.3 63.6112C1380.35 63.6112 1382.01 65.2713 1382.01 67.3192ZM1395.56 71.0271C1397.61 71.0271 1399.27 69.367 1399.27 67.3192C1399.27 65.2713 1397.61 63.6112 1395.56 63.6112C1393.51 63.6112 1391.85 65.2713 1391.85 67.3192C1391.85 69.367 1393.51 71.0271 1395.56 71.0271ZM1416.67 67.3192C1416.67 69.367 1415.01 71.0271 1412.96 71.0271C1410.91 71.0271 1409.25 69.367 1409.25 67.3192C1409.25 65.2713 1410.91 63.6112 1412.96 63.6112C1415.01 63.6112 1416.67 65.2713 1416.67 67.3192ZM1430.36 71.0271C1432.4 71.0271 1434.07 69.367 1434.07 67.3192C1434.07 65.2713 1432.4 63.6112 1430.36 63.6112C1428.31 63.6112 1426.65 65.2713 1426.65 67.3192C1426.65 69.367 1428.31 71.0271 1430.36 71.0271ZM1451.46 67.3192C1451.46 69.367 1449.8 71.0271 1447.76 71.0271C1445.71 71.0271 1444.05 69.367 1444.05 67.3192C1444.05 65.2713 1445.71 63.6112 1447.76 63.6112C1449.8 63.6112 1451.46 65.2713 1451.46 67.3192ZM1465.01 71.0271C1467.06 71.0271 1468.72 69.367 1468.72 67.3192C1468.72 65.2713 1467.06 63.6112 1465.01 63.6112C1462.96 63.6112 1461.3 65.2713 1461.3 67.3192C1461.3 69.367 1462.96 71.0271 1465.01 71.0271ZM1486.12 67.3192C1486.12 69.367 1484.46 71.0271 1482.41 71.0271C1480.36 71.0271 1478.7 69.367 1478.7 67.3192C1478.7 65.2713 1480.36 63.6112 1482.41 63.6112C1484.46 63.6112 1486.12 65.2713 1486.12 67.3192ZM1499.81 71.0271C1501.86 71.0271 1503.52 69.367 1503.52 67.3192C1503.52 65.2713 1501.86 63.6112 1499.81 63.6112C1497.76 63.6112 1496.1 65.2713 1496.1 67.3192C1496.1 69.367 1497.76 71.0271 1499.81 71.0271ZM1515.64 70.7419C1514.36 70.1714 1513.5 68.8879 1513.5 67.3192C1513.5 65.3226 1515.07 63.6112 1517.07 63.6112C1517.49 63.6112 1517.78 63.6112 1518.06 63.7538C1517.35 66.178 1516.5 68.4596 1515.64 70.7411L1515.64 70.7419ZM1326.11 89.5671C1328.15 89.5671 1329.81 87.907 1329.81 85.8591C1329.81 83.8113 1328.15 82.1512 1326.11 82.1512C1324.06 82.1512 1322.4 83.8113 1322.4 85.8591C1322.4 87.907 1324.06 89.5671 1326.11 89.5671ZM1347.21 85.8591C1347.21 87.907 1345.55 89.5671 1343.51 89.5671C1341.46 89.5671 1339.8 87.907 1339.8 85.8591C1339.8 83.8113 1341.46 82.1512 1343.51 82.1512C1345.55 82.1512 1347.21 83.8113 1347.21 85.8591ZM1360.9 89.5671C1362.95 89.5671 1364.61 87.907 1364.61 85.8591C1364.61 83.8113 1362.95 82.1512 1360.9 82.1512C1358.86 82.1512 1357.2 83.8113 1357.2 85.8591C1357.2 87.907 1358.86 89.5671 1360.9 89.5671ZM1382.01 85.8591C1382.01 87.907 1380.35 89.5671 1378.3 89.5671C1376.26 89.5671 1374.6 87.907 1374.6 85.8591C1374.6 83.8113 1376.26 82.1512 1378.3 82.1512C1380.35 82.1512 1382.01 83.8113 1382.01 85.8591ZM1395.56 89.5671C1397.61 89.5671 1399.27 87.907 1399.27 85.8591C1399.27 83.8113 1397.61 82.1512 1395.56 82.1512C1393.51 82.1512 1391.85 83.8113 1391.85 85.8591C1391.85 87.907 1393.51 89.5671 1395.56 89.5671ZM1416.67 85.8591C1416.67 87.907 1415.01 89.5671 1412.96 89.5671C1410.91 89.5671 1409.25 87.907 1409.25 85.8591C1409.25 83.8113 1410.91 82.1512 1412.96 82.1512C1415.01 82.1512 1416.67 83.8113 1416.67 85.8591ZM1430.36 89.5671C1432.4 89.5671 1434.07 87.907 1434.07 85.8591C1434.07 83.8113 1432.4 82.1512 1430.36 82.1512C1428.31 82.1512 1426.65 83.8113 1426.65 85.8591C1426.65 87.907 1428.31 89.5671 1430.36 89.5671ZM1451.46 85.8591C1451.46 87.907 1449.8 89.5671 1447.76 89.5671C1445.71 89.5671 1444.05 87.907 1444.05 85.8591C1444.05 83.8113 1445.71 82.1512 1447.76 82.1512C1449.8 82.1512 1451.46 83.8113 1451.46 85.8591ZM1465.01 89.5671C1467.06 89.5671 1468.72 87.907 1468.72 85.8591C1468.72 83.8113 1467.06 82.1512 1465.01 82.1512C1462.96 82.1512 1461.3 83.8113 1461.3 85.8591C1461.3 87.907 1462.96 89.5671 1465.01 89.5671ZM1486.12 85.8591C1486.12 87.907 1484.46 89.5671 1482.41 89.5671C1480.36 89.5671 1478.7 87.907 1478.7 85.8591C1478.7 83.8113 1480.36 82.1512 1482.41 82.1512C1484.46 82.1512 1486.12 83.8113 1486.12 85.8591ZM1499.81 89.5671C1501.86 89.5671 1503.52 87.907 1503.52 85.8591C1503.52 83.8113 1501.86 82.1512 1499.81 82.1512C1497.76 82.1512 1496.1 83.8113 1496.1 85.8591C1496.1 87.907 1497.76 89.5671 1499.81 89.5671ZM1347.21 104.399C1347.21 106.447 1345.55 108.107 1343.51 108.107C1341.46 108.107 1339.8 106.447 1339.8 104.399C1339.8 102.351 1341.46 100.691 1343.51 100.691C1345.55 100.691 1347.21 102.351 1347.21 104.399ZM1360.9 108.107C1362.95 108.107 1364.61 106.447 1364.61 104.399C1364.61 102.351 1362.95 100.691 1360.9 100.691C1358.86 100.691 1357.2 102.351 1357.2 104.399C1357.2 106.447 1358.86 108.107 1360.9 108.107ZM1382.01 104.399C1382.01 106.447 1380.35 108.107 1378.3 108.107C1376.26 108.107 1374.6 106.447 1374.6 104.399C1374.6 102.351 1376.26 100.691 1378.3 100.691C1380.35 100.691 1382.01 102.351 1382.01 104.399ZM1395.56 108.107C1397.61 108.107 1399.27 106.447 1399.27 104.399C1399.27 102.351 1397.61 100.691 1395.56 100.691C1393.51 100.691 1391.85 102.351 1391.85 104.399C1391.85 106.447 1393.51 108.107 1395.56 108.107ZM1416.67 104.399C1416.67 106.447 1415.01 108.107 1412.96 108.107C1410.91 108.107 1409.25 106.447 1409.25 104.399C1409.25 102.351 1410.91 100.691 1412.96 100.691C1415.01 100.691 1416.67 102.351 1416.67 104.399ZM1430.36 108.107C1432.4 108.107 1434.07 106.447 1434.07 104.399C1434.07 102.351 1432.4 100.691 1430.36 100.691C1428.31 100.691 1426.65 102.351 1426.65 104.399C1426.65 106.447 1428.31 108.107 1430.36 108.107ZM1451.46 104.399C1451.46 106.447 1449.8 108.107 1447.76 108.107C1445.71 108.107 1444.05 106.447 1444.05 104.399C1444.05 102.351 1445.71 100.691 1447.76 100.691C1449.8 100.691 1451.46 102.351 1451.46 104.399ZM1465.01 108.107C1467.06 108.107 1468.72 106.447 1468.72 104.399C1468.72 102.351 1467.06 100.691 1465.01 100.691C1462.96 100.691 1461.3 102.351 1461.3 104.399C1461.3 106.447 1462.96 108.107 1465.01 108.107ZM1486.12 104.399C1486.12 106.447 1484.46 108.107 1482.41 108.107C1480.36 108.107 1478.7 106.447 1478.7 104.399C1478.7 102.351 1480.36 100.691 1482.41 100.691C1484.46 100.691 1486.12 102.351 1486.12 104.399ZM1360.9 126.647C1362.95 126.647 1364.61 124.987 1364.61 122.939C1364.61 120.891 1362.95 119.231 1360.9 119.231C1358.86 119.231 1357.2 120.891 1357.2 122.939C1357.2 124.987 1358.86 126.647 1360.9 126.647ZM1382.01 122.939C1382.01 124.987 1380.35 126.647 1378.3 126.647C1376.26 126.647 1374.6 124.987 1374.6 122.939C1374.6 120.891 1376.26 119.231 1378.3 119.231C1380.35 119.231 1382.01 120.891 1382.01 122.939ZM1395.56 126.647C1397.61 126.647 1399.27 124.987 1399.27 122.939C1399.27 120.891 1397.61 119.231 1395.56 119.231C1393.51 119.231 1391.85 120.891 1391.85 122.939C1391.85 124.987 1393.51 126.647 1395.56 126.647ZM1416.67 122.939C1416.67 124.987 1415.01 126.647 1412.96 126.647C1410.91 126.647 1409.25 124.987 1409.25 122.939C1409.25 120.891 1410.91 119.231 1412.96 119.231C1415.01 119.231 1416.67 120.891 1416.67 122.939ZM1430.36 126.647C1432.4 126.647 1434.07 124.987 1434.07 122.939C1434.07 120.891 1432.4 119.231 1430.36 119.231C1428.31 119.231 1426.65 120.891 1426.65 122.939C1426.65 124.987 1428.31 126.647 1430.36 126.647ZM1451.46 122.939C1451.46 124.987 1449.8 126.647 1447.76 126.647C1445.71 126.647 1444.05 124.987 1444.05 122.939C1444.05 120.891 1445.71 119.231 1447.76 119.231C1449.8 119.231 1451.46 120.891 1451.46 122.939ZM1465.01 126.647C1467.06 126.647 1468.72 124.987 1468.72 122.939C1468.72 120.891 1467.06 119.231 1465.01 119.231C1462.96 119.231 1461.3 120.891 1461.3 122.939C1461.3 124.987 1462.96 126.647 1465.01 126.647ZM1392.99 138.768C1393.71 138.198 1394.56 137.77 1395.56 137.77C1396.99 137.77 1398.27 138.626 1398.84 139.624C1397.43 139.523 1396.02 139.28 1394.65 139.045L1394.65 139.045C1394.09 138.948 1393.53 138.852 1392.99 138.768ZM1412.96 137.77C1411.25 137.77 1409.82 138.911 1409.39 140.622H1412.96H1416.52C1416.1 138.911 1414.67 137.77 1412.96 137.77ZM1430 139.339C1429.04 139.482 1428.08 139.625 1427.08 139.767C1427.79 138.626 1428.93 137.771 1430.36 137.913C1431.36 137.913 1432.21 138.198 1432.92 138.911C1431.93 139.054 1430.96 139.197 1430 139.339Z" fill="url(#paint2_radial_2445_477)"/>
<circle cx="52.5" cy="594.5" r="101.75" fill="url(#paint3_linear_2445_477)" fill-opacity="0.09" stroke="url(#paint4_linear_2445_477)" stroke-width="1.5"/>
<circle cx="48.9855" cy="594.499" r="73.05" fill="url(#paint5_linear_2445_477)" fill-opacity="0.09" stroke="url(#paint6_linear_2445_477)" stroke-width="1.5"/>
<circle cx="42.5432" cy="594.499" r="47.2786" fill="url(#paint7_linear_2445_477)" fill-opacity="0.09" stroke="url(#paint8_linear_2445_477)" stroke-width="1.5"/>
<circle cx="102.5" cy="102.5" r="101.75" transform="matrix(-1 0 0 1 1501 491)" fill="url(#paint9_linear_2445_477)" fill-opacity="0.09" stroke="url(#paint10_linear_2445_477)" stroke-width="1.5"/>
<circle cx="73.8" cy="73.8" r="73.05" transform="matrix(-1 0 0 1 1475.81 519.699)" fill="url(#paint11_linear_2445_477)" fill-opacity="0.09" stroke="url(#paint12_linear_2445_477)" stroke-width="1.5"/>
<circle cx="48.0286" cy="48.0286" r="47.2786" transform="matrix(-1 0 0 1 1456.49 545.471)" fill="url(#paint13_linear_2445_477)" fill-opacity="0.09" stroke="url(#paint14_linear_2445_477)" stroke-width="1.5"/>
</g>
<defs>
<linearGradient id="paint0_linear_2445_477" x1="704.5" y1="611" x2="680.365" y2="0.954883" gradientUnits="userSpaceOnUse">
<stop stop-color="#14B8A6"/>
<stop offset="1" stop-color="#00987F"/>
</linearGradient>
<radialGradient id="paint1_radial_2445_477" cx="0" cy="0" r="1" gradientUnits="userSpaceOnUse" gradientTransform="translate(42.9581 30.3112) rotate(90) scale(110.311 107.958)">
<stop stop-color="white" stop-opacity="0.37"/>
<stop offset="0.415543" stop-color="white" stop-opacity="0.37"/>
<stop offset="1" stop-color="white" stop-opacity="0"/>
</radialGradient>
<radialGradient id="paint2_radial_2445_477" cx="0" cy="0" r="1" gradientUnits="userSpaceOnUse" gradientTransform="translate(1412.96 30.3112) rotate(90) scale(110.311 107.958)">
<stop stop-color="white" stop-opacity="0.37"/>
<stop offset="0.415543" stop-color="white" stop-opacity="0.37"/>
<stop offset="1" stop-color="white" stop-opacity="0"/>
</radialGradient>
<linearGradient id="paint3_linear_2445_477" x1="106.597" y1="517.625" x2="-0.783715" y2="642.089" gradientUnits="userSpaceOnUse">
<stop stop-color="white" stop-opacity="0.4"/>
<stop offset="1" stop-color="white" stop-opacity="0"/>
</linearGradient>
<linearGradient id="paint4_linear_2445_477" x1="100.625" y1="503.875" x2="63.125" y2="563.25" gradientUnits="userSpaceOnUse">
<stop stop-color="white" stop-opacity="0.4"/>
<stop offset="1" stop-color="white" stop-opacity="0"/>
</linearGradient>
<linearGradient id="paint5_linear_2445_477" x1="87.9356" y1="539.149" x2="10.6213" y2="628.764" gradientUnits="userSpaceOnUse">
<stop stop-color="white" stop-opacity="0.4"/>
<stop offset="1" stop-color="white" stop-opacity="0"/>
</linearGradient>
<linearGradient id="paint6_linear_2445_477" x1="83.6356" y1="529.249" x2="56.6356" y2="571.999" gradientUnits="userSpaceOnUse">
<stop stop-color="white" stop-opacity="0.4"/>
<stop offset="1" stop-color="white" stop-opacity="0"/>
</linearGradient>
<linearGradient id="paint7_linear_2445_477" x1="67.8916" y1="558.478" x2="17.576" y2="616.798" gradientUnits="userSpaceOnUse">
<stop stop-color="white" stop-opacity="0.4"/>
<stop offset="1" stop-color="white" stop-opacity="0"/>
</linearGradient>
<linearGradient id="paint8_linear_2445_477" x1="65.0932" y1="552.035" x2="47.5218" y2="579.856" gradientUnits="userSpaceOnUse">
<stop stop-color="white" stop-opacity="0.4"/>
<stop offset="1" stop-color="white" stop-opacity="0"/>
</linearGradient>
<linearGradient id="paint9_linear_2445_477" x1="156.597" y1="25.625" x2="49.2163" y2="150.089" gradientUnits="userSpaceOnUse">
<stop stop-color="white" stop-opacity="0.4"/>
<stop offset="1" stop-color="white" stop-opacity="0"/>
</linearGradient>
<linearGradient id="paint10_linear_2445_477" x1="150.625" y1="11.875" x2="113.125" y2="71.25" gradientUnits="userSpaceOnUse">
<stop stop-color="white" stop-opacity="0.4"/>
<stop offset="1" stop-color="white" stop-opacity="0"/>
</linearGradient>
<linearGradient id="paint11_linear_2445_477" x1="112.75" y1="18.45" x2="35.4357" y2="108.064" gradientUnits="userSpaceOnUse">
<stop stop-color="white" stop-opacity="0.4"/>
<stop offset="1" stop-color="white" stop-opacity="0"/>
</linearGradient>
<linearGradient id="paint12_linear_2445_477" x1="108.45" y1="8.55" x2="81.45" y2="51.3" gradientUnits="userSpaceOnUse">
<stop stop-color="white" stop-opacity="0.4"/>
<stop offset="1" stop-color="white" stop-opacity="0"/>
</linearGradient>
<linearGradient id="paint13_linear_2445_477" x1="73.377" y1="12.0071" x2="23.0613" y2="70.3276" gradientUnits="userSpaceOnUse">
<stop stop-color="white" stop-opacity="0.4"/>
<stop offset="1" stop-color="white" stop-opacity="0"/>
</linearGradient>
<linearGradient id="paint14_linear_2445_477" x1="70.5786" y1="5.56429" x2="53.0071" y2="33.3857" gradientUnits="userSpaceOnUse">
<stop stop-color="white" stop-opacity="0.4"/>
<stop offset="1" stop-color="white" stop-opacity="0"/>
</linearGradient>
<clipPath id="clip0_2445_477">
<rect width="1440" height="611" fill="white"/>
</clipPath>
</defs>
</svg>
