<svg width="24" height="24" viewBox="0 0 24 24" fill="none" xmlns="http://www.w3.org/2000/svg">
<path fill-rule="evenodd" clip-rule="evenodd" d="M12 23C18.0751 23 23 18.0751 23 12C23 5.92487 18.0751 1 12 1C5.92487 1 1 5.92487 1 12C1 18.0751 5.92487 23 12 23ZM17.6588 8.97319C18.0124 8.54892 17.9551 7.91835 17.5308 7.56479C17.1065 7.21122 16.476 7.26855 16.1224 7.69282L10.7123 14.1849L7.81995 11.2926C7.42943 10.902 6.79627 10.902 6.40574 11.2926C6.01522 11.6831 6.01522 12.3163 6.40574 12.7068L9.2981 15.5991C10.1297 16.4307 11.4959 16.3688 12.2488 15.4653L17.6588 8.97319Z" fill="#16A34A"/>
</svg>
