<svg width="118" height="32" viewBox="0 0 118 32" fill="none" xmlns="http://www.w3.org/2000/svg">
<path d="M0 16C0 7.16344 7.16344 0 16 0H118V32H16C7.16345 32 0 24.8366 0 16V16Z" fill="#46BAC6"/>
<path d="M40.0795 14H39.0227C38.9602 13.696 38.8509 13.429 38.6946 13.1989C38.5412 12.9688 38.3537 12.7756 38.1321 12.6193C37.9134 12.4602 37.6705 12.3409 37.4034 12.2614C37.1364 12.1818 36.858 12.142 36.5682 12.142C36.0398 12.142 35.5611 12.2756 35.1321 12.5426C34.706 12.8097 34.3665 13.2031 34.1136 13.723C33.8636 14.2429 33.7386 14.8807 33.7386 15.6364C33.7386 16.392 33.8636 17.0298 34.1136 17.5497C34.3665 18.0696 34.706 18.4631 35.1321 18.7301C35.5611 18.9972 36.0398 19.1307 36.5682 19.1307C36.858 19.1307 37.1364 19.0909 37.4034 19.0114C37.6705 18.9318 37.9134 18.8139 38.1321 18.6577C38.3537 18.4986 38.5412 18.304 38.6946 18.0739C38.8509 17.8409 38.9602 17.5739 39.0227 17.2727H40.0795C40 17.7187 39.8551 18.1179 39.6449 18.4702C39.4347 18.8224 39.1733 19.1222 38.8608 19.3693C38.5483 19.6136 38.1974 19.7997 37.8082 19.9276C37.4219 20.0554 37.0085 20.1193 36.5682 20.1193C35.8239 20.1193 35.1619 19.9375 34.5824 19.5739C34.0028 19.2102 33.5469 18.6932 33.2145 18.0227C32.8821 17.3523 32.7159 16.5568 32.7159 15.6364C32.7159 14.7159 32.8821 13.9205 33.2145 13.25C33.5469 12.5795 34.0028 12.0625 34.5824 11.6989C35.1619 11.3352 35.8239 11.1534 36.5682 11.1534C37.0085 11.1534 37.4219 11.2173 37.8082 11.3452C38.1974 11.473 38.5483 11.6605 38.8608 11.9077C39.1733 12.152 39.4347 12.4503 39.6449 12.8026C39.8551 13.152 40 13.5511 40.0795 14ZM44.31 20.1364C43.7191 20.1364 43.2006 19.9957 42.7546 19.7145C42.3114 19.4332 41.9648 19.0398 41.7148 18.5341C41.4677 18.0284 41.3441 17.4375 41.3441 16.7614C41.3441 16.0795 41.4677 15.4844 41.7148 14.9759C41.9648 14.4673 42.3114 14.0724 42.7546 13.7912C43.2006 13.5099 43.7191 13.3693 44.31 13.3693C44.9009 13.3693 45.418 13.5099 45.8612 13.7912C46.3072 14.0724 46.6538 14.4673 46.9009 14.9759C47.1509 15.4844 47.2759 16.0795 47.2759 16.7614C47.2759 17.4375 47.1509 18.0284 46.9009 18.5341C46.6538 19.0398 46.3072 19.4332 45.8612 19.7145C45.418 19.9957 44.9009 20.1364 44.31 20.1364ZM44.31 19.233C44.7589 19.233 45.1282 19.1179 45.418 18.8878C45.7077 18.6577 45.9222 18.3551 46.0614 17.9801C46.2006 17.6051 46.2702 17.1989 46.2702 16.7614C46.2702 16.3239 46.2006 15.9162 46.0614 15.5384C45.9222 15.1605 45.7077 14.8551 45.418 14.6222C45.1282 14.3892 44.7589 14.2727 44.31 14.2727C43.8612 14.2727 43.4918 14.3892 43.2021 14.6222C42.9123 14.8551 42.6978 15.1605 42.5586 15.5384C42.4194 15.9162 42.3498 16.3239 42.3498 16.7614C42.3498 17.1989 42.4194 17.6051 42.5586 17.9801C42.6978 18.3551 42.9123 18.6577 43.2021 18.8878C43.4918 19.1179 43.8612 19.233 44.31 19.233ZM49.8168 16.0625V20H48.8111V13.4545H49.7827V14.4773H49.8679C50.0213 14.1449 50.2543 13.8778 50.5668 13.6761C50.8793 13.4716 51.2827 13.3693 51.777 13.3693C52.2202 13.3693 52.608 13.4602 52.9403 13.642C53.2727 13.821 53.5313 14.0938 53.7159 14.4602C53.9006 14.8239 53.9929 15.2841 53.9929 15.8409V20H52.9872V15.9091C52.9872 15.3949 52.8537 14.9943 52.5866 14.7074C52.3196 14.4176 51.9531 14.2727 51.4872 14.2727C51.1662 14.2727 50.8793 14.3423 50.6264 14.4815C50.3764 14.6207 50.179 14.8239 50.0341 15.0909C49.8892 15.358 49.8168 15.6818 49.8168 16.0625ZM58.6772 13.4545V14.3068H55.2852V13.4545H58.6772ZM56.2738 11.8864H57.2795V18.125C57.2795 18.4091 57.3207 18.6222 57.4031 18.7642C57.4883 18.9034 57.5962 18.9972 57.7269 19.0455C57.8604 19.0909 58.0011 19.1136 58.1488 19.1136C58.2596 19.1136 58.3505 19.108 58.4215 19.0966C58.4925 19.0824 58.5494 19.071 58.592 19.0625L58.7965 19.9659C58.7283 19.9915 58.6332 20.017 58.511 20.0426C58.3888 20.071 58.234 20.0852 58.0465 20.0852C57.7624 20.0852 57.484 20.0241 57.2113 19.902C56.9414 19.7798 56.717 19.5938 56.538 19.3438C56.3619 19.0938 56.2738 18.7784 56.2738 18.3977V11.8864ZM62.1161 20.1534C61.7013 20.1534 61.3249 20.0753 60.9869 19.919C60.6488 19.7599 60.3803 19.5312 60.1815 19.233C59.9826 18.9318 59.8832 18.5682 59.8832 18.142C59.8832 17.767 59.957 17.4631 60.1048 17.2301C60.2525 16.9943 60.4499 16.8097 60.6971 16.6761C60.9442 16.5426 61.217 16.4432 61.5153 16.3778C61.8164 16.3097 62.119 16.2557 62.4229 16.2159C62.8207 16.1648 63.1431 16.1264 63.3903 16.1009C63.6403 16.0724 63.8221 16.0256 63.9357 15.9602C64.0522 15.8949 64.1104 15.7812 64.1104 15.6193V15.5852C64.1104 15.1648 63.9954 14.8381 63.7653 14.6051C63.538 14.3722 63.1928 14.2557 62.7298 14.2557C62.2496 14.2557 61.8732 14.3608 61.6005 14.571C61.3278 14.7812 61.136 15.0057 61.0252 15.2443L60.0707 14.9034C60.2411 14.5057 60.4684 14.196 60.7525 13.9744C61.0394 13.75 61.3519 13.5937 61.69 13.5057C62.0309 13.4148 62.3661 13.3693 62.6957 13.3693C62.9059 13.3693 63.1474 13.3949 63.4201 13.446C63.6957 13.4943 63.9613 13.5952 64.217 13.7486C64.4755 13.902 64.69 14.1335 64.8604 14.4432C65.0309 14.7528 65.1161 15.1676 65.1161 15.6875V20H64.1104V19.1136H64.0593C63.9911 19.2557 63.8775 19.4077 63.7184 19.5696C63.5593 19.7315 63.3477 19.8693 63.0835 19.983C62.8192 20.0966 62.4968 20.1534 62.1161 20.1534ZM62.2695 19.25C62.6673 19.25 63.0025 19.1719 63.2752 19.0156C63.5508 18.8594 63.7582 18.6577 63.8974 18.4105C64.0394 18.1634 64.1104 17.9034 64.1104 17.6307V16.7102C64.0678 16.7614 63.9741 16.8082 63.8292 16.8509C63.6871 16.8906 63.5224 16.9261 63.3349 16.9574C63.1502 16.9858 62.9698 17.0114 62.7937 17.0341C62.6204 17.054 62.4798 17.071 62.3718 17.0852C62.1104 17.1193 61.8661 17.1747 61.6388 17.2514C61.4144 17.3253 61.2326 17.4375 61.0934 17.5881C60.957 17.7358 60.8888 17.9375 60.8888 18.1932C60.8888 18.5426 61.0181 18.8068 61.2766 18.9858C61.538 19.1619 61.869 19.25 62.2695 19.25ZM69.6108 20.1364C68.9972 20.1364 68.4688 19.9915 68.0256 19.7017C67.5824 19.4119 67.2415 19.0128 67.0028 18.5043C66.7642 17.9957 66.6449 17.4148 66.6449 16.7614C66.6449 16.0966 66.767 15.5099 67.0114 15.0014C67.2585 14.4901 67.6023 14.0909 68.0426 13.804C68.4858 13.5142 69.0028 13.3693 69.5938 13.3693C70.054 13.3693 70.4688 13.4545 70.8381 13.625C71.2074 13.7955 71.5099 14.0341 71.7457 14.3409C71.9815 14.6477 72.1278 15.0057 72.1847 15.4148H71.179C71.1023 15.1165 70.9318 14.8523 70.6676 14.6222C70.4063 14.3892 70.054 14.2727 69.6108 14.2727C69.2188 14.2727 68.875 14.375 68.5795 14.5795C68.2869 14.7812 68.0582 15.0668 67.8935 15.4361C67.7315 15.8026 67.6506 16.233 67.6506 16.7273C67.6506 17.233 67.7301 17.6733 67.8892 18.0483C68.0511 18.4233 68.2784 18.7145 68.571 18.9219C68.8665 19.1293 69.2131 19.233 69.6108 19.233C69.8722 19.233 70.1094 19.1875 70.3224 19.0966C70.5355 19.0057 70.7159 18.875 70.8636 18.7045C71.0114 18.5341 71.1165 18.3295 71.179 18.0909H72.1847C72.1278 18.4773 71.9872 18.8253 71.7628 19.1349C71.5412 19.4418 71.2472 19.6861 70.8807 19.8679C70.517 20.0469 70.0938 20.1364 69.6108 20.1364ZM76.5014 13.4545V14.3068H73.1094V13.4545H76.5014ZM74.098 11.8864H75.1037V18.125C75.1037 18.4091 75.1449 18.6222 75.2273 18.7642C75.3125 18.9034 75.4205 18.9972 75.5511 19.0455C75.6847 19.0909 75.8253 19.1136 75.973 19.1136C76.0838 19.1136 76.1747 19.108 76.2457 19.0966C76.3168 19.0824 76.3736 19.071 76.4162 19.0625L76.6207 19.9659C76.5526 19.9915 76.4574 20.017 76.3352 20.0426C76.2131 20.071 76.0582 20.0852 75.8707 20.0852C75.5866 20.0852 75.3082 20.0241 75.0355 19.902C74.7656 19.7798 74.5412 19.5938 74.3622 19.3438C74.1861 19.0938 74.098 18.7784 74.098 18.3977V11.8864ZM87.2528 11.2727H88.3097V17.0511C88.3097 17.6477 88.169 18.1804 87.8878 18.6491C87.6094 19.1151 87.2159 19.483 86.7074 19.7528C86.1989 20.0199 85.6023 20.1534 84.9176 20.1534C84.233 20.1534 83.6364 20.0199 83.1278 19.7528C82.6193 19.483 82.2244 19.1151 81.9432 18.6491C81.6648 18.1804 81.5256 17.6477 81.5256 17.0511V11.2727H82.5824V16.9659C82.5824 17.392 82.6761 17.7713 82.8636 18.1037C83.0511 18.4332 83.3182 18.6932 83.6648 18.8835C84.0142 19.071 84.4318 19.1648 84.9176 19.1648C85.4034 19.1648 85.821 19.071 86.1705 18.8835C86.5199 18.6932 86.7869 18.4332 86.9716 18.1037C87.1591 17.7713 87.2528 17.392 87.2528 16.9659V11.2727ZM94.9201 14.9205L94.0167 15.1761C93.9599 15.0256 93.8761 14.8793 93.7653 14.7372C93.6573 14.5923 93.5096 14.473 93.3221 14.3793C93.1346 14.2855 92.8945 14.2386 92.6019 14.2386C92.2013 14.2386 91.8675 14.331 91.6005 14.5156C91.3363 14.6974 91.2042 14.929 91.2042 15.2102C91.2042 15.4602 91.2951 15.6577 91.4769 15.8026C91.6587 15.9474 91.9428 16.0682 92.3292 16.1648L93.3008 16.4034C93.886 16.5455 94.3221 16.7628 94.609 17.0554C94.896 17.3452 95.0394 17.7187 95.0394 18.1761C95.0394 18.5511 94.9315 18.8864 94.7156 19.1818C94.5025 19.4773 94.2042 19.7102 93.8207 19.8807C93.4371 20.0511 92.9911 20.1364 92.4826 20.1364C91.815 20.1364 91.2624 19.9915 90.8249 19.7017C90.3874 19.4119 90.1104 18.9886 89.994 18.4318L90.9485 18.1932C91.0394 18.5455 91.2113 18.8097 91.4641 18.9858C91.7198 19.1619 92.0536 19.25 92.4656 19.25C92.9343 19.25 93.3065 19.1506 93.582 18.9517C93.8604 18.75 93.9996 18.5085 93.9996 18.2273C93.9996 18 93.9201 17.8097 93.761 17.6562C93.6019 17.5 93.3576 17.3835 93.0281 17.3068L91.9371 17.0511C91.3377 16.9091 90.8974 16.6889 90.6161 16.3906C90.3377 16.0895 90.1985 15.7131 90.1985 15.2614C90.1985 14.892 90.3022 14.5653 90.5096 14.2812C90.7198 13.9972 91.0053 13.7741 91.3661 13.6122C91.7298 13.4503 92.1417 13.3693 92.6019 13.3693C93.2496 13.3693 93.7582 13.5114 94.1275 13.7955C94.4996 14.0795 94.7638 14.4545 94.9201 14.9205Z" fill="white"/>
<path d="M18.0134 9.33325C21.8 9.33325 24.6667 12.4379 24.6667 15.9899C24.6667 20.1094 21.3067 22.6666 18 22.6666C16.9067 22.6666 15.6934 22.3728 14.72 21.7986C14.38 21.5916 14.0934 21.4381 13.7267 21.5583L12.38 21.9589C12.04 22.0657 11.7334 21.7986 11.8334 21.4381L12.28 19.9425C12.3534 19.7355 12.34 19.5152 12.2334 19.3416C11.66 18.2867 11.3334 17.1316 11.3334 16.0099C11.3334 12.498 14.14 9.33325 18.0134 9.33325ZM21.06 15.162C20.5867 15.162 20.2067 15.5426 20.2067 16.0166C20.2067 16.484 20.5867 16.8712 21.06 16.8712C21.5334 16.8712 21.9134 16.484 21.9134 16.0166C21.9134 15.5426 21.5334 15.162 21.06 15.162ZM17.9867 15.162C17.52 15.1553 17.1334 15.5426 17.1334 16.0099C17.1334 16.484 17.5134 16.8645 17.9867 16.8712C18.46 16.8712 18.84 16.484 18.84 16.0166C18.84 15.5426 18.46 15.162 17.9867 15.162ZM14.9134 15.162C14.44 15.162 14.06 15.5426 14.06 16.0166C14.06 16.484 14.4467 16.8712 14.9134 16.8712C15.3867 16.8645 15.7667 16.484 15.7667 16.0166C15.7667 15.5426 15.3867 15.162 14.9134 15.162Z" fill="white"/>
</svg>
