<svg width="1320" height="915" viewBox="0 0 1320 915" fill="none" xmlns="http://www.w3.org/2000/svg">
<g clip-path="url(#clip0_2433_124)">
<rect width="1320" height="915" rx="20" fill="url(#paint0_radial_2433_124)"/>
<path d="M115.468 492.432C104.083 480.18 88.3673 472.826 71.6398 471.953L71.6919 470.955L71.6397 471.953C54.579 471.062 37.8627 476.985 25.169 488.419C12.4753 499.853 4.84345 515.861 3.95228 532.922C3.95228 532.922 3.95228 532.922 3.95228 532.922M115.468 492.432L3.95228 532.922M115.468 492.432L67.6115 535.538L19.7551 578.645C8.75605 566.046 3.07893 549.65 3.95228 532.922M115.468 492.432L3.95228 532.922" stroke="white" stroke-width="2"/>
<path d="M70.3 497.617C80.2209 498.134 89.5499 502.445 96.3695 509.634L67.6118 535.537L38.8541 561.441C32.4145 553.91 29.0989 544.183 29.6168 534.261C30.1525 524.007 34.7395 514.385 42.369 507.513C49.9985 500.641 60.0458 497.081 70.3 497.617L70.3521 496.618L70.3 497.617Z" stroke="white" stroke-width="2"/>
<g filter="url(#filter0_f_2433_124)">
<circle cx="81" cy="43" r="134" fill="url(#paint1_linear_2433_124)"/>
</g>
<g filter="url(#filter1_f_2433_124)">
<circle cx="97.5285" cy="830.528" r="134" transform="rotate(-64.5961 97.5285 830.528)" fill="url(#paint2_linear_2433_124)"/>
</g>
<g filter="url(#filter2_f_2433_124)">
<ellipse cx="1294.5" cy="13" rx="126.5" ry="134" fill="url(#paint3_linear_2433_124)"/>
</g>
<g filter="url(#filter3_f_2433_124)">
<ellipse cx="1268.36" cy="849.851" rx="132.618" ry="134" transform="rotate(120 1268.36 849.851)" fill="url(#paint4_linear_2433_124)"/>
</g>
<g filter="url(#filter4_f_2433_124)">
<ellipse cx="694" rx="541" ry="127" fill="url(#paint5_linear_2433_124)" fill-opacity="0.8"/>
</g>
<circle cx="23.5" cy="915.5" r="83.75" fill="url(#paint6_linear_2433_124)" fill-opacity="0.09" stroke="url(#paint7_linear_2433_124)" stroke-width="1.5"/>
<circle cx="20.6027" cy="915.5" r="60.09" fill="url(#paint8_linear_2433_124)" fill-opacity="0.09" stroke="url(#paint9_linear_2433_124)" stroke-width="1.5"/>
<circle cx="15.2915" cy="915.501" r="38.8443" fill="url(#paint10_linear_2433_124)" fill-opacity="0.09" stroke="url(#paint11_linear_2433_124)" stroke-width="1.5"/>
<circle cx="1310" cy="898" r="88.75" transform="rotate(-90 1310 898)" fill="url(#paint12_linear_2433_124)" fill-opacity="0.09" stroke="url(#paint13_linear_2433_124)" stroke-width="2.5"/>
<circle cx="1310" cy="901.087" r="63.55" transform="rotate(-90 1310 901.087)" fill="url(#paint14_linear_2433_124)" fill-opacity="0.09" stroke="url(#paint15_linear_2433_124)" stroke-width="2.5"/>
<circle cx="1310" cy="906.743" r="40.9214" transform="rotate(-90 1310 906.743)" fill="url(#paint16_linear_2433_124)" fill-opacity="0.09" stroke="url(#paint17_linear_2433_124)" stroke-width="2.5"/>
<path opacity="0.8" fill-rule="evenodd" clip-rule="evenodd" d="M152.958 153.852C154.67 153.852 156.096 152.711 156.524 151H152.958H149.393C149.821 152.569 151.247 153.852 152.958 153.852ZM138.839 151.855C137.841 151.998 136.878 152.141 135.916 152.283L135.916 152.283L135.916 152.283L135.916 152.283L135.915 152.283L135.915 152.283L135.915 152.283L135.915 152.283L135.915 152.283L135.915 152.283L135.915 152.283L135.915 152.283L135.915 152.283L135.915 152.283L135.915 152.283L135.915 152.283L135.915 152.283L135.915 152.284L135.915 152.284L135.914 152.284L135.914 152.284L135.914 152.284L135.914 152.284L135.914 152.284L135.914 152.284L135.914 152.284L135.914 152.284L135.914 152.284L135.914 152.284L135.914 152.284L135.914 152.284L135.914 152.284L135.914 152.284L135.914 152.284L135.913 152.284L135.913 152.284L135.913 152.284L135.913 152.284L135.913 152.284L135.913 152.284L135.913 152.284L135.913 152.284L135.913 152.284L135.913 152.284L135.913 152.284L135.913 152.284L135.913 152.284L135.913 152.284L135.912 152.284L135.912 152.284L135.912 152.284L135.912 152.284L135.912 152.284L135.912 152.284L135.912 152.284L135.912 152.284L135.912 152.284L135.912 152.284L135.912 152.284L135.912 152.284L135.912 152.284L135.912 152.284L135.912 152.284L135.911 152.284L135.911 152.284L135.911 152.284L135.911 152.284L135.911 152.284L135.911 152.284L135.911 152.284L135.911 152.284L135.911 152.284L135.911 152.284L135.911 152.284L135.911 152.284L135.911 152.284L135.911 152.284L135.91 152.284L135.91 152.284L135.91 152.284L135.91 152.284L135.91 152.284L135.91 152.284L135.91 152.284L135.91 152.284L135.91 152.284L135.91 152.284L135.91 152.284L135.91 152.284L135.91 152.284L135.91 152.284L135.91 152.284L135.909 152.284L135.909 152.284L135.909 152.284L135.909 152.284L135.909 152.284L135.909 152.284L135.909 152.284L135.909 152.284L135.909 152.284L135.909 152.284L135.909 152.284L135.909 152.284L135.909 152.284L135.909 152.284L135.908 152.284L135.908 152.284L135.908 152.284L135.908 152.284L135.908 152.284L135.908 152.284L135.908 152.284L135.908 152.284L135.908 152.284L135.908 152.284L135.908 152.284L135.908 152.284L135.908 152.284L135.908 152.284L135.908 152.284L135.907 152.285L135.907 152.285L135.907 152.285C134.948 152.427 133.988 152.569 132.992 152.711C133.705 153.424 134.561 153.709 135.559 153.709C136.985 153.852 138.269 152.996 138.839 151.855ZM172.924 152.854C172.211 153.425 171.356 153.852 170.357 153.852C168.931 153.852 167.79 152.997 167.077 151.998C168.489 152.099 169.902 152.343 171.263 152.578L171.264 152.578C171.827 152.675 172.382 152.771 172.924 152.854ZM100.904 172.392C102.952 172.392 104.612 170.732 104.612 168.684C104.612 166.636 102.952 164.976 100.904 164.976C98.8565 164.976 97.1964 166.636 97.1964 168.684C97.1964 170.732 98.8565 172.392 100.904 172.392ZM122.011 168.684C122.011 170.732 120.351 172.392 118.303 172.392C116.255 172.392 114.595 170.732 114.595 168.684C114.595 166.636 116.255 164.976 118.303 164.976C120.351 164.976 122.011 166.636 122.011 168.684ZM135.559 172.392C137.607 172.392 139.267 170.732 139.267 168.684C139.267 166.636 137.607 164.976 135.559 164.976C133.511 164.976 131.851 166.636 131.851 168.684C131.851 170.732 133.511 172.392 135.559 172.392ZM156.666 168.684C156.666 170.732 155.006 172.392 152.958 172.392C150.911 172.392 149.25 170.732 149.25 168.684C149.25 166.636 150.911 164.976 152.958 164.976C155.006 164.976 156.666 166.636 156.666 168.684ZM170.357 172.392C172.405 172.392 174.065 170.732 174.065 168.684C174.065 166.636 172.405 164.976 170.357 164.976C168.309 164.976 166.649 166.636 166.649 168.684C166.649 170.732 168.309 172.392 170.357 172.392ZM191.464 168.684C191.464 170.732 189.804 172.392 187.756 172.392C185.708 172.392 184.048 170.732 184.048 168.684C184.048 166.636 185.708 164.976 187.756 164.976C189.804 164.976 191.464 166.636 191.464 168.684ZM205.012 172.392C207.06 172.392 208.72 170.732 208.72 168.684C208.72 166.636 207.06 164.976 205.012 164.976C202.965 164.976 201.304 166.636 201.304 168.684C201.304 170.732 202.965 172.392 205.012 172.392ZM87.2132 187.081C87.2132 189.129 85.5531 190.789 83.5053 190.789C81.4574 190.789 79.7974 189.129 79.7974 187.081C79.7974 185.033 81.4574 183.373 83.5053 183.373C85.5531 183.373 87.2132 185.033 87.2132 187.081ZM100.904 190.789C102.952 190.789 104.612 189.129 104.612 187.081C104.612 185.033 102.952 183.373 100.904 183.373C98.8565 183.373 97.1964 185.033 97.1964 187.081C97.1964 189.129 98.8565 190.789 100.904 190.789ZM122.011 187.081C122.011 189.129 120.351 190.789 118.303 190.789C116.255 190.789 114.595 189.129 114.595 187.081C114.595 185.033 116.255 183.373 118.303 183.373C120.351 183.373 122.011 185.033 122.011 187.081ZM135.559 190.789C137.607 190.789 139.267 189.129 139.267 187.081C139.267 185.033 137.607 183.373 135.559 183.373C133.511 183.373 131.851 185.033 131.851 187.081C131.851 189.129 133.511 190.789 135.559 190.789ZM156.666 187.081C156.666 189.129 155.006 190.789 152.958 190.789C150.911 190.789 149.25 189.129 149.25 187.081C149.25 185.033 150.911 183.373 152.958 183.373C155.006 183.373 156.666 185.033 156.666 187.081ZM170.357 190.789C172.405 190.789 174.065 189.129 174.065 187.081C174.065 185.033 172.405 183.373 170.357 183.373C168.309 183.373 166.649 185.033 166.649 187.081C166.649 189.129 168.309 190.789 170.357 190.789ZM191.464 187.081C191.464 189.129 189.804 190.789 187.756 190.789C185.708 190.789 184.048 189.129 184.048 187.081C184.048 185.033 185.708 183.373 187.756 183.373C189.804 183.373 191.464 185.033 191.464 187.081ZM205.012 190.789C207.06 190.789 208.72 189.129 208.72 187.081C208.72 185.033 207.06 183.373 205.012 183.373C202.965 183.373 201.304 185.033 201.304 187.081C201.304 189.129 202.965 190.789 205.012 190.789ZM226.119 187.081C226.119 189.129 224.459 190.789 222.411 190.789C220.363 190.789 218.703 189.129 218.703 187.081C218.703 185.033 220.363 183.373 222.411 183.373C224.459 183.373 226.119 185.033 226.119 187.081ZM66.1066 209.329C68.1545 209.329 69.8146 207.669 69.8146 205.621C69.8146 203.573 68.1545 201.913 66.1066 201.913C64.0588 201.913 62.3987 203.573 62.3987 205.621C62.3987 207.669 64.0588 209.329 66.1066 209.329ZM87.2132 205.621C87.2132 207.669 85.5531 209.329 83.5053 209.329C81.4574 209.329 79.7974 207.669 79.7974 205.621C79.7974 203.573 81.4574 201.913 83.5053 201.913C85.5531 201.913 87.2132 203.573 87.2132 205.621ZM100.904 209.329C102.952 209.329 104.612 207.669 104.612 205.621C104.612 203.573 102.952 201.913 100.904 201.913C98.8565 201.913 97.1964 203.573 97.1964 205.621C97.1964 207.669 98.8565 209.329 100.904 209.329ZM122.011 205.621C122.011 207.669 120.351 209.329 118.303 209.329C116.255 209.329 114.595 207.669 114.595 205.621C114.595 203.573 116.255 201.913 118.303 201.913C120.351 201.913 122.011 203.573 122.011 205.621ZM135.559 209.329C137.607 209.329 139.267 207.669 139.267 205.621C139.267 203.573 137.607 201.913 135.559 201.913C133.511 201.913 131.851 203.573 131.851 205.621C131.851 207.669 133.511 209.329 135.559 209.329ZM156.666 205.621C156.666 207.669 155.006 209.329 152.958 209.329C150.911 209.329 149.25 207.669 149.25 205.621C149.25 203.573 150.911 201.913 152.958 201.913C155.006 201.913 156.666 203.573 156.666 205.621ZM170.357 209.329C172.405 209.329 174.065 207.669 174.065 205.621C174.065 203.573 172.405 201.913 170.357 201.913C168.309 201.913 166.649 203.573 166.649 205.621C166.649 207.669 168.309 209.329 170.357 209.329ZM191.464 205.621C191.464 207.669 189.804 209.329 187.756 209.329C185.708 209.329 184.048 207.669 184.048 205.621C184.048 203.573 185.708 201.913 187.756 201.913C189.804 201.913 191.464 203.573 191.464 205.621ZM205.012 209.329C207.06 209.329 208.72 207.669 208.72 205.621C208.72 203.573 207.06 201.913 205.012 201.913C202.965 201.913 201.304 203.573 201.304 205.621C201.304 207.669 202.965 209.329 205.012 209.329ZM226.119 205.621C226.119 207.669 224.459 209.329 222.411 209.329C220.363 209.329 218.703 207.669 218.703 205.621C218.703 203.573 220.363 201.913 222.411 201.913C224.459 201.913 226.119 203.573 226.119 205.621ZM239.81 209.329C241.858 209.329 243.518 207.669 243.518 205.621C243.518 203.573 241.858 201.913 239.81 201.913C237.762 201.913 236.102 203.573 236.102 205.621C236.102 207.669 237.762 209.329 239.81 209.329ZM50.2767 220.738C51.5602 221.308 52.4159 222.592 52.4159 224.16C52.4159 226.3 50.8471 227.868 48.8506 227.868C48.4227 227.868 48.1375 227.868 47.8522 227.726C48.5652 225.302 49.4208 223.02 50.2764 220.739L50.2767 220.738ZM66.1066 227.869C68.1545 227.869 69.8146 226.208 69.8146 224.161C69.8146 222.113 68.1545 220.453 66.1066 220.453C64.0588 220.453 62.3987 222.113 62.3987 224.161C62.3987 226.208 64.0588 227.869 66.1066 227.869ZM87.2132 224.161C87.2132 226.208 85.5531 227.869 83.5053 227.869C81.4574 227.869 79.7974 226.208 79.7974 224.161C79.7974 222.113 81.4574 220.453 83.5053 220.453C85.5531 220.453 87.2132 222.113 87.2132 224.161ZM100.904 227.869C102.952 227.869 104.612 226.208 104.612 224.161C104.612 222.113 102.952 220.453 100.904 220.453C98.8565 220.453 97.1964 222.113 97.1964 224.161C97.1964 226.208 98.8565 227.869 100.904 227.869ZM122.011 224.161C122.011 226.208 120.351 227.869 118.303 227.869C116.255 227.869 114.595 226.208 114.595 224.161C114.595 222.113 116.255 220.453 118.303 220.453C120.351 220.453 122.011 222.113 122.011 224.161ZM135.559 227.869C137.607 227.869 139.267 226.208 139.267 224.161C139.267 222.113 137.607 220.453 135.559 220.453C133.511 220.453 131.851 222.113 131.851 224.161C131.851 226.208 133.511 227.869 135.559 227.869ZM156.666 224.161C156.666 226.208 155.006 227.869 152.958 227.869C150.911 227.869 149.25 226.208 149.25 224.161C149.25 222.113 150.911 220.453 152.958 220.453C155.006 220.453 156.666 222.113 156.666 224.161ZM170.357 227.869C172.405 227.869 174.065 226.208 174.065 224.161C174.065 222.113 172.405 220.453 170.357 220.453C168.309 220.453 166.649 222.113 166.649 224.161C166.649 226.208 168.309 227.869 170.357 227.869ZM191.464 224.161C191.464 226.208 189.804 227.869 187.756 227.869C185.708 227.869 184.048 226.208 184.048 224.161C184.048 222.113 185.708 220.453 187.756 220.453C189.804 220.453 191.464 222.113 191.464 224.161ZM205.012 227.869C207.06 227.869 208.72 226.208 208.72 224.161C208.72 222.113 207.06 220.453 205.012 220.453C202.965 220.453 201.304 222.113 201.304 224.161C201.304 226.208 202.965 227.869 205.012 227.869ZM226.119 224.161C226.119 226.208 224.459 227.869 222.411 227.869C220.363 227.869 218.703 226.208 218.703 224.161C218.703 222.113 220.363 220.453 222.411 220.453C224.459 220.453 226.119 222.113 226.119 224.161ZM239.81 227.869C241.858 227.869 243.518 226.208 243.518 224.161C243.518 222.113 241.858 220.453 239.81 220.453C237.762 220.453 236.102 222.113 236.102 224.161C236.102 226.208 237.762 227.869 239.81 227.869ZM257.208 227.868C255.212 227.868 253.501 226.157 253.501 224.16C253.501 222.734 254.356 221.451 255.782 220.738C256.638 223.02 257.494 225.444 258.207 227.726C257.921 227.868 257.494 227.868 257.208 227.868ZM48.708 246.408C50.7558 246.408 52.4159 244.748 52.4159 242.7C52.4159 240.653 50.7558 238.992 48.708 238.992C46.6601 238.992 45 240.653 45 242.7C45 244.748 46.6601 246.408 48.708 246.408ZM69.8146 242.7C69.8146 244.748 68.1545 246.408 66.1066 246.408C64.0588 246.408 62.3987 244.748 62.3987 242.7C62.3987 240.653 64.0588 238.992 66.1066 238.992C68.1545 238.992 69.8146 240.653 69.8146 242.7ZM83.5053 246.408C85.5531 246.408 87.2132 244.748 87.2132 242.7C87.2132 240.653 85.5531 238.992 83.5053 238.992C81.4574 238.992 79.7974 240.653 79.7974 242.7C79.7974 244.748 81.4574 246.408 83.5053 246.408ZM104.612 242.7C104.612 244.748 102.952 246.408 100.904 246.408C98.8565 246.408 97.1964 244.748 97.1964 242.7C97.1964 240.653 98.8565 238.992 100.904 238.992C102.952 238.992 104.612 240.653 104.612 242.7ZM118.303 246.408C120.351 246.408 122.011 244.748 122.011 242.7C122.011 240.653 120.351 238.992 118.303 238.992C116.255 238.992 114.595 240.653 114.595 242.7C114.595 244.748 116.255 246.408 118.303 246.408ZM139.267 242.7C139.267 244.748 137.607 246.408 135.559 246.408C133.511 246.408 131.851 244.748 131.851 242.7C131.851 240.653 133.511 238.992 135.559 238.992C137.607 238.992 139.267 240.653 139.267 242.7ZM152.958 246.408C155.006 246.408 156.666 244.748 156.666 242.7C156.666 240.653 155.006 238.992 152.958 238.992C150.911 238.992 149.25 240.653 149.25 242.7C149.25 244.748 150.911 246.408 152.958 246.408ZM174.065 242.7C174.065 244.748 172.405 246.408 170.357 246.408C168.309 246.408 166.649 244.748 166.649 242.7C166.649 240.653 168.309 238.992 170.357 238.992C172.405 238.992 174.065 240.653 174.065 242.7ZM187.756 246.408C189.804 246.408 191.464 244.748 191.464 242.7C191.464 240.653 189.804 238.992 187.756 238.992C185.708 238.992 184.048 240.653 184.048 242.7C184.048 244.748 185.708 246.408 187.756 246.408ZM208.72 242.7C208.72 244.748 207.06 246.408 205.012 246.408C202.965 246.408 201.304 244.748 201.304 242.7C201.304 240.653 202.965 238.992 205.012 238.992C207.06 238.992 208.72 240.653 208.72 242.7ZM222.411 246.408C224.459 246.408 226.119 244.748 226.119 242.7C226.119 240.653 224.459 238.992 222.411 238.992C220.363 238.992 218.703 240.653 218.703 242.7C218.703 244.748 220.363 246.408 222.411 246.408ZM243.518 242.7C243.518 244.748 241.858 246.408 239.81 246.408C237.762 246.408 236.102 244.748 236.102 242.7C236.102 240.653 237.762 238.992 239.81 238.992C241.858 238.992 243.518 240.653 243.518 242.7ZM257.208 246.408C259.256 246.408 260.916 244.748 260.916 242.7C260.916 240.653 259.256 238.992 257.208 238.992C255.161 238.992 253.501 240.653 253.501 242.7C253.501 244.748 255.161 246.408 257.208 246.408ZM52.4159 261.24C52.4159 263.288 50.7558 264.948 48.708 264.948C46.6601 264.948 45 263.288 45 261.24C45 259.192 46.6601 257.532 48.708 257.532C50.7558 257.532 52.4159 259.192 52.4159 261.24ZM66.1066 264.948C68.1545 264.948 69.8146 263.288 69.8146 261.24C69.8146 259.192 68.1545 257.532 66.1066 257.532C64.0588 257.532 62.3987 259.192 62.3987 261.24C62.3987 263.288 64.0588 264.948 66.1066 264.948ZM87.2132 261.24C87.2132 263.288 85.5531 264.948 83.5053 264.948C81.4574 264.948 79.7974 263.288 79.7974 261.24C79.7974 259.192 81.4574 257.532 83.5053 257.532C85.5531 257.532 87.2132 259.192 87.2132 261.24ZM100.904 264.948C102.952 264.948 104.612 263.288 104.612 261.24C104.612 259.192 102.952 257.532 100.904 257.532C98.8565 257.532 97.1964 259.192 97.1964 261.24C97.1964 263.288 98.8565 264.948 100.904 264.948ZM122.011 261.24C122.011 263.288 120.351 264.948 118.303 264.948C116.255 264.948 114.595 263.288 114.595 261.24C114.595 259.192 116.255 257.532 118.303 257.532C120.351 257.532 122.011 259.192 122.011 261.24ZM135.559 264.948C137.607 264.948 139.267 263.288 139.267 261.24C139.267 259.192 137.607 257.532 135.559 257.532C133.511 257.532 131.851 259.192 131.851 261.24C131.851 263.288 133.511 264.948 135.559 264.948ZM156.666 261.24C156.666 263.288 155.006 264.948 152.958 264.948C150.911 264.948 149.25 263.288 149.25 261.24C149.25 259.192 150.911 257.532 152.958 257.532C155.006 257.532 156.666 259.192 156.666 261.24ZM170.357 264.948C172.405 264.948 174.065 263.288 174.065 261.24C174.065 259.192 172.405 257.532 170.357 257.532C168.309 257.532 166.649 259.192 166.649 261.24C166.649 263.288 168.309 264.948 170.357 264.948ZM191.464 261.24C191.464 263.288 189.804 264.948 187.756 264.948C185.708 264.948 184.048 263.288 184.048 261.24C184.048 259.192 185.708 257.532 187.756 257.532C189.804 257.532 191.464 259.192 191.464 261.24ZM205.012 264.948C207.06 264.948 208.72 263.288 208.72 261.24C208.72 259.192 207.06 257.532 205.012 257.532C202.965 257.532 201.304 259.192 201.304 261.24C201.304 263.288 202.965 264.948 205.012 264.948ZM226.119 261.24C226.119 263.288 224.459 264.948 222.411 264.948C220.363 264.948 218.703 263.288 218.703 261.24C218.703 259.192 220.363 257.532 222.411 257.532C224.459 257.532 226.119 259.192 226.119 261.24ZM239.81 264.948C241.858 264.948 243.518 263.288 243.518 261.24C243.518 259.192 241.858 257.532 239.81 257.532C237.762 257.532 236.102 259.192 236.102 261.24C236.102 263.288 237.762 264.948 239.81 264.948ZM260.916 261.24C260.916 263.288 259.256 264.948 257.208 264.948C255.161 264.948 253.501 263.288 253.501 261.24C253.501 259.192 255.161 257.532 257.208 257.532C259.256 257.532 260.916 259.192 260.916 261.24ZM48.708 283.488C50.7558 283.488 52.4159 281.828 52.4159 279.78C52.4159 277.732 50.7558 276.072 48.708 276.072C46.6601 276.072 45 277.732 45 279.78C45 281.828 46.6601 283.488 48.708 283.488ZM69.8146 279.78C69.8146 281.828 68.1545 283.488 66.1066 283.488C64.0588 283.488 62.3987 281.828 62.3987 279.78C62.3987 277.732 64.0588 276.072 66.1066 276.072C68.1545 276.072 69.8146 277.732 69.8146 279.78ZM83.5053 283.488C85.5531 283.488 87.2132 281.828 87.2132 279.78C87.2132 277.732 85.5531 276.072 83.5053 276.072C81.4574 276.072 79.7974 277.732 79.7974 279.78C79.7974 281.828 81.4574 283.488 83.5053 283.488ZM104.612 279.78C104.612 281.828 102.952 283.488 100.904 283.488C98.8565 283.488 97.1964 281.828 97.1964 279.78C97.1964 277.732 98.8565 276.072 100.904 276.072C102.952 276.072 104.612 277.732 104.612 279.78ZM118.303 283.488C120.351 283.488 122.011 281.828 122.011 279.78C122.011 277.732 120.351 276.072 118.303 276.072C116.255 276.072 114.595 277.732 114.595 279.78C114.595 281.828 116.255 283.488 118.303 283.488ZM139.267 279.78C139.267 281.828 137.607 283.488 135.559 283.488C133.511 283.488 131.851 281.828 131.851 279.78C131.851 277.732 133.511 276.072 135.559 276.072C137.607 276.072 139.267 277.732 139.267 279.78ZM152.958 283.488C155.006 283.488 156.666 281.828 156.666 279.78C156.666 277.732 155.006 276.072 152.958 276.072C150.911 276.072 149.25 277.732 149.25 279.78C149.25 281.828 150.911 283.488 152.958 283.488ZM174.065 279.78C174.065 281.828 172.405 283.488 170.357 283.488C168.309 283.488 166.649 281.828 166.649 279.78C166.649 277.732 168.309 276.072 170.357 276.072C172.405 276.072 174.065 277.732 174.065 279.78ZM187.756 283.488C189.804 283.488 191.464 281.828 191.464 279.78C191.464 277.732 189.804 276.072 187.756 276.072C185.708 276.072 184.048 277.732 184.048 279.78C184.048 281.828 185.708 283.488 187.756 283.488ZM208.72 279.78C208.72 281.828 207.06 283.488 205.012 283.488C202.965 283.488 201.304 281.828 201.304 279.78C201.304 277.732 202.965 276.072 205.012 276.072C207.06 276.072 208.72 277.732 208.72 279.78ZM222.411 283.488C224.459 283.488 226.119 281.828 226.119 279.78C226.119 277.732 224.459 276.072 222.411 276.072C220.363 276.072 218.703 277.732 218.703 279.78C218.703 281.828 220.363 283.488 222.411 283.488ZM243.518 279.78C243.518 281.828 241.858 283.488 239.81 283.488C237.762 283.488 236.102 281.828 236.102 279.78C236.102 277.732 237.762 276.072 239.81 276.072C241.858 276.072 243.518 277.732 243.518 279.78ZM257.208 283.488C259.256 283.488 260.916 281.828 260.916 279.78C260.916 277.732 259.256 276.072 257.208 276.072C255.161 276.072 253.501 277.732 253.501 279.78C253.501 281.828 255.161 283.488 257.208 283.488ZM48.7077 294.611C50.7043 294.611 52.4157 296.323 52.4157 298.319C52.4157 299.888 51.56 301.171 50.1338 301.742C49.2782 299.46 48.4225 297.036 47.7094 294.754C47.9947 294.611 48.4225 294.611 48.7077 294.611ZM66.1066 302.027C68.1545 302.027 69.8146 300.367 69.8146 298.319C69.8146 296.271 68.1545 294.611 66.1066 294.611C64.0588 294.611 62.3987 296.271 62.3987 298.319C62.3987 300.367 64.0588 302.027 66.1066 302.027ZM87.2132 298.319C87.2132 300.367 85.5531 302.027 83.5053 302.027C81.4574 302.027 79.7974 300.367 79.7974 298.319C79.7974 296.271 81.4574 294.611 83.5053 294.611C85.5531 294.611 87.2132 296.271 87.2132 298.319ZM100.904 302.027C102.952 302.027 104.612 300.367 104.612 298.319C104.612 296.271 102.952 294.611 100.904 294.611C98.8565 294.611 97.1964 296.271 97.1964 298.319C97.1964 300.367 98.8565 302.027 100.904 302.027ZM122.011 298.319C122.011 300.367 120.351 302.027 118.303 302.027C116.255 302.027 114.595 300.367 114.595 298.319C114.595 296.271 116.255 294.611 118.303 294.611C120.351 294.611 122.011 296.271 122.011 298.319ZM135.559 302.027C137.607 302.027 139.267 300.367 139.267 298.319C139.267 296.271 137.607 294.611 135.559 294.611C133.511 294.611 131.851 296.271 131.851 298.319C131.851 300.367 133.511 302.027 135.559 302.027ZM156.666 298.319C156.666 300.367 155.006 302.027 152.958 302.027C150.911 302.027 149.25 300.367 149.25 298.319C149.25 296.271 150.911 294.611 152.958 294.611C155.006 294.611 156.666 296.271 156.666 298.319ZM170.357 302.027C172.405 302.027 174.065 300.367 174.065 298.319C174.065 296.271 172.405 294.611 170.357 294.611C168.309 294.611 166.649 296.271 166.649 298.319C166.649 300.367 168.309 302.027 170.357 302.027ZM191.464 298.319C191.464 300.367 189.804 302.027 187.756 302.027C185.708 302.027 184.048 300.367 184.048 298.319C184.048 296.271 185.708 294.611 187.756 294.611C189.804 294.611 191.464 296.271 191.464 298.319ZM205.012 302.027C207.06 302.027 208.72 300.367 208.72 298.319C208.72 296.271 207.06 294.611 205.012 294.611C202.965 294.611 201.304 296.271 201.304 298.319C201.304 300.367 202.965 302.027 205.012 302.027ZM226.119 298.319C226.119 300.367 224.459 302.027 222.411 302.027C220.363 302.027 218.703 300.367 218.703 298.319C218.703 296.271 220.363 294.611 222.411 294.611C224.459 294.611 226.119 296.271 226.119 298.319ZM239.81 302.027C241.858 302.027 243.518 300.367 243.518 298.319C243.518 296.271 241.858 294.611 239.81 294.611C237.762 294.611 236.102 296.271 236.102 298.319C236.102 300.367 237.762 302.027 239.81 302.027ZM255.64 301.742C254.356 301.171 253.501 299.888 253.501 298.319C253.501 296.323 255.069 294.611 257.066 294.611C257.494 294.611 257.779 294.611 258.064 294.754C257.351 297.178 256.496 299.46 255.64 301.741L255.64 301.742ZM66.1066 320.567C68.1545 320.567 69.8146 318.907 69.8146 316.859C69.8146 314.811 68.1545 313.151 66.1066 313.151C64.0588 313.151 62.3987 314.811 62.3987 316.859C62.3987 318.907 64.0588 320.567 66.1066 320.567ZM87.2132 316.859C87.2132 318.907 85.5531 320.567 83.5053 320.567C81.4574 320.567 79.7974 318.907 79.7974 316.859C79.7974 314.811 81.4574 313.151 83.5053 313.151C85.5531 313.151 87.2132 314.811 87.2132 316.859ZM100.904 320.567C102.952 320.567 104.612 318.907 104.612 316.859C104.612 314.811 102.952 313.151 100.904 313.151C98.8565 313.151 97.1964 314.811 97.1964 316.859C97.1964 318.907 98.8565 320.567 100.904 320.567ZM122.011 316.859C122.011 318.907 120.351 320.567 118.303 320.567C116.255 320.567 114.595 318.907 114.595 316.859C114.595 314.811 116.255 313.151 118.303 313.151C120.351 313.151 122.011 314.811 122.011 316.859ZM135.559 320.567C137.607 320.567 139.267 318.907 139.267 316.859C139.267 314.811 137.607 313.151 135.559 313.151C133.511 313.151 131.851 314.811 131.851 316.859C131.851 318.907 133.511 320.567 135.559 320.567ZM156.666 316.859C156.666 318.907 155.006 320.567 152.958 320.567C150.911 320.567 149.25 318.907 149.25 316.859C149.25 314.811 150.911 313.151 152.958 313.151C155.006 313.151 156.666 314.811 156.666 316.859ZM170.357 320.567C172.405 320.567 174.065 318.907 174.065 316.859C174.065 314.811 172.405 313.151 170.357 313.151C168.309 313.151 166.649 314.811 166.649 316.859C166.649 318.907 168.309 320.567 170.357 320.567ZM191.464 316.859C191.464 318.907 189.804 320.567 187.756 320.567C185.708 320.567 184.048 318.907 184.048 316.859C184.048 314.811 185.708 313.151 187.756 313.151C189.804 313.151 191.464 314.811 191.464 316.859ZM205.012 320.567C207.06 320.567 208.72 318.907 208.72 316.859C208.72 314.811 207.06 313.151 205.012 313.151C202.965 313.151 201.304 314.811 201.304 316.859C201.304 318.907 202.965 320.567 205.012 320.567ZM226.119 316.859C226.119 318.907 224.459 320.567 222.411 320.567C220.363 320.567 218.703 318.907 218.703 316.859C218.703 314.811 220.363 313.151 222.411 313.151C224.459 313.151 226.119 314.811 226.119 316.859ZM239.81 320.567C241.858 320.567 243.518 318.907 243.518 316.859C243.518 314.811 241.858 313.151 239.81 313.151C237.762 313.151 236.102 314.811 236.102 316.859C236.102 318.907 237.762 320.567 239.81 320.567ZM87.2132 335.399C87.2132 337.447 85.5531 339.107 83.5053 339.107C81.4574 339.107 79.7974 337.447 79.7974 335.399C79.7974 333.351 81.4574 331.691 83.5053 331.691C85.5531 331.691 87.2132 333.351 87.2132 335.399ZM100.904 339.107C102.952 339.107 104.612 337.447 104.612 335.399C104.612 333.351 102.952 331.691 100.904 331.691C98.8565 331.691 97.1964 333.351 97.1964 335.399C97.1964 337.447 98.8565 339.107 100.904 339.107ZM122.011 335.399C122.011 337.447 120.351 339.107 118.303 339.107C116.255 339.107 114.595 337.447 114.595 335.399C114.595 333.351 116.255 331.691 118.303 331.691C120.351 331.691 122.011 333.351 122.011 335.399ZM135.559 339.107C137.607 339.107 139.267 337.447 139.267 335.399C139.267 333.351 137.607 331.691 135.559 331.691C133.511 331.691 131.851 333.351 131.851 335.399C131.851 337.447 133.511 339.107 135.559 339.107ZM156.666 335.399C156.666 337.447 155.006 339.107 152.958 339.107C150.911 339.107 149.25 337.447 149.25 335.399C149.25 333.351 150.911 331.691 152.958 331.691C155.006 331.691 156.666 333.351 156.666 335.399ZM170.357 339.107C172.405 339.107 174.065 337.447 174.065 335.399C174.065 333.351 172.405 331.691 170.357 331.691C168.309 331.691 166.649 333.351 166.649 335.399C166.649 337.447 168.309 339.107 170.357 339.107ZM191.464 335.399C191.464 337.447 189.804 339.107 187.756 339.107C185.708 339.107 184.048 337.447 184.048 335.399C184.048 333.351 185.708 331.691 187.756 331.691C189.804 331.691 191.464 333.351 191.464 335.399ZM205.012 339.107C207.06 339.107 208.72 337.447 208.72 335.399C208.72 333.351 207.06 331.691 205.012 331.691C202.965 331.691 201.304 333.351 201.304 335.399C201.304 337.447 202.965 339.107 205.012 339.107ZM226.119 335.399C226.119 337.447 224.459 339.107 222.411 339.107C220.363 339.107 218.703 337.447 218.703 335.399C218.703 333.351 220.363 331.691 222.411 331.691C224.459 331.691 226.119 333.351 226.119 335.399ZM100.904 357.647C102.952 357.647 104.612 355.987 104.612 353.939C104.612 351.891 102.952 350.231 100.904 350.231C98.8565 350.231 97.1964 351.891 97.1964 353.939C97.1964 355.987 98.8565 357.647 100.904 357.647ZM122.011 353.939C122.011 355.987 120.351 357.647 118.303 357.647C116.255 357.647 114.595 355.987 114.595 353.939C114.595 351.891 116.255 350.231 118.303 350.231C120.351 350.231 122.011 351.891 122.011 353.939ZM135.559 357.647C137.607 357.647 139.267 355.987 139.267 353.939C139.267 351.891 137.607 350.231 135.559 350.231C133.511 350.231 131.851 351.891 131.851 353.939C131.851 355.987 133.511 357.647 135.559 357.647ZM156.666 353.939C156.666 355.987 155.006 357.647 152.958 357.647C150.911 357.647 149.25 355.987 149.25 353.939C149.25 351.891 150.911 350.231 152.958 350.231C155.006 350.231 156.666 351.891 156.666 353.939ZM170.357 357.647C172.405 357.647 174.065 355.987 174.065 353.939C174.065 351.891 172.405 350.231 170.357 350.231C168.309 350.231 166.649 351.891 166.649 353.939C166.649 355.987 168.309 357.647 170.357 357.647ZM191.464 353.939C191.464 355.987 189.804 357.647 187.756 357.647C185.708 357.647 184.048 355.987 184.048 353.939C184.048 351.891 185.708 350.231 187.756 350.231C189.804 350.231 191.464 351.891 191.464 353.939ZM205.012 357.647C207.06 357.647 208.72 355.987 208.72 353.939C208.72 351.891 207.06 350.231 205.012 350.231C202.965 350.231 201.304 351.891 201.304 353.939C201.304 355.987 202.965 357.647 205.012 357.647ZM132.992 369.768C133.705 369.198 134.561 368.77 135.559 368.77C136.985 368.77 138.269 369.626 138.839 370.624C137.427 370.523 136.015 370.28 134.653 370.045L134.653 370.045C134.09 369.948 133.535 369.852 132.992 369.768ZM152.958 368.77C151.247 368.77 149.821 369.911 149.393 371.622H152.958H156.524C156.096 369.911 154.67 368.77 152.958 368.77ZM170.001 370.339C169.038 370.482 168.075 370.625 167.077 370.767C167.79 369.626 168.931 368.771 170.357 368.913C171.356 368.913 172.211 369.198 172.924 369.911C171.926 370.054 170.963 370.197 170.001 370.339Z" fill="url(#paint18_radial_2433_124)"/>
<path opacity="0.7" fill-rule="evenodd" clip-rule="evenodd" d="M1213.37 45.8103C1215.06 45.8103 1216.46 44.6862 1216.88 43H1213.37H1209.86C1210.28 44.5457 1211.68 45.8103 1213.37 45.8103ZM1199.46 43.843C1198.48 43.9835 1197.53 44.124 1196.58 44.2645C1195.63 44.4051 1194.68 44.5456 1193.7 44.6861C1194.4 45.3887 1195.24 45.6697 1196.23 45.6697C1197.63 45.8102 1198.9 44.9671 1199.46 43.843ZM1233.04 44.8269C1232.34 45.389 1231.5 45.8105 1230.51 45.8105C1229.11 45.8105 1227.98 44.9674 1227.28 43.9838C1228.67 44.0832 1230.06 44.3232 1231.41 44.5546L1231.41 44.5546C1231.96 44.6504 1232.51 44.7446 1233.04 44.8269ZM1162.08 64.0775C1164.1 64.0775 1165.74 62.4418 1165.74 60.4241C1165.74 58.4063 1164.1 56.7706 1162.08 56.7706C1160.06 56.7706 1158.43 58.4063 1158.43 60.4241C1158.43 62.4418 1160.06 64.0775 1162.08 64.0775ZM1182.88 60.4241C1182.88 62.4418 1181.24 64.0775 1179.23 64.0775C1177.21 64.0775 1175.57 62.4418 1175.57 60.4241C1175.57 58.4063 1177.21 56.7706 1179.23 56.7706C1181.24 56.7706 1182.88 58.4063 1182.88 60.4241ZM1196.23 64.0775C1198.25 64.0775 1199.88 62.4418 1199.88 60.4241C1199.88 58.4063 1198.25 56.7706 1196.23 56.7706C1194.21 56.7706 1192.57 58.4063 1192.57 60.4241C1192.57 62.4418 1194.21 64.0775 1196.23 64.0775ZM1217.02 60.4241C1217.02 62.4418 1215.39 64.0775 1213.37 64.0775C1211.35 64.0775 1209.72 62.4418 1209.72 60.4241C1209.72 58.4063 1211.35 56.7706 1213.37 56.7706C1215.39 56.7706 1217.02 58.4063 1217.02 60.4241ZM1230.51 64.0775C1232.53 64.0775 1234.17 62.4418 1234.17 60.4241C1234.17 58.4063 1232.53 56.7706 1230.51 56.7706C1228.5 56.7706 1226.86 58.4063 1226.86 60.4241C1226.86 62.4418 1228.5 64.0775 1230.51 64.0775ZM1251.31 60.4242C1251.31 62.4419 1249.67 64.0776 1247.66 64.0776C1245.64 64.0776 1244 62.4419 1244 60.4242C1244 58.4064 1245.64 56.7708 1247.66 56.7708C1249.67 56.7708 1251.31 58.4064 1251.31 60.4242ZM1264.66 64.0775C1266.68 64.0775 1268.31 62.4418 1268.31 60.4241C1268.31 58.4063 1266.68 56.7706 1264.66 56.7706C1262.64 56.7706 1261.01 58.4063 1261.01 60.4241C1261.01 62.4418 1262.64 64.0775 1264.66 64.0775ZM1148.59 78.5505C1148.59 80.5682 1146.96 82.2039 1144.94 82.2039C1142.92 82.2039 1141.29 80.5682 1141.29 78.5505C1141.29 76.5328 1142.92 74.8971 1144.94 74.8971C1146.96 74.8971 1148.59 76.5328 1148.59 78.5505ZM1162.08 82.2039C1164.1 82.2039 1165.74 80.5682 1165.74 78.5505C1165.74 76.5328 1164.1 74.8971 1162.08 74.8971C1160.06 74.8971 1158.43 76.5328 1158.43 78.5505C1158.43 80.5682 1160.06 82.2039 1162.08 82.2039ZM1182.88 78.5505C1182.88 80.5682 1181.24 82.2039 1179.23 82.2039C1177.21 82.2039 1175.57 80.5682 1175.57 78.5505C1175.57 76.5328 1177.21 74.8971 1179.23 74.8971C1181.24 74.8971 1182.88 76.5328 1182.88 78.5505ZM1196.23 82.2039C1198.25 82.2039 1199.88 80.5682 1199.88 78.5505C1199.88 76.5328 1198.25 74.8971 1196.23 74.8971C1194.21 74.8971 1192.57 76.5328 1192.57 78.5505C1192.57 80.5682 1194.21 82.2039 1196.23 82.2039ZM1217.02 78.5505C1217.02 80.5682 1215.39 82.2039 1213.37 82.2039C1211.35 82.2039 1209.72 80.5682 1209.72 78.5505C1209.72 76.5328 1211.35 74.8971 1213.37 74.8971C1215.39 74.8971 1217.02 76.5328 1217.02 78.5505ZM1230.51 82.2039C1232.53 82.2039 1234.17 80.5682 1234.17 78.5505C1234.17 76.5328 1232.53 74.8971 1230.51 74.8971C1228.5 74.8971 1226.86 76.5328 1226.86 78.5505C1226.86 80.5682 1228.5 82.2039 1230.51 82.2039ZM1251.31 78.5504C1251.31 80.5681 1249.67 82.2038 1247.66 82.2038C1245.64 82.2038 1244 80.5681 1244 78.5504C1244 76.5327 1245.64 74.897 1247.66 74.897C1249.67 74.897 1251.31 76.5327 1251.31 78.5504ZM1264.66 82.2039C1266.68 82.2039 1268.31 80.5682 1268.31 78.5505C1268.31 76.5328 1266.68 74.8971 1264.66 74.8971C1262.64 74.8971 1261.01 76.5328 1261.01 78.5505C1261.01 80.5682 1262.64 82.2039 1264.66 82.2039ZM1285.46 78.5505C1285.46 80.5682 1283.82 82.2039 1281.8 82.2039C1279.78 82.2039 1278.15 80.5682 1278.15 78.5505C1278.15 76.5328 1279.78 74.8971 1281.8 74.8971C1283.82 74.8971 1285.46 76.5328 1285.46 78.5505ZM1127.8 100.471C1129.81 100.471 1131.45 98.8352 1131.45 96.8175C1131.45 94.7998 1129.81 93.1641 1127.8 93.1641C1125.78 93.1641 1124.14 94.7998 1124.14 96.8175C1124.14 98.8352 1125.78 100.471 1127.8 100.471ZM1148.59 96.8175C1148.59 98.8352 1146.96 100.471 1144.94 100.471C1142.92 100.471 1141.29 98.8352 1141.29 96.8175C1141.29 94.7998 1142.92 93.1641 1144.94 93.1641C1146.96 93.1641 1148.59 94.7998 1148.59 96.8175ZM1162.08 100.471C1164.1 100.471 1165.74 98.8352 1165.74 96.8175C1165.74 94.7998 1164.1 93.1641 1162.08 93.1641C1160.06 93.1641 1158.43 94.7998 1158.43 96.8175C1158.43 98.8352 1160.06 100.471 1162.08 100.471ZM1182.88 96.8175C1182.88 98.8352 1181.24 100.471 1179.23 100.471C1177.21 100.471 1175.57 98.8352 1175.57 96.8175C1175.57 94.7998 1177.21 93.1641 1179.23 93.1641C1181.24 93.1641 1182.88 94.7998 1182.88 96.8175ZM1196.23 100.471C1198.25 100.471 1199.88 98.8352 1199.88 96.8175C1199.88 94.7998 1198.25 93.1641 1196.23 93.1641C1194.21 93.1641 1192.57 94.7998 1192.57 96.8175C1192.57 98.8352 1194.21 100.471 1196.23 100.471ZM1217.02 96.8175C1217.02 98.8352 1215.39 100.471 1213.37 100.471C1211.35 100.471 1209.72 98.8352 1209.72 96.8175C1209.72 94.7998 1211.35 93.1641 1213.37 93.1641C1215.39 93.1641 1217.02 94.7998 1217.02 96.8175ZM1230.51 100.471C1232.53 100.471 1234.17 98.8352 1234.17 96.8175C1234.17 94.7998 1232.53 93.1641 1230.51 93.1641C1228.5 93.1641 1226.86 94.7998 1226.86 96.8175C1226.86 98.8352 1228.5 100.471 1230.51 100.471ZM1251.31 96.8175C1251.31 98.8352 1249.67 100.471 1247.66 100.471C1245.64 100.471 1244 98.8352 1244 96.8175C1244 94.7998 1245.64 93.1641 1247.66 93.1641C1249.67 93.1641 1251.31 94.7998 1251.31 96.8175ZM1264.66 100.471C1266.68 100.471 1268.31 98.8352 1268.31 96.8175C1268.31 94.7998 1266.68 93.1641 1264.66 93.1641C1262.64 93.1641 1261.01 94.7998 1261.01 96.8175C1261.01 98.8352 1262.64 100.471 1264.66 100.471ZM1285.46 96.8175C1285.46 98.8352 1283.82 100.471 1281.8 100.471C1279.78 100.471 1278.15 98.8352 1278.15 96.8175C1278.15 94.7998 1279.78 93.1641 1281.8 93.1641C1283.82 93.1641 1285.46 94.7998 1285.46 96.8175ZM1298.94 100.471C1300.96 100.471 1302.6 98.8352 1302.6 96.8175C1302.6 94.7998 1300.96 93.1641 1298.94 93.1641C1296.93 93.1641 1295.29 94.7998 1295.29 96.8175C1295.29 98.8352 1296.93 100.471 1298.94 100.471ZM1112.2 111.712C1113.46 112.274 1114.31 113.539 1114.31 115.085C1114.31 117.192 1112.76 118.738 1110.79 118.738C1110.37 118.738 1110.09 118.738 1109.81 118.597C1110.51 116.209 1111.36 113.961 1112.2 111.713L1112.2 111.712ZM1127.8 118.738C1129.81 118.738 1131.45 117.102 1131.45 115.085C1131.45 113.067 1129.81 111.431 1127.8 111.431C1125.78 111.431 1124.14 113.067 1124.14 115.085C1124.14 117.102 1125.78 118.738 1127.8 118.738ZM1148.59 115.085C1148.59 117.102 1146.96 118.738 1144.94 118.738C1142.92 118.738 1141.29 117.102 1141.29 115.085C1141.29 113.067 1142.92 111.431 1144.94 111.431C1146.96 111.431 1148.59 113.067 1148.59 115.085ZM1162.08 118.738C1164.1 118.738 1165.74 117.102 1165.74 115.085C1165.74 113.067 1164.1 111.431 1162.08 111.431C1160.06 111.431 1158.43 113.067 1158.43 115.085C1158.43 117.102 1160.06 118.738 1162.08 118.738ZM1182.88 115.085C1182.88 117.102 1181.24 118.738 1179.23 118.738C1177.21 118.738 1175.57 117.102 1175.57 115.085C1175.57 113.067 1177.21 111.431 1179.23 111.431C1181.24 111.431 1182.88 113.067 1182.88 115.085ZM1196.23 118.738C1198.25 118.738 1199.88 117.102 1199.88 115.085C1199.88 113.067 1198.25 111.431 1196.23 111.431C1194.21 111.431 1192.57 113.067 1192.57 115.085C1192.57 117.102 1194.21 118.738 1196.23 118.738ZM1217.02 115.085C1217.02 117.102 1215.39 118.738 1213.37 118.738C1211.35 118.738 1209.72 117.102 1209.72 115.085C1209.72 113.067 1211.35 111.431 1213.37 111.431C1215.39 111.431 1217.02 113.067 1217.02 115.085ZM1230.51 118.738C1232.53 118.738 1234.17 117.102 1234.17 115.085C1234.17 113.067 1232.53 111.431 1230.51 111.431C1228.5 111.431 1226.86 113.067 1226.86 115.085C1226.86 117.102 1228.5 118.738 1230.51 118.738ZM1251.31 115.085C1251.31 117.103 1249.67 118.738 1247.66 118.738C1245.64 118.738 1244 117.103 1244 115.085C1244 113.067 1245.64 111.431 1247.66 111.431C1249.67 111.431 1251.31 113.067 1251.31 115.085ZM1264.66 118.738C1266.68 118.738 1268.31 117.102 1268.31 115.085C1268.31 113.067 1266.68 111.431 1264.66 111.431C1262.64 111.431 1261.01 113.067 1261.01 115.085C1261.01 117.102 1262.64 118.738 1264.66 118.738ZM1285.46 115.085C1285.46 117.102 1283.82 118.738 1281.8 118.738C1279.78 118.738 1278.15 117.102 1278.15 115.085C1278.15 113.067 1279.78 111.431 1281.8 111.431C1283.82 111.431 1285.46 113.067 1285.46 115.085ZM1298.94 118.738C1300.96 118.738 1302.6 117.102 1302.6 115.085C1302.6 113.067 1300.96 111.431 1298.94 111.431C1296.93 111.431 1295.29 113.067 1295.29 115.085C1295.29 117.102 1296.93 118.738 1298.94 118.738ZM1316.09 118.738C1314.12 118.738 1312.43 117.052 1312.43 115.085C1312.43 113.679 1313.28 112.415 1314.68 111.712C1315.53 113.96 1316.37 116.349 1317.07 118.597C1316.79 118.738 1316.37 118.738 1316.09 118.738ZM1110.65 137.005C1112.67 137.005 1114.31 135.369 1114.31 133.352C1114.31 131.334 1112.67 129.698 1110.65 129.698C1108.64 129.698 1107 131.334 1107 133.352C1107 135.369 1108.64 137.005 1110.65 137.005ZM1131.45 133.352C1131.45 135.369 1129.81 137.005 1127.8 137.005C1125.78 137.005 1124.14 135.369 1124.14 133.352C1124.14 131.334 1125.78 129.698 1127.8 129.698C1129.81 129.698 1131.45 131.334 1131.45 133.352ZM1144.94 137.005C1146.96 137.005 1148.59 135.369 1148.59 133.352C1148.59 131.334 1146.96 129.698 1144.94 129.698C1142.92 129.698 1141.29 131.334 1141.29 133.352C1141.29 135.369 1142.92 137.005 1144.94 137.005ZM1165.74 133.352C1165.74 135.369 1164.1 137.005 1162.08 137.005C1160.06 137.005 1158.43 135.369 1158.43 133.352C1158.43 131.334 1160.06 129.698 1162.08 129.698C1164.1 129.698 1165.74 131.334 1165.74 133.352ZM1179.23 137.005C1181.24 137.005 1182.88 135.369 1182.88 133.352C1182.88 131.334 1181.24 129.698 1179.23 129.698C1177.21 129.698 1175.57 131.334 1175.57 133.352C1175.57 135.369 1177.21 137.005 1179.23 137.005ZM1199.88 133.352C1199.88 135.369 1198.25 137.005 1196.23 137.005C1194.21 137.005 1192.57 135.369 1192.57 133.352C1192.57 131.334 1194.21 129.698 1196.23 129.698C1198.25 129.698 1199.88 131.334 1199.88 133.352ZM1213.37 137.005C1215.39 137.005 1217.02 135.369 1217.02 133.352C1217.02 131.334 1215.39 129.698 1213.37 129.698C1211.35 129.698 1209.72 131.334 1209.72 133.352C1209.72 135.369 1211.35 137.005 1213.37 137.005ZM1234.17 133.352C1234.17 135.369 1232.53 137.005 1230.51 137.005C1228.5 137.005 1226.86 135.369 1226.86 133.352C1226.86 131.334 1228.5 129.698 1230.51 129.698C1232.53 129.698 1234.17 131.334 1234.17 133.352ZM1247.66 137.005C1249.67 137.005 1251.31 135.369 1251.31 133.352C1251.31 131.334 1249.67 129.698 1247.66 129.698C1245.64 129.698 1244 131.334 1244 133.352C1244 135.369 1245.64 137.005 1247.66 137.005ZM1268.31 133.352C1268.31 135.369 1266.68 137.005 1264.66 137.005C1262.64 137.005 1261.01 135.369 1261.01 133.352C1261.01 131.334 1262.64 129.698 1264.66 129.698C1266.68 129.698 1268.31 131.334 1268.31 133.352ZM1281.8 137.005C1283.82 137.005 1285.46 135.369 1285.46 133.352C1285.46 131.334 1283.82 129.698 1281.8 129.698C1279.78 129.698 1278.15 131.334 1278.15 133.352C1278.15 135.369 1279.78 137.005 1281.8 137.005ZM1302.6 133.352C1302.6 135.369 1300.96 137.005 1298.94 137.005C1296.93 137.005 1295.29 135.369 1295.29 133.352C1295.29 131.334 1296.93 129.698 1298.94 129.698C1300.96 129.698 1302.6 131.334 1302.6 133.352ZM1316.09 137.005C1318.11 137.005 1319.74 135.369 1319.74 133.352C1319.74 131.334 1318.11 129.698 1316.09 129.698C1314.07 129.698 1312.43 131.334 1312.43 133.352C1312.43 135.369 1314.07 137.005 1316.09 137.005ZM1114.31 151.619C1114.31 153.636 1112.67 155.272 1110.65 155.272C1108.64 155.272 1107 153.636 1107 151.619C1107 149.601 1108.64 147.965 1110.65 147.965C1112.67 147.965 1114.31 149.601 1114.31 151.619ZM1127.8 155.272C1129.81 155.272 1131.45 153.636 1131.45 151.619C1131.45 149.601 1129.81 147.965 1127.8 147.965C1125.78 147.965 1124.14 149.601 1124.14 151.619C1124.14 153.636 1125.78 155.272 1127.8 155.272ZM1148.59 151.619C1148.59 153.636 1146.96 155.272 1144.94 155.272C1142.92 155.272 1141.29 153.636 1141.29 151.619C1141.29 149.601 1142.92 147.965 1144.94 147.965C1146.96 147.965 1148.59 149.601 1148.59 151.619ZM1162.08 155.272C1164.1 155.272 1165.74 153.636 1165.74 151.619C1165.74 149.601 1164.1 147.965 1162.08 147.965C1160.06 147.965 1158.43 149.601 1158.43 151.619C1158.43 153.636 1160.06 155.272 1162.08 155.272ZM1182.88 151.619C1182.88 153.636 1181.24 155.272 1179.23 155.272C1177.21 155.272 1175.57 153.636 1175.57 151.619C1175.57 149.601 1177.21 147.965 1179.23 147.965C1181.24 147.965 1182.88 149.601 1182.88 151.619ZM1196.23 155.272C1198.25 155.272 1199.88 153.636 1199.88 151.619C1199.88 149.601 1198.25 147.965 1196.23 147.965C1194.21 147.965 1192.57 149.601 1192.57 151.619C1192.57 153.636 1194.21 155.272 1196.23 155.272ZM1217.02 151.619C1217.02 153.636 1215.39 155.272 1213.37 155.272C1211.35 155.272 1209.72 153.636 1209.72 151.619C1209.72 149.601 1211.35 147.965 1213.37 147.965C1215.39 147.965 1217.02 149.601 1217.02 151.619ZM1230.51 155.272C1232.53 155.272 1234.17 153.636 1234.17 151.619C1234.17 149.601 1232.53 147.965 1230.51 147.965C1228.5 147.965 1226.86 149.601 1226.86 151.619C1226.86 153.636 1228.5 155.272 1230.51 155.272ZM1251.31 151.619C1251.31 153.636 1249.67 155.272 1247.66 155.272C1245.64 155.272 1244 153.636 1244 151.619C1244 149.601 1245.64 147.965 1247.66 147.965C1249.67 147.965 1251.31 149.601 1251.31 151.619ZM1264.66 155.272C1266.68 155.272 1268.31 153.636 1268.31 151.619C1268.31 149.601 1266.68 147.965 1264.66 147.965C1262.64 147.965 1261.01 149.601 1261.01 151.619C1261.01 153.636 1262.64 155.272 1264.66 155.272ZM1285.46 151.619C1285.46 153.636 1283.82 155.272 1281.8 155.272C1279.78 155.272 1278.15 153.636 1278.15 151.619C1278.15 149.601 1279.78 147.965 1281.8 147.965C1283.82 147.965 1285.46 149.601 1285.46 151.619ZM1298.94 155.272C1300.96 155.272 1302.6 153.636 1302.6 151.619C1302.6 149.601 1300.96 147.965 1298.94 147.965C1296.93 147.965 1295.29 149.601 1295.29 151.619C1295.29 153.636 1296.93 155.272 1298.94 155.272ZM1319.74 151.619C1319.74 153.636 1318.11 155.272 1316.09 155.272C1314.07 155.272 1312.43 153.636 1312.43 151.619C1312.43 149.601 1314.07 147.965 1316.09 147.965C1318.11 147.965 1319.74 149.601 1319.74 151.619ZM1110.65 173.539C1112.67 173.539 1114.31 171.903 1114.31 169.886C1114.31 167.868 1112.67 166.232 1110.65 166.232C1108.64 166.232 1107 167.868 1107 169.886C1107 171.903 1108.64 173.539 1110.65 173.539ZM1131.45 169.886C1131.45 171.903 1129.81 173.539 1127.8 173.539C1125.78 173.539 1124.14 171.903 1124.14 169.886C1124.14 167.868 1125.78 166.232 1127.8 166.232C1129.81 166.232 1131.45 167.868 1131.45 169.886ZM1144.94 173.539C1146.96 173.539 1148.59 171.903 1148.59 169.886C1148.59 167.868 1146.96 166.232 1144.94 166.232C1142.92 166.232 1141.29 167.868 1141.29 169.886C1141.29 171.903 1142.92 173.539 1144.94 173.539ZM1165.74 169.886C1165.74 171.903 1164.1 173.539 1162.08 173.539C1160.06 173.539 1158.43 171.903 1158.43 169.886C1158.43 167.868 1160.06 166.232 1162.08 166.232C1164.1 166.232 1165.74 167.868 1165.74 169.886ZM1179.23 173.539C1181.24 173.539 1182.88 171.903 1182.88 169.886C1182.88 167.868 1181.24 166.232 1179.23 166.232C1177.21 166.232 1175.57 167.868 1175.57 169.886C1175.57 171.903 1177.21 173.539 1179.23 173.539ZM1199.88 169.886C1199.88 171.903 1198.25 173.539 1196.23 173.539C1194.21 173.539 1192.57 171.903 1192.57 169.886C1192.57 167.868 1194.21 166.232 1196.23 166.232C1198.25 166.232 1199.88 167.868 1199.88 169.886ZM1213.37 173.539C1215.39 173.539 1217.02 171.903 1217.02 169.886C1217.02 167.868 1215.39 166.232 1213.37 166.232C1211.35 166.232 1209.72 167.868 1209.72 169.886C1209.72 171.903 1211.35 173.539 1213.37 173.539ZM1234.17 169.886C1234.17 171.903 1232.53 173.539 1230.51 173.539C1228.5 173.539 1226.86 171.903 1226.86 169.886C1226.86 167.868 1228.5 166.232 1230.51 166.232C1232.53 166.232 1234.17 167.868 1234.17 169.886ZM1247.66 173.539C1249.67 173.539 1251.31 171.904 1251.31 169.886C1251.31 167.868 1249.67 166.232 1247.66 166.232C1245.64 166.232 1244 167.868 1244 169.886C1244 171.904 1245.64 173.539 1247.66 173.539ZM1268.31 169.886C1268.31 171.903 1266.68 173.539 1264.66 173.539C1262.64 173.539 1261.01 171.903 1261.01 169.886C1261.01 167.868 1262.64 166.232 1264.66 166.232C1266.68 166.232 1268.31 167.868 1268.31 169.886ZM1281.8 173.539C1283.82 173.539 1285.46 171.903 1285.46 169.886C1285.46 167.868 1283.82 166.232 1281.8 166.232C1279.78 166.232 1278.15 167.868 1278.15 169.886C1278.15 171.903 1279.78 173.539 1281.8 173.539ZM1302.6 169.886C1302.6 171.903 1300.96 173.539 1298.94 173.539C1296.93 173.539 1295.29 171.903 1295.29 169.886C1295.29 167.868 1296.93 166.232 1298.94 166.232C1300.96 166.232 1302.6 167.868 1302.6 169.886ZM1316.09 173.539C1318.11 173.539 1319.74 171.903 1319.74 169.886C1319.74 167.868 1318.11 166.232 1316.09 166.232C1314.07 166.232 1312.43 167.868 1312.43 169.886C1312.43 171.903 1314.07 173.539 1316.09 173.539ZM1110.65 184.499C1112.62 184.499 1114.31 186.185 1114.31 188.152C1114.31 189.698 1113.46 190.963 1112.06 191.525C1111.22 189.277 1110.37 186.888 1109.67 184.64C1109.95 184.499 1110.37 184.499 1110.65 184.499ZM1127.8 191.806C1129.81 191.806 1131.45 190.17 1131.45 188.152C1131.45 186.135 1129.81 184.499 1127.8 184.499C1125.78 184.499 1124.14 186.135 1124.14 188.152C1124.14 190.17 1125.78 191.806 1127.8 191.806ZM1148.59 188.152C1148.59 190.17 1146.96 191.806 1144.94 191.806C1142.92 191.806 1141.29 190.17 1141.29 188.152C1141.29 186.135 1142.92 184.499 1144.94 184.499C1146.96 184.499 1148.59 186.135 1148.59 188.152ZM1162.08 191.806C1164.1 191.806 1165.74 190.17 1165.74 188.152C1165.74 186.135 1164.1 184.499 1162.08 184.499C1160.06 184.499 1158.43 186.135 1158.43 188.152C1158.43 190.17 1160.06 191.806 1162.08 191.806ZM1182.88 188.152C1182.88 190.17 1181.24 191.806 1179.23 191.806C1177.21 191.806 1175.57 190.17 1175.57 188.152C1175.57 186.135 1177.21 184.499 1179.23 184.499C1181.24 184.499 1182.88 186.135 1182.88 188.152ZM1196.23 191.806C1198.25 191.806 1199.88 190.17 1199.88 188.152C1199.88 186.135 1198.25 184.499 1196.23 184.499C1194.21 184.499 1192.57 186.135 1192.57 188.152C1192.57 190.17 1194.21 191.806 1196.23 191.806ZM1217.02 188.152C1217.02 190.17 1215.39 191.806 1213.37 191.806C1211.35 191.806 1209.72 190.17 1209.72 188.152C1209.72 186.135 1211.35 184.499 1213.37 184.499C1215.39 184.499 1217.02 186.135 1217.02 188.152ZM1230.51 191.806C1232.53 191.806 1234.17 190.17 1234.17 188.152C1234.17 186.135 1232.53 184.499 1230.51 184.499C1228.5 184.499 1226.86 186.135 1226.86 188.152C1226.86 190.17 1228.5 191.806 1230.51 191.806ZM1251.31 188.152C1251.31 190.17 1249.67 191.806 1247.66 191.806C1245.64 191.806 1244 190.17 1244 188.152C1244 186.135 1245.64 184.499 1247.66 184.499C1249.67 184.499 1251.31 186.135 1251.31 188.152ZM1264.66 191.806C1266.68 191.806 1268.31 190.17 1268.31 188.152C1268.31 186.135 1266.68 184.499 1264.66 184.499C1262.64 184.499 1261.01 186.135 1261.01 188.152C1261.01 190.17 1262.64 191.806 1264.66 191.806ZM1285.46 188.152C1285.46 190.17 1283.82 191.806 1281.8 191.806C1279.78 191.806 1278.15 190.17 1278.15 188.152C1278.15 186.135 1279.78 184.499 1281.8 184.499C1283.82 184.499 1285.46 186.135 1285.46 188.152ZM1298.94 191.806C1300.96 191.806 1302.6 190.17 1302.6 188.152C1302.6 186.135 1300.96 184.499 1298.94 184.499C1296.93 184.499 1295.29 186.135 1295.29 188.152C1295.29 190.17 1296.93 191.806 1298.94 191.806ZM1314.54 191.525C1313.28 190.963 1312.43 189.698 1312.43 188.152C1312.43 186.185 1313.98 184.499 1315.95 184.499C1316.37 184.499 1316.65 184.499 1316.93 184.64C1316.23 187.023 1315.39 189.265 1314.55 191.508L1314.55 191.508L1314.55 191.509L1314.55 191.509L1314.55 191.51L1314.55 191.511L1314.55 191.511L1314.55 191.512L1314.55 191.512L1314.55 191.513L1314.55 191.513L1314.55 191.514L1314.55 191.514L1314.55 191.515L1314.55 191.515L1314.54 191.516L1314.54 191.517L1314.54 191.517L1314.54 191.518L1314.54 191.518L1314.54 191.519L1314.54 191.519L1314.54 191.52L1314.54 191.52L1314.54 191.521L1314.54 191.522L1314.54 191.522L1314.54 191.523L1314.54 191.523L1314.54 191.524L1314.54 191.524L1314.54 191.525ZM1127.8 210.073C1129.81 210.073 1131.45 208.437 1131.45 206.42C1131.45 204.402 1129.81 202.766 1127.8 202.766C1125.78 202.766 1124.14 204.402 1124.14 206.42C1124.14 208.437 1125.78 210.073 1127.8 210.073ZM1148.59 206.42C1148.59 208.437 1146.96 210.073 1144.94 210.073C1142.92 210.073 1141.29 208.437 1141.29 206.42C1141.29 204.402 1142.92 202.766 1144.94 202.766C1146.96 202.766 1148.59 204.402 1148.59 206.42ZM1162.08 210.073C1164.1 210.073 1165.74 208.437 1165.74 206.42C1165.74 204.402 1164.1 202.766 1162.08 202.766C1160.06 202.766 1158.43 204.402 1158.43 206.42C1158.43 208.437 1160.06 210.073 1162.08 210.073ZM1182.88 206.42C1182.88 208.437 1181.24 210.073 1179.23 210.073C1177.21 210.073 1175.57 208.437 1175.57 206.42C1175.57 204.402 1177.21 202.766 1179.23 202.766C1181.24 202.766 1182.88 204.402 1182.88 206.42ZM1196.23 210.073C1198.25 210.073 1199.88 208.437 1199.88 206.42C1199.88 204.402 1198.25 202.766 1196.23 202.766C1194.21 202.766 1192.57 204.402 1192.57 206.42C1192.57 208.437 1194.21 210.073 1196.23 210.073ZM1217.02 206.42C1217.02 208.437 1215.39 210.073 1213.37 210.073C1211.35 210.073 1209.72 208.437 1209.72 206.42C1209.72 204.402 1211.35 202.766 1213.37 202.766C1215.39 202.766 1217.02 204.402 1217.02 206.42ZM1230.51 210.073C1232.53 210.073 1234.17 208.437 1234.17 206.42C1234.17 204.402 1232.53 202.766 1230.51 202.766C1228.5 202.766 1226.86 204.402 1226.86 206.42C1226.86 208.437 1228.5 210.073 1230.51 210.073ZM1251.31 206.42C1251.31 208.438 1249.67 210.073 1247.66 210.073C1245.64 210.073 1244 208.438 1244 206.42C1244 204.402 1245.64 202.766 1247.66 202.766C1249.67 202.766 1251.31 204.402 1251.31 206.42ZM1264.66 210.073C1266.68 210.073 1268.31 208.437 1268.31 206.42C1268.31 204.402 1266.68 202.766 1264.66 202.766C1262.64 202.766 1261.01 204.402 1261.01 206.42C1261.01 208.437 1262.64 210.073 1264.66 210.073ZM1285.46 206.42C1285.46 208.437 1283.82 210.073 1281.8 210.073C1279.78 210.073 1278.15 208.437 1278.15 206.42C1278.15 204.402 1279.78 202.766 1281.8 202.766C1283.82 202.766 1285.46 204.402 1285.46 206.42ZM1298.94 210.073C1300.96 210.073 1302.6 208.437 1302.6 206.42C1302.6 204.402 1300.96 202.766 1298.94 202.766C1296.93 202.766 1295.29 204.402 1295.29 206.42C1295.29 208.437 1296.93 210.073 1298.94 210.073ZM1148.59 224.687C1148.59 226.704 1146.96 228.34 1144.94 228.34C1142.92 228.34 1141.29 226.704 1141.29 224.687C1141.29 222.669 1142.92 221.033 1144.94 221.033C1146.96 221.033 1148.59 222.669 1148.59 224.687ZM1162.08 228.34C1164.1 228.34 1165.74 226.704 1165.74 224.687C1165.74 222.669 1164.1 221.033 1162.08 221.033C1160.06 221.033 1158.43 222.669 1158.43 224.687C1158.43 226.704 1160.06 228.34 1162.08 228.34ZM1182.88 224.687C1182.88 226.704 1181.24 228.34 1179.23 228.34C1177.21 228.34 1175.57 226.704 1175.57 224.687C1175.57 222.669 1177.21 221.033 1179.23 221.033C1181.24 221.033 1182.88 222.669 1182.88 224.687ZM1196.23 228.34C1198.25 228.34 1199.88 226.704 1199.88 224.687C1199.88 222.669 1198.25 221.033 1196.23 221.033C1194.21 221.033 1192.57 222.669 1192.57 224.687C1192.57 226.704 1194.21 228.34 1196.23 228.34ZM1217.02 224.687C1217.02 226.704 1215.39 228.34 1213.37 228.34C1211.35 228.34 1209.72 226.704 1209.72 224.687C1209.72 222.669 1211.35 221.033 1213.37 221.033C1215.39 221.033 1217.02 222.669 1217.02 224.687ZM1230.51 228.34C1232.53 228.34 1234.17 226.704 1234.17 224.687C1234.17 222.669 1232.53 221.033 1230.51 221.033C1228.5 221.033 1226.86 222.669 1226.86 224.687C1226.86 226.704 1228.5 228.34 1230.51 228.34ZM1251.31 224.687C1251.31 226.704 1249.67 228.34 1247.66 228.34C1245.64 228.34 1244 226.704 1244 224.687C1244 222.669 1245.64 221.033 1247.66 221.033C1249.67 221.033 1251.31 222.669 1251.31 224.687ZM1264.66 228.34C1266.68 228.34 1268.31 226.704 1268.31 224.687C1268.31 222.669 1266.68 221.033 1264.66 221.033C1262.64 221.033 1261.01 222.669 1261.01 224.687C1261.01 226.704 1262.64 228.34 1264.66 228.34ZM1285.46 224.687C1285.46 226.704 1283.82 228.34 1281.8 228.34C1279.78 228.34 1278.15 226.704 1278.15 224.687C1278.15 222.669 1279.78 221.033 1281.8 221.033C1283.82 221.033 1285.46 222.669 1285.46 224.687ZM1162.08 246.608C1164.1 246.608 1165.74 244.972 1165.74 242.954C1165.74 240.936 1164.1 239.301 1162.08 239.301C1160.06 239.301 1158.43 240.936 1158.43 242.954C1158.43 244.972 1160.06 246.608 1162.08 246.608ZM1182.88 242.954C1182.88 244.972 1181.24 246.608 1179.23 246.608C1177.21 246.608 1175.57 244.972 1175.57 242.954C1175.57 240.936 1177.21 239.301 1179.23 239.301C1181.24 239.301 1182.88 240.936 1182.88 242.954ZM1196.23 246.608C1198.25 246.608 1199.88 244.972 1199.88 242.954C1199.88 240.936 1198.25 239.301 1196.23 239.301C1194.21 239.301 1192.57 240.936 1192.57 242.954C1192.57 244.972 1194.21 246.608 1196.23 246.608ZM1217.02 242.954C1217.02 244.972 1215.39 246.608 1213.37 246.608C1211.35 246.608 1209.72 244.972 1209.72 242.954C1209.72 240.936 1211.35 239.301 1213.37 239.301C1215.39 239.301 1217.02 240.936 1217.02 242.954ZM1230.51 246.608C1232.53 246.608 1234.17 244.972 1234.17 242.954C1234.17 240.936 1232.53 239.301 1230.51 239.301C1228.5 239.301 1226.86 240.936 1226.86 242.954C1226.86 244.972 1228.5 246.608 1230.51 246.608ZM1251.31 242.954C1251.31 244.972 1249.67 246.608 1247.66 246.608C1245.64 246.608 1244 244.972 1244 242.954C1244 240.936 1245.64 239.301 1247.66 239.301C1249.67 239.301 1251.31 240.936 1251.31 242.954ZM1264.66 246.608C1266.68 246.608 1268.31 244.972 1268.31 242.954C1268.31 240.936 1266.68 239.301 1264.66 239.301C1262.64 239.301 1261.01 240.936 1261.01 242.954C1261.01 244.972 1262.64 246.608 1264.66 246.608ZM1193.7 258.551C1194.4 257.989 1195.24 257.567 1196.23 257.567C1197.63 257.567 1198.9 258.41 1199.46 259.394C1198.07 259.295 1196.68 259.055 1195.33 258.823L1195.33 258.823L1195.33 258.823C1194.78 258.727 1194.23 258.633 1193.7 258.551ZM1213.37 257.567C1211.68 257.567 1210.28 258.691 1209.86 260.378H1213.37H1216.88C1216.46 258.691 1215.06 257.567 1213.37 257.567ZM1230.16 259.113C1229.21 259.254 1228.27 259.394 1227.28 259.535C1227.98 258.411 1229.11 257.568 1230.51 257.708C1231.5 257.708 1232.34 257.989 1233.04 258.692C1232.06 258.832 1231.11 258.973 1230.16 259.113Z" fill="url(#paint19_radial_2433_124)"/>
</g>
<defs>
<filter id="filter0_f_2433_124" x="-487" y="-525" width="1136" height="1136" filterUnits="userSpaceOnUse" color-interpolation-filters="sRGB">
<feFlood flood-opacity="0" result="BackgroundImageFix"/>
<feBlend mode="normal" in="SourceGraphic" in2="BackgroundImageFix" result="shape"/>
<feGaussianBlur stdDeviation="217" result="effect1_foregroundBlur_2433_124"/>
</filter>
<filter id="filter1_f_2433_124" x="-550.503" y="182.496" width="1296.06" height="1296.06" filterUnits="userSpaceOnUse" color-interpolation-filters="sRGB">
<feFlood flood-opacity="0" result="BackgroundImageFix"/>
<feBlend mode="normal" in="SourceGraphic" in2="BackgroundImageFix" result="shape"/>
<feGaussianBlur stdDeviation="257" result="effect1_foregroundBlur_2433_124"/>
</filter>
<filter id="filter2_f_2433_124" x="734" y="-555" width="1121" height="1136" filterUnits="userSpaceOnUse" color-interpolation-filters="sRGB">
<feFlood flood-opacity="0" result="BackgroundImageFix"/>
<feBlend mode="normal" in="SourceGraphic" in2="BackgroundImageFix" result="shape"/>
<feGaussianBlur stdDeviation="217" result="effect1_foregroundBlur_2433_124"/>
</filter>
<filter id="filter3_f_2433_124" x="630.678" y="212.863" width="1275.36" height="1273.97" filterUnits="userSpaceOnUse" color-interpolation-filters="sRGB">
<feFlood flood-opacity="0" result="BackgroundImageFix"/>
<feBlend mode="normal" in="SourceGraphic" in2="BackgroundImageFix" result="shape"/>
<feGaussianBlur stdDeviation="252" result="effect1_foregroundBlur_2433_124"/>
</filter>
<filter id="filter4_f_2433_124" x="-281" y="-561" width="1950" height="1122" filterUnits="userSpaceOnUse" color-interpolation-filters="sRGB">
<feFlood flood-opacity="0" result="BackgroundImageFix"/>
<feBlend mode="normal" in="SourceGraphic" in2="BackgroundImageFix" result="shape"/>
<feGaussianBlur stdDeviation="217" result="effect1_foregroundBlur_2433_124"/>
</filter>
<radialGradient id="paint0_radial_2433_124" cx="0" cy="0" r="1" gradientUnits="userSpaceOnUse" gradientTransform="translate(660 457.5) rotate(90) scale(457.5 660)">
<stop stop-color="white"/>
<stop offset="1" stop-color="#F5F7F9"/>
</radialGradient>
<linearGradient id="paint1_linear_2433_124" x1="81" y1="57" x2="169" y2="233.5" gradientUnits="userSpaceOnUse">
<stop stop-color="#04A78C"/>
<stop offset="0.212729" stop-color="#21C6AB"/>
<stop offset="1" stop-color="white"/>
</linearGradient>
<linearGradient id="paint2_linear_2433_124" x1="104.029" y1="857.528" x2="220.816" y2="673.972" gradientUnits="userSpaceOnUse">
<stop stop-color="#008670"/>
<stop offset="1" stop-color="white"/>
</linearGradient>
<linearGradient id="paint3_linear_2433_124" x1="1309.13" y1="23.5" x2="1143.05" y2="253.888" gradientUnits="userSpaceOnUse">
<stop stop-color="#FF6D16"/>
<stop offset="1" stop-color="white"/>
</linearGradient>
<linearGradient id="paint4_linear_2433_124" x1="1329.51" y1="875.985" x2="1129.02" y2="835.872" gradientUnits="userSpaceOnUse">
<stop stop-color="#FF6204" stop-opacity="0.87"/>
<stop offset="1" stop-color="white"/>
</linearGradient>
<linearGradient id="paint5_linear_2433_124" x1="483.559" y1="-127" x2="535.587" y2="162.539" gradientUnits="userSpaceOnUse">
<stop stop-color="#0CC3A5" stop-opacity="0.36"/>
<stop offset="1" stop-color="white"/>
</linearGradient>
<linearGradient id="paint6_linear_2433_124" x1="68.0972" y1="852.125" x2="-20.4266" y2="954.732" gradientUnits="userSpaceOnUse">
<stop stop-color="white" stop-opacity="0.4"/>
<stop offset="1" stop-color="white" stop-opacity="0"/>
</linearGradient>
<linearGradient id="paint7_linear_2433_124" x1="63.1738" y1="840.79" x2="32.2592" y2="889.738" gradientUnits="userSpaceOnUse">
<stop stop-color="white"/>
<stop offset="1" stop-color="white" stop-opacity="0"/>
</linearGradient>
<linearGradient id="paint8_linear_2433_124" x1="52.7127" y1="869.87" x2="-11.0244" y2="943.747" gradientUnits="userSpaceOnUse">
<stop stop-color="white" stop-opacity="0.4"/>
<stop offset="1" stop-color="white" stop-opacity="0"/>
</linearGradient>
<linearGradient id="paint9_linear_2433_124" x1="49.1678" y1="861.709" x2="26.9093" y2="896.951" gradientUnits="userSpaceOnUse">
<stop stop-color="white"/>
<stop offset="1" stop-color="white" stop-opacity="0"/>
</linearGradient>
<linearGradient id="paint10_linear_2433_124" x1="36.1885" y1="885.805" x2="-5.29119" y2="933.884" gradientUnits="userSpaceOnUse">
<stop stop-color="white" stop-opacity="0.4"/>
<stop offset="1" stop-color="white" stop-opacity="0"/>
</linearGradient>
<linearGradient id="paint11_linear_2433_124" x1="33.8816" y1="880.493" x2="19.3958" y2="903.429" gradientUnits="userSpaceOnUse">
<stop stop-color="white"/>
<stop offset="1" stop-color="white" stop-opacity="0"/>
</linearGradient>
<linearGradient id="paint12_linear_2433_124" x1="1357.5" y1="830.5" x2="1263.21" y2="939.786" gradientUnits="userSpaceOnUse">
<stop stop-color="white" stop-opacity="0.4"/>
<stop offset="1" stop-color="white" stop-opacity="0"/>
</linearGradient>
<linearGradient id="paint13_linear_2433_124" x1="1352.26" y1="818.427" x2="1319.33" y2="870.561" gradientUnits="userSpaceOnUse">
<stop stop-color="white"/>
<stop offset="1" stop-color="white" stop-opacity="0"/>
</linearGradient>
<linearGradient id="paint14_linear_2433_124" x1="1344.2" y1="852.487" x2="1276.31" y2="931.172" gradientUnits="userSpaceOnUse">
<stop stop-color="white" stop-opacity="0.4"/>
<stop offset="1" stop-color="white" stop-opacity="0"/>
</linearGradient>
<linearGradient id="paint15_linear_2433_124" x1="1340.42" y1="843.794" x2="1316.72" y2="881.331" gradientUnits="userSpaceOnUse">
<stop stop-color="white"/>
<stop offset="1" stop-color="white" stop-opacity="0"/>
</linearGradient>
<linearGradient id="paint16_linear_2433_124" x1="1332.26" y1="875.114" x2="1288.08" y2="926.322" gradientUnits="userSpaceOnUse">
<stop stop-color="white" stop-opacity="0.4"/>
<stop offset="1" stop-color="white" stop-opacity="0"/>
</linearGradient>
<linearGradient id="paint17_linear_2433_124" x1="1329.8" y1="869.457" x2="1314.37" y2="893.885" gradientUnits="userSpaceOnUse">
<stop stop-color="white"/>
<stop offset="1" stop-color="white" stop-opacity="0"/>
</linearGradient>
<radialGradient id="paint18_radial_2433_124" cx="0" cy="0" r="1" gradientUnits="userSpaceOnUse" gradientTransform="translate(152.958 261.311) rotate(90) scale(110.311 107.958)">
<stop stop-color="white" stop-opacity="0.87"/>
<stop offset="0.415543" stop-color="white" stop-opacity="0.67"/>
<stop offset="1" stop-color="white" stop-opacity="0.08"/>
</radialGradient>
<radialGradient id="paint19_radial_2433_124" cx="0" cy="0" r="1" gradientUnits="userSpaceOnUse" gradientTransform="translate(1213.37 151.689) rotate(90) scale(108.689 106.371)">
<stop stop-color="white" stop-opacity="0.87"/>
<stop offset="0.415543" stop-color="white" stop-opacity="0.67"/>
<stop offset="1" stop-color="white" stop-opacity="0.08"/>
</radialGradient>
<clipPath id="clip0_2433_124">
<rect width="1320" height="915" rx="20" fill="white"/>
</clipPath>
</defs>
</svg>
