<svg width="22" height="18" viewBox="0 0 22 18" fill="none" xmlns="http://www.w3.org/2000/svg">
<path d="M21.8652 1.96301C21.7905 2.19093 21.7409 2.42911 21.6371 2.64279C21.1467 3.65706 20.3198 4.16078 19.2004 4.1642C16.8052 4.17217 14.4055 4.1642 12.0075 4.1642C8.89918 4.1642 5.79025 4.1642 2.68076 4.1642C1.30526 4.1642 0.253113 3.30435 0.0409721 1.95617C-0.0320225 1.4912 0.0158815 1.00629 0.0101788 0.531637C0.0101788 0.36867 0.0101788 0.205134 0.0101788 0.00797822H21.5664C21.6656 0.00797822 21.7654 0.00284907 21.8647 0L21.8652 1.96301Z" fill="#0071BC"/>
<path d="M5.64 15.9423C4.59696 15.1012 3.76783 14.0256 3.22034 12.8031C2.73916 11.7313 2.49077 10.5698 2.49154 9.3951C2.48641 8.24351 2.49154 7.09248 2.49154 5.94089V5.73462H19.3858V5.94659C19.3858 7.09078 19.3995 8.23496 19.3824 9.37914C19.3448 11.9832 18.3291 14.1371 16.36 15.842C16.3337 15.8642 16.3029 15.883 16.2362 15.9337V15.6801C16.2362 14.8488 16.2408 14.0169 16.2362 13.1855C16.2174 10.6555 14.3053 8.4475 11.7978 8.05718C8.96354 7.61329 6.35626 9.40308 5.75292 12.2168C5.68908 12.5224 5.65528 12.8335 5.65198 13.1456C5.63772 13.9912 5.64628 14.8368 5.64571 15.683L5.64 15.9423Z" fill="#0071BC"/>
<path d="M14.6878 14.9513C14.6878 15.5548 14.6838 16.1588 14.6912 16.7628C14.698 16.8179 14.6853 16.8736 14.6553 16.9203C14.6253 16.967 14.5799 17.0018 14.527 17.0186C12.136 18.0906 9.74528 18.0906 7.35471 17.0186C7.22468 16.9616 7.18362 16.8893 7.18362 16.7468C7.1899 15.5816 7.18077 14.4163 7.18876 13.2516C7.19759 12.3519 7.52871 11.4851 8.1221 10.8084C8.71549 10.1316 9.53189 9.68967 10.4233 9.56261C12.4997 9.26916 14.442 10.7672 14.6433 12.863C14.7106 13.5519 14.6542 14.2533 14.6542 14.9485L14.6878 14.9513ZM8.53859 13.1849C8.53859 14.5103 9.6221 15.6055 10.9269 15.5958C11.4032 15.5993 11.8698 15.4614 12.2676 15.1997C12.6655 14.938 12.9766 14.5642 13.1616 14.1256C13.3466 13.6871 13.3972 13.2035 13.3069 12.7362C13.2166 12.2689 12.9896 11.8389 12.6545 11.5006C12.3194 11.1624 11.8914 10.9311 11.4247 10.8361C10.9579 10.7412 10.4735 10.7867 10.0327 10.9671C9.59192 11.1475 9.21464 11.4545 8.94865 11.8494C8.68267 12.2442 8.53996 12.709 8.53859 13.1849Z" fill="#0071BC"/>
<path d="M10.9246 14.0374C10.8125 14.0368 10.7016 14.0139 10.5985 13.97C10.4954 13.9261 10.402 13.8621 10.324 13.7817C10.2459 13.7013 10.1847 13.6061 10.1439 13.5018C10.1031 13.3975 10.0835 13.2861 10.0863 13.1741C10.0943 12.9518 10.1892 12.7414 10.3506 12.5881C10.512 12.4348 10.7271 12.3508 10.9497 12.3541C11.1724 12.3574 11.3849 12.4477 11.5417 12.6057C11.6985 12.7636 11.7871 12.9767 11.7886 13.1992C11.7879 13.3112 11.7649 13.4219 11.721 13.525C11.677 13.628 11.6129 13.7213 11.5325 13.7993C11.4521 13.8774 11.3569 13.9386 11.2525 13.9795C11.1481 14.0203 11.0367 14.04 10.9246 14.0374Z" fill="#0071BC"/>
</svg>
