<svg width="23" height="19" viewBox="0 0 23 19" fill="none" xmlns="http://www.w3.org/2000/svg">
<path d="M3.95153 2.52652V1.89547C3.41642 1.82946 3.15877 1.63143 3.06298 1.24263C2.96125 0.815549 3.24466 0.334999 3.67935 0.312556C4.39415 0.27559 5.11225 0.283511 5.82771 0.312556C6.17322 0.326418 6.43615 0.663067 6.46918 1.02546C6.47722 1.19955 6.42912 1.37163 6.33196 1.51636C6.23479 1.66109 6.0937 1.77084 5.92944 1.82946C5.80656 1.86115 5.68194 1.88561 5.5562 1.90273V2.49681H11.8513C11.8704 2.2659 11.9012 2.0361 11.9438 1.80833C12.0623 1.30293 12.3463 0.851561 12.7509 0.525909C13.1554 0.200256 13.6573 0.0189887 14.1767 0.0108916C16.089 -0.00363053 18.0013 -0.00363053 19.9136 0.0108916C21.1239 0.0227733 22.1597 1.08091 22.1597 2.29152C22.1654 6.99405 22.1654 11.6961 22.1597 16.3978C22.1597 17.6097 21.1225 18.6553 19.9136 18.683C19.1869 18.6995 18.4602 18.691 17.7375 18.691C12.6678 18.691 7.59841 18.6921 2.5292 18.6943C1.48079 18.6943 0.692661 18.2705 0.236829 17.3239C0.0936644 17.0195 0.0177355 16.6879 0.0141979 16.3516C-0.00121673 12.523 -0.00407977 8.69446 0.00560942 4.8659C0.00474722 4.26238 0.237607 3.68193 0.65543 3.24611C1.07325 2.81029 1.64363 2.5529 2.24711 2.52784C2.81063 2.50672 3.36754 2.52652 3.95153 2.52652ZM11.0863 5.05007C8.04742 5.05007 5.54958 7.53401 5.54166 10.5731C5.53373 13.6122 8.02561 16.108 11.0658 16.1179C14.106 16.1278 16.625 13.6254 16.623 10.5804C16.621 7.53533 14.1311 5.05205 11.0896 5.05007H11.0863ZM17.024 4.4144C17.2955 4.4144 17.5677 4.42034 17.8392 4.4144C18.0386 4.40675 18.2277 4.32429 18.3689 4.18346C18.5101 4.04263 18.5929 3.8538 18.6009 3.65462C18.6141 3.26385 18.3063 2.88561 17.9013 2.86713C17.3187 2.84073 16.7327 2.84073 16.1493 2.86713C15.7338 2.88363 15.416 3.27111 15.4365 3.66783C15.4474 3.86678 15.533 4.05432 15.6761 4.19305C15.8192 4.33179 16.0094 4.41153 16.2088 4.41638C16.4856 4.41968 16.7558 4.4144 17.0273 4.4144H17.024Z" fill="#0071BC"/>
<path d="M11.0777 7.81984C11.6259 7.81827 12.1623 7.97935 12.6188 8.28267C13.0753 8.58599 13.4314 9.0179 13.6419 9.52365C13.8525 10.0294 13.9081 10.5862 13.8016 11.1236C13.6951 11.6609 13.4314 12.1546 13.0439 12.542C12.6563 12.9294 12.1624 13.1932 11.6247 13.2998C11.0869 13.4065 10.5296 13.3512 10.0234 13.141C9.51712 12.9309 9.0847 12.5753 8.78091 12.1193C8.47713 11.6633 8.31566 11.1275 8.31697 10.5797C8.31592 10.2171 8.38661 9.85784 8.52496 9.52262C8.66332 9.18739 8.86661 8.88279 9.12316 8.62632C9.37971 8.36985 9.68446 8.16657 10.0199 8.02817C10.3553 7.88977 10.7148 7.81896 11.0777 7.81984Z" fill="#0071BC"/>
</svg>
