<svg width="23" height="21" viewBox="0 0 23 21" fill="none" xmlns="http://www.w3.org/2000/svg">
<path d="M11.0516 17.6435C9.09048 17.6435 7.12934 17.6435 5.16819 17.6435C3.93874 17.6454 2.74894 17.2105 1.81263 16.4169C0.876315 15.6234 0.254912 14.5232 0.0601025 13.3143C0.0203554 13.0574 0.00117805 12.7977 0.00277346 12.5378C-0.000924487 10.0641 -0.000924487 7.59043 0.00277346 5.11676C0.00584681 3.86888 0.46595 2.66498 1.29677 1.73086C2.12759 0.796749 3.27206 0.196598 4.51552 0.0429697C4.72115 0.0166849 4.9282 0.00294804 5.13553 0.00184144C9.09603 -0.000613815 13.0565 -0.000613815 17.017 0.00184144C18.2427 0.00696648 19.4265 0.446458 20.3565 1.24162C21.2865 2.03678 21.9019 3.13566 22.0925 4.34151C22.1319 4.61408 22.1505 4.88926 22.1479 5.16464C22.1525 7.59985 22.1525 10.0346 22.1479 12.469C22.1479 15.0323 20.3464 17.1549 17.8059 17.5827C17.5326 17.6259 17.2562 17.6465 16.9794 17.6441C15.0043 17.6462 13.0284 17.646 11.0516 17.6435ZM1.47333 12.1879C1.55345 12.0694 1.59659 12.0099 1.63665 11.9473C2.14142 11.1432 2.63942 10.3348 3.15096 9.535C5.08684 6.50705 9.25258 6.24187 11.5681 8.99361C12.1357 9.6688 12.7108 10.3373 13.2803 11.0106C13.3175 11.0645 13.3503 11.1214 13.3783 11.1806C14.3077 9.89163 15.5231 9.25264 17.0349 9.25448C18.5468 9.25632 19.7591 9.91494 20.6632 11.1892C20.6682 11.0953 20.6718 11.0579 20.6718 11.021C20.6718 9.06051 20.6708 7.09999 20.6688 5.13947C20.6686 4.92501 20.648 4.71105 20.6071 4.50049C20.254 2.69219 18.7668 1.4707 16.9129 1.46886C13.0214 1.466 9.12973 1.466 5.23785 1.46886C4.99194 1.46531 4.74627 1.48587 4.50441 1.53024C2.68256 1.89239 1.47579 3.36493 1.4721 5.21804C1.4721 6.36669 1.4721 7.51555 1.4721 8.66461L1.47333 12.1879Z" fill="#0071BC"/>
<path d="M11.0516 20.5842H7.08185C6.59742 20.5842 6.27076 20.2804 6.27569 19.8378C6.27939 19.4081 6.60543 19.116 7.08185 19.116H15.0645C15.5483 19.116 15.8762 19.4229 15.8719 19.8611C15.8676 20.2908 15.5391 20.5836 15.0651 20.5842H11.0516Z" fill="#0071BC"/>
<path d="M16.9807 5.15241C16.9798 5.58901 16.8488 6.01554 16.6044 6.37796C16.3599 6.74037 16.0129 7.02236 15.6073 7.18821C15.2018 7.35405 14.756 7.39628 14.3263 7.30955C13.8966 7.22281 13.5025 7.01102 13.1938 6.701C12.8851 6.39098 12.6758 5.99668 12.5923 5.56806C12.5088 5.13944 12.5549 4.69579 12.7248 4.2933C12.8947 3.89082 13.1808 3.54762 13.5467 3.30718C13.9126 3.06674 14.342 2.93988 14.7804 2.94267C15.0706 2.94348 15.3579 3.00131 15.6257 3.11287C15.8935 3.22443 16.1366 3.38752 16.341 3.5928C16.5454 3.79807 16.7071 4.0415 16.8168 4.30912C16.9266 4.57675 16.9823 4.86332 16.9807 5.15241Z" fill="#0071BC"/>
</svg>
