<svg width="40" height="40" viewBox="0 0 40 40" fill="none" xmlns="http://www.w3.org/2000/svg">
<rect width="40" height="40" rx="20" fill="url(#paint0_linear_3203_149)"/>
<path fill-rule="evenodd" clip-rule="evenodd" d="M18.0035 13.0089C16.71 13.716 15.8327 15.0892 15.8327 16.6673C15.8327 17.5124 16.0843 18.2987 16.5166 18.9555C14.8601 18.8775 13.541 17.5098 13.541 15.834C13.541 14.1081 14.9401 12.709 16.666 12.709C17.1446 12.709 17.598 12.8166 18.0035 13.0089ZM16.8998 20.209C14.8367 20.8251 13.3327 22.7372 13.3327 25.0007V26.459H11.666C11.3208 26.459 11.041 26.1792 11.041 25.834V24.1673C11.041 21.9812 12.8132 20.209 14.9993 20.209H16.8998ZM19.9993 13.5423C18.2735 13.5423 16.8743 14.9414 16.8743 16.6673C16.8743 18.3932 18.2735 19.7923 19.9993 19.7923C21.7253 19.7923 23.1243 18.3932 23.1243 16.6673C23.1243 14.9414 21.7253 13.5423 19.9993 13.5423ZM18.3327 21.0423C16.1466 21.0423 14.3743 22.8145 14.3743 25.0007V26.6673C14.3743 27.0125 14.6542 27.2923 14.9993 27.2923H24.9993C25.3445 27.2923 25.6243 27.0125 25.6243 26.6673V25.0007C25.6243 22.8145 23.8522 21.0423 21.666 21.0423H18.3327ZM26.4577 15.834C26.4577 17.5098 25.1386 18.8775 23.4821 18.9555C23.9144 18.2987 24.166 17.5124 24.166 16.6673C24.166 15.0892 23.2887 13.716 21.9952 13.0089C22.4007 12.8166 22.8541 12.709 23.3327 12.709C25.0586 12.709 26.4577 14.1081 26.4577 15.834ZM28.3327 26.459H26.666V25.0007C26.666 22.7372 25.162 20.8251 23.0988 20.209H24.9993C27.1855 20.209 28.9577 21.9812 28.9577 24.1673V25.834C28.9577 26.1792 28.6778 26.459 28.3327 26.459Z" fill="white"/>
<defs>
<linearGradient id="paint0_linear_3203_149" x1="20" y1="0" x2="20" y2="40" gradientUnits="userSpaceOnUse">
<stop stop-color="#3250FF"/>
<stop offset="1" stop-color="#2BB2FE"/>
</linearGradient>
</defs>
</svg>
