<svg width="40" height="40" viewBox="0 0 40 40" fill="none" xmlns="http://www.w3.org/2000/svg">
<rect width="40" height="40" rx="20" fill="url(#paint0_linear_3203_170)"/>
<path fill-rule="evenodd" clip-rule="evenodd" d="M13.334 12.5007C13.334 11.5802 14.0802 10.834 15.0007 10.834L21.6673 10.8341C22.5878 10.8341 23.334 11.5803 23.334 12.5007V14.1673C23.334 15.0878 22.5878 15.834 21.6673 15.834H15.0007C14.0802 15.834 13.334 15.0878 13.334 14.1673V12.5007ZM21.6673 12.5007L15.0007 12.5007V14.1673H21.6673V12.5007Z" fill="white"/>
<path d="M15 14.166C14.6629 14.166 14.3591 14.369 14.2301 14.6804C14.1025 14.9885 14.1709 15.3427 14.4032 15.581L14.4017 15.5798C14.4017 15.5798 14.437 15.6307 14.4807 15.7633C14.5294 15.911 14.5685 16.1053 14.5814 16.3209C14.6081 16.7689 14.5161 17.1658 14.3397 17.4073L13.2304 18.794C12.7576 19.385 12.5 20.1194 12.5 20.8763V27.4993C12.5 28.4198 13.2462 29.166 14.1667 29.166H20.2083C20.1492 29.1216 20.0907 29.0757 20.0328 29.0283C17.8077 27.2055 17.4816 23.924 19.3044 21.6988C20.4852 20.2575 22.278 19.613 23.9993 19.8332C23.8758 19.4586 23.6861 19.1063 23.4363 18.794L22.3269 17.4074C22.1506 17.1658 22.0586 16.7689 22.0853 16.3209C22.0982 16.1053 22.1373 15.911 22.1859 15.7633C22.2297 15.6307 22.2649 15.5798 22.2649 15.5798L22.2634 15.581C22.4957 15.3427 22.5642 14.9885 22.4366 14.6804C22.3076 14.369 22.0037 14.166 21.6667 14.166H15Z" fill="white"/>
<path fill-rule="evenodd" clip-rule="evenodd" d="M25.2324 21.5257C23.5943 20.6277 21.4982 20.9934 20.2713 22.491C19.0477 23.9848 19.0983 26.1051 20.2923 27.5343L25.2324 21.5257ZM26.221 22.2915L21.2349 28.3561C22.8988 29.3992 25.1182 29.0668 26.3953 27.5078C27.6694 25.9524 27.5621 23.718 26.221 22.2915Z" fill="white"/>
<defs>
<linearGradient id="paint0_linear_3203_170" x1="20" y1="0" x2="20" y2="40" gradientUnits="userSpaceOnUse">
<stop stop-color="#EB3D4D"/>
<stop offset="1" stop-color="#FBA37C"/>
</linearGradient>
</defs>
</svg>
