<svg width="48" height="48" viewBox="0 0 48 48" fill="none" xmlns="http://www.w3.org/2000/svg">
<rect width="48" height="48" rx="24" fill="#DC2626"/>
<g clip-path="url(#clip0_1617_163)">
<path d="M35.2583 25.0184C37.2111 25.0184 38.7997 23.4297 38.7997 21.477V19.7854H36.5553C35.8715 19.7854 35.2025 19.9844 34.6298 20.3581C34.5666 20.0078 34.4862 19.6609 34.3889 19.3185L35.0647 18.9296C35.8839 18.4566 36.4699 17.6929 36.7147 16.7792C36.9596 15.8655 36.8339 14.9111 36.3609 14.0919L35.5152 12.627L33.5715 13.7492C32.8044 14.192 32.2352 14.9031 31.9687 15.7513C31.7063 16.5864 31.7586 17.4828 32.1159 18.2769L32.5147 19.2263C32.8691 20.2183 33.0489 21.2641 33.0489 22.3353C33.0489 27.4352 28.8999 31.5843 23.8 31.5843C18.7001 31.5843 14.5511 27.4352 14.5511 22.3353C14.5511 21.2615 14.7308 20.2157 15.085 19.2264L15.4837 18.2769C15.841 17.4827 15.8933 16.5864 15.6309 15.7513C15.3644 14.9031 14.7952 14.192 14.0282 13.7492L12.0844 12.627L11.2387 14.0919C10.7657 14.9111 10.64 15.8655 10.8848 16.7792C11.1296 17.6929 11.7157 18.4566 12.5359 18.9302L13.2105 19.3184C13.1132 19.6608 13.0328 20.0077 12.9697 20.358C12.3989 19.9864 11.7329 19.7854 11.0442 19.7854H8.7998V21.477C8.7998 23.4298 10.3885 25.0184 12.3425 25.0184L13.1244 25.0173C13.2113 25.3631 13.3151 25.7043 13.4354 26.0399C12.7537 26.0019 12.0751 26.1602 11.4782 26.5049L9.53454 27.6271L10.3803 29.092C11.0355 30.2268 12.2279 30.8619 13.453 30.8619C14.0732 30.862 14.6824 30.6984 15.2191 30.3877L15.9015 29.9924C16.1496 30.2483 16.4101 30.4922 16.6819 30.7232C16.0691 31.0317 15.5599 31.5126 15.2169 32.1068L14.0947 34.0505L15.5596 34.8962C16.1053 35.2113 16.7108 35.3723 17.3246 35.3723C17.6322 35.3723 17.9419 35.3318 18.2469 35.2501C19.1607 35.0053 19.9243 34.4192 20.3979 33.5989L20.787 32.9228C21.7449 33.1958 22.7557 33.342 23.8 33.342C24.8442 33.342 25.8549 33.1958 26.8127 32.9229L27.2024 33.6C27.8577 34.7349 29.0504 35.37 30.2753 35.37C30.895 35.3702 31.5038 35.2068 32.0401 34.8963L33.505 34.0505L32.3828 32.1069C32.0399 31.5128 31.5307 31.0319 30.9181 30.7233C31.1898 30.4924 31.4503 30.2485 31.6985 29.9925L32.3816 30.3884C32.9179 30.6989 33.5267 30.8623 34.1464 30.8621C35.3712 30.8621 36.5642 30.2269 37.2194 29.0921L38.0651 27.6272L36.1215 26.505C35.5246 26.1605 34.8462 26.0021 34.1646 26.04C34.2849 25.7044 34.3887 25.3632 34.4756 25.0175L35.2583 25.0184Z" fill="white"/>
<path d="M23.8002 14.8828C19.7291 14.8828 16.417 18.1949 16.417 22.266C16.417 26.3371 19.7291 29.6492 23.8002 29.6492C27.8713 29.6492 31.1833 26.3371 31.1833 22.266C31.1833 18.1949 27.8713 14.8828 23.8002 14.8828ZM24.6789 25.1956H22.9211V22.137C22.5464 22.3029 22.141 22.3884 21.7311 22.3879V20.6302C22.3873 20.6302 22.9211 20.0963 22.9211 19.4402V19.3364H24.6789V25.1956Z" fill="white"/>
</g>
<defs>
<clipPath id="clip0_1617_163">
<rect width="30" height="30" fill="white" transform="translate(8.7998 9)"/>
</clipPath>
</defs>
</svg>
