<svg width="48" height="48" viewBox="0 0 48 48" fill="none" xmlns="http://www.w3.org/2000/svg">
<rect width="48" height="48" rx="24" fill="#00BCE7"/>
<path d="M34.5092 12.4102H13.4906L11.0186 18.9176C11.0167 19.345 11.0992 19.7686 11.2615 20.164C11.4237 20.5595 11.6624 20.9189 11.964 21.2218C12.2655 21.5247 12.6239 21.7651 13.0186 21.9291C13.4133 22.0931 13.8365 22.1775 14.2639 22.1775C14.6914 22.1775 15.1146 22.0931 15.5092 21.9291C15.9039 21.7651 16.2623 21.5247 16.5639 21.2218C16.8654 20.9189 17.1042 20.5595 17.2664 20.164C17.4287 19.7686 17.5112 19.345 17.5093 18.9176C17.5093 19.7784 17.8512 20.6038 18.4598 21.2125C19.0685 21.8211 19.894 22.163 20.7547 22.163C21.6154 22.163 22.4409 21.8211 23.0495 21.2125C23.6581 20.6038 24.0001 19.7784 24.0001 18.9176C24.0001 19.3438 24.084 19.7658 24.2471 20.1596C24.4102 20.5533 24.6492 20.9111 24.9506 21.2124C25.252 21.5138 25.6097 21.7528 26.0035 21.9159C26.3972 22.079 26.8192 22.163 27.2454 22.163C27.6716 22.163 28.0936 22.079 28.4873 21.9159C28.8811 21.7528 29.2388 21.5138 29.5402 21.2124C29.8415 20.9111 30.0806 20.5533 30.2437 20.1596C30.4068 19.7658 30.4907 19.3438 30.4907 18.9176C30.4907 19.7784 30.8326 20.6038 31.4413 21.2125C32.0499 21.8211 32.8754 22.163 33.7361 22.163C34.5968 22.163 35.4223 21.8211 36.0309 21.2125C36.6396 20.6038 36.9815 19.7784 36.9815 18.9176L34.5092 12.4102Z" fill="white"/>
<path d="M36.9819 33.7106H34.2422V23.0685C33.5398 23.1587 32.8259 23.0671 32.1691 22.8024C31.5122 22.5377 30.9343 22.1087 30.4908 21.5566C30.0988 22.0394 29.6041 22.4287 29.0427 22.696C28.4813 22.9634 27.8673 23.1021 27.2455 23.1021C26.6236 23.1021 26.0096 22.9634 25.4482 22.696C24.8868 22.4287 24.3921 22.0394 24.0001 21.5566C23.6082 22.0394 23.1135 22.4287 22.5521 22.696C21.9907 22.9634 21.3766 23.1021 20.7548 23.1021C20.133 23.1021 19.519 22.9634 18.9576 22.696C18.3961 22.4287 17.9014 22.0394 17.5095 21.5566C17.0659 22.1087 16.4881 22.5377 15.8312 22.8024C15.1743 23.0671 14.4605 23.1587 13.7581 23.0685V33.7106H11.0183C10.7692 33.7106 10.5303 33.8096 10.3542 33.9857C10.1781 34.1619 10.0791 34.4008 10.0791 34.6499C10.0791 34.899 10.1781 35.1379 10.3542 35.314C10.5303 35.4901 10.7692 35.5891 11.0183 35.5891H36.9819C37.231 35.5891 37.4699 35.4901 37.6461 35.314C37.8222 35.1379 37.9212 34.899 37.9212 34.6499C37.9212 34.4008 37.8222 34.1619 37.6461 33.9857C37.4699 33.8096 37.231 33.7106 36.9819 33.7106ZM18.0997 28.5365C18.0997 27.8959 18.3542 27.2816 18.8071 26.8287C19.26 26.3758 19.8743 26.1214 20.5148 26.1214C21.1554 26.1214 21.7696 26.3758 22.2226 26.8287C22.6755 27.2816 22.9299 27.8959 22.9299 28.5365V33.7106H18.0997V28.5365Z" fill="white"/>
</svg>
