<svg width="48" height="48" viewBox="0 0 48 48" fill="none" xmlns="http://www.w3.org/2000/svg">
<rect width="48" height="48" rx="24" fill="#019934"/>
<path d="M32.7496 14.9133H32.0765V16.9325C32.0765 18.2312 31.0194 19.2883 29.7208 19.2883H18.2785C16.9798 19.2883 15.9228 18.2312 15.9228 16.9325V14.9133H15.2497C14.1361 14.9133 13.2305 15.8189 13.2305 16.9325V36.1151C13.2305 37.2287 14.1361 38.1343 15.2497 38.1343H32.7496C33.8632 38.1343 34.7688 37.2287 34.7688 36.1151V16.9325C34.7688 15.8189 33.8632 14.9133 32.7496 14.9133ZM19.6247 33.4228C19.6247 33.6013 19.5537 33.7725 19.4275 33.8987C19.3013 34.0249 19.1301 34.0959 18.9516 34.0959H17.6054C17.4269 34.0959 17.2557 34.0249 17.1295 33.8987C17.0033 33.7725 16.9324 33.6013 16.9324 33.4228V32.0766C16.9324 31.8981 17.0033 31.7269 17.1295 31.6007C17.2557 31.4745 17.4269 31.4036 17.6054 31.4036H18.9516C19.1301 31.4036 19.3013 31.4745 19.4275 31.6007C19.5537 31.7269 19.6247 31.8981 19.6247 32.0766V33.4228ZM19.6247 28.7113C19.6247 28.8898 19.5537 29.061 19.4275 29.1872C19.3013 29.3134 19.1301 29.3843 18.9516 29.3843H17.6054C17.4269 29.3843 17.2557 29.3134 17.1295 29.1872C17.0033 29.061 16.9324 28.8898 16.9324 28.7113V27.3651C16.9324 27.1866 17.0033 27.0154 17.1295 26.8892C17.2557 26.763 17.4269 26.6921 17.6054 26.6921H18.9516C19.1301 26.6921 19.3013 26.763 19.4275 26.8892C19.5537 27.0154 19.6247 27.1866 19.6247 27.3651V28.7113ZM19.6247 23.9998C19.6247 24.1783 19.5537 24.3495 19.4275 24.4757C19.3013 24.6019 19.1301 24.6728 18.9516 24.6728H17.6054C17.4269 24.6728 17.2557 24.6019 17.1295 24.4757C17.0033 24.3495 16.9324 24.1783 16.9324 23.9998V22.6536C16.9324 22.4751 17.0033 22.3039 17.1295 22.1777C17.2557 22.0515 17.4269 21.9805 17.6054 21.9805H18.9516C19.1301 21.9805 19.3013 22.0515 19.4275 22.1777C19.5537 22.3039 19.6247 22.4751 19.6247 22.6536V23.9998ZM30.3938 33.4228H22.317C22.1384 33.4228 21.9672 33.3519 21.841 33.2256C21.7148 33.0994 21.6439 32.9282 21.6439 32.7497C21.6439 32.5712 21.7148 32.4 21.841 32.2738C21.9672 32.1475 22.1384 32.0766 22.317 32.0766H30.3938C30.5723 32.0766 30.7435 32.1475 30.8698 32.2738C30.996 32.4 31.0669 32.5712 31.0669 32.7497C31.0669 32.9282 30.996 33.0994 30.8698 33.2256C30.7435 33.3519 30.5723 33.4228 30.3938 33.4228ZM30.3938 28.7113H22.317C22.1384 28.7113 21.9672 28.6404 21.841 28.5141C21.7148 28.3879 21.6439 28.2167 21.6439 28.0382C21.6439 27.8597 21.7148 27.6885 21.841 27.5623C21.9672 27.436 22.1384 27.3651 22.317 27.3651H30.3938C30.5723 27.3651 30.7435 27.436 30.8698 27.5623C30.996 27.6885 31.0669 27.8597 31.0669 28.0382C31.0669 28.2167 30.996 28.3879 30.8698 28.5141C30.7435 28.6404 30.5723 28.7113 30.3938 28.7113ZM30.3938 23.9998H22.317C22.1384 23.9998 21.9672 23.9289 21.841 23.8026C21.7148 23.6764 21.6439 23.5052 21.6439 23.3267C21.6439 23.1482 21.7148 22.977 21.841 22.8508C21.9672 22.7245 22.1384 22.6536 22.317 22.6536H30.3938C30.5723 22.6536 30.7435 22.7245 30.8698 22.8508C30.996 22.977 31.0669 23.1482 31.0669 23.3267C31.0669 23.5052 30.996 23.6764 30.8698 23.8026C30.7435 23.9289 30.5723 23.9998 30.3938 23.9998ZM29.7208 17.9421H18.2785C17.7219 17.9421 17.2689 17.4891 17.2689 16.9325V14.2402C17.2689 13.6836 17.7219 13.2306 18.2785 13.2306H20.3129C20.4835 11.3463 22.0716 9.86523 23.9996 9.86523C25.9277 9.86523 27.5158 11.3463 27.6864 13.2306H29.7208C30.2774 13.2306 30.7304 13.6836 30.7304 14.2402V16.9325C30.7304 17.4891 30.2774 17.9421 29.7208 17.9421Z" fill="white"/>
</svg>
