<svg width="48" height="48" viewBox="0 0 48 48" fill="none" xmlns="http://www.w3.org/2000/svg">
<rect width="48" height="48" rx="24" fill="#FF8617"/>
<path d="M34.7812 24C34.7812 23.8757 34.8306 23.7565 34.9185 23.6685C35.0065 23.5806 35.1257 23.5312 35.25 23.5312H37.125C37.0633 21.5416 36.5402 19.5935 35.5969 17.8406C35.4563 17.8922 33.8672 18.9094 33.7219 18.8391C33.6181 18.8398 33.517 18.806 33.4344 18.7431C33.3519 18.6802 33.2926 18.5917 33.2658 18.4914C33.2389 18.3911 33.2462 18.2848 33.2863 18.1891C33.3264 18.0934 33.3972 18.0137 33.4875 17.9625L35.1094 17.025C34.0519 15.341 32.6273 13.918 30.9422 12.8625L30.0047 14.4891C29.9398 14.5911 29.8381 14.6641 29.7206 14.6929C29.6032 14.7216 29.4792 14.7039 29.3745 14.6434C29.2698 14.5829 29.1926 14.4843 29.1589 14.3682C29.1252 14.2521 29.1377 14.1274 29.1938 14.0203L30.1313 12.3937C28.3856 11.459 26.4479 10.9393 24.4688 10.875V12.75C24.4688 12.8743 24.4194 12.9935 24.3315 13.0815C24.2435 13.1694 24.1243 13.2188 24 13.2188C23.8757 13.2188 23.7565 13.1694 23.6685 13.0815C23.5806 12.9935 23.5312 12.8743 23.5312 12.75V10.875C21.5402 10.9413 19.5913 11.4658 17.8359 12.4078L18.7734 14.025C18.8295 14.1321 18.842 14.2568 18.8083 14.3729C18.7746 14.489 18.6973 14.5876 18.5927 14.6481C18.488 14.7086 18.364 14.7263 18.2466 14.6976C18.1291 14.6688 18.0274 14.5958 17.9625 14.4938L17.025 12.8766C15.3436 13.9321 13.9236 15.3553 12.8719 17.0391L14.4797 17.9766C14.5332 18.0073 14.5802 18.0484 14.6179 18.0973C14.6556 18.1462 14.6833 18.2021 14.6994 18.2617C14.7155 18.3214 14.7197 18.3836 14.7118 18.4448C14.7038 18.5061 14.6839 18.5652 14.6531 18.6188C14.6223 18.6723 14.5813 18.7193 14.5324 18.757C14.4835 18.7947 14.4276 18.8224 14.368 18.8385C14.3083 18.8546 14.2461 18.8588 14.1848 18.8508C14.1236 18.8429 14.0645 18.823 14.0109 18.7922L12.3984 17.8547C11.462 19.605 10.9408 21.5473 10.875 23.5312H12.75C12.8743 23.5312 12.9935 23.5806 13.0815 23.6685C13.1694 23.7565 13.2188 23.8757 13.2188 24C13.2188 24.1243 13.1694 24.2435 13.0815 24.3315C12.9935 24.4194 12.8743 24.4688 12.75 24.4688H10.875C10.94 26.4543 11.4613 28.3983 12.3984 30.15L14.0109 29.2125C14.1191 29.1503 14.2475 29.1337 14.368 29.1662C14.4884 29.1987 14.591 29.2778 14.6531 29.3859C14.7153 29.4941 14.7319 29.6225 14.6994 29.743C14.6669 29.8634 14.5878 29.966 14.4797 30.0281L12.8719 30.9656C13.9236 32.6494 15.3436 34.0726 17.025 35.1281L17.9625 33.5109C18.0274 33.4089 18.1291 33.3359 18.2466 33.3071C18.364 33.2784 18.488 33.2961 18.5927 33.3566C18.6973 33.4171 18.7746 33.5157 18.8083 33.6318C18.842 33.7479 18.8295 33.8726 18.7734 33.9797L17.8359 35.5969C19.2191 36.3408 20.7268 36.8254 22.2844 37.0266C22.1209 36.8072 22.0249 36.5449 22.0083 36.2718C21.9916 35.9987 22.055 35.7267 22.1906 35.4891L28.2188 25.0125C28.3421 24.7983 28.5196 24.6204 28.7336 24.4967C28.9476 24.3729 29.1903 24.3078 29.4375 24.3078C29.6847 24.3078 29.9274 24.3729 30.1414 24.4967C30.3554 24.6204 30.5329 24.7983 30.6563 25.0125L34.5563 31.7719C36.1371 29.6563 37.0334 27.1081 37.125 24.4688H35.25C35.1257 24.4688 35.0065 24.4194 34.9185 24.3315C34.8306 24.2435 34.7812 24.1243 34.7812 24ZM12.375 22.7953C12.3619 22.9196 12.3 23.0337 12.2029 23.1124C12.1058 23.191 11.9814 23.2279 11.857 23.2148C11.7327 23.2018 11.6187 23.1399 11.54 23.0427C11.4613 22.9456 11.4244 22.8212 11.4375 22.6969C11.5748 21.3654 11.9245 20.0645 12.4734 18.8438C12.525 18.7306 12.6195 18.6426 12.7359 18.5991C12.8524 18.5556 12.9814 18.5601 13.0945 18.6117C13.2077 18.6633 13.2957 18.7577 13.3392 18.8742C13.3827 18.9907 13.3782 19.1197 13.3266 19.2328C12.8209 20.3618 12.4997 21.5646 12.375 22.7953ZM12.4734 29.1562C11.9319 27.9403 11.587 26.6461 11.4516 25.3219C11.4391 25.1976 11.4766 25.0734 11.5557 24.9767C11.6348 24.88 11.7491 24.8187 11.8734 24.8063C11.9978 24.7938 12.1219 24.8313 12.2186 24.9104C12.3153 24.9895 12.3766 25.1038 12.3891 25.2281C12.5104 26.4518 12.8269 27.6482 13.3266 28.7719C13.3688 28.8835 13.3668 29.007 13.3212 29.1172C13.2755 29.2274 13.1895 29.3161 13.0807 29.3651C12.9719 29.4141 12.8485 29.4198 12.7357 29.381C12.6229 29.3422 12.5291 29.2618 12.4734 29.1562ZM18.6188 13.0828C18.5674 12.9708 18.5622 12.8431 18.6043 12.7273C18.6464 12.6115 18.7325 12.5169 18.8438 12.4641C20.0587 11.9198 21.3534 11.5747 22.6781 11.4422C22.8011 11.4304 22.9237 11.4676 23.0194 11.5457C23.1151 11.6238 23.176 11.7365 23.1891 11.8594C23.1956 11.9206 23.1899 11.9826 23.1725 12.0416C23.155 12.1007 23.1261 12.1558 23.0873 12.2037C23.0486 12.2515 23.0008 12.2913 22.9467 12.3207C22.8925 12.3501 22.8331 12.3686 22.7719 12.375C21.547 12.4984 20.3494 12.8148 19.2234 13.3125C19.1124 13.3592 18.9877 13.3614 18.8751 13.3187C18.7625 13.2759 18.6707 13.1914 18.6188 13.0828ZM14.5359 17.1375C14.5014 17.1914 14.4562 17.2376 14.403 17.2734C14.3499 17.3091 14.2901 17.3336 14.2271 17.3453C14.1642 17.357 14.0995 17.3557 14.0371 17.3415C13.9747 17.3273 13.9159 17.3004 13.8642 17.2625C13.8126 17.2247 13.7693 17.1767 13.7369 17.1215C13.7046 17.0662 13.6838 17.005 13.6761 16.9414C13.6683 16.8779 13.6736 16.8134 13.6917 16.752C13.7098 16.6906 13.7403 16.6336 13.7812 16.5844C14.5619 15.5022 15.5115 14.5525 16.5938 13.7719C16.6946 13.7002 16.8197 13.6714 16.9417 13.6916C17.0638 13.7117 17.1729 13.7794 17.2453 13.8797C17.2815 13.9298 17.3075 13.9865 17.3216 14.0467C17.3358 14.1069 17.338 14.1692 17.3279 14.2302C17.3179 14.2912 17.2959 14.3496 17.2633 14.4021C17.2306 14.4546 17.1878 14.5001 17.1375 14.5359C16.1368 15.2585 15.2585 16.1368 14.5359 17.1375ZM17.25 34.1297C17.1769 34.2293 17.0674 34.296 16.9454 34.3153C16.8234 34.3346 16.6987 34.3049 16.5984 34.2328C15.5173 33.4509 14.5679 32.5014 13.7859 31.4203C13.7497 31.3702 13.7238 31.3134 13.7096 31.2533C13.6954 31.1931 13.6933 31.1308 13.7033 31.0698C13.7133 31.0088 13.7353 30.9504 13.768 30.8979C13.8007 30.8454 13.8434 30.7999 13.8937 30.7641C13.9946 30.6924 14.1197 30.6635 14.2417 30.6837C14.3638 30.7039 14.4729 30.7716 14.5453 30.8719C15.2667 31.8691 16.1416 32.7456 17.1375 33.4688C17.1889 33.5043 17.2326 33.5497 17.2661 33.6024C17.2997 33.6551 17.3224 33.714 17.3329 33.7755C17.3433 33.8371 17.3414 33.9002 17.3272 33.961C17.3129 34.0218 17.2867 34.0792 17.25 34.1297ZM24 26.3438C23.6361 26.3438 23.2773 26.259 22.9518 26.0963C22.6264 25.9336 22.3433 25.6973 22.125 25.4062H17.4375C17.0645 25.4062 16.7069 25.2581 16.4431 24.9944C16.1794 24.7306 16.0312 24.373 16.0312 24C16.0312 23.627 16.1794 23.2694 16.4431 23.0056C16.7069 22.7419 17.0645 22.5938 17.4375 22.5938H22.125C22.2594 22.417 22.417 22.2594 22.5938 22.125V15.5625C22.5938 15.1895 22.7419 14.8319 23.0056 14.5681C23.2694 14.3044 23.627 14.1562 24 14.1562C24.373 14.1562 24.7306 14.3044 24.9944 14.5681C25.2581 14.8319 25.4062 15.1895 25.4062 15.5625V22.125C25.7998 22.4201 26.0905 22.8316 26.2371 23.3012C26.3838 23.7707 26.379 24.2745 26.2235 24.7412C26.0679 25.2078 25.7695 25.6137 25.3704 25.9013C24.9714 26.189 24.4919 26.3438 24 26.3438ZM28.7625 13.3172C27.6391 12.8167 26.4426 12.5002 25.2187 12.3797C25.1572 12.3732 25.0975 12.3547 25.0431 12.3252C24.9887 12.2956 24.9407 12.2557 24.9017 12.2076C24.8628 12.1595 24.8337 12.1042 24.8161 12.0448C24.7985 11.9855 24.7928 11.9233 24.7992 11.8617C24.8057 11.8002 24.8242 11.7405 24.8537 11.6861C24.8833 11.6317 24.9232 11.5836 24.9713 11.5447C25.0194 11.5057 25.0747 11.4766 25.1341 11.459C25.1934 11.4414 25.2556 11.4357 25.3172 11.4422C26.6433 11.5754 27.9394 11.9204 29.1562 12.4641C29.2618 12.5197 29.3422 12.6135 29.381 12.7263C29.4198 12.8391 29.4141 12.9625 29.3651 13.0713C29.3161 13.1801 29.2274 13.2661 29.1172 13.3118C29.007 13.3575 28.8835 13.3594 28.7719 13.3172H28.7625ZM30.8766 14.5266C30.7815 14.4518 30.719 14.3431 30.7021 14.2233C30.6853 14.1034 30.7155 13.9817 30.7863 13.8837C30.8572 13.7856 30.9632 13.7187 31.0822 13.697C31.2013 13.6753 31.3241 13.7004 31.425 13.7672C32.5061 14.5491 33.4555 15.4986 34.2375 16.5797C34.2737 16.6298 34.2996 16.6866 34.3138 16.7467C34.328 16.8069 34.3301 16.8692 34.3201 16.9302C34.3101 16.9912 34.2881 17.0496 34.2554 17.1021C34.2228 17.1546 34.18 17.2001 34.1297 17.2359C34.0288 17.3076 33.9037 17.3365 33.7817 17.3163C33.6596 17.2961 33.5505 17.2284 33.4781 17.1281C32.7543 16.1285 31.8761 15.2504 30.8766 14.5266ZM35.5641 18.8438C36.1062 20.0595 36.4512 21.3538 36.5859 22.6781C36.5921 22.7397 36.5861 22.8018 36.5682 22.8611C36.5503 22.9203 36.521 22.9754 36.4818 23.0233C36.4426 23.0712 36.3944 23.1109 36.3399 23.1401C36.2854 23.1694 36.2256 23.1876 36.1641 23.1938C36.1025 23.1999 36.0403 23.1939 35.9811 23.176C35.9219 23.1581 35.8668 23.1288 35.8189 23.0896C35.771 23.0504 35.7313 23.0022 35.7021 22.9477C35.6728 22.8932 35.6546 22.8334 35.6484 22.7719C35.5278 21.548 35.2112 20.3515 34.7109 19.2281C34.6834 19.1216 34.6942 19.0088 34.7415 18.9094C34.7888 18.81 34.8695 18.7305 34.9695 18.6847C35.0696 18.6388 35.1826 18.6297 35.2887 18.6587C35.3948 18.6878 35.4873 18.7533 35.55 18.8438H35.5641ZM34.4437 33.4219L33.9469 32.5594L29.8594 25.4812C29.8185 25.4104 29.7597 25.3515 29.689 25.3104C29.6183 25.2693 29.5381 25.2474 29.4562 25.2469C29.3737 25.2465 29.2924 25.268 29.2208 25.3092C29.1492 25.3504 29.0897 25.4097 29.0484 25.4812L23.0062 35.9531C22.9651 36.0244 22.9434 36.1052 22.9434 36.1875C22.9434 36.2698 22.9651 36.3506 23.0062 36.4219C23.0472 36.4927 23.1059 36.5516 23.1766 36.5927C23.2473 36.6339 23.3276 36.6558 23.4094 36.6562H35.5031C35.5849 36.6558 35.6652 36.6339 35.7359 36.5927C35.8066 36.5516 35.8653 36.4927 35.9063 36.4219C35.9474 36.3506 35.9691 36.2698 35.9691 36.1875C35.9691 36.1052 35.9474 36.0244 35.9063 35.9531L34.4437 33.4219ZM28.5187 34.7812C28.5187 34.5326 28.6175 34.2942 28.7933 34.1183C28.9692 33.9425 29.2076 33.8438 29.4562 33.8438C29.7049 33.8438 29.9433 33.9425 30.1192 34.1183C30.295 34.2942 30.3937 34.5326 30.3937 34.7812C30.3937 35.0299 30.295 35.2683 30.1192 35.4442C29.9433 35.62 29.7049 35.7188 29.4562 35.7188C29.2076 35.7188 28.9692 35.62 28.7933 35.4442C28.6175 35.2683 28.5187 35.0299 28.5187 34.7812ZM30.5344 32.5219C30.5344 32.8078 30.4208 33.082 30.2186 33.2842C30.0164 33.4864 29.7422 33.6 29.4562 33.6C29.1703 33.6 28.8961 33.4864 28.6939 33.2842C28.4917 33.082 28.3781 32.8078 28.3781 32.5219L28.2188 28.3687C28.2032 28.1869 28.2304 28.0039 28.2982 27.8343C28.3659 27.6648 28.4723 27.5135 28.6089 27.3924C28.7455 27.2713 28.9085 27.1837 29.0849 27.1368C29.2613 27.0898 29.4463 27.0847 29.625 27.1219C29.778 27.1319 29.9275 27.1723 30.0648 27.2407C30.2021 27.309 30.3245 27.4039 30.4248 27.5199C30.5251 27.6359 30.6013 27.7707 30.6491 27.9164C30.6969 28.0621 30.7153 28.2159 30.7031 28.3687L30.5344 32.5219ZM29.6625 28.0922C29.7197 28.16 29.7482 28.2474 29.7422 28.3359L29.5969 32.4891C29.5641 32.8266 29.3438 32.8125 29.3109 32.4891L29.1562 28.3359C29.1502 28.2474 29.1788 28.16 29.2359 28.0922C29.2641 28.0312 29.5359 28.0922 29.5875 28.0594C29.6391 28.0266 29.6484 28.0828 29.6625 28.0922ZM23.5312 21.7031V15.5625C23.5312 15.4382 23.5806 15.319 23.6685 15.231C23.7565 15.1431 23.8757 15.0938 24 15.0938C24.1243 15.0938 24.2435 15.1431 24.3315 15.231C24.4194 15.319 24.4688 15.4382 24.4688 15.5625V21.7031C24.1583 21.6526 23.8417 21.6526 23.5312 21.7031ZM22.7906 23.2969C21.9047 24.9 24.2531 26.2969 25.2187 24.7031C26.1844 23.1094 23.7516 21.7219 22.7953 23.2969H22.7906ZM24.0047 24.7031C23.8182 24.7031 23.6394 24.629 23.5075 24.4972C23.3756 24.3653 23.3016 24.1865 23.3016 24C23.3016 23.8135 23.3756 23.6347 23.5075 23.5028C23.6394 23.371 23.8182 23.2969 24.0047 23.2969C24.1912 23.2975 24.3698 23.3722 24.5012 23.5045C24.6326 23.6368 24.7061 23.8159 24.7055 24.0023C24.7048 24.1888 24.6302 24.3674 24.4979 24.4988C24.3656 24.6303 24.1865 24.7037 24 24.7031H24.0047ZM21.7172 23.5312C21.6552 23.8407 21.6552 24.1593 21.7172 24.4688H17.4375C17.3132 24.4688 17.194 24.4194 17.106 24.3315C17.0181 24.2435 16.9688 24.1243 16.9688 24C16.9688 23.8757 17.0181 23.7565 17.106 23.6685C17.194 23.5806 17.3132 23.5312 17.4375 23.5312H21.7172Z" fill="white"/>
</svg>
