<svg width="48" height="48" viewBox="0 0 48 48" fill="none" xmlns="http://www.w3.org/2000/svg">
<rect width="48" height="48" rx="24" fill="#9E2FE9"/>
<path d="M36.2592 31.1744C33.5394 30.536 31.8453 28.3893 31.0107 27.0068L30.9303 27.3537C30.874 27.8636 30.6971 28.3528 30.4142 28.7807C30.1313 29.2086 29.7505 29.5631 29.3034 29.8146C28.8563 30.0662 28.3558 30.2076 27.8431 30.2273C27.3305 30.2469 26.8206 30.1442 26.3555 29.9277C26.1846 29.8442 25.6065 29.5647 25.4355 29.4853C27.1348 36.5184 32.539 37.931 32.5943 37.9461C32.6224 37.9536 32.6523 37.951 32.6787 37.9388C32.7051 37.9266 32.7264 37.9056 32.7389 37.8793C32.7515 37.8531 32.7544 37.8233 32.7473 37.7951C32.7402 37.7669 32.7234 37.742 32.6999 37.7249C30.694 36.267 30.7895 32.6424 30.8398 31.7928C34.3086 33.3763 36.3044 31.4057 36.3195 31.3856C36.3355 31.3698 36.3469 31.35 36.3526 31.3283C36.3583 31.3066 36.3581 31.2837 36.3519 31.2621C36.3457 31.2405 36.3339 31.221 36.3176 31.2056C36.3012 31.1901 36.2811 31.1794 36.2592 31.1744Z" fill="white"/>
<path d="M26.7927 29.0223C27.0875 29.1609 27.4095 29.2319 27.7353 29.2303C28.061 29.2286 28.3823 29.1542 28.6756 29.0126C28.969 28.871 29.227 28.6657 29.4309 28.4117C29.6348 28.1577 29.7795 27.8613 29.8543 27.5443C29.8845 27.394 30.2334 25.8984 30.2515 25.8049C30.3156 25.5228 30.4424 25.2588 30.6226 25.0325C30.8027 24.8062 31.0316 24.6235 31.2921 24.4978L32.9008 23.7236C33.1953 23.5822 33.454 23.3762 33.6578 23.1209C33.8615 22.8656 34.005 22.5676 34.0775 22.2491C34.1499 21.9306 34.1496 21.5999 34.0764 21.2816C34.0033 20.9632 33.8592 20.6655 33.6549 20.4107L32.5439 19.0131C32.363 18.7882 32.2356 18.5253 32.1711 18.244C32.1067 17.9627 32.107 17.6705 32.1719 17.3893L32.569 15.6448C32.6416 15.3265 32.6414 14.9958 32.5686 14.6775C32.4957 14.3592 32.3519 14.0614 32.1481 13.8063C31.9442 13.5512 31.6854 13.3454 31.391 13.2042C31.0966 13.0629 30.7741 12.9899 30.4475 12.9905H28.6629C28.374 12.9906 28.0889 12.9256 27.8286 12.8002C27.5684 12.6749 27.3397 12.4925 27.1597 12.2665L26.0437 10.869C25.839 10.6153 25.5802 10.4107 25.2862 10.2702C24.9922 10.1296 24.6704 10.0566 24.3445 10.0566C24.0186 10.0566 23.6968 10.1296 23.4028 10.2702C23.1088 10.4107 22.8499 10.6153 22.6453 10.869L21.5343 12.2665C21.3543 12.4925 21.1256 12.6749 20.8654 12.8002C20.6051 12.9256 20.32 12.9906 20.0311 12.9905H18.2414C17.9159 12.9925 17.595 13.0673 17.3021 13.2095C17.0093 13.3516 16.752 13.5575 16.5491 13.812C16.3461 14.0665 16.2027 14.3632 16.1293 14.6804C16.0559 14.9975 16.0545 15.3271 16.125 15.6448L16.5221 17.3893C16.587 17.6705 16.5873 17.9627 16.5229 18.244C16.4584 18.5253 16.331 18.7882 16.1501 19.0131L15.0391 20.4107C14.8374 20.6665 14.6955 20.9642 14.6238 21.282C14.5522 21.5998 14.5525 21.9296 14.6248 22.2473C14.6971 22.5649 14.8395 22.8624 15.0417 23.1178C15.2439 23.3733 15.5006 23.5803 15.7932 23.7236L17.4019 24.4978C17.6628 24.6229 17.892 24.8055 18.0723 25.0319C18.2525 25.2582 18.3791 25.5225 18.4425 25.8049C18.4993 26.0643 18.7793 27.2638 18.8397 27.5443C18.9514 28.024 19.2215 28.4521 19.6064 28.7595C19.9914 29.0669 20.4686 29.2356 20.9612 29.2385C22.3562 29.2385 23.7412 27.4855 25.179 28.2431C25.367 28.3441 26.5786 28.9142 26.7927 29.0223ZM24.3445 25.5988C22.8677 25.5972 21.4518 25.0098 20.4075 23.9655C19.3633 22.9213 18.7759 21.5054 18.7743 20.0286C19.08 12.6365 29.613 12.6436 29.9197 20.0286C29.917 21.5059 29.3286 22.922 28.2835 23.9661C27.2384 25.0103 25.8218 25.5974 24.3445 25.5988Z" fill="white"/>
<path d="M24.3448 15.4639C23.1347 15.4656 21.9747 15.9471 21.119 16.8028C20.2633 17.6584 19.7818 18.8185 19.7801 20.0286C20.0315 26.0864 28.6652 26.0799 28.9146 20.0286C28.9126 18.8177 28.4303 17.657 27.5736 16.8013C26.7169 15.9455 25.5557 15.4645 24.3448 15.4639ZM25.7675 22.4266H23.1383C23.0419 22.4247 22.9481 22.3953 22.8678 22.3419C22.7875 22.2885 22.7241 22.2134 22.685 22.1252C22.646 22.0371 22.6329 21.9396 22.6473 21.8443C22.6617 21.749 22.7029 21.6597 22.7663 21.587L24.8325 19.3198C24.9415 19.2411 25.023 19.13 25.0652 19.0023C25.1074 18.8747 25.1082 18.7369 25.0676 18.6088C25.0269 18.4806 24.9468 18.3686 24.8387 18.2886C24.7305 18.2086 24.5999 18.1649 24.4655 18.1635H24.1639C23.9972 18.1635 23.8374 18.2297 23.7195 18.3475C23.6017 18.4654 23.5355 18.6252 23.5355 18.7919C23.555 18.8618 23.5595 18.9351 23.5486 19.0069C23.5377 19.0787 23.5116 19.1474 23.4721 19.2083C23.4327 19.2693 23.3807 19.3211 23.3197 19.3605C23.2586 19.3998 23.1899 19.4258 23.1181 19.4365C23.0463 19.4473 22.973 19.4427 22.9031 19.423C22.8332 19.4033 22.7683 19.3689 22.7127 19.3222C22.6571 19.2755 22.612 19.2175 22.5805 19.1521C22.549 19.0867 22.5318 19.0153 22.53 18.9427C22.3948 16.6337 26.0471 16.5095 26.1044 18.7919C26.076 19.2447 25.8871 19.6725 25.5715 19.9984L24.2745 21.4211H25.7675C25.9009 21.4211 26.0287 21.4741 26.123 21.5684C26.2173 21.6627 26.2703 21.7905 26.2703 21.9239C26.2703 22.0572 26.2173 22.1851 26.123 22.2793C26.0287 22.3736 25.9009 22.4266 25.7675 22.4266ZM22.339 29.9272C21.8843 30.1405 21.386 30.2443 20.884 30.2302C20.382 30.216 19.8903 30.0844 19.4484 29.8459C19.0065 29.6073 18.6267 29.2685 18.3394 28.8565C18.0521 28.4446 17.8655 27.9711 17.7944 27.4739L17.7139 27.1321C16.8543 28.5146 15.1802 30.5556 12.5409 31.174C12.519 31.1789 12.4988 31.1897 12.4825 31.2051C12.4662 31.2205 12.4543 31.2401 12.4482 31.2617C12.442 31.2833 12.4418 31.3061 12.4475 31.3278C12.4532 31.3495 12.4646 31.3693 12.4806 31.3851C12.4956 31.4052 14.4915 33.3759 17.9603 31.7923C18.0105 32.6419 18.106 36.2666 16.1002 37.7244C16.0767 37.7416 16.0599 37.7664 16.0528 37.7946C16.0456 37.8228 16.0486 37.8526 16.0611 37.8789C16.0737 37.9051 16.095 37.9262 16.1214 37.9384C16.1478 37.9506 16.1776 37.9531 16.2057 37.9456C16.261 37.9306 21.7005 36.5079 23.3796 29.4245C23.2037 29.5125 22.5305 29.8357 22.339 29.9272Z" fill="white"/>
</svg>
