<svg width="40" height="40" viewBox="0 0 40 40" fill="none" xmlns="http://www.w3.org/2000/svg">
<rect width="40" height="40" rx="20" fill="url(#paint0_linear_3203_162)"/>
<path fill-rule="evenodd" clip-rule="evenodd" d="M27.0118 19.9768C25.3327 17.7121 22.1848 17.018 19.6845 18.4616C17.1694 19.9137 16.1999 23.0149 17.3534 25.6109L27.0118 19.9768ZM27.6414 21.0567L17.9834 26.6906C19.6628 28.9541 22.8098 29.6476 25.3095 28.2043C27.8241 26.7526 28.7937 23.6523 27.6414 21.0567Z" fill="white"/>
<path fill-rule="evenodd" clip-rule="evenodd" d="M22.1818 11.3982C24.1518 10.2341 26.6619 10.933 27.7874 12.9281C28.6889 14.5262 28.4371 16.4798 27.2925 17.7856C26.9892 18.1317 26.4627 18.1663 26.1166 17.863C25.7704 17.5596 25.7359 17.0331 26.0392 16.687C26.728 15.9011 26.8816 14.7146 26.3358 13.747C25.6598 12.5486 24.1798 12.1534 23.0296 12.8331L19.5106 14.9124L20.2993 16.2428C20.5341 16.6387 20.4034 17.1499 20.0075 17.3846C19.6116 17.6193 19.1004 17.4887 18.8657 17.0928L18.0757 15.7602L14.5547 17.8408C13.3927 18.5274 12.9804 20.0651 13.6626 21.2743C14.0694 21.9956 14.7673 22.4248 15.507 22.5062C15.9644 22.5564 16.2945 22.9681 16.2442 23.4256C16.1939 23.8831 15.7822 24.2131 15.3248 24.1628C14.0637 24.0242 12.8873 23.2921 12.211 22.0932C11.0916 20.109 11.7484 17.5631 13.7068 16.4059L22.1818 11.3982Z" fill="white"/>
<defs>
<linearGradient id="paint0_linear_3203_162" x1="20" y1="0" x2="20" y2="40" gradientUnits="userSpaceOnUse">
<stop stop-color="#10A9FF"/>
<stop offset="1" stop-color="#23DFBF"/>
</linearGradient>
</defs>
</svg>
