<svg width="40" height="40" viewBox="0 0 40 40" fill="none" xmlns="http://www.w3.org/2000/svg">
<rect width="40" height="40" rx="20" fill="url(#paint0_linear_3203_156)"/>
<path fill-rule="evenodd" clip-rule="evenodd" d="M19.7917 27.888L17.0408 20.8145C16.9474 20.5743 16.7161 20.416 16.4583 20.416H14.7917C13.526 20.416 12.5 21.442 12.5 22.7077V28.541C12.5 28.8862 12.7798 29.166 13.125 29.166H26.4583C26.8035 29.166 27.0833 28.8862 27.0833 28.541V22.7077C27.0833 21.442 26.0573 20.416 24.7917 20.416H23.125C22.8672 20.416 22.6359 20.5743 22.5425 20.8145L19.7917 27.888Z" fill="white"/>
<path fill-rule="evenodd" clip-rule="evenodd" d="M18.4273 20.7124C18.5412 20.5281 18.7424 20.416 18.959 20.416H20.6257C20.8422 20.416 21.0434 20.5281 21.1573 20.7124C21.2712 20.8967 21.2816 21.1268 21.1847 21.3205L20.436 22.8179L20.8292 25.9634C20.8407 26.0561 20.8314 26.1501 20.8019 26.2386L20.3852 27.4886C20.3002 27.7438 20.0613 27.916 19.7923 27.916C19.5233 27.916 19.2845 27.7438 19.1994 27.4886L18.7827 26.2386C18.7532 26.1501 18.7439 26.0561 18.7555 25.9634L19.1487 22.8179L18.4 21.3205C18.3031 21.1268 18.3135 20.8967 18.4273 20.7124Z" fill="white"/>
<path fill-rule="evenodd" clip-rule="evenodd" d="M16.25 14.7917C16.25 12.8357 17.8357 11.25 19.7917 11.25C21.7477 11.25 23.3333 12.8357 23.3333 14.7917V15.625C23.3333 17.581 21.7477 19.1667 19.7917 19.1667C17.8357 19.1667 16.25 17.581 16.25 15.625V14.7917Z" fill="white"/>
<defs>
<linearGradient id="paint0_linear_3203_156" x1="20" y1="0" x2="20" y2="40" gradientUnits="userSpaceOnUse">
<stop stop-color="#7819E5"/>
<stop offset="1" stop-color="#D921EA"/>
</linearGradient>
</defs>
</svg>
