<svg width="204" height="42" viewBox="0 0 204 42" fill="none" xmlns="http://www.w3.org/2000/svg">
<mask id="path-1-outside-1_2319_138" maskUnits="userSpaceOnUse" x="47" y="13" width="157" height="22" fill="black">
<rect fill="white" x="47" y="13" width="157" height="22"/>
<path d="M48.2642 29V14.4545H54.0028C55.1061 14.4545 56.0459 14.6652 56.8224 15.0866C57.599 15.5033 58.1908 16.0833 58.598 16.8267C59.0099 17.5653 59.2159 18.4176 59.2159 19.3835C59.2159 20.3494 59.0076 21.2017 58.5909 21.9403C58.1742 22.679 57.5705 23.2543 56.7798 23.6662C55.9938 24.0781 55.0421 24.2841 53.9247 24.2841H50.267V21.8196H53.4276C54.0194 21.8196 54.5071 21.7178 54.8906 21.5142C55.2789 21.3059 55.5677 21.0194 55.7571 20.6548C55.9512 20.2855 56.0483 19.8617 56.0483 19.3835C56.0483 18.9006 55.9512 18.4792 55.7571 18.1193C55.5677 17.7547 55.2789 17.473 54.8906 17.2741C54.5024 17.0705 54.0099 16.9688 53.4134 16.9688H51.3395V29H48.2642ZM64.1822 22.6932V29H61.1566V14.4545H64.0969V20.0156H64.2248C64.471 19.3717 64.8687 18.8674 65.418 18.5028C65.9672 18.1335 66.6561 17.9489 67.4847 17.9489C68.2423 17.9489 68.9028 18.1146 69.4663 18.446C70.0344 18.7727 70.4748 19.2438 70.7873 19.8594C71.1045 20.4702 71.2608 21.2017 71.256 22.054V29H68.2305V22.5938C68.2352 21.9214 68.0647 21.3982 67.7191 21.0241C67.3782 20.6501 66.9 20.4631 66.2844 20.4631C65.8725 20.4631 65.5079 20.5507 65.1907 20.7259C64.8782 20.901 64.632 21.1567 64.4521 21.4929C64.2769 21.8243 64.1869 22.2244 64.1822 22.6932ZM76.7479 29.206C76.0518 29.206 75.4316 29.0852 74.8871 28.8438C74.3426 28.5975 73.9117 28.2353 73.5945 27.7571C73.282 27.2741 73.1257 26.6728 73.1257 25.9531C73.1257 25.3471 73.237 24.8381 73.4595 24.4261C73.6821 24.0142 73.9851 23.6828 74.3686 23.4318C74.7521 23.1809 75.1877 22.9915 75.6754 22.8636C76.1679 22.7358 76.6839 22.6458 77.2237 22.5938C77.8582 22.5275 78.3696 22.4659 78.7578 22.4091C79.1461 22.3475 79.4278 22.2576 79.603 22.1392C79.7782 22.0208 79.8658 21.8456 79.8658 21.6136V21.571C79.8658 21.1212 79.7237 20.7732 79.4396 20.527C79.1603 20.2808 78.7625 20.1577 78.2464 20.1577C77.7019 20.1577 77.2687 20.2784 76.9467 20.5199C76.6248 20.7566 76.4117 21.0549 76.3075 21.4148L73.5092 21.1875C73.6513 20.5246 73.9306 19.9517 74.3473 19.4688C74.764 18.9811 75.3014 18.607 75.9595 18.3466C76.6224 18.0814 77.3894 17.9489 78.2607 17.9489C78.8667 17.9489 79.4467 18.0199 80.0007 18.1619C80.5594 18.304 81.0542 18.5241 81.4851 18.8224C81.9207 19.1207 82.264 19.5043 82.5149 19.973C82.7659 20.437 82.8913 20.9934 82.8913 21.642V29H80.022V27.4872H79.9368C79.7616 27.8281 79.5272 28.1288 79.2337 28.3892C78.9401 28.6449 78.5874 28.8461 78.1754 28.9929C77.7635 29.1349 77.2876 29.206 76.7479 29.206ZM77.6143 27.1179C78.0594 27.1179 78.4524 27.0303 78.7933 26.8551C79.1342 26.6752 79.4018 26.4337 79.5959 26.1307C79.79 25.8277 79.8871 25.4844 79.8871 25.1009V23.9432C79.7924 24.0047 79.6622 24.0616 79.4964 24.1136C79.3355 24.161 79.1532 24.206 78.9496 24.2486C78.746 24.2865 78.5424 24.322 78.3388 24.3551C78.1352 24.3835 77.9505 24.4096 77.7848 24.4332C77.4297 24.4853 77.1196 24.5682 76.8544 24.6818C76.5893 24.7955 76.3833 24.9493 76.2365 25.1435C76.0897 25.3329 76.0163 25.5696 76.0163 25.8537C76.0163 26.2656 76.1655 26.5805 76.4638 26.7983C76.7668 27.0114 77.1503 27.1179 77.6143 27.1179ZM85.2386 29V18.0909H88.1719V19.9943H88.2855C88.4844 19.3172 88.8182 18.8059 89.2869 18.4602C89.7557 18.1098 90.2955 17.9347 90.9062 17.9347C91.0578 17.9347 91.2211 17.9441 91.3963 17.9631C91.5715 17.982 91.7254 18.008 91.858 18.0412V20.7259C91.7159 20.6832 91.5194 20.6454 91.2685 20.6122C91.0175 20.5791 90.7879 20.5625 90.5795 20.5625C90.1345 20.5625 89.7367 20.6596 89.3864 20.8537C89.0407 21.0431 88.7661 21.3082 88.5625 21.6491C88.3636 21.9901 88.2642 22.383 88.2642 22.8281V29H85.2386ZM93.4222 29V18.0909H96.3058V20.0156H96.4336C96.6609 19.3764 97.0397 18.8722 97.57 18.5028C98.1003 18.1335 98.7347 17.9489 99.4734 17.9489C100.221 17.9489 100.858 18.1359 101.384 18.5099C101.909 18.8793 102.26 19.3812 102.435 20.0156H102.549C102.771 19.3906 103.174 18.8911 103.756 18.517C104.343 18.1383 105.037 17.9489 105.837 17.9489C106.855 17.9489 107.681 18.2732 108.316 18.9219C108.955 19.5658 109.275 20.4796 109.275 21.6634V29H106.256V22.2599C106.256 21.6539 106.095 21.1993 105.773 20.8963C105.451 20.5933 105.049 20.4418 104.566 20.4418C104.016 20.4418 103.588 20.617 103.28 20.9673C102.972 21.313 102.819 21.7699 102.819 22.3381V29H99.8853V22.196C99.8853 21.661 99.7314 21.2348 99.4237 20.9176C99.1206 20.6004 98.7205 20.4418 98.2234 20.4418C97.8872 20.4418 97.5842 20.527 97.3143 20.6974C97.0491 20.8632 96.8384 21.0975 96.6822 21.4006C96.5259 21.6989 96.4478 22.0492 96.4478 22.4517V29H93.4222ZM114.775 29.206C114.079 29.206 113.459 29.0852 112.914 28.8438C112.37 28.5975 111.939 28.2353 111.622 27.7571C111.309 27.2741 111.153 26.6728 111.153 25.9531C111.153 25.3471 111.264 24.8381 111.487 24.4261C111.709 24.0142 112.012 23.6828 112.396 23.4318C112.779 23.1809 113.215 22.9915 113.703 22.8636C114.195 22.7358 114.711 22.6458 115.251 22.5938C115.886 22.5275 116.397 22.4659 116.785 22.4091C117.173 22.3475 117.455 22.2576 117.63 22.1392C117.806 22.0208 117.893 21.8456 117.893 21.6136V21.571C117.893 21.1212 117.751 20.7732 117.467 20.527C117.188 20.2808 116.79 20.1577 116.274 20.1577C115.729 20.1577 115.296 20.2784 114.974 20.5199C114.652 20.7566 114.439 21.0549 114.335 21.4148L111.537 21.1875C111.679 20.5246 111.958 19.9517 112.375 19.4688C112.791 18.9811 113.329 18.607 113.987 18.3466C114.65 18.0814 115.417 17.9489 116.288 17.9489C116.894 17.9489 117.474 18.0199 118.028 18.1619C118.587 18.304 119.082 18.5241 119.512 18.8224C119.948 19.1207 120.291 19.5043 120.542 19.973C120.793 20.437 120.919 20.9934 120.919 21.642V29H118.049V27.4872H117.964C117.789 27.8281 117.555 28.1288 117.261 28.3892C116.967 28.6449 116.615 28.8461 116.203 28.9929C115.791 29.1349 115.315 29.206 114.775 29.206ZM115.642 27.1179C116.087 27.1179 116.48 27.0303 116.821 26.8551C117.162 26.6752 117.429 26.4337 117.623 26.1307C117.817 25.8277 117.914 25.4844 117.914 25.1009V23.9432C117.82 24.0047 117.69 24.0616 117.524 24.1136C117.363 24.161 117.181 24.206 116.977 24.2486C116.773 24.2865 116.57 24.322 116.366 24.3551C116.163 24.3835 115.978 24.4096 115.812 24.4332C115.457 24.4853 115.147 24.5682 114.882 24.6818C114.617 24.7955 114.411 24.9493 114.264 25.1435C114.117 25.3329 114.044 25.5696 114.044 25.8537C114.044 26.2656 114.193 26.5805 114.491 26.7983C114.794 27.0114 115.178 27.1179 115.642 27.1179ZM128.195 29.2131C127.078 29.2131 126.116 28.9763 125.311 28.5028C124.511 28.0246 123.896 27.3617 123.465 26.5142C123.039 25.6667 122.826 24.6913 122.826 23.5881C122.826 22.4706 123.041 21.4905 123.472 20.6477C123.908 19.8002 124.525 19.1397 125.326 18.6662C126.126 18.188 127.078 17.9489 128.181 17.9489C129.132 17.9489 129.966 18.1217 130.681 18.4673C131.396 18.813 131.962 19.2983 132.378 19.9233C132.795 20.5483 133.025 21.2822 133.067 22.125H130.212C130.132 21.5805 129.918 21.1425 129.573 20.8111C129.232 20.4749 128.784 20.3068 128.23 20.3068C127.762 20.3068 127.352 20.4347 127.002 20.6903C126.656 20.9413 126.386 21.3082 126.192 21.7912C125.998 22.2741 125.901 22.8589 125.901 23.5455C125.901 24.2415 125.996 24.8333 126.185 25.321C126.379 25.8087 126.651 26.1804 127.002 26.4361C127.352 26.6918 127.762 26.8196 128.23 26.8196C128.576 26.8196 128.886 26.7486 129.161 26.6065C129.44 26.4645 129.67 26.2585 129.85 25.9886C130.034 25.714 130.155 25.3849 130.212 25.0014H133.067C133.02 25.8348 132.792 26.5687 132.385 27.2031C131.983 27.8329 131.426 28.3253 130.716 28.6804C130.006 29.0355 129.166 29.2131 128.195 29.2131ZM136.872 33.0909C136.489 33.0909 136.129 33.0601 135.793 32.9986C135.461 32.9418 135.187 32.8684 134.969 32.7784L135.651 30.5199C136.006 30.6288 136.325 30.688 136.609 30.6974C136.898 30.7069 137.147 30.6406 137.355 30.4986C137.568 30.3565 137.741 30.1151 137.874 29.7741L138.051 29.3125L134.138 18.0909H137.32L139.578 26.1023H139.692L141.972 18.0909H145.175L140.935 30.179C140.731 30.7661 140.454 31.2775 140.104 31.7131C139.758 32.1534 139.32 32.492 138.79 32.7287C138.259 32.9702 137.62 33.0909 136.872 33.0909ZM159.299 18.6378C159.243 18.0649 158.999 17.6198 158.568 17.3026C158.137 16.9853 157.552 16.8267 156.814 16.8267C156.312 16.8267 155.888 16.8977 155.542 17.0398C155.197 17.1771 154.931 17.3688 154.747 17.6151C154.567 17.8613 154.477 18.1406 154.477 18.4531C154.467 18.7135 154.522 18.9408 154.64 19.1349C154.763 19.3291 154.931 19.4972 155.145 19.6392C155.358 19.7765 155.604 19.8973 155.883 20.0014C156.163 20.1009 156.461 20.1861 156.778 20.2571L158.085 20.5696C158.719 20.7116 159.302 20.901 159.832 21.1378C160.362 21.3745 160.822 21.6657 161.21 22.0114C161.598 22.357 161.899 22.7642 162.112 23.233C162.33 23.7017 162.441 24.2391 162.446 24.8452C162.441 25.7353 162.214 26.5071 161.764 27.1605C161.319 27.8092 160.675 28.3134 159.832 28.6733C158.994 29.0284 157.983 29.206 156.799 29.206C155.625 29.206 154.602 29.026 153.731 28.6662C152.865 28.3063 152.188 27.7737 151.7 27.0682C151.217 26.358 150.964 25.4796 150.94 24.4332H153.916C153.949 24.9209 154.089 25.3281 154.335 25.6548C154.586 25.9768 154.92 26.2206 155.336 26.3864C155.758 26.5473 156.234 26.6278 156.764 26.6278C157.285 26.6278 157.737 26.5521 158.12 26.4006C158.509 26.2491 158.809 26.0384 159.022 25.7685C159.235 25.4986 159.342 25.1884 159.342 24.8381C159.342 24.5114 159.245 24.2367 159.051 24.0142C158.861 23.7917 158.582 23.6023 158.213 23.446C157.848 23.2898 157.401 23.1477 156.87 23.0199L155.287 22.6222C154.06 22.3239 153.092 21.8575 152.382 21.223C151.672 20.5885 151.319 19.7339 151.324 18.6591C151.319 17.7784 151.553 17.009 152.027 16.3509C152.505 15.6927 153.161 15.179 153.994 14.8097C154.827 14.4403 155.774 14.2557 156.835 14.2557C157.914 14.2557 158.857 14.4403 159.662 14.8097C160.471 15.179 161.101 15.6927 161.551 16.3509C162.001 17.009 162.233 17.7713 162.247 18.6378H159.299ZM170.26 18.0909V20.3636H163.69V18.0909H170.26ZM165.182 15.4773H168.207V25.6477C168.207 25.9271 168.25 26.1449 168.335 26.3011C168.42 26.4527 168.539 26.5592 168.69 26.6207C168.847 26.6823 169.027 26.7131 169.23 26.7131C169.372 26.7131 169.514 26.7012 169.656 26.6776C169.798 26.6491 169.907 26.6278 169.983 26.6136L170.459 28.8651C170.307 28.9124 170.094 28.9669 169.82 29.0284C169.545 29.0947 169.211 29.1349 168.818 29.1491C168.089 29.1776 167.45 29.0805 166.901 28.858C166.356 28.6354 165.932 28.2898 165.629 27.821C165.326 27.3523 165.177 26.7604 165.182 26.0455V15.4773ZM177.043 29.2131C175.939 29.2131 174.985 28.9787 174.18 28.5099C173.38 28.0365 172.762 27.3783 172.327 26.5355C171.891 25.688 171.673 24.7055 171.673 23.5881C171.673 22.4612 171.891 21.4763 172.327 20.6335C172.762 19.786 173.38 19.1278 174.18 18.6591C174.985 18.1856 175.939 17.9489 177.043 17.9489C178.146 17.9489 179.098 18.1856 179.898 18.6591C180.703 19.1278 181.323 19.786 181.759 20.6335C182.194 21.4763 182.412 22.4612 182.412 23.5881C182.412 24.7055 182.194 25.688 181.759 26.5355C181.323 27.3783 180.703 28.0365 179.898 28.5099C179.098 28.9787 178.146 29.2131 177.043 29.2131ZM177.057 26.8693C177.559 26.8693 177.978 26.7273 178.314 26.4432C178.65 26.1544 178.903 25.7614 179.074 25.2642C179.249 24.767 179.337 24.2012 179.337 23.5668C179.337 22.9323 179.249 22.3665 179.074 21.8693C178.903 21.3722 178.65 20.9792 178.314 20.6903C177.978 20.4015 177.559 20.2571 177.057 20.2571C176.55 20.2571 176.124 20.4015 175.778 20.6903C175.438 20.9792 175.179 21.3722 175.004 21.8693C174.834 22.3665 174.749 22.9323 174.749 23.5668C174.749 24.2012 174.834 24.767 175.004 25.2642C175.179 25.7614 175.438 26.1544 175.778 26.4432C176.124 26.7273 176.55 26.8693 177.057 26.8693ZM184.379 29V18.0909H187.312V19.9943H187.426C187.625 19.3172 187.959 18.8059 188.428 18.4602C188.896 18.1098 189.436 17.9347 190.047 17.9347C190.198 17.9347 190.362 17.9441 190.537 17.9631C190.712 17.982 190.866 18.008 190.999 18.0412V20.7259C190.857 20.6832 190.66 20.6454 190.409 20.6122C190.158 20.5791 189.929 20.5625 189.72 20.5625C189.275 20.5625 188.877 20.6596 188.527 20.8537C188.181 21.0431 187.907 21.3082 187.703 21.6491C187.504 21.9901 187.405 22.383 187.405 22.8281V29H184.379ZM197.027 29.2131C195.904 29.2131 194.939 28.9858 194.129 28.5312C193.324 28.072 192.704 27.4233 192.268 26.5852C191.833 25.7424 191.615 24.7457 191.615 23.5952C191.615 22.473 191.833 21.4882 192.268 20.6406C192.704 19.7931 193.317 19.1326 194.108 18.6591C194.903 18.1856 195.836 17.9489 196.906 17.9489C197.626 17.9489 198.296 18.0649 198.916 18.2969C199.541 18.5241 200.085 18.8674 200.549 19.3267C201.018 19.786 201.383 20.3636 201.643 21.0597C201.904 21.7509 202.034 22.5606 202.034 23.4886V24.3196H192.822V22.4446H199.186C199.186 22.009 199.091 21.6231 198.902 21.2869C198.712 20.9508 198.449 20.688 198.113 20.4986C197.782 20.3045 197.396 20.2074 196.956 20.2074C196.496 20.2074 196.089 20.3139 195.734 20.527C195.384 20.7353 195.109 21.017 194.91 21.3722C194.711 21.7225 194.609 22.1132 194.605 22.544V24.3267C194.605 24.8665 194.704 25.3329 194.903 25.7259C195.107 26.1188 195.393 26.4219 195.762 26.6349C196.132 26.848 196.57 26.9545 197.076 26.9545C197.413 26.9545 197.72 26.9072 198 26.8125C198.279 26.7178 198.518 26.5758 198.717 26.3864C198.916 26.197 199.067 25.965 199.172 25.6903L201.97 25.875C201.828 26.5473 201.537 27.1345 201.096 27.6364C200.661 28.1335 200.097 28.5218 199.406 28.8011C198.719 29.0758 197.926 29.2131 197.027 29.2131Z"/>
</mask>
<path d="M48.2642 29V14.4545H54.0028C55.1061 14.4545 56.0459 14.6652 56.8224 15.0866C57.599 15.5033 58.1908 16.0833 58.598 16.8267C59.0099 17.5653 59.2159 18.4176 59.2159 19.3835C59.2159 20.3494 59.0076 21.2017 58.5909 21.9403C58.1742 22.679 57.5705 23.2543 56.7798 23.6662C55.9938 24.0781 55.0421 24.2841 53.9247 24.2841H50.267V21.8196H53.4276C54.0194 21.8196 54.5071 21.7178 54.8906 21.5142C55.2789 21.3059 55.5677 21.0194 55.7571 20.6548C55.9512 20.2855 56.0483 19.8617 56.0483 19.3835C56.0483 18.9006 55.9512 18.4792 55.7571 18.1193C55.5677 17.7547 55.2789 17.473 54.8906 17.2741C54.5024 17.0705 54.0099 16.9688 53.4134 16.9688H51.3395V29H48.2642ZM64.1822 22.6932V29H61.1566V14.4545H64.0969V20.0156H64.2248C64.471 19.3717 64.8687 18.8674 65.418 18.5028C65.9672 18.1335 66.6561 17.9489 67.4847 17.9489C68.2423 17.9489 68.9028 18.1146 69.4663 18.446C70.0344 18.7727 70.4748 19.2438 70.7873 19.8594C71.1045 20.4702 71.2608 21.2017 71.256 22.054V29H68.2305V22.5938C68.2352 21.9214 68.0647 21.3982 67.7191 21.0241C67.3782 20.6501 66.9 20.4631 66.2844 20.4631C65.8725 20.4631 65.5079 20.5507 65.1907 20.7259C64.8782 20.901 64.632 21.1567 64.4521 21.4929C64.2769 21.8243 64.1869 22.2244 64.1822 22.6932ZM76.7479 29.206C76.0518 29.206 75.4316 29.0852 74.8871 28.8438C74.3426 28.5975 73.9117 28.2353 73.5945 27.7571C73.282 27.2741 73.1257 26.6728 73.1257 25.9531C73.1257 25.3471 73.237 24.8381 73.4595 24.4261C73.6821 24.0142 73.9851 23.6828 74.3686 23.4318C74.7521 23.1809 75.1877 22.9915 75.6754 22.8636C76.1679 22.7358 76.6839 22.6458 77.2237 22.5938C77.8582 22.5275 78.3696 22.4659 78.7578 22.4091C79.1461 22.3475 79.4278 22.2576 79.603 22.1392C79.7782 22.0208 79.8658 21.8456 79.8658 21.6136V21.571C79.8658 21.1212 79.7237 20.7732 79.4396 20.527C79.1603 20.2808 78.7625 20.1577 78.2464 20.1577C77.7019 20.1577 77.2687 20.2784 76.9467 20.5199C76.6248 20.7566 76.4117 21.0549 76.3075 21.4148L73.5092 21.1875C73.6513 20.5246 73.9306 19.9517 74.3473 19.4688C74.764 18.9811 75.3014 18.607 75.9595 18.3466C76.6224 18.0814 77.3894 17.9489 78.2607 17.9489C78.8667 17.9489 79.4467 18.0199 80.0007 18.1619C80.5594 18.304 81.0542 18.5241 81.4851 18.8224C81.9207 19.1207 82.264 19.5043 82.5149 19.973C82.7659 20.437 82.8913 20.9934 82.8913 21.642V29H80.022V27.4872H79.9368C79.7616 27.8281 79.5272 28.1288 79.2337 28.3892C78.9401 28.6449 78.5874 28.8461 78.1754 28.9929C77.7635 29.1349 77.2876 29.206 76.7479 29.206ZM77.6143 27.1179C78.0594 27.1179 78.4524 27.0303 78.7933 26.8551C79.1342 26.6752 79.4018 26.4337 79.5959 26.1307C79.79 25.8277 79.8871 25.4844 79.8871 25.1009V23.9432C79.7924 24.0047 79.6622 24.0616 79.4964 24.1136C79.3355 24.161 79.1532 24.206 78.9496 24.2486C78.746 24.2865 78.5424 24.322 78.3388 24.3551C78.1352 24.3835 77.9505 24.4096 77.7848 24.4332C77.4297 24.4853 77.1196 24.5682 76.8544 24.6818C76.5893 24.7955 76.3833 24.9493 76.2365 25.1435C76.0897 25.3329 76.0163 25.5696 76.0163 25.8537C76.0163 26.2656 76.1655 26.5805 76.4638 26.7983C76.7668 27.0114 77.1503 27.1179 77.6143 27.1179ZM85.2386 29V18.0909H88.1719V19.9943H88.2855C88.4844 19.3172 88.8182 18.8059 89.2869 18.4602C89.7557 18.1098 90.2955 17.9347 90.9062 17.9347C91.0578 17.9347 91.2211 17.9441 91.3963 17.9631C91.5715 17.982 91.7254 18.008 91.858 18.0412V20.7259C91.7159 20.6832 91.5194 20.6454 91.2685 20.6122C91.0175 20.5791 90.7879 20.5625 90.5795 20.5625C90.1345 20.5625 89.7367 20.6596 89.3864 20.8537C89.0407 21.0431 88.7661 21.3082 88.5625 21.6491C88.3636 21.9901 88.2642 22.383 88.2642 22.8281V29H85.2386ZM93.4222 29V18.0909H96.3058V20.0156H96.4336C96.6609 19.3764 97.0397 18.8722 97.57 18.5028C98.1003 18.1335 98.7347 17.9489 99.4734 17.9489C100.221 17.9489 100.858 18.1359 101.384 18.5099C101.909 18.8793 102.26 19.3812 102.435 20.0156H102.549C102.771 19.3906 103.174 18.8911 103.756 18.517C104.343 18.1383 105.037 17.9489 105.837 17.9489C106.855 17.9489 107.681 18.2732 108.316 18.9219C108.955 19.5658 109.275 20.4796 109.275 21.6634V29H106.256V22.2599C106.256 21.6539 106.095 21.1993 105.773 20.8963C105.451 20.5933 105.049 20.4418 104.566 20.4418C104.016 20.4418 103.588 20.617 103.28 20.9673C102.972 21.313 102.819 21.7699 102.819 22.3381V29H99.8853V22.196C99.8853 21.661 99.7314 21.2348 99.4237 20.9176C99.1206 20.6004 98.7205 20.4418 98.2234 20.4418C97.8872 20.4418 97.5842 20.527 97.3143 20.6974C97.0491 20.8632 96.8384 21.0975 96.6822 21.4006C96.5259 21.6989 96.4478 22.0492 96.4478 22.4517V29H93.4222ZM114.775 29.206C114.079 29.206 113.459 29.0852 112.914 28.8438C112.37 28.5975 111.939 28.2353 111.622 27.7571C111.309 27.2741 111.153 26.6728 111.153 25.9531C111.153 25.3471 111.264 24.8381 111.487 24.4261C111.709 24.0142 112.012 23.6828 112.396 23.4318C112.779 23.1809 113.215 22.9915 113.703 22.8636C114.195 22.7358 114.711 22.6458 115.251 22.5938C115.886 22.5275 116.397 22.4659 116.785 22.4091C117.173 22.3475 117.455 22.2576 117.63 22.1392C117.806 22.0208 117.893 21.8456 117.893 21.6136V21.571C117.893 21.1212 117.751 20.7732 117.467 20.527C117.188 20.2808 116.79 20.1577 116.274 20.1577C115.729 20.1577 115.296 20.2784 114.974 20.5199C114.652 20.7566 114.439 21.0549 114.335 21.4148L111.537 21.1875C111.679 20.5246 111.958 19.9517 112.375 19.4688C112.791 18.9811 113.329 18.607 113.987 18.3466C114.65 18.0814 115.417 17.9489 116.288 17.9489C116.894 17.9489 117.474 18.0199 118.028 18.1619C118.587 18.304 119.082 18.5241 119.512 18.8224C119.948 19.1207 120.291 19.5043 120.542 19.973C120.793 20.437 120.919 20.9934 120.919 21.642V29H118.049V27.4872H117.964C117.789 27.8281 117.555 28.1288 117.261 28.3892C116.967 28.6449 116.615 28.8461 116.203 28.9929C115.791 29.1349 115.315 29.206 114.775 29.206ZM115.642 27.1179C116.087 27.1179 116.48 27.0303 116.821 26.8551C117.162 26.6752 117.429 26.4337 117.623 26.1307C117.817 25.8277 117.914 25.4844 117.914 25.1009V23.9432C117.82 24.0047 117.69 24.0616 117.524 24.1136C117.363 24.161 117.181 24.206 116.977 24.2486C116.773 24.2865 116.57 24.322 116.366 24.3551C116.163 24.3835 115.978 24.4096 115.812 24.4332C115.457 24.4853 115.147 24.5682 114.882 24.6818C114.617 24.7955 114.411 24.9493 114.264 25.1435C114.117 25.3329 114.044 25.5696 114.044 25.8537C114.044 26.2656 114.193 26.5805 114.491 26.7983C114.794 27.0114 115.178 27.1179 115.642 27.1179ZM128.195 29.2131C127.078 29.2131 126.116 28.9763 125.311 28.5028C124.511 28.0246 123.896 27.3617 123.465 26.5142C123.039 25.6667 122.826 24.6913 122.826 23.5881C122.826 22.4706 123.041 21.4905 123.472 20.6477C123.908 19.8002 124.525 19.1397 125.326 18.6662C126.126 18.188 127.078 17.9489 128.181 17.9489C129.132 17.9489 129.966 18.1217 130.681 18.4673C131.396 18.813 131.962 19.2983 132.378 19.9233C132.795 20.5483 133.025 21.2822 133.067 22.125H130.212C130.132 21.5805 129.918 21.1425 129.573 20.8111C129.232 20.4749 128.784 20.3068 128.23 20.3068C127.762 20.3068 127.352 20.4347 127.002 20.6903C126.656 20.9413 126.386 21.3082 126.192 21.7912C125.998 22.2741 125.901 22.8589 125.901 23.5455C125.901 24.2415 125.996 24.8333 126.185 25.321C126.379 25.8087 126.651 26.1804 127.002 26.4361C127.352 26.6918 127.762 26.8196 128.23 26.8196C128.576 26.8196 128.886 26.7486 129.161 26.6065C129.44 26.4645 129.67 26.2585 129.85 25.9886C130.034 25.714 130.155 25.3849 130.212 25.0014H133.067C133.02 25.8348 132.792 26.5687 132.385 27.2031C131.983 27.8329 131.426 28.3253 130.716 28.6804C130.006 29.0355 129.166 29.2131 128.195 29.2131ZM136.872 33.0909C136.489 33.0909 136.129 33.0601 135.793 32.9986C135.461 32.9418 135.187 32.8684 134.969 32.7784L135.651 30.5199C136.006 30.6288 136.325 30.688 136.609 30.6974C136.898 30.7069 137.147 30.6406 137.355 30.4986C137.568 30.3565 137.741 30.1151 137.874 29.7741L138.051 29.3125L134.138 18.0909H137.32L139.578 26.1023H139.692L141.972 18.0909H145.175L140.935 30.179C140.731 30.7661 140.454 31.2775 140.104 31.7131C139.758 32.1534 139.32 32.492 138.79 32.7287C138.259 32.9702 137.62 33.0909 136.872 33.0909ZM159.299 18.6378C159.243 18.0649 158.999 17.6198 158.568 17.3026C158.137 16.9853 157.552 16.8267 156.814 16.8267C156.312 16.8267 155.888 16.8977 155.542 17.0398C155.197 17.1771 154.931 17.3688 154.747 17.6151C154.567 17.8613 154.477 18.1406 154.477 18.4531C154.467 18.7135 154.522 18.9408 154.64 19.1349C154.763 19.3291 154.931 19.4972 155.145 19.6392C155.358 19.7765 155.604 19.8973 155.883 20.0014C156.163 20.1009 156.461 20.1861 156.778 20.2571L158.085 20.5696C158.719 20.7116 159.302 20.901 159.832 21.1378C160.362 21.3745 160.822 21.6657 161.21 22.0114C161.598 22.357 161.899 22.7642 162.112 23.233C162.33 23.7017 162.441 24.2391 162.446 24.8452C162.441 25.7353 162.214 26.5071 161.764 27.1605C161.319 27.8092 160.675 28.3134 159.832 28.6733C158.994 29.0284 157.983 29.206 156.799 29.206C155.625 29.206 154.602 29.026 153.731 28.6662C152.865 28.3063 152.188 27.7737 151.7 27.0682C151.217 26.358 150.964 25.4796 150.94 24.4332H153.916C153.949 24.9209 154.089 25.3281 154.335 25.6548C154.586 25.9768 154.92 26.2206 155.336 26.3864C155.758 26.5473 156.234 26.6278 156.764 26.6278C157.285 26.6278 157.737 26.5521 158.12 26.4006C158.509 26.2491 158.809 26.0384 159.022 25.7685C159.235 25.4986 159.342 25.1884 159.342 24.8381C159.342 24.5114 159.245 24.2367 159.051 24.0142C158.861 23.7917 158.582 23.6023 158.213 23.446C157.848 23.2898 157.401 23.1477 156.87 23.0199L155.287 22.6222C154.06 22.3239 153.092 21.8575 152.382 21.223C151.672 20.5885 151.319 19.7339 151.324 18.6591C151.319 17.7784 151.553 17.009 152.027 16.3509C152.505 15.6927 153.161 15.179 153.994 14.8097C154.827 14.4403 155.774 14.2557 156.835 14.2557C157.914 14.2557 158.857 14.4403 159.662 14.8097C160.471 15.179 161.101 15.6927 161.551 16.3509C162.001 17.009 162.233 17.7713 162.247 18.6378H159.299ZM170.26 18.0909V20.3636H163.69V18.0909H170.26ZM165.182 15.4773H168.207V25.6477C168.207 25.9271 168.25 26.1449 168.335 26.3011C168.42 26.4527 168.539 26.5592 168.69 26.6207C168.847 26.6823 169.027 26.7131 169.23 26.7131C169.372 26.7131 169.514 26.7012 169.656 26.6776C169.798 26.6491 169.907 26.6278 169.983 26.6136L170.459 28.8651C170.307 28.9124 170.094 28.9669 169.82 29.0284C169.545 29.0947 169.211 29.1349 168.818 29.1491C168.089 29.1776 167.45 29.0805 166.901 28.858C166.356 28.6354 165.932 28.2898 165.629 27.821C165.326 27.3523 165.177 26.7604 165.182 26.0455V15.4773ZM177.043 29.2131C175.939 29.2131 174.985 28.9787 174.18 28.5099C173.38 28.0365 172.762 27.3783 172.327 26.5355C171.891 25.688 171.673 24.7055 171.673 23.5881C171.673 22.4612 171.891 21.4763 172.327 20.6335C172.762 19.786 173.38 19.1278 174.18 18.6591C174.985 18.1856 175.939 17.9489 177.043 17.9489C178.146 17.9489 179.098 18.1856 179.898 18.6591C180.703 19.1278 181.323 19.786 181.759 20.6335C182.194 21.4763 182.412 22.4612 182.412 23.5881C182.412 24.7055 182.194 25.688 181.759 26.5355C181.323 27.3783 180.703 28.0365 179.898 28.5099C179.098 28.9787 178.146 29.2131 177.043 29.2131ZM177.057 26.8693C177.559 26.8693 177.978 26.7273 178.314 26.4432C178.65 26.1544 178.903 25.7614 179.074 25.2642C179.249 24.767 179.337 24.2012 179.337 23.5668C179.337 22.9323 179.249 22.3665 179.074 21.8693C178.903 21.3722 178.65 20.9792 178.314 20.6903C177.978 20.4015 177.559 20.2571 177.057 20.2571C176.55 20.2571 176.124 20.4015 175.778 20.6903C175.438 20.9792 175.179 21.3722 175.004 21.8693C174.834 22.3665 174.749 22.9323 174.749 23.5668C174.749 24.2012 174.834 24.767 175.004 25.2642C175.179 25.7614 175.438 26.1544 175.778 26.4432C176.124 26.7273 176.55 26.8693 177.057 26.8693ZM184.379 29V18.0909H187.312V19.9943H187.426C187.625 19.3172 187.959 18.8059 188.428 18.4602C188.896 18.1098 189.436 17.9347 190.047 17.9347C190.198 17.9347 190.362 17.9441 190.537 17.9631C190.712 17.982 190.866 18.008 190.999 18.0412V20.7259C190.857 20.6832 190.66 20.6454 190.409 20.6122C190.158 20.5791 189.929 20.5625 189.72 20.5625C189.275 20.5625 188.877 20.6596 188.527 20.8537C188.181 21.0431 187.907 21.3082 187.703 21.6491C187.504 21.9901 187.405 22.383 187.405 22.8281V29H184.379ZM197.027 29.2131C195.904 29.2131 194.939 28.9858 194.129 28.5312C193.324 28.072 192.704 27.4233 192.268 26.5852C191.833 25.7424 191.615 24.7457 191.615 23.5952C191.615 22.473 191.833 21.4882 192.268 20.6406C192.704 19.7931 193.317 19.1326 194.108 18.6591C194.903 18.1856 195.836 17.9489 196.906 17.9489C197.626 17.9489 198.296 18.0649 198.916 18.2969C199.541 18.5241 200.085 18.8674 200.549 19.3267C201.018 19.786 201.383 20.3636 201.643 21.0597C201.904 21.7509 202.034 22.5606 202.034 23.4886V24.3196H192.822V22.4446H199.186C199.186 22.009 199.091 21.6231 198.902 21.2869C198.712 20.9508 198.449 20.688 198.113 20.4986C197.782 20.3045 197.396 20.2074 196.956 20.2074C196.496 20.2074 196.089 20.3139 195.734 20.527C195.384 20.7353 195.109 21.017 194.91 21.3722C194.711 21.7225 194.609 22.1132 194.605 22.544V24.3267C194.605 24.8665 194.704 25.3329 194.903 25.7259C195.107 26.1188 195.393 26.4219 195.762 26.6349C196.132 26.848 196.57 26.9545 197.076 26.9545C197.413 26.9545 197.72 26.9072 198 26.8125C198.279 26.7178 198.518 26.5758 198.717 26.3864C198.916 26.197 199.067 25.965 199.172 25.6903L201.97 25.875C201.828 26.5473 201.537 27.1345 201.096 27.6364C200.661 28.1335 200.097 28.5218 199.406 28.8011C198.719 29.0758 197.926 29.2131 197.027 29.2131Z" fill="white"/>
<path d="M48.2642 29H47.2642V30H48.2642V29ZM48.2642 14.4545V13.4545H47.2642V14.4545H48.2642ZM56.8224 15.0866L56.3455 15.9656L56.3496 15.9678L56.8224 15.0866ZM58.598 16.8267L57.7209 17.3071L57.7246 17.3138L58.598 16.8267ZM56.7798 23.6662L56.3178 22.7793L56.3156 22.7805L56.7798 23.6662ZM50.267 24.2841H49.267V25.2841H50.267V24.2841ZM50.267 21.8196V20.8196H49.267V21.8196H50.267ZM54.8906 21.5142L55.3595 22.3975L55.3634 22.3954L54.8906 21.5142ZM55.7571 20.6548L54.8719 20.1895L54.8697 20.1938L55.7571 20.6548ZM55.7571 18.1193L54.8697 18.5803L54.8733 18.5872L54.877 18.5941L55.7571 18.1193ZM54.8906 17.2741L54.4262 18.1598L54.4347 18.1642L54.8906 17.2741ZM51.3395 16.9688V15.9688H50.3395V16.9688H51.3395ZM51.3395 29V30H52.3395V29H51.3395ZM49.2642 29V14.4545H47.2642V29H49.2642ZM48.2642 15.4545H54.0028V13.4545H48.2642V15.4545ZM54.0028 15.4545C54.9802 15.4545 55.7474 15.641 56.3455 15.9656L57.2994 14.2077C56.3444 13.6895 55.2319 13.4545 54.0028 13.4545V15.4545ZM56.3496 15.9678C56.9626 16.2967 57.4107 16.7406 57.721 17.3071L59.4751 16.3463C58.971 15.426 58.2353 14.7099 57.2953 14.2055L56.3496 15.9678ZM57.7246 17.3138C58.0423 17.8834 58.2159 18.5636 58.2159 19.3835H60.2159C60.2159 18.2717 59.9775 17.2472 59.4714 16.3396L57.7246 17.3138ZM58.2159 19.3835C58.2159 20.2016 58.0408 20.8801 57.7199 21.449L59.4619 22.4317C59.9743 21.5233 60.2159 20.4973 60.2159 19.3835H58.2159ZM57.7199 21.449C57.4034 22.0101 56.9461 22.452 56.3178 22.7793L57.2419 24.5531C58.195 24.0565 58.9451 23.3478 59.4619 22.4317L57.7199 21.449ZM56.3156 22.7805C55.7052 23.1004 54.9214 23.2841 53.9247 23.2841V25.2841C55.1628 25.2841 56.2825 25.0559 57.244 24.5519L56.3156 22.7805ZM53.9247 23.2841H50.267V25.2841H53.9247V23.2841ZM51.267 24.2841V21.8196H49.267V24.2841H51.267ZM50.267 22.8196H53.4276V20.8196H50.267V22.8196ZM53.4276 22.8196C54.1263 22.8196 54.7888 22.7005 55.3595 22.3975L54.4217 20.6309C54.2254 20.7352 53.9125 20.8196 53.4276 20.8196V22.8196ZM55.3634 22.3954C55.9155 22.0991 56.3555 21.6721 56.6445 21.1158L54.8697 20.1938C54.7799 20.3667 54.6423 20.5126 54.4178 20.633L55.3634 22.3954ZM56.6423 21.1201C56.9222 20.5876 57.0483 20 57.0483 19.3835H55.0483C55.0483 19.7235 54.9803 19.9835 54.8719 20.1896L56.6423 21.1201ZM57.0483 19.3835C57.0483 18.7649 56.9232 18.1746 56.6372 17.6445L54.877 18.5941C54.9793 18.7837 55.0483 19.0363 55.0483 19.3835H57.0483ZM56.6445 17.6583C56.3533 17.0977 55.9076 16.6715 55.3465 16.3841L54.4347 18.1642C54.6502 18.2745 54.7822 18.4118 54.8697 18.5803L56.6445 17.6583ZM55.355 16.3885C54.7813 16.0876 54.1161 15.9688 53.4134 15.9688V17.9688C53.9038 17.9688 54.2235 18.0535 54.4262 18.1598L55.355 16.3885ZM53.4134 15.9688H51.3395V17.9688H53.4134V15.9688ZM50.3395 16.9688V29H52.3395V16.9688H50.3395ZM51.3395 28H48.2642V30H51.3395V28ZM64.1822 22.6932L63.1822 22.6831V22.6932H64.1822ZM64.1822 29V30H65.1822V29H64.1822ZM61.1566 29H60.1566V30H61.1566V29ZM61.1566 14.4545V13.4545H60.1566V14.4545H61.1566ZM64.0969 14.4545H65.0969V13.4545H64.0969V14.4545ZM64.0969 20.0156H63.0969V21.0156H64.0969V20.0156ZM64.2248 20.0156V21.0156H64.913L65.1588 20.3728L64.2248 20.0156ZM65.418 18.5028L65.971 19.336L65.976 19.3327L65.418 18.5028ZM69.4663 18.446L68.9592 19.308L68.9678 19.3129L69.4663 18.446ZM70.7873 19.8594L69.8956 20.3121L69.8998 20.3203L70.7873 19.8594ZM71.256 22.054L70.256 22.0484V22.054H71.256ZM71.256 29V30H72.256V29H71.256ZM68.2305 29H67.2305V30H68.2305V29ZM68.2305 22.5938L67.2305 22.5867V22.5938H68.2305ZM67.7191 21.0241L66.98 21.6978L66.9847 21.7028L67.7191 21.0241ZM65.1907 20.7259L64.7073 19.8504L64.7017 19.8536L65.1907 20.7259ZM64.4521 21.4929L63.5704 21.021L63.568 21.0256L64.4521 21.4929ZM63.1822 22.6932V29H65.1822V22.6932H63.1822ZM64.1822 28H61.1566V30H64.1822V28ZM62.1566 29V14.4545H60.1566V29H62.1566ZM61.1566 15.4545H64.0969V13.4545H61.1566V15.4545ZM63.0969 14.4545V20.0156H65.0969V14.4545H63.0969ZM64.0969 21.0156H64.2248V19.0156H64.0969V21.0156ZM65.1588 20.3728C65.3343 19.9138 65.6035 19.58 65.971 19.336L64.8649 17.6697C64.134 18.1549 63.6077 18.8296 63.2907 19.6585L65.1588 20.3728ZM65.976 19.3327C66.323 19.0993 66.8047 18.9489 67.4847 18.9489V16.9489C66.5075 16.9489 65.6114 17.1677 64.86 17.673L65.976 19.3327ZM67.4847 18.9489C68.0927 18.9489 68.5725 19.0804 68.9592 19.308L69.9733 17.5841C69.2332 17.1487 68.3919 16.9489 67.4847 16.9489V18.9489ZM68.9678 19.3129C69.3582 19.5374 69.6662 19.8602 69.8956 20.3121L71.679 19.4067C71.2834 18.6275 70.7107 18.008 69.9647 17.5791L68.9678 19.3129ZM69.8998 20.3203C70.1265 20.7567 70.2601 21.3204 70.2561 22.0484L72.256 22.0595C72.2614 21.083 72.0825 20.1837 71.6747 19.3985L69.8998 20.3203ZM70.256 22.054V29H72.256V22.054H70.256ZM71.256 28H68.2305V30H71.256V28ZM69.2305 29V22.5938H67.2305V29H69.2305ZM69.2304 22.6008C69.2364 21.7579 69.0209 20.9595 68.4536 20.3455L66.9847 21.7028C67.1086 21.8369 67.234 22.0849 67.2305 22.5867L69.2304 22.6008ZM68.4582 20.3505C67.8876 19.7245 67.1155 19.4631 66.2844 19.4631V21.4631C66.6845 21.4631 66.8688 21.5757 66.98 21.6978L68.4582 20.3505ZM66.2844 19.4631C65.7269 19.4631 65.1918 19.5829 64.7073 19.8505L65.6741 21.6012C65.8241 21.5184 66.0182 21.4631 66.2844 21.4631V19.4631ZM64.7017 19.8536C64.2119 20.1281 63.8343 20.528 63.5704 21.021L65.3337 21.9648C65.4297 21.7855 65.5445 21.674 65.6797 21.5981L64.7017 19.8536ZM63.568 21.0256C63.3019 21.5289 63.1882 22.094 63.1822 22.6831L65.1821 22.7033C65.1856 22.3549 65.2518 22.1197 65.3362 21.9602L63.568 21.0256ZM74.8871 28.8438L74.4751 29.755L74.4817 29.7579L74.8871 28.8438ZM73.5945 27.7571L72.7548 28.3004L72.7611 28.3099L73.5945 27.7571ZM73.4595 24.4261L72.5797 23.9508L72.5797 23.9508L73.4595 24.4261ZM74.3686 23.4318L73.8211 22.595L73.8211 22.595L74.3686 23.4318ZM75.6754 22.8636L75.4241 21.8957L75.4219 21.8963L75.6754 22.8636ZM77.2237 22.5938L77.3198 23.5892L77.3276 23.5883L77.2237 22.5938ZM78.7578 22.4091L78.9026 23.3986L78.9144 23.3968L78.7578 22.4091ZM79.603 22.1392L79.0431 21.3106L79.0431 21.3106L79.603 22.1392ZM79.4396 20.527L78.7784 21.2772L78.7847 21.2827L79.4396 20.527ZM76.9467 20.5199L77.5392 21.3256L77.5467 21.3199L76.9467 20.5199ZM76.3075 21.4148L76.2266 22.4115L77.0409 22.4776L77.2681 21.6928L76.3075 21.4148ZM73.5092 21.1875L72.5314 20.978L72.2927 22.092L73.4283 22.1842L73.5092 21.1875ZM74.3473 19.4688L75.1045 20.122L75.1076 20.1183L74.3473 19.4688ZM75.9595 18.3466L76.3274 19.2765L76.3309 19.2751L75.9595 18.3466ZM80.0007 18.1619L79.7523 19.1306L79.7543 19.1311L80.0007 18.1619ZM81.4851 18.8224L80.9159 19.6446L80.9201 19.6475L81.4851 18.8224ZM82.5149 19.973L81.6333 20.445L81.6353 20.4487L82.5149 19.973ZM82.8913 29V30H83.8913V29H82.8913ZM80.022 29H79.022V30H80.022V29ZM80.022 27.4872H81.022V26.4872H80.022V27.4872ZM79.9368 27.4872V26.4872H79.3264L79.0474 27.0301L79.9368 27.4872ZM79.2337 28.3892L79.8905 29.1433L79.8973 29.1373L79.2337 28.3892ZM78.1754 28.9929L78.5014 29.9383L78.5111 29.9349L78.1754 28.9929ZM78.7933 26.8551L79.2504 27.7446L79.2601 27.7395L78.7933 26.8551ZM79.5959 26.1307L78.7538 25.5913L78.7538 25.5913L79.5959 26.1307ZM79.8871 23.9432H80.8871V22.1005L79.3421 23.1047L79.8871 23.9432ZM79.4964 24.1136L79.7786 25.073L79.7875 25.0704L79.7963 25.0676L79.4964 24.1136ZM78.9496 24.2486L79.1325 25.2317L79.1435 25.2297L79.1544 25.2274L78.9496 24.2486ZM78.3388 24.3551L78.477 25.3455L78.4882 25.3439L78.4995 25.3421L78.3388 24.3551ZM77.7848 24.4332L77.6434 23.4433L77.6397 23.4438L77.7848 24.4332ZM76.8544 24.6818L77.2483 25.601L77.2483 25.601L76.8544 24.6818ZM76.2365 25.1435L77.027 25.7561L77.0342 25.7466L76.2365 25.1435ZM76.4638 26.7983L75.8741 27.6059L75.8813 27.6112L75.8886 27.6163L76.4638 26.7983ZM76.7479 28.206C76.1682 28.206 75.6896 28.1057 75.2925 27.9296L74.4817 29.7579C75.1735 30.0647 75.9355 30.206 76.7479 30.206V28.206ZM75.2991 27.9326C74.9185 27.7605 74.6366 27.5192 74.4278 27.2043L72.7611 28.3099C73.1867 28.9515 73.7667 29.4346 74.4751 29.7549L75.2991 27.9326ZM74.434 27.2139C74.2497 26.929 74.1257 26.5284 74.1257 25.9531H72.1257C72.1257 26.8173 72.3142 27.6193 72.7549 28.3004L74.434 27.2139ZM74.1257 25.9531C74.1257 25.4656 74.2155 25.1306 74.3393 24.9014L72.5797 23.9508C72.2584 24.5455 72.1257 25.2286 72.1257 25.9531H74.1257ZM74.3393 24.9014C74.4846 24.6325 74.6748 24.4265 74.9161 24.2686L73.8211 22.595C73.2954 22.939 72.8795 23.3959 72.5797 23.9508L74.3393 24.9014ZM74.9161 24.2686C75.2008 24.0823 75.5353 23.9342 75.929 23.831L75.4219 21.8963C74.8402 22.0488 74.3035 22.2794 73.8211 22.595L74.9161 24.2686ZM75.9267 23.8315C76.365 23.7178 76.829 23.6365 77.3198 23.5891L77.1277 21.5984C76.5389 21.6552 75.9707 21.7538 75.4241 21.8957L75.9267 23.8315ZM77.3276 23.5883C77.9685 23.5214 78.4951 23.4582 78.9026 23.3986L78.613 21.4196C78.2441 21.4736 77.7479 21.5335 77.1198 21.5992L77.3276 23.5883ZM78.9144 23.3968C79.3438 23.3287 79.8024 23.2113 80.1628 22.9678L79.0431 21.3106C79.0588 21.3 79.0394 21.3162 78.9561 21.3428C78.8762 21.3684 78.7605 21.3962 78.6012 21.4214L78.9144 23.3968ZM80.1628 22.9678C80.6434 22.6431 80.8658 22.1397 80.8658 21.6136H78.8658C78.8658 21.6029 78.8683 21.5465 78.9056 21.4718C78.9448 21.3935 78.9999 21.3398 79.0431 21.3106L80.1628 22.9678ZM80.8658 21.6136V21.571H78.8658V21.6136H80.8658ZM80.8658 21.571C80.8658 20.8937 80.641 20.2449 80.0946 19.7713L78.7847 21.2827C78.8064 21.3015 78.8658 21.3487 78.8658 21.571H80.8658ZM80.1008 19.7768C79.5789 19.3167 78.912 19.1577 78.2464 19.1577V21.1577C78.6131 21.1577 78.7417 21.2448 78.7784 21.2772L80.1008 19.7768ZM78.2464 19.1577C77.561 19.1577 76.8937 19.3096 76.3467 19.7199L77.5467 21.3199C77.6437 21.2472 77.8429 21.1577 78.2464 21.1577V19.1577ZM76.3543 19.7142C75.8675 20.0722 75.5166 20.5506 75.347 21.1367L77.2681 21.6928C77.3068 21.5592 77.382 21.4411 77.5391 21.3255L76.3543 19.7142ZM76.3885 20.4181L73.5902 20.1908L73.4283 22.1842L76.2266 22.4115L76.3885 20.4181ZM74.487 21.397C74.5962 20.8876 74.8043 20.4699 75.1045 20.122L73.5901 18.8155C73.057 19.4335 72.7064 20.1617 72.5314 20.978L74.487 21.397ZM75.1076 20.1183C75.4077 19.7671 75.805 19.4832 76.3274 19.2764L75.5916 17.4167C74.7977 17.7308 74.1203 18.195 73.587 18.8192L75.1076 20.1183ZM76.3309 19.2751C76.8528 19.0663 77.4894 18.9489 78.2607 18.9489V16.9489C77.2894 16.9489 76.392 17.0966 75.5881 17.4181L76.3309 19.2751ZM78.2607 18.9489C78.7879 18.9489 79.2842 19.0106 79.7523 19.1306L80.2491 17.1933C79.6093 17.0292 78.9455 16.9489 78.2607 16.9489V18.9489ZM79.7543 19.1311C80.2091 19.2467 80.5923 19.4206 80.9159 19.6446L82.0543 18.0002C81.5161 17.6277 80.9098 17.3612 80.2471 17.1928L79.7543 19.1311ZM80.9201 19.6475C81.2224 19.8545 81.4575 20.1166 81.6333 20.445L83.3965 19.501C83.0704 18.8919 82.619 18.3869 82.0501 17.9974L80.9201 19.6475ZM81.6353 20.4487C81.7911 20.7367 81.8913 21.1218 81.8913 21.642H83.8913C83.8913 20.865 83.7407 20.1373 83.3945 19.4973L81.6353 20.4487ZM81.8913 21.642V29H83.8913V21.642H81.8913ZM82.8913 28H80.022V30H82.8913V28ZM81.022 29V27.4872H79.022V29H81.022ZM80.022 26.4872H79.9368V28.4872H80.022V26.4872ZM79.0474 27.0301C78.9301 27.2583 78.7732 27.4609 78.5701 27.6411L79.8973 29.1373C80.2812 28.7967 80.5931 28.398 80.8262 27.9443L79.0474 27.0301ZM78.5769 27.6351C78.3886 27.7991 78.1483 27.941 77.8398 28.0509L78.5111 29.9349C79.0264 29.7513 79.4916 29.4907 79.8904 29.1433L78.5769 27.6351ZM77.8494 28.0475C77.564 28.1459 77.2021 28.206 76.7479 28.206V30.206C77.3731 30.206 77.963 30.1239 78.5014 29.9383L77.8494 28.0475ZM77.6143 28.1179C78.1927 28.1179 78.7469 28.0033 79.2504 27.7445L78.3363 25.9657C78.1579 26.0573 77.9261 26.1179 77.6143 26.1179V28.1179ZM79.2601 27.7395C79.7426 27.4849 80.144 27.1289 80.4379 26.6701L78.7538 25.5913C78.6595 25.7385 78.5259 25.8655 78.3266 25.9707L79.2601 27.7395ZM80.4379 26.6701C80.7421 26.1953 80.8871 25.6624 80.8871 25.1009H78.8871C78.8871 25.3063 78.838 25.46 78.7538 25.5913L80.4379 26.6701ZM80.8871 25.1009V23.9432H78.8871V25.1009H80.8871ZM79.3421 23.1047C79.3508 23.099 79.3454 23.1037 79.3185 23.1154C79.2923 23.1268 79.2526 23.142 79.1966 23.1596L79.7963 25.0676C80.0074 25.0013 80.232 24.9116 80.4321 24.7816L79.3421 23.1047ZM79.2143 23.1543C79.084 23.1926 78.9282 23.2314 78.7447 23.2698L79.1544 25.2274C79.3782 25.1805 79.587 25.1294 79.7786 25.073L79.2143 23.1543ZM78.7667 23.2654C78.5704 23.302 78.3742 23.3362 78.1781 23.3681L78.4995 25.3421C78.7105 25.3078 78.9215 25.271 79.1325 25.2317L78.7667 23.2654ZM78.2006 23.3647C77.9961 23.3932 77.8104 23.4194 77.6434 23.4433L77.9262 25.4232C78.0907 25.3997 78.2742 25.3738 78.477 25.3455L78.2006 23.3647ZM77.6397 23.4438C77.2188 23.5055 76.8218 23.6078 76.4605 23.7627L77.2483 25.601C77.4174 25.5285 77.6405 25.4651 77.9299 25.4227L77.6397 23.4438ZM76.4605 23.7627C76.0653 23.932 75.7084 24.1839 75.4388 24.5404L77.0342 25.7466C77.0582 25.7148 77.1132 25.6589 77.2483 25.601L76.4605 23.7627ZM75.4461 24.5309C75.1394 24.9266 75.0163 25.3905 75.0163 25.8537H77.0163C77.0163 25.7977 77.0235 25.7688 77.0265 25.7592C77.029 25.7513 77.0295 25.7527 77.0269 25.756L75.4461 24.5309ZM75.0163 25.8537C75.0163 26.5424 75.2854 27.1761 75.8741 27.6059L77.0535 25.9907C77.04 25.9808 77.0347 25.9747 77.0337 25.9736C77.0329 25.9726 77.0327 25.9722 77.0319 25.9707C77.0313 25.9693 77.0163 25.9383 77.0163 25.8537H75.0163ZM75.8886 27.6163C76.3983 27.9747 76.9968 28.1179 77.6143 28.1179V26.1179C77.3039 26.1179 77.1353 26.048 77.039 25.9803L75.8886 27.6163ZM85.2386 29H84.2386V30H85.2386V29ZM85.2386 18.0909V17.0909H84.2386V18.0909H85.2386ZM88.1719 18.0909H89.1719V17.0909H88.1719V18.0909ZM88.1719 19.9943H87.1719V20.9943H88.1719V19.9943ZM88.2855 19.9943V20.9943H89.034L89.245 20.2761L88.2855 19.9943ZM89.2869 18.4602L89.8804 19.2651L89.8856 19.2612L89.2869 18.4602ZM91.3963 17.9631L91.5038 16.9689L91.5038 16.9689L91.3963 17.9631ZM91.858 18.0412H92.858V17.2604L92.1005 17.071L91.858 18.0412ZM91.858 20.7259L91.5706 21.6837L92.858 22.0699V20.7259H91.858ZM89.3864 20.8537L89.8669 21.7307L89.871 21.7284L89.3864 20.8537ZM88.5625 21.6491L87.7039 21.1364L87.6987 21.1453L88.5625 21.6491ZM88.2642 29V30H89.2642V29H88.2642ZM86.2386 29V18.0909H84.2386V29H86.2386ZM85.2386 19.0909H88.1719V17.0909H85.2386V19.0909ZM87.1719 18.0909V19.9943H89.1719V18.0909H87.1719ZM88.1719 20.9943H88.2855V18.9943H88.1719V20.9943ZM89.245 20.2761C89.3957 19.7631 89.6223 19.4554 89.8804 19.2651L88.6935 17.6554C88.0141 18.1563 87.5731 18.8713 87.326 19.7125L89.245 20.2761ZM89.8856 19.2612C90.1736 19.0459 90.5012 18.9347 90.9062 18.9347V16.9347C90.0897 16.9347 89.3378 17.1738 88.6882 17.6593L89.8856 19.2612ZM90.9062 18.9347C91.0166 18.9347 91.1437 18.9416 91.2888 18.9573L91.5038 16.9689C91.2985 16.9467 91.0989 16.9347 90.9062 16.9347V18.9347ZM91.2888 18.9573C91.4308 18.9726 91.5378 18.9919 91.6154 19.0113L92.1005 17.071C91.9129 17.0242 91.7122 16.9914 91.5038 16.9689L91.2888 18.9573ZM90.858 18.0412V20.7259H92.858V18.0412H90.858ZM92.1453 19.768C91.9288 19.7031 91.6719 19.6568 91.3994 19.6208L91.1375 21.6036C91.3669 21.6339 91.5031 21.6634 91.5706 21.6837L92.1453 19.768ZM91.3994 19.6208C91.1139 19.5831 90.8398 19.5625 90.5795 19.5625V21.5625C90.736 21.5625 90.9211 21.575 91.1375 21.6036L91.3994 19.6208ZM90.5795 19.5625C89.9841 19.5625 89.4164 19.6938 88.9017 19.979L89.871 21.7284C90.0571 21.6253 90.2848 21.5625 90.5795 21.5625V19.5625ZM88.9058 19.9767C88.4028 20.2524 87.9982 20.6438 87.704 21.1364L89.421 22.1619C89.534 21.9727 89.6787 21.8338 89.8669 21.7307L88.9058 19.9767ZM87.6987 21.1453C87.3997 21.6579 87.2642 22.2291 87.2642 22.8281H89.2642C89.2642 22.537 89.3276 22.3222 89.4263 22.153L87.6987 21.1453ZM87.2642 22.8281V29H89.2642V22.8281H87.2642ZM88.2642 28H85.2386V30H88.2642V28ZM93.4222 29H92.4222V30H93.4222V29ZM93.4222 18.0909V17.0909H92.4222V18.0909H93.4222ZM96.3058 18.0909H97.3058V17.0909H96.3058V18.0909ZM96.3058 20.0156H95.3058V21.0156H96.3058V20.0156ZM96.4336 20.0156V21.0156H97.1394L97.3758 20.3506L96.4336 20.0156ZM97.57 18.5028L96.9985 17.6822L96.9985 17.6822L97.57 18.5028ZM101.384 18.5099L100.804 19.3247L100.809 19.3281L101.384 18.5099ZM102.435 20.0156L101.471 20.2818L101.674 21.0156H102.435V20.0156ZM102.549 20.0156V21.0156H103.254L103.491 20.3511L102.549 20.0156ZM103.756 18.517L104.296 19.3584L104.298 19.3573L103.756 18.517ZM108.316 18.9219L107.601 19.6211L107.606 19.6264L108.316 18.9219ZM109.275 29V30H110.275V29H109.275ZM106.256 29H105.256V30H106.256V29ZM105.773 20.8963L105.088 21.6245L105.088 21.6245L105.773 20.8963ZM103.28 20.9673L104.027 21.6323L104.032 21.6273L103.28 20.9673ZM102.819 29V30H103.819V29H102.819ZM99.8853 29H98.8853V30H99.8853V29ZM99.4237 20.9176L98.7005 21.6084L98.7059 21.6139L99.4237 20.9176ZM97.3143 20.6974L97.8443 21.5455L97.8483 21.5429L97.3143 20.6974ZM96.6822 21.4006L97.568 21.8646L97.571 21.8589L96.6822 21.4006ZM96.4478 29V30H97.4478V29H96.4478ZM94.4222 29V18.0909H92.4222V29H94.4222ZM93.4222 19.0909H96.3058V17.0909H93.4222V19.0909ZM95.3058 18.0909V20.0156H97.3058V18.0909H95.3058ZM96.3058 21.0156H96.4336V19.0156H96.3058V21.0156ZM97.3758 20.3506C97.5369 19.8976 97.7912 19.5674 98.1415 19.3234L96.9985 17.6822C96.2881 18.1769 95.7848 18.8552 95.4914 19.6806L97.3758 20.3506ZM98.1415 19.3234C98.4808 19.0871 98.9088 18.9489 99.4734 18.9489V16.9489C98.5606 16.9489 97.7197 17.18 96.9985 17.6822L98.1415 19.3234ZM99.4734 18.9489C100.048 18.9489 100.474 19.0896 100.804 19.3247L101.964 17.6952C101.243 17.1822 100.395 16.9489 99.4734 16.9489V18.9489ZM100.809 19.3281C101.14 19.5606 101.356 19.8649 101.471 20.2818L103.399 19.7495C103.164 18.8975 102.679 18.1979 101.959 17.6918L100.809 19.3281ZM102.435 21.0156H102.549V19.0156H102.435V21.0156ZM103.491 20.3511C103.636 19.944 103.892 19.6185 104.296 19.3584L103.216 17.6756C102.456 18.1637 101.907 18.8372 101.607 19.6802L103.491 20.3511ZM104.298 19.3573C104.701 19.0973 105.2 18.9489 105.837 18.9489V16.9489C104.873 16.9489 103.985 17.1792 103.214 17.6767L104.298 19.3573ZM105.837 18.9489C106.622 18.9489 107.178 19.1891 107.601 19.6211L109.031 18.2226C108.184 17.3573 107.088 16.9489 105.837 16.9489V18.9489ZM107.606 19.6264C108.008 20.031 108.275 20.66 108.275 21.6634H110.275C110.275 20.2993 109.902 19.1006 109.025 18.2174L107.606 19.6264ZM108.275 21.6634V29H110.275V21.6634H108.275ZM109.275 28H106.256V30H109.275V28ZM107.256 29V22.2599H105.256V29H107.256ZM107.256 22.2599C107.256 21.4837 107.047 20.722 106.458 20.1681L105.088 21.6245C105.143 21.6767 105.256 21.8241 105.256 22.2599H107.256ZM106.458 20.1681C105.933 19.6737 105.278 19.4418 104.566 19.4418V21.4418C104.82 21.4418 104.969 21.5129 105.088 21.6245L106.458 20.1681ZM104.566 19.4418C103.785 19.4418 103.061 19.7019 102.529 20.3074L104.032 21.6273C104.115 21.532 104.248 21.4418 104.566 21.4418V19.4418ZM102.533 20.3023C102.028 20.8704 101.819 21.583 101.819 22.3381H103.819C103.819 21.9568 103.917 21.7555 104.027 21.6323L102.533 20.3023ZM101.819 22.3381V29H103.819V22.3381H101.819ZM102.819 28H99.8853V30H102.819V28ZM100.885 29V22.196H98.8853V29H100.885ZM100.885 22.196C100.885 21.4592 100.667 20.7631 100.141 20.2213L98.7059 21.6139C98.7959 21.7066 98.8853 21.8628 98.8853 22.196H100.885ZM100.147 20.2269C99.6291 19.685 98.9538 19.4418 98.2234 19.4418V21.4418C98.4873 21.4418 98.6121 21.5158 98.7005 21.6083L100.147 20.2269ZM98.2234 19.4418C97.7087 19.4418 97.2187 19.5751 96.7803 19.852L97.8483 21.5429C97.9497 21.4789 98.0657 21.4418 98.2234 21.4418V19.4418ZM96.7843 19.8494C96.353 20.119 96.0243 20.4944 95.7934 20.9423L97.571 21.8589C97.6525 21.7007 97.7452 21.6074 97.8443 21.5454L96.7843 19.8494ZM95.7963 20.9366C95.5518 21.4034 95.4478 21.919 95.4478 22.4517H97.4478C97.4478 22.1795 97.5001 21.9943 97.568 21.8646L95.7963 20.9366ZM95.4478 22.4517V29H97.4478V22.4517H95.4478ZM96.4478 28H93.4222V30H96.4478V28ZM112.914 28.8438L112.502 29.755L112.509 29.7579L112.914 28.8438ZM111.622 27.7571L110.782 28.3004L110.788 28.3099L111.622 27.7571ZM111.487 24.4261L110.607 23.9508L110.607 23.9508L111.487 24.4261ZM112.396 23.4318L111.848 22.595L111.848 22.595L112.396 23.4318ZM113.703 22.8636L113.451 21.8957L113.449 21.8963L113.703 22.8636ZM115.251 22.5938L115.347 23.5892L115.355 23.5883L115.251 22.5938ZM116.785 22.4091L116.93 23.3986L116.942 23.3968L116.785 22.4091ZM117.63 22.1392L117.07 21.3106L117.07 21.3106L117.63 22.1392ZM117.467 20.527L116.806 21.2772L116.812 21.2827L117.467 20.527ZM114.974 20.5199L115.566 21.3256L115.574 21.3199L114.974 20.5199ZM114.335 21.4148L114.254 22.4115L115.068 22.4776L115.295 21.6928L114.335 21.4148ZM111.537 21.1875L110.559 20.978L110.32 22.092L111.456 22.1842L111.537 21.1875ZM112.375 19.4688L113.132 20.122L113.135 20.1183L112.375 19.4688ZM113.987 18.3466L114.355 19.2765L114.358 19.2751L113.987 18.3466ZM118.028 18.1619L117.78 19.1306L117.782 19.1311L118.028 18.1619ZM119.512 18.8224L118.943 19.6446L118.947 19.6475L119.512 18.8224ZM120.542 19.973L119.661 20.445L119.663 20.4487L120.542 19.973ZM120.919 29V30H121.919V29H120.919ZM118.049 29H117.049V30H118.049V29ZM118.049 27.4872H119.049V26.4872H118.049V27.4872ZM117.964 27.4872V26.4872H117.354L117.075 27.0301L117.964 27.4872ZM117.261 28.3892L117.918 29.1433L117.925 29.1373L117.261 28.3892ZM116.203 28.9929L116.529 29.9383L116.538 29.9349L116.203 28.9929ZM116.821 26.8551L117.278 27.7446L117.287 27.7395L116.821 26.8551ZM117.623 26.1307L116.781 25.5913L116.781 25.5913L117.623 26.1307ZM117.914 23.9432H118.914V22.1005L117.369 23.1047L117.914 23.9432ZM117.524 24.1136L117.806 25.073L117.815 25.0704L117.824 25.0676L117.524 24.1136ZM116.977 24.2486L117.16 25.2317L117.171 25.2297L117.182 25.2274L116.977 24.2486ZM116.366 24.3551L116.504 25.3455L116.516 25.3439L116.527 25.3421L116.366 24.3551ZM115.812 24.4332L115.671 23.4433L115.667 23.4438L115.812 24.4332ZM114.882 24.6818L115.276 25.601L115.276 25.601L114.882 24.6818ZM114.264 25.1435L115.054 25.7561L115.062 25.7466L114.264 25.1435ZM114.491 26.7983L113.901 27.6059L113.909 27.6112L113.916 27.6163L114.491 26.7983ZM114.775 28.206C114.196 28.206 113.717 28.1057 113.32 27.9296L112.509 29.7579C113.201 30.0647 113.963 30.206 114.775 30.206V28.206ZM113.326 27.9326C112.946 27.7605 112.664 27.5192 112.455 27.2043L110.788 28.3099C111.214 28.9515 111.794 29.4346 112.502 29.7549L113.326 27.9326ZM112.461 27.2139C112.277 26.929 112.153 26.5284 112.153 25.9531H110.153C110.153 26.8173 110.342 27.6193 110.782 28.3004L112.461 27.2139ZM112.153 25.9531C112.153 25.4656 112.243 25.1306 112.367 24.9014L110.607 23.9508C110.286 24.5455 110.153 25.2286 110.153 25.9531H112.153ZM112.367 24.9014C112.512 24.6325 112.702 24.4265 112.943 24.2686L111.848 22.595C111.323 22.939 110.907 23.3959 110.607 23.9508L112.367 24.9014ZM112.943 24.2686C113.228 24.0823 113.563 23.9342 113.956 23.831L113.449 21.8963C112.868 22.0488 112.331 22.2794 111.848 22.595L112.943 24.2686ZM113.954 23.8315C114.392 23.7178 114.856 23.6365 115.347 23.5891L115.155 21.5984C114.566 21.6552 113.998 21.7538 113.451 21.8957L113.954 23.8315ZM115.355 23.5883C115.996 23.5214 116.522 23.4582 116.93 23.3986L116.64 21.4196C116.271 21.4736 115.775 21.5335 115.147 21.5992L115.355 23.5883ZM116.942 23.3968C117.371 23.3287 117.83 23.2113 118.19 22.9678L117.07 21.3106C117.086 21.3 117.067 21.3162 116.983 21.3428C116.904 21.3684 116.788 21.3962 116.629 21.4214L116.942 23.3968ZM118.19 22.9678C118.671 22.6431 118.893 22.1397 118.893 21.6136H116.893C116.893 21.6029 116.896 21.5465 116.933 21.4718C116.972 21.3935 117.027 21.3398 117.07 21.3106L118.19 22.9678ZM118.893 21.6136V21.571H116.893V21.6136H118.893ZM118.893 21.571C118.893 20.8937 118.668 20.2449 118.122 19.7713L116.812 21.2827C116.834 21.3015 116.893 21.3487 116.893 21.571H118.893ZM118.128 19.7768C117.606 19.3167 116.939 19.1577 116.274 19.1577V21.1577C116.64 21.1577 116.769 21.2448 116.806 21.2772L118.128 19.7768ZM116.274 19.1577C115.588 19.1577 114.921 19.3096 114.374 19.7199L115.574 21.3199C115.671 21.2472 115.87 21.1577 116.274 21.1577V19.1577ZM114.382 19.7142C113.895 20.0722 113.544 20.5506 113.374 21.1367L115.295 21.6928C115.334 21.5592 115.409 21.4411 115.566 21.3255L114.382 19.7142ZM114.416 20.4181L111.618 20.1908L111.456 22.1842L114.254 22.4115L114.416 20.4181ZM112.514 21.397C112.624 20.8876 112.832 20.4699 113.132 20.122L111.617 18.8155C111.084 19.4335 110.734 20.1617 110.559 20.978L112.514 21.397ZM113.135 20.1183C113.435 19.7671 113.832 19.4832 114.355 19.2764L113.619 17.4167C112.825 17.7308 112.148 18.195 111.614 18.8192L113.135 20.1183ZM114.358 19.2751C114.88 19.0663 115.517 18.9489 116.288 18.9489V16.9489C115.317 16.9489 114.419 17.0966 113.615 17.4181L114.358 19.2751ZM116.288 18.9489C116.815 18.9489 117.312 19.0106 117.78 19.1306L118.276 17.1933C117.637 17.0292 116.973 16.9489 116.288 16.9489V18.9489ZM117.782 19.1311C118.236 19.2467 118.62 19.4206 118.943 19.6446L120.082 18.0002C119.543 17.6277 118.937 17.3612 118.274 17.1928L117.782 19.1311ZM118.947 19.6475C119.25 19.8545 119.485 20.1166 119.661 20.445L121.424 19.501C121.098 18.8919 120.646 18.3869 120.077 17.9974L118.947 19.6475ZM119.663 20.4487C119.818 20.7367 119.919 21.1218 119.919 21.642H121.919C121.919 20.865 121.768 20.1373 121.422 19.4973L119.663 20.4487ZM119.919 21.642V29H121.919V21.642H119.919ZM120.919 28H118.049V30H120.919V28ZM119.049 29V27.4872H117.049V29H119.049ZM118.049 26.4872H117.964V28.4872H118.049V26.4872ZM117.075 27.0301C116.957 27.2583 116.801 27.4609 116.597 27.6411L117.925 29.1373C118.309 28.7967 118.62 28.398 118.854 27.9443L117.075 27.0301ZM116.604 27.6351C116.416 27.7991 116.176 27.941 115.867 28.0509L116.538 29.9349C117.054 29.7513 117.519 29.4907 117.918 29.1433L116.604 27.6351ZM115.877 28.0475C115.591 28.1459 115.229 28.206 114.775 28.206V30.206C115.4 30.206 115.99 30.1239 116.529 29.9383L115.877 28.0475ZM115.642 28.1179C116.22 28.1179 116.774 28.0033 117.278 27.7445L116.364 25.9657C116.185 26.0573 115.953 26.1179 115.642 26.1179V28.1179ZM117.287 27.7395C117.77 27.4849 118.171 27.1289 118.465 26.6701L116.781 25.5913C116.687 25.7385 116.553 25.8655 116.354 25.9707L117.287 27.7395ZM118.465 26.6701C118.769 26.1953 118.914 25.6624 118.914 25.1009H116.914C116.914 25.3063 116.865 25.46 116.781 25.5913L118.465 26.6701ZM118.914 25.1009V23.9432H116.914V25.1009H118.914ZM117.369 23.1047C117.378 23.099 117.373 23.1037 117.346 23.1154C117.32 23.1268 117.28 23.142 117.224 23.1596L117.824 25.0676C118.035 25.0013 118.259 24.9116 118.459 24.7816L117.369 23.1047ZM117.242 23.1543C117.111 23.1926 116.956 23.2314 116.772 23.2698L117.182 25.2274C117.406 25.1805 117.614 25.1294 117.806 25.073L117.242 23.1543ZM116.794 23.2654C116.598 23.302 116.402 23.3362 116.205 23.3681L116.527 25.3421C116.738 25.3078 116.949 25.271 117.16 25.2317L116.794 23.2654ZM116.228 23.3647C116.023 23.3932 115.838 23.4194 115.671 23.4433L115.954 25.4232C116.118 25.3997 116.302 25.3738 116.504 25.3455L116.228 23.3647ZM115.667 23.4438C115.246 23.5055 114.849 23.6078 114.488 23.7627L115.276 25.601C115.445 25.5285 115.668 25.4651 115.957 25.4227L115.667 23.4438ZM114.488 23.7627C114.093 23.932 113.736 24.1839 113.466 24.5404L115.062 25.7466C115.086 25.7148 115.141 25.6589 115.276 25.601L114.488 23.7627ZM113.473 24.5309C113.167 24.9266 113.044 25.3905 113.044 25.8537H115.044C115.044 25.7977 115.051 25.7688 115.054 25.7592C115.056 25.7513 115.057 25.7527 115.054 25.756L113.473 24.5309ZM113.044 25.8537C113.044 26.5424 113.313 27.1761 113.901 27.6059L115.081 25.9907C115.067 25.9808 115.062 25.9747 115.061 25.9736C115.06 25.9726 115.06 25.9722 115.059 25.9707C115.059 25.9693 115.044 25.9383 115.044 25.8537H113.044ZM113.916 27.6163C114.426 27.9747 115.024 28.1179 115.642 28.1179V26.1179C115.331 26.1179 115.163 26.048 115.066 25.9803L113.916 27.6163ZM125.311 28.5028L124.798 29.3612L124.804 29.3648L125.311 28.5028ZM123.465 26.5142L122.571 26.9634L122.573 26.9674L123.465 26.5142ZM123.472 20.6477L122.583 20.1906L122.582 20.1925L123.472 20.6477ZM125.326 18.6662L125.835 19.5268L125.839 19.5246L125.326 18.6662ZM130.681 18.4673L131.116 17.567L131.116 17.567L130.681 18.4673ZM132.378 19.9233L131.546 20.478L132.378 19.9233ZM133.067 22.125V23.125H134.119L134.066 22.0745L133.067 22.125ZM130.212 22.125L129.223 22.2712L129.349 23.125H130.212V22.125ZM129.573 20.8111L128.871 21.5232L128.881 21.5329L129.573 20.8111ZM127.002 20.6903L127.589 21.4996L127.591 21.4981L127.002 20.6903ZM126.185 25.321L125.253 25.683L125.256 25.6909L126.185 25.321ZM127.002 26.4361L127.591 25.6283L127.591 25.6283L127.002 26.4361ZM129.161 26.6065L128.708 25.7151L128.701 25.7183L129.161 26.6065ZM129.85 25.9886L129.02 25.4306L129.018 25.4339L129.85 25.9886ZM130.212 25.0014V24.0014H129.349L129.223 24.8549L130.212 25.0014ZM133.067 25.0014L134.066 25.0581L134.126 24.0014H133.067V25.0014ZM132.385 27.2031L131.544 26.663L131.543 26.6646L132.385 27.2031ZM130.716 28.6804L130.269 27.786L130.269 27.786L130.716 28.6804ZM128.195 28.2131C127.221 28.2131 126.442 28.0077 125.818 27.6409L124.804 29.3648C125.791 29.945 126.934 30.2131 128.195 30.2131V28.2131ZM125.824 27.6445C125.189 27.265 124.704 26.7441 124.356 26.061L122.573 26.9674C123.088 27.9794 123.833 28.7843 124.798 29.3612L125.824 27.6445ZM124.358 26.065C124.013 25.3779 123.826 24.5607 123.826 23.5881H121.826C121.826 24.8219 122.065 25.9554 122.571 26.9634L124.358 26.065ZM123.826 23.5881C123.826 22.6004 124.015 21.7815 124.362 21.1029L122.582 20.1925C122.067 21.1996 121.826 22.3408 121.826 23.5881H123.826ZM124.361 21.1049C124.713 20.4205 125.201 19.9018 125.835 19.5268L124.816 17.8056C123.85 18.3775 123.102 19.1798 122.583 20.1906L124.361 21.1049ZM125.839 19.5246C126.457 19.1548 127.225 18.9489 128.181 18.9489V16.9489C126.93 16.9489 125.794 17.2211 124.813 17.8078L125.839 19.5246ZM128.181 18.9489C129.011 18.9489 129.691 19.0994 130.246 19.3676L131.116 17.567C130.241 17.144 129.254 16.9489 128.181 16.9489V18.9489ZM130.246 19.3676C130.809 19.6402 131.234 20.0102 131.546 20.478L133.21 19.3686C132.689 18.5864 131.982 17.9858 131.116 17.567L130.246 19.3676ZM131.546 20.478C131.851 20.9351 132.034 21.49 132.068 22.1755L134.066 22.0745C134.015 21.0744 133.739 20.1615 133.21 19.3686L131.546 20.478ZM133.067 21.125H130.212V23.125H133.067V21.125ZM131.201 21.9788C131.093 21.2491 130.794 20.5967 130.265 20.0893L128.881 21.5329C129.043 21.6883 129.17 21.9119 129.223 22.2712L131.201 21.9788ZM130.275 20.099C129.717 19.5492 129.003 19.3068 128.23 19.3068V21.3068C128.566 21.3068 128.746 21.4006 128.871 21.5231L130.275 20.099ZM128.23 19.3068C127.568 19.3068 126.948 19.4917 126.412 19.8825L127.591 21.4981C127.756 21.3776 127.956 21.3068 128.23 21.3068V19.3068ZM126.414 19.8811C125.886 20.2646 125.513 20.799 125.264 21.4182L127.12 22.1642C127.259 21.8174 127.426 21.618 127.589 21.4996L126.414 19.8811ZM125.264 21.4182C125.01 22.051 124.901 22.7697 124.901 23.5455H126.901C126.901 22.9481 126.986 22.4973 127.12 22.1642L125.264 21.4182ZM124.901 23.5455C124.901 24.3267 125.007 25.0487 125.253 25.683L127.117 24.959C126.985 24.618 126.901 24.1562 126.901 23.5455H124.901ZM125.256 25.6909C125.505 26.3166 125.88 26.8558 126.412 27.2439L127.591 25.6283C127.422 25.505 127.253 25.3008 127.114 24.9512L125.256 25.6909ZM126.412 27.2439C126.948 27.6347 127.568 27.8196 128.23 27.8196V25.8196C127.956 25.8196 127.756 25.7488 127.591 25.6283L126.412 27.2439ZM128.23 27.8196C128.717 27.8196 129.188 27.7185 129.62 27.4948L128.701 25.7183C128.585 25.7786 128.435 25.8196 128.23 25.8196V27.8196ZM129.614 27.4979C130.052 27.2752 130.41 26.9509 130.682 26.5433L129.018 25.4339C128.93 25.5661 128.828 25.6537 128.708 25.7151L129.614 27.4979ZM130.68 26.5466C130.96 26.129 131.126 25.6537 131.201 25.148L129.223 24.8549C129.184 25.1162 129.108 25.2991 129.02 25.4306L130.68 26.5466ZM130.212 26.0014H133.067V24.0014H130.212V26.0014ZM132.069 24.9447C132.03 25.6249 131.848 26.1886 131.544 26.663L133.227 27.7432C133.737 26.9487 134.009 26.0446 134.066 25.0581L132.069 24.9447ZM131.543 26.6646C131.244 27.1326 130.828 27.5064 130.269 27.786L131.163 29.5748C132.025 29.1442 132.722 28.5331 133.228 27.7416L131.543 26.6646ZM130.269 27.786C129.725 28.0579 129.044 28.2131 128.195 28.2131V30.2131C129.287 30.2131 130.287 30.0131 131.163 29.5748L130.269 27.786ZM135.793 32.9986L135.973 32.0149L135.962 32.013L135.793 32.9986ZM134.969 32.7784L134.011 32.4894L133.75 33.3568L134.587 33.7027L134.969 32.7784ZM135.651 30.5199L135.944 29.5638L134.984 29.2694L134.693 30.2309L135.651 30.5199ZM136.609 30.6974L136.576 31.6969L136.577 31.6969L136.609 30.6974ZM137.355 30.4986L136.8 29.6665L136.792 29.6724L137.355 30.4986ZM137.874 29.7741L138.806 30.1366L138.807 30.1331L137.874 29.7741ZM138.051 29.3125L138.984 29.6715L139.116 29.3293L138.995 28.9832L138.051 29.3125ZM134.138 18.0909V17.0909H132.73L133.194 18.4202L134.138 18.0909ZM137.32 18.0909L138.282 17.8196L138.077 17.0909H137.32V18.0909ZM139.578 26.1023L138.616 26.3736L138.821 27.1023H139.578V26.1023ZM139.692 26.1023V27.1023H140.447L140.654 26.376L139.692 26.1023ZM141.972 18.0909V17.0909H141.216L141.01 17.8172L141.972 18.0909ZM145.175 18.0909L146.118 18.4219L146.585 17.0909H145.175V18.0909ZM140.935 30.179L139.991 29.848L139.99 29.8513L140.935 30.179ZM140.104 31.7131L139.324 31.0863L139.317 31.0956L140.104 31.7131ZM138.79 32.7287L138.382 31.8155L138.375 31.8186L138.79 32.7287ZM136.872 32.0909C136.542 32.0909 136.243 32.0644 135.973 32.0149L135.613 33.9822C136.015 34.0559 136.435 34.0909 136.872 34.0909V32.0909ZM135.962 32.013C135.675 31.9638 135.478 31.9067 135.351 31.8541L134.587 33.7027C134.895 33.8301 135.247 33.9197 135.624 33.9842L135.962 32.013ZM135.926 33.0674L136.608 30.8089L134.693 30.2309L134.011 32.4894L135.926 33.0674ZM135.357 31.4759C135.773 31.6033 136.182 31.6837 136.576 31.6969L136.643 29.698C136.469 29.6922 136.239 29.6543 135.944 29.5638L135.357 31.4759ZM136.577 31.6969C137.045 31.7123 137.51 31.6033 137.918 31.3248L136.792 29.6724C136.784 29.6779 136.751 29.7016 136.642 29.698L136.577 31.6969ZM137.91 31.3306C138.353 31.0352 138.629 30.5902 138.806 30.1366L136.942 29.4117C136.853 29.6399 136.783 29.6779 136.8 29.6665L137.91 31.3306ZM138.807 30.1331L138.984 29.6715L137.118 28.9535L136.94 29.4152L138.807 30.1331ZM138.995 28.9832L135.082 17.7616L133.194 18.4202L137.107 29.6418L138.995 28.9832ZM134.138 19.0909H137.32V17.0909H134.138V19.0909ZM136.357 18.3622L138.616 26.3736L140.541 25.8309L138.282 17.8196L136.357 18.3622ZM139.578 27.1023H139.692V25.1023H139.578V27.1023ZM140.654 26.376L142.933 18.3646L141.01 17.8172L138.73 25.8286L140.654 26.376ZM141.972 19.0909H145.175V17.0909H141.972V19.0909ZM144.231 17.7599L139.991 29.848L141.878 30.51L146.118 18.4219L144.231 17.7599ZM139.99 29.8513C139.82 30.342 139.595 30.7496 139.324 31.0863L140.883 32.3398C141.313 31.8053 141.642 31.1902 141.879 30.5066L139.99 29.8513ZM139.317 31.0956C139.076 31.4032 138.77 31.6425 138.382 31.8156L139.197 33.6418C139.87 33.3414 140.44 32.9036 140.89 32.3305L139.317 31.0956ZM138.375 31.8186C138.007 31.9865 137.516 32.0909 136.872 32.0909V34.0909C137.724 34.0909 138.512 33.9538 139.204 33.6388L138.375 31.8186ZM159.299 18.6378L158.304 18.7365L158.394 19.6378H159.299V18.6378ZM155.542 17.0398L155.911 17.9692L155.922 17.9647L155.542 17.0398ZM154.747 17.6151L153.947 17.015L153.939 17.025L154.747 17.6151ZM154.477 18.4531L155.476 18.4895L155.477 18.4713V18.4531H154.477ZM154.64 19.1349L153.786 19.6556L153.791 19.6631L153.796 19.6705L154.64 19.1349ZM155.145 19.6392L154.59 20.4713L154.596 20.4756L154.603 20.4798L155.145 19.6392ZM155.883 20.0014L155.534 20.9384L155.541 20.941L155.548 20.9435L155.883 20.0014ZM156.778 20.2571L157.011 19.2845L157.004 19.2828L156.997 19.2813L156.778 20.2571ZM158.085 20.5696L157.852 21.5422L157.859 21.5439L157.866 21.5454L158.085 20.5696ZM159.832 21.1378L159.424 22.0509L159.424 22.0509L159.832 21.1378ZM161.21 22.0114L161.875 21.2645L161.875 21.2645L161.21 22.0114ZM162.112 23.233L161.201 23.6468L161.205 23.6543L162.112 23.233ZM162.446 24.8452L163.446 24.8505L163.446 24.8374L162.446 24.8452ZM161.764 27.1605L160.94 26.5935L160.939 26.5947L161.764 27.1605ZM159.832 28.6733L160.222 29.5941L160.225 29.593L159.832 28.6733ZM153.731 28.6662L153.348 29.5897L153.349 29.5905L153.731 28.6662ZM151.7 27.0682L150.873 27.6305L150.877 27.6368L151.7 27.0682ZM150.94 24.4332V23.4332H149.917L149.94 24.4559L150.94 24.4332ZM153.916 24.4332L154.914 24.3654L154.85 23.4332H153.916V24.4332ZM154.335 25.6548L153.536 26.2567L153.541 26.2632L153.546 26.2696L154.335 25.6548ZM155.336 26.3864L154.967 27.3157L154.979 27.3205L155.336 26.3864ZM158.12 26.4006L157.757 25.469L157.753 25.4705L158.12 26.4006ZM159.022 25.7685L159.807 26.3881L159.807 26.3881L159.022 25.7685ZM159.051 24.0142L158.289 24.6624L158.297 24.6716L159.051 24.0142ZM158.213 23.446L157.819 24.3652L157.823 24.367L158.213 23.446ZM156.87 23.0199L156.627 23.9898L156.636 23.992L156.87 23.0199ZM155.287 22.6222L155.53 21.6522L155.523 21.6505L155.287 22.6222ZM152.382 21.223L151.716 21.9688L151.716 21.9688L152.382 21.223ZM151.324 18.6591L152.324 18.6635L152.323 18.6537L151.324 18.6591ZM152.027 16.3509L151.218 15.763L151.215 15.7669L152.027 16.3509ZM159.662 14.8097L159.245 15.7186L159.247 15.7195L159.662 14.8097ZM161.551 16.3509L160.725 16.9151L160.725 16.9151L161.551 16.3509ZM162.247 18.6378V19.6378H163.263L163.247 18.6214L162.247 18.6378ZM160.294 18.5391C160.212 17.7084 159.838 16.9963 159.161 16.4973L157.975 18.1078C158.159 18.2433 158.273 18.4213 158.304 18.7365L160.294 18.5391ZM159.161 16.4973C158.504 16.0134 157.686 15.8267 156.814 15.8267V17.8267C157.418 17.8267 157.77 17.9572 157.975 18.1078L159.161 16.4973ZM156.814 15.8267C156.223 15.8267 155.662 15.9094 155.162 16.1148L155.922 17.9647C156.114 17.8861 156.4 17.8267 156.814 17.8267V15.8267ZM155.173 16.1104C154.692 16.3015 154.263 16.5934 153.947 17.0151L155.547 18.2151C155.6 18.1443 155.701 18.0527 155.911 17.9691L155.173 16.1104ZM153.939 17.025C153.631 17.447 153.477 17.9341 153.477 18.4531H155.477C155.477 18.3471 155.503 18.2755 155.554 18.2051L153.939 17.025ZM153.478 18.4168C153.462 18.8437 153.552 19.2706 153.786 19.6556L155.494 18.6143C155.492 18.6111 155.473 18.5834 155.476 18.4895L153.478 18.4168ZM153.796 19.6705C154.002 19.9954 154.274 20.2606 154.59 20.4713L155.699 18.8072C155.589 18.7337 155.525 18.6627 155.485 18.5994L153.796 19.6705ZM154.603 20.4798C154.886 20.6622 155.198 20.8134 155.534 20.9384L156.233 19.0644C156.009 18.9811 155.829 18.8909 155.686 18.7986L154.603 20.4798ZM155.548 20.9435C155.869 21.0578 156.206 21.1539 156.56 21.2329L156.997 19.2813C156.715 19.2183 156.456 19.1439 156.218 19.0593L155.548 20.9435ZM156.545 21.2297L157.852 21.5422L158.317 19.597L157.011 19.2845L156.545 21.2297ZM157.866 21.5454C158.443 21.6746 158.962 21.8443 159.424 22.0509L160.24 20.2246C159.642 19.9578 158.995 19.7487 158.303 19.5938L157.866 21.5454ZM159.424 22.0509C159.872 22.2506 160.242 22.4884 160.545 22.7583L161.875 21.2645C161.401 20.843 160.853 20.4984 160.24 20.2246L159.424 22.0509ZM160.545 22.7583C160.83 23.0121 161.047 23.3062 161.201 23.6468L163.022 22.8192C162.751 22.2222 162.366 21.7019 161.875 21.2645L160.545 22.7583ZM161.205 23.6543C161.353 23.973 161.442 24.3654 161.446 24.853L163.446 24.8374C163.44 24.1128 163.306 23.4304 163.019 22.8116L161.205 23.6543ZM161.446 24.8399C161.442 25.5548 161.263 26.1252 160.94 26.5935L162.588 27.7275C163.165 26.889 163.44 25.9159 163.446 24.8505L161.446 24.8399ZM160.939 26.5947C160.618 27.0624 160.137 27.4558 159.439 27.7536L160.225 29.593C161.213 29.1711 162.019 28.5559 162.588 27.7263L160.939 26.5947ZM159.442 27.7525C158.758 28.0422 157.887 28.206 156.799 28.206V30.206C158.079 30.206 159.23 30.0146 160.222 29.594L159.442 27.7525ZM156.799 28.206C155.725 28.206 154.837 28.0411 154.113 27.7419L153.349 29.5905C154.367 30.011 155.525 30.206 156.799 30.206V28.206ZM154.115 27.7427C153.408 27.4493 152.891 27.0323 152.523 26.4995L150.877 27.6368C151.484 28.5151 152.321 29.1634 153.348 29.5897L154.115 27.7427ZM152.527 26.5059C152.174 25.9869 151.96 25.3067 151.94 24.4106L149.94 24.4559C149.967 25.6526 150.26 26.729 150.873 27.6305L152.527 26.5059ZM150.94 25.4332H153.916V23.4332H150.94V25.4332ZM152.918 24.501C152.962 25.144 153.152 25.747 153.536 26.2567L155.133 25.053C155.025 24.9092 154.936 24.6978 154.914 24.3654L152.918 24.501ZM153.546 26.2696C153.917 26.7453 154.402 27.0908 154.967 27.3156L155.706 25.4572C155.438 25.3505 155.255 25.2083 155.124 25.0401L153.546 26.2696ZM154.979 27.3205C155.533 27.5319 156.133 27.6278 156.764 27.6278V25.6278C156.335 25.6278 155.983 25.5628 155.693 25.4522L154.979 27.3205ZM156.764 27.6278C157.379 27.6278 157.961 27.5387 158.488 27.3306L157.753 25.4705C157.513 25.5654 157.191 25.6278 156.764 25.6278V27.6278ZM158.484 27.3321C159.003 27.1297 159.463 26.8245 159.807 26.3881L158.237 25.1488C158.156 25.2522 158.015 25.3684 157.757 25.469L158.484 27.3321ZM159.807 26.3881C160.162 25.9381 160.342 25.4087 160.342 24.8381H158.342C158.342 24.9682 158.308 25.059 158.237 25.1488L159.807 26.3881ZM160.342 24.8381C160.342 24.2973 160.175 23.7813 159.804 23.3568L158.297 24.6716C158.315 24.6922 158.342 24.7255 158.342 24.8381H160.342ZM159.812 23.3661C159.491 22.9891 159.065 22.7206 158.602 22.5251L157.823 24.367C158.099 24.4839 158.231 24.5942 158.289 24.6623L159.812 23.3661ZM158.607 22.5269C158.175 22.342 157.671 22.1842 157.105 22.0477L156.636 23.992C157.13 24.1112 157.521 24.2375 157.819 24.3652L158.607 22.5269ZM157.114 22.05L155.53 21.6523L155.043 23.592L156.627 23.9898L157.114 22.05ZM155.523 21.6505C154.406 21.3789 153.602 20.9724 153.048 20.4772L151.716 21.9688C152.582 22.7425 153.714 23.2689 155.05 23.5938L155.523 21.6505ZM153.048 20.4773C152.58 20.0592 152.32 19.493 152.323 18.6635L150.324 18.6547C150.318 19.9748 150.763 21.1179 151.716 21.9688L153.048 20.4773ZM152.323 18.6537C152.32 17.9652 152.499 17.4064 152.838 16.9348L151.215 15.7669C150.607 16.6116 150.318 17.5916 150.324 18.6645L152.323 18.6537ZM152.836 16.9387C153.198 16.4396 153.707 16.0306 154.399 15.7239L153.589 13.8954C152.614 14.3273 151.811 14.9459 151.218 15.763L152.836 16.9387ZM154.399 15.7239C155.086 15.4196 155.891 15.2557 156.835 15.2557V13.2557C155.657 13.2557 154.569 13.4611 153.589 13.8954L154.399 15.7239ZM156.835 15.2557C157.801 15.2557 158.596 15.4209 159.245 15.7186L160.079 13.9008C159.117 13.4598 158.027 13.2557 156.835 13.2557V15.2557ZM159.247 15.7195C159.91 16.0222 160.39 16.4244 160.725 16.9151L162.376 15.7866C161.812 14.961 161.032 14.3357 160.077 13.8998L159.247 15.7195ZM160.725 16.9151C161.055 17.3975 161.236 17.9656 161.247 18.6542L163.247 18.6214C163.23 17.577 162.946 16.6205 162.376 15.7866L160.725 16.9151ZM162.247 17.6378H159.299V19.6378H162.247V17.6378ZM170.26 18.0909H171.26V17.0909H170.26V18.0909ZM170.26 20.3636V21.3636H171.26V20.3636H170.26ZM163.69 20.3636H162.69V21.3636H163.69V20.3636ZM163.69 18.0909V17.0909H162.69V18.0909H163.69ZM165.182 15.4773V14.4773H164.182V15.4773H165.182ZM168.207 15.4773H169.207V14.4773H168.207V15.4773ZM168.335 26.3011L167.457 26.78L167.464 26.7914L168.335 26.3011ZM168.69 26.6207L168.314 27.5473L168.324 27.5511L168.69 26.6207ZM169.656 26.6776L169.821 27.664L169.837 27.6613L169.852 27.6581L169.656 26.6776ZM169.983 26.6136L170.961 26.4068L170.759 25.4507L169.799 25.6308L169.983 26.6136ZM170.459 28.8651L170.757 29.8195L171.625 29.5482L171.437 28.6583L170.459 28.8651ZM169.82 29.0284L169.601 28.0526L169.593 28.0544L169.585 28.0563L169.82 29.0284ZM168.818 29.1491L168.782 28.1498L168.779 28.1499L168.818 29.1491ZM166.901 28.858L166.522 29.7836L166.525 29.7848L166.901 28.858ZM165.629 27.821L166.469 27.2781L166.469 27.2781L165.629 27.821ZM165.182 26.0455L166.182 26.0521V26.0455H165.182ZM169.26 18.0909V20.3636H171.26V18.0909H169.26ZM170.26 19.3636H163.69V21.3636H170.26V19.3636ZM164.69 20.3636V18.0909H162.69V20.3636H164.69ZM163.69 19.0909H170.26V17.0909H163.69V19.0909ZM165.182 16.4773H168.207V14.4773H165.182V16.4773ZM167.207 15.4773V25.6477H169.207V15.4773H167.207ZM167.207 25.6477C167.207 26.0082 167.259 26.4162 167.457 26.78L169.213 25.8223C169.23 25.8529 169.227 25.8608 169.221 25.8286C169.215 25.7967 169.207 25.7387 169.207 25.6477H167.207ZM167.464 26.7914C167.652 27.1268 167.939 27.3949 168.314 27.5472L169.067 25.6943C169.095 25.7059 169.128 25.725 169.157 25.7514C169.186 25.7772 169.201 25.8005 169.207 25.8109L167.464 26.7914ZM168.324 27.5511C168.619 27.6673 168.927 27.7131 169.23 27.7131V25.7131C169.126 25.7131 169.074 25.6973 169.057 25.6903L168.324 27.5511ZM169.23 27.7131C169.428 27.7131 169.625 27.6966 169.821 27.664L169.492 25.6912C169.403 25.7059 169.316 25.7131 169.23 25.7131V27.7131ZM169.852 27.6581C169.993 27.63 170.097 27.6096 170.167 27.5965L169.799 25.6308C169.717 25.6461 169.603 25.6683 169.46 25.697L169.852 27.6581ZM169.005 26.8204L169.48 29.0718L171.437 28.6583L170.961 26.4068L169.005 26.8204ZM170.161 27.9106C170.048 27.9458 169.866 27.9933 169.601 28.0526L170.038 30.0042C170.323 29.9405 170.567 29.879 170.757 29.8195L170.161 27.9106ZM169.585 28.0563C169.395 28.1021 169.132 28.1372 168.782 28.1498L168.854 30.1485C169.29 30.1327 169.695 30.0873 170.054 30.0005L169.585 28.0563ZM168.779 28.1499C168.16 28.174 167.667 28.0896 167.276 27.9311L166.525 29.7848C167.232 30.0714 168.018 30.1811 168.857 30.1484L168.779 28.1499ZM167.279 27.9323C166.913 27.7827 166.655 27.5655 166.469 27.2781L164.789 28.3639C165.21 29.014 165.799 29.4881 166.522 29.7836L167.279 27.9323ZM166.469 27.2781C166.298 27.0133 166.178 26.6265 166.182 26.0521L164.182 26.0388C164.176 26.8944 164.355 27.6912 164.789 28.3639L166.469 27.2781ZM166.182 26.0455V15.4773H164.182V26.0455H166.182ZM174.18 28.5099L173.671 29.3706L173.677 29.3741L174.18 28.5099ZM172.327 26.5355L171.437 26.9926L171.438 26.9947L172.327 26.5355ZM172.327 20.6335L173.215 21.0927L173.216 21.0906L172.327 20.6335ZM174.18 18.6591L174.686 19.5219L174.687 19.521L174.18 18.6591ZM179.898 18.6591L179.388 19.5197L179.394 19.5232L179.898 18.6591ZM181.759 20.6335L180.869 21.0906L180.87 21.0927L181.759 20.6335ZM181.759 26.5355L182.647 26.9947L182.648 26.9926L181.759 26.5355ZM179.898 28.5099L180.403 29.3728L180.405 29.3719L179.898 28.5099ZM178.314 26.4432L178.959 27.207L178.966 27.2017L178.314 26.4432ZM179.074 25.2642L178.131 24.9318L178.128 24.9399L179.074 25.2642ZM179.074 21.8693L178.128 22.1937L178.131 22.2017L179.074 21.8693ZM175.778 20.6903L175.137 19.923L175.132 19.9274L175.778 20.6903ZM175.004 21.8693L174.061 21.537L174.058 21.545L175.004 21.8693ZM175.004 25.2642L174.058 25.5885L174.061 25.5966L175.004 25.2642ZM175.778 26.4432L175.132 27.2062L175.138 27.211L175.143 27.2157L175.778 26.4432ZM177.043 28.2131C176.083 28.2131 175.31 28.0104 174.684 27.6458L173.677 29.3741C174.661 29.947 175.795 30.2131 177.043 30.2131V28.2131ZM174.69 27.6493C174.054 27.2735 173.566 26.756 173.215 26.0764L171.438 26.9947C171.958 28.0006 172.706 28.7995 173.671 29.3706L174.69 27.6493ZM173.216 26.0784C172.865 25.3948 172.673 24.5739 172.673 23.5881H170.673C170.673 24.8371 170.917 25.9812 171.437 26.9926L173.216 26.0784ZM172.673 23.5881C172.673 22.5911 172.865 21.7692 173.215 21.0927L171.438 20.1744C170.917 21.1835 170.673 22.3313 170.673 23.5881H172.673ZM173.216 21.0906C173.567 20.4072 174.054 19.8919 174.686 19.5219L173.675 17.7962C172.706 18.3638 171.957 19.1648 171.437 20.1764L173.216 21.0906ZM174.687 19.521C175.313 19.1531 176.085 18.9489 177.043 18.9489V16.9489C175.794 16.9489 174.658 17.2181 173.673 17.7972L174.687 19.521ZM177.043 18.9489C178 18.9489 178.769 19.1532 179.388 19.5197L180.407 17.7985C179.426 17.218 178.291 16.9489 177.043 16.9489V18.9489ZM179.394 19.5232C180.031 19.8936 180.519 20.4087 180.869 21.0906L182.648 20.1764C182.127 19.1633 181.375 18.3621 180.401 17.7949L179.394 19.5232ZM180.87 21.0927C181.22 21.7692 181.412 22.5911 181.412 23.5881H183.412C183.412 22.3313 183.168 21.1835 182.647 20.1744L180.87 21.0927ZM181.412 23.5881C181.412 24.5739 181.22 25.3948 180.869 26.0784L182.648 26.9926C183.168 25.9812 183.412 24.8371 183.412 23.5881H181.412ZM180.87 26.0764C180.52 26.7545 180.03 27.2717 179.391 27.648L180.405 29.3719C181.375 28.8012 182.126 28.0022 182.647 26.9947L180.87 26.0764ZM179.392 27.6471C178.772 28.0103 178.002 28.2131 177.043 28.2131V30.2131C178.29 30.2131 179.423 29.947 180.403 29.3728L179.392 27.6471ZM177.057 27.8693C177.76 27.8693 178.418 27.6649 178.959 27.207L177.668 25.6794C177.538 25.7897 177.358 25.8693 177.057 25.8693V27.8693ZM178.966 27.2017C179.46 26.777 179.802 26.2225 180.02 25.5885L178.128 24.9399C178.004 25.3002 177.84 25.5317 177.662 25.6847L178.966 27.2017ZM180.017 25.5966C180.237 24.9734 180.337 24.2921 180.337 23.5668H178.337C178.337 24.1104 178.261 24.5607 178.131 24.9319L180.017 25.5966ZM180.337 23.5668C180.337 22.8415 180.237 22.1601 180.017 21.537L178.131 22.2017C178.261 22.5728 178.337 23.0231 178.337 23.5668H180.337ZM180.02 21.545C179.802 20.911 179.46 20.3565 178.966 19.9318L177.662 21.4488C177.84 21.6018 178.004 21.8333 178.128 22.1936L180.02 21.545ZM178.966 19.9318C178.424 19.4665 177.764 19.2571 177.057 19.2571V21.2571C177.353 21.2571 177.531 21.3365 177.662 21.4488L178.966 19.9318ZM177.057 19.2571C176.347 19.2571 175.685 19.4651 175.137 19.923L176.42 21.4577C176.563 21.338 176.753 21.2571 177.057 21.2571V19.2571ZM175.132 19.9274C174.633 20.35 174.285 20.9028 174.061 21.537L175.947 22.2017C176.074 21.8415 176.242 21.6083 176.425 21.4533L175.132 19.9274ZM174.058 21.545C173.846 22.1656 173.749 22.8441 173.749 23.5668H175.749C175.749 23.0205 175.822 22.5674 175.95 22.1936L174.058 21.545ZM173.749 23.5668C173.749 24.2894 173.846 24.9679 174.058 25.5885L175.95 24.9399C175.822 24.5662 175.749 24.113 175.749 23.5668H173.749ZM174.061 25.5966C174.285 26.2307 174.633 26.7835 175.132 27.2062L176.425 25.6802C176.242 25.5252 176.074 25.292 175.947 24.9319L174.061 25.5966ZM175.143 27.2157C175.692 27.6662 176.351 27.8693 177.057 27.8693V25.8693C176.749 25.8693 176.557 25.7883 176.413 25.6706L175.143 27.2157ZM184.379 29H183.379V30H184.379V29ZM184.379 18.0909V17.0909H183.379V18.0909H184.379ZM187.312 18.0909H188.312V17.0909H187.312V18.0909ZM187.312 19.9943H186.312V20.9943H187.312V19.9943ZM187.426 19.9943V20.9943H188.175L188.386 20.2761L187.426 19.9943ZM188.428 18.4602L189.021 19.2651L189.026 19.2612L188.428 18.4602ZM190.537 17.9631L190.644 16.9689L190.644 16.9689L190.537 17.9631ZM190.999 18.0412H191.999V17.2604L191.241 17.071L190.999 18.0412ZM190.999 20.7259L190.711 21.6837L191.999 22.0699V20.7259H190.999ZM188.527 20.8537L189.008 21.7307L189.012 21.7284L188.527 20.8537ZM187.703 21.6491L186.845 21.1364L186.839 21.1453L187.703 21.6491ZM187.405 29V30H188.405V29H187.405ZM185.379 29V18.0909H183.379V29H185.379ZM184.379 19.0909H187.312V17.0909H184.379V19.0909ZM186.312 18.0909V19.9943H188.312V18.0909H186.312ZM187.312 20.9943H187.426V18.9943H187.312V20.9943ZM188.386 20.2761C188.536 19.7631 188.763 19.4554 189.021 19.2651L187.834 17.6554C187.155 18.1563 186.714 18.8713 186.467 19.7125L188.386 20.2761ZM189.026 19.2612C189.314 19.0459 189.642 18.9347 190.047 18.9347V16.9347C189.23 16.9347 188.478 17.1738 187.829 17.6593L189.026 19.2612ZM190.047 18.9347C190.157 18.9347 190.284 18.9416 190.429 18.9573L190.644 16.9689C190.439 16.9467 190.24 16.9347 190.047 16.9347V18.9347ZM190.429 18.9573C190.571 18.9726 190.678 18.9919 190.756 19.0113L191.241 17.071C191.054 17.0242 190.853 16.9914 190.644 16.9689L190.429 18.9573ZM189.999 18.0412V20.7259H191.999V18.0412H189.999ZM191.286 19.768C191.069 19.7031 190.813 19.6568 190.54 19.6208L190.278 21.6036C190.508 21.6339 190.644 21.6634 190.711 21.6837L191.286 19.768ZM190.54 19.6208C190.255 19.5831 189.98 19.5625 189.72 19.5625V21.5625C189.877 21.5625 190.062 21.575 190.278 21.6036L190.54 19.6208ZM189.72 19.5625C189.125 19.5625 188.557 19.6938 188.042 19.979L189.012 21.7284C189.198 21.6253 189.425 21.5625 189.72 21.5625V19.5625ZM188.046 19.9767C187.543 20.2524 187.139 20.6438 186.845 21.1364L188.562 22.1619C188.675 21.9727 188.819 21.8338 189.008 21.7307L188.046 19.9767ZM186.839 21.1453C186.54 21.6579 186.405 22.2291 186.405 22.8281H188.405C188.405 22.537 188.468 22.3222 188.567 22.153L186.839 21.1453ZM186.405 22.8281V29H188.405V22.8281H186.405ZM187.405 28H184.379V30H187.405V28ZM194.129 28.5312L193.633 29.3998L193.639 29.4032L194.129 28.5312ZM192.268 26.5852L191.38 27.0444L191.381 27.0464L192.268 26.5852ZM192.268 20.6406L191.379 20.1835L191.379 20.1835L192.268 20.6406ZM194.108 18.6591L193.596 17.7998L193.594 17.8011L194.108 18.6591ZM198.916 18.2969L198.565 19.2335L198.574 19.2367L198.916 18.2969ZM200.549 19.3267L199.846 20.0374L199.85 20.041L200.549 19.3267ZM201.643 21.0597L200.707 21.4101L200.707 21.4122L201.643 21.0597ZM202.034 24.3196V25.3196H203.034V24.3196H202.034ZM192.822 24.3196H191.822V25.3196H192.822V24.3196ZM192.822 22.4446V21.4446H191.822V22.4446H192.822ZM199.186 22.4446V23.4446H200.186V22.4446H199.186ZM198.902 21.2869L198.03 21.7778L198.03 21.7778L198.902 21.2869ZM198.113 20.4986L197.608 21.3615L197.615 21.3657L197.622 21.3698L198.113 20.4986ZM195.734 20.527L196.245 21.3865L196.249 21.3845L195.734 20.527ZM194.91 21.3722L195.78 21.8658L195.783 21.8608L194.91 21.3722ZM194.605 22.544L193.605 22.533V22.544H194.605ZM194.903 25.7259L194.011 26.1774L194.015 26.1859L194.903 25.7259ZM198 26.8125L197.679 25.8654L197.679 25.8654L198 26.8125ZM198.717 26.3864L198.027 25.6622L198.027 25.6622L198.717 26.3864ZM199.172 25.6903L199.237 24.6925L198.499 24.6438L198.237 25.3357L199.172 25.6903ZM201.97 25.875L202.948 26.0817L203.187 24.9531L202.036 24.8772L201.97 25.875ZM201.096 27.6364L200.345 26.9769L200.344 26.9774L201.096 27.6364ZM199.406 28.8011L199.777 29.7296L199.781 29.7283L199.406 28.8011ZM197.027 28.2131C196.04 28.2131 195.25 28.014 194.618 27.6593L193.639 29.4032C194.627 29.9576 195.769 30.2131 197.027 30.2131V28.2131ZM194.624 27.6627C193.99 27.3006 193.504 26.7949 193.155 26.124L191.381 27.0464C191.903 28.0516 192.658 28.8433 193.633 29.3998L194.624 27.6627ZM193.156 26.1261C192.808 25.4523 192.615 24.6196 192.615 23.5952H190.615C190.615 24.8719 190.857 26.0325 191.38 27.0444L193.156 26.1261ZM192.615 23.5952C192.615 22.6038 192.806 21.7808 193.158 21.0977L191.379 20.1835C190.859 21.1955 190.615 22.3422 190.615 23.5952H192.615ZM193.158 21.0977C193.511 20.4103 193.996 19.8912 194.621 19.517L193.594 17.8011C192.637 18.3739 191.897 19.1758 191.379 20.1835L193.158 21.0977ZM194.619 19.5184C195.237 19.1506 195.987 18.9489 196.906 18.9489V16.9489C195.684 16.9489 194.569 17.2207 193.596 17.7998L194.619 19.5184ZM196.906 18.9489C197.516 18.9489 198.067 19.0469 198.565 19.2335L199.266 17.3603C198.525 17.0828 197.735 16.9489 196.906 16.9489V18.9489ZM198.574 19.2367C199.066 19.4155 199.486 19.6817 199.846 20.0374L201.253 18.616C200.684 18.0532 200.016 17.6328 199.258 17.3571L198.574 19.2367ZM199.85 20.041C200.201 20.385 200.491 20.833 200.707 21.4101L202.58 20.7092C202.275 19.8943 201.836 19.187 201.249 18.6124L199.85 20.041ZM200.707 21.4122C200.916 21.9661 201.034 22.6514 201.034 23.4886H203.034C203.034 22.4698 202.891 21.5358 202.579 20.7071L200.707 21.4122ZM201.034 23.4886V24.3196H203.034V23.4886H201.034ZM202.034 23.3196H192.822V25.3196H202.034V23.3196ZM193.822 24.3196V22.4446H191.822V24.3196H193.822ZM192.822 23.4446H199.186V21.4446H192.822V23.4446ZM200.186 22.4446C200.186 21.8596 200.057 21.3006 199.773 20.7961L198.03 21.7778C198.125 21.9456 198.186 22.1584 198.186 22.4446H200.186ZM199.773 20.7961C199.494 20.3007 199.099 19.9064 198.604 19.6273L197.622 21.3698C197.799 21.4695 197.931 21.6008 198.03 21.7778L199.773 20.7961ZM198.619 19.6357C198.113 19.3393 197.547 19.2074 196.956 19.2074V21.2074C197.245 21.2074 197.451 21.2696 197.608 21.3615L198.619 19.6357ZM196.956 19.2074C196.335 19.2074 195.747 19.3533 195.22 19.6695L196.249 21.3845C196.432 21.2746 196.657 21.2074 196.956 21.2074V19.2074ZM195.223 19.6675C194.722 19.9654 194.322 20.375 194.038 20.8836L195.783 21.8608C195.896 21.6591 196.045 21.5052 196.245 21.3865L195.223 19.6675ZM194.04 20.8786C193.752 21.3864 193.611 21.945 193.605 22.533L195.605 22.555C195.608 22.2813 195.67 22.0587 195.78 21.8658L194.04 20.8786ZM193.605 22.544V24.3267H195.605V22.544H193.605ZM193.605 24.3267C193.605 24.9885 193.727 25.6163 194.011 26.1774L195.795 25.2743C195.681 25.0494 195.605 24.7444 195.605 24.3267H193.605ZM194.015 26.1859C194.303 26.7418 194.721 27.1888 195.263 27.5011L196.262 25.7688C196.065 25.655 195.91 25.4959 195.791 25.2658L194.015 26.1859ZM195.263 27.5011C195.81 27.8171 196.427 27.9545 197.076 27.9545V25.9545C196.712 25.9545 196.453 25.879 196.262 25.7688L195.263 27.5011ZM197.076 27.9545C197.507 27.9545 197.925 27.8938 198.321 27.7596L197.679 25.8654C197.516 25.9206 197.318 25.9545 197.076 25.9545V27.9545ZM198.321 27.7596C198.727 27.6217 199.095 27.4074 199.407 27.1105L198.027 25.6622C197.941 25.7441 197.831 25.8139 197.679 25.8654L198.321 27.7596ZM199.407 27.1105C199.721 26.8108 199.953 26.4497 200.107 26.045L198.237 25.3357C198.182 25.4803 198.11 25.5832 198.027 25.6622L199.407 27.1105ZM199.106 26.6882L201.904 26.8728L202.036 24.8772L199.237 24.6925L199.106 26.6882ZM200.991 25.6683C200.884 26.1779 200.668 26.6078 200.345 26.9769L201.848 28.2959C202.405 27.6611 202.772 26.9168 202.948 26.0817L200.991 25.6683ZM200.344 26.9774C200.024 27.3425 199.596 27.6457 199.031 27.874L199.781 29.7283C200.598 29.3979 201.297 28.9245 201.848 28.2954L200.344 26.9774ZM199.035 27.8727C198.489 28.091 197.826 28.2131 197.027 28.2131V30.2131C198.027 30.2131 198.95 30.0605 199.777 29.7296L199.035 27.8727Z" fill="white" fill-opacity="0.2" mask="url(#path-1-outside-1_2319_138)"/>
<path d="M13.6488 7.30273C10.2956 7.49349 6.82093 8.81419 4.43583 11.1788C2.05073 13.5435 0.702069 16.6797 0.482422 20.0311H7.22984C7.33941 18.3594 8.1013 17.2555 9.29102 16.076C10.4807 14.8965 11.9762 13.8031 13.6488 13.708V7.30273Z" fill="#FF5F00"/>
<path d="M4.78786 11.5339C6.94814 9.39215 10.0642 8.12859 13.1488 7.84155V13.2593C11.485 13.5208 10.0452 14.6243 8.939 15.721C7.81521 16.8351 7.00357 17.9425 6.77889 19.5311H1.02629C1.33986 16.496 2.62124 13.6819 4.78786 11.5339Z" stroke="white" stroke-opacity="0.2"/>
<path d="M7.95508 33.2801C9.96182 34.3074 12.3817 34.7582 14.6358 34.7222C16.8899 34.6863 19.1007 34.097 21.0736 33.0063C23.0466 31.9155 24.7213 30.3567 25.9505 28.4669C27.1798 26.5771 27.6853 23.7829 27.8826 21.5371L21.4147 21.5511C21.3163 22.6713 20.7829 23.7642 20.1698 24.7068C19.5566 25.6495 18.903 26.3308 17.9188 26.8748C16.9347 27.4189 15.8406 27.9244 14.7162 27.9424C13.5918 27.9603 10.1441 28.1796 7.95508 24.7397V33.2801Z" fill="#FF5F00"/>
<path d="M14.6279 34.2223C12.5412 34.2556 10.3213 33.858 8.45508 32.9694V26.1997C10.6537 28.5323 13.4722 28.4698 14.5742 28.4453C14.6284 28.4441 14.6785 28.443 14.7242 28.4423C15.9813 28.4223 17.1691 27.8606 18.1607 27.3124C19.2315 26.7204 19.9414 25.9749 20.5889 24.9794C21.1419 24.1294 21.6592 23.1215 21.8517 22.0502L27.3313 22.0383C27.1041 24.1518 26.5964 26.5569 25.5314 28.1943C24.3469 30.0154 22.733 31.5176 20.8317 32.5687C18.9305 33.6198 16.8001 34.1876 14.6279 34.2223Z" stroke="white" stroke-opacity="0.2"/>
<path d="M0.482422 20.8252H7.24354V41.4644C7.24354 41.4644 4.89526 41.2973 3.55351 40.839C2.17871 40.3693 0.482422 39.0829 0.482422 39.0829V20.8252Z" fill="#FF5F00"/>
<path d="M0.982422 21.3252H6.74354V40.9178C6.52737 40.896 6.25984 40.8663 5.96674 40.8278C5.2163 40.7293 4.33583 40.5778 3.71514 40.3658C3.086 40.1509 2.35902 39.7383 1.7714 39.3633C1.4817 39.1785 1.23354 39.0077 1.05807 38.8833C1.03107 38.8642 1.00582 38.8462 0.982422 38.8294V21.3252Z" stroke="white" stroke-opacity="0.2"/>
<rect x="14.3604" y="7.30273" width="20.6392" height="6.40526" fill="white"/>
<rect x="14.8604" y="7.80273" width="19.6392" height="5.40526" stroke="white" stroke-opacity="0.2"/>
<rect x="27.8828" y="0.185547" width="20.6392" height="6.40526" transform="rotate(90 27.8828 0.185547)" fill="white"/>
<rect x="27.3828" y="0.685547" width="19.6392" height="5.40526" transform="rotate(90 27.3828 0.685547)" stroke="white" stroke-opacity="0.2"/>
</svg>
